<svg width="494" height="328" viewBox="0 0 494 328" fill="none" xmlns="http://www.w3.org/2000/svg">
<g filter="url(#filter0_d)">
<rect x="6" y="6.70117" width="480" height="312.762" rx="8" fill="#FEFEFE"/>
</g>
<rect x="234.948" y="69.7814" width="47.3418" height="14.1449" rx="7.07247" fill="#E0E0E0"/>
<rect x="234.948" y="254.471" width="47.3418" height="14.1449" rx="7.07247" fill="#E0E0E0"/>
<rect x="289.734" y="254.471" width="47.3418" height="14.1449" rx="7.07247" fill="#E0E0E0"/>
<rect x="344.52" y="254.471" width="47.3418" height="14.1449" rx="7.07247" fill="#E0E0E0"/>
<rect x="399.306" y="254.471" width="47.3418" height="14.1449" rx="7.07247" fill="#E0E0E0"/>
<path d="M440.49 268.683L442.924 277.766C443.821 281.113 443.382 290.502 443.331 291.571C443.295 292.172 442.881 292.676 442.304 292.831L425.476 297.34C424.964 297.477 424.411 297.302 424.064 296.902C424.041 296.866 421.378 293.753 420.452 292.819C419.376 291.743 417.954 290.478 416.454 289.136C414.399 287.295 412.057 285.221 409.817 282.951C408.08 281.194 407.642 279.243 408.593 277.596C409.131 276.664 410.006 275.993 411.057 275.711C411.07 275.708 411.07 275.708 411.083 275.704C412.133 275.423 413.243 275.576 414.192 276.123C414.221 276.13 414.242 276.152 414.275 276.172L417.979 278.654L413.772 262.955C413.189 260.776 414.482 258.516 416.648 257.936C418.814 257.356 421.064 258.666 421.648 260.845L422.816 265.203C423.171 264.953 423.586 264.771 424.033 264.652C425.542 264.247 427.1 264.758 428.098 265.856C428.543 265.469 429.095 265.166 429.712 265.001C431.365 264.558 433.074 265.211 434.046 266.527C434.462 266.19 434.959 265.945 435.51 265.797C437.656 265.194 439.906 266.504 440.49 268.683ZM440.259 278.48L437.825 269.397C437.632 268.675 436.899 268.252 436.204 268.439C435.508 268.625 435.085 269.357 435.279 270.079L436.316 273.952C436.513 274.687 436.084 275.449 435.349 275.646C434.614 275.843 433.865 275.41 433.665 274.662L432.043 268.611C431.85 267.889 431.118 267.466 430.422 267.653C429.726 267.839 429.304 268.571 429.497 269.293L430.654 273.612C430.851 274.347 430.419 275.096 429.684 275.293C428.949 275.49 428.2 275.057 428.003 274.322L426.381 268.271C426.188 267.549 425.456 267.126 424.76 267.313C424.051 267.503 423.641 268.231 423.835 268.953L424.992 273.272C425.189 274.007 424.76 274.769 424.025 274.966C423.29 275.163 422.537 274.717 422.34 273.982L419.01 261.552C418.816 260.83 418.097 260.404 417.388 260.594C416.679 260.783 416.27 261.512 416.463 262.234L421.623 281.49C421.771 282.041 421.563 282.632 421.091 282.969C420.632 283.303 420.002 283.317 419.522 282.996L412.814 278.49C412.518 278.331 412.168 278.284 411.827 278.375C411.485 278.467 411.205 278.682 411.032 278.982C410.658 279.631 411.255 280.442 411.832 281.019C414.011 283.22 416.307 285.278 418.338 287.083C419.871 288.445 421.317 289.746 422.45 290.877C423.194 291.606 424.791 293.472 425.662 294.462L440.678 290.439C440.751 287.141 440.857 280.712 440.259 278.48Z" fill="#E0E0E0"/>
<path d="M437.825 269.397L440.259 278.48C440.853 280.698 440.747 287.128 440.618 290.427L425.602 294.45C424.741 293.443 423.134 291.594 422.39 290.865C421.257 289.734 419.815 288.446 418.279 287.071C416.247 285.266 413.955 283.221 411.772 281.006C411.208 280.426 410.608 279.602 410.973 278.969C411.146 278.67 411.426 278.454 411.767 278.363C412.108 278.271 412.458 278.318 412.755 278.478L419.463 282.983C419.943 283.305 420.572 283.291 421.031 282.957C421.503 282.619 421.711 282.029 421.563 281.478L416.411 262.248C416.217 261.526 416.627 260.797 417.336 260.607C418.045 260.418 418.764 260.844 418.957 261.566L422.288 273.996C422.485 274.731 423.237 275.177 423.972 274.98C424.707 274.783 425.136 274.021 424.939 273.286L423.782 268.967C423.589 268.245 424.012 267.513 424.707 267.327C425.403 267.14 426.135 267.563 426.329 268.285L427.95 274.336C428.147 275.071 428.896 275.504 429.631 275.307C430.366 275.11 430.799 274.361 430.602 273.626L429.444 269.307C429.251 268.585 429.674 267.853 430.369 267.666C431.078 267.477 431.797 267.903 431.991 268.625L433.612 274.676C433.809 275.411 434.562 275.857 435.297 275.66C436.032 275.463 436.464 274.714 436.264 273.965L435.226 270.093C435.033 269.371 435.456 268.639 436.151 268.453C436.899 268.252 437.635 268.688 437.825 269.397Z" fill="white"/>
<rect x="293.826" y="69.7814" width="149.733" height="14.1449" rx="7.07247" fill="#E0E0E0"/>
<path d="M121.299 56.8982C148.624 56.8982 164.744 103.601 167.831 128.467C170.917 153.334 181.721 160.994 194.355 160.994C212.247 160.994 214.191 147.617 213.619 134.641C211.961 98.2849 183.265 27.0587 121.299 27.0587C59.3908 27.0587 31.4949 98.2849 28.9797 134.698C28.0079 148.589 30.3516 161.051 48.2439 161.051C60.8771 161.051 71.7382 153.391 74.7679 128.525C77.8547 103.601 93.975 56.8982 121.299 56.8982Z" fill="#E0E0E0"/>
<path d="M93.8605 62.386C97.6333 59.8708 94.1463 52.954 90.545 49.6385C86.9436 46.323 84.8286 45.5799 82.0275 46.323C79.1694 47.0661 74.2533 50.7246 74.0818 54.2116C73.9103 57.2413 76.7685 59.0705 81.4559 60.8426C85.5717 62.386 91.6311 63.8723 93.8605 62.386Z" fill="white"/>
<path d="M103.693 54.5545C108.152 52.0964 104.437 41.5783 102.722 38.7773C100.206 34.5471 86.0298 41.4068 89.1738 46.38C91.4032 49.9242 97.3482 58.0415 103.693 54.5545Z" fill="white"/>
<path d="M121.242 34.8901C121.013 30.8315 104.322 31.6318 104.322 37.4625C104.322 43.5219 107.466 53.2397 113.582 53.2397C119.756 53.2969 121.642 40.8352 121.242 34.8901Z" fill="white"/>
<path d="M64.4212 141.387C64.4212 135.728 58.5905 129.725 49.6158 129.725C40.641 129.725 37.2112 133.041 36.4681 139.9C35.6678 147.503 38.3545 153.448 47.8437 153.448C57.3329 153.448 64.4212 147.217 64.4212 141.387Z" fill="white"/>
<path d="M68.3653 123.437C68.8226 118.349 60.1909 113.433 57.79 112.347C55.0461 111.147 43.7848 105.373 41.2125 114.748C38.6401 124.123 44.3565 128.582 51.3876 129.21C58.4188 129.839 67.6793 131.326 68.3653 123.437Z" fill="white"/>
<path d="M73.1101 107.431C73.7961 103.544 70.1376 96.9133 63.5066 94.398C56.7041 91.8257 50.3589 91.8257 47.9009 96.9704C45.7858 101.429 46.3003 107.546 57.1614 111.319C64.8785 114.005 72.3098 112.062 73.1101 107.431Z" fill="#828282"/>
<path d="M70.881 76.5054C64.0213 73.2471 57.6189 74.5047 55.3896 79.0207C52.5314 84.8514 55.7325 91.0251 63.1638 93.6546C69.4519 95.884 74.8253 93.9404 76.9403 88.3384C78.6552 83.8224 76.0829 78.9635 70.881 76.5054Z" fill="#828282"/>
<path d="M86.9437 73.3615C89.0016 68.9598 87.0009 64.2724 80.8843 61.2999C74.7106 58.2702 69.7946 58.1559 66.479 62.2145C63.2207 66.216 63.335 72.2182 70.652 75.7623C75.9111 78.2775 84.5428 78.449 86.9437 73.3615Z" fill="white"/>
<path d="M149.195 62.386C145.422 59.8708 148.909 52.954 152.511 49.6385C156.112 46.323 158.227 45.5799 161.028 46.323C163.886 47.0661 168.802 50.7246 168.974 54.2116C169.145 57.2413 166.287 59.0705 161.6 60.8426C157.484 62.386 151.482 63.8723 149.195 62.386Z" fill="white"/>
<path d="M139.42 54.5545C134.961 52.0964 138.677 41.5783 140.392 38.7773C142.907 34.5471 157.084 41.4068 153.94 46.38C151.653 49.9242 145.708 58.0415 139.42 54.5545Z" fill="white"/>
<path d="M121.814 34.8901C122.042 30.8315 138.734 31.6318 138.734 37.4625C138.734 43.5219 135.59 53.2397 129.474 53.2397C123.3 53.2969 121.414 40.8352 121.814 34.8901Z" fill="white"/>
<path d="M178.635 141.387C178.635 135.728 184.465 129.725 193.44 129.725C202.415 129.725 205.845 133.041 206.588 139.9C207.388 147.503 204.701 153.448 195.212 153.448C185.723 153.448 178.635 147.217 178.635 141.387Z" fill="white"/>
<path d="M174.69 123.437C174.233 118.349 182.864 113.433 185.265 112.347C187.952 111.147 199.27 105.373 201.843 114.748C204.415 124.123 198.699 128.582 191.668 129.21C184.636 129.839 175.376 131.326 174.69 123.437Z" fill="white"/>
<path d="M169.945 107.431C169.259 103.544 172.918 96.9133 179.549 94.398C186.351 91.8257 192.696 91.8257 195.154 96.9704C197.27 101.429 196.755 107.546 185.894 111.319C178.177 114.005 170.803 112.062 169.945 107.431Z" fill="#828282"/>
<path d="M172.175 76.5054C179.035 73.2471 185.437 74.5047 187.666 79.0207C190.524 84.8514 187.323 91.0251 179.892 93.6546C173.604 95.884 168.231 93.9404 166.115 88.3384C164.401 83.8224 166.973 78.9635 172.175 76.5054Z" fill="#828282"/>
<path d="M156.112 73.3615C154.054 68.9598 156.055 64.2724 162.171 61.2999C168.345 58.2702 173.261 58.1559 176.576 62.2145C179.835 66.216 179.72 72.2182 172.403 75.7623C167.202 78.2775 158.513 78.449 156.112 73.3615Z" fill="#828282"/>
<path d="M121.242 293.957C180.235 293.957 207.045 235.821 211.961 199.636C214.076 184.03 210.875 172.941 193.211 169.911C180.75 167.739 173.033 173.112 166.687 200.779C161.085 225.188 148.624 264.117 121.299 264.117C93.975 264.117 81.5133 225.246 75.9112 200.779C69.5089 173.055 61.7917 167.739 49.3872 169.911C31.6092 172.998 28.4081 184.088 30.5231 199.693C35.4392 235.821 62.2491 293.957 121.242 293.957Z" fill="#E0E0E0"/>
<path d="M86.3722 252.456C88.9446 255.314 88.0871 259.316 83.3997 262.86C78.6551 266.404 74.425 267.547 70.8808 265.204C67.3366 262.86 66.3649 258.344 71.9669 254.114C75.9684 251.027 83.3997 249.083 86.3722 252.456Z" fill="white"/>
<path d="M94.4887 259.544C98.7759 261.087 97.0039 268.633 94.3172 272.692C91.6305 276.75 89.7441 277.951 86.8287 277.951C83.8562 277.894 78.2541 275.55 77.2252 272.177C76.3677 269.262 78.7114 266.804 82.8272 264.003C86.4285 261.545 91.9163 258.629 94.4887 259.544Z" fill="white"/>
<path d="M105.865 267.433C110.495 269.72 106.379 279.78 104.893 282.81C102.663 287.383 89.6872 282.239 92.4311 276.922C94.4318 273.035 99.2907 264.232 105.865 267.433Z" fill="white"/>
<path d="M121.071 284.468C120.842 288.069 106.723 288.469 106.723 283.267C106.723 277.951 110.038 269.319 115.469 269.319C120.842 269.319 121.414 279.208 121.071 284.468Z" fill="white"/>
<path d="M36.7534 194.092C34.867 188.776 38.2968 181.116 46.7571 178.143C55.2173 175.113 59.5618 177.057 62.5914 183.288C65.9069 190.147 65.3925 196.721 56.4178 199.922C47.5002 203.066 38.7541 199.579 36.7534 194.092Z" fill="white"/>
<path d="M69.1664 208.211C69.6237 213.299 62.6498 217.7 60.2489 218.786C57.5622 219.987 48.5875 224.789 44.243 215.814C39.9557 207.068 46.3009 201.98 53.332 201.351C60.3632 200.723 68.4805 200.322 69.1664 208.211Z" fill="white"/>
<path d="M74.4247 222.788C75.5108 226.561 74.2532 232.449 67.9652 235.707C61.5057 239.023 55.1605 239.709 52.188 234.85C49.6156 230.62 49.4441 224.503 59.7908 219.587C67.1649 216.043 73.0528 218.272 74.4247 222.788Z" fill="white"/>
<path d="M74.7677 251.655C68.9942 255.314 63.1635 254.914 60.7054 251.141C57.5043 246.282 59.6765 240.394 66.0217 237.25C71.3951 234.564 76.3683 235.707 78.8835 240.451C80.8843 244.281 79.1694 248.854 74.7677 251.655Z" fill="white"/>
<path d="M156.57 252.456C153.998 255.314 154.855 259.316 159.543 262.86C164.287 266.404 168.517 267.547 172.061 265.204C175.606 262.86 176.577 258.344 170.975 254.114C166.974 251.027 159.6 249.083 156.57 252.456Z" fill="white"/>
<path d="M148.509 259.544C144.222 261.087 145.994 268.633 148.681 272.692C151.368 276.75 153.254 277.951 156.169 277.951C159.142 277.894 164.744 275.55 165.773 272.177C166.63 269.262 164.287 266.804 160.171 264.003C156.569 261.545 151.025 258.629 148.509 259.544Z" fill="white"/>
<path d="M137.134 267.433C132.504 269.72 136.619 279.78 138.106 282.81C140.335 287.383 153.311 282.239 150.567 276.922C148.51 273.035 143.651 264.232 137.134 267.433Z" fill="white"/>
<path d="M121.87 284.468C122.099 288.069 136.218 288.469 136.218 283.267C136.218 277.951 132.903 269.319 127.472 269.319C122.099 269.319 121.585 279.208 121.87 284.468Z" fill="white"/>
<path d="M206.188 194.092C208.074 188.776 204.644 181.116 196.184 178.143C187.724 175.113 183.379 177.057 180.349 183.288C177.034 190.147 177.548 196.721 186.523 199.922C195.498 203.066 204.244 199.579 206.188 194.092Z" fill="white"/>
<path d="M173.833 208.211C173.376 213.299 180.35 217.7 182.751 218.786C185.438 219.987 194.412 224.789 198.757 215.814C203.044 207.068 196.699 201.98 189.668 201.351C182.637 200.723 174.519 200.322 173.833 208.211Z" fill="white"/>
<path d="M168.573 222.788C167.487 226.561 168.745 232.449 175.033 235.707C181.493 239.023 187.838 239.709 190.81 234.85C193.383 230.62 193.554 224.503 183.207 219.587C175.833 216.043 169.888 218.272 168.573 222.788Z" fill="white"/>
<path d="M168.174 251.655C173.947 255.314 179.778 254.914 182.236 251.141C185.437 246.282 183.265 240.394 176.92 237.25C171.546 234.564 166.573 235.707 164.058 240.451C162.114 244.281 163.829 248.854 168.174 251.655Z" fill="white"/>
<path d="M49.7304 146.132C50.3592 145.046 50.1878 143.845 51.0452 142.816C51.8455 141.902 53.3318 141.33 54.3607 140.815C52.4171 139.786 51.0452 138.986 50.0734 136.985C48.0155 138.243 47.844 141.616 44.5857 141.273C46.9294 140.987 49.9019 143.845 49.7304 146.132Z" fill="#F2F2F2"/>
<path d="M50.9881 123.723C51.6169 121.837 50.5879 120.636 50.1306 119.036C52.0742 119.15 53.5604 118.293 55.2182 117.607C55.6755 118.75 55.504 120.065 55.9613 121.151C54.2464 120.636 51.2167 122.237 50.9881 123.723Z" fill="#F2F2F2"/>
<path d="M55.8469 100.229C56.7615 100.229 57.9048 100.4 58.8194 100.229C59.6769 100.057 60.3629 99.3144 61.1632 99.2572C61.3347 100.572 61.7348 102.973 62.9352 103.716C60.7059 103.487 58.8194 103.487 56.9902 104.974C56.4757 103.544 56.4757 101.944 55.9613 100.515L55.8469 100.229Z" fill="#F2F2F2"/>
<path d="M62.2495 81.5938C63.0498 81.7081 63.9073 81.9939 64.7647 81.9939C65.6222 81.9939 66.4225 81.4223 66.9941 81.7652C68.0802 82.394 68.366 85.1379 69.1092 86.1669C69.1663 86.224 69.1663 86.224 69.1092 86.1669C67.1084 85.5952 65.3935 86.1097 63.6214 86.8528C63.2213 85.1951 63.5643 83.2515 62.3638 81.8796L62.2495 81.5938Z" fill="#F2F2F2"/>
<path d="M73.1108 66.2166C74.5971 67.074 76.3692 67.0169 77.7411 65.9879C78.0841 67.1312 77.9698 68.446 78.3699 69.5321C76.998 69.6464 75.969 69.9322 74.7686 70.561C74.5399 69.1319 73.6825 67.5885 73.1108 66.2166Z" fill="#F2F2F2"/>
<path d="M193.327 146.132C192.698 145.046 192.869 143.845 192.012 142.816C191.211 141.902 189.725 141.33 188.696 140.815C190.64 139.786 192.012 138.986 192.984 136.985C195.041 138.243 195.213 141.616 198.471 141.273C196.128 140.987 193.212 143.845 193.327 146.132Z" fill="#F2F2F2"/>
<path d="M192.068 123.723C191.44 121.837 192.469 120.636 192.926 119.036C190.982 119.15 189.496 118.293 187.838 117.607C187.381 118.75 187.553 120.065 187.095 121.151C188.81 120.636 191.84 122.237 192.068 123.723Z" fill="#F2F2F2"/>
<path d="M187.209 100.229C186.295 100.229 185.151 100.4 184.237 100.229C183.379 100.057 182.693 99.3144 181.893 99.2572C181.722 100.572 181.322 102.973 180.121 103.716C182.35 103.487 184.237 103.487 186.066 104.974C186.581 103.544 186.581 101.944 187.095 100.515L187.209 100.229Z" fill="#F2F2F2"/>
<path d="M180.864 81.5938C180.064 81.7081 179.206 81.9939 178.349 81.9939C177.491 81.9939 176.691 81.4223 176.119 81.7652C175.033 82.394 174.747 85.1379 174.004 86.1669C173.947 86.224 173.947 86.224 174.004 86.1669C176.005 85.5952 177.72 86.1097 179.492 86.8528C179.892 85.1951 179.549 83.2515 180.75 81.8796L180.864 81.5938Z" fill="#F2F2F2"/>
<path d="M169.946 66.2166C168.459 67.074 166.687 67.0169 165.315 65.9879C164.972 67.1312 165.087 68.446 164.687 69.5321C166.058 69.6464 167.087 69.9322 168.288 70.561C168.517 69.1319 169.374 67.5885 169.946 66.2166Z" fill="#F2F2F2"/>
<path d="M48.3011 184.717C48.2439 186.375 47.215 187.861 46.186 189.119C47.9581 188.947 50.2447 190.548 51.3879 191.748C51.9596 190.147 52.0739 189.176 52.8742 187.689C51.6166 187.632 48.3011 184.717 48.3011 184.717Z" fill="#F2F2F2"/>
<path d="M53.5596 207.296C55.789 207.582 56.3034 209.297 58.9901 208.897C57.2752 210.155 56.6464 211.527 55.7318 213.413C54.7028 212.384 53.4452 211.298 51.959 210.841C53.1023 210.097 53.7882 208.84 53.5596 207.296Z" fill="#F2F2F2"/>
<path d="M61.9633 224.789C63.0494 226.046 64.1355 226.275 65.7361 226.275C64.0784 228.047 63.0494 229.648 62.3635 231.991C61.6203 230.448 60.8772 229.59 59.6768 228.333C60.4199 227.018 61.7918 226.503 61.9633 224.789Z" fill="#F2F2F2"/>
<path d="M67.6223 242.566C68.5369 243.424 70.309 243.995 71.7952 244.224C71.3379 245.768 70.5376 247.311 70.1375 248.854C69.28 248.283 66.479 247.254 66.3647 246.568C66.136 245.367 68.4797 244.338 67.6223 242.566Z" fill="#F2F2F2"/>
<path d="M194.64 184.717C194.698 186.374 195.727 187.861 196.756 189.118C194.983 188.947 192.697 190.547 191.554 191.748C190.982 190.147 190.868 189.175 190.067 187.689C191.325 187.632 194.64 184.717 194.64 184.717Z" fill="#F2F2F2"/>
<path d="M189.381 207.296C187.152 207.582 186.637 209.297 183.951 208.897C185.666 210.155 186.294 211.527 187.209 213.413C188.238 212.384 189.496 211.298 190.982 210.841C189.839 210.097 189.21 208.84 189.381 207.296Z" fill="#F2F2F2"/>
<path d="M181.035 224.789C179.948 226.046 178.862 226.275 177.262 226.275C178.919 228.047 179.948 229.648 180.634 231.991C181.378 230.448 182.121 229.59 183.321 228.333C182.578 227.018 181.206 226.503 181.035 224.789Z" fill="#F2F2F2"/>
<path d="M175.376 242.566C174.461 243.424 172.689 243.995 171.203 244.224C171.66 245.768 172.461 247.311 172.861 248.854C173.718 248.283 176.519 247.254 176.634 246.568C176.805 245.367 174.519 244.338 175.376 242.566Z" fill="#F2F2F2"/>
<path d="M71.0617 59.9515C68.0462 60.3652 64.1885 65.1425 64.1885 68.0037C64.1885 73.0402 67.044 75.913 72.0122 77.017C75.9394 77.8897 80.0724 79.7581 83.5967 77.017C85.0388 75.8954 89.6277 71.2454 86.8487 66.5743" stroke="#828282" stroke-width="2" stroke-linecap="round" stroke-linejoin="round"/>
<path d="M40.7298 117.131C37.6017 133.162 63.5905 132.509 67.6726 125.842" stroke="#828282" stroke-width="2" stroke-linecap="round" stroke-linejoin="round"/>
<path d="M78.7699 91.2814C79.6485 90.163 80.0085 88.1715 80.1134 86.2606C80.2025 84.6356 82.0186 83.4325 83.5092 84.0858C87.2037 85.705 92.4847 87.514 97.2942 87.7187C105.666 88.0749 113.542 75.2507 121.859 75.2507C128.98 75.2507 136.658 83.6219 140.486 83.6219C144.313 83.6219 145.921 75.2507 148.592 70.4411C149.606 68.616 150.874 67.3869 152.072 66.5863C153.372 65.7178 154.587 67.1464 154.377 68.6955C154.114 70.6249 154.231 72.9911 155.361 75.2507C156.632 77.7931 159.321 79.1205 161.75 79.749C163.275 80.1436 164.294 82.0398 163.986 83.5845C163.489 86.0815 163.996 88.7231 165.336 91.2814C166.221 92.9715 167.83 94.2487 169.373 95.1259C170.692 95.8759 171.176 97.7917 170.334 99.0546C167.692 103.021 168.211 106.257 168.72 108.559C168.946 109.58 170.315 111.413 171.768 113.003C173.236 114.608 173.421 116.599 171.492 117.603C165.219 120.864 150.398 126.113 141.421 127.796C130.022 129.933 128.418 107.668 119.691 108.559C110.963 109.45 111.831 133.793 81.9761 125.658C70.6229 122.565 66.9479 117.963 66.1137 115.394C65.8364 114.54 66.5696 113.881 67.4552 113.733C72.4018 112.907 75.2393 109.603 75.5639 105.709C75.7138 103.91 74.9501 101.9 73.9678 100.158C73.1102 98.6366 74.0958 95.8561 75.4648 94.772C76.6976 93.7957 77.7993 92.5166 78.7699 91.2814Z" fill="#828282" stroke="#828282" stroke-linecap="round" stroke-linejoin="round"/>
<rect x="108.16" y="104.159" width="275.68" height="117.847" rx="7.5" fill="white" stroke="#BDBDBD"/>
<rect x="125.989" y="179.311" width="113.891" height="27.3263" rx="13.6632" fill="#4482F0"/>
<path d="M152.502 193.389H150.939V196.311H149.763V189.275H152.363C153.154 189.275 153.763 189.452 154.189 189.806C154.615 190.157 154.828 190.662 154.828 191.321C154.828 192.048 154.459 192.572 153.722 192.895C154.466 193.131 154.839 193.686 154.839 194.56V195.145C154.839 195.657 154.952 196.008 155.177 196.198V196.311H153.969C153.765 196.139 153.662 195.747 153.662 195.134V194.57C153.662 194.205 153.559 193.917 153.351 193.706C153.147 193.494 152.864 193.389 152.502 193.389ZM150.939 190.214V192.449H152.304C152.773 192.449 153.115 192.359 153.329 192.18C153.548 192.001 153.657 191.727 153.657 191.359C153.657 190.99 153.548 190.707 153.329 190.51C153.115 190.313 152.792 190.214 152.363 190.214H150.939ZM161.23 192.202V193.142H158.152V195.371H161.724V196.311H156.976V189.275H161.692V190.214H158.152V192.202H161.23ZM165.816 195.494C166.249 195.494 166.586 195.408 166.826 195.236C167.069 195.061 167.191 194.823 167.191 194.522C167.191 194.221 167.08 193.978 166.858 193.792C166.64 193.605 166.258 193.439 165.714 193.292C164.894 193.074 164.28 192.794 163.872 192.454C163.463 192.11 163.259 191.663 163.259 191.111C163.259 190.556 163.494 190.096 163.963 189.731C164.432 189.366 165.043 189.183 165.794 189.183C166.546 189.183 167.159 189.387 167.631 189.796C168.108 190.204 168.339 190.707 168.324 191.305L168.314 191.332H167.186C167.186 190.963 167.062 190.669 166.815 190.451C166.568 190.229 166.226 190.118 165.789 190.118C165.356 190.118 165.021 190.211 164.785 190.397C164.552 190.58 164.436 190.814 164.436 191.101C164.436 191.384 164.559 191.613 164.806 191.788C165.053 191.964 165.469 192.132 166.052 192.293C166.826 192.501 167.404 192.785 167.787 193.147C168.174 193.505 168.367 193.967 168.367 194.533C168.367 195.099 168.134 195.555 167.669 195.902C167.203 196.25 166.586 196.423 165.816 196.423C165.447 196.423 165.094 196.373 164.758 196.273C164.425 196.169 164.131 196.026 163.877 195.843C163.623 195.661 163.422 195.432 163.275 195.156C163.129 194.877 163.059 194.572 163.066 194.243L163.077 194.216H164.21C164.21 194.631 164.353 194.948 164.64 195.167C164.926 195.381 165.316 195.489 165.811 195.489L165.816 195.494ZM174.264 193.985H175.397L175.408 194.017C175.419 194.741 175.186 195.322 174.71 195.763C174.234 196.203 173.587 196.423 172.771 196.423C171.954 196.423 171.288 196.15 170.773 195.602C170.261 195.05 170.005 194.341 170.005 193.475V192.137C170.005 191.271 170.259 190.562 170.767 190.01C171.276 189.459 171.942 189.183 172.766 189.183C173.589 189.183 174.239 189.402 174.715 189.839C175.191 190.272 175.424 190.859 175.413 191.6L175.403 191.627H174.264C174.264 191.147 174.135 190.777 173.877 190.515C173.62 190.254 173.247 190.123 172.76 190.123C172.277 190.123 171.892 190.311 171.605 190.687C171.322 191.063 171.181 191.543 171.181 192.127V193.475C171.181 194.066 171.326 194.549 171.616 194.925C171.906 195.297 172.295 195.484 172.782 195.484C173.269 195.484 173.637 195.356 173.888 195.102C174.139 194.844 174.264 194.472 174.264 193.985ZM182.712 189.275V196.311H181.547V193.308H178.394V196.311H177.217V189.275H178.394V192.368H181.547V189.275H182.712ZM189.168 192.202V193.142H186.09V195.371H189.662V196.311H184.914V189.275H189.629V190.214H186.09V192.202H189.168ZM193.56 190.214H192.486V195.371H193.56C194.137 195.371 194.593 195.185 194.93 194.812C195.267 194.436 195.435 193.942 195.435 193.33V192.25C195.435 191.641 195.267 191.151 194.93 190.778C194.593 190.402 194.137 190.214 193.56 190.214ZM193.593 196.311H191.31V189.275H193.593C194.488 189.275 195.215 189.552 195.773 190.107C196.332 190.662 196.611 191.38 196.611 192.261V193.33C196.611 194.211 196.332 194.929 195.773 195.484C195.215 196.035 194.488 196.311 193.593 196.311ZM202.653 189.285H203.835V194.001C203.835 194.771 203.584 195.367 203.083 195.79C202.585 196.212 201.919 196.423 201.085 196.423C200.25 196.423 199.588 196.212 199.097 195.79C198.607 195.364 198.362 194.767 198.362 194.001V189.285H199.532V194.001C199.532 194.488 199.667 194.857 199.935 195.108C200.207 195.358 200.589 195.484 201.079 195.484C201.57 195.484 201.955 195.358 202.234 195.108C202.513 194.857 202.653 194.488 202.653 194.001V189.285ZM207.062 189.275V195.371H210.295V196.311H205.886V189.275H207.062ZM216.16 192.202V193.142H213.082V195.371H216.654V196.311H211.906V189.275H216.622V190.214H213.082V192.202H216.16Z" fill="white"/>
<rect x="252.62" y="179.811" width="112.891" height="26.3263" rx="13.1632" fill="white" stroke="#828282"/>
<path d="M278.26 193.985H279.394L279.404 194.017C279.415 194.741 279.182 195.322 278.706 195.763C278.23 196.203 277.584 196.423 276.767 196.423C275.951 196.423 275.285 196.15 274.769 195.602C274.257 195.05 274.001 194.341 274.001 193.475V192.137C274.001 191.271 274.255 190.562 274.764 190.01C275.272 189.459 275.938 189.183 276.762 189.183C277.585 189.183 278.235 189.402 278.712 189.839C279.188 190.272 279.421 190.859 279.41 191.6L279.399 191.627H278.26C278.26 191.147 278.132 190.777 277.874 190.515C277.616 190.254 277.244 190.123 276.757 190.123C276.273 190.123 275.888 190.311 275.602 190.687C275.319 191.063 275.177 191.543 275.177 192.127V193.475C275.177 194.066 275.322 194.549 275.612 194.925C275.903 195.297 276.291 195.484 276.778 195.484C277.265 195.484 277.634 195.356 277.884 195.102C278.135 194.844 278.26 194.472 278.26 193.985ZM285.532 193.437V192.159C285.532 191.561 285.373 191.077 285.054 190.709C284.739 190.336 284.32 190.15 283.797 190.15C283.278 190.15 282.868 190.336 282.567 190.709C282.267 191.077 282.116 191.561 282.116 192.159V193.437C282.116 194.039 282.267 194.527 282.567 194.903C282.868 195.276 283.28 195.462 283.803 195.462C284.329 195.462 284.748 195.276 285.06 194.903C285.375 194.531 285.532 194.042 285.532 193.437ZM286.703 192.17V193.437C286.703 194.307 286.433 195.023 285.892 195.586C285.351 196.144 284.655 196.423 283.803 196.423C282.954 196.423 282.265 196.144 281.735 195.586C281.209 195.023 280.945 194.307 280.945 193.437V192.17C280.945 191.303 281.209 190.589 281.735 190.026C282.265 189.464 282.949 189.183 283.787 189.183C284.352 189.183 284.857 189.312 285.301 189.57C285.749 189.828 286.094 190.184 286.338 190.639C286.581 191.09 286.703 191.6 286.703 192.17ZM294.125 189.275V196.311H292.96L289.834 191.171L289.807 191.181V196.311H288.631V189.275H289.807L292.928 194.404L292.96 194.399V189.275H294.125ZM301.139 189.275V190.214H299.012V196.311H297.836V190.214H295.709V189.275H301.139ZM306.569 196.311L306.01 194.667H303.255L302.696 196.311H301.504L304.093 189.275H305.205L307.761 196.311H306.569ZM304.63 190.676L303.593 193.684H305.677L304.657 190.676H304.63ZM313.239 193.985H314.372L314.383 194.017C314.394 194.741 314.161 195.322 313.685 195.763C313.209 196.203 312.562 196.423 311.746 196.423C310.93 196.423 310.264 196.15 309.748 195.602C309.236 195.05 308.98 194.341 308.98 193.475V192.137C308.98 191.271 309.234 190.562 309.743 190.01C310.251 189.459 310.917 189.183 311.741 189.183C312.564 189.183 313.214 189.402 313.69 189.839C314.167 190.272 314.399 190.859 314.389 191.6L314.378 191.627H313.239C313.239 191.147 313.11 190.777 312.852 190.515C312.595 190.254 312.222 190.123 311.735 190.123C311.252 190.123 310.867 190.311 310.58 190.687C310.298 191.063 310.156 191.543 310.156 192.127V193.475C310.156 194.066 310.301 194.549 310.591 194.925C310.881 195.297 311.27 195.484 311.757 195.484C312.244 195.484 312.613 195.356 312.863 195.102C313.114 194.844 313.239 194.472 313.239 193.985ZM320.865 189.275V190.214H318.739V196.311H317.562V190.214H315.435V189.275H320.865ZM327.079 189.275V195.371H330.312V196.311H325.902V189.275H327.079ZM336.391 196.311L335.833 194.667H333.077L332.519 196.311H331.326L333.915 189.275H335.027L337.584 196.311H336.391ZM334.452 190.676L333.416 193.684H335.5L334.479 190.676H334.452ZM341.848 193.109H340.236V195.371H341.713C342.125 195.371 342.439 195.279 342.653 195.097C342.872 194.911 342.981 194.642 342.981 194.291C342.981 193.503 342.603 193.109 341.848 193.109ZM340.236 190.214V192.234H341.531C341.903 192.234 342.193 192.148 342.401 191.976C342.609 191.804 342.712 191.561 342.712 191.246C342.712 190.558 342.276 190.214 341.402 190.214H340.236ZM341.713 196.311H339.06V189.275H341.402C342.197 189.275 342.809 189.436 343.239 189.758C343.669 190.08 343.883 190.558 343.883 191.192C343.883 191.511 343.792 191.795 343.609 192.046C343.427 192.297 343.173 192.485 342.847 192.61C343.262 192.703 343.583 192.902 343.808 193.206C344.037 193.507 344.152 193.869 344.152 194.291C344.152 194.946 343.939 195.448 343.513 195.795C343.087 196.139 342.487 196.311 341.713 196.311Z" fill="#828282"/>
<path d="M130.045 129.674V138.822H134.889V139.908H128.662V129.674H130.045ZM138.35 140.072C137.558 140.072 136.954 139.872 136.537 139.471C136.12 139.07 135.912 138.507 135.912 137.783C135.912 137.059 136.204 136.492 136.787 136.08C137.37 135.669 138.173 135.463 139.193 135.463H140.693V134.713C140.693 134.265 140.555 133.914 140.279 133.658C140.008 133.398 139.639 133.268 139.17 133.268C138.706 133.268 138.334 133.38 138.053 133.604C137.771 133.822 137.631 134.096 137.631 134.424H136.311L136.295 134.385C136.269 133.812 136.535 133.302 137.092 132.854C137.654 132.401 138.368 132.174 139.232 132.174C140.102 132.174 140.795 132.398 141.311 132.846C141.826 133.289 142.084 133.916 142.084 134.729V138.393C142.084 138.981 142.149 139.492 142.279 139.924H140.85C140.751 139.44 140.699 139.059 140.693 138.783C140.423 139.169 140.079 139.481 139.662 139.721C139.251 139.955 138.813 140.072 138.35 140.072ZM137.311 137.815H137.303C137.303 138.158 137.41 138.427 137.623 138.619C137.837 138.812 138.167 138.908 138.615 138.908C139.063 138.908 139.49 138.783 139.896 138.533C140.308 138.278 140.576 137.981 140.701 137.643V136.401H139.154C138.602 136.401 138.157 136.539 137.818 136.815C137.48 137.085 137.311 137.419 137.311 137.815ZM147.256 133.299C146.443 133.299 145.85 133.684 145.475 134.455V137.752C145.855 138.549 146.456 138.947 147.279 138.947C147.92 138.947 148.402 138.723 148.725 138.276C149.053 137.822 149.217 137.2 149.217 136.408L149.201 136.26C149.201 135.354 149.037 134.635 148.709 134.104C148.381 133.567 147.896 133.299 147.256 133.299ZM150.6 136.26V136.408C150.6 137.523 150.334 138.414 149.803 139.08C149.277 139.742 148.555 140.072 147.639 140.072C146.644 140.072 145.899 139.687 145.404 138.916L145.24 139.924H144.107V128.955H145.49V133.213C145.99 132.52 146.704 132.174 147.631 132.174C148.558 132.174 149.285 132.544 149.811 133.283C150.337 134.023 150.6 135.015 150.6 136.26ZM157.428 136.268C157.428 137.085 157.579 137.731 157.881 138.205C158.209 138.726 158.732 138.986 159.451 138.986C159.92 138.986 160.326 138.843 160.67 138.557C161.014 138.27 161.186 137.924 161.186 137.518H162.428L162.443 137.565C162.469 138.226 162.18 138.809 161.576 139.315C160.972 139.82 160.264 140.072 159.451 140.072C158.368 140.072 157.527 139.721 156.928 139.018C156.329 138.315 156.029 137.398 156.029 136.268V135.971C156.029 134.846 156.329 133.932 156.928 133.229C157.532 132.526 158.373 132.174 159.451 132.174C160.337 132.174 161.063 132.434 161.631 132.955C162.199 133.476 162.472 134.124 162.451 134.901L162.436 134.94H161.186C161.186 134.471 161.021 134.075 160.693 133.752C160.365 133.429 159.956 133.268 159.467 133.268C158.982 133.268 158.584 133.39 158.271 133.635C157.964 133.88 157.745 134.197 157.615 134.588C157.49 134.979 157.428 135.44 157.428 135.971V136.268ZM166.162 140.072C165.37 140.072 164.766 139.872 164.35 139.471C163.933 139.07 163.725 138.507 163.725 137.783C163.725 137.059 164.016 136.492 164.6 136.08C165.183 135.669 165.985 135.463 167.006 135.463H168.506V134.713C168.506 134.265 168.368 133.914 168.092 133.658C167.821 133.398 167.451 133.268 166.982 133.268C166.519 133.268 166.146 133.38 165.865 133.604C165.584 133.822 165.443 134.096 165.443 134.424H164.123L164.107 134.385C164.081 133.812 164.347 133.302 164.904 132.854C165.467 132.401 166.18 132.174 167.045 132.174C167.915 132.174 168.607 132.398 169.123 132.846C169.639 133.289 169.896 133.916 169.896 134.729V138.393C169.896 138.981 169.962 139.492 170.092 139.924H168.662C168.563 139.44 168.511 139.059 168.506 138.783C168.235 139.169 167.891 139.481 167.475 139.721C167.063 139.955 166.626 140.072 166.162 140.072ZM165.123 137.815H165.115C165.115 138.158 165.222 138.427 165.436 138.619C165.649 138.812 165.98 138.908 166.428 138.908C166.876 138.908 167.303 138.783 167.709 138.533C168.12 138.278 168.389 137.981 168.514 137.643V136.401H166.967C166.415 136.401 165.969 136.539 165.631 136.815C165.292 137.085 165.123 137.419 165.123 137.815ZM174.748 138.971C175.238 138.971 175.623 138.874 175.904 138.682C176.186 138.484 176.326 138.223 176.326 137.901C176.326 137.578 176.206 137.322 175.967 137.135C175.727 136.942 175.292 136.773 174.662 136.627C173.704 136.419 172.998 136.143 172.545 135.799C172.097 135.45 171.873 134.971 171.873 134.361C171.873 133.752 172.139 133.234 172.67 132.807C173.201 132.374 173.894 132.158 174.748 132.158C175.602 132.158 176.292 132.385 176.818 132.838C177.35 133.286 177.602 133.843 177.576 134.51L177.561 134.549H176.24C176.24 134.2 176.097 133.898 175.811 133.643C175.529 133.387 175.157 133.26 174.693 133.26C174.235 133.26 173.881 133.364 173.631 133.572C173.381 133.776 173.256 134.036 173.256 134.354C173.256 134.671 173.365 134.914 173.584 135.08C173.803 135.247 174.232 135.398 174.873 135.533C175.852 135.747 176.571 136.033 177.029 136.393C177.488 136.747 177.717 137.218 177.717 137.807C177.717 138.484 177.443 139.031 176.896 139.447C176.355 139.864 175.626 140.072 174.709 140.072C173.792 140.072 173.05 139.833 172.482 139.354C171.92 138.874 171.652 138.294 171.678 137.611L171.693 137.572H173.014C173.04 138.041 173.214 138.395 173.537 138.635C173.865 138.869 174.274 138.986 174.764 138.986L174.748 138.971ZM184.115 135.182C184.115 134.609 183.967 134.148 183.67 133.799C183.373 133.445 182.946 133.268 182.389 133.268C181.93 133.268 181.535 133.46 181.201 133.846C180.873 134.231 180.67 134.723 180.592 135.322L180.607 135.361H184.115V135.182ZM182.6 140.072C181.542 140.072 180.699 139.723 180.068 139.026C179.443 138.328 179.131 137.408 179.131 136.268V135.955C179.131 134.887 179.449 133.992 180.084 133.268C180.725 132.539 181.493 132.174 182.389 132.174C183.399 132.174 184.17 132.479 184.701 133.088C185.238 133.692 185.506 134.523 185.506 135.58V136.447H180.568L180.545 136.479C180.561 137.229 180.748 137.835 181.107 138.299C181.472 138.757 181.969 138.986 182.6 138.986C183.485 138.986 184.204 138.736 184.756 138.236L185.303 139.135H185.295C184.66 139.76 183.761 140.072 182.6 140.072ZM191.826 132.299L193.084 137.135L193.248 138.057H193.287L193.482 137.135L195.006 132.299H196.115L197.639 137.135L197.857 138.166H197.904L198.107 137.135L199.303 132.299H200.678L198.467 139.908H197.35L195.881 135.276L195.568 133.979L195.521 133.986L195.225 135.276L193.771 139.908H192.654L190.451 132.299H191.826ZM204.209 140.072C203.417 140.072 202.813 139.872 202.396 139.471C201.98 139.07 201.771 138.507 201.771 137.783C201.771 137.059 202.063 136.492 202.646 136.08C203.23 135.669 204.032 135.463 205.053 135.463H206.553V134.713C206.553 134.265 206.415 133.914 206.139 133.658C205.868 133.398 205.498 133.268 205.029 133.268C204.566 133.268 204.193 133.38 203.912 133.604C203.631 133.822 203.49 134.096 203.49 134.424H202.17L202.154 134.385C202.128 133.812 202.394 133.302 202.951 132.854C203.514 132.401 204.227 132.174 205.092 132.174C205.962 132.174 206.654 132.398 207.17 132.846C207.686 133.289 207.943 133.916 207.943 134.729V138.393C207.943 138.981 208.008 139.492 208.139 139.924H206.709C206.61 139.44 206.558 139.059 206.553 138.783C206.282 139.169 205.938 139.481 205.521 139.721C205.11 139.955 204.673 140.072 204.209 140.072ZM203.17 137.815H203.162C203.162 138.158 203.269 138.427 203.482 138.619C203.696 138.812 204.027 138.908 204.475 138.908C204.923 138.908 205.35 138.783 205.756 138.533C206.167 138.278 206.436 137.981 206.561 137.643V136.401H205.014C204.462 136.401 204.016 136.539 203.678 136.815C203.339 137.085 203.17 137.419 203.17 137.815ZM212.795 138.971C213.285 138.971 213.67 138.874 213.951 138.682C214.232 138.484 214.373 138.223 214.373 137.901C214.373 137.578 214.253 137.322 214.014 137.135C213.774 136.942 213.339 136.773 212.709 136.627C211.751 136.419 211.045 136.143 210.592 135.799C210.144 135.45 209.92 134.971 209.92 134.361C209.92 133.752 210.186 133.234 210.717 132.807C211.248 132.374 211.941 132.158 212.795 132.158C213.649 132.158 214.339 132.385 214.865 132.838C215.396 133.286 215.649 133.843 215.623 134.51L215.607 134.549H214.287C214.287 134.2 214.144 133.898 213.857 133.643C213.576 133.387 213.204 133.26 212.74 133.26C212.282 133.26 211.928 133.364 211.678 133.572C211.428 133.776 211.303 134.036 211.303 134.354C211.303 134.671 211.412 134.914 211.631 135.08C211.85 135.247 212.279 135.398 212.92 135.533C213.899 135.747 214.618 136.033 215.076 136.393C215.535 136.747 215.764 137.218 215.764 137.807C215.764 138.484 215.49 139.031 214.943 139.447C214.402 139.864 213.673 140.072 212.756 140.072C211.839 140.072 211.097 139.833 210.529 139.354C209.967 138.874 209.699 138.294 209.725 137.611L209.74 137.572H211.061C211.087 138.041 211.261 138.395 211.584 138.635C211.912 138.869 212.321 138.986 212.811 138.986L212.795 138.971ZM221.561 132.299H222.795L222.896 133.432C223.423 132.583 224.175 132.158 225.154 132.158C225.988 132.158 226.626 132.403 227.068 132.893C227.511 133.377 227.732 134.114 227.732 135.104V139.908H226.35V135.135C226.35 134.473 226.219 133.999 225.959 133.713C225.699 133.427 225.292 133.283 224.74 133.283C224.344 133.283 223.993 133.377 223.686 133.565C223.378 133.752 223.131 134.018 222.943 134.361V139.908H221.561V132.299ZM230.811 136.049V136.205C230.811 137.049 230.982 137.723 231.326 138.229C231.675 138.734 232.175 138.986 232.826 138.986C233.477 138.986 233.977 138.734 234.326 138.229C234.675 137.718 234.85 137.044 234.85 136.205V136.049C234.85 135.221 234.673 134.552 234.318 134.041C233.969 133.526 233.469 133.268 232.818 133.268C232.173 133.268 231.675 133.526 231.326 134.041C230.982 134.552 230.811 135.221 230.811 136.049ZM229.42 136.205V136.049C229.42 134.903 229.727 133.971 230.342 133.252C230.956 132.533 231.785 132.174 232.826 132.174C233.868 132.174 234.696 132.533 235.311 133.252C235.925 133.966 236.232 134.898 236.232 136.049V136.205C236.232 137.361 235.925 138.296 235.311 139.01C234.701 139.718 233.873 140.072 232.826 140.072C231.785 140.072 230.956 139.716 230.342 139.002C229.727 138.289 229.42 137.356 229.42 136.205ZM238.373 130.479H239.771V132.315H241.209V133.346H239.771V137.963C239.771 138.609 240.04 138.932 240.576 138.932C240.743 138.932 240.915 138.901 241.092 138.838L241.271 139.783C241.021 139.976 240.67 140.072 240.217 140.072C239.633 140.072 239.18 139.898 238.857 139.549C238.535 139.2 238.373 138.671 238.373 137.963V133.346H237.17V132.315H238.373V130.479ZM246.654 136.26C246.654 135.015 246.917 134.023 247.443 133.283C247.969 132.544 248.688 132.174 249.6 132.174C250.511 132.174 251.212 132.497 251.701 133.143V128.955H253.092V139.924H251.959L251.795 138.986C251.29 139.71 250.571 140.072 249.639 140.072C248.706 140.072 247.977 139.742 247.451 139.08C246.925 138.414 246.662 137.523 246.662 136.408L246.654 136.26ZM248.053 136.26V136.408C248.053 137.205 248.212 137.828 248.529 138.276C248.852 138.723 249.337 138.947 249.982 138.947C250.764 138.947 251.342 138.591 251.717 137.877V134.33C251.331 133.643 250.758 133.299 249.998 133.299C249.347 133.299 248.86 133.565 248.537 134.096C248.214 134.622 248.053 135.343 248.053 136.26ZM259.834 135.182C259.834 134.609 259.686 134.148 259.389 133.799C259.092 133.445 258.665 133.268 258.107 133.268C257.649 133.268 257.253 133.46 256.92 133.846C256.592 134.231 256.389 134.723 256.311 135.322L256.326 135.361H259.834V135.182ZM258.318 140.072C257.261 140.072 256.417 139.723 255.787 139.026C255.162 138.328 254.85 137.408 254.85 136.268V135.955C254.85 134.887 255.167 133.992 255.803 133.268C256.443 132.539 257.212 132.174 258.107 132.174C259.118 132.174 259.889 132.479 260.42 133.088C260.956 133.692 261.225 134.523 261.225 135.58V136.447H256.287L256.264 136.479C256.279 137.229 256.467 137.835 256.826 138.299C257.191 138.757 257.688 138.986 258.318 138.986C259.204 138.986 259.923 138.736 260.475 138.236L261.021 139.135H261.014C260.378 139.76 259.48 140.072 258.318 140.072ZM264.287 128.94V139.908H262.904V128.94H264.287ZM267.912 132.299V139.908H266.529V132.299H267.912ZM267.912 128.94V130.354H266.529V128.94H267.912ZM270.779 132.299L272.584 137.666L272.701 138.197H272.74L272.873 137.666L274.631 132.299H276.037L273.24 139.908H272.193L269.357 132.299H270.779ZM281.959 135.182C281.959 134.609 281.811 134.148 281.514 133.799C281.217 133.445 280.79 133.268 280.232 133.268C279.774 133.268 279.378 133.46 279.045 133.846C278.717 134.231 278.514 134.723 278.436 135.322L278.451 135.361H281.959V135.182ZM280.443 140.072C279.386 140.072 278.542 139.723 277.912 139.026C277.287 138.328 276.975 137.408 276.975 136.268V135.955C276.975 134.887 277.292 133.992 277.928 133.268C278.568 132.539 279.337 132.174 280.232 132.174C281.243 132.174 282.014 132.479 282.545 133.088C283.081 133.692 283.35 134.523 283.35 135.58V136.447H278.412L278.389 136.479C278.404 137.229 278.592 137.835 278.951 138.299C279.316 138.757 279.813 138.986 280.443 138.986C281.329 138.986 282.048 138.736 282.6 138.236L283.146 139.135H283.139C282.503 139.76 281.605 140.072 280.443 140.072ZM286.303 139.916H284.92V132.307H286.154L286.287 133.416C286.751 132.578 287.381 132.158 288.178 132.158C288.365 132.158 288.542 132.184 288.709 132.236L288.521 133.533L287.811 133.486C287.097 133.486 286.594 133.817 286.303 134.479V139.916ZM294.521 135.182C294.521 134.609 294.373 134.148 294.076 133.799C293.779 133.445 293.352 133.268 292.795 133.268C292.337 133.268 291.941 133.46 291.607 133.846C291.279 134.231 291.076 134.723 290.998 135.322L291.014 135.361H294.521V135.182ZM293.006 140.072C291.949 140.072 291.105 139.723 290.475 139.026C289.85 138.328 289.537 137.408 289.537 136.268V135.955C289.537 134.887 289.855 133.992 290.49 133.268C291.131 132.539 291.899 132.174 292.795 132.174C293.805 132.174 294.576 132.479 295.107 133.088C295.644 133.692 295.912 134.523 295.912 135.58V136.447H290.975L290.951 136.479C290.967 137.229 291.154 137.835 291.514 138.299C291.878 138.757 292.376 138.986 293.006 138.986C293.891 138.986 294.61 138.736 295.162 138.236L295.709 139.135H295.701C295.066 139.76 294.167 140.072 293.006 140.072ZM297.154 136.26C297.154 135.015 297.417 134.023 297.943 133.283C298.469 132.544 299.188 132.174 300.1 132.174C301.011 132.174 301.712 132.497 302.201 133.143V128.955H303.592V139.924H302.459L302.295 138.986C301.79 139.71 301.071 140.072 300.139 140.072C299.206 140.072 298.477 139.742 297.951 139.08C297.425 138.414 297.162 137.523 297.162 136.408L297.154 136.26ZM298.553 136.26V136.408C298.553 137.205 298.712 137.828 299.029 138.276C299.352 138.723 299.837 138.947 300.482 138.947C301.264 138.947 301.842 138.591 302.217 137.877V134.33C301.831 133.643 301.258 133.299 300.498 133.299C299.847 133.299 299.36 133.565 299.037 134.096C298.714 134.622 298.553 135.343 298.553 136.26ZM311.225 132.299V139.908H309.842V132.299H311.225ZM311.225 128.94V130.354H309.842V128.94H311.225ZM313.357 132.299H314.592L314.693 133.432C315.219 132.583 315.972 132.158 316.951 132.158C317.785 132.158 318.423 132.403 318.865 132.893C319.308 133.377 319.529 134.114 319.529 135.104V139.908H318.146V135.135C318.146 134.473 318.016 133.999 317.756 133.713C317.495 133.427 317.089 133.283 316.537 133.283C316.141 133.283 315.79 133.377 315.482 133.565C315.175 133.752 314.928 134.018 314.74 134.361V139.908H313.357V132.299ZM326.045 130.479H327.443V132.315H328.881V133.346H327.443V137.963C327.443 138.609 327.712 138.932 328.248 138.932C328.415 138.932 328.587 138.901 328.764 138.838L328.943 139.783C328.693 139.976 328.342 140.072 327.889 140.072C327.305 140.072 326.852 139.898 326.529 139.549C326.206 139.2 326.045 138.671 326.045 137.963V133.346H324.842V132.315H326.045V130.479ZM332.084 132.299V139.908H330.701V132.299H332.084ZM332.084 128.94V130.354H330.701V128.94H332.084ZM335.6 139.908H334.225V132.299H335.459L335.561 133.299C336.081 132.539 336.852 132.158 337.873 132.158C338.899 132.158 339.594 132.627 339.959 133.565C340.485 132.627 341.261 132.158 342.287 132.158C343.084 132.158 343.701 132.429 344.139 132.971C344.576 133.507 344.795 134.304 344.795 135.361V139.908H343.412V135.346C343.412 134.611 343.287 134.085 343.037 133.768C342.787 133.445 342.412 133.283 341.912 133.283C341.417 133.283 341.021 133.445 340.725 133.768C340.433 134.085 340.261 134.502 340.209 135.018V139.908H338.811V135.346C338.811 134.637 338.68 134.117 338.42 133.783C338.165 133.45 337.782 133.283 337.271 133.283C336.469 133.283 335.912 133.614 335.6 134.276V139.908ZM351.475 135.182C351.475 134.609 351.326 134.148 351.029 133.799C350.732 133.445 350.305 133.268 349.748 133.268C349.29 133.268 348.894 133.46 348.561 133.846C348.232 134.231 348.029 134.723 347.951 135.322L347.967 135.361H351.475V135.182ZM349.959 140.072C348.902 140.072 348.058 139.723 347.428 139.026C346.803 138.328 346.49 137.408 346.49 136.268V135.955C346.49 134.887 346.808 133.992 347.443 133.268C348.084 132.539 348.852 132.174 349.748 132.174C350.758 132.174 351.529 132.479 352.061 133.088C352.597 133.692 352.865 134.523 352.865 135.58V136.447H347.928L347.904 136.479C347.92 137.229 348.107 137.835 348.467 138.299C348.831 138.757 349.329 138.986 349.959 138.986C350.844 138.986 351.563 138.736 352.115 138.236L352.662 139.135H352.654C352.019 139.76 351.12 140.072 349.959 140.072ZM130.365 158.908H128.975V152.33H127.779V151.299H128.975V150.338C128.975 149.526 129.183 148.898 129.6 148.455C130.021 148.012 130.615 147.791 131.381 147.791C131.646 147.791 131.99 147.841 132.412 147.94L132.24 148.994C132.042 148.947 131.816 148.924 131.561 148.924C130.764 148.924 130.365 149.395 130.365 150.338V151.299H131.943V152.33H130.365V158.908ZM134.436 155.049V155.205C134.436 156.049 134.607 156.723 134.951 157.229C135.3 157.734 135.8 157.986 136.451 157.986C137.102 157.986 137.602 157.734 137.951 157.229C138.3 156.718 138.475 156.044 138.475 155.205V155.049C138.475 154.221 138.298 153.552 137.943 153.041C137.594 152.526 137.094 152.268 136.443 152.268C135.798 152.268 135.3 152.526 134.951 153.041C134.607 153.552 134.436 154.221 134.436 155.049ZM133.045 155.205V155.049C133.045 153.903 133.352 152.971 133.967 152.252C134.581 151.533 135.41 151.174 136.451 151.174C137.493 151.174 138.321 151.533 138.936 152.252C139.55 152.966 139.857 153.898 139.857 155.049V155.205C139.857 156.361 139.55 157.296 138.936 158.01C138.326 158.718 137.498 159.072 136.451 159.072C135.41 159.072 134.581 158.716 133.967 158.002C133.352 157.289 133.045 156.356 133.045 155.205ZM142.943 158.916H141.561V151.307H142.795L142.928 152.416C143.391 151.578 144.021 151.158 144.818 151.158C145.006 151.158 145.183 151.184 145.35 151.236L145.162 152.533L144.451 152.486C143.738 152.486 143.235 152.817 142.943 153.479V158.916ZM151.107 162.322C150.91 162.322 150.636 162.286 150.287 162.213L150.428 161.119C150.771 161.145 150.977 161.158 151.045 161.158C151.316 161.158 151.542 161.044 151.725 160.815C151.912 160.585 152.081 160.278 152.232 159.893L152.561 159.096L149.732 151.643H151.279L152.896 156.432L153.139 157.385H153.186L155.053 151.643H156.592L153.396 160.416C152.912 161.687 152.149 162.322 151.107 162.322ZM158.873 155.049V155.205C158.873 156.049 159.045 156.723 159.389 157.229C159.738 157.734 160.238 157.986 160.889 157.986C161.54 157.986 162.04 157.734 162.389 157.229C162.738 156.718 162.912 156.044 162.912 155.205V155.049C162.912 154.221 162.735 153.552 162.381 153.041C162.032 152.526 161.532 152.268 160.881 152.268C160.235 152.268 159.738 152.526 159.389 153.041C159.045 153.552 158.873 154.221 158.873 155.049ZM157.482 155.205V155.049C157.482 153.903 157.79 152.971 158.404 152.252C159.019 151.533 159.847 151.174 160.889 151.174C161.93 151.174 162.758 151.533 163.373 152.252C163.988 152.966 164.295 153.898 164.295 155.049V155.205C164.295 156.361 163.988 157.296 163.373 158.01C162.764 158.718 161.936 159.072 160.889 159.072C159.847 159.072 159.019 158.716 158.404 158.002C157.79 157.289 157.482 156.356 157.482 155.205ZM168.607 159.072C167.753 159.072 167.1 158.804 166.646 158.268C166.193 157.726 165.967 156.903 165.967 155.799V151.315H167.35V155.815C167.35 156.611 167.464 157.166 167.693 157.479C167.928 157.791 168.305 157.947 168.826 157.947C169.779 157.947 170.43 157.565 170.779 156.799V151.315H172.162V158.924H170.92L170.826 157.799C170.326 158.648 169.587 159.072 168.607 159.072ZM175.568 158.916H174.186V151.307H175.42L175.553 152.416C176.016 151.578 176.646 151.158 177.443 151.158C177.631 151.158 177.808 151.184 177.975 151.236L177.787 152.533L177.076 152.486C176.363 152.486 175.86 152.817 175.568 153.479V158.916ZM189.67 155.572V155.721C189.67 156.83 189.404 157.718 188.873 158.385C188.347 159.046 187.623 159.377 186.701 159.377C185.779 159.377 185.068 159.065 184.568 158.44V162.158H183.186V151.627H184.248L184.467 152.611C184.972 151.861 185.701 151.486 186.654 151.486C187.613 151.486 188.355 151.856 188.881 152.596C189.407 153.33 189.67 154.322 189.67 155.572ZM188.279 155.721V155.572C188.279 154.677 188.105 153.96 187.756 153.424C187.412 152.882 186.917 152.611 186.271 152.611C185.506 152.611 184.938 152.947 184.568 153.619V157.299C184.933 157.966 185.506 158.299 186.287 158.299C186.928 158.299 187.42 158.065 187.764 157.596C188.107 157.127 188.279 156.502 188.279 155.721ZM193.537 159.072C192.745 159.072 192.141 158.872 191.725 158.471C191.308 158.07 191.1 157.507 191.1 156.783C191.1 156.059 191.391 155.492 191.975 155.08C192.558 154.669 193.36 154.463 194.381 154.463H195.881V153.713C195.881 153.265 195.743 152.914 195.467 152.658C195.196 152.398 194.826 152.268 194.357 152.268C193.894 152.268 193.521 152.38 193.24 152.604C192.959 152.822 192.818 153.096 192.818 153.424H191.498L191.482 153.385C191.456 152.812 191.722 152.302 192.279 151.854C192.842 151.401 193.555 151.174 194.42 151.174C195.29 151.174 195.982 151.398 196.498 151.846C197.014 152.289 197.271 152.916 197.271 153.729V157.393C197.271 157.981 197.337 158.492 197.467 158.924H196.037C195.938 158.44 195.886 158.059 195.881 157.783C195.61 158.169 195.266 158.481 194.85 158.721C194.438 158.955 194.001 159.072 193.537 159.072ZM192.498 156.815H192.49C192.49 157.158 192.597 157.427 192.811 157.619C193.024 157.812 193.355 157.908 193.803 157.908C194.251 157.908 194.678 157.783 195.084 157.533C195.495 157.278 195.764 156.981 195.889 156.643V155.401H194.342C193.79 155.401 193.344 155.539 193.006 155.815C192.667 156.085 192.498 156.419 192.498 156.815ZM199.732 149.479H201.131V151.315H202.568V152.346H201.131V156.963C201.131 157.609 201.399 157.932 201.936 157.932C202.102 157.932 202.274 157.901 202.451 157.838L202.631 158.783C202.381 158.976 202.029 159.072 201.576 159.072C200.993 159.072 200.54 158.898 200.217 158.549C199.894 158.2 199.732 157.671 199.732 156.963V152.346H198.529V151.315H199.732V149.479ZM205.771 151.299V158.908H204.389V151.299H205.771ZM205.771 147.94V149.354H204.389V147.94H205.771ZM212.568 154.182C212.568 153.609 212.42 153.148 212.123 152.799C211.826 152.445 211.399 152.268 210.842 152.268C210.383 152.268 209.988 152.46 209.654 152.846C209.326 153.231 209.123 153.723 209.045 154.322L209.061 154.361H212.568V154.182ZM211.053 159.072C209.995 159.072 209.152 158.723 208.521 158.026C207.896 157.328 207.584 156.408 207.584 155.268V154.955C207.584 153.887 207.902 152.992 208.537 152.268C209.178 151.539 209.946 151.174 210.842 151.174C211.852 151.174 212.623 151.479 213.154 152.088C213.691 152.692 213.959 153.523 213.959 154.58V155.447H209.021L208.998 155.479C209.014 156.229 209.201 156.835 209.561 157.299C209.925 157.757 210.423 157.986 211.053 157.986C211.938 157.986 212.657 157.736 213.209 157.236L213.756 158.135H213.748C213.113 158.76 212.214 159.072 211.053 159.072ZM215.529 151.299H216.764L216.865 152.432C217.391 151.583 218.144 151.158 219.123 151.158C219.956 151.158 220.594 151.403 221.037 151.893C221.48 152.377 221.701 153.114 221.701 154.104V158.908H220.318V154.135C220.318 153.473 220.188 152.999 219.928 152.713C219.667 152.427 219.261 152.283 218.709 152.283C218.313 152.283 217.962 152.377 217.654 152.565C217.347 152.752 217.1 153.018 216.912 153.361V158.908H215.529V151.299ZM224.154 149.479H225.553V151.315H226.99V152.346H225.553V156.963C225.553 157.609 225.821 157.932 226.357 157.932C226.524 157.932 226.696 157.901 226.873 157.838L227.053 158.783C226.803 158.976 226.451 159.072 225.998 159.072C225.415 159.072 224.962 158.898 224.639 158.549C224.316 158.2 224.154 157.671 224.154 156.963V152.346H222.951V151.315H224.154V149.479ZM230.881 147.94V149.299L229.756 151.729H229.076L229.498 149.315V147.94H230.881ZM236.107 157.971C236.597 157.971 236.982 157.874 237.264 157.682C237.545 157.484 237.686 157.223 237.686 156.901C237.686 156.578 237.566 156.322 237.326 156.135C237.087 155.942 236.652 155.773 236.021 155.627C235.063 155.419 234.357 155.143 233.904 154.799C233.456 154.45 233.232 153.971 233.232 153.361C233.232 152.752 233.498 152.234 234.029 151.807C234.561 151.374 235.253 151.158 236.107 151.158C236.962 151.158 237.652 151.385 238.178 151.838C238.709 152.286 238.962 152.843 238.936 153.51L238.92 153.549H237.6C237.6 153.2 237.456 152.898 237.17 152.643C236.889 152.387 236.516 152.26 236.053 152.26C235.594 152.26 235.24 152.364 234.99 152.572C234.74 152.776 234.615 153.036 234.615 153.354C234.615 153.671 234.725 153.914 234.943 154.08C235.162 154.247 235.592 154.398 236.232 154.533C237.212 154.747 237.93 155.033 238.389 155.393C238.847 155.747 239.076 156.218 239.076 156.807C239.076 157.484 238.803 158.031 238.256 158.447C237.714 158.864 236.985 159.072 236.068 159.072C235.152 159.072 234.41 158.833 233.842 158.354C233.279 157.874 233.011 157.294 233.037 156.611L233.053 156.572H234.373C234.399 157.041 234.574 157.395 234.896 157.635C235.225 157.869 235.633 157.986 236.123 157.986L236.107 157.971ZM244.873 151.299H246.107L246.209 152.432C246.735 151.583 247.488 151.158 248.467 151.158C249.3 151.158 249.938 151.403 250.381 151.893C250.824 152.377 251.045 153.114 251.045 154.104V158.908H249.662V154.135C249.662 153.473 249.532 152.999 249.271 152.713C249.011 152.427 248.605 152.283 248.053 152.283C247.657 152.283 247.305 152.377 246.998 152.565C246.691 152.752 246.443 153.018 246.256 153.361V158.908H244.873V151.299ZM257.725 154.182C257.725 153.609 257.576 153.148 257.279 152.799C256.982 152.445 256.555 152.268 255.998 152.268C255.54 152.268 255.144 152.46 254.811 152.846C254.482 153.231 254.279 153.723 254.201 154.322L254.217 154.361H257.725V154.182ZM256.209 159.072C255.152 159.072 254.308 158.723 253.678 158.026C253.053 157.328 252.74 156.408 252.74 155.268V154.955C252.74 153.887 253.058 152.992 253.693 152.268C254.334 151.539 255.102 151.174 255.998 151.174C257.008 151.174 257.779 151.479 258.311 152.088C258.847 152.692 259.115 153.523 259.115 154.58V155.447H254.178L254.154 155.479C254.17 156.229 254.357 156.835 254.717 157.299C255.081 157.757 255.579 157.986 256.209 157.986C257.094 157.986 257.813 157.736 258.365 157.236L258.912 158.135H258.904C258.269 158.76 257.37 159.072 256.209 159.072ZM261.67 151.299L263.264 154.104L264.881 151.299H266.498L264.029 155.065L266.568 158.908H264.982L263.295 156.033L261.607 158.908H259.998L262.537 155.065L260.068 151.299H261.67ZM268.373 149.479H269.771V151.315H271.209V152.346H269.771V156.963C269.771 157.609 270.04 157.932 270.576 157.932C270.743 157.932 270.915 157.901 271.092 157.838L271.271 158.783C271.021 158.976 270.67 159.072 270.217 159.072C269.633 159.072 269.18 158.898 268.857 158.549C268.535 158.2 268.373 157.671 268.373 156.963V152.346H267.17V151.315H268.373V149.479ZM279.146 159.072C278.355 159.072 277.751 158.872 277.334 158.471C276.917 158.07 276.709 157.507 276.709 156.783C276.709 156.059 277.001 155.492 277.584 155.08C278.167 154.669 278.969 154.463 279.99 154.463H281.49V153.713C281.49 153.265 281.352 152.914 281.076 152.658C280.805 152.398 280.436 152.268 279.967 152.268C279.503 152.268 279.131 152.38 278.85 152.604C278.568 152.822 278.428 153.096 278.428 153.424H277.107L277.092 153.385C277.066 152.812 277.331 152.302 277.889 151.854C278.451 151.401 279.165 151.174 280.029 151.174C280.899 151.174 281.592 151.398 282.107 151.846C282.623 152.289 282.881 152.916 282.881 153.729V157.393C282.881 157.981 282.946 158.492 283.076 158.924H281.646C281.548 158.44 281.495 158.059 281.49 157.783C281.219 158.169 280.876 158.481 280.459 158.721C280.048 158.955 279.61 159.072 279.146 159.072ZM278.107 156.815H278.1C278.1 157.158 278.206 157.427 278.42 157.619C278.633 157.812 278.964 157.908 279.412 157.908C279.86 157.908 280.287 157.783 280.693 157.533C281.105 157.278 281.373 156.981 281.498 156.643V155.401H279.951C279.399 155.401 278.954 155.539 278.615 155.815C278.277 156.085 278.107 156.419 278.107 156.815ZM291.389 155.572V155.721C291.389 156.83 291.123 157.718 290.592 158.385C290.066 159.046 289.342 159.377 288.42 159.377C287.498 159.377 286.787 159.065 286.287 158.44V162.158H284.904V151.627H285.967L286.186 152.611C286.691 151.861 287.42 151.486 288.373 151.486C289.331 151.486 290.074 151.856 290.6 152.596C291.126 153.33 291.389 154.322 291.389 155.572ZM289.998 155.721V155.572C289.998 154.677 289.824 153.96 289.475 153.424C289.131 152.882 288.636 152.611 287.99 152.611C287.225 152.611 286.657 152.947 286.287 153.619V157.299C286.652 157.966 287.225 158.299 288.006 158.299C288.646 158.299 289.139 158.065 289.482 157.596C289.826 157.127 289.998 156.502 289.998 155.721ZM299.576 155.572V155.721C299.576 156.83 299.311 157.718 298.779 158.385C298.253 159.046 297.529 159.377 296.607 159.377C295.686 159.377 294.975 159.065 294.475 158.44V162.158H293.092V151.627H294.154L294.373 152.611C294.878 151.861 295.607 151.486 296.561 151.486C297.519 151.486 298.261 151.856 298.787 152.596C299.313 153.33 299.576 154.322 299.576 155.572ZM298.186 155.721V155.572C298.186 154.677 298.011 153.96 297.662 153.424C297.318 152.882 296.824 152.611 296.178 152.611C295.412 152.611 294.844 152.947 294.475 153.619V157.299C294.839 157.966 295.412 158.299 296.193 158.299C296.834 158.299 297.326 158.065 297.67 157.596C298.014 157.127 298.186 156.502 298.186 155.721ZM302.342 155.049V155.205C302.342 156.049 302.514 156.723 302.857 157.229C303.206 157.734 303.706 157.986 304.357 157.986C305.008 157.986 305.508 157.734 305.857 157.229C306.206 156.718 306.381 156.044 306.381 155.205V155.049C306.381 154.221 306.204 153.552 305.85 153.041C305.501 152.526 305.001 152.268 304.35 152.268C303.704 152.268 303.206 152.526 302.857 153.041C302.514 153.552 302.342 154.221 302.342 155.049ZM300.951 155.205V155.049C300.951 153.903 301.258 152.971 301.873 152.252C302.488 151.533 303.316 151.174 304.357 151.174C305.399 151.174 306.227 151.533 306.842 152.252C307.456 152.966 307.764 153.898 307.764 155.049V155.205C307.764 156.361 307.456 157.296 306.842 158.01C306.232 158.718 305.404 159.072 304.357 159.072C303.316 159.072 302.488 158.716 301.873 158.002C301.258 157.289 300.951 156.356 300.951 155.205ZM310.959 151.299V158.908H309.576V151.299H310.959ZM310.959 147.94V149.354H309.576V147.94H310.959ZM313.092 151.299H314.326L314.428 152.432C314.954 151.583 315.706 151.158 316.686 151.158C317.519 151.158 318.157 151.403 318.6 151.893C319.042 152.377 319.264 153.114 319.264 154.104V158.908H317.881V154.135C317.881 153.473 317.751 152.999 317.49 152.713C317.23 152.427 316.824 152.283 316.271 152.283C315.876 152.283 315.524 152.377 315.217 152.565C314.91 152.752 314.662 153.018 314.475 153.361V158.908H313.092V151.299ZM321.717 149.479H323.115V151.315H324.553V152.346H323.115V156.963C323.115 157.609 323.383 157.932 323.92 157.932C324.087 157.932 324.258 157.901 324.436 157.838L324.615 158.783C324.365 158.976 324.014 159.072 323.561 159.072C322.977 159.072 322.524 158.898 322.201 158.549C321.878 158.2 321.717 157.671 321.717 156.963V152.346H320.514V151.315H321.717V149.479ZM327.646 158.908H326.271V151.299H327.506L327.607 152.299C328.128 151.539 328.899 151.158 329.92 151.158C330.946 151.158 331.641 151.627 332.006 152.565C332.532 151.627 333.308 151.158 334.334 151.158C335.131 151.158 335.748 151.429 336.186 151.971C336.623 152.507 336.842 153.304 336.842 154.361V158.908H335.459V154.346C335.459 153.611 335.334 153.085 335.084 152.768C334.834 152.445 334.459 152.283 333.959 152.283C333.464 152.283 333.068 152.445 332.771 152.768C332.48 153.085 332.308 153.502 332.256 154.018V158.908H330.857V154.346C330.857 153.637 330.727 153.117 330.467 152.783C330.212 152.45 329.829 152.283 329.318 152.283C328.516 152.283 327.959 152.614 327.646 153.276V158.908ZM343.521 154.182C343.521 153.609 343.373 153.148 343.076 152.799C342.779 152.445 342.352 152.268 341.795 152.268C341.337 152.268 340.941 152.46 340.607 152.846C340.279 153.231 340.076 153.723 339.998 154.322L340.014 154.361H343.521V154.182ZM342.006 159.072C340.949 159.072 340.105 158.723 339.475 158.026C338.85 157.328 338.537 156.408 338.537 155.268V154.955C338.537 153.887 338.855 152.992 339.49 152.268C340.131 151.539 340.899 151.174 341.795 151.174C342.805 151.174 343.576 151.479 344.107 152.088C344.644 152.692 344.912 153.523 344.912 154.58V155.447H339.975L339.951 155.479C339.967 156.229 340.154 156.835 340.514 157.299C340.878 157.757 341.376 157.986 342.006 157.986C342.891 157.986 343.61 157.736 344.162 157.236L344.709 158.135H344.701C344.066 158.76 343.167 159.072 342.006 159.072ZM346.482 151.299H347.717L347.818 152.432C348.344 151.583 349.097 151.158 350.076 151.158C350.91 151.158 351.548 151.403 351.99 151.893C352.433 152.377 352.654 153.114 352.654 154.104V158.908H351.271V154.135C351.271 153.473 351.141 152.999 350.881 152.713C350.62 152.427 350.214 152.283 349.662 152.283C349.266 152.283 348.915 152.377 348.607 152.565C348.3 152.752 348.053 153.018 347.865 153.361V158.908H346.482V151.299ZM355.107 149.479H356.506V151.315H357.943V152.346H356.506V156.963C356.506 157.609 356.774 157.932 357.311 157.932C357.477 157.932 357.649 157.901 357.826 157.838L358.006 158.783C357.756 158.976 357.404 159.072 356.951 159.072C356.368 159.072 355.915 158.898 355.592 158.549C355.269 158.2 355.107 157.671 355.107 156.963V152.346H353.904V151.315H355.107V149.479ZM361.162 157.486V158.908H359.779V157.486H361.162Z" fill="#333333"/>
<defs>
<filter id="filter0_d" x="0" y="0.701172" width="494" height="326.762" filterUnits="userSpaceOnUse" color-interpolation-filters="sRGB">
<feFlood flood-opacity="0" result="BackgroundImageFix"/>
<feColorMatrix in="SourceAlpha" type="matrix" values="0 0 0 0 0 0 0 0 0 0 0 0 0 0 0 0 0 0 127 0"/>
<feOffset dx="1" dy="1"/>
<feGaussianBlur stdDeviation="3.5"/>
<feColorMatrix type="matrix" values="0 0 0 0 0.509804 0 0 0 0 0.509804 0 0 0 0 0.509804 0 0 0 0.15 0"/>
<feBlend mode="normal" in2="BackgroundImageFix" result="effect1_dropShadow"/>
<feBlend mode="normal" in="SourceGraphic" in2="effect1_dropShadow" result="shape"/>
</filter>
</defs>
</svg>
