<svg width="495" height="409" viewBox="0 0 495 409" fill="none" xmlns="http://www.w3.org/2000/svg">
<g filter="url(#filter0_d)">
<rect x="6.37158" y="53.7751" width="480" height="312.762" rx="8" fill="#FEFEFE"/>
</g>
<mask id="mask0" mask-type="alpha" maskUnits="userSpaceOnUse" x="6" y="53" width="481" height="314">
<rect x="6.37158" y="53.775" width="480" height="312.762" rx="8" fill="#FEFEFE"/>
</mask>
<g mask="url(#mask0)">
<path d="M106.592 84.0768H105.389V80.8434L102.293 75.1218H103.68L106.018 79.6745L108.356 75.1218H109.737L106.592 80.9255V84.0768ZM111.268 80.6999V80.8366C111.268 81.5749 111.419 82.1651 111.719 82.6071C112.025 83.0492 112.462 83.2702 113.032 83.2702C113.602 83.2702 114.039 83.0492 114.344 82.6071C114.65 82.1605 114.802 81.5703 114.802 80.8366V80.6999C114.802 79.9753 114.647 79.3897 114.338 78.9431C114.032 78.4919 113.595 78.2663 113.025 78.2663C112.46 78.2663 112.025 78.4919 111.719 78.9431C111.419 79.3897 111.268 79.9753 111.268 80.6999ZM110.051 80.8366V80.6999C110.051 79.6973 110.32 78.8815 110.858 78.2526C111.396 77.6237 112.12 77.3093 113.032 77.3093C113.943 77.3093 114.668 77.6237 115.206 78.2526C115.744 78.877 116.012 79.6927 116.012 80.6999V80.8366C116.012 81.8483 115.744 82.6664 115.206 83.2907C114.673 83.9105 113.948 84.2204 113.032 84.2204C112.12 84.2204 111.396 83.9082 110.858 83.2839C110.32 82.6595 110.051 81.8438 110.051 80.8366ZM119.786 84.2204C119.038 84.2204 118.467 83.9857 118.07 83.5163C117.674 83.0423 117.475 82.3223 117.475 81.3561V77.4323H118.685V81.3698C118.685 82.0671 118.786 82.5524 118.986 82.8259C119.191 83.0993 119.522 83.236 119.977 83.236C120.811 83.236 121.381 82.9011 121.686 82.2311V77.4323H122.896V84.0905H121.809L121.727 83.1061C121.29 83.849 120.643 84.2204 119.786 84.2204ZM125.877 84.0837H124.667V77.4255H125.747L125.863 78.3962C126.269 77.6625 126.82 77.2956 127.517 77.2956C127.681 77.2956 127.836 77.3184 127.982 77.364L127.818 78.4987L127.196 78.4577C126.572 78.4577 126.132 78.7471 125.877 79.3259V84.0837ZM138.462 84.0768L137.621 81.7663H133.868L133.02 84.0768H131.783L135.249 75.1218H136.288L139.692 84.0768H138.462ZM135.748 76.6735L134.244 80.7546H137.258L135.782 76.6735H135.748ZM142.987 84.2204C142.24 84.2204 141.668 83.9857 141.271 83.5163C140.875 83.0423 140.676 82.3223 140.676 81.3561V77.4323H141.886V81.3698C141.886 82.0671 141.987 82.5524 142.187 82.8259C142.392 83.0993 142.723 83.236 143.178 83.236C144.012 83.236 144.582 82.9011 144.887 82.2311V77.4323H146.097V84.0905H145.01L144.928 83.1061C144.491 83.849 143.844 84.2204 142.987 84.2204ZM149.078 84.0837H147.868V77.4255H148.948L149.064 78.3962C149.47 77.6625 150.021 77.2956 150.718 77.2956C150.883 77.2956 151.037 77.3184 151.183 77.364L151.019 78.4987L150.397 78.4577C149.773 78.4577 149.333 78.7471 149.078 79.3259V84.0837ZM154.082 84.2204C153.389 84.2204 152.86 84.0449 152.496 83.694C152.131 83.3431 151.949 82.8509 151.949 82.2175C151.949 81.584 152.204 81.0873 152.715 80.7272C153.225 80.3672 153.927 80.1872 154.82 80.1872H156.133V79.5309C156.133 79.139 156.012 78.8314 155.77 78.6081C155.533 78.3802 155.21 78.2663 154.8 78.2663C154.394 78.2663 154.068 78.3643 153.822 78.5602C153.576 78.7516 153.453 78.9909 153.453 79.278H152.298L152.284 79.2438C152.261 78.7425 152.494 78.2959 152.981 77.904C153.473 77.5075 154.098 77.3093 154.854 77.3093C155.615 77.3093 156.221 77.5052 156.673 77.8972C157.124 78.2845 157.349 78.8337 157.349 79.5446V82.7507C157.349 83.2656 157.406 83.7123 157.52 84.0905H156.269C156.183 83.6667 156.137 83.334 156.133 83.0925C155.896 83.4297 155.595 83.7031 155.23 83.9128C154.87 84.1179 154.487 84.2204 154.082 84.2204ZM153.173 82.2448H153.166C153.166 82.5456 153.259 82.7803 153.446 82.9489C153.633 83.1175 153.922 83.2018 154.314 83.2018C154.706 83.2018 155.08 83.0925 155.435 82.8737C155.795 82.6504 156.03 82.3906 156.139 82.0944V81.0075H154.786C154.303 81.0075 153.913 81.1283 153.617 81.3698C153.321 81.6068 153.173 81.8985 153.173 82.2448Z" fill="#828282"/>
<path d="M29.3716 103.115C29.3716 98.7333 32.9237 95.1812 37.3055 95.1812H222.454C226.836 95.1812 230.388 98.7333 230.388 103.115V122.231H29.3716V103.115Z" fill="#FAFAFA"/>
<rect x="29.8716" y="95.5768" width="200.017" height="284.079" rx="7.5" stroke="#E0E0E0"/>
<path d="M119.987 111.379V105.83H121.03V111.379C121.03 112.062 120.815 112.607 120.385 113.014C119.956 113.416 119.375 113.617 118.645 113.617C117.918 113.617 117.34 113.428 116.911 113.049C116.485 112.67 116.28 112.129 116.295 111.426L116.307 111.391H117.303C117.303 111.859 117.422 112.213 117.661 112.451C117.899 112.685 118.225 112.803 118.639 112.803C119.057 112.803 119.385 112.674 119.624 112.416C119.866 112.158 119.987 111.812 119.987 111.379ZM123.467 110.599V110.717C123.467 111.349 123.596 111.855 123.854 112.234C124.116 112.613 124.491 112.803 124.979 112.803C125.467 112.803 125.842 112.613 126.104 112.234C126.366 111.851 126.497 111.346 126.497 110.717V110.599C126.497 109.978 126.364 109.476 126.098 109.094C125.836 108.707 125.461 108.514 124.973 108.514C124.489 108.514 124.116 108.707 123.854 109.094C123.596 109.476 123.467 109.978 123.467 110.599ZM122.424 110.717V110.599C122.424 109.74 122.655 109.041 123.116 108.502C123.577 107.963 124.198 107.693 124.979 107.693C125.76 107.693 126.381 107.963 126.842 108.502C127.303 109.037 127.534 109.736 127.534 110.599V110.717C127.534 111.584 127.303 112.285 126.842 112.82C126.385 113.351 125.764 113.617 124.979 113.617C124.198 113.617 123.577 113.349 123.116 112.814C122.655 112.279 122.424 111.58 122.424 110.717ZM129.848 105.267V108.555C130.258 107.973 130.817 107.682 131.524 107.682C132.149 107.682 132.627 107.867 132.959 108.238C133.292 108.609 133.458 109.17 133.458 109.92V113.494H132.415V109.908C132.415 109.435 132.315 109.088 132.116 108.865C131.917 108.639 131.614 108.525 131.208 108.525C130.629 108.525 130.176 108.777 129.848 109.281V113.494H128.811V105.267H129.848ZM134.952 107.787H135.877L135.954 108.637C136.348 108 136.913 107.682 137.647 107.682C138.272 107.682 138.75 107.865 139.083 108.232C139.415 108.596 139.581 109.148 139.581 109.891V113.494H138.543V109.914C138.543 109.418 138.446 109.062 138.25 108.848C138.055 108.633 137.75 108.525 137.336 108.525C137.04 108.525 136.776 108.596 136.545 108.736C136.315 108.877 136.129 109.076 135.989 109.334V113.494H134.952V107.787ZM144.924 111.297C144.924 111.777 145.098 112.148 145.446 112.41C145.797 112.672 146.245 112.803 146.788 112.803C147.331 112.803 147.754 112.693 148.059 112.474C148.364 112.252 148.516 111.955 148.516 111.584C148.516 111.213 148.379 110.91 148.106 110.676C147.836 110.441 147.374 110.246 146.717 110.09C144.995 109.676 144.133 108.918 144.133 107.816C144.133 107.211 144.379 106.711 144.872 106.316C145.364 105.918 146.008 105.719 146.805 105.719C147.606 105.719 148.26 105.943 148.768 106.392C149.276 106.842 149.52 107.381 149.5 108.01L149.489 108.045H148.499C148.499 107.584 148.348 107.217 148.047 106.943C147.747 106.67 147.331 106.533 146.799 106.533C146.272 106.533 145.868 106.648 145.586 106.879C145.309 107.105 145.17 107.4 145.17 107.764C145.17 108.123 145.319 108.414 145.616 108.637C145.913 108.855 146.399 109.051 147.075 109.223C148.727 109.641 149.553 110.42 149.553 111.56C149.553 112.182 149.301 112.68 148.797 113.055C148.293 113.43 147.631 113.617 146.811 113.617C146.292 113.617 145.811 113.527 145.37 113.348C144.932 113.164 144.579 112.894 144.309 112.539C144.04 112.183 143.911 111.779 143.922 111.326L143.934 111.297H144.924ZM151.915 113.494H150.883V107.787H151.809L151.885 108.537C152.276 107.967 152.854 107.682 153.62 107.682C154.389 107.682 154.911 108.033 155.184 108.736C155.579 108.033 156.161 107.682 156.93 107.682C157.528 107.682 157.991 107.885 158.319 108.291C158.647 108.693 158.811 109.291 158.811 110.084V113.494H157.774V110.072C157.774 109.521 157.68 109.127 157.493 108.889C157.305 108.646 157.024 108.525 156.649 108.525C156.278 108.525 155.981 108.646 155.758 108.889C155.54 109.127 155.411 109.439 155.372 109.826V113.494H154.323V110.072C154.323 109.541 154.225 109.15 154.03 108.9C153.838 108.65 153.551 108.525 153.168 108.525C152.567 108.525 152.149 108.773 151.915 109.269V113.494ZM161.442 107.787V113.494H160.405V107.787H161.442ZM161.442 105.267V106.328H160.405V105.267H161.442ZM163.37 106.422H164.418V107.799H165.497V108.572H164.418V112.035C164.418 112.519 164.62 112.762 165.022 112.762C165.147 112.762 165.276 112.738 165.409 112.691L165.543 113.4C165.356 113.545 165.092 113.617 164.752 113.617C164.315 113.617 163.975 113.486 163.733 113.224C163.491 112.963 163.37 112.566 163.37 112.035V108.572H162.467V107.799H163.37V106.422ZM167.817 105.267V108.555C168.227 107.973 168.786 107.682 169.493 107.682C170.118 107.682 170.596 107.867 170.928 108.238C171.26 108.609 171.426 109.17 171.426 109.92V113.494H170.383V109.908C170.383 109.435 170.284 109.088 170.084 108.865C169.885 108.639 169.583 108.525 169.176 108.525C168.598 108.525 168.145 108.777 167.817 109.281V113.494H166.78V105.267H167.817Z" fill="#717171"/>
<path d="M102.597 102.191C103.461 102.191 104.29 102.534 104.901 103.145C105.512 103.756 105.855 104.585 105.855 105.449C105.855 106.313 105.512 107.141 104.901 107.752C104.29 108.363 103.461 108.706 102.597 108.706C101.734 108.706 100.905 108.363 100.294 107.752C99.6832 107.141 99.34 106.313 99.34 105.449C99.34 104.585 99.6832 103.756 100.294 103.145C100.905 102.534 101.734 102.191 102.597 102.191V102.191ZM102.597 110.335C106.197 110.335 109.112 111.793 109.112 113.592V115.221H96.0825V113.592C96.0825 111.793 98.998 110.335 102.597 110.335Z" fill="#717171"/>
<rect x="134.54" y="151.408" width="40.3738" height="14.1449" rx="7.07247" fill="#4482F0"/>
<rect x="134.54" y="170.948" width="40.3738" height="14.1449" rx="7.07247" fill="#4482F0"/>
<rect x="178.698" y="170.948" width="40.3738" height="14.1449" rx="7.07247" fill="#4482F0"/>
<rect x="134.54" y="190.488" width="40.3738" height="14.1449" rx="7.07247" fill="#E0E0E0"/>
<rect x="134.54" y="210.028" width="40.3738" height="14.1449" rx="7.07247" fill="#E0E0E0"/>
<rect x="40.6885" y="143.809" width="78.6629" height="85.6492" rx="3.79665" fill="#4482F0"/>
<path d="M87.1842 188.815C87.0179 188.815 86.8503 188.794 86.6839 188.753C85.9606 188.572 85.3859 188.018 85.1832 187.304C83.7468 182.229 81.4791 178.253 80.019 178.253C78.5593 178.253 76.2916 182.229 74.8549 187.304C74.6522 188.018 74.0775 188.572 73.3542 188.753C72.6309 188.928 71.8667 188.71 71.3562 188.176C68.7515 185.451 68.8988 180.324 68.9253 179.749C68.9237 178.345 69.23 176.529 69.8368 174.422C70.0643 173.629 69.9127 172.776 69.4182 172.081C69.3103 171.93 69.2067 171.778 69.1076 171.626C67.6595 169.416 66.8938 166.776 66.8938 163.992V162.714C66.8938 157.98 71.8289 156.731 74.4394 156.731C77.0004 156.731 78.8932 157.957 80.019 158.968C81.1449 157.957 83.038 156.731 85.5987 156.731C88.2092 156.731 93.1443 157.98 93.1443 162.716V163.993C93.1443 166.777 92.3786 169.417 90.9305 171.628C90.8327 171.778 90.7293 171.93 90.6214 172.081C90.1269 172.777 89.9753 173.63 90.2029 174.422C90.8081 176.529 91.1144 178.343 91.1144 179.813C91.1377 180.325 91.2866 185.451 88.6819 188.175C88.2882 188.588 87.743 188.815 87.1842 188.815V188.815ZM74.4397 159.648C74.2546 159.649 69.8109 159.709 69.8109 162.716V163.993C69.8109 166.209 70.4118 168.296 71.5478 170.029C71.6281 170.152 71.7096 170.273 71.7957 170.394C72.8049 171.815 73.1125 173.578 72.6386 175.227C72.1164 177.049 71.8393 178.634 71.8393 179.814C71.8 180.785 71.9005 183.028 72.5934 184.736C73.8416 180.979 76.3297 175.338 80.0194 175.338C83.7062 175.338 86.194 180.975 87.4423 184.73C88.1379 183.005 88.2372 180.737 88.1991 179.876C88.1975 178.633 87.922 177.047 87.3983 175.226C86.9244 173.575 87.2319 171.813 88.2427 170.391C88.3273 170.272 88.4091 170.152 88.4878 170.031C89.6269 168.294 90.2278 166.208 90.2278 163.992V162.715C90.2278 159.721 85.8192 159.648 85.5975 159.646C82.8864 159.648 81.2325 161.914 81.2165 161.937C80.671 162.721 79.3674 162.721 78.8219 161.937C78.761 161.852 77.1539 159.648 74.4397 159.648V159.648Z" fill="#FEFEFE"/>
<path d="M49.3945 162.564C48.5895 162.564 47.9363 161.911 47.9363 161.106V155.272C47.9363 154.467 48.5898 153.814 49.3945 153.814H55.2279C56.033 153.814 56.6861 154.468 56.6861 155.272C56.6861 156.077 56.0327 156.731 55.2279 156.731H50.8528V161.106C50.8528 161.911 50.1996 162.564 49.3945 162.564V162.564Z" fill="#FEFEFE"/>
<path d="M110.645 191.731H104.812C104.006 191.731 103.353 191.078 103.353 190.273C103.353 189.468 104.007 188.815 104.812 188.815H109.187V184.44C109.187 183.635 109.84 182.981 110.645 182.981C111.45 182.981 112.103 183.635 112.103 184.44V190.273C112.103 191.078 111.45 191.731 110.645 191.731Z" fill="#FEFEFE"/>
<rect x="47.9363" y="212.844" width="18.9579" height="2.90925" rx="1.45462" fill="#FEFEFE"/>
<rect x="47.9363" y="219.751" width="18.9579" height="2.90925" rx="1.45462" fill="#FEFEFE"/>
<rect x="76.4019" y="212.715" width="35.7015" height="9.94592" fill="#FEFEFE"/>
<path d="M46.835 264.297V265.111H44.3682V271.972H43.3311V265.111H40.8701V264.297H46.835ZM48.9502 272.095C48.3564 272.095 47.9033 271.945 47.5908 271.644C47.2783 271.343 47.1221 270.922 47.1221 270.379C47.1221 269.836 47.3408 269.41 47.7783 269.101C48.2158 268.793 48.8174 268.638 49.583 268.638H50.708V268.076C50.708 267.74 50.6045 267.476 50.3975 267.285C50.1943 267.089 49.917 266.992 49.5654 266.992C49.2178 266.992 48.9385 267.076 48.7275 267.244C48.5166 267.408 48.4111 267.613 48.4111 267.859H47.4209L47.4092 267.83C47.3896 267.4 47.5889 267.017 48.0068 266.681C48.4287 266.341 48.9639 266.172 49.6123 266.172C50.2646 266.172 50.7842 266.339 51.1709 266.675C51.5576 267.007 51.751 267.478 51.751 268.088V270.836C51.751 271.277 51.7998 271.66 51.8975 271.984H50.8252C50.751 271.621 50.7119 271.336 50.708 271.129C50.5049 271.418 50.2471 271.652 49.9346 271.832C49.626 272.007 49.2979 272.095 48.9502 272.095ZM48.1709 270.402H48.165C48.165 270.66 48.2451 270.861 48.4053 271.005C48.5654 271.15 48.8135 271.222 49.1494 271.222C49.4854 271.222 49.8057 271.129 50.1104 270.941C50.4189 270.75 50.6201 270.527 50.7139 270.273V269.341H49.5537C49.1396 269.341 48.8057 269.445 48.5518 269.652C48.2979 269.855 48.1709 270.105 48.1709 270.402ZM58.1318 269.47V269.582C58.1318 270.414 57.9326 271.08 57.5342 271.58C57.1396 272.076 56.5967 272.324 55.9053 272.324C55.2139 272.324 54.6807 272.089 54.3057 271.621V274.41H53.2686V266.511H54.0654L54.2295 267.25C54.6084 266.687 55.1553 266.406 55.8701 266.406C56.5889 266.406 57.1455 266.683 57.54 267.238C57.9346 267.789 58.1318 268.533 58.1318 269.47ZM57.0889 269.582V269.47C57.0889 268.798 56.958 268.261 56.6963 267.859C56.4385 267.453 56.0674 267.25 55.583 267.25C55.0088 267.25 54.583 267.502 54.3057 268.005V270.765C54.5791 271.265 55.0088 271.515 55.5947 271.515C56.0752 271.515 56.4443 271.339 56.7021 270.988C56.96 270.636 57.0889 270.168 57.0889 269.582ZM62.7842 264.9H63.833V266.277H64.9111V267.05H63.833V270.513C63.833 270.998 64.0342 271.24 64.4365 271.24C64.5615 271.24 64.6904 271.216 64.8232 271.17L64.958 271.879C64.7705 272.023 64.5068 272.095 64.167 272.095C63.7295 272.095 63.3896 271.964 63.1475 271.703C62.9053 271.441 62.7842 271.045 62.7842 270.513V267.05H61.8818V266.277H62.7842V264.9ZM67.2314 263.746V267.033C67.6416 266.451 68.2002 266.16 68.9072 266.16C69.5322 266.16 70.0107 266.345 70.3428 266.716C70.6748 267.088 70.8408 267.648 70.8408 268.398V271.972H69.7979V268.386C69.7979 267.914 69.6982 267.566 69.499 267.343C69.2998 267.117 68.9971 267.004 68.5908 267.004C68.0127 267.004 67.5596 267.255 67.2314 267.759V271.972H66.1943V263.746H67.2314ZM73.3721 271.978H72.335V266.271H73.2607L73.3604 267.103C73.708 266.474 74.1807 266.16 74.7783 266.16C74.9189 266.16 75.0518 266.179 75.1768 266.218L75.0361 267.191L74.5029 267.156C73.9678 267.156 73.5908 267.404 73.3721 267.9V271.978ZM76.7295 269.078V269.195C76.7295 269.828 76.8584 270.334 77.1162 270.713C77.3779 271.091 77.7529 271.281 78.2412 271.281C78.7295 271.281 79.1045 271.091 79.3662 270.713C79.6279 270.33 79.7588 269.824 79.7588 269.195V269.078C79.7588 268.457 79.626 267.955 79.3604 267.572C79.0986 267.185 78.7236 266.992 78.2354 266.992C77.751 266.992 77.3779 267.185 77.1162 267.572C76.8584 267.955 76.7295 268.457 76.7295 269.078ZM75.6865 269.195V269.078C75.6865 268.218 75.917 267.519 76.3779 266.98C76.8389 266.441 77.46 266.172 78.2412 266.172C79.0225 266.172 79.6436 266.441 80.1045 266.98C80.5654 267.515 80.7959 268.214 80.7959 269.078V269.195C80.7959 270.062 80.5654 270.763 80.1045 271.298C79.6475 271.83 79.0264 272.095 78.2412 272.095C77.46 272.095 76.8389 271.828 76.3779 271.293C75.917 270.757 75.6865 270.058 75.6865 269.195ZM84.0303 272.095C83.3896 272.095 82.8994 271.894 82.5596 271.492C82.2197 271.086 82.0498 270.468 82.0498 269.64V266.277H83.0869V269.652C83.0869 270.25 83.1729 270.666 83.3447 270.9C83.5205 271.134 83.8037 271.252 84.1943 271.252C84.9092 271.252 85.3975 270.964 85.6592 270.39V266.277H86.6963V271.984H85.7646L85.6943 271.14C85.3193 271.777 84.7646 272.095 84.0303 272.095ZM87.9854 269.593V269.482C87.9854 268.548 88.1865 267.804 88.5889 267.25C88.9912 266.695 89.5459 266.418 90.2529 266.418C90.9639 266.418 91.5088 266.701 91.8877 267.267L92.0166 266.523H92.8428V272.259C92.8428 272.994 92.6299 273.556 92.2041 273.947C91.7822 274.338 91.1689 274.533 90.3643 274.533C90.0869 274.533 89.79 274.494 89.4736 274.416C89.1572 274.341 88.8779 274.24 88.6357 274.111L88.8994 273.302C89.0869 273.408 89.3115 273.494 89.5732 273.56C89.8389 273.627 90.0986 273.66 90.3525 273.66C90.8564 273.66 91.2236 273.547 91.4541 273.32C91.6885 273.093 91.8057 272.74 91.8057 272.259V271.615C91.4268 272.099 90.8955 272.341 90.2119 272.341C89.5322 272.341 88.9912 272.091 88.5889 271.591C88.1865 271.088 87.9854 270.422 87.9854 269.593ZM89.0225 269.482V269.593C89.0225 270.183 89.1455 270.648 89.3916 270.988C89.6416 271.328 90.0088 271.498 90.4932 271.498C91.0869 271.498 91.5264 271.224 91.8115 270.677V268.052C91.5146 267.525 91.0791 267.261 90.5049 267.261C90.0205 267.261 89.6514 267.463 89.3975 267.865C89.1475 268.263 89.0225 268.802 89.0225 269.482ZM95.3916 263.746V267.033C95.8018 266.451 96.3604 266.16 97.0674 266.16C97.6924 266.16 98.1709 266.345 98.5029 266.716C98.835 267.088 99.001 267.648 99.001 268.398V271.972H97.958V268.386C97.958 267.914 97.8584 267.566 97.6592 267.343C97.46 267.117 97.1572 267.004 96.751 267.004C96.1729 267.004 95.7197 267.255 95.3916 267.759V271.972H94.3545V263.746H95.3916ZM103.87 264.9H104.919V266.277H105.997V267.05H104.919V270.513C104.919 270.998 105.12 271.24 105.522 271.24C105.647 271.24 105.776 271.216 105.909 271.17L106.044 271.879C105.856 272.023 105.593 272.095 105.253 272.095C104.815 272.095 104.476 271.964 104.233 271.703C103.991 271.441 103.87 271.045 103.87 270.513V267.05H102.968V266.277H103.87V264.9ZM108.317 263.746V267.033C108.728 266.451 109.286 266.16 109.993 266.16C110.618 266.16 111.097 266.345 111.429 266.716C111.761 267.088 111.927 267.648 111.927 268.398V271.972H110.884V268.386C110.884 267.914 110.784 267.566 110.585 267.343C110.386 267.117 110.083 267.004 109.677 267.004C109.099 267.004 108.646 267.255 108.317 267.759V271.972H107.28V263.746H108.317ZM116.919 268.427C116.919 267.998 116.808 267.652 116.585 267.39C116.362 267.125 116.042 266.992 115.624 266.992C115.28 266.992 114.983 267.136 114.733 267.425C114.487 267.714 114.335 268.084 114.276 268.533L114.288 268.562H116.919V268.427ZM115.782 272.095C114.989 272.095 114.356 271.834 113.884 271.31C113.415 270.787 113.181 270.097 113.181 269.242V269.007C113.181 268.207 113.419 267.535 113.896 266.992C114.376 266.445 114.952 266.172 115.624 266.172C116.382 266.172 116.96 266.4 117.358 266.857C117.761 267.31 117.962 267.933 117.962 268.726V269.377H114.259L114.241 269.4C114.253 269.963 114.394 270.418 114.663 270.765C114.937 271.109 115.31 271.281 115.782 271.281C116.446 271.281 116.985 271.093 117.399 270.718L117.81 271.392H117.804C117.327 271.861 116.653 272.095 115.782 272.095ZM123.657 271.972H122.614V267.039H121.718V266.265H122.614V265.545C122.614 264.935 122.771 264.464 123.083 264.132C123.399 263.8 123.845 263.634 124.419 263.634C124.618 263.634 124.876 263.672 125.192 263.746L125.063 264.537C124.915 264.502 124.745 264.484 124.554 264.484C123.956 264.484 123.657 264.838 123.657 265.545V266.265H124.841V267.039H123.657V271.972ZM126.71 269.078V269.195C126.71 269.828 126.839 270.334 127.097 270.713C127.358 271.091 127.733 271.281 128.222 271.281C128.71 271.281 129.085 271.091 129.347 270.713C129.608 270.33 129.739 269.824 129.739 269.195V269.078C129.739 268.457 129.606 267.955 129.341 267.572C129.079 267.185 128.704 266.992 128.216 266.992C127.731 266.992 127.358 267.185 127.097 267.572C126.839 267.955 126.71 268.457 126.71 269.078ZM125.667 269.195V269.078C125.667 268.218 125.897 267.519 126.358 266.98C126.819 266.441 127.44 266.172 128.222 266.172C129.003 266.172 129.624 266.441 130.085 266.98C130.546 267.515 130.776 268.214 130.776 269.078V269.195C130.776 270.062 130.546 270.763 130.085 271.298C129.628 271.83 129.007 272.095 128.222 272.095C127.44 272.095 126.819 271.828 126.358 271.293C125.897 270.757 125.667 270.058 125.667 269.195ZM133.091 271.978H132.054V266.271H132.979L133.079 267.103C133.427 266.474 133.899 266.16 134.497 266.16C134.638 266.16 134.771 266.179 134.896 266.218L134.755 267.191L134.222 267.156C133.687 267.156 133.31 267.404 133.091 267.9V271.978ZM136.794 271.972H135.763V266.265H136.688L136.765 267.015C137.155 266.445 137.733 266.16 138.499 266.16C139.269 266.16 139.79 266.511 140.063 267.214C140.458 266.511 141.04 266.16 141.81 266.16C142.407 266.16 142.87 266.363 143.198 266.769C143.526 267.172 143.69 267.769 143.69 268.562V271.972H142.653V268.55C142.653 268 142.56 267.605 142.372 267.367C142.185 267.125 141.903 267.004 141.528 267.004C141.157 267.004 140.86 267.125 140.638 267.367C140.419 267.605 140.29 267.918 140.251 268.304V271.972H139.202V268.55C139.202 268.019 139.104 267.629 138.909 267.379C138.718 267.129 138.431 267.004 138.048 267.004C137.446 267.004 137.028 267.252 136.794 267.748V271.972ZM146.146 271.011V271.972H145.214V271.011H146.146ZM146.146 266.394V267.355H145.214V266.394H146.146Z" fill="#828282"/>
<rect x="40.6885" y="289.147" width="39.7747" height="14.1449" rx="7.07247" fill="#E0E0E0"/>
<rect x="40.6885" y="315.658" width="39.7747" height="14.1449" rx="7.07247" fill="#E0E0E0"/>
<rect x="132.182" y="289.147" width="39.7747" height="14.1449" rx="7.07247" fill="#E0E0E0"/>
<rect x="132.182" y="315.658" width="39.7747" height="14.1449" rx="7.07247" fill="#E0E0E0"/>
<rect x="85.1562" y="289.147" width="39.7747" height="14.1449" rx="7.07247" fill="#4482F0"/>
<rect x="85.1562" y="315.658" width="39.7747" height="14.1449" rx="7.07247" fill="#E0E0E0"/>
<rect x="176.65" y="289.147" width="39.7747" height="14.1449" rx="7.07247" fill="#E0E0E0"/>
<rect x="176.65" y="315.658" width="39.7747" height="14.1449" rx="7.07247" fill="#E0E0E0"/>
<path d="M273.024 120.108C273.024 115.726 276.576 112.174 280.958 112.174H443.473C447.855 112.174 451.407 115.726 451.407 120.108V139.223H273.024V120.108Z" fill="#FAFAFA"/>
<rect x="273.524" y="112.674" width="177.383" height="130.693" rx="7.5" stroke="#4482F0" stroke-linecap="round" stroke-dasharray="2 5"/>
<path d="M330.297 118.156C331.161 118.156 331.989 118.499 332.6 119.11C333.211 119.721 333.554 120.549 333.554 121.413C333.554 122.277 333.211 123.106 332.6 123.716C331.989 124.327 331.161 124.671 330.297 124.671C329.433 124.671 328.604 124.327 327.993 123.716C327.382 123.106 327.039 122.277 327.039 121.413C327.039 120.549 327.382 119.721 327.993 119.11C328.604 118.499 329.433 118.156 330.297 118.156V118.156ZM330.297 126.299C333.896 126.299 336.812 127.757 336.812 129.557V131.185H323.782V129.557C323.782 127.757 326.697 126.299 330.297 126.299Z" fill="#717171"/>
<path d="M347.686 127.335V121.786H348.729V127.335C348.729 128.019 348.514 128.564 348.084 128.97C347.655 129.372 347.075 129.573 346.344 129.573C345.618 129.573 345.04 129.384 344.61 129.005C344.184 128.626 343.979 128.085 343.995 127.382L344.006 127.347H345.002C345.002 127.816 345.122 128.169 345.36 128.407C345.598 128.642 345.924 128.759 346.338 128.759C346.756 128.759 347.084 128.63 347.323 128.372C347.565 128.115 347.686 127.769 347.686 127.335ZM351.167 126.556V126.673C351.167 127.306 351.295 127.812 351.553 128.191C351.815 128.57 352.19 128.759 352.678 128.759C353.167 128.759 353.542 128.57 353.803 128.191C354.065 127.808 354.196 127.302 354.196 126.673V126.556C354.196 125.935 354.063 125.433 353.797 125.05C353.536 124.663 353.161 124.47 352.672 124.47C352.188 124.47 351.815 124.663 351.553 125.05C351.295 125.433 351.167 125.935 351.167 126.556ZM350.124 126.673V126.556C350.124 125.697 350.354 124.997 350.815 124.458C351.276 123.919 351.897 123.65 352.678 123.65C353.459 123.65 354.081 123.919 354.542 124.458C355.002 124.993 355.233 125.693 355.233 126.556V126.673C355.233 127.54 355.002 128.241 354.542 128.777C354.084 129.308 353.463 129.573 352.678 129.573C351.897 129.573 351.276 129.306 350.815 128.771C350.354 128.236 350.124 127.536 350.124 126.673ZM357.547 121.224V124.511C357.958 123.929 358.516 123.638 359.223 123.638C359.848 123.638 360.327 123.823 360.659 124.195C360.991 124.566 361.157 125.126 361.157 125.876V129.45H360.114V125.865C360.114 125.392 360.014 125.044 359.815 124.822C359.616 124.595 359.313 124.482 358.907 124.482C358.329 124.482 357.875 124.734 357.547 125.238V129.45H356.51V121.224H357.547ZM362.651 123.743H363.577L363.653 124.593C364.047 123.956 364.612 123.638 365.346 123.638C365.971 123.638 366.45 123.822 366.782 124.189C367.114 124.552 367.28 125.105 367.28 125.847V129.45H366.243V125.87C366.243 125.374 366.145 125.019 365.95 124.804C365.754 124.589 365.45 124.482 365.036 124.482C364.739 124.482 364.475 124.552 364.245 124.693C364.014 124.833 363.829 125.032 363.688 125.29V129.45H362.651V123.743ZM372.624 127.253C372.624 127.734 372.797 128.105 373.145 128.366C373.497 128.628 373.944 128.759 374.487 128.759C375.03 128.759 375.454 128.65 375.758 128.431C376.063 128.208 376.215 127.911 376.215 127.54C376.215 127.169 376.079 126.866 375.805 126.632C375.536 126.398 375.073 126.202 374.417 126.046C372.694 125.632 371.833 124.874 371.833 123.773C371.833 123.167 372.079 122.667 372.571 122.273C373.063 121.874 373.708 121.675 374.504 121.675C375.305 121.675 375.959 121.9 376.467 122.349C376.975 122.798 377.219 123.337 377.2 123.966L377.188 124.001H376.198C376.198 123.54 376.047 123.173 375.747 122.9C375.446 122.626 375.03 122.49 374.499 122.49C373.971 122.49 373.567 122.605 373.286 122.835C373.008 123.062 372.87 123.357 372.87 123.72C372.87 124.079 373.018 124.37 373.315 124.593C373.612 124.812 374.098 125.007 374.774 125.179C376.426 125.597 377.252 126.376 377.252 127.517C377.252 128.138 377 128.636 376.497 129.011C375.993 129.386 375.331 129.573 374.51 129.573C373.991 129.573 373.51 129.484 373.069 129.304C372.631 129.12 372.278 128.851 372.008 128.495C371.739 128.14 371.61 127.736 371.622 127.282L371.633 127.253H372.624ZM379.614 129.45H378.583V123.743H379.508L379.584 124.493C379.975 123.923 380.553 123.638 381.319 123.638C382.088 123.638 382.61 123.99 382.883 124.693C383.278 123.99 383.86 123.638 384.629 123.638C385.227 123.638 385.69 123.841 386.018 124.247C386.346 124.65 386.51 125.247 386.51 126.04V129.45H385.473V126.029C385.473 125.478 385.379 125.083 385.192 124.845C385.004 124.603 384.723 124.482 384.348 124.482C383.977 124.482 383.68 124.603 383.458 124.845C383.239 125.083 383.11 125.396 383.071 125.782V129.45H382.022V126.029C382.022 125.497 381.924 125.107 381.729 124.857C381.538 124.607 381.25 124.482 380.868 124.482C380.266 124.482 379.848 124.73 379.614 125.226V129.45ZM389.141 123.743V129.45H388.104V123.743H389.141ZM389.141 121.224V122.284H388.104V121.224H389.141ZM391.069 122.378H392.118V123.755H393.196V124.529H392.118V127.991C392.118 128.476 392.319 128.718 392.721 128.718C392.846 128.718 392.975 128.695 393.108 128.648L393.243 129.357C393.055 129.501 392.792 129.573 392.452 129.573C392.014 129.573 391.674 129.443 391.432 129.181C391.19 128.919 391.069 128.523 391.069 127.991V124.529H390.167V123.755H391.069V122.378ZM395.516 121.224V124.511C395.926 123.929 396.485 123.638 397.192 123.638C397.817 123.638 398.295 123.823 398.627 124.195C398.959 124.566 399.125 125.126 399.125 125.876V129.45H398.083V125.865C398.083 125.392 397.983 125.044 397.784 124.822C397.584 124.595 397.282 124.482 396.875 124.482C396.297 124.482 395.844 124.734 395.516 125.238V129.45H394.479V121.224H395.516Z" fill="#717171"/>
<rect x="366.263" y="161.183" width="35.0677" height="12.286" rx="6.14299" fill="#E0E0E0"/>
<rect x="366.263" y="178.155" width="35.0677" height="12.286" rx="6.14299" fill="#E0E0E0"/>
<rect x="404.617" y="178.155" width="35.0677" height="12.286" rx="6.14299" fill="#E0E0E0"/>
<rect x="284.746" y="154.583" width="68.3248" height="74.393" rx="3.29768" fill="#828282"/>
<path d="M325.131 193.674C324.986 193.674 324.841 193.656 324.696 193.621C324.068 193.464 323.569 192.983 323.393 192.362C322.145 187.954 320.176 184.501 318.907 184.501C317.639 184.501 315.67 187.954 314.422 192.362C314.246 192.983 313.747 193.464 313.118 193.621C312.49 193.773 311.826 193.583 311.383 193.119C309.121 190.753 309.249 186.299 309.272 185.8C309.27 184.581 309.536 183.004 310.063 181.173C310.261 180.484 310.129 179.743 309.7 179.14C309.606 179.008 309.516 178.877 309.43 178.745C308.172 176.825 307.507 174.532 307.507 172.114V171.004C307.507 166.892 311.794 165.807 314.061 165.807C316.285 165.807 317.93 166.872 318.907 167.75C319.885 166.872 321.53 165.807 323.754 165.807C326.021 165.807 330.308 166.892 330.308 171.005V172.115C330.308 174.533 329.643 176.826 328.385 178.746C328.3 178.876 328.21 179.008 328.116 179.14C327.687 179.744 327.555 180.485 327.753 181.173C328.278 183.003 328.545 184.579 328.545 185.856C328.565 186.3 328.694 190.753 326.432 193.119C326.09 193.478 325.616 193.674 325.131 193.674V193.674ZM314.061 168.34C313.9 168.342 310.041 168.393 310.041 171.005V172.115C310.041 174.039 310.563 175.852 311.549 177.358C311.619 177.464 311.69 177.569 311.765 177.675C312.641 178.908 312.908 180.44 312.497 181.872C312.043 183.454 311.803 184.831 311.803 185.856C311.768 186.7 311.856 188.648 312.458 190.131C313.542 186.868 315.703 181.969 318.908 181.969C322.11 181.969 324.271 186.865 325.355 190.126C325.959 188.628 326.045 186.658 326.012 185.911C326.011 184.83 325.772 183.453 325.317 181.871C324.905 180.437 325.172 178.907 326.05 177.672C326.124 177.568 326.195 177.464 326.263 177.359C327.253 175.851 327.774 174.038 327.774 172.114V171.004C327.774 168.404 323.945 168.341 323.753 168.339C321.398 168.341 319.961 170.309 319.947 170.329C319.474 171.009 318.341 171.009 317.868 170.329C317.815 170.255 316.419 168.34 314.061 168.34V168.34Z" fill="#FEFEFE"/>
<path d="M292.308 170.874C291.608 170.874 291.041 170.306 291.041 169.607V164.54C291.041 163.841 291.609 163.274 292.308 163.274H297.374C298.074 163.274 298.641 163.841 298.641 164.54C298.641 165.239 298.073 165.807 297.374 165.807H293.574V169.607C293.574 170.306 293.007 170.874 292.308 170.874V170.874Z" fill="#FEFEFE"/>
<path d="M345.508 196.207H340.441C339.742 196.207 339.175 195.64 339.175 194.941C339.175 194.242 339.742 193.674 340.441 193.674H344.242V189.874C344.242 189.175 344.809 188.608 345.508 188.608C346.207 188.608 346.775 189.175 346.775 189.874V194.941C346.775 195.64 346.207 196.207 345.508 196.207Z" fill="#FEFEFE"/>
<rect x="291.041" y="214.546" width="16.4664" height="2.52691" rx="1.26345" fill="#FEFEFE"/>
<rect x="291.041" y="220.545" width="16.4664" height="2.52691" rx="1.26345" fill="#FEFEFE"/>
<rect x="315.766" y="214.433" width="31.0096" height="8.6388" fill="#FEFEFE"/>
<rect x="262.207" y="95.5768" width="200.017" height="284.079" rx="7.5" stroke="#E0E0E0"/>
<rect x="451.407" y="345.399" width="178.383" height="92.8841" rx="8" transform="rotate(180 451.407 345.399)" fill="#F2F2F2"/>
<path d="M290.576 275.224L289.855 273.244H286.638L285.912 275.224H284.851L287.822 267.549H288.712L291.63 275.224H290.576ZM288.25 268.879L286.96 272.377H289.544L288.279 268.879H288.25ZM297.361 272.722V272.834C297.361 273.666 297.162 274.332 296.763 274.832C296.369 275.328 295.826 275.576 295.134 275.576C294.443 275.576 293.91 275.342 293.535 274.873V277.662H292.498V269.763H293.294L293.458 270.502C293.837 269.939 294.384 269.658 295.099 269.658C295.818 269.658 296.375 269.935 296.769 270.49C297.164 271.041 297.361 271.785 297.361 272.722ZM296.318 272.834V272.722C296.318 272.051 296.187 271.513 295.925 271.111C295.667 270.705 295.296 270.502 294.812 270.502C294.238 270.502 293.812 270.754 293.535 271.258V274.017C293.808 274.517 294.238 274.767 294.824 274.767C295.304 274.767 295.673 274.592 295.931 274.24C296.189 273.888 296.318 273.42 296.318 272.834ZM303.501 272.722V272.834C303.501 273.666 303.302 274.332 302.904 274.832C302.509 275.328 301.966 275.576 301.275 275.576C300.583 275.576 300.05 275.342 299.675 274.873V277.662H298.638V269.763H299.435L299.599 270.502C299.978 269.939 300.525 269.658 301.24 269.658C301.958 269.658 302.515 269.935 302.91 270.49C303.304 271.041 303.501 271.785 303.501 272.722ZM302.458 272.834V272.722C302.458 272.051 302.328 271.513 302.066 271.111C301.808 270.705 301.437 270.502 300.953 270.502C300.378 270.502 299.953 270.754 299.675 271.258V274.017C299.949 274.517 300.378 274.767 300.964 274.767C301.445 274.767 301.814 274.592 302.072 274.24C302.33 273.888 302.458 273.42 302.458 272.834ZM305.576 272.33V272.447C305.576 273.08 305.705 273.586 305.962 273.965C306.224 274.344 306.599 274.533 307.087 274.533C307.576 274.533 307.951 274.344 308.212 273.965C308.474 273.582 308.605 273.076 308.605 272.447V272.33C308.605 271.709 308.472 271.207 308.207 270.824C307.945 270.437 307.57 270.244 307.082 270.244C306.597 270.244 306.224 270.437 305.962 270.824C305.705 271.207 305.576 271.709 305.576 272.33ZM304.533 272.447V272.33C304.533 271.47 304.763 270.771 305.224 270.232C305.685 269.693 306.306 269.424 307.087 269.424C307.869 269.424 308.49 269.693 308.951 270.232C309.412 270.767 309.642 271.467 309.642 272.33V272.447C309.642 273.314 309.412 274.015 308.951 274.551C308.494 275.082 307.873 275.347 307.087 275.347C306.306 275.347 305.685 275.08 305.224 274.545C304.763 274.01 304.533 273.31 304.533 272.447ZM312.039 269.517V275.224H311.001V269.517H312.039ZM312.039 266.998V268.058H311.001V266.998H312.039ZM313.638 269.517H314.564L314.64 270.367C315.035 269.73 315.599 269.412 316.333 269.412C316.958 269.412 317.437 269.595 317.769 269.963C318.101 270.326 318.267 270.879 318.267 271.621V275.224H317.23V271.644C317.23 271.148 317.132 270.793 316.937 270.578C316.742 270.363 316.437 270.256 316.023 270.256C315.726 270.256 315.462 270.326 315.232 270.467C315.001 270.607 314.816 270.806 314.675 271.064V275.224H313.638V269.517ZM320.107 268.152H321.156V269.529H322.234V270.302H321.156V273.765C321.156 274.25 321.357 274.492 321.759 274.492C321.884 274.492 322.013 274.469 322.146 274.422L322.281 275.131C322.093 275.275 321.83 275.347 321.49 275.347C321.052 275.347 320.712 275.217 320.47 274.955C320.228 274.693 320.107 274.297 320.107 273.765V270.302H319.205V269.529H320.107V268.152ZM324.554 275.224H323.523V269.517H324.449L324.525 270.267C324.916 269.697 325.494 269.412 326.259 269.412C327.029 269.412 327.55 269.763 327.824 270.467C328.218 269.763 328.8 269.412 329.57 269.412C330.167 269.412 330.63 269.615 330.958 270.021C331.287 270.424 331.451 271.021 331.451 271.814V275.224H330.414V271.802C330.414 271.252 330.32 270.857 330.132 270.619C329.945 270.377 329.664 270.256 329.289 270.256C328.917 270.256 328.621 270.377 328.398 270.619C328.179 270.857 328.05 271.17 328.011 271.556V275.224H326.962V271.802C326.962 271.271 326.865 270.881 326.669 270.631C326.478 270.381 326.191 270.256 325.808 270.256C325.207 270.256 324.789 270.504 324.554 271V275.224ZM336.46 271.679C336.46 271.25 336.349 270.904 336.126 270.642C335.904 270.377 335.583 270.244 335.166 270.244C334.822 270.244 334.525 270.388 334.275 270.677C334.029 270.967 333.876 271.336 333.818 271.785L333.83 271.814H336.46V271.679ZM335.324 275.347C334.531 275.347 333.898 275.086 333.425 274.562C332.957 274.039 332.722 273.349 332.722 272.494V272.26C332.722 271.459 332.96 270.787 333.437 270.244C333.917 269.697 334.494 269.424 335.166 269.424C335.923 269.424 336.501 269.652 336.9 270.109C337.302 270.562 337.503 271.185 337.503 271.978V272.629H333.8L333.783 272.652C333.794 273.215 333.935 273.67 334.205 274.017C334.478 274.361 334.851 274.533 335.324 274.533C335.988 274.533 336.527 274.345 336.941 273.97L337.351 274.644H337.345C336.869 275.113 336.195 275.347 335.324 275.347ZM338.681 269.517H339.607L339.683 270.367C340.078 269.73 340.642 269.412 341.376 269.412C342.001 269.412 342.48 269.595 342.812 269.963C343.144 270.326 343.31 270.879 343.31 271.621V275.224H342.273V271.644C342.273 271.148 342.175 270.793 341.98 270.578C341.785 270.363 341.48 270.256 341.066 270.256C340.769 270.256 340.505 270.326 340.275 270.467C340.044 270.607 339.859 270.806 339.718 271.064V275.224H338.681V269.517ZM345.15 268.152H346.199V269.529H347.277V270.302H346.199V273.765C346.199 274.25 346.4 274.492 346.802 274.492C346.927 274.492 347.056 274.469 347.189 274.422L347.324 275.131C347.136 275.275 346.873 275.347 346.533 275.347C346.095 275.347 345.755 275.217 345.513 274.955C345.271 274.693 345.15 274.297 345.15 273.765V270.302H344.248V269.529H345.15V268.152Z" fill="#828282"/>
<path d="M316.082 81.5134C316.082 82.0739 316.285 82.5069 316.69 82.8122C317.101 83.1175 317.622 83.2702 318.256 83.2702C318.889 83.2702 319.384 83.1426 319.739 82.8874C320.095 82.6276 320.272 82.2813 320.272 81.8483C320.272 81.4154 320.113 81.0622 319.794 80.7888C319.479 80.5153 318.939 80.2875 318.174 80.1052C316.164 79.6221 315.159 78.738 315.159 77.4528C315.159 76.7464 315.446 76.1631 316.02 75.7028C316.595 75.238 317.347 75.0056 318.276 75.0056C319.211 75.0056 319.974 75.2676 320.566 75.7917C321.159 76.3158 321.444 76.9447 321.421 77.6784L321.407 77.7194H320.252C320.252 77.1817 320.076 76.7533 319.726 76.4343C319.375 76.1153 318.889 75.9557 318.269 75.9557C317.654 75.9557 317.183 76.0902 316.854 76.3591C316.531 76.6234 316.369 76.9675 316.369 77.3913C316.369 77.8106 316.542 78.1501 316.889 78.4099C317.235 78.6651 317.802 78.8929 318.591 79.0934C320.519 79.5811 321.482 80.4903 321.482 81.821C321.482 82.5456 321.188 83.1266 320.601 83.5641C320.013 84.0016 319.24 84.2204 318.283 84.2204C317.677 84.2204 317.116 84.1156 316.602 83.9059C316.091 83.6918 315.679 83.3773 315.364 82.9626C315.05 82.5479 314.899 82.0762 314.913 81.5475L314.927 81.5134H316.082ZM328.701 81.1579V81.2878C328.701 82.2585 328.469 83.0355 328.004 83.6188C327.544 84.1976 326.91 84.487 326.103 84.487C325.297 84.487 324.675 84.2136 324.237 83.6667V86.9206H323.027V77.7057H323.957L324.148 78.5671C324.59 77.9108 325.228 77.5827 326.062 77.5827C326.901 77.5827 327.55 77.9063 328.011 78.5534C328.471 79.196 328.701 80.0641 328.701 81.1579ZM327.484 81.2878V81.1579C327.484 80.374 327.332 79.7474 327.026 79.278C326.726 78.8041 326.293 78.5671 325.727 78.5671C325.058 78.5671 324.561 78.861 324.237 79.4489V82.6686C324.556 83.252 325.058 83.5436 325.741 83.5436C326.302 83.5436 326.732 83.3386 327.033 82.9284C327.334 82.5182 327.484 81.9714 327.484 81.2878ZM334.272 79.9411C334.272 79.4398 334.143 79.0365 333.883 78.7311C333.623 78.4212 333.249 78.2663 332.762 78.2663C332.361 78.2663 332.014 78.4349 331.723 78.7722C331.436 79.1094 331.258 79.5401 331.189 80.0641L331.203 80.0983H334.272V79.9411ZM332.946 84.2204C332.021 84.2204 331.283 83.9151 330.731 83.3044C330.185 82.6937 329.911 81.8893 329.911 80.8913V80.6179C329.911 79.6836 330.189 78.8998 330.745 78.2663C331.306 77.6283 331.978 77.3093 332.762 77.3093C333.646 77.3093 334.32 77.5759 334.785 78.1091C335.255 78.6377 335.489 79.3646 335.489 80.2897V81.0485H331.169L331.148 81.0759C331.162 81.7321 331.326 82.263 331.641 82.6686C331.96 83.0697 332.395 83.2702 332.946 83.2702C333.721 83.2702 334.35 83.0515 334.833 82.614L335.311 83.4001H335.305C334.749 83.947 333.963 84.2204 332.946 84.2204ZM337.8 80.8913C337.8 81.6068 337.932 82.1719 338.196 82.5866C338.483 83.0423 338.941 83.2702 339.57 83.2702C339.98 83.2702 340.336 83.1449 340.637 82.8942C340.937 82.6436 341.088 82.3405 341.088 81.985H342.175L342.188 82.0261C342.211 82.6048 341.958 83.1153 341.43 83.5573C340.901 83.9994 340.281 84.2204 339.57 84.2204C338.622 84.2204 337.886 83.9128 337.362 83.2975C336.838 82.6823 336.576 81.8802 336.576 80.8913V80.6315C336.576 79.6472 336.838 78.8474 337.362 78.2321C337.891 77.6169 338.627 77.3093 339.57 77.3093C340.345 77.3093 340.981 77.5371 341.477 77.9929C341.974 78.4486 342.213 79.016 342.195 79.695L342.182 79.7292H341.088C341.088 79.319 340.944 78.9727 340.657 78.6901C340.37 78.4076 340.012 78.2663 339.584 78.2663C339.16 78.2663 338.811 78.3734 338.538 78.5876C338.269 78.8018 338.078 79.0798 337.964 79.4216C337.854 79.7634 337.8 80.1667 337.8 80.6315V80.8913ZM344.854 77.4186V84.0768H343.644V77.4186H344.854ZM344.854 74.4792V75.7165H343.644V74.4792H344.854ZM348.614 84.2204C347.922 84.2204 347.393 84.0449 347.028 83.694C346.664 83.3431 346.481 82.8509 346.481 82.2175C346.481 81.584 346.737 81.0873 347.247 80.7272C347.757 80.3672 348.459 80.1872 349.352 80.1872H350.665V79.5309C350.665 79.139 350.544 78.8314 350.303 78.6081C350.066 78.3802 349.742 78.2663 349.332 78.2663C348.926 78.2663 348.601 78.3643 348.354 78.5602C348.108 78.7516 347.985 78.9909 347.985 79.278H346.83L346.816 79.2438C346.794 78.7425 347.026 78.2959 347.514 77.904C348.006 77.5075 348.63 77.3093 349.387 77.3093C350.148 77.3093 350.754 77.5052 351.205 77.8972C351.656 78.2845 351.882 78.8337 351.882 79.5446V82.7507C351.882 83.2656 351.939 83.7123 352.053 84.0905H350.802C350.715 83.6667 350.67 83.334 350.665 83.0925C350.428 83.4297 350.127 83.7031 349.763 83.9128C349.403 84.1179 349.02 84.2204 348.614 84.2204ZM347.705 82.2448H347.698C347.698 82.5456 347.792 82.7803 347.978 82.9489C348.165 83.1175 348.455 83.2018 348.847 83.2018C349.239 83.2018 349.612 83.0925 349.968 82.8737C350.328 82.6504 350.562 82.3906 350.672 82.0944V81.0075H349.318C348.835 81.0075 348.446 81.1283 348.149 81.3698C347.853 81.6068 347.705 81.8985 347.705 82.2448ZM354.958 74.4792V84.0768H353.748V74.4792H354.958ZM358.13 77.4186V84.0768H356.92V77.4186H358.13ZM358.13 74.4792V75.7165H356.92V74.4792H358.13ZM362.471 83.2565C362.899 83.2565 363.236 83.1722 363.482 83.0036C363.728 82.8304 363.852 82.6026 363.852 82.32C363.852 82.0375 363.747 81.8141 363.537 81.6501C363.327 81.4815 362.947 81.3334 362.395 81.2057C361.557 81.0235 360.939 80.7819 360.543 80.4811C360.151 80.1758 359.955 79.7565 359.955 79.2233C359.955 78.6901 360.187 78.2367 360.652 77.863C361.117 77.4847 361.723 77.2956 362.471 77.2956C363.218 77.2956 363.822 77.4938 364.282 77.8903C364.747 78.2822 364.968 78.7699 364.945 79.3532L364.932 79.3874H363.776C363.776 79.0821 363.651 78.8177 363.4 78.5944C363.154 78.3711 362.828 78.2595 362.423 78.2595C362.022 78.2595 361.712 78.3506 361.493 78.5329C361.274 78.7106 361.165 78.9385 361.165 79.2165C361.165 79.4945 361.261 79.7064 361.452 79.8522C361.644 79.9981 362.019 80.1302 362.58 80.2487C363.437 80.4356 364.066 80.6862 364.467 81.0007C364.868 81.3106 365.068 81.723 365.068 82.238C365.068 82.8304 364.829 83.3089 364.351 83.6735C363.877 84.0381 363.239 84.2204 362.436 84.2204C361.634 84.2204 360.985 84.0108 360.488 83.5915C359.996 83.1722 359.761 82.6641 359.784 82.0671L359.798 82.0329H360.953C360.976 82.4431 361.129 82.753 361.411 82.9626C361.698 83.1677 362.056 83.2702 362.484 83.2702L362.471 83.2565ZM366.969 75.8259H368.192V77.4323H369.45V78.3347H368.192V82.3747C368.192 82.9398 368.427 83.2224 368.896 83.2224C369.042 83.2224 369.193 83.195 369.348 83.1403L369.505 83.9675C369.286 84.1361 368.978 84.2204 368.582 84.2204C368.072 84.2204 367.675 84.0677 367.393 83.7624C367.11 83.4571 366.969 82.9945 366.969 82.3747V78.3347H365.916V77.4323H366.969V75.8259ZM373.422 83.2565C373.85 83.2565 374.187 83.1722 374.434 83.0036C374.68 82.8304 374.803 82.6026 374.803 82.32C374.803 82.0375 374.698 81.8141 374.488 81.6501C374.279 81.4815 373.898 81.3334 373.347 81.2057C372.508 81.0235 371.891 80.7819 371.494 80.4811C371.102 80.1758 370.906 79.7565 370.906 79.2233C370.906 78.6901 371.139 78.2367 371.603 77.863C372.068 77.4847 372.674 77.2956 373.422 77.2956C374.169 77.2956 374.773 77.4938 375.233 77.8903C375.698 78.2822 375.919 78.7699 375.896 79.3532L375.883 79.3874H374.727C374.727 79.0821 374.602 78.8177 374.352 78.5944C374.105 78.3711 373.78 78.2595 373.374 78.2595C372.973 78.2595 372.663 78.3506 372.444 78.5329C372.226 78.7106 372.116 78.9385 372.116 79.2165C372.116 79.4945 372.212 79.7064 372.403 79.8522C372.595 79.9981 372.971 80.1302 373.531 80.2487C374.388 80.4356 375.017 80.6862 375.418 81.0007C375.819 81.3106 376.019 81.723 376.019 82.238C376.019 82.8304 375.78 83.3089 375.302 83.6735C374.828 84.0381 374.19 84.2204 373.388 84.2204C372.586 84.2204 371.936 84.0108 371.439 83.5915C370.947 83.1722 370.713 82.6641 370.735 82.0671L370.749 82.0329H371.904C371.927 82.4431 372.08 82.753 372.362 82.9626C372.649 83.1677 373.007 83.2702 373.436 83.2702L373.422 83.2565ZM379.444 74.4792V75.6686L378.46 77.7946H377.865L378.234 75.6823V74.4792H379.444ZM391.018 84.0768L390.177 81.7663H386.424L385.576 84.0768H384.339L387.805 75.1218H388.844L392.248 84.0768H391.018ZM388.304 76.6735L386.8 80.7546H389.814L388.338 76.6735H388.304ZM395.543 84.2204C394.796 84.2204 394.224 83.9857 393.827 83.5163C393.431 83.0423 393.232 82.3223 393.232 81.3561V77.4323H394.442V81.3698C394.442 82.0671 394.543 82.5524 394.743 82.8259C394.948 83.0993 395.279 83.236 395.734 83.236C396.568 83.236 397.138 82.9011 397.443 82.2311V77.4323H398.653V84.0905H397.566L397.484 83.1061C397.047 83.849 396.4 84.2204 395.543 84.2204ZM401.634 84.0837H400.424V77.4255H401.504L401.62 78.3962C402.026 77.6625 402.577 77.2956 403.274 77.2956C403.438 77.2956 403.593 77.3184 403.739 77.364L403.575 78.4987L402.953 78.4577C402.329 78.4577 401.889 78.7471 401.634 79.3259V84.0837ZM406.638 84.2204C405.945 84.2204 405.416 84.0449 405.052 83.694C404.687 83.3431 404.505 82.8509 404.505 82.2175C404.505 81.584 404.76 81.0873 405.27 80.7272C405.781 80.3672 406.483 80.1872 407.376 80.1872H408.688V79.5309C408.688 79.139 408.568 78.8314 408.326 78.6081C408.089 78.3802 407.766 78.2663 407.355 78.2663C406.95 78.2663 406.624 78.3643 406.378 78.5602C406.132 78.7516 406.009 78.9909 406.009 79.278H404.853L404.84 79.2438C404.817 78.7425 405.049 78.2959 405.537 77.904C406.029 77.5075 406.654 77.3093 407.41 77.3093C408.171 77.3093 408.777 77.5052 409.228 77.8972C409.68 78.2845 409.905 78.8337 409.905 79.5446V82.7507C409.905 83.2656 409.962 83.7123 410.076 84.0905H408.825C408.739 83.6667 408.693 83.334 408.688 83.0925C408.451 83.4297 408.151 83.7031 407.786 83.9128C407.426 84.1179 407.043 84.2204 406.638 84.2204ZM405.728 82.2448H405.722C405.722 82.5456 405.815 82.7803 406.002 82.9489C406.189 83.1175 406.478 83.2018 406.87 83.2018C407.262 83.2018 407.636 83.0925 407.991 82.8737C408.351 82.6504 408.586 82.3906 408.695 82.0944V81.0075H407.342C406.859 81.0075 406.469 81.1283 406.173 81.3698C405.877 81.6068 405.728 81.8985 405.728 82.2448Z" fill="#828282"/>
</g>
<circle cx="246.371" cy="366.537" r="41.87" fill="#FEFEFE" stroke="#4482F0"/>
<path d="M213.634 359.927H211.358V363.181H213.456C214.012 363.181 214.443 363.047 214.748 362.778C215.054 362.505 215.206 362.108 215.206 361.589C215.206 361.069 215.074 360.663 214.81 360.372C214.55 360.076 214.158 359.927 213.634 359.927ZM211.358 356.127V358.984H213.32C213.78 358.984 214.149 358.859 214.427 358.608C214.71 358.358 214.851 358.013 214.851 357.576C214.851 356.61 214.259 356.127 213.074 356.127H211.358ZM213.456 364.132H210.148V355.177H213.074C214.031 355.177 214.767 355.382 215.282 355.792C215.801 356.197 216.061 356.799 216.061 357.596C216.061 357.993 215.936 358.348 215.685 358.663C215.434 358.977 215.097 359.21 214.673 359.36C215.211 359.479 215.635 359.743 215.945 360.153C216.259 360.559 216.416 361.042 216.416 361.602C216.416 362.418 216.154 363.045 215.63 363.482C215.111 363.915 214.386 364.132 213.456 364.132ZM219.281 357.473V364.132H218.071V357.473H219.281ZM219.281 354.534V355.771H218.071V354.534H219.281ZM223.498 359.504V360.454H220.484V359.504H223.498ZM224.319 360.939C224.319 359.85 224.549 358.982 225.009 358.335C225.469 357.688 226.098 357.364 226.896 357.364C227.693 357.364 228.306 357.647 228.735 358.212V354.548H229.952V364.145H228.96L228.817 363.325C228.375 363.958 227.746 364.275 226.93 364.275C226.114 364.275 225.476 363.986 225.016 363.407C224.556 362.824 224.326 362.044 224.326 361.069L224.319 360.939ZM225.542 360.939V361.069C225.542 361.766 225.681 362.311 225.959 362.703C226.242 363.095 226.666 363.291 227.231 363.291C227.914 363.291 228.42 362.979 228.748 362.354V359.251C228.411 358.649 227.91 358.348 227.245 358.348C226.675 358.348 226.249 358.581 225.966 359.046C225.684 359.506 225.542 360.137 225.542 360.939ZM233.076 357.473V364.132H231.866V357.473H233.076ZM233.076 354.534V355.771H231.866V354.534H233.076ZM236.152 364.138H234.942V357.48H236.022L236.138 358.451C236.544 357.717 237.095 357.35 237.792 357.35C237.956 357.35 238.111 357.373 238.257 357.419L238.093 358.553L237.471 358.512C236.847 358.512 236.407 358.802 236.152 359.381V364.138ZM243.343 359.996C243.343 359.495 243.213 359.091 242.953 358.786C242.694 358.476 242.32 358.321 241.832 358.321C241.431 358.321 241.085 358.49 240.793 358.827C240.506 359.164 240.328 359.595 240.26 360.119L240.274 360.153H243.343V359.996ZM242.017 364.275C241.092 364.275 240.354 363.97 239.802 363.359C239.255 362.748 238.982 361.944 238.982 360.946V360.673C238.982 359.738 239.26 358.955 239.816 358.321C240.376 357.683 241.049 357.364 241.832 357.364C242.717 357.364 243.391 357.631 243.856 358.164C244.325 358.692 244.56 359.419 244.56 360.344V361.103H240.24L240.219 361.131C240.233 361.787 240.397 362.318 240.711 362.723C241.03 363.124 241.466 363.325 242.017 363.325C242.792 363.325 243.421 363.106 243.904 362.669L244.382 363.455H244.375C243.819 364.002 243.033 364.275 242.017 364.275ZM246.87 360.946C246.87 361.662 247.003 362.227 247.267 362.641C247.554 363.097 248.012 363.325 248.641 363.325C249.051 363.325 249.407 363.2 249.707 362.949C250.008 362.698 250.159 362.395 250.159 362.04H251.245L251.259 362.081C251.282 362.66 251.029 363.17 250.5 363.612C249.972 364.054 249.352 364.275 248.641 364.275C247.693 364.275 246.957 363.968 246.433 363.352C245.909 362.737 245.647 361.935 245.647 360.946V360.686C245.647 359.702 245.909 358.902 246.433 358.287C246.962 357.672 247.698 357.364 248.641 357.364C249.416 357.364 250.051 357.592 250.548 358.048C251.045 358.503 251.284 359.071 251.266 359.75L251.252 359.784H250.159C250.159 359.374 250.015 359.027 249.728 358.745C249.441 358.462 249.083 358.321 248.655 358.321C248.231 358.321 247.882 358.428 247.609 358.642C247.34 358.857 247.148 359.135 247.035 359.476C246.925 359.818 246.87 360.221 246.87 360.686V360.946ZM253.002 355.881H254.226V357.487H255.484V358.389H254.226V362.429C254.226 362.995 254.461 363.277 254.93 363.277C255.076 363.277 255.226 363.25 255.381 363.195L255.538 364.022C255.32 364.191 255.012 364.275 254.616 364.275C254.105 364.275 253.709 364.122 253.426 363.817C253.144 363.512 253.002 363.049 253.002 362.429V358.389H251.95V357.487H253.002V355.881ZM258.287 357.473V364.132H257.077V357.473H258.287ZM258.287 354.534V355.771H257.077V354.534H258.287ZM261.082 360.755V360.891C261.082 361.63 261.233 362.22 261.534 362.662C261.839 363.104 262.276 363.325 262.846 363.325C263.416 363.325 263.853 363.104 264.159 362.662C264.464 362.215 264.617 361.625 264.617 360.891V360.755C264.617 360.03 264.462 359.444 264.152 358.998C263.846 358.547 263.409 358.321 262.839 358.321C262.274 358.321 261.839 358.547 261.534 358.998C261.233 359.444 261.082 360.03 261.082 360.755ZM259.866 360.891V360.755C259.866 359.752 260.134 358.936 260.672 358.307C261.21 357.678 261.935 357.364 262.846 357.364C263.758 357.364 264.482 357.678 265.02 358.307C265.558 358.932 265.827 359.747 265.827 360.755V360.891C265.827 361.903 265.558 362.721 265.02 363.345C264.487 363.965 263.762 364.275 262.846 364.275C261.935 364.275 261.21 363.963 260.672 363.339C260.134 362.714 259.866 361.899 259.866 360.891ZM267.317 357.473H268.397L268.486 358.465C268.946 357.722 269.605 357.35 270.461 357.35C271.19 357.35 271.749 357.565 272.136 357.993C272.523 358.417 272.717 359.062 272.717 359.927V364.132H271.507V359.955C271.507 359.376 271.393 358.961 271.165 358.711C270.938 358.46 270.582 358.335 270.099 358.335C269.753 358.335 269.445 358.417 269.176 358.581C268.907 358.745 268.691 358.977 268.527 359.278V364.132H267.317V357.473ZM276.374 364.275C275.682 364.275 275.153 364.1 274.788 363.749C274.424 363.398 274.242 362.906 274.242 362.272C274.242 361.639 274.497 361.142 275.007 360.782C275.518 360.422 276.219 360.242 277.113 360.242H278.425V359.586C278.425 359.194 278.304 358.886 278.063 358.663C277.826 358.435 277.502 358.321 277.092 358.321C276.687 358.321 276.361 358.419 276.115 358.615C275.869 358.806 275.745 359.046 275.745 359.333H274.59L274.577 359.299C274.554 358.797 274.786 358.351 275.274 357.959C275.766 357.562 276.39 357.364 277.147 357.364C277.908 357.364 278.514 357.56 278.965 357.952C279.416 358.339 279.642 358.888 279.642 359.599V362.805C279.642 363.32 279.699 363.767 279.813 364.145H278.562C278.475 363.721 278.43 363.389 278.425 363.147C278.188 363.484 277.887 363.758 277.523 363.968C277.163 364.173 276.78 364.275 276.374 364.275ZM275.465 362.3H275.458C275.458 362.6 275.552 362.835 275.739 363.004C275.925 363.172 276.215 363.257 276.607 363.257C276.999 363.257 277.372 363.147 277.728 362.928C278.088 362.705 278.323 362.445 278.432 362.149V361.062H277.078C276.595 361.062 276.206 361.183 275.91 361.425C275.613 361.662 275.465 361.953 275.465 362.3ZM282.718 354.534V364.132H281.508V354.534H282.718ZM226.513 382.275C225.766 382.275 225.194 382.04 224.797 381.571C224.401 381.097 224.203 380.377 224.203 379.411V375.487H225.412V379.425C225.412 380.122 225.513 380.607 225.713 380.881C225.918 381.154 226.249 381.291 226.704 381.291C227.538 381.291 228.108 380.956 228.413 380.286V375.487H229.623V382.145H228.537L228.454 381.161C228.017 381.904 227.37 382.275 226.513 382.275ZM237.068 379.213V379.343C237.068 380.313 236.835 381.09 236.37 381.674C235.91 382.252 235.277 382.542 234.47 382.542C233.663 382.542 233.041 382.268 232.604 381.721V384.975H231.394V375.76H232.324L232.515 376.622C232.957 375.966 233.595 375.637 234.429 375.637C235.268 375.637 235.917 375.961 236.377 376.608C236.838 377.251 237.068 378.119 237.068 379.213ZM235.851 379.343V379.213C235.851 378.429 235.698 377.802 235.393 377.333C235.092 376.859 234.659 376.622 234.094 376.622C233.424 376.622 232.927 376.916 232.604 377.504V380.723C232.923 381.307 233.424 381.598 234.108 381.598C234.668 381.598 235.099 381.393 235.4 380.983C235.701 380.573 235.851 380.026 235.851 379.343ZM238.271 378.939C238.271 377.85 238.501 376.982 238.961 376.335C239.422 375.688 240.051 375.364 240.848 375.364C241.646 375.364 242.259 375.647 242.687 376.212V372.548H243.904V382.145H242.912L242.769 381.325C242.327 381.958 241.698 382.275 240.882 382.275C240.066 382.275 239.428 381.986 238.968 381.407C238.508 380.824 238.278 380.044 238.278 379.069L238.271 378.939ZM239.495 378.939V379.069C239.495 379.766 239.634 380.311 239.912 380.703C240.194 381.095 240.618 381.291 241.183 381.291C241.867 381.291 242.372 380.979 242.701 380.354V377.251C242.363 376.649 241.862 376.348 241.197 376.348C240.627 376.348 240.201 376.581 239.918 377.046C239.636 377.506 239.495 378.137 239.495 378.939ZM247.616 382.275C246.923 382.275 246.394 382.1 246.03 381.749C245.665 381.398 245.483 380.906 245.483 380.272C245.483 379.639 245.738 379.142 246.248 378.782C246.759 378.422 247.461 378.242 248.354 378.242H249.666V377.586C249.666 377.194 249.546 376.886 249.304 376.663C249.067 376.435 248.744 376.321 248.333 376.321C247.928 376.321 247.602 376.419 247.356 376.615C247.11 376.806 246.987 377.046 246.987 377.333H245.831L245.818 377.299C245.795 376.797 246.027 376.351 246.515 375.959C247.007 375.562 247.632 375.364 248.388 375.364C249.149 375.364 249.755 375.56 250.206 375.952C250.658 376.339 250.883 376.888 250.883 377.599V380.805C250.883 381.32 250.94 381.767 251.054 382.145H249.803C249.717 381.721 249.671 381.389 249.666 381.147C249.429 381.484 249.129 381.758 248.764 381.968C248.404 382.173 248.021 382.275 247.616 382.275ZM246.706 380.3H246.7C246.7 380.6 246.793 380.835 246.98 381.004C247.167 381.172 247.456 381.257 247.848 381.257C248.24 381.257 248.614 381.147 248.969 380.928C249.329 380.705 249.564 380.445 249.673 380.149V379.062H248.32C247.837 379.062 247.447 379.183 247.151 379.425C246.855 379.662 246.706 379.953 246.706 380.3ZM253.037 373.881H254.26V375.487H255.518V376.389H254.26V380.429C254.26 380.995 254.495 381.277 254.964 381.277C255.11 381.277 255.26 381.25 255.415 381.195L255.573 382.022C255.354 382.191 255.046 382.275 254.65 382.275C254.139 382.275 253.743 382.122 253.46 381.817C253.178 381.512 253.037 381.049 253.037 380.429V376.389H251.984V375.487H253.037V373.881ZM261.096 377.996C261.096 377.495 260.966 377.091 260.706 376.786C260.447 376.476 260.073 376.321 259.585 376.321C259.184 376.321 258.838 376.49 258.546 376.827C258.259 377.164 258.081 377.595 258.013 378.119L258.027 378.153H261.096V377.996ZM259.77 382.275C258.845 382.275 258.106 381.97 257.555 381.359C257.008 380.748 256.735 379.944 256.735 378.946V378.673C256.735 377.738 257.013 376.955 257.569 376.321C258.129 375.683 258.801 375.364 259.585 375.364C260.469 375.364 261.144 375.631 261.609 376.164C262.078 376.692 262.313 377.419 262.313 378.344V379.103H257.993L257.972 379.131C257.986 379.787 258.15 380.318 258.464 380.723C258.783 381.124 259.218 381.325 259.77 381.325C260.545 381.325 261.174 381.106 261.657 380.669L262.135 381.455H262.128C261.572 382.002 260.786 382.275 259.77 382.275ZM266.162 381.311C266.59 381.311 266.927 381.227 267.173 381.058C267.419 380.885 267.542 380.657 267.542 380.375C267.542 380.092 267.438 379.869 267.228 379.705C267.018 379.536 266.638 379.388 266.086 379.26C265.248 379.078 264.63 378.837 264.234 378.536C263.842 378.231 263.646 377.811 263.646 377.278C263.646 376.745 263.878 376.291 264.343 375.918C264.808 375.539 265.414 375.35 266.162 375.35C266.909 375.35 267.513 375.549 267.973 375.945C268.438 376.337 268.659 376.825 268.636 377.408L268.622 377.442H267.467C267.467 377.137 267.342 376.872 267.091 376.649C266.845 376.426 266.519 376.314 266.114 376.314C265.713 376.314 265.403 376.405 265.184 376.588C264.965 376.765 264.856 376.993 264.856 377.271C264.856 377.549 264.952 377.761 265.143 377.907C265.334 378.053 265.71 378.185 266.271 378.303C267.128 378.49 267.757 378.741 268.158 379.055C268.559 379.365 268.759 379.778 268.759 380.293C268.759 380.885 268.52 381.364 268.041 381.728C267.567 382.093 266.929 382.275 266.127 382.275C265.325 382.275 264.676 382.066 264.179 381.646C263.687 381.227 263.452 380.719 263.475 380.122L263.489 380.088H264.644C264.667 380.498 264.819 380.808 265.102 381.017C265.389 381.222 265.747 381.325 266.175 381.325L266.162 381.311Z" fill="#4482F0"/>
<circle cx="247.556" cy="42.7747" r="41.8704" fill="#FEFEFE" stroke="#4482F0"/>
<path d="M229.625 35.1938H227.369V39.0766H226.159V30.1216H229.4C230.384 30.1216 231.134 30.338 231.649 30.771C232.164 31.2039 232.421 31.8374 232.421 32.6714C232.421 33.601 231.952 34.271 231.013 34.6811C231.938 34.9819 232.401 35.686 232.401 36.7934V37.6342C232.401 38.2449 232.537 38.6756 232.811 38.9262V39.0766H231.56C231.309 38.8533 231.184 38.3702 231.184 37.6274V36.8071C231.184 36.3195 231.043 35.9298 230.76 35.6382C230.477 35.3419 230.099 35.1938 229.625 35.1938ZM227.369 31.0717V34.2436H229.277C229.96 34.2436 230.452 34.116 230.753 33.8608C231.059 33.601 231.211 33.2 231.211 32.6577C231.211 31.6004 230.607 31.0717 229.4 31.0717H227.369ZM238.368 34.9409C238.368 34.4396 238.239 34.0363 237.979 33.7309C237.719 33.421 237.345 33.2661 236.858 33.2661C236.457 33.2661 236.11 33.4347 235.819 33.7719C235.531 34.1092 235.354 34.5398 235.285 35.0639L235.299 35.0981H238.368V34.9409ZM237.042 39.2202C236.117 39.2202 235.379 38.9148 234.827 38.3042C234.281 37.6935 234.007 36.8891 234.007 35.8911V35.6176C234.007 34.6834 234.285 33.8995 234.841 33.2661C235.402 32.6281 236.074 32.3091 236.858 32.3091C237.742 32.3091 238.416 32.5757 238.881 33.1089C239.351 33.6375 239.585 34.3644 239.585 35.2895V36.0483H235.265L235.244 36.0757C235.258 36.7319 235.422 37.2628 235.737 37.6684C236.056 38.0695 236.491 38.27 237.042 38.27C237.817 38.27 238.446 38.0512 238.929 37.6137L239.407 38.3999H239.401C238.845 38.9467 238.059 39.2202 237.042 39.2202ZM242.675 39.0766H241.458V33.3208H240.412V32.4184H241.458V31.5776C241.458 30.8667 241.641 30.3175 242.005 29.9301C242.374 29.5428 242.894 29.3491 243.564 29.3491C243.796 29.3491 244.097 29.3924 244.466 29.479L244.316 30.4018C244.142 30.3608 243.944 30.3403 243.721 30.3403C243.024 30.3403 242.675 30.7527 242.675 31.5776V32.4184H244.056V33.3208H242.675V39.0766ZM249.238 34.9409C249.238 34.4396 249.108 34.0363 248.848 33.7309C248.588 33.421 248.214 33.2661 247.727 33.2661C247.326 33.2661 246.979 33.4347 246.688 33.7719C246.401 34.1092 246.223 34.5398 246.155 35.0639L246.168 35.0981H249.238V34.9409ZM247.911 39.2202C246.986 39.2202 246.248 38.9148 245.697 38.3042C245.15 37.6935 244.876 36.8891 244.876 35.8911V35.6176C244.876 34.6834 245.154 33.8995 245.71 33.2661C246.271 32.6281 246.943 32.3091 247.727 32.3091C248.611 32.3091 249.285 32.5757 249.75 33.1089C250.22 33.6375 250.454 34.3644 250.454 35.2895V36.0483H246.134L246.114 36.0757C246.127 36.7319 246.291 37.2628 246.606 37.6684C246.925 38.0695 247.36 38.27 247.911 38.27C248.686 38.27 249.315 38.0512 249.798 37.6137L250.277 38.3999H250.27C249.714 38.9467 248.928 39.2202 247.911 39.2202ZM253.038 39.0835H251.828V32.4253H252.908L253.025 33.396C253.43 32.6622 253.982 32.2954 254.679 32.2954C254.843 32.2954 254.998 32.3182 255.144 32.3637L254.98 33.4985L254.358 33.4575C253.733 33.4575 253.294 33.7469 253.038 34.3257V39.0835ZM257.359 39.0835H256.149V32.4253H257.229L257.345 33.396C257.751 32.6622 258.302 32.2954 258.999 32.2954C259.163 32.2954 259.318 32.3182 259.464 32.3637L259.3 33.4985L258.678 33.4575C258.054 33.4575 257.614 33.7469 257.359 34.3257V39.0835ZM262.363 39.2202C261.67 39.2202 261.141 39.0447 260.777 38.6938C260.412 38.3429 260.23 37.8507 260.23 37.2173C260.23 36.5838 260.485 36.087 260.995 35.727C261.506 35.367 262.208 35.187 263.101 35.187H264.413V34.5307C264.413 34.1388 264.293 33.8312 264.051 33.6079C263.814 33.38 263.49 33.2661 263.08 33.2661C262.675 33.2661 262.349 33.3641 262.103 33.56C261.857 33.7514 261.734 33.9907 261.734 34.2778H260.578L260.565 34.2436C260.542 33.7423 260.774 33.2957 261.262 32.9038C261.754 32.5073 262.378 32.3091 263.135 32.3091C263.896 32.3091 264.502 32.505 264.953 32.8969C265.405 33.2843 265.63 33.8335 265.63 34.5444V37.7505C265.63 38.2654 265.687 38.712 265.801 39.0903H264.55C264.463 38.6665 264.418 38.3338 264.413 38.0923C264.176 38.4295 263.876 38.7029 263.511 38.9126C263.151 39.1176 262.768 39.2202 262.363 39.2202ZM261.453 37.2446H261.447C261.447 37.5454 261.54 37.7801 261.727 37.9487C261.914 38.1173 262.203 38.2016 262.595 38.2016C262.987 38.2016 263.361 38.0923 263.716 37.8735C264.076 37.6502 264.311 37.3904 264.42 37.0942V36.0073H263.067C262.584 36.0073 262.194 36.1281 261.898 36.3696C261.601 36.6066 261.453 36.8982 261.453 37.2446ZM268.706 29.479V39.0766H267.496V29.479H268.706ZM227.991 57.0835H226.781V50.4253H227.862L227.978 51.396C228.383 50.6622 228.935 50.2954 229.632 50.2954C229.796 50.2954 229.951 50.3182 230.097 50.3637L229.933 51.4985L229.311 51.4575C228.686 51.4575 228.247 51.7469 227.991 52.3257V57.0835ZM235.183 52.9409C235.183 52.4396 235.053 52.0363 234.793 51.7309C234.533 51.421 234.16 51.2661 233.672 51.2661C233.271 51.2661 232.925 51.4347 232.633 51.7719C232.346 52.1092 232.168 52.5398 232.1 53.0639L232.114 53.0981H235.183V52.9409ZM233.857 57.2202C232.932 57.2202 232.193 56.9148 231.642 56.3042C231.095 55.6935 230.822 54.8891 230.822 53.8911V53.6176C230.822 52.6834 231.1 51.8995 231.656 51.2661C232.216 50.6281 232.888 50.3091 233.672 50.3091C234.556 50.3091 235.231 50.5757 235.696 51.1089C236.165 51.6375 236.4 52.3644 236.4 53.2895V54.0483H232.079L232.059 54.0757C232.073 54.7319 232.237 55.2628 232.551 55.6684C232.87 56.0695 233.305 56.27 233.857 56.27C234.631 56.27 235.26 56.0512 235.743 55.6137L236.222 56.3999H236.215C235.659 56.9467 234.873 57.2202 233.857 57.2202ZM238.71 54.1577V54.2876C238.71 54.9848 238.851 55.5363 239.134 55.9419C239.417 56.3429 239.838 56.5434 240.399 56.5434C241.018 56.5434 241.502 56.2632 241.848 55.7026V52.3393C241.497 51.8016 241.03 51.5327 240.447 51.5327C239.863 51.5327 239.428 51.7697 239.141 52.2436C238.854 52.7176 238.71 53.3556 238.71 54.1577ZM237.493 54.2876V54.1577C237.493 53.0685 237.724 52.2003 238.184 51.5532C238.644 50.9061 239.278 50.5825 240.084 50.5825C240.895 50.5825 241.52 50.8833 241.957 51.4848L242.135 50.7055H243.058V59.9204H241.848V56.7348C241.42 57.2361 240.818 57.4868 240.043 57.4868C239.268 57.4868 238.649 57.1974 238.184 56.6186C237.724 56.0353 237.493 55.2583 237.493 54.2876ZM247.221 57.2202C246.474 57.2202 245.902 56.9855 245.505 56.5161C245.109 56.0421 244.91 55.3221 244.91 54.3559V50.4321H246.12V54.3696C246.12 55.0669 246.221 55.5522 246.421 55.8257C246.626 56.0991 246.957 56.2358 247.412 56.2358C248.246 56.2358 248.816 55.9008 249.121 55.2309V50.4321H250.331V57.0903H249.244L249.162 56.1059C248.725 56.8488 248.078 57.2202 247.221 57.2202ZM256.183 52.9409C256.183 52.4396 256.053 52.0363 255.793 51.7309C255.533 51.421 255.16 51.2661 254.672 51.2661C254.271 51.2661 253.925 51.4347 253.633 51.7719C253.346 52.1092 253.168 52.5398 253.1 53.0639L253.114 53.0981H256.183V52.9409ZM254.857 57.2202C253.932 57.2202 253.193 56.9148 252.642 56.3042C252.095 55.6935 251.822 54.8891 251.822 53.8911V53.6176C251.822 52.6834 252.1 51.8995 252.656 51.2661C253.216 50.6281 253.888 50.3091 254.672 50.3091C255.556 50.3091 256.231 50.5757 256.696 51.1089C257.165 51.6375 257.4 52.3644 257.4 53.2895V54.0483H253.079L253.059 54.0757C253.073 54.7319 253.237 55.2628 253.551 55.6684C253.87 56.0695 254.305 56.27 254.857 56.27C255.631 56.27 256.26 56.0512 256.743 55.6137L257.222 56.3999H257.215C256.659 56.9467 255.873 57.2202 254.857 57.2202ZM261.248 56.2563C261.677 56.2563 262.014 56.172 262.26 56.0034C262.506 55.8302 262.629 55.6023 262.629 55.3198C262.629 55.0372 262.524 54.8139 262.315 54.6499C262.105 54.4813 261.725 54.3331 261.173 54.2055C260.335 54.0232 259.717 53.7817 259.321 53.4809C258.929 53.1756 258.733 52.7563 258.733 52.2231C258.733 51.6899 258.965 51.2365 259.43 50.8628C259.895 50.4845 260.501 50.2954 261.248 50.2954C261.996 50.2954 262.6 50.4936 263.06 50.8901C263.525 51.282 263.746 51.7697 263.723 52.353L263.709 52.3872H262.554C262.554 52.0818 262.429 51.8175 262.178 51.5942C261.932 51.3709 261.606 51.2592 261.2 51.2592C260.799 51.2592 260.49 51.3504 260.271 51.5327C260.052 51.7104 259.943 51.9383 259.943 52.2163C259.943 52.4943 260.038 52.7062 260.23 52.852C260.421 52.9979 260.797 53.13 261.358 53.2485C262.214 53.4354 262.843 53.686 263.244 54.0005C263.645 54.3104 263.846 54.7228 263.846 55.2378C263.846 55.8302 263.607 56.3087 263.128 56.6733C262.654 57.0379 262.016 57.2202 261.214 57.2202C260.412 57.2202 259.763 57.0105 259.266 56.5913C258.774 56.172 258.539 55.6639 258.562 55.0669L258.575 55.0327H259.731C259.753 55.4428 259.906 55.7527 260.189 55.9624C260.476 56.1674 260.834 56.27 261.262 56.27L261.248 56.2563ZM265.746 48.8257H266.97V50.4321H268.228V51.3344H266.97V55.3745C266.97 55.9396 267.205 56.2221 267.674 56.2221C267.82 56.2221 267.97 56.1948 268.125 56.1401L268.282 56.9673C268.064 57.1359 267.756 57.2202 267.36 57.2202C266.849 57.2202 266.453 57.0675 266.17 56.7622C265.888 56.4568 265.746 55.9943 265.746 55.3745V51.3344H264.694V50.4321H265.746V48.8257Z" fill="#4482F0"/>
<path d="M203.674 43.435C203.69 43.1593 203.479 42.9231 203.203 42.9075L198.711 42.6532C198.435 42.6376 198.199 42.8485 198.183 43.1242C198.167 43.3999 198.378 43.636 198.654 43.6516L202.648 43.8777L202.422 47.8713C202.406 48.147 202.617 48.3831 202.893 48.3987C203.168 48.4143 203.404 48.2035 203.42 47.9278L203.674 43.435ZM312.406 95.5358C312.601 95.731 312.918 95.731 313.113 95.5358L316.295 92.3538C316.491 92.1585 316.491 91.8419 316.295 91.6467C316.1 91.4514 315.783 91.4514 315.588 91.6467L312.76 94.4751L309.931 91.6467C309.736 91.4514 309.42 91.4514 309.224 91.6467C309.029 91.8419 309.029 92.1585 309.224 92.3538L312.406 95.5358ZM180.483 95.1822C180.483 74.75 189.378 56.396 203.508 43.7797L202.842 43.0337C188.509 55.8317 179.483 74.4533 179.483 95.1822H180.483ZM289.235 43.7797C303.365 56.396 312.26 74.75 312.26 95.1822H313.26C313.26 74.4533 304.235 55.8317 289.901 43.0337L289.235 43.7797Z" fill="#4482F0"/>
<path d="M181.521 310.101C181.326 309.906 181.009 309.906 180.814 310.101L177.632 313.283C177.437 313.479 177.437 313.795 177.632 313.99C177.827 314.186 178.144 314.186 178.339 313.99L181.168 311.162L183.996 313.99C184.191 314.186 184.508 314.186 184.703 313.99C184.898 313.795 184.898 313.479 184.703 313.283L181.521 310.101ZM204.692 361.857C190.562 349.241 181.668 330.887 181.668 310.455L180.668 310.455C180.668 331.184 189.693 349.805 204.026 362.603L204.692 361.857Z" fill="#4482F0"/>
<path d="M310.883 310.101C311.078 309.906 311.394 309.906 311.59 310.101L314.772 313.283C314.967 313.479 314.967 313.795 314.772 313.99C314.576 314.186 314.26 314.186 314.065 313.99L311.236 311.162L308.408 313.99C308.212 314.186 307.896 314.186 307.701 313.99C307.505 313.795 307.505 313.479 307.701 313.283L310.883 310.101ZM287.711 361.857C301.841 349.241 310.736 330.887 310.736 310.455L311.736 310.455C311.736 331.184 302.711 349.805 288.377 362.603L287.711 361.857Z" fill="#4482F0"/>
<defs>
<filter id="filter0_d" x="0.371582" y="47.7751" width="494" height="326.762" filterUnits="userSpaceOnUse" color-interpolation-filters="sRGB">
<feFlood flood-opacity="0" result="BackgroundImageFix"/>
<feColorMatrix in="SourceAlpha" type="matrix" values="0 0 0 0 0 0 0 0 0 0 0 0 0 0 0 0 0 0 127 0"/>
<feOffset dx="1" dy="1"/>
<feGaussianBlur stdDeviation="3.5"/>
<feColorMatrix type="matrix" values="0 0 0 0 0.509804 0 0 0 0 0.509804 0 0 0 0 0.509804 0 0 0 0.15 0"/>
<feBlend mode="normal" in2="BackgroundImageFix" result="effect1_dropShadow"/>
<feBlend mode="normal" in="SourceGraphic" in2="effect1_dropShadow" result="shape"/>
</filter>
</defs>
</svg>
