<svg width="532" height="281" viewBox="0 0 532 281" fill="none" xmlns="http://www.w3.org/2000/svg">
<rect x="0.5" y="0.867188" width="531" height="279" rx="7.5" fill="white" stroke="#E0E0E0"/>
<path d="M168.242 171.327H170.34V181.733C170.34 183.382 169.805 184.655 168.734 185.554C167.672 186.452 166.258 186.901 164.492 186.901C162.727 186.901 161.328 186.452 160.297 185.554C159.266 184.647 158.75 183.374 158.75 181.733V171.327H160.836V181.733C160.836 182.874 161.156 183.749 161.797 184.358C162.445 184.968 163.34 185.272 164.48 185.272C165.621 185.272 166.531 184.968 167.211 184.358C167.898 183.749 168.242 182.874 168.242 181.733V171.327ZM175.801 179.729V186.655H173.727V171.304H175.801V178.089H177.406L182.902 171.304H185.199L185.234 171.351L179.27 178.722L185.668 186.597L185.633 186.655H183.16L177.594 179.729H175.801ZM192.84 181.183C192.84 179.315 193.234 177.827 194.023 176.718C194.812 175.608 195.891 175.054 197.258 175.054C198.625 175.054 199.676 175.538 200.41 176.507V170.226H202.496V186.679H200.797L200.551 185.272C199.793 186.358 198.715 186.901 197.316 186.901C195.918 186.901 194.824 186.405 194.035 185.413C193.246 184.413 192.852 183.077 192.852 181.405L192.84 181.183ZM194.938 181.183V181.405C194.938 182.601 195.176 183.534 195.652 184.206C196.137 184.878 196.863 185.214 197.832 185.214C199.004 185.214 199.871 184.679 200.434 183.608V178.288C199.855 177.257 198.996 176.741 197.855 176.741C196.879 176.741 196.148 177.14 195.664 177.937C195.18 178.726 194.938 179.808 194.938 181.183ZM212.609 179.565C212.609 178.706 212.387 178.015 211.941 177.491C211.496 176.96 210.855 176.694 210.02 176.694C209.332 176.694 208.738 176.983 208.238 177.562C207.746 178.14 207.441 178.878 207.324 179.776L207.348 179.835H212.609V179.565ZM210.336 186.901C208.75 186.901 207.484 186.378 206.539 185.331C205.602 184.284 205.133 182.905 205.133 181.194V180.726C205.133 179.124 205.609 177.78 206.562 176.694C207.523 175.601 208.676 175.054 210.02 175.054C211.535 175.054 212.691 175.511 213.488 176.425C214.293 177.331 214.695 178.577 214.695 180.163V181.464H207.289L207.254 181.511C207.277 182.636 207.559 183.546 208.098 184.241C208.645 184.929 209.391 185.272 210.336 185.272C211.664 185.272 212.742 184.897 213.57 184.147L214.391 185.495H214.379C213.426 186.433 212.078 186.901 210.336 186.901ZM217.051 175.241H218.902L219.055 176.94C219.844 175.667 220.973 175.03 222.441 175.03C223.691 175.03 224.648 175.397 225.312 176.132C225.977 176.858 226.309 177.964 226.309 179.448V186.655H224.234V179.495C224.234 178.503 224.039 177.792 223.648 177.362C223.258 176.933 222.648 176.718 221.82 176.718C221.227 176.718 220.699 176.858 220.238 177.14C219.777 177.421 219.406 177.819 219.125 178.335V186.655H217.051V175.241ZM229.988 172.511H232.086V175.265H234.242V176.812H232.086V183.737C232.086 184.706 232.488 185.19 233.293 185.19C233.543 185.19 233.801 185.144 234.066 185.05L234.336 186.468C233.961 186.757 233.434 186.901 232.754 186.901C231.879 186.901 231.199 186.64 230.715 186.116C230.23 185.593 229.988 184.8 229.988 183.737V176.812H228.184V175.265H229.988V172.511ZM239.047 175.241V186.655H236.973V175.241H239.047ZM239.047 170.202V172.323H236.973V170.202H239.047ZM246.488 185.249C247.223 185.249 247.801 185.104 248.223 184.815C248.645 184.519 248.855 184.128 248.855 183.644C248.855 183.159 248.676 182.776 248.316 182.495C247.957 182.206 247.305 181.952 246.359 181.733C244.922 181.421 243.863 181.007 243.184 180.491C242.512 179.968 242.176 179.249 242.176 178.335C242.176 177.421 242.574 176.644 243.371 176.003C244.168 175.354 245.207 175.03 246.488 175.03C247.77 175.03 248.805 175.37 249.594 176.05C250.391 176.722 250.77 177.558 250.73 178.558L250.707 178.616H248.727C248.727 178.093 248.512 177.64 248.082 177.257C247.66 176.874 247.102 176.683 246.406 176.683C245.719 176.683 245.188 176.839 244.812 177.151C244.438 177.456 244.25 177.847 244.25 178.323C244.25 178.8 244.414 179.163 244.742 179.413C245.07 179.663 245.715 179.89 246.676 180.093C248.145 180.413 249.223 180.843 249.91 181.382C250.598 181.913 250.941 182.62 250.941 183.503C250.941 184.519 250.531 185.339 249.711 185.964C248.898 186.589 247.805 186.901 246.43 186.901C245.055 186.901 243.941 186.542 243.09 185.823C242.246 185.104 241.844 184.233 241.883 183.21L241.906 183.151H243.887C243.926 183.854 244.188 184.386 244.672 184.745C245.164 185.097 245.777 185.272 246.512 185.272L246.488 185.249ZM254.199 172.511H256.297V175.265H258.453V176.812H256.297V183.737C256.297 184.706 256.699 185.19 257.504 185.19C257.754 185.19 258.012 185.144 258.277 185.05L258.547 186.468C258.172 186.757 257.645 186.901 256.965 186.901C256.09 186.901 255.41 186.64 254.926 186.116C254.441 185.593 254.199 184.8 254.199 183.737V176.812H252.395V175.265H254.199V172.511ZM265.262 185.249C265.996 185.249 266.574 185.104 266.996 184.815C267.418 184.519 267.629 184.128 267.629 183.644C267.629 183.159 267.449 182.776 267.09 182.495C266.73 182.206 266.078 181.952 265.133 181.733C263.695 181.421 262.637 181.007 261.957 180.491C261.285 179.968 260.949 179.249 260.949 178.335C260.949 177.421 261.348 176.644 262.145 176.003C262.941 175.354 263.98 175.03 265.262 175.03C266.543 175.03 267.578 175.37 268.367 176.05C269.164 176.722 269.543 177.558 269.504 178.558L269.48 178.616H267.5C267.5 178.093 267.285 177.64 266.855 177.257C266.434 176.874 265.875 176.683 265.18 176.683C264.492 176.683 263.961 176.839 263.586 177.151C263.211 177.456 263.023 177.847 263.023 178.323C263.023 178.8 263.188 179.163 263.516 179.413C263.844 179.663 264.488 179.89 265.449 180.093C266.918 180.413 267.996 180.843 268.684 181.382C269.371 181.913 269.715 182.62 269.715 183.503C269.715 184.519 269.305 185.339 268.484 185.964C267.672 186.589 266.578 186.901 265.203 186.901C263.828 186.901 262.715 186.542 261.863 185.823C261.02 185.104 260.617 184.233 260.656 183.21L260.68 183.151H262.66C262.699 183.854 262.961 184.386 263.445 184.745C263.938 185.097 264.551 185.272 265.285 185.272L265.262 185.249ZM280.484 186.667H278.41V175.253H280.262L280.461 176.917C281.156 175.659 282.102 175.03 283.297 175.03C283.578 175.03 283.844 175.069 284.094 175.147L283.812 177.093L282.746 177.022C281.676 177.022 280.922 177.519 280.484 178.511V186.667ZM292.812 179.565C292.812 178.706 292.59 178.015 292.145 177.491C291.699 176.96 291.059 176.694 290.223 176.694C289.535 176.694 288.941 176.983 288.441 177.562C287.949 178.14 287.645 178.878 287.527 179.776L287.551 179.835H292.812V179.565ZM290.539 186.901C288.953 186.901 287.688 186.378 286.742 185.331C285.805 184.284 285.336 182.905 285.336 181.194V180.726C285.336 179.124 285.812 177.78 286.766 176.694C287.727 175.601 288.879 175.054 290.223 175.054C291.738 175.054 292.895 175.511 293.691 176.425C294.496 177.331 294.898 178.577 294.898 180.163V181.464H287.492L287.457 181.511C287.48 182.636 287.762 183.546 288.301 184.241C288.848 184.929 289.594 185.272 290.539 185.272C291.867 185.272 292.945 184.897 293.773 184.147L294.594 185.495H294.582C293.629 186.433 292.281 186.901 290.539 186.901ZM296.797 181.897V181.675C296.797 179.808 297.199 178.319 298.004 177.21C298.809 176.101 299.918 175.546 301.332 175.546C302.754 175.546 303.844 176.112 304.602 177.245L304.859 175.757H306.512V187.229C306.512 188.698 306.086 189.823 305.234 190.604C304.391 191.386 303.164 191.776 301.555 191.776C301 191.776 300.406 191.698 299.773 191.542C299.141 191.394 298.582 191.19 298.098 190.933L298.625 189.315C299 189.526 299.449 189.698 299.973 189.831C300.504 189.964 301.023 190.03 301.531 190.03C302.539 190.03 303.273 189.804 303.734 189.351C304.203 188.897 304.438 188.19 304.438 187.229V185.94C303.68 186.909 302.617 187.394 301.25 187.394C299.891 187.394 298.809 186.894 298.004 185.894C297.199 184.886 296.797 183.554 296.797 181.897ZM298.871 181.675V181.897C298.871 183.077 299.117 184.007 299.609 184.687C300.109 185.366 300.844 185.706 301.812 185.706C303 185.706 303.879 185.159 304.449 184.065V178.815C303.855 177.761 302.984 177.233 301.836 177.233C300.867 177.233 300.129 177.636 299.621 178.44C299.121 179.237 298.871 180.315 298.871 181.675ZM311.773 175.241V186.655H309.699V175.241H311.773ZM311.773 170.202V172.323H309.699V170.202H311.773ZM319.215 185.249C319.949 185.249 320.527 185.104 320.949 184.815C321.371 184.519 321.582 184.128 321.582 183.644C321.582 183.159 321.402 182.776 321.043 182.495C320.684 182.206 320.031 181.952 319.086 181.733C317.648 181.421 316.59 181.007 315.91 180.491C315.238 179.968 314.902 179.249 314.902 178.335C314.902 177.421 315.301 176.644 316.098 176.003C316.895 175.354 317.934 175.03 319.215 175.03C320.496 175.03 321.531 175.37 322.32 176.05C323.117 176.722 323.496 177.558 323.457 178.558L323.434 178.616H321.453C321.453 178.093 321.238 177.64 320.809 177.257C320.387 176.874 319.828 176.683 319.133 176.683C318.445 176.683 317.914 176.839 317.539 177.151C317.164 177.456 316.977 177.847 316.977 178.323C316.977 178.8 317.141 179.163 317.469 179.413C317.797 179.663 318.441 179.89 319.402 180.093C320.871 180.413 321.949 180.843 322.637 181.382C323.324 181.913 323.668 182.62 323.668 183.503C323.668 184.519 323.258 185.339 322.438 185.964C321.625 186.589 320.531 186.901 319.156 186.901C317.781 186.901 316.668 186.542 315.816 185.823C314.973 185.104 314.57 184.233 314.609 183.21L314.633 183.151H316.613C316.652 183.854 316.914 184.386 317.398 184.745C317.891 185.097 318.504 185.272 319.238 185.272L319.215 185.249ZM326.926 172.511H329.023V175.265H331.18V176.812H329.023V183.737C329.023 184.706 329.426 185.19 330.23 185.19C330.48 185.19 330.738 185.144 331.004 185.05L331.273 186.468C330.898 186.757 330.371 186.901 329.691 186.901C328.816 186.901 328.137 186.64 327.652 186.116C327.168 185.593 326.926 184.8 326.926 183.737V176.812H325.121V175.265H326.926V172.511ZM340.742 179.565C340.742 178.706 340.52 178.015 340.074 177.491C339.629 176.96 338.988 176.694 338.152 176.694C337.465 176.694 336.871 176.983 336.371 177.562C335.879 178.14 335.574 178.878 335.457 179.776L335.48 179.835H340.742V179.565ZM338.469 186.901C336.883 186.901 335.617 186.378 334.672 185.331C333.734 184.284 333.266 182.905 333.266 181.194V180.726C333.266 179.124 333.742 177.78 334.695 176.694C335.656 175.601 336.809 175.054 338.152 175.054C339.668 175.054 340.824 175.511 341.621 176.425C342.426 177.331 342.828 178.577 342.828 180.163V181.464H335.422L335.387 181.511C335.41 182.636 335.691 183.546 336.23 184.241C336.777 184.929 337.523 185.272 338.469 185.272C339.797 185.272 340.875 184.897 341.703 184.147L342.523 185.495H342.512C341.559 186.433 340.211 186.901 338.469 186.901ZM347.258 186.667H345.184V175.253H347.035L347.234 176.917C347.93 175.659 348.875 175.03 350.07 175.03C350.352 175.03 350.617 175.069 350.867 175.147L350.586 177.093L349.52 177.022C348.449 177.022 347.695 177.519 347.258 178.511V186.667ZM359.586 179.565C359.586 178.706 359.363 178.015 358.918 177.491C358.473 176.96 357.832 176.694 356.996 176.694C356.309 176.694 355.715 176.983 355.215 177.562C354.723 178.14 354.418 178.878 354.301 179.776L354.324 179.835H359.586V179.565ZM357.312 186.901C355.727 186.901 354.461 186.378 353.516 185.331C352.578 184.284 352.109 182.905 352.109 181.194V180.726C352.109 179.124 352.586 177.78 353.539 176.694C354.5 175.601 355.652 175.054 356.996 175.054C358.512 175.054 359.668 175.511 360.465 176.425C361.27 177.331 361.672 178.577 361.672 180.163V181.464H354.266L354.23 181.511C354.254 182.636 354.535 183.546 355.074 184.241C355.621 184.929 356.367 185.272 357.312 185.272C358.641 185.272 359.719 184.897 360.547 184.147L361.367 185.495H361.355C360.402 186.433 359.055 186.901 357.312 186.901ZM363.535 181.183C363.535 179.315 363.93 177.827 364.719 176.718C365.508 175.608 366.586 175.054 367.953 175.054C369.32 175.054 370.371 175.538 371.105 176.507V170.226H373.191V186.679H371.492L371.246 185.272C370.488 186.358 369.41 186.901 368.012 186.901C366.613 186.901 365.52 186.405 364.73 185.413C363.941 184.413 363.547 183.077 363.547 181.405L363.535 181.183ZM365.633 181.183V181.405C365.633 182.601 365.871 183.534 366.348 184.206C366.832 184.878 367.559 185.214 368.527 185.214C369.699 185.214 370.566 184.679 371.129 183.608V178.288C370.551 177.257 369.691 176.741 368.551 176.741C367.574 176.741 366.844 177.14 366.359 177.937C365.875 178.726 365.633 179.808 365.633 181.183Z" fill="#4482F0"/>
<path d="M250.348 119.381C250.348 122.085 249.481 124.269 247.748 125.933C246.049 127.597 243.449 128.429 239.948 128.429C237.937 128.429 236.273 128.169 234.956 127.649C233.639 127.095 232.581 126.401 231.784 125.569C231.021 124.703 230.467 123.749 230.12 122.709C229.808 121.669 229.652 120.647 229.652 119.641C229.652 117.804 230.155 116.175 231.16 114.753C232.165 113.332 233.361 112.188 234.748 111.321C231.801 109.657 230.328 107.109 230.328 103.677C230.328 102.499 230.553 101.372 231.004 100.297C231.455 99.2228 232.096 98.2868 232.928 97.4894C233.76 96.6921 234.765 96.0508 235.944 95.5654C237.157 95.0801 238.509 94.8374 240 94.8374C241.733 94.8374 243.207 95.0974 244.42 95.6174C245.668 96.1374 246.673 96.8134 247.436 97.6454C248.199 98.4427 248.753 99.3441 249.1 100.349C249.447 101.32 249.62 102.273 249.62 103.209C249.62 105.047 249.152 106.641 248.216 107.993C247.28 109.311 246.205 110.368 244.992 111.165C248.563 112.864 250.348 115.603 250.348 119.381ZM233.812 119.693C233.812 120.248 233.916 120.837 234.124 121.461C234.332 122.051 234.679 122.605 235.164 123.125C235.649 123.645 236.291 124.079 237.088 124.425C237.885 124.737 238.856 124.893 240 124.893C241.075 124.893 241.993 124.755 242.756 124.477C243.553 124.165 244.195 123.767 244.68 123.281C245.2 122.761 245.581 122.189 245.824 121.565C246.067 120.941 246.188 120.317 246.188 119.693C246.188 117.717 245.477 116.209 244.056 115.169C242.635 114.095 240.676 113.28 238.18 112.725C236.793 113.488 235.719 114.441 234.956 115.585C234.193 116.729 233.812 118.099 233.812 119.693ZM245.46 103.209C245.46 102.759 245.356 102.256 245.148 101.701C244.94 101.112 244.611 100.592 244.16 100.141C243.744 99.6561 243.189 99.2574 242.496 98.9454C241.803 98.5988 240.971 98.4254 240 98.4254C238.995 98.4254 238.145 98.5814 237.452 98.8934C236.793 99.2054 236.239 99.6041 235.788 100.089C235.337 100.54 235.008 101.06 234.8 101.649C234.627 102.204 234.54 102.759 234.54 103.313C234.54 104.735 235.043 106.069 236.048 107.317C237.088 108.531 238.787 109.415 241.144 109.969C242.461 109.207 243.501 108.305 244.264 107.265C245.061 106.225 245.46 104.873 245.46 103.209ZM264.024 124.633C266.763 124.633 268.704 124.096 269.848 123.021C271.027 121.912 271.616 120.439 271.616 118.601C271.616 117.423 271.373 116.435 270.888 115.637C270.403 114.84 269.761 114.199 268.964 113.713C268.167 113.228 267.248 112.881 266.208 112.673C265.168 112.465 264.076 112.361 262.932 112.361H261.84V108.877H263.348C264.111 108.877 264.891 108.808 265.688 108.669C266.52 108.496 267.265 108.219 267.924 107.837C268.617 107.421 269.172 106.867 269.588 106.173C270.004 105.48 270.212 104.596 270.212 103.521C270.212 101.753 269.657 100.505 268.548 99.7774C267.473 99.0148 266.208 98.6334 264.752 98.6334C263.261 98.6334 261.996 98.8588 260.956 99.3094C259.916 99.7254 259.049 100.159 258.356 100.609L256.692 97.3334C257.42 96.8134 258.512 96.2761 259.968 95.7214C261.459 95.1321 263.105 94.8374 264.908 94.8374C266.607 94.8374 268.063 95.0454 269.276 95.4614C270.489 95.8774 271.477 96.4668 272.24 97.2294C273.037 97.9921 273.627 98.8934 274.008 99.9334C274.389 100.939 274.58 102.048 274.58 103.261C274.58 104.96 274.129 106.399 273.228 107.577C272.361 108.756 271.235 109.657 269.848 110.281C271.512 110.767 272.951 111.72 274.164 113.141C275.377 114.528 275.984 116.383 275.984 118.705C275.984 120.092 275.741 121.392 275.256 122.605C274.805 123.784 274.095 124.807 273.124 125.673C272.188 126.54 270.957 127.216 269.432 127.701C267.941 128.187 266.156 128.429 264.076 128.429C263.279 128.429 262.447 128.36 261.58 128.221C260.748 128.117 259.968 127.961 259.24 127.753C258.512 127.58 257.853 127.407 257.264 127.233C256.709 127.025 256.311 126.869 256.068 126.765L256.9 123.073C257.455 123.351 258.339 123.68 259.552 124.061C260.765 124.443 262.256 124.633 264.024 124.633ZM282.9 102.221C284.668 101.528 286.384 100.661 288.048 99.6214C289.712 98.5468 291.255 97.1948 292.676 95.5654H295.692V124.113H301.776V127.753H284.46V124.113H291.428V101.545C291.047 101.892 290.579 102.256 290.024 102.637C289.504 102.984 288.915 103.331 288.256 103.677C287.632 104.024 286.973 104.353 286.28 104.665C285.587 104.977 284.911 105.237 284.252 105.445L282.9 102.221Z" fill="#4F4F4F"/>
</svg>
