<?xml version="1.0" encoding="UTF-8"?>
<svg fill="none" viewBox="0 0 371 521" xmlns="http://www.w3.org/2000/svg">
<g filter="url(#f)">
<path d="m7.0112 16.766c0-5.0075 4.0594-9.0669 9.0669-9.0669h336.77c5.008 0 9.067 4.0594 9.067 9.0669v485.17c0 5.008-4.059 9.067-9.067 9.067h-336.77c-5.0075 0-9.0669-4.059-9.0669-9.067v-485.17z" fill="#FEFEFE"/>
</g>
<path d="m56.824 188.71v0.848h-3.6512v3.542h-1.0807v-7.999h5.2936v0.849h-4.2129v2.76h3.6512zm2.7902-1.557v5.947h-1.0807v-5.947h1.0807zm0-2.626v1.105h-1.0807v-1.105h1.0807zm1.6668 2.626h0.9647l0.0794 0.885c0.4111-0.663 0.9992-0.995 1.7645-0.995 0.6512 0 1.1499 0.191 1.4958 0.574 0.346 0.378 0.519 0.954 0.519 1.728v3.755h-1.0807v-3.731c0-0.517-0.1017-0.887-0.3052-1.111-0.2036-0.224-0.5211-0.336-0.9525-0.336-0.3094 0-0.5841 0.073-0.8243 0.22-0.2401 0.146-0.4335 0.354-0.58 0.623v4.335h-1.0807v-5.947zm6.1422 3.095c0-0.973 0.2056-1.748 0.6167-2.326s0.9728-0.867 1.6851-0.867 1.2598 0.252 1.6424 0.757v-3.272h1.0868v8.572h-0.8853l-0.1282-0.733c-0.3948 0.566-0.9566 0.849-1.6852 0.849s-1.2984-0.259-1.7095-0.776c-0.4111-0.521-0.6167-1.217-0.6167-2.088l-0.0061-0.116zm1.0929 0v0.116c0 0.623 0.1242 1.109 0.3725 1.459 0.2523 0.351 0.6309 0.526 1.1356 0.526 0.6105 0 1.0624-0.279 1.3554-0.837v-2.772c-0.3012-0.537-0.7489-0.806-1.3432-0.806-0.5088 0-0.8894 0.208-1.1417 0.623-0.2524 0.411-0.3786 0.975-0.3786 1.691zm6.7284-3.095v5.947h-1.0807v-5.947h1.0807zm0-2.626v1.105h-1.0807v-1.105h1.0807zm1.6668 2.626h0.9646l0.0794 0.885c0.4111-0.663 0.9993-0.995 1.7645-0.995 0.6513 0 1.1499 0.191 1.4959 0.574 0.346 0.378 0.519 0.954 0.519 1.728v3.755h-1.0807v-3.731c0-0.517-0.1018-0.887-0.3053-1.111s-0.521-0.336-0.9525-0.336c-0.3093 0-0.5841 0.073-0.8242 0.22-0.2402 0.146-0.4335 0.354-0.58 0.623v4.335h-1.0807v-5.947zm6.1605 3.468v-0.116c0-0.973 0.2096-1.749 0.6289-2.327 0.4192-0.578 0.9972-0.867 1.7339-0.867 0.7408 0 1.3087 0.296 1.7035 0.886l0.1343-0.776h0.8609v5.978c0 0.765-0.2218 1.351-0.6655 1.758-0.4396 0.407-1.0787 0.611-1.9172 0.611-0.2889 0-0.5983-0.041-0.928-0.122-0.3297-0.078-0.6207-0.184-0.8731-0.318l0.2748-0.843c0.1953 0.11 0.4294 0.2 0.7021 0.269 0.2768 0.069 0.5475 0.104 0.812 0.104 0.5251 0 0.9077-0.118 1.1479-0.354 0.2442-0.236 0.3663-0.605 0.3663-1.105v-0.672c-0.3948 0.505-0.9484 0.757-1.6607 0.757-0.7082 0-1.272-0.26-1.6912-0.781-0.4193-0.525-0.6289-1.219-0.6289-2.082zm1.0807-0.116v0.116c0 0.614 0.1282 1.099 0.3846 1.453 0.2605 0.354 0.6431 0.531 1.1479 0.531 0.6187 0 1.0766-0.285 1.3737-0.855v-2.735c-0.3093-0.55-0.7632-0.824-1.3615-0.824-0.5047 0-0.8894 0.209-1.154 0.629-0.2605 0.415-0.3907 0.976-0.3907 1.685zm7.7663 1.862c0.3826 0 0.6838-0.075 0.9036-0.226 0.2198-0.155 0.3297-0.358 0.3297-0.611 0-0.252-0.0936-0.451-0.2809-0.598-0.1872-0.151-0.5271-0.283-1.0196-0.397-0.749-0.163-1.3005-0.378-1.6546-0.647-0.3501-0.273-0.5251-0.647-0.5251-1.123 0-0.477 0.2076-0.882 0.6228-1.215 0.4151-0.338 0.9565-0.507 1.6241-0.507 0.6675 0 1.2068 0.177 1.6179 0.531 0.4152 0.35 0.6126 0.786 0.5923 1.307l-0.0122 0.03h-1.0319c0-0.273-0.1119-0.509-0.3358-0.708-0.2198-0.2-0.5108-0.299-0.8731-0.299-0.3582 0-0.635 0.081-0.8303 0.244-0.1954 0.159-0.2931 0.362-0.2931 0.61 0 0.249 0.0855 0.438 0.2564 0.568 0.171 0.131 0.5068 0.249 1.0074 0.354 0.7653 0.167 1.327 0.391 1.6852 0.672 0.3582 0.277 0.5373 0.645 0.5373 1.105 0 0.529-0.2137 0.957-0.6411 1.282-0.4233 0.326-0.9932 0.489-1.7096 0.489s-1.2964-0.187-1.7401-0.562c-0.4396-0.374-0.6492-0.828-0.6288-1.362l0.0122-0.03h1.0318c0.0204 0.366 0.1567 0.643 0.4091 0.83 0.2564 0.183 0.5759 0.275 0.9586 0.275l-0.0122-0.012zm8.3827 0.733h-1.0866v-5.141h-0.9341v-0.806h0.9341v-0.751c0-0.635 0.1628-1.126 0.4884-1.472 0.3302-0.346 0.7942-0.519 1.3922-0.519 0.208 0 0.476 0.039 0.806 0.116l-0.134 0.825c-0.155-0.037-0.332-0.055-0.532-0.055-0.622 0-0.934 0.368-0.934 1.105v0.751h1.234v0.806h-1.234v5.141zm3.432 6e-3h-1.081v-5.947h0.965l0.103 0.867c0.363-0.656 0.855-0.983 1.478-0.983 0.146 0 0.285 0.02 0.415 0.061l-0.146 1.013-0.556-0.036c-0.558 0-0.951 0.258-1.178 0.775v4.25zm3.498-3.023v0.122c0 0.66 0.134 1.187 0.403 1.582 0.273 0.395 0.663 0.592 1.172 0.592s0.9-0.197 1.173-0.592c0.272-0.399 0.409-0.926 0.409-1.582v-0.122c0-0.647-0.139-1.17-0.416-1.569-0.272-0.403-0.663-0.604-1.172-0.604-0.505 0-0.893 0.201-1.166 0.604-0.269 0.399-0.403 0.922-0.403 1.569zm-1.087 0.122v-0.122c0-0.895 0.24-1.624 0.721-2.185 0.48-0.562 1.127-0.843 1.941-0.843s1.462 0.281 1.942 0.843c0.48 0.557 0.72 1.286 0.72 2.185v0.122c0 0.904-0.24 1.635-0.72 2.192-0.476 0.554-1.124 0.831-1.942 0.831-0.814 0-1.461-0.279-1.941-0.837-0.481-0.557-0.721-1.286-0.721-2.186zm7.736 2.895h-1.075v-5.947h0.965l0.079 0.781c0.407-0.594 1.01-0.891 1.808-0.891 0.802 0 1.345 0.366 1.63 1.099 0.411-0.733 1.017-1.099 1.819-1.099 0.623 0 1.105 0.211 1.447 0.635 0.342 0.419 0.513 1.042 0.513 1.868v3.554h-1.08v-3.566c0-0.574-0.098-0.985-0.294-1.233-0.195-0.253-0.488-0.379-0.879-0.379-0.386 0-0.696 0.126-0.928 0.379-0.228 0.248-0.362 0.573-0.403 0.976v3.823h-1.093v-3.566c0-0.554-0.101-0.961-0.305-1.221-0.199-0.261-0.499-0.391-0.897-0.391-0.627 0-1.063 0.258-1.307 0.775v4.403zm13.017 6e-3h-1.081v-5.947h0.965l0.104 0.867c0.362-0.656 0.855-0.983 1.477-0.983 0.147 0 0.285 0.02 0.416 0.061l-0.147 1.013-0.556-0.036c-0.557 0-0.95 0.258-1.178 0.775v4.25zm4.469 0.122c-0.618 0-1.091-0.157-1.416-0.47-0.326-0.314-0.489-0.753-0.489-1.319s0.228-1.01 0.684-1.331c0.456-0.322 1.083-0.483 1.881-0.483h1.172v-0.586c0-0.35-0.108-0.624-0.324-0.824-0.211-0.203-0.5-0.305-0.867-0.305-0.362 0-0.653 0.087-0.873 0.262-0.219 0.171-0.329 0.385-0.329 0.641h-1.032l-0.012-0.03c-0.021-0.448 0.187-0.847 0.622-1.197 0.44-0.354 0.998-0.531 1.673-0.531 0.68 0 1.221 0.175 1.624 0.525 0.403 0.346 0.605 0.837 0.605 1.472v2.863c0 0.46 0.051 0.859 0.152 1.197h-1.117c-0.077-0.379-0.118-0.676-0.122-0.892-0.212 0.302-0.48 0.546-0.806 0.733-0.322 0.183-0.663 0.275-1.026 0.275zm-0.812-1.765h-6e-3c0 0.269 0.084 0.479 0.251 0.629 0.166 0.151 0.425 0.226 0.775 0.226s0.684-0.098 1.001-0.293c0.322-0.199 0.531-0.432 0.629-0.696v-0.971h-1.209c-0.431 0-0.779 0.108-1.044 0.324-0.264 0.211-0.397 0.472-0.397 0.781zm5.056-1.215c0-0.973 0.205-1.748 0.616-2.326s0.973-0.867 1.685-0.867c0.713 0 1.26 0.252 1.643 0.757v-3.272h1.087v8.572h-0.886l-0.128-0.733c-0.395 0.566-0.956 0.849-1.685 0.849s-1.298-0.259-1.71-0.776c-0.411-0.521-0.616-1.217-0.616-2.088l-6e-3 -0.116zm1.093 0v0.116c0 0.623 0.124 1.109 0.372 1.459 0.252 0.351 0.631 0.526 1.136 0.526 0.61 0 1.062-0.279 1.355-0.837v-2.772c-0.301-0.537-0.749-0.806-1.343-0.806-0.509 0-0.89 0.208-1.142 0.623-0.252 0.411-0.378 0.975-0.378 1.691zm6.728-3.095v5.947h-1.081v-5.947h1.081zm0-2.626v1.105h-1.081v-1.105h1.081zm2.497 5.556v0.122c0 0.66 0.134 1.187 0.403 1.582 0.273 0.395 0.664 0.592 1.172 0.592 0.509 0 0.9-0.197 1.173-0.592 0.272-0.399 0.409-0.926 0.409-1.582v-0.122c0-0.647-0.139-1.17-0.416-1.569-0.272-0.403-0.663-0.604-1.172-0.604-0.505 0-0.893 0.201-1.166 0.604-0.269 0.399-0.403 0.922-0.403 1.569zm-1.087 0.122v-0.122c0-0.895 0.24-1.624 0.721-2.185 0.48-0.562 1.127-0.843 1.941-0.843s1.462 0.281 1.942 0.843c0.48 0.557 0.72 1.286 0.72 2.185v0.122c0 0.904-0.24 1.635-0.72 2.192-0.476 0.554-1.124 0.831-1.942 0.831-0.814 0-1.461-0.279-1.941-0.837-0.481-0.557-0.721-1.286-0.721-2.186zm6.417 0.416v-0.116c0-0.973 0.21-1.749 0.629-2.327s0.997-0.867 1.734-0.867c0.741 0 1.309 0.296 1.704 0.886l0.134-0.776h0.861v5.978c0 0.765-0.222 1.351-0.666 1.758-0.439 0.407-1.078 0.611-1.917 0.611-0.289 0-0.598-0.041-0.928-0.122-0.33-0.078-0.621-0.184-0.873-0.318l0.275-0.843c0.195 0.11 0.429 0.2 0.702 0.269 0.277 0.069 0.547 0.104 0.812 0.104 0.525 0 0.908-0.118 1.148-0.354 0.244-0.236 0.366-0.605 0.366-1.105v-0.672c-0.395 0.505-0.948 0.757-1.661 0.757-0.708 0-1.272-0.26-1.691-0.781-0.419-0.525-0.629-1.219-0.629-2.082zm1.081-0.116v0.116c0 0.614 0.128 1.099 0.385 1.453 0.26 0.354 0.643 0.531 1.147 0.531 0.619 0 1.077-0.285 1.374-0.855v-2.735c-0.309-0.55-0.763-0.824-1.361-0.824-0.505 0-0.89 0.209-1.154 0.629-0.261 0.415-0.391 0.976-0.391 1.685zm6.637 2.601h-1.081v-5.947h0.965l0.103 0.867c0.363-0.656 0.855-0.983 1.478-0.983 0.147 0 0.285 0.02 0.415 0.061l-0.146 1.013-0.556-0.036c-0.558 0-0.95 0.258-1.178 0.775v4.25zm4.469 0.122c-0.619 0-1.091-0.157-1.417-0.47-0.325-0.314-0.488-0.753-0.488-1.319s0.228-1.01 0.684-1.331c0.456-0.322 1.083-0.483 1.88-0.483h1.173v-0.586c0-0.35-0.108-0.624-0.324-0.824-0.212-0.203-0.501-0.305-0.867-0.305-0.362 0-0.653 0.087-0.873 0.262-0.22 0.171-0.33 0.385-0.33 0.641h-1.032l-0.012-0.03c-0.02-0.448 0.187-0.847 0.623-1.197 0.44-0.354 0.997-0.531 1.673-0.531 0.68 0 1.221 0.175 1.624 0.525 0.403 0.346 0.604 0.837 0.604 1.472v2.863c0 0.46 0.051 0.859 0.153 1.197h-1.117c-0.078-0.379-0.118-0.676-0.122-0.892-0.212 0.302-0.481 0.546-0.806 0.733-0.322 0.183-0.664 0.275-1.026 0.275zm-0.812-1.765h-6e-3c0 0.269 0.083 0.479 0.25 0.629 0.167 0.151 0.426 0.226 0.776 0.226s0.683-0.098 1.001-0.293c0.321-0.199 0.531-0.432 0.629-0.696v-0.971h-1.209c-0.432 0-0.78 0.108-1.044 0.324-0.265 0.211-0.397 0.472-0.397 0.781zm10.379-0.971v0.116c0 0.867-0.207 1.561-0.622 2.082-0.411 0.517-0.977 0.776-1.698 0.776-0.72 0-1.276-0.244-1.667-0.733v2.906h-1.08v-8.23h0.83l0.171 0.769c0.395-0.586 0.965-0.879 1.71-0.879 0.749 0 1.329 0.289 1.74 0.867 0.411 0.574 0.616 1.35 0.616 2.326zm-1.086 0.116v-0.116c0-0.7-0.137-1.259-0.409-1.679-0.269-0.423-0.656-0.635-1.161-0.635-0.598 0-1.042 0.263-1.331 0.788v2.876c0.285 0.521 0.733 0.781 1.344 0.781 0.5 0 0.885-0.183 1.154-0.549 0.268-0.367 0.403-0.855 0.403-1.466zm3.498-6.081v3.426c0.427-0.607 1.01-0.91 1.746-0.91 0.652 0 1.15 0.193 1.496 0.58s0.519 0.971 0.519 1.752v3.725h-1.087v-3.737c0-0.493-0.103-0.855-0.311-1.087-0.208-0.236-0.523-0.354-0.946-0.354-0.603 0-1.075 0.263-1.417 0.788v4.39h-1.081v-8.573h1.081zm6.301 7.571v1.002h-0.971v-1.002h0.971zm0-4.811v1.001h-0.971v-1.001h0.971z" fill="#333"/>
<rect x="191.73" y="179.97" width="53.485" height="18.739" rx="9.3693" fill="#4482F0"/>
<rect x="251.01" y="179.97" width="53.485" height="18.739" rx="9.3693" fill="#4482F0"/>
<rect x="24.615" y="26.379" width="101.07" height="110.05" rx="4.5578" fill="#828282"/>
<path d="m84.356 84.205c-0.2137 0-0.4291-0.0261-0.6428-0.0786-0.9294-0.2324-1.6678-0.9444-1.9282-1.8626-1.8456-6.5207-4.7593-11.629-6.6353-11.629-1.8756 0-4.7893 5.1082-6.6353 11.629-0.2603 0.9182-0.9988 1.6302-1.9281 1.8626-0.9294 0.2248-1.9113-0.0561-2.5672-0.7421-3.3466-3.5004-3.1574-10.089-3.1234-10.827-2e-3 -1.8045 0.3916-4.1373 1.1712-6.8451 0.2923-1.0194 0.0975-2.1154-0.5378-3.0072-0.1387-0.1948-0.2718-0.3896-0.3991-0.5848-1.8606-2.8405-2.8445-6.2323-2.8445-9.8093v-1.6413c0-6.0825 6.3409-7.6883 9.6951-7.6883 3.2906 0 5.7226 1.5758 7.1691 2.8745 1.4466-1.2984 3.8789-2.8745 7.1691-2.8745 3.3542 0 9.6951 1.6058 9.6951 7.6899v1.6413c0 3.577-0.9839 6.9687-2.8445 9.8093-0.1257 0.1928-0.2584 0.388-0.3971 0.5828-0.6354 0.8937-0.8301 1.9898-0.5378 3.0072 0.7776 2.7078 1.1712 5.0386 1.1712 6.9273 0.03 0.6579 0.2213 7.2442-3.1254 10.744-0.5058 0.5311-1.2063 0.8215-1.9243 0.8215zm-16.375-37.476c-0.2378 2e-3 -5.9473 0.0787-5.9473 3.9426v1.6413c0 2.8464 0.772 5.5277 2.2316 7.7554 0.1031 0.1573 0.2078 0.313 0.3185 0.4686 1.2968 1.8251 1.6919 4.0903 1.083 6.2098-0.6709 2.3403-1.0269 4.3771-1.0269 5.8932-0.0506 1.2478 0.0786 4.1298 0.9688 6.3239 1.6038-4.8268 4.8007-12.074 9.5414-12.074 4.7371 0 7.9336 7.2422 9.5374 12.067 0.8938-2.2166 1.0214-5.1303 0.9724-6.2358-0.0019-1.5983-0.356-3.6351-1.0289-5.9754-0.6088-2.121-0.2137-4.3847 1.085-6.2117 0.1087-0.1537 0.2138-0.3074 0.315-0.4627 1.4635-2.2317 2.2355-4.9129 2.2355-7.7594v-1.6413c0-3.8469-5.6644-3.9406-5.9493-3.9425-3.4834 0.0019-5.6083 2.9136-5.6289 2.9436-0.7009 1.0064-2.3759 1.0064-3.0768 0-0.0782-0.109-2.1431-2.9421-5.6305-2.9421z" fill="#FEFEFE"/>
<path d="m35.802 50.477c-1.0344 0-1.8737-0.8397-1.8737-1.8737v-7.4955c0-1.0344 0.8397-1.8736 1.8737-1.8736h7.495c1.0345 0 1.8737 0.8396 1.8737 1.8736 0 1.0345-0.8396 1.8737-1.8737 1.8737h-5.6213v5.6214c0 1.0344-0.8393 1.8741-1.8737 1.8741z" fill="#FEFEFE"/>
<path d="m114.5 87.952h-7.495c-1.035 0-1.874-0.8397-1.874-1.8737 0-1.0344 0.839-1.8737 1.874-1.8737h5.621v-5.6214c0-1.0344 0.84-1.8736 1.874-1.8736s1.873 0.8396 1.873 1.8736v7.4951c0 1.034-0.839 1.8737-1.873 1.8737z" fill="#FEFEFE"/>
<rect x="33.927" y="115.08" width="24.358" height="3.738" rx="1.869" fill="#FEFEFE"/>
<rect x="33.927" y="123.95" width="24.358" height="3.738" rx="1.869" fill="#FEFEFE"/>
<rect x="70.502" y="114.91" width="45.872" height="12.779" fill="#FEFEFE"/>
<rect x="138.63" y="26.851" width="204.97" height="109.1" rx="7.082" stroke="#E0E0E0" stroke-width=".94426"/>
<path d="m155.9 49.69h-1.842v2.6336h1.698c0.45 0 0.799-0.1088 1.046-0.3264 0.247-0.2213 0.371-0.5422 0.371-0.9627s-0.107-0.7488-0.321-0.9848c-0.21-0.2398-0.528-0.3597-0.952-0.3597zm-1.842-3.0762v2.3127h1.588c0.372 0 0.671-0.1014 0.896-0.3043 0.229-0.2029 0.343-0.4814 0.343-0.8355 0-0.7819-0.479-1.1729-1.438-1.1729h-1.389zm1.698 6.4789h-2.678v-7.248h2.369c0.774 0 1.37 0.166 1.787 0.498 0.42 0.3283 0.63 0.8152 0.63 1.4606 0 0.3209-0.101 0.6087-0.304 0.8632s-0.476 0.4426-0.819 0.5643c0.435 0.0959 0.778 0.3098 1.029 0.6418 0.255 0.3283 0.382 0.7193 0.382 1.173 0 0.6602-0.212 1.1674-0.636 1.5215-0.421 0.3504-1.007 0.5256-1.76 0.5256zm4.819-6.4789v2.8051h1.793c0.48 0 0.843-0.1272 1.09-0.3817 0.251-0.2546 0.376-0.5921 0.376-1.0125 0-0.4205-0.125-0.7599-0.376-1.0181-0.251-0.2619-0.614-0.3928-1.09-0.3928h-1.793zm1.793 3.5686h-1.793v2.9103h-0.979v-7.248h2.772c0.767 0 1.367 0.1974 1.798 0.592 0.432 0.391 0.648 0.9203 0.648 1.588 0 0.6639-0.216 1.1895-0.648 1.5768-0.428 0.3873-1.027 0.5809-1.798 0.5809zm8.072-1.2227v0.7691h-3.325v2.5948h3.829v0.7691h-4.808v-7.248h4.758v0.7691h-3.779v2.3459h3.325z" fill="#333"/>
<path d="m182.68 81.614c0.108-0.2542 0.254-0.5465 0.439-0.8768 0.19-0.3304 0.403-0.6704 0.638-1.0198 0.235-0.3558 0.486-0.7021 0.753-1.0388 0.267-0.3431 0.537-0.6513 0.81-0.9245h0.763v3.7455h0.695v0.6481h-0.695v1.5058h-0.763v-1.5058h-2.64v-0.5337zm2.64-2.9259c-0.171 0.1843-0.346 0.3876-0.524 0.6099-0.171 0.2224-0.34 0.4575-0.505 0.7053-0.165 0.2414-0.321 0.4892-0.467 0.7434-0.14 0.2541-0.267 0.5051-0.381 0.7529h1.877v-2.8115z" fill="#333"/>
<path d="m154.11 93.098h173.44" stroke="#BDBDBD" stroke-dasharray="1.89 4.72" stroke-linecap="round" stroke-width=".94426"/>
<line x1="250.7" x2="250.7" y1="72.548" y2="113.98" stroke="#BDBDBD" stroke-dasharray="1.89 4.72" stroke-linecap="round" stroke-width=".94426"/>
<line x1="291.14" x2="291.14" y1="72.548" y2="113.98" stroke="#BDBDBD" stroke-dasharray="1.89 4.72" stroke-linecap="round" stroke-width=".94426"/>
<circle cx="163.23" cy="106.64" r="6.531" stroke="#BDBDBD" stroke-width=".94426"/>
<path d="m163.77 105.71c0 0.165-0.051 0.308-0.152 0.428-0.095 0.121-0.223 0.182-0.381 0.182-0.166 0-0.299-0.061-0.401-0.182-0.101-0.12-0.152-0.263-0.152-0.428 0-0.166 0.051-0.312 0.152-0.439 0.102-0.127 0.235-0.19 0.401-0.19 0.158 0 0.286 0.063 0.381 0.19 0.101 0.127 0.152 0.273 0.152 0.439zm-2.497 0.104c0-0.991 0.169-1.75 0.505-2.277 0.344-0.534 0.823-0.801 1.44-0.801 0.622 0 1.102 0.267 1.439 0.801 0.336 0.527 0.505 1.286 0.505 2.277 0 0.992-0.169 1.754-0.505 2.288-0.337 0.527-0.817 0.791-1.439 0.791-0.617 0-1.096-0.264-1.44-0.791-0.336-0.534-0.505-1.296-0.505-2.288zm3.088 0c0-0.324-0.019-0.629-0.057-0.914-0.038-0.293-0.102-0.547-0.191-0.763s-0.206-0.388-0.352-0.515-0.327-0.19-0.543-0.19-0.398 0.063-0.544 0.19-0.263 0.299-0.352 0.515-0.153 0.47-0.191 0.763c-0.038 0.285-0.057 0.59-0.057 0.914s0.019 0.633 0.057 0.925c0.038 0.286 0.102 0.537 0.191 0.753s0.206 0.387 0.352 0.514c0.146 0.128 0.328 0.191 0.544 0.191s0.397-0.063 0.543-0.191c0.146-0.127 0.263-0.298 0.352-0.514s0.153-0.467 0.191-0.753c0.038-0.292 0.057-0.601 0.057-0.925z" fill="#333"/>
<circle cx="180.07" cy="106.64" r="6.531" stroke="#BDBDBD" stroke-width=".94426"/>
<path d="m178.39 104.09c0.324-0.127 0.638-0.286 0.943-0.476 0.305-0.197 0.588-0.445 0.848-0.743h0.553v5.232h1.115v0.667h-3.174v-0.667h1.278v-4.136c-0.07 0.063-0.156 0.13-0.258 0.2-0.095 0.063-0.203 0.127-0.324 0.19-0.114 0.064-0.235 0.124-0.362 0.181-0.127 0.058-0.251 0.105-0.372 0.143l-0.247-0.591z" fill="#333"/>
<circle cx="196.91" cy="106.64" r="6.531" stroke="#BDBDBD" stroke-width=".94426"/>
<path d="m198.52 104.38c0 0.204-0.041 0.401-0.123 0.591-0.077 0.191-0.182 0.378-0.315 0.563-0.127 0.184-0.273 0.365-0.438 0.543-0.166 0.178-0.334 0.352-0.505 0.524-0.096 0.095-0.207 0.21-0.334 0.343s-0.248 0.27-0.362 0.41c-0.115 0.14-0.21 0.276-0.286 0.41-0.076 0.133-0.114 0.247-0.114 0.343h2.716v0.667h-3.574c-7e-3 -0.032-0.01-0.064-0.01-0.095v-0.105c0-0.267 0.045-0.515 0.134-0.744 0.089-0.228 0.203-0.444 0.343-0.648 0.14-0.203 0.295-0.394 0.467-0.572 0.178-0.184 0.352-0.362 0.524-0.533 0.14-0.14 0.273-0.277 0.4-0.41 0.134-0.133 0.248-0.267 0.343-0.4 0.102-0.134 0.181-0.27 0.239-0.41 0.063-0.146 0.095-0.296 0.095-0.448 0-0.172-0.029-0.318-0.086-0.438-0.051-0.121-0.124-0.22-0.219-0.296-0.089-0.083-0.194-0.143-0.315-0.181-0.12-0.038-0.251-0.057-0.39-0.057-0.166 0-0.318 0.022-0.458 0.067-0.133 0.044-0.254 0.098-0.362 0.162-0.102 0.063-0.191 0.127-0.267 0.19-0.076 0.057-0.133 0.105-0.171 0.143l-0.391-0.553c0.051-0.057 0.127-0.127 0.229-0.209 0.101-0.083 0.222-0.159 0.362-0.229 0.146-0.076 0.308-0.14 0.486-0.191s0.368-0.076 0.572-0.076c0.616 0 1.07 0.143 1.363 0.429 0.298 0.28 0.447 0.683 0.447 1.21z" fill="#333"/>
<circle cx="213.75" cy="106.11" r="6.531" stroke="#BDBDBD" stroke-width=".94426"/>
<path d="m213.37 107.66c0.502 0 0.858-0.098 1.068-0.295 0.216-0.203 0.324-0.474 0.324-0.81 0-0.216-0.045-0.397-0.134-0.544-0.088-0.146-0.206-0.263-0.352-0.352s-0.315-0.153-0.505-0.191c-0.191-0.038-0.391-0.057-0.601-0.057h-0.2v-0.638h0.277c0.139 0 0.282-0.013 0.428-0.039 0.153-0.031 0.29-0.082 0.41-0.152 0.127-0.076 0.229-0.178 0.305-0.305s0.115-0.289 0.115-0.486c0-0.324-0.102-0.553-0.305-0.686-0.197-0.14-0.429-0.21-0.696-0.21-0.273 0-0.505 0.041-0.696 0.124-0.19 0.076-0.349 0.156-0.476 0.238l-0.305-0.6c0.133-0.096 0.333-0.194 0.6-0.296 0.273-0.108 0.575-0.162 0.905-0.162 0.312 0 0.579 0.038 0.801 0.115 0.222 0.076 0.404 0.184 0.543 0.324 0.146 0.139 0.254 0.305 0.324 0.495 0.07 0.185 0.105 0.388 0.105 0.61 0 0.312-0.082 0.575-0.248 0.791-0.158 0.216-0.365 0.381-0.619 0.496 0.305 0.089 0.569 0.264 0.791 0.524 0.222 0.254 0.333 0.594 0.333 1.02 0 0.254-0.044 0.492-0.133 0.715-0.083 0.216-0.213 0.403-0.391 0.562-0.171 0.159-0.397 0.283-0.676 0.372-0.274 0.089-0.601 0.133-0.982 0.133-0.146 0-0.299-0.013-0.457-0.038-0.153-0.019-0.296-0.048-0.429-0.086-0.134-0.032-0.254-0.063-0.363-0.095-0.101-0.038-0.174-0.067-0.219-0.086l0.153-0.677c0.101 0.051 0.263 0.112 0.486 0.181 0.222 0.07 0.495 0.105 0.819 0.105z" fill="#333"/>
<circle cx="230.59" cy="106.11" r="6.531" stroke="#BDBDBD" stroke-width=".94426"/>
<path d="m228.53 106.2c0.108-0.255 0.255-0.547 0.439-0.877 0.19-0.331 0.403-0.671 0.638-1.02 0.236-0.356 0.486-0.702 0.753-1.039 0.267-0.343 0.537-0.651 0.81-0.924h0.763v3.745h0.696v0.648h-0.696v1.506h-0.763v-1.506h-2.64v-0.533zm2.64-2.926c-0.171 0.184-0.346 0.387-0.524 0.61-0.171 0.222-0.34 0.457-0.505 0.705-0.165 0.241-0.321 0.489-0.467 0.743-0.14 0.254-0.267 0.505-0.381 0.753h1.877v-2.811z" fill="#333"/>
<path d="m271.88 83.081c0.502 0 0.858-0.0985 1.067-0.2955 0.216-0.2033 0.324-0.4733 0.324-0.8101 0-0.216-0.044-0.3971-0.133-0.5432s-0.207-0.2637-0.353-0.3526c-0.146-0.089-0.314-0.1525-0.505-0.1907-0.191-0.0381-0.391-0.0571-0.6-0.0571h-0.201v-0.6386h0.277c0.14 0 0.283-0.0127 0.429-0.0381 0.152-0.0318 0.289-0.0826 0.41-0.1525 0.127-0.0762 0.228-0.1779 0.305-0.305 0.076-0.127 0.114-0.2891 0.114-0.486 0-0.3241-0.102-0.5528-0.305-0.6862-0.197-0.1398-0.429-0.2097-0.696-0.2097-0.273 0-0.505 0.0413-0.696 0.1239-0.19 0.0762-0.349 0.1557-0.476 0.2383l-0.305-0.6005c0.133-0.0953 0.334-0.1937 0.6-0.2954 0.274-0.108 0.575-0.162 0.906-0.162 0.311 0 0.578 0.0381 0.8 0.1143 0.223 0.0763 0.404 0.1843 0.544 0.3241 0.146 0.1398 0.254 0.305 0.324 0.4956 0.07 0.1842 0.104 0.3875 0.104 0.6099 0 0.3114-0.082 0.575-0.247 0.7911-0.159 0.216-0.366 0.3812-0.62 0.4955 0.305 0.089 0.569 0.2637 0.791 0.5242 0.223 0.2542 0.334 0.5941 0.334 1.0198 0 0.2541-0.045 0.4924-0.134 0.7148-0.082 0.216-0.212 0.4034-0.39 0.5623-0.172 0.1588-0.397 0.2827-0.677 0.3717-0.273 0.0889-0.6 0.1334-0.982 0.1334-0.146 0-0.298-0.0127-0.457-0.0381-0.153-0.0191-0.296-0.0477-0.429-0.0858-0.133-0.0318-0.254-0.0635-0.362-0.0953-0.102-0.0381-0.175-0.0667-0.219-0.0858l0.152-0.6766c0.102 0.0508 0.264 0.1111 0.486 0.181 0.223 0.0699 0.496 0.1049 0.82 0.1049z" fill="#333"/>
<path d="m273.86 105.86c0 0.203-0.041 0.4-0.124 0.591-0.076 0.19-0.181 0.378-0.314 0.562-0.127 0.184-0.273 0.365-0.439 0.543-0.165 0.178-0.333 0.353-0.505 0.524-0.095 0.096-0.206 0.21-0.333 0.343-0.127 0.134-0.248 0.27-0.363 0.41-0.114 0.14-0.209 0.277-0.285 0.41-0.077 0.133-0.115 0.248-0.115 0.343h2.716v0.667h-3.574c-6e-3 -0.032-9e-3 -0.063-9e-3 -0.095v-0.105c0-0.267 0.044-0.515 0.133-0.743 0.089-0.229 0.204-0.445 0.343-0.648 0.14-0.204 0.296-0.394 0.467-0.572 0.178-0.184 0.353-0.362 0.525-0.534 0.139-0.14 0.273-0.276 0.4-0.41 0.133-0.133 0.248-0.267 0.343-0.4 0.102-0.133 0.181-0.27 0.238-0.41 0.064-0.146 0.096-0.295 0.096-0.448 0-0.171-0.029-0.317-0.086-0.438-0.051-0.121-0.124-0.219-0.219-0.296-0.089-0.082-0.194-0.143-0.315-0.181s-0.251-0.057-0.391-0.057c-0.165 0-0.317 0.022-0.457 0.067-0.134 0.044-0.254 0.098-0.362 0.162-0.102 0.063-0.191 0.127-0.267 0.19-0.076 0.058-0.134 0.105-0.172 0.143l-0.39-0.552c0.05-0.058 0.127-0.127 0.228-0.21 0.102-0.083 0.223-0.159 0.362-0.229 0.147-0.076 0.309-0.14 0.487-0.19 0.177-0.051 0.368-0.077 0.571-0.077 0.617 0 1.071 0.143 1.363 0.429 0.299 0.28 0.448 0.683 0.448 1.211z" fill="#333"/>
<path d="m310.53 83.081c0.502 0 0.857-0.0985 1.067-0.2955 0.216-0.2033 0.324-0.4733 0.324-0.8101 0-0.216-0.044-0.3971-0.133-0.5432s-0.207-0.2637-0.353-0.3526c-0.146-0.089-0.314-0.1525-0.505-0.1907-0.191-0.0381-0.391-0.0571-0.601-0.0571h-0.2v-0.6386h0.277c0.14 0 0.282-0.0127 0.429-0.0381 0.152-0.0318 0.289-0.0826 0.409-0.1525 0.128-0.0762 0.229-0.1779 0.305-0.305 0.077-0.127 0.115-0.2891 0.115-0.486 0-0.3241-0.102-0.5528-0.305-0.6862-0.197-0.1398-0.429-0.2097-0.696-0.2097-0.273 0-0.505 0.0413-0.696 0.1239-0.19 0.0762-0.349 0.1557-0.476 0.2383l-0.305-0.6005c0.133-0.0953 0.333-0.1937 0.6-0.2954 0.273-0.108 0.575-0.162 0.906-0.162 0.311 0 0.578 0.0381 0.8 0.1143 0.223 0.0763 0.404 0.1843 0.543 0.3241 0.147 0.1398 0.255 0.305 0.324 0.4956 0.07 0.1842 0.105 0.3875 0.105 0.6099 0 0.3114-0.082 0.575-0.247 0.7911-0.159 0.216-0.366 0.3812-0.62 0.4955 0.305 0.089 0.569 0.2637 0.791 0.5242 0.222 0.2542 0.334 0.5941 0.334 1.0198 0 0.2541-0.045 0.4924-0.134 0.7148-0.082 0.216-0.213 0.4034-0.391 0.5623-0.171 0.1588-0.397 0.2827-0.676 0.3717-0.273 0.0889-0.601 0.1334-0.982 0.1334-0.146 0-0.298-0.0127-0.457-0.0381-0.153-0.0191-0.296-0.0477-0.429-0.0858-0.134-0.0318-0.254-0.0635-0.362-0.0953-0.102-0.0381-0.175-0.0667-0.22-0.0858l0.153-0.6766c0.102 0.0508 0.264 0.1111 0.486 0.181s0.496 0.1049 0.82 0.1049z" fill="#333"/>
<path d="m308.85 108.21c0.108-0.254 0.254-0.547 0.439-0.877 0.19-0.331 0.403-0.67 0.638-1.02 0.235-0.356 0.486-0.702 0.753-1.039 0.267-0.343 0.537-0.651 0.81-0.924h0.763v3.745h0.695v0.648h-0.695v1.506h-0.763v-1.506h-2.64v-0.533zm2.64-2.926c-0.171 0.184-0.346 0.387-0.524 0.61-0.172 0.222-0.34 0.457-0.505 0.705-0.165 0.241-0.321 0.489-0.467 0.743-0.14 0.255-0.267 0.506-0.381 0.753h1.877v-2.811z" fill="#333"/>
<mask id="e" x="7" y="223" width="355" height="289" mask-type="alpha" maskUnits="userSpaceOnUse">
<rect x="7.0112" y="223.16" width="354.9" height="287.85" rx="7.2449" fill="#FEFEFE"/>
</mask>
<g mask="url(#e)">
<path d="m98.037 294.88c-38.58 38.658-64.35 108.61-64.35 188.48s25.77 149.82 64.35 188.48" stroke="#BDBDBD" stroke-linecap="round" stroke-width="16.652"/>
<path d="m17 274.5c0-1.38 1.1183-2.498 2.4979-2.498h69.308c1.3796 0 2.4979 1.118 2.4979 2.498v30.441c0 1.38-1.1183 2.498-2.4979 2.498h-69.308c-1.3796 0-2.4979-1.118-2.4979-2.498v-30.441z" fill="#4482F0"/>
<path d="m29.904 282.27v0.791h-3.4207v2.67h3.9387v0.791h-4.9461v-7.456h4.8949v0.791h-3.8875v2.413h3.4207zm1.9182-1.292 1.3148 3.91 0.0853 0.388h0.0285l0.0967-0.388 1.2807-3.91h1.0245l-2.0376 5.544h-0.7627l-2.0661-5.544h1.0359zm5.4413 2.732v0.114c0 0.615 0.1252 1.106 0.3756 1.474 0.2542 0.368 0.6185 0.552 1.0928 0.552s0.8386-0.184 1.0928-0.552c0.2543-0.372 0.3814-0.863 0.3814-1.474v-0.114c0-0.603-0.129-1.091-0.387-1.462-0.2543-0.376-0.6186-0.564-1.0929-0.564-0.4705 0-0.8329 0.188-1.0871 0.564-0.2504 0.371-0.3756 0.859-0.3756 1.462zm-1.0132 0.114v-0.114c0-0.835 0.2239-1.514 0.6717-2.037 0.4477-0.524 1.051-0.786 1.8099-0.786s1.3623 0.262 1.81 0.786c0.4478 0.519 0.6716 1.199 0.6716 2.037v0.114c0 0.842-0.2238 1.524-0.6716 2.043-0.444 0.517-1.0473 0.775-1.81 0.775-0.7589 0-1.3622-0.26-1.8099-0.78-0.4478-0.52-0.6717-1.199-0.6717-2.038zm7.2911-5.293v7.991h-1.0074v-7.991h1.0074zm3.4549 8.111c-0.6223 0-1.0985-0.196-1.4286-0.587-0.3301-0.394-0.4952-0.994-0.4952-1.798v-3.267h1.0075v3.278c0 0.581 0.0834 0.985 0.2504 1.212 0.1708 0.228 0.4459 0.342 0.8253 0.342 0.6944 0 1.1687-0.279 1.4229-0.837v-3.995h1.0075v5.543h-0.905l-0.0683-0.819c-0.3643 0.618-0.9031 0.928-1.6165 0.928zm4.3827-6.99h1.0188v1.338h1.0473v0.751h-1.0473v3.364c0 0.47 0.1954 0.706 0.5862 0.706 0.1215 0 0.2467-0.023 0.3757-0.069l0.1309 0.689c-0.1821 0.14-0.4383 0.211-0.7684 0.211-0.425 0-0.7551-0.128-0.9903-0.382-0.2353-0.254-0.3529-0.639-0.3529-1.155v-3.364h-0.8766v-0.751h0.8766v-1.338zm4.3997 1.326v5.544h-1.0075v-5.544h1.0075zm0-2.447v1.03h-1.0075v-1.03h1.0075zm2.3279 5.179v0.114c0 0.615 0.1252 1.106 0.3757 1.474 0.2542 0.368 0.6185 0.552 1.0928 0.552s0.8386-0.184 1.0928-0.552c0.2542-0.372 0.3813-0.863 0.3813-1.474v-0.114c0-0.603-0.129-1.091-0.387-1.462-0.2542-0.376-0.6185-0.564-1.0928-0.564-0.4705 0-0.8329 0.188-1.0871 0.564-0.2505 0.371-0.3757 0.859-0.3757 1.462zm-1.0131 0.114v-0.114c0-0.835 0.2239-1.514 0.6716-2.037 0.4478-0.524 1.0511-0.786 1.81-0.786s1.3622 0.262 1.8099 0.786c0.4478 0.519 0.6717 1.199 0.6717 2.037v0.114c0 0.842-0.2239 1.524-0.6717 2.043-0.4439 0.517-1.0472 0.775-1.8099 0.775-0.7589 0-1.3622-0.26-1.81-0.78-0.4477-0.52-0.6716-1.199-0.6716-2.038zm6.204-2.846h0.8993l0.074 0.826c0.3832-0.619 0.9315-0.928 1.6449-0.928 0.6071 0 1.0719 0.178 1.3944 0.535 0.3226 0.353 0.4838 0.89 0.4838 1.611v3.5h-1.0074v-3.478c0-0.482-0.0949-0.827-0.2846-1.036-0.1897-0.208-0.4857-0.313-0.8879-0.313-0.2884 0-0.5445 0.069-0.7684 0.205-0.2239 0.137-0.4041 0.33-0.5407 0.581v4.041h-1.0074v-5.544zm-37.474 13 1.3148 3.91 0.0853 0.388h0.0285l0.0968-0.388 1.2806-3.91h1.0245l-2.0376 5.544h-0.7627l-2.0661-5.544h1.0359zm5.834 0v5.544h-1.0074v-5.544h1.0074zm0-2.447v1.03h-1.0074v-1.03h1.0074zm3.6143 7.308c0.3566 0 0.6374-0.07 0.8423-0.211 0.2049-0.144 0.3074-0.334 0.3074-0.569s-0.0873-0.421-0.2618-0.558c-0.1746-0.14-0.4914-0.263-0.9506-0.37-0.6981-0.151-1.2123-0.352-1.5424-0.603-0.3263-0.254-0.4895-0.603-0.4895-1.047s0.1935-0.822 0.5806-1.133c0.387-0.315 0.8917-0.472 1.514-0.472 0.6222 0 1.125 0.165 1.5083 0.495 0.387 0.326 0.571 0.732 0.5521 1.218l-0.0114 0.028h-0.9619c0-0.254-0.1044-0.474-0.3131-0.66-0.2049-0.186-0.4762-0.279-0.8139-0.279-0.3339 0-0.5919 0.076-0.7741 0.228-0.1821 0.148-0.2732 0.338-0.2732 0.569 0 0.232 0.0797 0.408 0.2391 0.53 0.1594 0.121 0.4724 0.231 0.9391 0.33 0.7134 0.155 1.237 0.364 1.5709 0.626 0.334 0.258 0.5009 0.601 0.5009 1.03 0 0.493-0.1992 0.892-0.5976 1.195-0.3946 0.304-0.9259 0.456-1.5937 0.456s-1.2086-0.175-1.6222-0.524c-0.4098-0.349-0.6052-0.772-0.5862-1.269l0.0114-0.029h0.9619c0.019 0.342 0.1461 0.6 0.3813 0.774 0.2391 0.171 0.537 0.256 0.8936 0.256l-0.0113-0.011zm5.3274 0.803c-0.6223 0-1.0985-0.196-1.4286-0.587-0.3301-0.394-0.4952-0.994-0.4952-1.798v-3.267h1.0074v3.278c0 0.581 0.0835 0.985 0.2505 1.212 0.1707 0.228 0.4458 0.342 0.8253 0.342 0.6944 0 1.1687-0.279 1.4229-0.837v-3.995h1.0075v5.543h-0.905l-0.0683-0.819c-0.3643 0.618-0.9031 0.928-1.6165 0.928zm5.6405 0c-0.5767 0-1.0169-0.147-1.3205-0.439-0.3035-0.292-0.4553-0.702-0.4553-1.229 0-0.528 0.2125-0.941 0.6375-1.241s1.0093-0.45 1.753-0.45h1.0929v-0.546c0-0.326-0.1006-0.582-0.3017-0.768-0.1973-0.19-0.4667-0.285-0.8082-0.285-0.3377 0-0.6091 0.082-0.814 0.245-0.2049 0.159-0.3073 0.358-0.3073 0.597h-0.9619l-0.0114-0.028c-0.019-0.417 0.1745-0.789 0.5806-1.116 0.4098-0.33 0.9296-0.495 1.5595-0.495 0.6337 0 1.1383 0.163 1.514 0.49 0.3757 0.322 0.5635 0.779 0.5635 1.371v2.67c0 0.429 0.0474 0.8 0.1423 1.115h-1.0416c-0.0721-0.353-0.1101-0.63-0.1138-0.831-0.1974 0.281-0.4478 0.509-0.7514 0.683-0.2997 0.171-0.6185 0.257-0.9562 0.257zm-0.757-1.645h-0.0057c0 0.25 0.0778 0.445 0.2334 0.586 0.1556 0.14 0.3965 0.21 0.7228 0.21 0.3264 0 0.6375-0.091 0.9335-0.273 0.2998-0.186 0.4952-0.402 0.5862-0.649v-0.905h-1.1269c-0.4022 0-0.7267 0.101-0.9733 0.302-0.2466 0.197-0.37 0.44-0.37 0.729zm6.039-6.466v7.991h-1.0075v-7.991h1.0075zm2.6409 2.447v5.544h-1.0074v-5.544h1.0074zm0-2.447v1.03h-1.0074v-1.03h1.0074zm5.7088 7.2v0.791h-4.4054v-0.706l2.9939-4.035h-2.9597v-0.803h4.1948v0.689l-3.028 4.064h3.2044zm2.7036 0.911c-0.5767 0-1.0169-0.147-1.3205-0.439-0.3035-0.292-0.4553-0.702-0.4553-1.229 0-0.528 0.2125-0.941 0.6375-1.241s1.0093-0.45 1.753-0.45h1.0928v-0.546c0-0.326-0.1005-0.582-0.3016-0.768-0.1973-0.19-0.4667-0.285-0.8083-0.285-0.3377 0-0.609 0.082-0.8139 0.245-0.2049 0.159-0.3073 0.358-0.3073 0.597h-0.9619l-0.0114-0.028c-0.019-0.417 0.1745-0.789 0.5805-1.116 0.4099-0.33 0.9297-0.495 1.5596-0.495 0.6337 0 1.1383 0.163 1.514 0.49 0.3756 0.322 0.5635 0.779 0.5635 1.371v2.67c0 0.429 0.0474 0.8 0.1423 1.115h-1.0416c-0.0721-0.353-0.1101-0.63-0.1139-0.831-0.1973 0.281-0.4477 0.509-0.7513 0.683-0.2997 0.171-0.6185 0.257-0.9562 0.257zm-0.757-1.645h-0.0057c0 0.25 0.0778 0.445 0.2334 0.586 0.1556 0.14 0.3965 0.21 0.7228 0.21 0.3264 0 0.6375-0.091 0.9335-0.273 0.2997-0.186 0.4952-0.402 0.5862-0.649v-0.905h-1.1269c-0.4022 0-0.7267 0.101-0.9733 0.302-0.2467 0.197-0.37 0.44-0.37 0.729zm5.2706-5.345h1.0188v1.338h1.0473v0.751h-1.0473v3.364c0 0.47 0.1954 0.706 0.5862 0.706 0.1215 0 0.2467-0.023 0.3757-0.069l0.1309 0.689c-0.1821 0.14-0.4383 0.211-0.7684 0.211-0.425 0-0.7551-0.128-0.9903-0.382-0.2353-0.254-0.3529-0.639-0.3529-1.155v-3.364h-0.8766v-0.751h0.8766v-1.338zm4.3997 1.326v5.544h-1.0075v-5.544h1.0075zm0-2.447v1.03h-1.0075v-1.03h1.0075zm2.3279 5.179v0.114c0 0.615 0.1252 1.106 0.3757 1.474 0.2542 0.368 0.6185 0.552 1.0928 0.552s0.8385-0.184 1.0928-0.552c0.2542-0.372 0.3813-0.863 0.3813-1.474v-0.114c0-0.603-0.129-1.091-0.387-1.462-0.2542-0.376-0.6185-0.564-1.0928-0.564-0.4705 0-0.8329 0.188-1.0871 0.564-0.2505 0.371-0.3757 0.859-0.3757 1.462zm-1.0131 0.114v-0.114c0-0.835 0.2238-1.514 0.6716-2.037 0.4477-0.524 1.0511-0.786 1.81-0.786s1.3622 0.262 1.8099 0.786c0.4478 0.519 0.6717 1.199 0.6717 2.037v0.114c0 0.842-0.2239 1.524-0.6717 2.043-0.4439 0.517-1.0472 0.775-1.8099 0.775-0.7589 0-1.3623-0.26-1.81-0.78-0.4478-0.52-0.6716-1.199-0.6716-2.038zm6.204-2.846h0.8993l0.074 0.826c0.3832-0.619 0.9315-0.928 1.6449-0.928 0.6071 0 1.0719 0.178 1.3944 0.535 0.3226 0.353 0.4838 0.89 0.4838 1.611v3.5h-1.0074v-3.478c0-0.482-0.0949-0.827-0.2846-1.036-0.1897-0.208-0.4857-0.313-0.8879-0.313-0.2884 0-0.5445 0.069-0.7684 0.205-0.2239 0.137-0.4041 0.33-0.5407 0.581v4.041h-1.0074v-5.544z" fill="#fff"/>
<rect transform="rotate(-45 55.115 272.14)" x="55.115" y="272.14" width="5.6018" height="5.6018" fill="#4482F0"/>
<path d="m280.32 296.51c23.484 22.72 43.002 55.634 56.222 95.044" stroke="#BDBDBD" stroke-linecap="round" stroke-width="16.652"/>
<path d="m259.24 274.51c0-1.38 1.118-2.498 2.498-2.498h71.553c1.379 0 2.498 1.118 2.498 2.498v30.441c0 1.38-1.119 2.498-2.498 2.498h-71.553c-1.38 0-2.498-1.118-2.498-2.498v-30.441z" fill="#4482F0"/>
<path d="m270.61 290.02c0 0.338-0.273 0.611-0.611 0.611-0.337 0-0.61-0.273-0.61-0.611v-2.875c0-0.338 0.273-0.611 0.61-0.611 0.338 0 0.611 0.273 0.611 0.611v2.875zm0 2.571c0 0.337-0.273 0.61-0.611 0.61-0.337 0-0.61-0.273-0.61-0.61v-0.064c0-0.338 0.273-0.611 0.61-0.611 0.338 0 0.611 0.273 0.611 0.611v0.064zm-6.648 0.541c-0.305 0.555 0.097 1.234 0.73 1.234h10.615c0.633 0 1.035-0.679 0.729-1.234l-5.307-9.649c-0.316-0.576-1.143-0.576-1.459 0l-5.308 9.649z" fill="#fff"/>
<path d="m284.99 283.3h-1.878v3.233h-1.008v-7.456h2.698c0.82 0 1.444 0.18 1.873 0.541 0.428 0.36 0.643 0.888 0.643 1.582 0 0.774-0.391 1.332-1.173 1.673 0.771 0.251 1.156 0.837 1.156 1.759v0.7c0 0.509 0.114 0.867 0.341 1.076v0.125h-1.041c-0.209-0.186-0.313-0.588-0.313-1.207v-0.683c0-0.406-0.118-0.73-0.353-0.973-0.235-0.247-0.55-0.37-0.945-0.37zm-1.878-3.432v2.641h1.588c0.569 0 0.979-0.106 1.229-0.319 0.254-0.216 0.381-0.55 0.381-1.001 0-0.881-0.502-1.321-1.508-1.321h-1.69zm9.158 3.222c0-0.418-0.108-0.754-0.325-1.008-0.216-0.258-0.527-0.387-0.933-0.387-0.334 0-0.622 0.14-0.865 0.421-0.239 0.281-0.387 0.64-0.444 1.076l0.011 0.028h2.556v-0.13zm-1.105 3.563c-0.77 0-1.385-0.255-1.844-0.763-0.455-0.509-0.683-1.178-0.683-2.009v-0.228c0-0.778 0.232-1.43 0.695-1.958 0.466-0.531 1.026-0.797 1.679-0.797 0.736 0 1.298 0.222 1.685 0.666 0.39 0.44 0.586 1.046 0.586 1.816v0.632h-3.597l-0.017 0.022c0.011 0.547 0.148 0.989 0.409 1.327 0.266 0.333 0.628 0.5 1.087 0.5 0.646 0 1.169-0.182 1.571-0.546l0.399 0.655h-6e-3c-0.463 0.455-1.117 0.683-1.964 0.683zm4.269-0.12h-1.001v-5.544h0.899l0.074 0.729c0.379-0.554 0.941-0.831 1.685-0.831 0.747 0 1.254 0.341 1.519 1.024 0.384-0.683 0.949-1.024 1.696-1.024 0.581 0 1.031 0.197 1.349 0.592 0.319 0.391 0.478 0.971 0.478 1.741v3.313h-1.007v-3.324c0-0.535-0.091-0.918-0.273-1.15-0.182-0.235-0.456-0.353-0.82-0.353-0.36 0-0.649 0.118-0.865 0.353-0.212 0.232-0.338 0.535-0.376 0.911v3.563h-1.018v-3.324c0-0.516-0.095-0.895-0.285-1.138-0.186-0.243-0.465-0.365-0.837-0.365-0.584 0-0.99 0.241-1.218 0.723v4.104zm9.255-5.544v5.544h-1.007v-5.544h1.007zm0-2.447v1.03h-1.007v-1.03h1.007zm1.554 2.447h0.899l0.074 0.826c0.383-0.619 0.932-0.928 1.645-0.928 0.607 0 1.072 0.178 1.395 0.535 0.322 0.353 0.483 0.89 0.483 1.611v3.5h-1.007v-3.478c0-0.481-0.095-0.827-0.285-1.035-0.189-0.209-0.485-0.314-0.888-0.314-0.288 0-0.544 0.069-0.768 0.205-0.224 0.137-0.404 0.33-0.541 0.581v4.041h-1.007v-5.544zm5.726 2.886c0-0.907 0.191-1.63 0.575-2.169 0.383-0.538 0.907-0.808 1.571-0.808s1.174 0.235 1.531 0.706v-3.051h1.013v7.991h-0.826l-0.119-0.683c-0.368 0.528-0.892 0.792-1.571 0.792s-1.21-0.241-1.594-0.723c-0.383-0.486-0.575-1.135-0.575-1.947l-5e-3 -0.108zm1.019 0v0.108c0 0.581 0.115 1.034 0.347 1.36 0.235 0.327 0.588 0.49 1.058 0.49 0.57 0 0.991-0.26 1.264-0.78v-2.584c-0.281-0.501-0.698-0.751-1.252-0.751-0.474 0-0.829 0.193-1.065 0.58-0.235 0.384-0.352 0.909-0.352 1.577zm8.583-0.785c0-0.418-0.108-0.754-0.325-1.008-0.216-0.258-0.527-0.387-0.933-0.387-0.334 0-0.622 0.14-0.865 0.421-0.239 0.281-0.387 0.64-0.444 1.076l0.011 0.028h2.556v-0.13zm-1.104 3.563c-0.771 0-1.385-0.255-1.845-0.763-0.455-0.509-0.683-1.178-0.683-2.009v-0.228c0-0.778 0.232-1.43 0.695-1.958 0.467-0.531 1.026-0.797 1.679-0.797 0.736 0 1.298 0.222 1.685 0.666 0.39 0.44 0.586 1.046 0.586 1.816v0.632h-3.597l-0.017 0.022c0.011 0.547 0.148 0.989 0.409 1.327 0.266 0.333 0.628 0.5 1.088 0.5 0.645 0 1.168-0.182 1.57-0.546l0.399 0.655h-6e-3c-0.463 0.455-1.117 0.683-1.963 0.683zm4.268-0.114h-1.007v-5.544h0.899l0.097 0.808c0.338-0.611 0.797-0.916 1.377-0.916 0.137 0 0.266 0.019 0.387 0.057l-0.136 0.945-0.518-0.035c-0.52 0-0.886 0.241-1.099 0.723v3.962zm3.506-0.939v0.933h-0.905v-0.933h0.905zm0-4.485v0.933h-0.905v-0.933h0.905zm-43.849 11.753h-1.28v5.874h1.28c0.687 0 1.23-0.222 1.628-0.666 0.402-0.448 0.603-1.034 0.603-1.759v-1.03c0-0.721-0.201-1.303-0.603-1.747-0.402-0.448-0.945-0.672-1.628-0.672zm0 6.665h-2.288v-7.456h2.288c0.979 0 1.763 0.298 2.351 0.893 0.592 0.592 0.888 1.368 0.888 2.328v1.019c0 0.96-0.296 1.736-0.888 2.328-0.588 0.592-1.372 0.888-2.351 0.888zm6.335 0.12c-0.622 0-1.098-0.196-1.428-0.587-0.331-0.394-0.496-0.994-0.496-1.798v-3.267h1.008v3.278c0 0.581 0.083 0.985 0.25 1.212 0.171 0.228 0.446 0.342 0.826 0.342 0.694 0 1.168-0.279 1.423-0.837v-3.995h1.007v5.543h-0.905l-0.068-0.819c-0.365 0.618-0.903 0.928-1.617 0.928zm7.462-3.563c0-0.418-0.108-0.754-0.324-1.008-0.217-0.258-0.528-0.387-0.934-0.387-0.334 0-0.622 0.14-0.865 0.421-0.239 0.281-0.387 0.64-0.444 1.076l0.011 0.028h2.556v-0.13zm-1.104 3.563c-0.77 0-1.385-0.255-1.844-0.763-0.456-0.509-0.683-1.178-0.683-2.009v-0.228c0-0.778 0.231-1.43 0.694-1.958 0.467-0.531 1.027-0.797 1.679-0.797 0.736 0 1.298 0.222 1.685 0.666 0.391 0.44 0.586 1.046 0.586 1.816v0.632h-3.597l-0.017 0.022c0.011 0.547 0.148 0.989 0.41 1.327 0.265 0.333 0.628 0.5 1.087 0.5 0.645 0 1.169-0.182 1.571-0.546l0.398 0.655h-5e-3c-0.463 0.455-1.118 0.683-1.964 0.683zm6.54-6.99h1.019v1.338h1.047v0.751h-1.047v3.364c0 0.47 0.195 0.706 0.586 0.706 0.121 0 0.246-0.023 0.375-0.069l0.131 0.689c-0.182 0.14-0.438 0.211-0.768 0.211-0.425 0-0.755-0.128-0.99-0.382-0.236-0.254-0.353-0.639-0.353-1.155v-3.364h-0.877v-0.751h0.877v-1.338zm4.086 4.058v0.114c0 0.615 0.126 1.106 0.376 1.474 0.254 0.368 0.619 0.552 1.093 0.552s0.838-0.184 1.093-0.552c0.254-0.372 0.381-0.863 0.381-1.474v-0.114c0-0.603-0.129-1.091-0.387-1.462-0.254-0.376-0.619-0.564-1.093-0.564-0.47 0-0.833 0.188-1.087 0.564-0.25 0.371-0.376 0.859-0.376 1.462zm-1.013 0.114v-0.114c0-0.834 0.224-1.514 0.672-2.037 0.448-0.524 1.051-0.786 1.81-0.786s1.362 0.262 1.81 0.786c0.448 0.52 0.671 1.199 0.671 2.037v0.114c0 0.843-0.223 1.524-0.671 2.044-0.444 0.516-1.047 0.774-1.81 0.774-0.759 0-1.362-0.26-1.81-0.78s-0.672-1.199-0.672-2.038zm5.965 0.04c0-0.907 0.192-1.63 0.575-2.169 0.383-0.538 0.907-0.808 1.571-0.808s1.174 0.235 1.531 0.706v-3.051h1.013v7.991h-0.825l-0.12-0.683c-0.368 0.528-0.891 0.792-1.571 0.792-0.679 0-1.21-0.241-1.593-0.723-0.384-0.486-0.575-1.135-0.575-1.947l-6e-3 -0.108zm1.019 0v0.108c0 0.581 0.116 1.034 0.347 1.36 0.235 0.327 0.588 0.49 1.059 0.49 0.569 0 0.99-0.26 1.263-0.78v-2.584c-0.28-0.501-0.698-0.751-1.252-0.751-0.474 0-0.829 0.193-1.064 0.58-0.235 0.384-0.353 0.909-0.353 1.577zm6.762 2.778c-0.577 0-1.017-0.147-1.321-0.439-0.303-0.292-0.455-0.702-0.455-1.229 0-0.528 0.212-0.941 0.637-1.241s1.01-0.45 1.753-0.45h1.093v-0.546c0-0.326-0.1-0.582-0.301-0.768-0.198-0.19-0.467-0.285-0.809-0.285-0.337 0-0.609 0.082-0.814 0.245-0.204 0.159-0.307 0.358-0.307 0.597h-0.962l-0.011-0.028c-0.019-0.417 0.174-0.789 0.58-1.116 0.41-0.33 0.93-0.495 1.56-0.495 0.634 0 1.138 0.163 1.514 0.49 0.376 0.322 0.563 0.779 0.563 1.371v2.67c0 0.429 0.048 0.8 0.143 1.115h-1.042c-0.072-0.352-0.11-0.629-0.114-0.831-0.197 0.281-0.447 0.509-0.751 0.683-0.3 0.171-0.619 0.257-0.956 0.257zm-0.757-1.645h-6e-3c0 0.25 0.078 0.446 0.233 0.586 0.156 0.14 0.397 0.211 0.723 0.211 0.327 0 0.638-0.092 0.934-0.274 0.3-0.186 0.495-0.402 0.586-0.649v-0.905h-1.127c-0.402 0-0.727 0.101-0.973 0.302-0.247 0.197-0.37 0.44-0.37 0.729zm5.35 4.012c-0.144 0-0.343-0.026-0.598-0.079l0.103-0.797c0.25 0.019 0.4 0.028 0.449 0.028 0.198 0 0.363-0.083 0.496-0.25 0.136-0.167 0.26-0.391 0.37-0.672l0.239-0.58-2.061-5.43h1.127l1.178 3.489 0.177 0.694h0.034l1.36-4.183h1.122l-2.328 6.392c-0.353 0.925-0.909 1.388-1.668 1.388z" fill="#fff"/>
<rect transform="rotate(-45 293.55 307.23)" x="293.55" y="307.23" width="5.6018" height="5.6018" fill="#4482F0"/>
<path d="m198.32 632.98 53.573-33.728-26.57-112.49h-61.033l-35.297 116.89 69.327 29.323z" fill="#FAFAFA"/>
<path d="m191.88 310.8-47.653 41.976 20.285 118.63h59.754l16.287-122.28-48.673-38.329z" fill="#FAFAFA"/>
<path d="m66.892 479.16h250.52" stroke="#BDBDBD" stroke-dasharray="1.67 4.16" stroke-linecap="round" stroke-width=".83262"/>
<path d="m192.15 328.23c37.791 0 60.086 64.592 64.355 98.983s19.211 44.985 36.684 44.985c24.745 0 27.433-18.5 26.643-36.446-2.293-50.283-41.981-148.79-127.68-148.79-85.622 0-124.2 98.508-127.68 148.87-1.344 19.211 1.8975 36.446 26.643 36.446 17.472 0 32.494-10.594 36.684-44.985 4.27-34.47 26.564-99.062 64.355-99.062z" fill="#E0E0E0"/>
<mask id="d" x="64" y="286" width="257" height="187" mask-type="alpha" maskUnits="userSpaceOnUse">
<path d="m192.3 328.1c37.791 0 60.086 64.592 64.355 98.983s19.211 44.985 36.684 44.985c24.745 0 27.433-18.5 26.643-36.446-2.293-50.282-41.981-148.79-127.68-148.79-85.622 0-124.2 98.509-127.68 148.87-1.3441 19.211 1.8974 36.446 26.643 36.446 17.472 0 32.493-10.594 36.683-44.985 4.27-34.47 26.565-99.062 64.355-99.062z" fill="#E0E0E0"/>
</mask>
<g mask="url(#d)">
<path d="m91.693 351.17c-10.734 9.14-20.501 42.129-24.901 58.828-1.9977 7.169 1.7024 15.188 31.92 17.258 30.218 2.069 31.968-8.545 33.882-17.689s9.889-24.899 9.897-35.318-37.381-34.505-50.799-23.079z" fill="#4482F0"/>
</g>
<path d="m154.2 335.82c5.218-3.479 0.395-13.045-4.586-17.63-4.981-4.586-7.906-5.614-11.78-4.586-3.953 1.028-10.752 6.088-10.989 10.91-0.237 4.19 3.716 6.72 10.199 9.171 5.692 2.135 14.072 4.19 17.156 2.135z" fill="#fff"/>
<path d="m167.8 324.99c6.167-3.399 1.028-17.946-1.344-21.82-3.478-5.851-23.085 3.636-18.737 10.515 3.083 4.901 11.306 16.128 20.081 11.305z" fill="#fff"/>
<path d="m192.08 297.8c-0.317-5.613-23.402-4.506-23.402 3.558 0 8.38 4.348 21.82 12.808 21.82 8.538 0.079 11.147-17.156 10.594-25.378z" fill="#fff"/>
<path d="m113.49 445.08c0-7.827-8.064-16.128-20.477-16.128-12.412 0-17.156 4.585-18.184 14.072-1.1068 10.515 2.609 18.738 15.733 18.738 13.124 0 22.928-8.618 22.928-16.682z" fill="#fff"/>
<path d="m118.94 420.26c0.632-7.037-11.306-13.836-14.626-15.338-3.795-1.66-19.37-9.645-22.928 3.32-3.5577 12.966 4.3483 19.133 14.073 20.003 9.7242 0.869 22.532 2.925 23.481-7.985z" fill="#fff"/>
<path d="m125.51 398.12c0.948-5.377-4.111-14.547-13.282-18.026-9.409-3.558-18.184-3.558-21.584 3.558-2.9253 6.166-2.2137 14.626 12.808 19.844 10.673 3.715 20.951 1.027 22.058-5.376z" fill="#fff"/>
<path d="m122.42 355.35c-9.487-4.507-18.342-2.768-21.425 3.478-3.9535 8.064 0.474 16.603 10.752 20.239 8.696 3.084 16.128 0.396 19.053-7.352 2.372-6.246-1.186-12.966-8.38-16.365z" fill="#fff"/>
<path d="m144.64 351c2.846-6.087 0.079-12.57-8.38-16.681-8.539-4.191-15.338-4.349-19.923 1.264-4.507 5.535-4.349 13.836 5.771 18.738 7.274 3.478 19.212 3.715 22.532-3.321z" fill="#fff"/>
<path d="m230.74 335.82c-5.218-3.479-0.396-13.045 4.585-17.63 4.981-4.586 7.906-5.614 11.78-4.586 3.953 1.028 10.752 6.088 10.989 10.91 0.238 4.19-3.715 6.72-10.198 9.171-5.693 2.135-13.994 4.19-17.156 2.135z" fill="#fff"/>
<path d="m217.22 324.99c-6.167-3.399-1.028-17.946 1.344-21.82 3.478-5.851 23.085 3.636 18.737 10.515-3.163 4.901-11.385 16.128-20.081 11.305z" fill="#fff"/>
<path d="m192.86 297.8c0.317-5.613 23.402-4.506 23.402 3.558 0 8.38-4.348 21.82-12.808 21.82-8.538 0.079-11.147-17.156-10.594-25.378z" fill="#fff"/>
<path d="m271.45 445.08c0-7.827 8.064-16.128 20.477-16.128 12.412 0 17.156 4.585 18.183 14.072 1.107 10.515-2.609 18.738-15.732 18.738-13.124 0-22.928-8.618-22.928-16.682z" fill="#fff"/>
<path d="m266 420.26c-0.633-7.037 11.305-13.836 14.626-15.338 3.716-1.66 19.37-9.645 22.927 3.32 3.558 12.966-4.348 19.133-14.072 20.003-9.725 0.869-22.532 2.925-23.481-7.985z" fill="#fff"/>
<path d="m259.43 398.12c-0.949-5.377 4.111-14.547 13.282-18.026 9.408-3.558 18.184-3.558 21.584 3.558 2.925 6.166 2.213 14.626-12.808 19.844-10.673 3.715-20.872 1.027-22.058-5.376z" fill="#fff"/>
<path d="m262.52 355.35c9.487-4.507 18.342-2.768 21.425 3.478 3.953 8.064-0.474 16.603-10.752 20.239-8.697 3.084-16.128 0.396-19.054-7.352-2.371-6.246 1.186-12.966 8.381-16.365z" fill="#fff"/>
<path d="m240.3 351c-2.846-6.087-0.079-12.57 8.38-16.681 8.539-4.191 15.338-4.349 19.923 1.264 4.507 5.535 4.348 13.836-5.771 18.738-7.195 3.478-19.212 3.715-22.532-3.321z" fill="#fff"/>
<path d="m192.08 656.09c81.589 0 118.67-80.403 125.47-130.45 2.925-21.584-1.503-36.921-25.932-41.111-17.235-3.005-27.908 4.427-36.684 42.692-7.748 33.758-24.983 87.598-62.773 87.598-37.791 0-55.026-53.761-62.774-87.598-8.855-38.344-19.528-45.697-36.684-42.692-24.588 4.269-29.015 19.606-26.09 41.19 6.7992 49.966 43.878 130.37 125.47 130.37z" fill="#E0E0E0"/>
<path d="m75.224 517.98c-2.609-7.352 2.1346-17.946 13.836-22.058 11.701-4.19 17.709-1.502 21.899 7.116 4.586 9.487 3.874 18.579-8.538 23.006-12.333 4.349-24.43-0.474-27.197-8.064z" fill="#fff"/>
<path d="m309.56 517.98c2.609-7.352-2.135-17.946-13.836-22.058-11.7-4.19-17.709-1.502-21.899 7.116-4.586 9.487-3.874 18.579 8.538 23.006 12.413 4.349 24.509-0.474 27.197-8.064z" fill="#fff"/>
<path d="m93.172 451.65c0.8697-1.502 0.6325-3.163 1.8184-4.586 1.1069-1.265 3.1624-2.055 4.5855-2.767-2.688-1.423-4.5855-2.53-5.9295-5.297-2.8462 1.74-3.0833 6.404-7.5897 5.93 3.2414-0.396 7.3525 3.557 7.1153 6.72z" fill="#F2F2F2"/>
<path d="m94.911 420.66c0.8697-2.609-0.5534-4.269-1.1859-6.483 2.688 0.158 4.7436-1.028 7.0359-1.976 0.633 1.581 0.396 3.399 1.028 4.901-2.3716-0.711-6.5618 1.503-6.878 3.558z" fill="#F2F2F2"/>
<path d="m101.63 388.16c1.265 0 2.846 0.237 4.111 0 1.186-0.238 2.135-1.265 3.241-1.344 0.238 1.818 0.791 5.139 2.451 6.166-3.083-0.316-5.692-0.316-8.222 1.74-0.712-1.977-0.712-4.191-1.423-6.167l-0.158-0.395z" fill="#F2F2F2"/>
<path d="m110.49 362.39c1.107 0.158 2.293 0.554 3.479 0.554s2.293-0.791 3.083-0.317c1.502 0.87 1.898 4.665 2.926 6.088 0.079 0.079 0.079 0.079 0 0-2.768-0.791-5.139-0.079-7.59 0.949-0.554-2.293-0.079-4.981-1.74-6.878l-0.158-0.396z" fill="#F2F2F2"/>
<path d="m125.51 341.12c2.056 1.186 4.507 1.107 6.404-0.316 0.475 1.581 0.316 3.399 0.87 4.902-1.898 0.158-3.321 0.553-4.981 1.423-0.316-1.977-1.502-4.112-2.293-6.009z" fill="#F2F2F2"/>
<path d="m291.77 451.65c-0.87-1.502-0.632-3.163-1.818-4.586-1.107-1.265-3.163-2.055-4.586-2.767 2.688-1.423 4.586-2.53 5.93-5.297 2.846 1.74 3.083 6.404 7.589 5.93-3.241-0.396-7.273 3.557-7.115 6.72z" fill="#F2F2F2"/>
<path d="m290.03 420.66c-0.87-2.609 0.553-4.269 1.186-6.483-2.688 0.158-4.744-1.028-7.036-1.976-0.633 1.581-0.396 3.399-1.028 4.901 2.372-0.711 6.562 1.503 6.878 3.558z" fill="#F2F2F2"/>
<path d="m283.31 388.16c-1.265 0-2.846 0.237-4.111 0-1.186-0.238-2.135-1.265-3.242-1.344-0.237 1.818-0.79 5.139-2.451 6.166 3.084-0.316 5.693-0.316 8.223 1.74 0.711-1.977 0.711-4.191 1.423-6.167l0.158-0.395z" fill="#F2F2F2"/>
<path d="m274.53 362.39c-1.107 0.158-2.292 0.554-3.478 0.554s-2.293-0.791-3.084-0.317c-1.502 0.87-1.897 4.665-2.925 6.088-0.079 0.079-0.079 0.079 0 0 2.767-0.791 5.139-0.079 7.59 0.949 0.553-2.293 0.079-4.981 1.739-6.878l0.158-0.396z" fill="#F2F2F2"/>
<path d="m259.43 341.12c-2.055 1.186-4.506 1.107-6.404-0.316-0.474 1.581-0.316 3.399-0.869 4.902 1.897 0.158 3.32 0.553 4.98 1.423 0.317-1.977 1.503-4.112 2.293-6.009z" fill="#F2F2F2"/>
<path d="m91.195 505.01c-0.079 2.293-1.5021 4.348-2.9252 6.087 2.4509-0.237 5.6133 1.977 7.1945 3.637 0.7906-2.214 0.9487-3.558 2.0555-5.613-1.7393-0.079-6.3248-4.111-6.3248-4.111z" fill="#F2F2F2"/>
<path d="m293.59 505.01c0.08 2.293 1.503 4.348 2.926 6.088-2.451-0.237-5.614 1.976-7.195 3.636-0.79-2.213-0.948-3.557-2.055-5.613 1.739-0.079 6.324-4.111 6.324-4.111z" fill="#F2F2F2"/>
<path d="m164.2 259.49c0.789 0 1.349-0.155 1.679-0.464 0.339-0.32 0.509-0.745 0.509-1.274 0-0.34-0.07-0.625-0.21-0.855-0.139-0.229-0.324-0.414-0.554-0.554s-0.495-0.24-0.794-0.3c-0.3-0.06-0.615-0.09-0.945-0.09h-0.314v-1.004h0.434c0.22 0 0.445-0.02 0.675-0.06 0.24-0.05 0.454-0.13 0.644-0.24 0.2-0.119 0.36-0.279 0.48-0.479s0.18-0.455 0.18-0.765c0-0.509-0.16-0.869-0.48-1.079-0.31-0.219-0.674-0.329-1.094-0.329-0.43 0-0.794 0.065-1.094 0.195-0.3 0.119-0.55 0.244-0.749 0.374l-0.48-0.944c0.21-0.15 0.524-0.305 0.944-0.465 0.43-0.169 0.904-0.254 1.424-0.254 0.489 0 0.909 0.06 1.259 0.179 0.35 0.12 0.634 0.29 0.854 0.51 0.23 0.22 0.4 0.48 0.51 0.779 0.11 0.29 0.165 0.61 0.165 0.96 0 0.489-0.13 0.904-0.39 1.243-0.25 0.34-0.575 0.6-0.974 0.78 0.479 0.14 0.894 0.414 1.244 0.824 0.349 0.4 0.524 0.934 0.524 1.604 0 0.399-0.07 0.774-0.21 1.124-0.13 0.339-0.334 0.634-0.614 0.884-0.27 0.25-0.625 0.445-1.064 0.585-0.43 0.139-0.944 0.209-1.544 0.209-0.23 0-0.469-0.02-0.719-0.06-0.24-0.03-0.465-0.075-0.675-0.135-0.21-0.049-0.399-0.099-0.569-0.149-0.16-0.06-0.275-0.105-0.345-0.135l0.24-1.064c0.16 0.08 0.415 0.175 0.764 0.284 0.35 0.11 0.78 0.165 1.289 0.165z" fill="#828282"/>
<rect x="174.71" y="247.85" width="34.228" height="16.456" rx="1.6652" fill="#F2F2F2"/>
<mask id="c" x="174" y="247" width="35" height="18" mask-type="alpha" maskUnits="userSpaceOnUse">
<rect x="174.71" y="247.85" width="34.228" height="16.456" rx="1.6652" fill="#F2F2F2"/>
</mask>
<g mask="url(#c)">
<line x1="179.15" x2="179.15" y1="263.58" y2="266.8" stroke="#BDBDBD" stroke-linecap="round" stroke-width=".83262"/>
<line x1="187.87" x2="187.87" y1="263.58" y2="266.8" stroke="#BDBDBD" stroke-linecap="round" stroke-width=".83262"/>
<line x1="196.6" x2="196.6" y1="263.58" y2="266.8" stroke="#BDBDBD" stroke-linecap="round" stroke-width=".83262"/>
<line x1="205.32" x2="205.32" y1="263.58" y2="266.8" stroke="#BDBDBD" stroke-linecap="round" stroke-width=".83262"/>
<line x1="209.68" x2="171.77" y1="250.45" y2="250.45" stroke="#E0E0E0" stroke-linecap="round" stroke-width=".24979"/>
<line transform="matrix(-1 -1.1166e-8 1.5468e-6 -1 209.81 253.82)" x1=".12489" x2="38.032" y1="-.12489" y2="-.12489" stroke="#E0E0E0" stroke-linecap="round" stroke-width=".24979"/>
<line transform="matrix(-1 -1.1166e-8 1.5468e-6 -1 209.81 257.31)" x1=".12489" x2="38.032" y1="-.12489" y2="-.12489" stroke="#E0E0E0" stroke-linecap="round" stroke-width=".24979"/>
<line transform="matrix(-1 -1.1166e-8 1.5468e-6 -1 209.81 260.8)" x1=".12489" x2="38.032" y1="-.12489" y2="-.12489" stroke="#E0E0E0" stroke-linecap="round" stroke-width=".24979"/>
<path d="m173.68 264.68 14.427-7.304h9.056l14.294-4.259" stroke="#4482F0" stroke-width=".83262"/>
</g>
<path d="m216.29 260.96c0 0.23 0.187 0.416 0.416 0.416 0.23 0 0.417-0.186 0.417-0.416h-0.833zm0.711-10.055c-0.163-0.162-0.426-0.162-0.589 0l-2.649 2.65c-0.163 0.162-0.163 0.426 0 0.588 0.162 0.163 0.426 0.163 0.588 0l2.355-2.355 2.355 2.355c0.163 0.163 0.427 0.163 0.589 0 0.163-0.162 0.163-0.426 0-0.588l-2.649-2.65zm0.122 10.055v-9.76h-0.833v9.76h0.833z" fill="#FF3F48"/>
<path d="m279.39 253.48c0 0.32-0.065 0.63-0.195 0.93-0.12 0.299-0.284 0.594-0.494 0.884-0.2 0.29-0.43 0.574-0.69 0.854-0.259 0.28-0.524 0.555-0.794 0.824-0.15 0.15-0.325 0.33-0.525 0.54-0.199 0.21-0.389 0.425-0.569 0.644-0.18 0.22-0.33 0.435-0.45 0.645s-0.179 0.39-0.179 0.539h4.271v1.049h-5.62c-0.01-0.049-0.015-0.099-0.015-0.149v-0.165c0-0.42 0.07-0.81 0.21-1.169 0.139-0.36 0.319-0.7 0.539-1.019 0.22-0.32 0.465-0.62 0.734-0.9 0.28-0.289 0.555-0.569 0.825-0.839 0.22-0.22 0.429-0.434 0.629-0.644 0.21-0.21 0.39-0.42 0.54-0.63 0.16-0.21 0.284-0.424 0.374-0.644 0.1-0.23 0.15-0.465 0.15-0.705 0-0.269-0.045-0.499-0.135-0.689-0.08-0.19-0.194-0.345-0.344-0.465-0.14-0.13-0.305-0.224-0.495-0.284s-0.395-0.09-0.614-0.09c-0.26 0-0.5 0.035-0.72 0.105-0.21 0.07-0.399 0.154-0.569 0.254-0.16 0.1-0.3 0.2-0.42 0.3-0.12 0.09-0.21 0.165-0.27 0.225l-0.614-0.869c0.08-0.09 0.2-0.2 0.36-0.33 0.159-0.13 0.349-0.25 0.569-0.36 0.23-0.12 0.485-0.22 0.764-0.299 0.28-0.08 0.58-0.12 0.9-0.12 0.969 0 1.683 0.224 2.143 0.674 0.469 0.44 0.704 1.074 0.704 1.903z" fill="#828282"/>
<rect x="286.1" y="247.85" width="34.228" height="16.456" rx="1.6652" fill="#F2F2F2"/>
<mask id="b" x="286" y="247" width="35" height="18" mask-type="alpha" maskUnits="userSpaceOnUse">
<rect x="286.1" y="247.85" width="34.228" height="16.456" rx="1.6652" fill="#F2F2F2"/>
</mask>
<g mask="url(#b)">
<line x1="290.54" x2="290.54" y1="263.58" y2="266.8" stroke="#BDBDBD" stroke-linecap="round" stroke-width=".83262"/>
<line x1="299.27" x2="299.27" y1="263.58" y2="266.8" stroke="#BDBDBD" stroke-linecap="round" stroke-width=".83262"/>
<line x1="307.99" x2="307.99" y1="263.58" y2="266.8" stroke="#BDBDBD" stroke-linecap="round" stroke-width=".83262"/>
<line x1="316.72" x2="316.72" y1="263.58" y2="266.8" stroke="#BDBDBD" stroke-linecap="round" stroke-width=".83262"/>
<line x1="321.08" x2="283.17" y1="250.45" y2="250.45" stroke="#E0E0E0" stroke-linecap="round" stroke-width=".24979"/>
<line transform="matrix(-1 -1.1166e-8 1.5468e-6 -1 321.2 253.82)" x1=".12489" x2="38.032" y1="-.12489" y2="-.12489" stroke="#E0E0E0" stroke-linecap="round" stroke-width=".24979"/>
<line transform="matrix(-1 -1.1166e-8 1.5468e-6 -1 321.2 257.31)" x1=".12489" x2="38.032" y1="-.12489" y2="-.12489" stroke="#E0E0E0" stroke-linecap="round" stroke-width=".24979"/>
<line transform="matrix(-1 -1.1166e-8 1.5468e-6 -1 321.2 260.8)" x1=".12489" x2="38.032" y1="-.12489" y2="-.12489" stroke="#E0E0E0" stroke-linecap="round" stroke-width=".24979"/>
<line x1="284.84" x2="320.33" y1="257.43" y2="257.43" stroke="#4482F0" stroke-width=".83262"/>
</g>
<path d="m41.328 257.18c0.1698-0.4 0.3996-0.859 0.6894-1.379 0.2997-0.519 0.6344-1.054 1.0041-1.603 0.3697-0.56 0.7644-1.105 1.184-1.634 0.4196-0.54 0.8443-1.024 1.2739-1.454h1.199v5.89h1.0941v1.019h-1.0941v2.368h-1.199v-2.368h-4.1514v-0.839zm4.1514-4.601c-0.2698 0.29-0.5445 0.609-0.8243 0.959-0.2697 0.35-0.5345 0.719-0.7943 1.109-0.2598 0.38-0.5046 0.769-0.7344 1.169-0.2198 0.4-0.4196 0.794-0.5995 1.184h2.9525v-4.421z" fill="#828282"/>
<rect x="54.007" y="247.85" width="34.228" height="16.456" rx="1.6652" fill="#F2F2F2"/>
<mask id="a" x="54" y="247" width="35" height="18" mask-type="alpha" maskUnits="userSpaceOnUse">
<rect x="54.007" y="247.85" width="34.228" height="16.456" rx="1.6652" fill="#F2F2F2"/>
</mask>
<g mask="url(#a)">
<line x1="58.446" x2="58.446" y1="263.58" y2="266.8" stroke="#BDBDBD" stroke-linecap="round" stroke-width=".83262"/>
<line x1="67.173" x2="67.173" y1="263.58" y2="266.8" stroke="#BDBDBD" stroke-linecap="round" stroke-width=".83262"/>
<line x1="75.9" x2="75.9" y1="263.58" y2="266.8" stroke="#BDBDBD" stroke-linecap="round" stroke-width=".83262"/>
<line x1="84.627" x2="84.627" y1="263.58" y2="266.8" stroke="#BDBDBD" stroke-linecap="round" stroke-width=".83262"/>
<line x1="88.982" x2="51.075" y1="250.45" y2="250.45" stroke="#E0E0E0" stroke-linecap="round" stroke-width=".24979"/>
<line transform="matrix(-1 -1.1166e-8 1.5468e-6 -1 89.108 253.82)" x1=".12489" x2="38.032" y1="-.12489" y2="-.12489" stroke="#E0E0E0" stroke-linecap="round" stroke-width=".24979"/>
<line transform="matrix(-1 -1.1166e-8 1.5468e-6 -1 89.108 257.31)" x1=".12489" x2="38.032" y1="-.12489" y2="-.12489" stroke="#E0E0E0" stroke-linecap="round" stroke-width=".24979"/>
<line transform="matrix(-1 -1.1166e-8 1.5468e-6 -1 89.108 260.8)" x1=".12489" x2="38.032" y1="-.12489" y2="-.12489" stroke="#E0E0E0" stroke-linecap="round" stroke-width=".24979"/>
<path d="m52.981 264.68 14.426-7.304h9.0564l12.371-9.2" stroke="#4482F0" stroke-width=".83262"/>
</g>
<path d="m94.661 261.37c0 0.23 0.1864 0.417 0.4163 0.417 0.23 0 0.4163-0.187 0.4163-0.417h-0.8326zm0.7107-10.054c-0.1626-0.163-0.4262-0.163-0.5887 0l-2.6494 2.649c-0.1626 0.163-0.1626 0.426 0 0.589 0.1626 0.162 0.4262 0.162 0.5887 0l2.355-2.355 2.355 2.355c0.1626 0.162 0.4262 0.162 0.5888 0 0.1626-0.163 0.1626-0.426 0-0.589l-2.6494-2.649zm0.1219 10.054v-9.76h-0.8326v9.76h0.8326z" fill="#FF3F48"/>
<path d="m120.48 223.16 44.074 248.23m93.232-248.23-33.478 248.23" stroke="#BDBDBD" stroke-dasharray="1.67 4.16" stroke-linecap="round" stroke-width=".83262"/>
<path d="m164.82 487.88-67.453 224.71" stroke="#BDBDBD" stroke-dasharray="1.67 4.16" stroke-linecap="round" stroke-width=".83262"/>
<path d="m224.37 487.87 60.692 249.11" stroke="#BDBDBD" stroke-dasharray="1.67 4.16" stroke-linecap="round" stroke-width=".83262"/>
<circle cx="121.72" cy="336.38" r="5.6226" fill="#4482F0"/>
</g>
<path d="m101.33 342.36c0.196 0.195 0.512 0.195 0.708 0l3.182-3.182c0.195-0.195 0.195-0.512 0-0.707-0.196-0.195-0.512-0.195-0.708 0l-2.828 2.828-2.8284-2.828c-0.1953-0.195-0.5118-0.195-0.7071 0s-0.1953 0.512 0 0.707l3.1815 3.182zm116.65-146.64v9.494h1v-9.494h-1zm-19.5 28.994h-76.794v1h76.794v-1zm-97.294 20.5v96.793h1v-96.793h-1zm20.5-20.5c-11.322 0-20.5 9.178-20.5 20.5h1c0-10.77 8.73-19.5 19.5-19.5v-1zm96.294-19.5c0 10.769-8.731 19.5-19.5 19.5v1c11.322 0 20.5-9.178 20.5-20.5h-1z" fill="#4482F0"/>
<path d="m38.83 368.04c0.1953 0.195 0.5119 0.195 0.7071 0l3.182-3.182c0.1953-0.195 0.1953-0.512 0-0.707-0.1952-0.196-0.5118-0.196-0.7071 0l-2.8284 2.828-2.8284-2.828c-0.1953-0.196-0.5119-0.196-0.7071 0-0.1953 0.195-0.1953 0.512 0 0.707l3.1819 3.182zm-0.1464-232.95v232.6h1v-232.6h-1z" fill="#4482F0"/>
<path d="m121.37 326.52c0.195 0.195 0.512 0.195 0.707 0l3.182-3.182c0.196-0.195 0.196-0.512 0-0.707-0.195-0.195-0.512-0.195-0.707 0l-2.828 2.828-2.829-2.828c-0.195-0.195-0.512-0.195-0.707 0s-0.195 0.512 0 0.707l3.182 3.182zm156.92-131.41v21.518h1v-21.518h-1zm-19.5 41.018h-117.07v1h117.07v-1zm-137.57 20.5v69.538h1v-69.538h-1zm20.5-20.5c-11.322 0-20.5 9.178-20.5 20.5h1c0-10.769 8.73-19.5 19.5-19.5v-1zm136.57-19.5c0 10.77-8.731 19.5-19.5 19.5v1c11.322 0 20.5-9.178 20.5-20.5h-1z" fill="#4482F0"/>
<defs>
<filter id="f" x=".21106" y=".89905" width="370.77" height="519.18" color-interpolation-filters="sRGB" filterUnits="userSpaceOnUse">
<feFlood flood-opacity="0" result="BackgroundImageFix"/>
<feColorMatrix in="SourceAlpha" values="0 0 0 0 0 0 0 0 0 0 0 0 0 0 0 0 0 0 127 0"/>
<feOffset dx="1.13336" dy="1.13336"/>
<feGaussianBlur stdDeviation="3.96676"/>
<feColorMatrix values="0 0 0 0 0.509804 0 0 0 0 0.509804 0 0 0 0 0.509804 0 0 0 0.15 0"/>
<feBlend in2="BackgroundImageFix" result="effect1_dropShadow"/>
<feBlend in="SourceGraphic" in2="effect1_dropShadow" result="shape"/>
</filter>
</defs>
</svg>
