<svg width="761" height="377" viewBox="0 0 761 377" fill="none" xmlns="http://www.w3.org/2000/svg">
<g filter="url(#filter0_d)">
<path d="M7 16.592C7 11.5845 11.0594 7.52515 16.0669 7.52515H741.933C746.941 7.52515 751 11.5845 751 16.592V358.7C751 363.708 746.941 367.767 741.933 367.767H16.0669C11.0594 367.767 7 363.708 7 358.7V16.592Z" fill="#FEFEFE"/>
</g>
<mask id="mask0" mask-type="alpha" maskUnits="userSpaceOnUse" x="7" y="7" width="744" height="361">
<rect x="7" y="7.52515" width="744" height="360.242" rx="9.06689" fill="#FEFEFE"/>
</mask>
<g mask="url(#mask0)">
<path d="M368.802 131.056C369.006 130.853 369.006 130.523 368.802 130.319L365.487 127.004C365.283 126.8 364.953 126.8 364.75 127.004C364.547 127.207 364.547 127.537 364.75 127.741L367.697 130.688L364.75 133.635C364.547 133.839 364.547 134.168 364.75 134.372C364.953 134.575 365.283 134.575 365.487 134.372L368.802 131.056ZM166.7 61.9363H207.895V60.8943H166.7V61.9363ZM228.215 82.2556V109.848H229.257V82.2556H228.215ZM249.576 131.209H368.434V130.167H249.576V131.209ZM228.215 109.848C228.215 121.645 237.779 131.209 249.576 131.209V130.167C238.354 130.167 229.257 121.07 229.257 109.848H228.215ZM207.895 61.9363C219.117 61.9363 228.215 71.0336 228.215 82.2556H229.257C229.257 70.4581 219.693 60.8943 207.895 60.8943V61.9363Z" fill="#4482F0"/>
<path d="M286.332 71.7838C286.332 70.0573 287.732 68.6577 289.458 68.6577H379.007C380.733 68.6577 382.133 70.0573 382.133 71.7838V109.881C382.133 111.608 380.733 113.007 379.007 113.007H289.458C287.732 113.007 286.332 111.608 286.332 109.881V71.7838Z" fill="#4482F0"/>
<path d="M302.13 81.7432V82.7333H297.849V86.0741H302.779V87.0642H296.589V77.7329H302.714V78.723H297.849V81.7432H302.13ZM304.531 80.1263L306.176 85.0199L306.283 85.5042H306.319L306.44 85.0199L308.043 80.1263H309.325L306.775 87.0642H305.82L303.234 80.1263H304.531ZM311.341 83.5454V83.6878C311.341 84.4571 311.497 85.0721 311.811 85.5327C312.129 85.9934 312.585 86.2237 313.178 86.2237C313.772 86.2237 314.228 85.9934 314.546 85.5327C314.864 85.0673 315.023 84.4524 315.023 83.6878V83.5454C315.023 82.7903 314.862 82.1801 314.539 81.7147C314.221 81.2446 313.765 81.0095 313.171 81.0095C312.582 81.0095 312.129 81.2446 311.811 81.7147C311.497 82.1801 311.341 82.7903 311.341 83.5454ZM310.073 83.6878V83.5454C310.073 82.5006 310.353 81.6506 310.913 80.9953C311.474 80.3399 312.229 80.0123 313.178 80.0123C314.128 80.0123 314.883 80.3399 315.444 80.9953C316.004 81.6459 316.284 82.4959 316.284 83.5454V83.6878C316.284 84.7421 316.004 85.5945 315.444 86.245C314.888 86.8909 314.133 87.2138 313.178 87.2138C312.229 87.2138 311.474 86.8885 310.913 86.2379C310.353 85.5873 310.073 84.7373 310.073 83.6878ZM319.197 77.0633V87.0642H317.937V77.0633H319.197ZM323.521 87.2138C322.742 87.2138 322.146 86.9692 321.733 86.4801C321.32 85.9862 321.114 85.2359 321.114 84.2292V80.1405H322.374V84.2434C322.374 84.97 322.479 85.4757 322.688 85.7607C322.901 86.0456 323.246 86.1881 323.721 86.1881C324.59 86.1881 325.183 85.839 325.501 85.141V80.1405H326.762V87.0785H325.63L325.544 86.0527C325.088 86.8268 324.414 87.2138 323.521 87.2138ZM329.006 78.4666H330.281V80.1405H331.592V81.0808H330.281V85.2905C330.281 85.8794 330.526 86.1738 331.015 86.1738C331.167 86.1738 331.323 86.1453 331.485 86.0883L331.649 86.9502C331.421 87.1259 331.1 87.2138 330.687 87.2138C330.155 87.2138 329.742 87.0547 329.448 86.7365C329.153 86.4184 329.006 85.9364 329.006 85.2905V81.0808H327.909V80.1405H329.006V78.4666ZM334.512 80.1263V87.0642H333.251V80.1263H334.512ZM334.512 77.0633V78.3526H333.251V77.0633H334.512ZM337.426 83.5454V83.6878C337.426 84.4571 337.582 85.0721 337.896 85.5327C338.214 85.9934 338.67 86.2237 339.263 86.2237C339.857 86.2237 340.313 85.9934 340.631 85.5327C340.949 85.0673 341.108 84.4524 341.108 83.6878V83.5454C341.108 82.7903 340.947 82.1801 340.624 81.7147C340.306 81.2446 339.85 81.0095 339.256 81.0095C338.667 81.0095 338.214 81.2446 337.896 81.7147C337.582 82.1801 337.426 82.7903 337.426 83.5454ZM336.158 83.6878V83.5454C336.158 82.5006 336.438 81.6506 336.998 80.9953C337.559 80.3399 338.314 80.0123 339.263 80.0123C340.213 80.0123 340.968 80.3399 341.529 80.9953C342.089 81.6459 342.369 82.4959 342.369 83.5454V83.6878C342.369 84.7421 342.089 85.5945 341.529 86.245C340.973 86.8909 340.218 87.2138 339.263 87.2138C338.314 87.2138 337.559 86.8885 336.998 86.2379C336.438 85.5873 336.158 84.7373 336.158 83.6878ZM343.922 80.1263H345.047L345.14 81.1591C345.62 80.3851 346.306 79.998 347.199 79.998C347.958 79.998 348.54 80.2212 348.944 80.6676C349.347 81.1092 349.549 81.7812 349.549 82.6835V87.0642H348.288V82.712C348.288 82.1089 348.17 81.6767 347.932 81.4155C347.695 81.1544 347.324 81.0238 346.821 81.0238C346.46 81.0238 346.14 81.1092 345.859 81.2802C345.579 81.4512 345.354 81.6933 345.183 82.0068V87.0642H343.922V80.1263ZM297.023 96.1263L298.668 101.02L298.775 101.504H298.811L298.932 101.02L300.535 96.1263H301.817L299.267 103.064H298.312L295.727 96.1263H297.023ZM304.324 96.1263V103.064H303.063V96.1263H304.324ZM304.324 93.0633V94.3526H303.063V93.0633H304.324ZM308.847 102.209C309.294 102.209 309.645 102.122 309.902 101.946C310.158 101.765 310.286 101.528 310.286 101.234C310.286 100.939 310.177 100.706 309.959 100.535C309.74 100.36 309.344 100.205 308.769 100.072C307.895 99.8825 307.252 99.6308 306.839 99.3174C306.43 98.9993 306.226 98.5624 306.226 98.0068C306.226 97.4512 306.468 96.9787 306.953 96.5893C307.437 96.1951 308.069 95.998 308.847 95.998C309.626 95.998 310.255 96.2046 310.735 96.6177C311.219 97.0261 311.45 97.5343 311.426 98.1421L311.412 98.1777H310.208C310.208 97.8596 310.077 97.5841 309.816 97.3514C309.56 97.1187 309.22 97.0024 308.798 97.0024C308.38 97.0024 308.057 97.0974 307.829 97.2873C307.601 97.4725 307.487 97.71 307.487 97.9996C307.487 98.2893 307.587 98.5101 307.786 98.6621C307.986 98.8141 308.377 98.9518 308.961 99.0752C309.854 99.2699 310.51 99.5311 310.927 99.8588C311.345 100.182 311.554 100.611 311.554 101.148C311.554 101.765 311.305 102.264 310.806 102.644C310.312 103.024 309.648 103.214 308.812 103.214C307.976 103.214 307.299 102.995 306.782 102.558C306.269 102.122 306.024 101.592 306.048 100.97L306.062 100.934H307.266C307.29 101.362 307.449 101.685 307.743 101.903C308.043 102.117 308.415 102.224 308.862 102.224L308.847 102.209ZM315.515 103.214C314.736 103.214 314.14 102.969 313.727 102.48C313.314 101.986 313.107 101.236 313.107 100.229V96.1405H314.368V100.243C314.368 100.97 314.472 101.476 314.681 101.761C314.895 102.046 315.239 102.188 315.714 102.188C316.583 102.188 317.177 101.839 317.495 101.141V96.1405H318.756V103.078H317.623L317.538 102.053C317.082 102.827 316.408 103.214 315.515 103.214ZM322.574 103.214C321.852 103.214 321.301 103.031 320.921 102.665C320.541 102.3 320.351 101.787 320.351 101.127C320.351 100.467 320.617 99.949 321.149 99.5739C321.681 99.1987 322.412 99.0111 323.343 99.0111H324.711V98.3273C324.711 97.9189 324.585 97.5984 324.333 97.3657C324.086 97.1282 323.749 97.0095 323.322 97.0095C322.899 97.0095 322.56 97.1116 322.303 97.3158C322.047 97.5153 321.918 97.7646 321.918 98.0637H320.715L320.7 98.0281C320.677 97.5058 320.919 97.0404 321.427 96.632C321.94 96.2189 322.59 96.0123 323.379 96.0123C324.172 96.0123 324.803 96.2165 325.273 96.6249C325.744 97.0285 325.979 97.6007 325.979 98.3416V101.682C325.979 102.219 326.038 102.684 326.157 103.078H324.853C324.763 102.637 324.716 102.29 324.711 102.038C324.464 102.39 324.15 102.675 323.771 102.893C323.395 103.107 322.996 103.214 322.574 103.214ZM321.626 101.155H321.619C321.619 101.469 321.717 101.713 321.911 101.889C322.106 102.065 322.408 102.152 322.816 102.152C323.224 102.152 323.614 102.038 323.984 101.811C324.359 101.578 324.604 101.307 324.718 100.998V99.8659H323.307C322.804 99.8659 322.398 99.9918 322.089 100.243C321.781 100.49 321.626 100.794 321.626 101.155ZM329.184 93.0633V103.064H327.923V93.0633H329.184ZM332.489 96.1263V103.064H331.228V96.1263H332.489ZM332.489 93.0633V94.3526H331.228V93.0633H332.489ZM339.634 102.074V103.064H334.12V102.181L337.867 97.1306H334.163V96.1263H339.413V96.9882L335.623 102.074H339.634ZM343.017 103.214C342.295 103.214 341.745 103.031 341.365 102.665C340.985 102.3 340.795 101.787 340.795 101.127C340.795 100.467 341.061 99.949 341.593 99.5739C342.125 99.1987 342.856 99.0111 343.787 99.0111H345.154V98.3273C345.154 97.9189 345.028 97.5984 344.777 97.3657C344.53 97.1282 344.193 97.0095 343.765 97.0095C343.343 97.0095 343.003 97.1116 342.747 97.3158C342.49 97.5153 342.362 97.7646 342.362 98.0637H341.158L341.144 98.0281C341.12 97.5058 341.362 97.0404 341.87 96.632C342.383 96.2189 343.034 96.0123 343.822 96.0123C344.615 96.0123 345.247 96.2165 345.717 96.6249C346.187 97.0285 346.422 97.6007 346.422 98.3416V101.682C346.422 102.219 346.482 102.684 346.6 103.078H345.297C345.206 102.637 345.159 102.29 345.154 102.038C344.907 102.39 344.594 102.675 344.214 102.893C343.839 103.107 343.44 103.214 343.017 103.214ZM342.07 101.155H342.063C342.063 101.469 342.16 101.713 342.355 101.889C342.55 102.065 342.851 102.152 343.259 102.152C343.668 102.152 344.057 102.038 344.428 101.811C344.803 101.578 345.047 101.307 345.161 100.998V99.8659H343.751C343.248 99.8659 342.842 99.9918 342.533 100.243C342.224 100.49 342.07 100.794 342.07 101.155ZM348.666 94.4666H349.941V96.1405H351.252V97.0808H349.941V101.291C349.941 101.879 350.186 102.174 350.675 102.174C350.827 102.174 350.983 102.145 351.145 102.088L351.309 102.95C351.081 103.126 350.76 103.214 350.347 103.214C349.815 103.214 349.402 103.055 349.108 102.737C348.813 102.418 348.666 101.936 348.666 101.291V97.0808H347.569V96.1405H348.666V94.4666ZM354.172 96.1263V103.064H352.911V96.1263H354.172ZM354.172 93.0633V94.3526H352.911V93.0633H354.172ZM357.086 99.5454V99.6878C357.086 100.457 357.242 101.072 357.556 101.533C357.874 101.993 358.33 102.224 358.923 102.224C359.517 102.224 359.973 101.993 360.291 101.533C360.609 101.067 360.768 100.452 360.768 99.6878V99.5454C360.768 98.7903 360.607 98.1801 360.284 97.7147C359.966 97.2446 359.51 97.0095 358.916 97.0095C358.327 97.0095 357.874 97.2446 357.556 97.7147C357.242 98.1801 357.086 98.7903 357.086 99.5454ZM355.818 99.6878V99.5454C355.818 98.5006 356.098 97.6506 356.658 96.9953C357.218 96.3399 357.974 96.0123 358.923 96.0123C359.873 96.0123 360.628 96.3399 361.188 96.9953C361.749 97.6459 362.029 98.4959 362.029 99.5454V99.6878C362.029 100.742 361.749 101.594 361.188 102.245C360.633 102.891 359.878 103.214 358.923 103.214C357.974 103.214 357.218 102.889 356.658 102.238C356.098 101.587 355.818 100.737 355.818 99.6878ZM363.582 96.1263H364.707L364.8 97.1591C365.28 96.3851 365.966 95.998 366.859 95.998C367.618 95.998 368.2 96.2212 368.604 96.6676C369.007 97.1092 369.209 97.7812 369.209 98.6835V103.064H367.948V98.712C367.948 98.1089 367.83 97.6767 367.592 97.4155C367.355 97.1544 366.984 97.0238 366.481 97.0238C366.12 97.0238 365.8 97.1092 365.519 97.2802C365.239 97.4512 365.014 97.6933 364.843 98.0068V103.064H363.582V96.1263Z" fill="white"/>
<rect x="362.04" y="68.8252" width="7.01061" height="7.01061" transform="rotate(-45 362.04 68.8252)" fill="#4482F0"/>
<path d="M415.756 97.282C367.473 145.662 335.222 233.202 335.222 333.161C335.222 433.12 367.473 520.66 415.756 569.04" stroke="#BDBDBD" stroke-width="20.8403" stroke-linecap="round"/>
<path d="M643.878 99.3239C673.268 127.758 697.694 168.949 714.239 218.27" stroke="#BDBDBD" stroke-width="20.8403" stroke-linecap="round"/>
<path d="M617.498 71.7938C617.498 70.0673 618.898 68.6677 620.624 68.6677H710.172C711.899 68.6677 713.299 70.0673 713.299 71.7938V109.891C713.299 111.618 711.899 113.017 710.172 113.017H620.624C618.898 113.017 617.498 111.618 617.498 109.891V71.7938Z" fill="#4482F0"/>
<path d="M631.724 91.1976C631.724 91.6195 631.382 91.9616 630.96 91.9616C630.538 91.9616 630.196 91.6195 630.196 91.1976V87.5985C630.196 87.1765 630.538 86.8345 630.96 86.8345C631.382 86.8345 631.724 87.1765 631.724 87.5985V91.1976ZM631.724 94.4146C631.724 94.8366 631.382 95.1786 630.96 95.1786C630.538 95.1786 630.196 94.8366 630.196 94.4146V94.3342C630.196 93.9122 630.538 93.5701 630.96 93.5701C631.382 93.5701 631.724 93.9122 631.724 94.3342V94.4146ZM623.404 95.0922C623.023 95.7866 623.525 96.6364 624.318 96.6364H637.602C638.394 96.6364 638.897 95.7866 638.515 95.0922L631.873 83.0155C631.477 82.2957 630.443 82.2957 630.047 83.0155L623.404 95.0922Z" fill="white"/>
<path d="M649.723 83.0283H647.373V87.0742H646.112V77.7429H649.488C650.514 77.7429 651.295 77.9684 651.832 78.4196C652.368 78.8707 652.637 79.5308 652.637 80.3998C652.637 81.3686 652.148 82.0666 651.169 82.494C652.133 82.8074 652.615 83.5411 652.615 84.6951V85.5712C652.615 86.2076 652.758 86.6563 653.043 86.9175V87.0742H651.739C651.478 86.8415 651.347 86.3382 651.347 85.5641V84.7093C651.347 84.2012 651.2 83.7952 650.906 83.4913C650.611 83.1826 650.217 83.0283 649.723 83.0283ZM647.373 78.733V82.0381H649.36C650.072 82.0381 650.585 81.9052 650.899 81.6392C651.217 81.3686 651.376 80.9507 651.376 80.3856C651.376 79.2839 650.747 78.733 649.488 78.733H647.373ZM658.834 82.7647C658.834 82.2423 658.699 81.8221 658.428 81.5039C658.157 81.181 657.768 81.0195 657.26 81.0195C656.842 81.0195 656.481 81.1952 656.177 81.5466C655.878 81.8981 655.693 82.3468 655.621 82.8929L655.636 82.9285H658.834V82.7647ZM657.452 87.2238C656.488 87.2238 655.719 86.9056 655.144 86.2693C654.574 85.633 654.289 84.7948 654.289 83.7548V83.4699C654.289 82.4964 654.579 81.6796 655.158 81.0195C655.742 80.3547 656.443 80.0223 657.26 80.0223C658.181 80.0223 658.884 80.3001 659.368 80.8557C659.857 81.4066 660.102 82.164 660.102 83.128V83.9187H655.6L655.579 83.9472C655.593 84.631 655.764 85.1842 656.092 85.6068C656.424 86.0247 656.877 86.2337 657.452 86.2337C658.259 86.2337 658.915 86.0057 659.418 85.5499L659.917 86.369H659.91C659.33 86.9389 658.511 87.2238 657.452 87.2238ZM662.794 87.0742H661.541V80.1363H662.666L662.759 81.048C663.234 80.3547 663.936 80.008 664.867 80.008C665.803 80.008 666.437 80.4354 666.769 81.2902C667.249 80.4354 667.956 80.008 668.892 80.008C669.618 80.008 670.181 80.255 670.58 80.7489C670.979 81.238 671.178 81.9645 671.178 82.9285V87.0742H669.918V82.9143C669.918 82.2447 669.804 81.7651 669.576 81.4754C669.348 81.181 669.006 81.0338 668.55 81.0338C668.099 81.0338 667.738 81.181 667.467 81.4754C667.201 81.7651 667.045 82.145 666.997 82.6151V87.0742H665.722V82.9143C665.722 82.2685 665.603 81.7936 665.366 81.4897C665.133 81.1857 664.784 81.0338 664.319 81.0338C663.587 81.0338 663.079 81.3353 662.794 81.9384V87.0742ZM674.377 80.1363V87.0742H673.116V80.1363H674.377ZM674.377 77.0733V78.3626H673.116V77.0733H674.377ZM676.321 80.1363H677.447L677.539 81.1691C678.019 80.3951 678.705 80.008 679.598 80.008C680.358 80.008 680.939 80.2312 681.343 80.6776C681.747 81.1193 681.949 81.7912 681.949 82.6935V87.0742H680.688V82.722C680.688 82.1189 680.569 81.6867 680.332 81.4256C680.094 81.1644 679.724 81.0338 679.22 81.0338C678.86 81.0338 678.539 81.1193 678.259 81.2902C677.979 81.4612 677.753 81.7034 677.582 82.0168V87.0742H676.321V80.1363ZM683.487 83.7477C683.487 82.6127 683.727 81.7081 684.207 81.0338C684.686 80.3595 685.342 80.0223 686.173 80.0223C687.004 80.0223 687.642 80.3167 688.089 80.9056V77.0875H689.357V87.0885H688.324L688.174 86.2337C687.714 86.8938 687.058 87.2238 686.208 87.2238C685.358 87.2238 684.693 86.9223 684.214 86.3192C683.734 85.7113 683.494 84.8993 683.494 83.883L683.487 83.7477ZM684.762 83.7477V83.883C684.762 84.6096 684.907 85.1771 685.197 85.5855C685.491 85.9939 685.933 86.1981 686.522 86.1981C687.234 86.1981 687.761 85.8728 688.103 85.2222V81.9883C687.752 81.3614 687.229 81.048 686.536 81.048C685.942 81.048 685.498 81.2902 685.204 81.7746C684.909 82.2542 684.762 82.9119 684.762 83.7477ZM695.504 82.7647C695.504 82.2423 695.369 81.8221 695.098 81.5039C694.827 81.181 694.438 81.0195 693.93 81.0195C693.512 81.0195 693.151 81.1952 692.847 81.5466C692.548 81.8981 692.363 82.3468 692.291 82.8929L692.306 82.9285H695.504V82.7647ZM694.122 87.2238C693.158 87.2238 692.389 86.9056 691.814 86.2693C691.244 85.633 690.959 84.7948 690.959 83.7548V83.4699C690.959 82.4964 691.249 81.6796 691.828 81.0195C692.413 80.3547 693.113 80.0223 693.93 80.0223C694.851 80.0223 695.554 80.3001 696.038 80.8557C696.527 81.4066 696.772 82.164 696.772 83.128V83.9187H692.27L692.249 83.9472C692.263 84.631 692.434 85.1842 692.762 85.6068C693.094 86.0247 693.547 86.2337 694.122 86.2337C694.929 86.2337 695.585 86.0057 696.088 85.5499L696.587 86.369H696.58C696 86.9389 695.181 87.2238 694.122 87.2238ZM699.464 87.0813H698.204V80.1434H699.329L699.45 81.1549C699.873 80.3903 700.447 80.008 701.174 80.008C701.345 80.008 701.506 80.0318 701.658 80.0793L701.487 81.2617L700.839 81.219C700.189 81.219 699.73 81.5205 699.464 82.1236V87.0813ZM703.852 85.906V87.0742H702.72V85.906H703.852ZM703.852 80.293V81.4612H702.72V80.293H703.852ZM648.975 94.733H647.373V102.084H648.975C649.835 102.084 650.514 101.806 651.013 101.251C651.516 100.69 651.768 99.9566 651.768 99.0496V97.7603C651.768 96.8581 651.516 96.1291 651.013 95.5735C650.509 95.0132 649.83 94.733 648.975 94.733ZM648.975 103.074H646.112V93.7429H648.975C650.201 93.7429 651.181 94.1157 651.917 94.8612C652.658 95.602 653.029 96.5731 653.029 97.7746V99.0496C653.029 100.251 652.658 101.222 651.917 101.963C651.181 102.704 650.201 103.074 648.975 103.074ZM656.904 103.224C656.125 103.224 655.529 102.979 655.116 102.49C654.702 101.996 654.496 101.246 654.496 100.239V96.1505H655.757V100.253C655.757 100.98 655.861 101.486 656.07 101.771C656.284 102.056 656.628 102.198 657.103 102.198C657.972 102.198 658.566 101.849 658.884 101.151V96.1505H660.145V103.088H659.012L658.927 102.063C658.471 102.837 657.796 103.224 656.904 103.224ZM666.242 98.7647C666.242 98.2423 666.107 97.8221 665.836 97.5039C665.565 97.181 665.176 97.0195 664.668 97.0195C664.25 97.0195 663.889 97.1952 663.585 97.5466C663.286 97.8981 663.101 98.3468 663.029 98.8929L663.044 98.9285H666.242V98.7647ZM664.86 103.224C663.896 103.224 663.127 102.906 662.552 102.269C661.982 101.633 661.697 100.795 661.697 99.7548V99.4699C661.697 98.4964 661.987 97.6796 662.566 97.0195C663.151 96.3547 663.851 96.0223 664.668 96.0223C665.589 96.0223 666.292 96.3001 666.776 96.8557C667.265 97.4066 667.51 98.164 667.51 99.128V99.9187H663.008L662.987 99.9472C663.001 100.631 663.172 101.184 663.5 101.607C663.832 102.025 664.286 102.234 664.86 102.234C665.667 102.234 666.323 102.006 666.826 101.55L667.325 102.369H667.318C666.738 102.939 665.919 103.224 664.86 103.224ZM673.045 94.4766H674.32V96.1505H675.63V97.0908H674.32V101.301C674.32 101.889 674.564 102.184 675.053 102.184C675.205 102.184 675.362 102.155 675.523 102.098L675.687 102.96C675.459 103.136 675.139 103.224 674.726 103.224C674.194 103.224 673.781 103.065 673.486 102.747C673.192 102.428 673.045 101.946 673.045 101.301V97.0908H671.948V96.1505H673.045V94.4766ZM678.159 99.5554V99.6978C678.159 100.467 678.316 101.082 678.629 101.543C678.947 102.003 679.403 102.234 679.997 102.234C680.59 102.234 681.046 102.003 681.364 101.543C681.683 101.077 681.842 100.462 681.842 99.6978V99.5554C681.842 98.8003 681.68 98.1901 681.357 97.7247C681.039 97.2546 680.583 97.0195 679.99 97.0195C679.401 97.0195 678.947 97.2546 678.629 97.7247C678.316 98.1901 678.159 98.8003 678.159 99.5554ZM676.891 99.6978V99.5554C676.891 98.5106 677.171 97.6606 677.732 97.0053C678.292 96.35 679.047 96.0223 679.997 96.0223C680.947 96.0223 681.702 96.35 682.262 97.0053C682.822 97.6559 683.103 98.5059 683.103 99.5554V99.6978C683.103 100.752 682.822 101.604 682.262 102.255C681.706 102.901 680.951 103.224 679.997 103.224C679.047 103.224 678.292 102.899 677.732 102.248C677.171 101.597 676.891 100.747 676.891 99.6978ZM684.356 99.7477C684.356 98.6127 684.596 97.7081 685.076 97.0338C685.555 96.3595 686.211 96.0223 687.042 96.0223C687.873 96.0223 688.511 96.3167 688.958 96.9056V93.0875H690.226V103.088H689.193L689.043 102.234C688.583 102.894 687.927 103.224 687.077 103.224C686.227 103.224 685.562 102.922 685.083 102.319C684.603 101.711 684.363 100.899 684.363 99.883L684.356 99.7477ZM685.631 99.7477V99.883C685.631 100.61 685.776 101.177 686.066 101.585C686.36 101.994 686.802 102.198 687.391 102.198C688.103 102.198 688.63 101.873 688.972 101.222V97.9883C688.621 97.3614 688.098 97.048 687.405 97.048C686.811 97.048 686.367 97.2902 686.073 97.7746C685.778 98.2542 685.631 98.9119 685.631 99.7477ZM694.094 103.224C693.372 103.224 692.821 103.041 692.441 102.675C692.061 102.31 691.871 101.797 691.871 101.137C691.871 100.477 692.137 99.959 692.669 99.5839C693.201 99.2087 693.932 99.0211 694.863 99.0211H696.231V98.3373C696.231 97.9289 696.105 97.6084 695.853 97.3757C695.606 97.1383 695.269 97.0195 694.842 97.0195C694.419 97.0195 694.079 97.1216 693.823 97.3258C693.566 97.5253 693.438 97.7746 693.438 98.0738H692.234L692.22 98.0381C692.196 97.5158 692.439 97.0504 692.947 96.642C693.46 96.2289 694.11 96.0223 694.898 96.0223C695.692 96.0223 696.323 96.2265 696.793 96.6349C697.263 97.0385 697.498 97.6108 697.498 98.3516V101.692C697.498 102.229 697.558 102.694 697.677 103.088H696.373C696.283 102.647 696.235 102.3 696.231 102.048C695.984 102.4 695.67 102.685 695.29 102.903C694.915 103.117 694.516 103.224 694.094 103.224ZM693.146 101.165H693.139C693.139 101.479 693.236 101.723 693.431 101.899C693.626 102.075 693.927 102.162 694.336 102.162C694.744 102.162 695.134 102.048 695.504 101.821C695.879 101.588 696.124 101.317 696.238 101.009V99.8759H694.827C694.324 99.8759 693.918 100.002 693.609 100.253C693.301 100.5 693.146 100.804 693.146 101.165ZM699.842 106.187C699.662 106.187 699.412 106.154 699.094 106.087L699.222 105.09C699.536 105.114 699.723 105.126 699.785 105.126C700.032 105.126 700.238 105.021 700.405 104.812C700.576 104.603 700.73 104.323 700.868 103.972L701.167 103.245L698.588 96.4497H699.999L701.473 100.816L701.694 101.685H701.737L703.439 96.4497H704.842L701.929 104.449C701.487 105.608 700.792 106.187 699.842 106.187Z" fill="white"/>
<rect x="660.441" y="112.743" width="7.01061" height="7.01061" transform="rotate(-45 660.441 112.743)" fill="#4482F0"/>
<path d="M541.258 520.41L608.304 478.2L575.053 337.425H498.67L454.495 483.713L541.258 520.41Z" fill="#FAFAFA"/>
<path d="M533.204 117.215L473.567 169.748L498.953 318.212H573.734L594.118 165.184L533.204 117.215Z" fill="#FAFAFA"/>
<path d="M376.778 327.917H690.295" stroke="#BDBDBD" stroke-width="1.04202" stroke-linecap="round" stroke-dasharray="2.08 5.21"/>
<path d="M533.542 139.026C580.836 139.026 608.738 219.862 614.081 262.902C619.424 305.942 638.124 319.201 659.991 319.201C690.96 319.201 694.324 296.048 693.334 273.588C690.465 210.661 640.796 87.3779 533.542 87.3779C426.387 87.3779 378.103 210.661 373.749 273.687C372.067 297.73 376.124 319.3 407.093 319.3C428.959 319.3 447.758 306.041 453.002 263.001C458.345 219.862 486.247 139.026 533.542 139.026Z" fill="#E0E0E0"/>
<mask id="mask1" mask-type="alpha" maskUnits="userSpaceOnUse" x="373" y="87" width="321" height="233">
<path d="M533.717 138.867C581.012 138.867 608.914 219.703 614.256 262.743C619.599 305.783 638.3 319.042 660.166 319.042C691.135 319.042 694.499 295.889 693.51 273.429C690.64 210.501 640.971 87.2188 533.717 87.2188C426.562 87.2188 378.278 210.501 373.925 273.528C372.243 297.571 376.299 319.141 407.268 319.141C429.135 319.141 447.934 305.882 453.178 262.842C458.521 219.703 486.422 138.867 533.717 138.867Z" fill="#E0E0E0"/>
</mask>
<g mask="url(#mask1)">
<path d="M407.816 167.734C394.382 179.174 382.159 220.458 376.653 241.357C374.153 250.329 378.784 260.365 416.601 262.955C454.419 265.546 456.609 252.262 459.005 240.818C461.402 229.374 471.381 209.657 471.392 196.618C471.402 183.579 424.609 153.435 407.816 167.734Z" fill="#4482F0"/>
</g>
<path d="M486.048 148.525C492.578 144.172 486.543 132.2 480.309 126.461C474.076 120.723 470.415 119.436 465.567 120.723C460.62 122.009 452.111 128.341 451.814 134.377C451.517 139.621 456.464 142.787 464.578 145.854C471.701 148.525 482.189 151.098 486.048 148.525Z" fill="white"/>
<path d="M503.068 134.97C510.786 130.715 504.354 112.51 501.386 107.661C497.033 100.34 472.495 112.213 477.937 120.821C481.795 126.955 492.086 141.005 503.068 134.97Z" fill="white"/>
<path d="M533.442 100.934C533.047 93.909 504.155 95.2942 504.155 105.386C504.155 115.874 509.597 132.695 520.184 132.695C530.87 132.794 534.135 111.224 533.442 100.934Z" fill="white"/>
<path d="M435.093 285.265C435.093 275.469 425.001 265.08 409.467 265.08C393.933 265.08 387.996 270.819 386.71 282.692C385.325 295.852 389.975 306.142 406.399 306.142C422.824 306.142 435.093 295.357 435.093 285.265Z" fill="white"/>
<path d="M441.919 254.196C442.711 245.39 427.77 236.881 423.615 235.001C418.866 232.923 399.374 222.93 394.922 239.157C390.469 255.383 400.363 263.101 412.533 264.189C424.703 265.278 440.732 267.85 441.919 254.196Z" fill="white"/>
<path d="M450.133 226.493C451.32 219.765 444.988 208.287 433.51 203.934C421.736 199.481 410.753 199.481 406.499 208.386C402.838 216.104 403.729 226.691 422.528 233.221C435.885 237.871 448.747 234.507 450.133 226.493Z" fill="white"/>
<path d="M446.274 172.964C434.4 167.324 423.319 169.501 419.46 177.318C414.513 187.41 420.054 198.096 432.916 202.647C443.8 206.506 453.101 203.142 456.762 193.445C459.73 185.629 455.277 177.219 446.274 172.964Z" fill="white"/>
<path d="M474.077 167.522C477.639 159.903 474.176 151.79 463.589 146.645C452.903 141.401 444.394 141.203 438.655 148.228C433.016 155.154 433.214 165.543 445.878 171.678C454.981 176.031 469.921 176.328 474.077 167.522Z" fill="white"/>
<path d="M581.825 148.525C575.295 144.172 581.33 132.2 587.564 126.461C593.797 120.723 597.458 119.436 602.306 120.723C607.253 122.009 615.763 128.341 616.059 134.377C616.356 139.621 611.409 142.787 603.296 145.854C596.172 148.525 585.783 151.098 581.825 148.525Z" fill="white"/>
<path d="M564.906 134.97C557.188 130.715 563.62 112.51 566.588 107.661C570.941 100.34 595.479 112.213 590.037 120.821C586.08 126.955 575.79 141.005 564.906 134.97Z" fill="white"/>
<path d="M534.431 100.934C534.827 93.909 563.718 95.2942 563.718 105.386C563.718 115.874 558.276 132.695 547.689 132.695C537.004 132.794 533.738 111.224 534.431 100.934Z" fill="white"/>
<path d="M632.781 285.265C632.781 275.469 642.873 265.08 658.407 265.08C673.941 265.08 679.877 270.819 681.164 282.692C682.549 295.852 677.899 306.142 661.474 306.142C645.05 306.142 632.781 295.357 632.781 285.265Z" fill="white"/>
<path d="M625.953 254.196C625.162 245.39 640.102 236.881 644.258 235.001C648.908 232.923 668.499 222.93 672.951 239.157C677.403 255.383 667.509 263.101 655.339 264.189C643.169 265.278 627.14 267.85 625.953 254.196Z" fill="white"/>
<path d="M617.741 226.493C616.554 219.765 622.886 208.287 634.363 203.934C646.138 199.481 657.12 199.481 661.375 208.386C665.036 216.104 664.145 226.691 645.346 233.221C631.989 237.871 619.225 234.507 617.741 226.493Z" fill="white"/>
<path d="M621.6 172.964C633.473 167.324 644.555 169.501 648.414 177.318C653.361 187.41 647.82 198.096 634.957 202.647C624.074 206.506 614.773 203.142 611.112 193.445C608.144 185.629 612.596 177.219 621.6 172.964Z" fill="white"/>
<path d="M593.797 167.522C590.235 159.903 593.698 151.79 604.285 146.645C614.971 141.401 623.48 141.203 629.219 148.228C634.859 155.154 634.661 165.543 621.996 171.678C612.992 176.031 597.953 176.328 593.797 167.522Z" fill="white"/>
<path d="M533.442 549.343C635.551 549.343 681.955 448.718 690.464 386.087C694.125 359.076 688.584 339.881 658.011 334.637C636.442 330.877 623.084 340.178 612.102 388.066C602.405 430.314 580.836 497.695 533.541 497.695C486.246 497.695 464.677 430.413 454.981 388.066C443.899 340.079 430.542 330.877 409.071 334.637C378.3 339.98 372.759 359.175 376.42 386.186C384.929 448.718 431.333 549.343 533.442 549.343Z" fill="#E0E0E0"/>
<path d="M387.205 376.49C383.94 367.288 389.876 354.03 404.52 348.885C419.163 343.641 426.683 347.005 431.927 357.79C437.666 369.663 436.775 381.041 421.241 386.582C405.806 392.024 390.668 385.989 387.205 376.49Z" fill="white"/>
<path d="M680.471 376.49C683.736 367.288 677.799 354.03 663.156 348.885C648.512 343.641 640.993 347.005 635.749 357.79C630.01 369.663 630.901 381.041 646.435 386.582C661.969 392.024 677.107 385.989 680.471 376.49Z" fill="white"/>
<path d="M409.666 293.478C410.754 291.598 410.458 289.52 411.942 287.739C413.327 286.156 415.899 285.167 417.68 284.276C414.316 282.495 411.942 281.11 410.26 277.647C406.698 279.824 406.401 285.662 400.761 285.068C404.818 284.573 409.963 289.52 409.666 293.478Z" fill="#F2F2F2"/>
<path d="M411.843 254.692C412.931 251.427 411.15 249.349 410.359 246.579C413.723 246.777 416.295 245.293 419.165 244.105C419.956 246.084 419.66 248.36 420.451 250.24C417.483 249.349 412.239 252.12 411.843 254.692Z" fill="#F2F2F2"/>
<path d="M420.253 214.027C421.836 214.027 423.815 214.324 425.398 214.027C426.882 213.73 428.069 212.444 429.455 212.345C429.751 214.621 430.444 218.776 432.522 220.063C428.663 219.667 425.398 219.667 422.232 222.239C421.341 219.766 421.341 216.995 420.451 214.522L420.253 214.027Z" fill="#F2F2F2"/>
<path d="M431.335 181.772C432.72 181.97 434.204 182.464 435.688 182.464C437.173 182.464 438.558 181.475 439.547 182.069C441.427 183.157 441.922 187.906 443.208 189.687C443.307 189.786 443.307 189.786 443.208 189.687C439.745 188.698 436.777 189.588 433.71 190.874C433.017 188.005 433.611 184.641 431.533 182.266L431.335 181.772Z" fill="#F2F2F2"/>
<path d="M450.134 155.156C452.706 156.64 455.774 156.541 458.148 154.76C458.742 156.739 458.544 159.015 459.237 160.895C456.862 161.093 455.081 161.587 453.003 162.676C452.607 160.202 451.123 157.531 450.134 155.156Z" fill="#F2F2F2"/>
<path d="M658.211 293.478C657.123 291.598 657.42 289.52 655.935 287.739C654.55 286.156 651.978 285.167 650.197 284.276C653.561 282.495 655.935 281.11 657.617 277.647C661.179 279.824 661.476 285.662 667.116 285.068C663.059 284.573 658.013 289.52 658.211 293.478Z" fill="#F2F2F2"/>
<path d="M656.034 254.692C654.946 251.427 656.727 249.349 657.518 246.579C654.154 246.777 651.582 245.293 648.713 244.105C647.921 246.084 648.218 248.36 647.426 250.24C650.395 249.349 655.639 252.12 656.034 254.692Z" fill="#F2F2F2"/>
<path d="M647.623 214.027C646.04 214.027 644.061 214.324 642.478 214.027C640.994 213.73 639.807 212.444 638.422 212.345C638.125 214.621 637.432 218.776 635.354 220.063C639.213 219.667 642.478 219.667 645.645 222.239C646.535 219.766 646.535 216.995 647.425 214.522L647.623 214.027Z" fill="#F2F2F2"/>
<path d="M636.64 181.772C635.255 181.97 633.77 182.464 632.286 182.464C630.802 182.464 629.417 181.475 628.427 182.069C626.548 183.157 626.053 187.906 624.767 189.687C624.668 189.786 624.668 189.786 624.767 189.687C628.23 188.698 631.198 189.588 634.265 190.874C634.958 188.005 634.364 184.641 636.442 182.266L636.64 181.772Z" fill="#F2F2F2"/>
<path d="M617.742 155.156C615.169 156.64 612.102 156.541 609.728 154.76C609.134 156.739 609.332 159.015 608.639 160.895C611.014 161.093 612.795 161.587 614.873 162.676C615.268 160.202 616.752 157.531 617.742 155.156Z" fill="#F2F2F2"/>
<path d="M407.192 360.264C407.093 363.133 405.312 365.706 403.531 367.882C406.598 367.585 410.556 370.356 412.535 372.434C413.524 369.663 413.722 367.981 415.107 365.409C412.93 365.31 407.192 360.264 407.192 360.264Z" fill="#F2F2F2"/>
<path d="M660.485 360.263C660.584 363.133 662.365 365.705 664.146 367.882C661.079 367.585 657.121 370.355 655.142 372.433C654.153 369.663 653.955 367.981 652.57 365.408C654.747 365.309 660.485 360.263 660.485 360.263Z" fill="#F2F2F2"/>
<path d="M498.549 53.9733C499.537 53.9733 500.238 53.7794 500.65 53.3918C501.075 52.9917 501.288 52.4602 501.288 51.7975C501.288 51.3724 501.2 51.016 501.025 50.7284C500.85 50.4408 500.619 50.2095 500.331 50.0344C500.044 49.8594 499.712 49.7343 499.337 49.6593C498.962 49.5843 498.568 49.5468 498.156 49.5468H497.762V48.2901H498.306C498.581 48.2901 498.862 48.2651 499.15 48.2151C499.45 48.1525 499.719 48.0525 499.956 47.915C500.206 47.7649 500.406 47.5649 500.556 47.3148C500.706 47.0647 500.781 46.7458 500.781 46.3582C500.781 45.7205 500.581 45.2703 500.181 45.0077C499.794 44.7326 499.337 44.5951 498.812 44.5951C498.274 44.5951 497.818 44.6764 497.443 44.8389C497.068 44.989 496.755 45.1453 496.505 45.3078L495.905 44.1262C496.167 43.9386 496.561 43.7448 497.086 43.5447C497.624 43.3322 498.218 43.2259 498.868 43.2259C499.481 43.2259 500.006 43.3009 500.444 43.451C500.882 43.601 501.238 43.8136 501.513 44.0887C501.801 44.3638 502.013 44.6889 502.151 45.064C502.288 45.4266 502.357 45.8268 502.357 46.2644C502.357 46.8771 502.194 47.396 501.869 47.8212C501.557 48.2463 501.15 48.5714 500.65 48.7965C501.25 48.9716 501.769 49.3154 502.207 49.8281C502.645 50.3283 502.863 50.9973 502.863 51.835C502.863 52.3352 502.776 52.8041 502.601 53.2418C502.438 53.6669 502.182 54.0358 501.832 54.3484C501.494 54.661 501.05 54.9048 500.5 55.0799C499.962 55.2549 499.318 55.3425 498.568 55.3425C498.281 55.3425 497.981 55.3175 497.668 55.2674C497.368 55.2299 497.086 55.1737 496.824 55.0986C496.561 55.0361 496.324 54.9736 496.111 54.9111C495.911 54.836 495.767 54.7798 495.68 54.7423L495.98 53.4106C496.18 53.5106 496.499 53.6294 496.936 53.7669C497.374 53.9045 497.912 53.9733 498.549 53.9733Z" fill="#828282"/>
<rect x="511.704" y="38.426" width="42.8361" height="20.5943" rx="2.08403" fill="#F2F2F2"/>
<mask id="mask2" mask-type="alpha" maskUnits="userSpaceOnUse" x="511" y="38" width="44" height="22">
<rect x="511.704" y="38.426" width="42.8361" height="20.5943" rx="2.08403" fill="#F2F2F2"/>
</mask>
<g mask="url(#mask2)">
<line x1="517.261" y1="58.115" x2="517.261" y2="62.1464" stroke="#BDBDBD" stroke-width="1.04202" stroke-linecap="round"/>
<line x1="528.183" y1="58.1138" x2="528.183" y2="62.1452" stroke="#BDBDBD" stroke-width="1.04202" stroke-linecap="round"/>
<line x1="539.103" y1="58.1138" x2="539.103" y2="62.1452" stroke="#BDBDBD" stroke-width="1.04202" stroke-linecap="round"/>
<line x1="550.024" y1="58.1138" x2="550.024" y2="62.1452" stroke="#BDBDBD" stroke-width="1.04202" stroke-linecap="round"/>
<line x1="555.477" y1="41.6861" x2="508.037" y2="41.6861" stroke="#E0E0E0" stroke-width="0.312605" stroke-linecap="round"/>
<line x1="0.156303" y1="-0.156303" x2="47.597" y2="-0.156303" transform="matrix(-1 -1.11664e-08 1.54675e-06 -1 555.634 45.8979)" stroke="#E0E0E0" stroke-width="0.312605" stroke-linecap="round"/>
<line x1="0.156303" y1="-0.156303" x2="47.597" y2="-0.156303" transform="matrix(-1 -1.11664e-08 1.54675e-06 -1 555.634 50.2659)" stroke="#E0E0E0" stroke-width="0.312605" stroke-linecap="round"/>
<line x1="0.156303" y1="-0.156303" x2="47.597" y2="-0.156303" transform="matrix(-1 -1.11664e-08 1.54675e-06 -1 555.634 54.6348)" stroke="#E0E0E0" stroke-width="0.312605" stroke-linecap="round"/>
<path d="M510.422 59.4924L528.476 50.3517H539.81L557.7 45.0217" stroke="#4482F0" stroke-width="1.04202"/>
</g>
<path d="M563.75 54.8306C563.75 55.1183 563.983 55.3516 564.271 55.3516C564.559 55.3516 564.792 55.1183 564.792 54.8306L563.75 54.8306ZM564.639 42.247C564.436 42.0435 564.106 42.0435 563.903 42.247L560.587 45.5627C560.383 45.7661 560.383 46.096 560.587 46.2995C560.79 46.5029 561.12 46.5029 561.324 46.2995L564.271 43.3522L567.218 46.2995C567.422 46.5029 567.752 46.5029 567.955 46.2995C568.159 46.096 568.159 45.7661 567.955 45.5627L564.639 42.247ZM564.792 54.8306L564.792 42.6154L563.75 42.6154L563.75 54.8306L564.792 54.8306Z" fill="#FF3F48"/>
<path d="M642.711 46.452C642.711 46.8521 642.629 47.2397 642.467 47.6149C642.317 47.99 642.11 48.3589 641.848 48.7215C641.598 49.0841 641.31 49.4405 640.985 49.7906C640.66 50.1407 640.328 50.4846 639.991 50.8222C639.803 51.0098 639.584 51.2348 639.334 51.4974C639.084 51.76 638.847 52.0289 638.622 52.3039C638.397 52.579 638.209 52.8479 638.059 53.1105C637.909 53.3731 637.834 53.5981 637.834 53.7857H643.179V55.0986H636.146C636.133 55.0361 636.127 54.9736 636.127 54.9111C636.127 54.836 636.127 54.7673 636.127 54.7048C636.127 54.1796 636.215 53.6919 636.39 53.2418C636.565 52.7916 636.79 52.3665 637.065 51.9663C637.34 51.5662 637.646 51.1911 637.984 50.841C638.334 50.4783 638.678 50.1282 639.016 49.7906C639.291 49.5155 639.553 49.2467 639.803 48.9841C640.066 48.7215 640.291 48.4589 640.479 48.1963C640.679 47.9337 640.835 47.6649 640.947 47.3898C641.072 47.1022 641.135 46.8083 641.135 46.5082C641.135 46.1706 641.079 45.883 640.966 45.6455C640.866 45.4079 640.722 45.2141 640.535 45.064C640.36 44.9015 640.153 44.7827 639.916 44.7076C639.678 44.6326 639.422 44.5951 639.147 44.5951C638.822 44.5951 638.522 44.6389 638.247 44.7264C637.984 44.8139 637.746 44.9202 637.534 45.0453C637.334 45.1703 637.159 45.2953 637.009 45.4204C636.859 45.5329 636.746 45.6267 636.671 45.7017L635.902 44.6139C636.002 44.5013 636.152 44.3638 636.352 44.2012C636.552 44.0387 636.79 43.8886 637.065 43.7511C637.352 43.601 637.671 43.476 638.021 43.3759C638.372 43.2759 638.747 43.2259 639.147 43.2259C640.36 43.2259 641.254 43.5072 641.829 44.0699C642.417 44.6201 642.711 45.4141 642.711 46.452Z" fill="#828282"/>
<rect x="651.112" y="38.426" width="42.8361" height="20.5943" rx="2.08403" fill="#F2F2F2"/>
<mask id="mask3" mask-type="alpha" maskUnits="userSpaceOnUse" x="651" y="38" width="43" height="22">
<rect x="651.112" y="38.426" width="42.8361" height="20.5943" rx="2.08403" fill="#F2F2F2"/>
</mask>
<g mask="url(#mask3)">
<line x1="656.67" y1="58.115" x2="656.67" y2="62.1464" stroke="#BDBDBD" stroke-width="1.04202" stroke-linecap="round"/>
<line x1="667.592" y1="58.1138" x2="667.592" y2="62.1452" stroke="#BDBDBD" stroke-width="1.04202" stroke-linecap="round"/>
<line x1="678.512" y1="58.1138" x2="678.512" y2="62.1452" stroke="#BDBDBD" stroke-width="1.04202" stroke-linecap="round"/>
<line x1="689.433" y1="58.1138" x2="689.433" y2="62.1452" stroke="#BDBDBD" stroke-width="1.04202" stroke-linecap="round"/>
<line x1="694.887" y1="41.6861" x2="647.446" y2="41.6861" stroke="#E0E0E0" stroke-width="0.312605" stroke-linecap="round"/>
<line x1="0.156303" y1="-0.156303" x2="47.597" y2="-0.156303" transform="matrix(-1 -1.11664e-08 1.54675e-06 -1 695.044 45.8979)" stroke="#E0E0E0" stroke-width="0.312605" stroke-linecap="round"/>
<line x1="0.156303" y1="-0.156303" x2="47.597" y2="-0.156303" transform="matrix(-1 -1.11664e-08 1.54675e-06 -1 695.044 50.2659)" stroke="#E0E0E0" stroke-width="0.312605" stroke-linecap="round"/>
<line x1="0.156303" y1="-0.156303" x2="47.597" y2="-0.156303" transform="matrix(-1 -1.11664e-08 1.54675e-06 -1 695.044 54.6348)" stroke="#E0E0E0" stroke-width="0.312605" stroke-linecap="round"/>
<line x1="649.532" y1="50.4224" x2="693.95" y2="50.4224" stroke="#4482F0" stroke-width="1.04202"/>
</g>
<path d="M344.783 51.0855C344.996 50.5853 345.283 50.0102 345.646 49.3599C346.021 48.7097 346.44 48.0407 346.902 47.353C347.365 46.6528 347.859 45.9713 348.384 45.3086C348.909 44.6333 349.441 44.0269 349.979 43.4892H351.479V50.8604H352.848V52.1359H351.479V55.0994H349.979V52.1359H344.783V51.0855ZM349.979 45.3273C349.641 45.69 349.297 46.0901 348.947 46.5277C348.609 46.9654 348.278 47.428 347.953 47.9157C347.628 48.3909 347.321 48.8785 347.034 49.3787C346.759 49.8789 346.509 50.3728 346.284 50.8604H349.979V45.3273Z" fill="#828282"/>
<rect x="360.65" y="38.426" width="42.8361" height="20.5943" rx="2.08403" fill="#F2F2F2"/>
<mask id="mask4" mask-type="alpha" maskUnits="userSpaceOnUse" x="360" y="38" width="44" height="22">
<rect x="360.65" y="38.426" width="42.8361" height="20.5943" rx="2.08403" fill="#F2F2F2"/>
</mask>
<g mask="url(#mask4)">
<line x1="366.207" y1="58.115" x2="366.207" y2="62.1464" stroke="#BDBDBD" stroke-width="1.04202" stroke-linecap="round"/>
<line x1="377.128" y1="58.1138" x2="377.128" y2="62.1452" stroke="#BDBDBD" stroke-width="1.04202" stroke-linecap="round"/>
<line x1="388.049" y1="58.1138" x2="388.049" y2="62.1452" stroke="#BDBDBD" stroke-width="1.04202" stroke-linecap="round"/>
<line x1="398.97" y1="58.1138" x2="398.97" y2="62.1452" stroke="#BDBDBD" stroke-width="1.04202" stroke-linecap="round"/>
<line x1="404.424" y1="41.6861" x2="356.983" y2="41.6861" stroke="#E0E0E0" stroke-width="0.312605" stroke-linecap="round"/>
<line x1="0.156303" y1="-0.156303" x2="47.597" y2="-0.156303" transform="matrix(-1 -1.11664e-08 1.54675e-06 -1 404.581 45.8979)" stroke="#E0E0E0" stroke-width="0.312605" stroke-linecap="round"/>
<line x1="0.156303" y1="-0.156303" x2="47.597" y2="-0.156303" transform="matrix(-1 -1.11664e-08 1.54675e-06 -1 404.581 50.2659)" stroke="#E0E0E0" stroke-width="0.312605" stroke-linecap="round"/>
<line x1="0.156303" y1="-0.156303" x2="47.597" y2="-0.156303" transform="matrix(-1 -1.11664e-08 1.54675e-06 -1 404.581 54.6348)" stroke="#E0E0E0" stroke-width="0.312605" stroke-linecap="round"/>
<path d="M359.368 59.4926L377.422 50.352H388.756L404.238 38.8379" stroke="#4482F0" stroke-width="1.04202"/>
</g>
<path d="M411.529 55.3516C411.529 55.6393 411.762 55.8726 412.05 55.8726C412.338 55.8726 412.571 55.6393 412.571 55.3516L411.529 55.3516ZM412.418 42.768C412.215 42.5645 411.885 42.5645 411.681 42.768L408.366 46.0836C408.162 46.2871 408.162 46.617 408.366 46.8205C408.569 47.0239 408.899 47.0239 409.103 46.8205L412.05 43.8732L414.997 46.8205C415.201 47.0239 415.53 47.0239 415.734 46.8205C415.937 46.617 415.937 46.2871 415.734 46.0836L412.418 42.768ZM412.571 55.3516L412.571 43.1364L411.529 43.1364L411.529 55.3516L412.571 55.3516Z" fill="#FF3F48"/>
<path d="M443.839 7.52515L498.998 318.184M615.677 7.52515L573.78 318.184" stroke="#BDBDBD" stroke-width="1.04202" stroke-linecap="round" stroke-dasharray="2.08 5.21"/>
<path d="M499.338 338.817L414.922 620.045" stroke="#BDBDBD" stroke-width="1.04202" stroke-linecap="round" stroke-dasharray="2.08 5.21"/>
<path d="M573.865 338.817L649.821 650.575" stroke="#BDBDBD" stroke-width="1.04202" stroke-linecap="round" stroke-dasharray="2.08 5.21"/>
<circle cx="438.608" cy="150.589" r="7.03659" fill="#4482F0"/>
<path d="M428.39 151.517C428.593 151.313 428.593 150.983 428.39 150.78L425.074 147.464C424.871 147.261 424.541 147.261 424.337 147.464C424.134 147.668 424.134 147.998 424.337 148.201L427.285 151.148L424.337 154.096C424.134 154.299 424.134 154.629 424.337 154.833C424.541 155.036 424.871 155.036 425.074 154.833L428.39 151.517ZM269.939 191.274V171.989H268.897V191.274H269.939ZM290.259 151.669H428.021V150.627H290.259V151.669ZM269.939 171.989C269.939 160.767 279.037 151.669 290.259 151.669V150.627C278.461 150.627 268.897 160.191 268.897 171.989H269.939Z" fill="#4482F0"/>
</g>
<path d="M46.8996 196.165V197.013H43.2485V200.555H42.1678V192.556H47.4613V193.405H43.2485V196.165H46.8996ZM49.6899 194.608V200.555H48.6092V194.608H49.6899ZM49.6899 191.982V193.088H48.6092V191.982H49.6899ZM51.3567 194.608H52.3214L52.4007 195.493C52.8119 194.83 53.4 194.498 54.1653 194.498C54.8165 194.498 55.3151 194.689 55.6611 195.072C56.0071 195.45 56.1801 196.026 56.1801 196.8V200.555H55.0994V196.824C55.0994 196.307 54.9976 195.937 54.7941 195.713C54.5906 195.489 54.2731 195.377 53.8417 195.377C53.5323 195.377 53.2576 195.45 53.0174 195.597C52.7773 195.744 52.5839 195.951 52.4374 196.22V200.555H51.3567V194.608ZM57.4989 197.703C57.4989 196.731 57.7044 195.955 58.1156 195.377C58.5267 194.799 59.0884 194.51 59.8007 194.51C60.513 194.51 61.0605 194.763 61.4431 195.267V191.995H62.5299V200.567H61.6446L61.5164 199.834C61.1215 200.4 60.5598 200.683 59.8312 200.683C59.1026 200.683 58.5328 200.424 58.1217 199.907C57.7106 199.386 57.505 198.69 57.505 197.819L57.4989 197.703ZM58.5918 197.703V197.819C58.5918 198.442 58.7159 198.929 58.9642 199.279C59.2166 199.629 59.5951 199.804 60.0999 199.804C60.7104 199.804 61.1622 199.525 61.4553 198.967V196.195C61.1541 195.658 60.7063 195.389 60.1121 195.389C59.6033 195.389 59.2227 195.597 58.9703 196.012C58.718 196.423 58.5918 196.987 58.5918 197.703ZM65.3201 194.608V200.555H64.2394V194.608H65.3201ZM65.3201 191.982V193.088H64.2394V191.982H65.3201ZM66.9869 194.608H67.9516L68.031 195.493C68.4421 194.83 69.0303 194.498 69.7955 194.498C70.4468 194.498 70.9454 194.689 71.2914 195.072C71.6373 195.45 71.8103 196.026 71.8103 196.8V200.555H70.7297V196.824C70.7297 196.307 70.6279 195.937 70.4244 195.713C70.2209 195.489 69.9034 195.377 69.4719 195.377C69.1626 195.377 68.8878 195.45 68.6477 195.597C68.4075 195.744 68.2142 195.951 68.0676 196.22V200.555H66.9869V194.608ZM73.1475 198.076V197.96C73.1475 196.987 73.3571 196.212 73.7763 195.634C74.1956 195.056 74.7736 194.767 75.5103 194.767C76.2511 194.767 76.8189 195.062 77.2138 195.652L77.3481 194.877H78.209V200.854C78.209 201.619 77.9871 202.205 77.5435 202.612C77.1039 203.019 76.4648 203.223 75.6263 203.223C75.3373 203.223 75.028 203.182 74.6983 203.101C74.3686 203.023 74.0775 202.918 73.8252 202.783L74.0999 201.941C74.2953 202.051 74.5294 202.14 74.8021 202.209C75.0789 202.278 75.3495 202.313 75.6141 202.313C76.1392 202.313 76.5218 202.195 76.762 201.959C77.0062 201.723 77.1283 201.355 77.1283 200.854V200.182C76.7335 200.687 76.1799 200.939 75.4676 200.939C74.7593 200.939 74.1956 200.679 73.7763 200.158C73.3571 199.633 73.1475 198.939 73.1475 198.076ZM74.2281 197.96V198.076C74.2281 198.69 74.3564 199.175 74.6128 199.529C74.8733 199.883 75.2559 200.06 75.7606 200.06C76.3793 200.06 76.8373 199.775 77.1344 199.205V196.47C76.825 195.921 76.3712 195.646 75.7729 195.646C75.2681 195.646 74.8835 195.855 74.6189 196.275C74.3584 196.69 74.2281 197.252 74.2281 197.96ZM81.9944 199.822C82.377 199.822 82.6782 199.747 82.898 199.596C83.1178 199.441 83.2277 199.238 83.2277 198.986C83.2277 198.733 83.1341 198.534 82.9469 198.387C82.7597 198.237 82.4198 198.104 81.9273 197.99C81.1783 197.828 80.6268 197.612 80.2727 197.343C79.9226 197.07 79.7476 196.696 79.7476 196.22C79.7476 195.744 79.9552 195.338 80.3703 195.005C80.7855 194.667 81.3269 194.498 81.9944 194.498C82.662 194.498 83.2013 194.675 83.6124 195.029C84.0276 195.379 84.225 195.815 84.2046 196.336L84.1924 196.366H83.1606C83.1606 196.094 83.0487 195.857 82.8248 195.658C82.605 195.459 82.3139 195.359 81.9517 195.359C81.5935 195.359 81.3167 195.44 81.1213 195.603C80.9259 195.762 80.8283 195.965 80.8283 196.214C80.8283 196.462 80.9137 196.651 81.0847 196.781C81.2556 196.912 81.5915 197.03 82.0921 197.136C82.8573 197.302 83.4191 197.526 83.7772 197.807C84.1354 198.084 84.3145 198.452 84.3145 198.912C84.3145 199.441 84.1008 199.869 83.6735 200.194C83.2501 200.52 82.6803 200.683 81.9639 200.683C81.2475 200.683 80.6675 200.496 80.2238 200.121C79.7842 199.747 79.5746 199.293 79.5949 198.76L79.6071 198.729H80.639C80.6593 199.095 80.7957 199.372 81.0481 199.559C81.3045 199.743 81.624 199.834 82.0066 199.834L81.9944 199.822ZM90.3774 200.555H89.2906V195.414H88.3564V194.608H89.2906V193.857C89.2906 193.222 89.4534 192.731 89.779 192.385C90.1087 192.039 90.5727 191.866 91.1711 191.866C91.3787 191.866 91.6473 191.905 91.977 191.982L91.8427 192.807C91.688 192.77 91.511 192.752 91.3115 192.752C90.6888 192.752 90.3774 193.12 90.3774 193.857V194.608H91.6107V195.414H90.3774V200.555ZM93.8087 200.561H92.728V194.614H93.6927L93.7965 195.481C94.1587 194.826 94.6513 194.498 95.274 194.498C95.4206 194.498 95.559 194.518 95.6892 194.559L95.5427 195.573L94.9871 195.536C94.4294 195.536 94.0366 195.794 93.8087 196.311V200.561ZM97.3072 197.539V197.661C97.3072 198.32 97.4415 198.847 97.7102 199.242C97.9829 199.637 98.3736 199.834 98.8824 199.834C99.3912 199.834 99.782 199.637 100.055 199.242C100.327 198.843 100.464 198.316 100.464 197.661V197.539C100.464 196.891 100.325 196.368 100.049 195.969C99.7759 195.566 99.3851 195.365 98.8763 195.365C98.3716 195.365 97.9829 195.566 97.7102 195.969C97.4415 196.368 97.3072 196.891 97.3072 197.539ZM96.2204 197.661V197.539C96.2204 196.643 96.4605 195.914 96.9409 195.353C97.4212 194.791 98.0683 194.51 98.8824 194.51C99.6965 194.51 100.344 194.791 100.824 195.353C101.304 195.91 101.544 196.639 101.544 197.539V197.661C101.544 198.564 101.304 199.295 100.824 199.853C100.348 200.406 99.7006 200.683 98.8824 200.683C98.0683 200.683 97.4212 200.404 96.9409 199.846C96.4605 199.289 96.2204 198.56 96.2204 197.661ZM103.956 200.555H102.882V194.608H103.846L103.926 195.389C104.333 194.795 104.935 194.498 105.733 194.498C106.535 194.498 107.078 194.864 107.363 195.597C107.774 194.864 108.381 194.498 109.183 194.498C109.805 194.498 110.288 194.71 110.63 195.133C110.971 195.552 111.142 196.175 111.142 197.001V200.555H110.062V196.989C110.062 196.415 109.964 196.004 109.769 195.756C109.573 195.503 109.28 195.377 108.889 195.377C108.503 195.377 108.193 195.503 107.961 195.756C107.733 196.004 107.599 196.33 107.558 196.733V200.555H106.466V196.989C106.466 196.435 106.364 196.028 106.16 195.768C105.961 195.507 105.662 195.377 105.263 195.377C104.636 195.377 104.2 195.636 103.956 196.153V200.555ZM116.973 200.561H115.893V194.614H116.857L116.961 195.481C117.323 194.826 117.816 194.498 118.439 194.498C118.585 194.498 118.723 194.518 118.854 194.559L118.707 195.573L118.152 195.536C117.594 195.536 117.201 195.794 116.973 196.311V200.561ZM121.442 200.683C120.824 200.683 120.352 200.526 120.026 200.213C119.7 199.899 119.538 199.46 119.538 198.894C119.538 198.328 119.765 197.885 120.221 197.563C120.677 197.241 121.304 197.081 122.102 197.081H123.274V196.494C123.274 196.144 123.166 195.87 122.951 195.67C122.739 195.467 122.45 195.365 122.084 195.365C121.721 195.365 121.43 195.452 121.21 195.627C120.991 195.798 120.881 196.012 120.881 196.269H119.849L119.837 196.238C119.816 195.79 120.024 195.391 120.459 195.041C120.899 194.687 121.457 194.51 122.132 194.51C122.812 194.51 123.354 194.685 123.757 195.035C124.159 195.381 124.361 195.872 124.361 196.507V199.37C124.361 199.83 124.412 200.229 124.514 200.567H123.396C123.319 200.188 123.278 199.891 123.274 199.675C123.063 199.977 122.794 200.221 122.468 200.408C122.147 200.591 121.805 200.683 121.442 200.683ZM120.63 198.918H120.624C120.624 199.187 120.708 199.397 120.875 199.547C121.042 199.698 121.3 199.773 121.65 199.773C122 199.773 122.334 199.675 122.651 199.48C122.973 199.281 123.183 199.049 123.28 198.784V197.813H122.071C121.64 197.813 121.292 197.921 121.027 198.137C120.763 198.349 120.63 198.609 120.63 198.918ZM125.686 197.703C125.686 196.731 125.891 195.955 126.303 195.377C126.714 194.799 127.275 194.51 127.988 194.51C128.7 194.51 129.247 194.763 129.63 195.267V191.995H130.717V200.567H129.832L129.703 199.834C129.308 200.4 128.747 200.683 128.018 200.683C127.29 200.683 126.72 200.424 126.309 199.907C125.898 199.386 125.692 198.69 125.692 197.819L125.686 197.703ZM126.779 197.703V197.819C126.779 198.442 126.903 198.929 127.151 199.279C127.404 199.629 127.782 199.804 128.287 199.804C128.897 199.804 129.349 199.525 129.642 198.967V196.195C129.341 195.658 128.893 195.389 128.299 195.389C127.79 195.389 127.41 195.597 127.157 196.012C126.905 196.423 126.779 196.987 126.779 197.703ZM133.507 194.608V200.555H132.426V194.608H133.507ZM133.507 191.982V193.088H132.426V191.982H133.507ZM136.004 197.539V197.661C136.004 198.32 136.139 198.847 136.407 199.242C136.68 199.637 137.071 199.834 137.58 199.834C138.088 199.834 138.479 199.637 138.752 199.242C139.024 198.843 139.161 198.316 139.161 197.661V197.539C139.161 196.891 139.022 196.368 138.746 195.969C138.473 195.566 138.082 195.365 137.573 195.365C137.069 195.365 136.68 195.566 136.407 195.969C136.139 196.368 136.004 196.891 136.004 197.539ZM134.917 197.661V197.539C134.917 196.643 135.158 195.914 135.638 195.353C136.118 194.791 136.765 194.51 137.58 194.51C138.394 194.51 139.041 194.791 139.521 195.353C140.001 195.91 140.242 196.639 140.242 197.539V197.661C140.242 198.564 140.001 199.295 139.521 199.853C139.045 200.406 138.398 200.683 137.58 200.683C136.765 200.683 136.118 200.404 135.638 199.846C135.158 199.289 134.917 198.56 134.917 197.661ZM141.334 198.076V197.96C141.334 196.987 141.544 196.212 141.963 195.634C142.383 195.056 142.961 194.767 143.697 194.767C144.438 194.767 145.006 195.062 145.401 195.652L145.535 194.877H146.396V200.854C146.396 201.619 146.174 202.205 145.73 202.612C145.291 203.019 144.652 203.223 143.813 203.223C143.524 203.223 143.215 203.182 142.885 203.101C142.556 203.023 142.265 202.918 142.012 202.783L142.287 201.941C142.482 202.051 142.716 202.14 142.989 202.209C143.266 202.278 143.537 202.313 143.801 202.313C144.326 202.313 144.709 202.195 144.949 201.959C145.193 201.723 145.315 201.355 145.315 200.854V200.182C144.92 200.687 144.367 200.939 143.655 200.939C142.946 200.939 142.383 200.679 141.963 200.158C141.544 199.633 141.334 198.939 141.334 198.076ZM142.415 197.96V198.076C142.415 198.69 142.543 199.175 142.8 199.529C143.06 199.883 143.443 200.06 143.948 200.06C144.566 200.06 145.024 199.775 145.321 199.205V196.47C145.012 195.921 144.558 195.646 143.96 195.646C143.455 195.646 143.07 195.855 142.806 196.275C142.545 196.69 142.415 197.252 142.415 197.96ZM149.052 200.561H147.971V194.614H148.936L149.04 195.481C149.402 194.826 149.894 194.498 150.517 194.498C150.664 194.498 150.802 194.518 150.932 194.559L150.786 195.573L150.23 195.536C149.673 195.536 149.28 195.794 149.052 196.311V200.561ZM153.521 200.683C152.902 200.683 152.43 200.526 152.105 200.213C151.779 199.899 151.616 199.46 151.616 198.894C151.616 198.328 151.844 197.885 152.3 197.563C152.756 197.241 153.383 197.081 154.181 197.081H155.353V196.494C155.353 196.144 155.245 195.87 155.029 195.67C154.818 195.467 154.529 195.365 154.162 195.365C153.8 195.365 153.509 195.452 153.289 195.627C153.069 195.798 152.959 196.012 152.959 196.269H151.928L151.915 196.238C151.895 195.79 152.103 195.391 152.538 195.041C152.978 194.687 153.535 194.51 154.211 194.51C154.891 194.51 155.432 194.685 155.835 195.035C156.238 195.381 156.44 195.872 156.44 196.507V199.37C156.44 199.83 156.49 200.229 156.592 200.567H155.475C155.398 200.188 155.357 199.891 155.353 199.675C155.141 199.977 154.873 200.221 154.547 200.408C154.225 200.591 153.883 200.683 153.521 200.683ZM152.709 198.918H152.703C152.703 199.187 152.786 199.397 152.953 199.547C153.12 199.698 153.379 199.773 153.729 199.773C154.079 199.773 154.413 199.675 154.73 199.48C155.052 199.281 155.261 199.049 155.359 198.784V197.813H154.15C153.719 197.813 153.371 197.921 153.106 198.137C152.841 198.349 152.709 198.609 152.709 198.918ZM163.089 197.948V198.064C163.089 198.931 162.881 199.625 162.466 200.146C162.055 200.663 161.489 200.921 160.768 200.921C160.048 200.921 159.492 200.677 159.102 200.188V203.095H158.021V194.864H158.851L159.022 195.634C159.417 195.047 159.987 194.754 160.732 194.754C161.481 194.754 162.061 195.043 162.472 195.621C162.883 196.195 163.089 196.971 163.089 197.948ZM162.002 198.064V197.948C162.002 197.248 161.865 196.688 161.593 196.269C161.324 195.845 160.937 195.634 160.433 195.634C159.834 195.634 159.391 195.896 159.102 196.421V199.297C159.387 199.818 159.834 200.078 160.445 200.078C160.946 200.078 161.33 199.895 161.599 199.529C161.867 199.163 162.002 198.674 162.002 198.064ZM165.5 191.982V195.408C165.928 194.801 166.51 194.498 167.246 194.498C167.898 194.498 168.396 194.691 168.742 195.078C169.088 195.465 169.261 196.049 169.261 196.83V200.555H168.174V196.818C168.174 196.326 168.071 195.963 167.863 195.731C167.656 195.495 167.34 195.377 166.917 195.377C166.314 195.377 165.842 195.64 165.5 196.165V200.555H164.42V191.982H165.5ZM171.801 199.553V200.555H170.83V199.553H171.801ZM171.801 194.742V195.744H170.83V194.742H171.801Z" fill="#333333"/>
<rect x="181.809" y="187.427" width="53.4853" height="18.7386" rx="9.36929" fill="#4482F0"/>
<rect x="241.084" y="187.427" width="53.4853" height="18.7386" rx="9.36929" fill="#4482F0"/>
<rect x="41.1787" y="31.3889" width="125.934" height="137.119" rx="5.02963" fill="#828282"/>
<path d="M115.616 103.44C115.35 103.44 115.081 103.408 114.815 103.342C113.657 103.053 112.737 102.166 112.413 101.021C110.113 92.8966 106.483 86.5319 104.145 86.5319C101.808 86.5319 98.1776 92.8966 95.8775 101.021C95.5531 102.166 94.6329 103.053 93.475 103.342C92.317 103.622 91.0936 103.272 90.2764 102.418C86.1064 98.0561 86.3422 89.8472 86.3846 88.9275C86.3821 86.6791 86.8725 83.7724 87.8438 80.3986C88.2081 79.1284 87.9654 77.7627 87.1738 76.6515C87.001 76.4088 86.8351 76.1661 86.6765 75.9229C84.3582 72.3836 83.1323 68.1575 83.1323 63.7006V61.6555C83.1323 54.0767 91.0331 52.0759 95.2124 52.0759C99.3124 52.0759 102.343 54.0393 104.145 55.6576C105.947 54.0398 108.978 52.0759 113.078 52.0759C117.257 52.0759 125.158 54.0767 125.158 61.6575V63.7025C125.158 68.1595 123.932 72.3856 121.614 75.9249C121.457 76.1651 121.292 76.4083 121.119 76.651C120.327 77.7647 120.084 79.1304 120.449 80.3981C121.418 83.772 121.908 86.6761 121.908 89.0294C121.945 89.8491 122.184 98.0556 118.014 102.417C117.383 103.078 116.511 103.44 115.616 103.44ZM95.2129 56.7456C94.9165 56.748 87.8025 56.8435 87.8025 61.6579V63.703C87.8025 67.2497 88.7645 70.5906 90.5831 73.3663C90.7116 73.5622 90.8421 73.7562 90.9799 73.9502C92.5957 76.2242 93.088 79.0467 92.3293 81.6875C91.4934 84.6035 91.0498 87.1414 91.0498 89.0304C90.9868 90.5852 91.1478 94.1761 92.257 96.91C94.2553 90.8958 98.2387 81.8652 104.146 81.8652C110.048 81.8652 114.031 90.8889 116.029 96.9006C117.143 94.1387 117.302 90.5084 117.241 89.1309C117.238 87.1394 116.797 84.6015 115.959 81.6855C115.2 79.0427 115.692 76.2222 117.311 73.9457C117.446 73.7542 117.577 73.5627 117.703 73.3692C119.527 70.5886 120.489 67.2477 120.489 63.7011V61.656C120.489 56.8628 113.431 56.7461 113.076 56.7436C108.735 56.7461 106.088 60.374 106.062 60.4114C105.189 61.6653 103.102 61.6653 102.228 60.4114C102.131 60.2755 99.5581 56.7456 95.2129 56.7456Z" fill="#FEFEFE"/>
<path d="M55.1168 61.4152C53.8279 61.4152 52.7822 60.369 52.7822 59.0806V49.7413C52.7822 48.4524 53.8284 47.4067 55.1168 47.4067H64.4556C65.7445 47.4067 66.7902 48.4529 66.7902 49.7413C66.7902 51.0302 65.744 52.0759 64.4556 52.0759H57.4514V59.0801C57.4514 60.369 56.4057 61.4152 55.1168 61.4152Z" fill="#FEFEFE"/>
<path d="M153.175 108.109H143.836C142.547 108.109 141.501 107.063 141.501 105.775C141.501 104.486 142.548 103.44 143.836 103.44H150.84V96.4359C150.84 95.147 151.886 94.1013 153.175 94.1013C154.463 94.1013 155.509 95.1475 155.509 96.4359V105.775C155.509 107.063 154.464 108.109 153.175 108.109Z" fill="#FEFEFE"/>
<rect x="52.7822" y="141.91" width="30.3504" height="4.65752" rx="2.32876" fill="#FEFEFE"/>
<rect x="52.7822" y="152.968" width="30.3504" height="4.65752" rx="2.32876" fill="#FEFEFE"/>
<rect x="98.3538" y="141.703" width="57.1559" height="15.9228" fill="#FEFEFE"/>
<rect x="41.6997" y="225.523" width="252.471" height="120.398" rx="7.81513" stroke="#E0E0E0" stroke-width="1.04202"/>
<path d="M68.9672 250.588H66.934V253.494H68.8085C69.305 253.494 69.6897 253.374 69.9624 253.134C70.2351 252.89 70.3715 252.536 70.3715 252.072C70.3715 251.607 70.2534 251.245 70.0174 250.985C69.7853 250.72 69.4353 250.588 68.9672 250.588ZM66.934 247.193V249.745H68.6863C69.0975 249.745 69.4272 249.633 69.6754 249.409C69.9278 249.186 70.054 248.878 70.054 248.488C70.054 247.625 69.5248 247.193 68.4665 247.193H66.934ZM68.8085 254.343H65.8534V246.344H68.4665C69.3213 246.344 69.9787 246.528 70.4386 246.894C70.9027 247.256 71.1347 247.794 71.1347 248.506C71.1347 248.86 71.0227 249.177 70.7989 249.458C70.575 249.739 70.2738 249.947 69.8952 250.081C70.3755 250.187 70.7541 250.423 71.0309 250.789C71.3117 251.152 71.4522 251.583 71.4522 252.084C71.4522 252.812 71.2181 253.372 70.75 253.763C70.286 254.149 69.6388 254.343 68.8085 254.343ZM74.1264 247.193V250.289H76.1046C76.6338 250.289 77.0347 250.148 77.3074 249.867C77.5842 249.587 77.7226 249.214 77.7226 248.75C77.7226 248.286 77.5842 247.912 77.3074 247.627C77.0306 247.338 76.6297 247.193 76.1046 247.193H74.1264ZM76.1046 251.131H74.1264V254.343H73.0457V246.344H76.1046C76.9512 246.344 77.6127 246.562 78.0889 246.998C78.5651 247.429 78.8033 248.013 78.8033 248.75C78.8033 249.483 78.5651 250.063 78.0889 250.49C77.6168 250.918 76.9553 251.131 76.1046 251.131ZM85.0126 249.782V250.631H81.3432V253.494H85.5682V254.343H80.2625V246.344H85.5133V247.193H81.3432V249.782H85.0126Z" fill="#333333"/>
<path d="M98.517 285.505C98.6362 285.225 98.7975 284.902 99.0008 284.538C99.2112 284.173 99.446 283.798 99.7055 283.413C99.9649 283.02 100.242 282.638 100.536 282.266C100.831 281.888 101.129 281.547 101.43 281.246H102.272V285.379H103.039V286.094H102.272V287.756H101.43V286.094H98.517V285.505ZM101.43 282.277C101.241 282.48 101.048 282.704 100.852 282.95C100.663 283.195 100.477 283.455 100.294 283.728C100.112 283.994 99.9403 284.268 99.7791 284.548C99.6248 284.829 99.4846 285.106 99.3584 285.379H101.43V282.277Z" fill="#333333"/>
<path d="M66.9907 298.628L258.38 298.628" stroke="#BDBDBD" stroke-width="1.04202" stroke-linecap="round" stroke-dasharray="2.08 5.21"/>
<line x1="173.588" y1="275.95" x2="173.588" y2="321.666" stroke="#BDBDBD" stroke-width="1.04202" stroke-linecap="round" stroke-dasharray="2.08 5.21"/>
<line x1="218.215" y1="275.95" x2="218.215" y2="321.666" stroke="#BDBDBD" stroke-width="1.04202" stroke-linecap="round" stroke-dasharray="2.08 5.21"/>
<circle cx="77.0621" cy="313.574" r="7.20709" stroke="#BDBDBD" stroke-width="1.04202"/>
<path d="M77.6531 312.925C77.6531 313.108 77.5971 313.265 77.4849 313.399C77.3797 313.532 77.2395 313.598 77.0642 313.598C76.8819 313.598 76.7346 313.532 76.6225 313.399C76.5103 313.265 76.4542 313.108 76.4542 312.925C76.4542 312.743 76.5103 312.582 76.6225 312.441C76.7346 312.301 76.8819 312.231 77.0642 312.231C77.2395 312.231 77.3797 312.301 77.4849 312.441C77.5971 312.582 77.6531 312.743 77.6531 312.925ZM74.8977 313.041C74.8977 311.947 75.0835 311.109 75.4551 310.527C75.8337 309.938 76.363 309.644 77.0432 309.644C77.7303 309.644 78.2596 309.938 78.6312 310.527C79.0028 311.109 79.1887 311.947 79.1887 313.041C79.1887 314.135 79.0028 314.976 78.6312 315.565C78.2596 316.147 77.7303 316.438 77.0432 316.438C76.363 316.438 75.8337 316.147 75.4551 315.565C75.0835 314.976 74.8977 314.135 74.8977 313.041ZM78.3052 313.041C78.3052 312.683 78.2842 312.347 78.2421 312.031C78.2 311.709 78.1299 311.428 78.0318 311.19C77.9336 310.952 77.8039 310.762 77.6426 310.622C77.4814 310.482 77.2815 310.412 77.0432 310.412C76.8048 310.412 76.6049 310.482 76.4437 310.622C76.2824 310.762 76.1527 310.952 76.0545 311.19C75.9564 311.428 75.8863 311.709 75.8442 312.031C75.8021 312.347 75.7811 312.683 75.7811 313.041C75.7811 313.399 75.8021 313.739 75.8442 314.061C75.8863 314.377 75.9564 314.654 76.0545 314.892C76.1527 315.13 76.2824 315.32 76.4437 315.46C76.6049 315.6 76.8048 315.67 77.0432 315.67C77.2815 315.67 77.4814 315.6 77.6426 315.46C77.8039 315.32 77.9336 315.13 78.0318 314.892C78.1299 314.654 78.2 314.377 78.2421 314.061C78.2842 313.739 78.3052 313.399 78.3052 313.041Z" fill="#333333"/>
<circle cx="95.6444" cy="313.574" r="7.20709" stroke="#BDBDBD" stroke-width="1.04202"/>
<path d="M93.7849 311.137C94.1425 310.997 94.4896 310.822 94.8261 310.611C95.1627 310.394 95.4747 310.121 95.7622 309.791H96.3721V315.565H97.6027V316.301H94.1004V315.565H95.5097V311.001C95.4326 311.071 95.338 311.144 95.2258 311.221C95.1206 311.292 95.0014 311.362 94.8682 311.432C94.742 311.502 94.6088 311.569 94.4685 311.632C94.3283 311.695 94.1916 311.747 94.0584 311.789L93.7849 311.137Z" fill="#333333"/>
<circle cx="114.227" cy="313.574" r="7.20709" stroke="#BDBDBD" stroke-width="1.04202"/>
<path d="M115.996 311.453C115.996 311.677 115.95 311.895 115.859 312.105C115.775 312.315 115.659 312.522 115.512 312.725C115.372 312.929 115.21 313.129 115.028 313.325C114.846 313.521 114.66 313.714 114.471 313.903C114.365 314.009 114.243 314.135 114.103 314.282C113.962 314.429 113.829 314.58 113.703 314.734C113.577 314.888 113.472 315.039 113.387 315.186C113.303 315.334 113.261 315.46 113.261 315.565H116.259V316.301H112.315C112.308 316.266 112.304 316.231 112.304 316.196C112.304 316.154 112.304 316.115 112.304 316.08C112.304 315.786 112.353 315.512 112.451 315.26C112.549 315.008 112.676 314.769 112.83 314.545C112.984 314.321 113.156 314.11 113.345 313.914C113.542 313.711 113.734 313.514 113.924 313.325C114.078 313.171 114.225 313.02 114.365 312.873C114.513 312.725 114.639 312.578 114.744 312.431C114.856 312.284 114.944 312.133 115.007 311.979C115.077 311.817 115.112 311.653 115.112 311.484C115.112 311.295 115.081 311.134 115.018 311.001C114.961 310.867 114.881 310.759 114.776 310.675C114.677 310.583 114.562 310.517 114.429 310.475C114.295 310.433 114.152 310.412 113.997 310.412C113.815 310.412 113.647 310.436 113.493 310.485C113.345 310.534 113.212 310.594 113.093 310.664C112.981 310.734 112.883 310.804 112.798 310.874C112.714 310.938 112.651 310.99 112.609 311.032L112.178 310.422C112.234 310.359 112.318 310.282 112.43 310.191C112.542 310.1 112.676 310.016 112.83 309.938C112.991 309.854 113.17 309.784 113.366 309.728C113.563 309.672 113.773 309.644 113.997 309.644C114.677 309.644 115.179 309.802 115.501 310.117C115.831 310.426 115.996 310.871 115.996 311.453Z" fill="#333333"/>
<circle cx="132.809" cy="312.984" r="7.20709" stroke="#BDBDBD" stroke-width="1.04202"/>
<path d="M132.39 315.08C132.944 315.08 133.337 314.971 133.568 314.754C133.807 314.53 133.926 314.232 133.926 313.86C133.926 313.622 133.877 313.422 133.779 313.261C133.68 313.099 133.551 312.97 133.389 312.872C133.228 312.773 133.042 312.703 132.832 312.661C132.622 312.619 132.401 312.598 132.169 312.598H131.949V311.893H132.254C132.408 311.893 132.566 311.879 132.727 311.851C132.895 311.816 133.046 311.76 133.179 311.683C133.319 311.599 133.432 311.487 133.516 311.347C133.6 311.206 133.642 311.028 133.642 310.81C133.642 310.453 133.53 310.2 133.305 310.053C133.088 309.899 132.832 309.822 132.538 309.822C132.236 309.822 131.98 309.867 131.77 309.958C131.559 310.042 131.384 310.13 131.244 310.221L130.907 309.559C131.055 309.453 131.276 309.345 131.57 309.233C131.871 309.113 132.205 309.054 132.569 309.054C132.913 309.054 133.207 309.096 133.453 309.18C133.698 309.264 133.898 309.383 134.052 309.538C134.213 309.692 134.332 309.874 134.41 310.085C134.487 310.288 134.525 310.512 134.525 310.758C134.525 311.101 134.434 311.392 134.252 311.631C134.077 311.869 133.849 312.051 133.568 312.177C133.905 312.276 134.196 312.468 134.441 312.756C134.687 313.036 134.809 313.411 134.809 313.881C134.809 314.162 134.76 314.425 134.662 314.67C134.571 314.908 134.427 315.115 134.231 315.29C134.042 315.466 133.793 315.603 133.484 315.701C133.183 315.799 132.822 315.848 132.401 315.848C132.24 315.848 132.071 315.834 131.896 315.806C131.728 315.785 131.57 315.753 131.423 315.711C131.276 315.676 131.142 315.641 131.023 315.606C130.911 315.564 130.83 315.532 130.781 315.511L130.949 314.765C131.062 314.821 131.24 314.887 131.486 314.964C131.731 315.042 132.033 315.08 132.39 315.08Z" fill="#333333"/>
<circle cx="151.391" cy="312.984" r="7.20709" stroke="#BDBDBD" stroke-width="1.04202"/>
<path d="M149.121 313.461C149.241 313.18 149.402 312.858 149.605 312.493C149.815 312.128 150.05 311.753 150.31 311.368C150.569 310.975 150.846 310.593 151.141 310.221C151.435 309.843 151.733 309.503 152.035 309.201H152.876V313.334H153.644V314.049H152.876V315.711H152.035V314.049H149.121V313.461ZM152.035 310.232C151.845 310.435 151.652 310.659 151.456 310.905C151.267 311.15 151.081 311.41 150.899 311.683C150.716 311.95 150.545 312.223 150.383 312.503C150.229 312.784 150.089 313.061 149.963 313.334H152.035V310.232Z" fill="#333333"/>
<path d="M196.949 287.125C197.503 287.125 197.896 287.016 198.127 286.799C198.365 286.575 198.485 286.277 198.485 285.905C198.485 285.667 198.436 285.467 198.337 285.306C198.239 285.144 198.109 285.015 197.948 284.916C197.787 284.818 197.601 284.748 197.391 284.706C197.18 284.664 196.96 284.643 196.728 284.643H196.507V283.938H196.812C196.967 283.938 197.124 283.924 197.286 283.896C197.454 283.861 197.605 283.805 197.738 283.728C197.878 283.644 197.99 283.532 198.074 283.391C198.159 283.251 198.201 283.072 198.201 282.855C198.201 282.498 198.088 282.245 197.864 282.098C197.647 281.944 197.391 281.866 197.096 281.866C196.795 281.866 196.539 281.912 196.329 282.003C196.118 282.087 195.943 282.175 195.803 282.266L195.466 281.604C195.613 281.498 195.834 281.39 196.129 281.278C196.43 281.158 196.763 281.099 197.128 281.099C197.471 281.099 197.766 281.141 198.011 281.225C198.257 281.309 198.457 281.428 198.611 281.583C198.772 281.737 198.891 281.919 198.968 282.129C199.045 282.333 199.084 282.557 199.084 282.803C199.084 283.146 198.993 283.437 198.811 283.675C198.635 283.914 198.407 284.096 198.127 284.222C198.464 284.32 198.755 284.513 199 284.801C199.245 285.081 199.368 285.456 199.368 285.926C199.368 286.207 199.319 286.47 199.221 286.715C199.13 286.953 198.986 287.16 198.79 287.335C198.6 287.511 198.351 287.647 198.043 287.746C197.741 287.844 197.38 287.893 196.96 287.893C196.798 287.893 196.63 287.879 196.455 287.851C196.286 287.83 196.129 287.798 195.981 287.756C195.834 287.721 195.701 287.686 195.582 287.651C195.47 287.609 195.389 287.577 195.34 287.556L195.508 286.81C195.62 286.866 195.799 286.932 196.045 287.009C196.29 287.087 196.591 287.125 196.949 287.125Z" fill="#333333"/>
<path d="M199.136 312.259C199.136 312.484 199.091 312.701 198.999 312.911C198.915 313.122 198.8 313.329 198.652 313.532C198.512 313.735 198.351 313.935 198.169 314.131C197.986 314.328 197.8 314.52 197.611 314.71C197.506 314.815 197.383 314.941 197.243 315.088C197.103 315.236 196.97 315.386 196.843 315.541C196.717 315.695 196.612 315.846 196.528 315.993C196.444 316.14 196.402 316.266 196.402 316.371H199.399V317.108H195.455C195.448 317.073 195.445 317.038 195.445 317.002C195.445 316.96 195.445 316.922 195.445 316.887C195.445 316.592 195.494 316.319 195.592 316.066C195.69 315.814 195.816 315.576 195.97 315.351C196.125 315.127 196.297 314.917 196.486 314.72C196.682 314.517 196.875 314.321 197.064 314.131C197.219 313.977 197.366 313.826 197.506 313.679C197.653 313.532 197.779 313.385 197.885 313.237C197.997 313.09 198.084 312.939 198.148 312.785C198.218 312.624 198.253 312.459 198.253 312.291C198.253 312.101 198.221 311.94 198.158 311.807C198.102 311.674 198.021 311.565 197.916 311.481C197.818 311.39 197.702 311.323 197.569 311.281C197.436 311.239 197.292 311.218 197.138 311.218C196.956 311.218 196.787 311.243 196.633 311.292C196.486 311.341 196.353 311.4 196.233 311.47C196.121 311.541 196.023 311.611 195.939 311.681C195.855 311.744 195.792 311.797 195.75 311.839L195.318 311.229C195.375 311.165 195.459 311.088 195.571 310.997C195.683 310.906 195.816 310.822 195.97 310.745C196.132 310.661 196.311 310.591 196.507 310.534C196.703 310.478 196.914 310.45 197.138 310.45C197.818 310.45 198.319 310.608 198.642 310.924C198.971 311.232 199.136 311.677 199.136 312.259Z" fill="#333333"/>
<path d="M239.605 287.125C240.159 287.125 240.551 287.016 240.783 286.799C241.021 286.575 241.14 286.277 241.14 285.905C241.14 285.667 241.091 285.467 240.993 285.306C240.895 285.144 240.765 285.015 240.604 284.916C240.443 284.818 240.257 284.748 240.047 284.706C239.836 284.664 239.615 284.643 239.384 284.643H239.163V283.938H239.468C239.622 283.938 239.78 283.924 239.941 283.896C240.11 283.861 240.26 283.805 240.394 283.728C240.534 283.644 240.646 283.532 240.73 283.391C240.814 283.251 240.856 283.072 240.856 282.855C240.856 282.498 240.744 282.245 240.52 282.098C240.302 281.944 240.047 281.866 239.752 281.866C239.451 281.866 239.195 281.912 238.984 282.003C238.774 282.087 238.599 282.175 238.458 282.266L238.122 281.604C238.269 281.498 238.49 281.39 238.785 281.278C239.086 281.158 239.419 281.099 239.784 281.099C240.127 281.099 240.422 281.141 240.667 281.225C240.912 281.309 241.112 281.428 241.267 281.583C241.428 281.737 241.547 281.919 241.624 282.129C241.701 282.333 241.74 282.557 241.74 282.803C241.74 283.146 241.649 283.437 241.466 283.675C241.291 283.914 241.063 284.096 240.783 284.222C241.119 284.32 241.41 284.513 241.656 284.801C241.901 285.081 242.024 285.456 242.024 285.926C242.024 286.207 241.975 286.47 241.877 286.715C241.785 286.953 241.642 287.16 241.445 287.335C241.256 287.511 241.007 287.647 240.699 287.746C240.397 287.844 240.036 287.893 239.615 287.893C239.454 287.893 239.286 287.879 239.111 287.851C238.942 287.83 238.785 287.798 238.637 287.756C238.49 287.721 238.357 287.686 238.238 287.651C238.125 287.609 238.045 287.577 237.996 287.556L238.164 286.81C238.276 286.866 238.455 286.932 238.7 287.009C238.946 287.087 239.247 287.125 239.605 287.125Z" fill="#333333"/>
<path d="M237.754 314.857C237.873 314.577 238.034 314.254 238.237 313.889C238.448 313.525 238.683 313.15 238.942 312.764C239.201 312.371 239.478 311.989 239.773 311.618C240.067 311.239 240.365 310.899 240.667 310.598H241.508V314.731H242.276V315.446H241.508V317.108H240.667V315.446H237.754V314.857ZM240.667 311.628C240.478 311.832 240.285 312.056 240.088 312.301C239.899 312.547 239.713 312.806 239.531 313.08C239.349 313.346 239.177 313.619 239.016 313.9C238.861 314.18 238.721 314.457 238.595 314.731H240.667V311.628Z" fill="#333333"/>
<path d="M373.951 242.711C374.154 242.508 374.154 242.178 373.951 241.974L370.635 238.659C370.432 238.455 370.102 238.455 369.898 238.659C369.695 238.862 369.695 239.192 369.898 239.395L372.846 242.343L369.898 245.29C369.695 245.493 369.695 245.823 369.898 246.027C370.102 246.23 370.432 246.23 370.635 246.027L373.951 242.711ZM208.03 201.888V221.502H209.072V201.888H208.03ZM229.392 242.864H373.582V241.822H229.392V242.864ZM208.03 221.502C208.03 233.3 217.594 242.864 229.392 242.864V241.822C218.17 241.822 209.072 232.724 209.072 221.502H208.03Z" fill="#4482F0"/>
<defs>
<filter id="filter0_d" x="0.199834" y="0.72498" width="759.867" height="376.109" filterUnits="userSpaceOnUse" color-interpolation-filters="sRGB">
<feFlood flood-opacity="0" result="BackgroundImageFix"/>
<feColorMatrix in="SourceAlpha" type="matrix" values="0 0 0 0 0 0 0 0 0 0 0 0 0 0 0 0 0 0 127 0"/>
<feOffset dx="1.13336" dy="1.13336"/>
<feGaussianBlur stdDeviation="3.96676"/>
<feColorMatrix type="matrix" values="0 0 0 0 0.509804 0 0 0 0 0.509804 0 0 0 0 0.509804 0 0 0 0.15 0"/>
<feBlend mode="normal" in2="BackgroundImageFix" result="effect1_dropShadow"/>
<feBlend mode="normal" in="SourceGraphic" in2="effect1_dropShadow" result="shape"/>
</filter>
</defs>
</svg>
