<svg width="495" height="315" viewBox="0 0 495 315" fill="none" xmlns="http://www.w3.org/2000/svg">
<g filter="url(#filter0_d)">
<rect x="6.94043" y="6.52173" width="480" height="300" rx="8" fill="#FEFEFE"/>
</g>
<rect x="217.5" y="176.146" width="255.14" height="100.949" rx="7.5" fill="white" stroke="#BDBDBD"/>
<path d="M233.93 208.077C234.015 208.077 234.094 208.077 234.172 208.052C234.566 207.963 234.893 207.683 235.044 207.303C235.105 207.15 235.141 206.979 235.141 206.808H232.72C232.72 207.144 232.847 207.467 233.074 207.705C233.301 207.943 233.609 208.077 233.93 208.077ZM237.865 200.779C237.865 198.83 236.569 197.199 234.838 196.768V196.336C234.838 196.084 234.743 195.842 234.572 195.663C234.402 195.485 234.171 195.384 233.93 195.384C233.69 195.384 233.459 195.485 233.288 195.663C233.118 195.842 233.022 196.084 233.022 196.336V196.768C231.285 197.199 229.996 198.83 229.996 200.779V204.269L228.786 205.538V206.173H239.075V205.538L237.865 204.269V200.779ZM239.057 200.461H240.268C240.177 198.424 239.221 196.635 237.774 195.479L236.908 196.387C238.143 197.288 238.966 198.78 239.057 200.461ZM230.952 196.387L230.087 195.479C228.64 196.635 227.684 198.424 227.575 200.461H228.786C228.894 198.78 229.718 197.288 230.952 196.387Z" fill="#4482F0"/>
<path d="M249.839 201.403H247.906V204.731H246.868V197.055H249.646C250.49 197.055 251.132 197.24 251.573 197.612C252.015 197.983 252.236 198.526 252.236 199.24C252.236 200.037 251.833 200.612 251.029 200.963C251.822 201.221 252.218 201.824 252.218 202.774V203.494C252.218 204.018 252.335 204.387 252.57 204.602V204.731H251.497C251.282 204.539 251.175 204.125 251.175 203.489V202.785C251.175 202.367 251.054 202.033 250.812 201.783C250.57 201.53 250.245 201.403 249.839 201.403ZM247.906 197.869V200.588H249.54C250.126 200.588 250.548 200.479 250.806 200.26C251.068 200.037 251.198 199.694 251.198 199.229C251.198 198.323 250.681 197.869 249.646 197.869H247.906ZM257.333 201.186C257.333 200.756 257.222 200.41 256.999 200.149C256.777 199.883 256.456 199.75 256.038 199.75C255.695 199.75 255.398 199.895 255.148 200.184C254.902 200.473 254.749 200.842 254.691 201.291L254.702 201.321H257.333V201.186ZM256.197 204.854C255.404 204.854 254.771 204.592 254.298 204.069C253.829 203.545 253.595 202.856 253.595 202V201.766C253.595 200.965 253.833 200.293 254.31 199.75C254.79 199.203 255.366 198.93 256.038 198.93C256.796 198.93 257.374 199.158 257.773 199.615C258.175 200.069 258.376 200.692 258.376 201.485V202.135H254.673L254.656 202.158C254.667 202.721 254.808 203.176 255.077 203.524C255.351 203.867 255.724 204.039 256.197 204.039C256.861 204.039 257.4 203.852 257.814 203.477L258.224 204.151H258.218C257.741 204.619 257.068 204.854 256.197 204.854ZM260.591 204.731H259.56V199.024H260.486L260.562 199.774C260.952 199.203 261.531 198.918 262.296 198.918C263.066 198.918 263.587 199.27 263.861 199.973C264.255 199.27 264.837 198.918 265.607 198.918C266.204 198.918 266.667 199.121 266.995 199.528C267.323 199.93 267.488 200.528 267.488 201.321V204.731H266.45V201.309C266.45 200.758 266.357 200.364 266.169 200.125C265.982 199.883 265.7 199.762 265.325 199.762C264.954 199.762 264.657 199.883 264.435 200.125C264.216 200.364 264.087 200.676 264.048 201.063V204.731H262.999V201.309C262.999 200.778 262.902 200.387 262.706 200.137C262.515 199.887 262.228 199.762 261.845 199.762C261.243 199.762 260.825 200.01 260.591 200.506V204.731ZM270.118 199.024V204.731H269.081V199.024H270.118ZM270.118 196.504V197.565H269.081V196.504H270.118ZM271.718 199.024H272.644L272.72 199.873C273.115 199.237 273.679 198.918 274.413 198.918C275.038 198.918 275.517 199.102 275.849 199.469C276.181 199.832 276.347 200.385 276.347 201.127V204.731H275.31V201.151C275.31 200.655 275.212 200.299 275.017 200.084C274.822 199.869 274.517 199.762 274.103 199.762C273.806 199.762 273.542 199.832 273.312 199.973C273.081 200.114 272.896 200.313 272.755 200.571V204.731H271.718V199.024ZM277.613 201.994C277.613 201.061 277.81 200.317 278.204 199.762C278.599 199.207 279.138 198.93 279.822 198.93C280.505 198.93 281.031 199.172 281.398 199.656V196.516H282.441V204.742H281.591L281.468 204.039C281.089 204.582 280.55 204.854 279.851 204.854C279.152 204.854 278.605 204.606 278.21 204.11C277.816 203.61 277.618 202.942 277.618 202.106L277.613 201.994ZM278.661 201.994V202.106C278.661 202.703 278.781 203.17 279.019 203.506C279.261 203.842 279.624 204.01 280.109 204.01C280.695 204.01 281.128 203.742 281.409 203.207V200.547C281.12 200.031 280.691 199.774 280.12 199.774C279.632 199.774 279.267 199.973 279.025 200.371C278.782 200.766 278.661 201.307 278.661 201.994ZM287.497 201.186C287.497 200.756 287.386 200.41 287.163 200.149C286.941 199.883 286.62 199.75 286.202 199.75C285.859 199.75 285.562 199.895 285.312 200.184C285.066 200.473 284.913 200.842 284.855 201.291L284.866 201.321H287.497V201.186ZM286.361 204.854C285.568 204.854 284.935 204.592 284.462 204.069C283.993 203.545 283.759 202.856 283.759 202V201.766C283.759 200.965 283.997 200.293 284.474 199.75C284.954 199.203 285.531 198.93 286.202 198.93C286.96 198.93 287.538 199.158 287.937 199.615C288.339 200.069 288.54 200.692 288.54 201.485V202.135H284.837L284.82 202.158C284.831 202.721 284.972 203.176 285.241 203.524C285.515 203.867 285.888 204.039 286.361 204.039C287.025 204.039 287.564 203.852 287.978 203.477L288.388 204.151H288.382C287.906 204.619 287.232 204.854 286.361 204.854ZM290.755 204.737H289.718V199.03H290.644L290.743 199.862C291.091 199.233 291.564 198.918 292.161 198.918C292.302 198.918 292.435 198.938 292.56 198.977L292.419 199.949L291.886 199.914C291.351 199.914 290.974 200.162 290.755 200.658V204.737Z" fill="#717171"/>
<path d="M232.802 231.374H230.223V235.811H228.841V225.577H232.544C233.669 225.577 234.525 225.824 235.114 226.319C235.703 226.814 235.997 227.538 235.997 228.491C235.997 229.553 235.46 230.319 234.387 230.788C235.445 231.132 235.973 231.936 235.973 233.202V234.163C235.973 234.861 236.13 235.353 236.442 235.639V235.811H235.012C234.726 235.556 234.583 235.004 234.583 234.155V233.218C234.583 232.66 234.421 232.215 234.098 231.882C233.775 231.543 233.343 231.374 232.802 231.374ZM230.223 226.663V230.288H232.403C233.184 230.288 233.747 230.142 234.091 229.85C234.44 229.553 234.614 229.095 234.614 228.475C234.614 227.267 233.924 226.663 232.544 226.663H230.223ZM242.794 231.085C242.794 230.512 242.645 230.051 242.348 229.702C242.052 229.348 241.624 229.171 241.067 229.171C240.609 229.171 240.213 229.363 239.88 229.749C239.552 230.134 239.348 230.626 239.27 231.225L239.286 231.264H242.794V231.085ZM241.278 235.975C240.221 235.975 239.377 235.626 238.747 234.928C238.122 234.231 237.809 233.311 237.809 232.171V231.858C237.809 230.79 238.127 229.895 238.762 229.171C239.403 228.441 240.171 228.077 241.067 228.077C242.078 228.077 242.848 228.382 243.38 228.991C243.916 229.595 244.184 230.426 244.184 231.483V232.35H239.247L239.223 232.382C239.239 233.132 239.427 233.738 239.786 234.202C240.15 234.66 240.648 234.889 241.278 234.889C242.163 234.889 242.882 234.639 243.434 234.139L243.981 235.038H243.973C243.338 235.663 242.44 235.975 241.278 235.975ZM247.137 235.811H245.762V228.202H246.997L247.098 229.202C247.619 228.441 248.39 228.061 249.411 228.061C250.437 228.061 251.132 228.53 251.497 229.468C252.023 228.53 252.799 228.061 253.825 228.061C254.622 228.061 255.239 228.332 255.677 228.874C256.114 229.41 256.333 230.207 256.333 231.264V235.811H254.95V231.249C254.95 230.514 254.825 229.988 254.575 229.671C254.325 229.348 253.95 229.186 253.45 229.186C252.955 229.186 252.559 229.348 252.262 229.671C251.971 229.988 251.799 230.405 251.747 230.921V235.811H250.348V231.249C250.348 230.54 250.218 230.02 249.958 229.686C249.703 229.353 249.32 229.186 248.809 229.186C248.007 229.186 247.45 229.517 247.137 230.178V235.811ZM259.841 228.202V235.811H258.458V228.202H259.841ZM259.841 224.843V226.257H258.458V224.843H259.841ZM261.973 228.202H263.208L263.309 229.335C263.835 228.486 264.588 228.061 265.567 228.061C266.4 228.061 267.038 228.306 267.481 228.796C267.924 229.28 268.145 230.017 268.145 231.007V235.811H266.762V231.038C266.762 230.376 266.632 229.902 266.372 229.616C266.111 229.33 265.705 229.186 265.153 229.186C264.757 229.186 264.406 229.28 264.098 229.468C263.791 229.655 263.544 229.921 263.356 230.264V235.811H261.973V228.202ZM269.833 232.163C269.833 230.918 270.096 229.926 270.622 229.186C271.148 228.447 271.867 228.077 272.778 228.077C273.69 228.077 274.39 228.4 274.88 229.046V224.858H276.27V235.827H275.137L274.973 234.889C274.468 235.613 273.749 235.975 272.817 235.975C271.885 235.975 271.156 235.645 270.63 234.983C270.104 234.316 269.841 233.426 269.841 232.311L269.833 232.163ZM271.231 232.163V232.311C271.231 233.108 271.39 233.731 271.708 234.178C272.031 234.626 272.515 234.85 273.161 234.85C273.942 234.85 274.52 234.494 274.895 233.78V230.233C274.51 229.546 273.937 229.202 273.177 229.202C272.525 229.202 272.038 229.468 271.716 229.999C271.393 230.525 271.231 231.246 271.231 232.163ZM229.02 247.382H230.419V249.218H231.856V250.249H230.419V254.866C230.419 255.512 230.687 255.835 231.223 255.835C231.39 255.835 231.562 255.803 231.739 255.741L231.919 256.686C231.669 256.879 231.317 256.975 230.864 256.975C230.281 256.975 229.828 256.801 229.505 256.452C229.182 256.103 229.02 255.574 229.02 254.866V250.249H227.817V249.218H229.02V247.382ZM234.63 252.952V253.108C234.63 253.952 234.802 254.626 235.145 255.132C235.494 255.637 235.994 255.889 236.645 255.889C237.296 255.889 237.796 255.637 238.145 255.132C238.494 254.621 238.669 253.947 238.669 253.108V252.952C238.669 252.124 238.492 251.455 238.137 250.944C237.788 250.428 237.288 250.171 236.637 250.171C235.992 250.171 235.494 250.428 235.145 250.944C234.802 251.455 234.63 252.124 234.63 252.952ZM233.239 253.108V252.952C233.239 251.806 233.546 250.874 234.161 250.155C234.775 249.436 235.604 249.077 236.645 249.077C237.687 249.077 238.515 249.436 239.13 250.155C239.744 250.869 240.052 251.801 240.052 252.952V253.108C240.052 254.264 239.744 255.199 239.13 255.913C238.52 256.621 237.692 256.975 236.645 256.975C235.604 256.975 234.775 256.619 234.161 255.905C233.546 255.191 233.239 254.259 233.239 253.108ZM245.512 253.639V253.491C245.512 252.246 245.781 251.254 246.317 250.514C246.854 249.775 247.593 249.405 248.536 249.405C249.484 249.405 250.21 249.783 250.716 250.538L250.887 249.546H251.989V257.194C251.989 258.173 251.705 258.923 251.137 259.444C250.575 259.965 249.757 260.225 248.684 260.225C248.315 260.225 247.919 260.173 247.497 260.069C247.075 259.97 246.703 259.835 246.38 259.663L246.731 258.585C246.981 258.725 247.281 258.84 247.63 258.928C247.984 259.017 248.33 259.061 248.669 259.061C249.341 259.061 249.83 258.91 250.137 258.608C250.45 258.306 250.606 257.835 250.606 257.194V256.335C250.101 256.981 249.393 257.303 248.481 257.303C247.575 257.303 246.854 256.97 246.317 256.303C245.781 255.632 245.512 254.744 245.512 253.639ZM246.895 253.491V253.639C246.895 254.426 247.059 255.046 247.387 255.499C247.721 255.952 248.21 256.178 248.856 256.178C249.648 256.178 250.234 255.814 250.614 255.085V251.585C250.218 250.882 249.637 250.53 248.872 250.53C248.226 250.53 247.734 250.798 247.395 251.335C247.062 251.866 246.895 252.585 246.895 253.491ZM258.669 252.085C258.669 251.512 258.52 251.051 258.223 250.702C257.927 250.348 257.499 250.171 256.942 250.171C256.484 250.171 256.088 250.363 255.755 250.749C255.427 251.134 255.223 251.626 255.145 252.225L255.161 252.264H258.669V252.085ZM257.153 256.975C256.096 256.975 255.252 256.626 254.622 255.928C253.997 255.231 253.684 254.311 253.684 253.171V252.858C253.684 251.79 254.002 250.895 254.637 250.171C255.278 249.441 256.046 249.077 256.942 249.077C257.953 249.077 258.723 249.382 259.255 249.991C259.791 250.595 260.059 251.426 260.059 252.483V253.35H255.122L255.098 253.382C255.114 254.132 255.302 254.738 255.661 255.202C256.025 255.66 256.523 255.889 257.153 255.889C258.038 255.889 258.757 255.639 259.309 255.139L259.856 256.038H259.848C259.213 256.663 258.315 256.975 257.153 256.975ZM262.067 247.382H263.466V249.218H264.903V250.249H263.466V254.866C263.466 255.512 263.734 255.835 264.27 255.835C264.437 255.835 264.609 255.803 264.786 255.741L264.966 256.686C264.716 256.879 264.364 256.975 263.911 256.975C263.328 256.975 262.874 256.801 262.552 256.452C262.229 256.103 262.067 255.574 262.067 254.866V250.249H260.864V249.218H262.067V247.382ZM273.505 255.874C273.994 255.874 274.38 255.777 274.661 255.585C274.942 255.387 275.083 255.126 275.083 254.803C275.083 254.481 274.963 254.225 274.723 254.038C274.484 253.845 274.049 253.676 273.419 253.53C272.46 253.322 271.755 253.046 271.302 252.702C270.854 252.353 270.63 251.874 270.63 251.264C270.63 250.655 270.895 250.137 271.427 249.71C271.958 249.277 272.65 249.061 273.505 249.061C274.359 249.061 275.049 249.288 275.575 249.741C276.106 250.189 276.359 250.746 276.333 251.413L276.317 251.452H274.997C274.997 251.103 274.854 250.801 274.567 250.546C274.286 250.29 273.913 250.163 273.45 250.163C272.992 250.163 272.637 250.267 272.387 250.475C272.137 250.678 272.012 250.939 272.012 251.257C272.012 251.574 272.122 251.816 272.341 251.983C272.559 252.15 272.989 252.301 273.63 252.436C274.609 252.65 275.328 252.936 275.786 253.296C276.244 253.65 276.473 254.121 276.473 254.71C276.473 255.387 276.2 255.934 275.653 256.35C275.111 256.767 274.382 256.975 273.466 256.975C272.549 256.975 271.807 256.736 271.239 256.257C270.677 255.777 270.408 255.197 270.434 254.514L270.45 254.475H271.77C271.796 254.944 271.971 255.298 272.294 255.538C272.622 255.772 273.031 255.889 273.52 255.889L273.505 255.874ZM282.872 252.085C282.872 251.512 282.723 251.051 282.427 250.702C282.13 250.348 281.703 250.171 281.145 250.171C280.687 250.171 280.291 250.363 279.958 250.749C279.63 251.134 279.427 251.626 279.348 252.225L279.364 252.264H282.872V252.085ZM281.356 256.975C280.299 256.975 279.455 256.626 278.825 255.928C278.2 255.231 277.887 254.311 277.887 253.171V252.858C277.887 251.79 278.205 250.895 278.841 250.171C279.481 249.441 280.249 249.077 281.145 249.077C282.156 249.077 282.927 249.382 283.458 249.991C283.994 250.595 284.262 251.426 284.262 252.483V253.35H279.325L279.302 253.382C279.317 254.132 279.505 254.738 279.864 255.202C280.229 255.66 280.726 255.889 281.356 255.889C282.242 255.889 282.96 255.639 283.512 255.139L284.059 256.038H284.052C283.416 256.663 282.518 256.975 281.356 256.975ZM286.903 253.171C286.903 253.988 287.054 254.634 287.356 255.108C287.684 255.629 288.208 255.889 288.927 255.889C289.395 255.889 289.802 255.746 290.145 255.46C290.489 255.173 290.661 254.827 290.661 254.421H291.903L291.919 254.468C291.945 255.129 291.656 255.712 291.052 256.218C290.447 256.723 289.739 256.975 288.927 256.975C287.843 256.975 287.002 256.624 286.403 255.921C285.804 255.218 285.505 254.301 285.505 253.171V252.874C285.505 251.749 285.804 250.835 286.403 250.132C287.007 249.428 287.848 249.077 288.927 249.077C289.812 249.077 290.538 249.337 291.106 249.858C291.674 250.379 291.947 251.027 291.927 251.803L291.911 251.843H290.661C290.661 251.374 290.497 250.978 290.169 250.655C289.841 250.332 289.432 250.171 288.942 250.171C288.458 250.171 288.059 250.293 287.747 250.538C287.44 250.783 287.221 251.1 287.091 251.491C286.966 251.882 286.903 252.343 286.903 252.874V253.171ZM294.536 252.952V253.108C294.536 253.952 294.708 254.626 295.052 255.132C295.4 255.637 295.9 255.889 296.552 255.889C297.203 255.889 297.703 255.637 298.052 255.132C298.4 254.621 298.575 253.947 298.575 253.108V252.952C298.575 252.124 298.398 251.455 298.044 250.944C297.695 250.428 297.195 250.171 296.544 250.171C295.898 250.171 295.4 250.428 295.052 250.944C294.708 251.455 294.536 252.124 294.536 252.952ZM293.145 253.108V252.952C293.145 251.806 293.453 250.874 294.067 250.155C294.682 249.436 295.51 249.077 296.552 249.077C297.593 249.077 298.421 249.436 299.036 250.155C299.65 250.869 299.958 251.801 299.958 252.952V253.108C299.958 254.264 299.65 255.199 299.036 255.913C298.427 256.621 297.598 256.975 296.552 256.975C295.51 256.975 294.682 256.619 294.067 255.905C293.453 255.191 293.145 254.259 293.145 253.108ZM301.661 249.202H302.895L302.997 250.335C303.523 249.486 304.275 249.061 305.255 249.061C306.088 249.061 306.726 249.306 307.169 249.796C307.611 250.28 307.833 251.017 307.833 252.007V256.811H306.45V252.038C306.45 251.376 306.32 250.902 306.059 250.616C305.799 250.33 305.393 250.186 304.841 250.186C304.445 250.186 304.093 250.28 303.786 250.468C303.479 250.655 303.231 250.921 303.044 251.264V256.811H301.661V249.202ZM309.52 253.163C309.52 251.918 309.783 250.926 310.309 250.186C310.835 249.447 311.554 249.077 312.466 249.077C313.377 249.077 314.078 249.4 314.567 250.046V245.858H315.958V256.827H314.825L314.661 255.889C314.156 256.613 313.437 256.975 312.505 256.975C311.572 256.975 310.843 256.645 310.317 255.983C309.791 255.316 309.528 254.426 309.528 253.311L309.52 253.163ZM310.919 253.163V253.311C310.919 254.108 311.078 254.731 311.395 255.178C311.718 255.626 312.203 255.85 312.848 255.85C313.63 255.85 314.208 255.494 314.583 254.78V251.233C314.197 250.546 313.624 250.202 312.864 250.202C312.213 250.202 311.726 250.468 311.403 250.999C311.08 251.525 310.919 252.246 310.919 253.163ZM323.161 252.952V253.108C323.161 253.952 323.333 254.626 323.677 255.132C324.025 255.637 324.525 255.889 325.177 255.889C325.828 255.889 326.328 255.637 326.677 255.132C327.025 254.621 327.2 253.947 327.2 253.108V252.952C327.2 252.124 327.023 251.455 326.669 250.944C326.32 250.428 325.82 250.171 325.169 250.171C324.523 250.171 324.025 250.428 323.677 250.944C323.333 251.455 323.161 252.124 323.161 252.952ZM321.77 253.108V252.952C321.77 251.806 322.078 250.874 322.692 250.155C323.307 249.436 324.135 249.077 325.177 249.077C326.218 249.077 327.046 249.436 327.661 250.155C328.275 250.869 328.583 251.801 328.583 252.952V253.108C328.583 254.264 328.275 255.199 327.661 255.913C327.052 256.621 326.223 256.975 325.177 256.975C324.135 256.975 323.307 256.619 322.692 255.905C322.078 255.191 321.77 254.259 321.77 253.108ZM336.77 253.475V253.624C336.77 254.733 336.505 255.621 335.973 256.288C335.447 256.949 334.723 257.28 333.802 257.28C332.88 257.28 332.169 256.968 331.669 256.343V260.061H330.286V249.53H331.348L331.567 250.514C332.072 249.764 332.802 249.389 333.755 249.389C334.713 249.389 335.455 249.759 335.981 250.499C336.507 251.233 336.77 252.225 336.77 253.475ZM335.38 253.624V253.475C335.38 252.58 335.205 251.863 334.856 251.327C334.512 250.785 334.018 250.514 333.372 250.514C332.606 250.514 332.038 250.85 331.669 251.522V255.202C332.033 255.869 332.606 256.202 333.387 256.202C334.028 256.202 334.52 255.968 334.864 255.499C335.208 255.03 335.38 254.405 335.38 253.624ZM339.966 249.202V256.811H338.583V249.202H339.966ZM339.966 245.843V247.257H338.583V245.843H339.966ZM342.098 249.202H343.333L343.434 250.335C343.96 249.486 344.713 249.061 345.692 249.061C346.525 249.061 347.163 249.306 347.606 249.796C348.049 250.28 348.27 251.017 348.27 252.007V256.811H346.887V252.038C346.887 251.376 346.757 250.902 346.497 250.616C346.236 250.33 345.83 250.186 345.278 250.186C344.882 250.186 344.531 250.28 344.223 250.468C343.916 250.655 343.669 250.921 343.481 251.264V256.811H342.098V249.202ZM351.778 249.202V256.811H350.395V249.202H351.778ZM351.778 245.843V247.257H350.395V245.843H351.778ZM354.973 252.952V253.108C354.973 253.952 355.145 254.626 355.489 255.132C355.838 255.637 356.338 255.889 356.989 255.889C357.64 255.889 358.14 255.637 358.489 255.132C358.838 254.621 359.012 253.947 359.012 253.108V252.952C359.012 252.124 358.835 251.455 358.481 250.944C358.132 250.428 357.632 250.171 356.981 250.171C356.335 250.171 355.838 250.428 355.489 250.944C355.145 251.455 354.973 252.124 354.973 252.952ZM353.583 253.108V252.952C353.583 251.806 353.89 250.874 354.505 250.155C355.119 249.436 355.947 249.077 356.989 249.077C358.031 249.077 358.859 249.436 359.473 250.155C360.088 250.869 360.395 251.801 360.395 252.952V253.108C360.395 254.264 360.088 255.199 359.473 255.913C358.864 256.621 358.036 256.975 356.989 256.975C355.947 256.975 355.119 256.619 354.505 255.905C353.89 255.191 353.583 254.259 353.583 253.108ZM362.098 249.202H363.333L363.434 250.335C363.96 249.486 364.713 249.061 365.692 249.061C366.525 249.061 367.163 249.306 367.606 249.796C368.049 250.28 368.27 251.017 368.27 252.007V256.811H366.887V252.038C366.887 251.376 366.757 250.902 366.497 250.616C366.236 250.33 365.83 250.186 365.278 250.186C364.882 250.186 364.531 250.28 364.223 250.468C363.916 250.655 363.669 250.921 363.481 251.264V256.811H362.098V249.202ZM376.309 256.811H374.919V250.233H373.723V249.202H374.919V248.241C374.919 247.428 375.127 246.801 375.544 246.358C375.966 245.915 376.559 245.694 377.325 245.694C377.591 245.694 377.934 245.744 378.356 245.843L378.184 246.897C377.986 246.85 377.76 246.827 377.505 246.827C376.708 246.827 376.309 247.298 376.309 248.241V249.202H377.887V250.233H376.309V256.811ZM380.7 256.819H379.317V249.21H380.552L380.684 250.319C381.148 249.481 381.778 249.061 382.575 249.061C382.762 249.061 382.94 249.087 383.106 249.139L382.919 250.436L382.208 250.389C381.494 250.389 380.992 250.72 380.7 251.382V256.819ZM385.177 252.952V253.108C385.177 253.952 385.348 254.626 385.692 255.132C386.041 255.637 386.541 255.889 387.192 255.889C387.843 255.889 388.343 255.637 388.692 255.132C389.041 254.621 389.216 253.947 389.216 253.108V252.952C389.216 252.124 389.038 251.455 388.684 250.944C388.335 250.428 387.835 250.171 387.184 250.171C386.538 250.171 386.041 250.428 385.692 250.944C385.348 251.455 385.177 252.124 385.177 252.952ZM383.786 253.108V252.952C383.786 251.806 384.093 250.874 384.708 250.155C385.322 249.436 386.15 249.077 387.192 249.077C388.234 249.077 389.062 249.436 389.677 250.155C390.291 250.869 390.598 251.801 390.598 252.952V253.108C390.598 254.264 390.291 255.199 389.677 255.913C389.067 256.621 388.239 256.975 387.192 256.975C386.15 256.975 385.322 256.619 384.708 255.905C384.093 255.191 383.786 254.259 383.786 253.108ZM393.684 256.811H392.309V249.202H393.544L393.645 250.202C394.166 249.441 394.937 249.061 395.958 249.061C396.984 249.061 397.679 249.53 398.044 250.468C398.57 249.53 399.346 249.061 400.372 249.061C401.169 249.061 401.786 249.332 402.223 249.874C402.661 250.41 402.88 251.207 402.88 252.264V256.811H401.497V252.249C401.497 251.514 401.372 250.988 401.122 250.671C400.872 250.348 400.497 250.186 399.997 250.186C399.502 250.186 399.106 250.348 398.809 250.671C398.518 250.988 398.346 251.405 398.294 251.921V256.811H396.895V252.249C396.895 251.54 396.765 251.02 396.505 250.686C396.249 250.353 395.867 250.186 395.356 250.186C394.554 250.186 393.997 250.517 393.684 251.178V256.811Z" fill="#717171"/>
<path d="M287.348 235.288C287.984 235.288 288.489 235.025 288.864 234.499C288.859 234.384 288.867 234.254 288.887 234.108L289.216 230.319C288.929 230.199 288.658 230.139 288.403 230.139L288.395 230.147C287.817 230.147 287.372 230.4 287.059 230.905C286.747 231.41 286.544 232.191 286.45 233.249C286.346 234.608 286.645 235.288 287.348 235.288ZM290.387 236.311C290.044 236.311 289.749 236.215 289.505 236.022C289.26 235.83 289.083 235.553 288.973 235.194C288.51 235.939 287.83 236.311 286.934 236.311C286.346 236.311 285.89 236.03 285.567 235.468C285.249 234.9 285.132 234.158 285.216 233.241C285.32 232.027 285.64 231.053 286.177 230.319C286.713 229.585 287.369 229.218 288.145 229.218C288.614 229.218 288.994 229.272 289.286 229.382C289.583 229.491 289.924 229.684 290.309 229.96L290.286 229.991H290.325L289.966 234.108C289.893 235.009 290.135 235.46 290.692 235.46C291.265 235.46 291.726 235.199 292.075 234.678C292.424 234.158 292.617 233.475 292.653 232.632C292.726 230.809 292.385 229.405 291.63 228.421C290.874 227.436 289.716 226.944 288.153 226.944C287.2 226.944 286.359 227.189 285.63 227.678C284.906 228.168 284.338 228.856 283.927 229.741C283.52 230.621 283.296 231.642 283.255 232.803C283.171 234.585 283.523 235.983 284.309 236.999C285.096 238.014 286.226 238.522 287.7 238.522C288.111 238.522 288.528 238.473 288.95 238.374C289.372 238.275 289.729 238.142 290.02 237.975L290.294 238.725C289.981 238.918 289.585 239.069 289.106 239.178C288.627 239.293 288.148 239.35 287.669 239.35C285.882 239.35 284.502 238.767 283.528 237.6C282.559 236.439 282.119 234.84 282.208 232.803C282.255 231.814 282.429 230.905 282.731 230.077C283.033 229.249 283.44 228.543 283.95 227.96C284.46 227.371 285.078 226.915 285.802 226.593C286.531 226.264 287.328 226.1 288.192 226.1C289.369 226.1 290.372 226.363 291.2 226.889C292.028 227.415 292.643 228.168 293.044 229.147C293.45 230.126 293.627 231.288 293.575 232.632C293.533 233.684 293.252 234.548 292.731 235.225C292.476 235.564 292.148 235.83 291.747 236.022C291.346 236.215 290.893 236.311 290.387 236.311ZM296.684 235.811H295.309V228.202H296.544L296.645 229.202C297.166 228.441 297.937 228.061 298.958 228.061C299.984 228.061 300.679 228.53 301.044 229.468C301.57 228.53 302.346 228.061 303.372 228.061C304.169 228.061 304.786 228.332 305.223 228.874C305.661 229.41 305.88 230.207 305.88 231.264V235.811H304.497V231.249C304.497 230.514 304.372 229.988 304.122 229.671C303.872 229.348 303.497 229.186 302.997 229.186C302.502 229.186 302.106 229.348 301.809 229.671C301.518 229.988 301.346 230.405 301.294 230.921V235.811H299.895V231.249C299.895 230.54 299.765 230.02 299.505 229.686C299.249 229.353 298.867 229.186 298.356 229.186C297.554 229.186 296.997 229.517 296.684 230.178V235.811ZM312.559 231.085C312.559 230.512 312.411 230.051 312.114 229.702C311.817 229.348 311.39 229.171 310.833 229.171C310.374 229.171 309.979 229.363 309.645 229.749C309.317 230.134 309.114 230.626 309.036 231.225L309.052 231.264H312.559V231.085ZM311.044 235.975C309.986 235.975 309.143 235.626 308.512 234.928C307.887 234.231 307.575 233.311 307.575 232.171V231.858C307.575 230.79 307.893 229.895 308.528 229.171C309.169 228.441 309.937 228.077 310.833 228.077C311.843 228.077 312.614 228.382 313.145 228.991C313.682 229.595 313.95 230.426 313.95 231.483V232.35H309.012L308.989 232.382C309.005 233.132 309.192 233.738 309.552 234.202C309.916 234.66 310.413 234.889 311.044 234.889C311.929 234.889 312.648 234.639 313.2 234.139L313.747 235.038H313.739C313.104 235.663 312.205 235.975 311.044 235.975ZM324.52 235.288C325.156 235.288 325.661 235.025 326.036 234.499C326.031 234.384 326.038 234.254 326.059 234.108L326.387 230.319C326.101 230.199 325.83 230.139 325.575 230.139L325.567 230.147C324.989 230.147 324.544 230.4 324.231 230.905C323.919 231.41 323.716 232.191 323.622 233.249C323.518 234.608 323.817 235.288 324.52 235.288ZM327.559 236.311C327.216 236.311 326.921 236.215 326.677 236.022C326.432 235.83 326.255 235.553 326.145 235.194C325.682 235.939 325.002 236.311 324.106 236.311C323.518 236.311 323.062 236.03 322.739 235.468C322.421 234.9 322.304 234.158 322.387 233.241C322.492 232.027 322.812 231.053 323.348 230.319C323.885 229.585 324.541 229.218 325.317 229.218C325.786 229.218 326.166 229.272 326.458 229.382C326.755 229.491 327.096 229.684 327.481 229.96L327.458 229.991H327.497L327.137 234.108C327.065 235.009 327.307 235.46 327.864 235.46C328.437 235.46 328.898 235.199 329.247 234.678C329.596 234.158 329.788 233.475 329.825 232.632C329.898 230.809 329.557 229.405 328.802 228.421C328.046 227.436 326.887 226.944 325.325 226.944C324.372 226.944 323.531 227.189 322.802 227.678C322.078 228.168 321.51 228.856 321.098 229.741C320.692 230.621 320.468 231.642 320.427 232.803C320.343 234.585 320.695 235.983 321.481 236.999C322.268 238.014 323.398 238.522 324.872 238.522C325.283 238.522 325.7 238.473 326.122 238.374C326.544 238.275 326.9 238.142 327.192 237.975L327.466 238.725C327.153 238.918 326.757 239.069 326.278 239.178C325.799 239.293 325.32 239.35 324.841 239.35C323.054 239.35 321.674 238.767 320.7 237.6C319.731 236.439 319.291 234.84 319.38 232.803C319.427 231.814 319.601 230.905 319.903 230.077C320.205 229.249 320.611 228.543 321.122 227.96C321.632 227.371 322.249 226.915 322.973 226.593C323.703 226.264 324.499 226.1 325.364 226.1C326.541 226.1 327.544 226.363 328.372 226.889C329.2 227.415 329.815 228.168 330.216 229.147C330.622 230.126 330.799 231.288 330.747 232.632C330.705 233.684 330.424 234.548 329.903 235.225C329.648 235.564 329.32 235.83 328.919 236.022C328.518 236.215 328.065 236.311 327.559 236.311ZM332.911 226.382H334.309V228.218H335.747V229.249H334.309V233.866C334.309 234.512 334.578 234.835 335.114 234.835C335.281 234.835 335.453 234.803 335.63 234.741L335.809 235.686C335.559 235.879 335.208 235.975 334.755 235.975C334.171 235.975 333.718 235.801 333.395 235.452C333.072 235.103 332.911 234.574 332.911 233.866V229.249H331.708V228.218H332.911V226.382ZM338.52 231.952V232.108C338.52 232.952 338.692 233.626 339.036 234.132C339.385 234.637 339.885 234.889 340.536 234.889C341.187 234.889 341.687 234.637 342.036 234.132C342.385 233.621 342.559 232.947 342.559 232.108V231.952C342.559 231.124 342.382 230.455 342.028 229.944C341.679 229.428 341.179 229.171 340.528 229.171C339.882 229.171 339.385 229.428 339.036 229.944C338.692 230.455 338.52 231.124 338.52 231.952ZM337.13 232.108V231.952C337.13 230.806 337.437 229.874 338.052 229.155C338.666 228.436 339.494 228.077 340.536 228.077C341.578 228.077 342.406 228.436 343.02 229.155C343.635 229.869 343.942 230.801 343.942 231.952V232.108C343.942 233.264 343.635 234.199 343.02 234.913C342.411 235.621 341.583 235.975 340.536 235.975C339.494 235.975 338.666 235.619 338.052 234.905C337.437 234.191 337.13 233.259 337.13 232.108ZM347.028 235.811H345.653V228.202H346.887L346.989 229.202C347.51 228.441 348.281 228.061 349.302 228.061C350.328 228.061 351.023 228.53 351.387 229.468C351.913 228.53 352.69 228.061 353.716 228.061C354.512 228.061 355.13 228.332 355.567 228.874C356.005 229.41 356.223 230.207 356.223 231.264V235.811H354.841V231.249C354.841 230.514 354.716 229.988 354.466 229.671C354.216 229.348 353.841 229.186 353.341 229.186C352.846 229.186 352.45 229.348 352.153 229.671C351.861 229.988 351.69 230.405 351.637 230.921V235.811H350.239V231.249C350.239 230.54 350.109 230.02 349.848 229.686C349.593 229.353 349.21 229.186 348.7 229.186C347.898 229.186 347.341 229.517 347.028 230.178V235.811ZM359.302 231.952V232.108C359.302 232.952 359.473 233.626 359.817 234.132C360.166 234.637 360.666 234.889 361.317 234.889C361.968 234.889 362.468 234.637 362.817 234.132C363.166 233.621 363.341 232.947 363.341 232.108V231.952C363.341 231.124 363.163 230.455 362.809 229.944C362.46 229.428 361.96 229.171 361.309 229.171C360.663 229.171 360.166 229.428 359.817 229.944C359.473 230.455 359.302 231.124 359.302 231.952ZM357.911 232.108V231.952C357.911 230.806 358.218 229.874 358.833 229.155C359.447 228.436 360.275 228.077 361.317 228.077C362.359 228.077 363.187 228.436 363.802 229.155C364.416 229.869 364.723 230.801 364.723 231.952V232.108C364.723 233.264 364.416 234.199 363.802 234.913C363.192 235.621 362.364 235.975 361.317 235.975C360.275 235.975 359.447 235.619 358.833 234.905C358.218 234.191 357.911 233.259 357.911 232.108ZM367.809 235.819H366.427V228.21H367.661L367.794 229.319C368.257 228.481 368.887 228.061 369.684 228.061C369.872 228.061 370.049 228.087 370.216 228.139L370.028 229.436L369.317 229.389C368.604 229.389 368.101 229.72 367.809 230.382V235.819ZM372.747 235.819H371.364V228.21H372.598L372.731 229.319C373.195 228.481 373.825 228.061 374.622 228.061C374.809 228.061 374.986 228.087 375.153 228.139L374.966 229.436L374.255 229.389C373.541 229.389 373.038 229.72 372.747 230.382V235.819ZM377.223 231.952V232.108C377.223 232.952 377.395 233.626 377.739 234.132C378.088 234.637 378.588 234.889 379.239 234.889C379.89 234.889 380.39 234.637 380.739 234.132C381.088 233.621 381.262 232.947 381.262 232.108V231.952C381.262 231.124 381.085 230.455 380.731 229.944C380.382 229.428 379.882 229.171 379.231 229.171C378.585 229.171 378.088 229.428 377.739 229.944C377.395 230.455 377.223 231.124 377.223 231.952ZM375.833 232.108V231.952C375.833 230.806 376.14 229.874 376.755 229.155C377.369 228.436 378.197 228.077 379.239 228.077C380.281 228.077 381.109 228.436 381.723 229.155C382.338 229.869 382.645 230.801 382.645 231.952V232.108C382.645 233.264 382.338 234.199 381.723 234.913C381.114 235.621 380.286 235.975 379.239 235.975C378.197 235.975 377.369 235.619 376.755 234.905C376.14 234.191 375.833 233.259 375.833 232.108ZM385.036 228.202L386.294 233.038L386.458 233.96H386.497L386.692 233.038L388.216 228.202H389.325L390.848 233.038L391.067 234.069H391.114L391.317 233.038L392.512 228.202H393.887L391.677 235.811H390.559L389.091 231.178L388.778 229.882L388.731 229.889L388.434 231.178L386.981 235.811H385.864L383.661 228.202H385.036ZM413.895 256.288C414.531 256.288 415.036 256.025 415.411 255.499C415.406 255.384 415.413 255.254 415.434 255.108L415.762 251.319C415.476 251.199 415.205 251.139 414.95 251.139L414.942 251.147C414.364 251.147 413.919 251.4 413.606 251.905C413.294 252.41 413.091 253.191 412.997 254.249C412.893 255.608 413.192 256.288 413.895 256.288ZM416.934 257.311C416.591 257.311 416.296 257.215 416.052 257.022C415.807 256.83 415.63 256.553 415.52 256.194C415.057 256.939 414.377 257.311 413.481 257.311C412.893 257.311 412.437 257.03 412.114 256.468C411.796 255.9 411.679 255.158 411.762 254.241C411.867 253.027 412.187 252.053 412.723 251.319C413.26 250.585 413.916 250.218 414.692 250.218C415.161 250.218 415.541 250.272 415.833 250.382C416.13 250.491 416.471 250.684 416.856 250.96L416.833 250.991H416.872L416.512 255.108C416.44 256.009 416.682 256.46 417.239 256.46C417.812 256.46 418.273 256.199 418.622 255.678C418.971 255.158 419.163 254.475 419.2 253.632C419.273 251.809 418.932 250.405 418.177 249.421C417.421 248.436 416.262 247.944 414.7 247.944C413.747 247.944 412.906 248.189 412.177 248.678C411.453 249.168 410.885 249.856 410.473 250.741C410.067 251.621 409.843 252.642 409.802 253.803C409.718 255.585 410.07 256.983 410.856 257.999C411.643 259.014 412.773 259.522 414.247 259.522C414.658 259.522 415.075 259.473 415.497 259.374C415.919 259.275 416.275 259.142 416.567 258.975L416.841 259.725C416.528 259.918 416.132 260.069 415.653 260.178C415.174 260.293 414.695 260.35 414.216 260.35C412.429 260.35 411.049 259.767 410.075 258.6C409.106 257.439 408.666 255.84 408.755 253.803C408.802 252.814 408.976 251.905 409.278 251.077C409.58 250.249 409.986 249.543 410.497 248.96C411.007 248.371 411.624 247.915 412.348 247.593C413.078 247.264 413.874 247.1 414.739 247.1C415.916 247.1 416.919 247.363 417.747 247.889C418.575 248.415 419.19 249.168 419.591 250.147C419.997 251.126 420.174 252.288 420.122 253.632C420.08 254.684 419.799 255.548 419.278 256.225C419.023 256.564 418.695 256.83 418.294 257.022C417.893 257.215 417.44 257.311 416.934 257.311ZM426.223 253.991V246.593H427.614V253.991C427.614 254.902 427.328 255.629 426.755 256.171C426.182 256.707 425.408 256.975 424.434 256.975C423.466 256.975 422.695 256.723 422.122 256.218C421.554 255.712 421.281 254.991 421.302 254.053L421.317 254.007H422.645C422.645 254.632 422.804 255.103 423.122 255.421C423.44 255.733 423.874 255.889 424.427 255.889C424.984 255.889 425.421 255.718 425.739 255.374C426.062 255.03 426.223 254.569 426.223 253.991ZM431.966 256.975C431.174 256.975 430.57 256.775 430.153 256.374C429.736 255.973 429.528 255.41 429.528 254.686C429.528 253.962 429.82 253.395 430.403 252.983C430.986 252.572 431.788 252.366 432.809 252.366H434.309V251.616C434.309 251.168 434.171 250.816 433.895 250.561C433.624 250.301 433.255 250.171 432.786 250.171C432.322 250.171 431.95 250.283 431.669 250.507C431.387 250.725 431.247 250.999 431.247 251.327H429.927L429.911 251.288C429.885 250.715 430.15 250.205 430.708 249.757C431.27 249.303 431.984 249.077 432.848 249.077C433.718 249.077 434.411 249.301 434.927 249.749C435.442 250.191 435.7 250.819 435.7 251.632V255.296C435.7 255.884 435.765 256.395 435.895 256.827H434.466C434.367 256.343 434.315 255.962 434.309 255.686C434.038 256.072 433.695 256.384 433.278 256.624C432.867 256.858 432.429 256.975 431.966 256.975ZM430.927 254.718H430.919C430.919 255.061 431.025 255.33 431.239 255.522C431.453 255.715 431.783 255.811 432.231 255.811C432.679 255.811 433.106 255.686 433.512 255.436C433.924 255.181 434.192 254.884 434.317 254.546V253.303H432.77C432.218 253.303 431.773 253.441 431.434 253.718C431.096 253.988 430.927 254.322 430.927 254.718ZM439.114 253.303V256.811H437.731V245.843H439.114V252.202H439.997L442.083 249.202H443.739L441.137 252.663L444.114 256.811H442.481L440.012 253.303H439.114ZM449.637 252.085C449.637 251.512 449.489 251.051 449.192 250.702C448.895 250.348 448.468 250.171 447.911 250.171C447.453 250.171 447.057 250.363 446.723 250.749C446.395 251.134 446.192 251.626 446.114 252.225L446.13 252.264H449.637V252.085ZM448.122 256.975C447.065 256.975 446.221 256.626 445.591 255.928C444.966 255.231 444.653 254.311 444.653 253.171V252.858C444.653 251.79 444.971 250.895 445.606 250.171C446.247 249.441 447.015 249.077 447.911 249.077C448.921 249.077 449.692 249.382 450.223 249.991C450.76 250.595 451.028 251.426 451.028 252.483V253.35H446.091L446.067 253.382C446.083 254.132 446.27 254.738 446.63 255.202C446.994 255.66 447.492 255.889 448.122 255.889C449.007 255.889 449.726 255.639 450.278 255.139L450.825 256.038H450.817C450.182 256.663 449.283 256.975 448.122 256.975Z" fill="#4482F0"/>
<path d="M26.4512 27.6239V32.5751H29.6152C30.4616 32.5751 31.1029 32.3505 31.5391 31.9012C31.9818 31.452 32.2031 30.8563 32.2031 30.1141C32.2031 29.3719 31.9818 28.773 31.5391 28.3173C31.0964 27.855 30.4551 27.6239 29.6152 27.6239H26.4512ZM29.6152 33.9227H26.4512V39.0594H24.7227V26.2665H29.6152C30.9694 26.2665 32.0273 26.6148 32.7891 27.3114C33.5508 28.0015 33.9316 28.9358 33.9316 30.1141C33.9316 31.286 33.5508 32.2137 32.7891 32.8973C32.0339 33.5809 30.9759 33.9227 29.6152 33.9227ZM38.5508 39.2645C37.5612 39.2645 36.806 39.0139 36.2852 38.5126C35.7643 38.0113 35.5039 37.3081 35.5039 36.4032C35.5039 35.4983 35.8685 34.7886 36.5977 34.2743C37.3268 33.76 38.3294 33.5028 39.6055 33.5028H41.4805V32.5653C41.4805 32.0054 41.3079 31.566 40.9629 31.2469C40.6243 30.9214 40.1621 30.7587 39.5762 30.7587C38.9967 30.7587 38.5312 30.8986 38.1797 31.1786C37.8281 31.452 37.6523 31.7938 37.6523 32.204H36.002L35.9824 32.1552C35.9499 31.439 36.2819 30.801 36.9785 30.2411C37.6816 29.6747 38.5736 29.3915 39.6543 29.3915C40.7415 29.3915 41.6074 29.6714 42.252 30.2313C42.8965 30.7847 43.2188 31.5692 43.2188 32.5848V37.1649C43.2188 37.9006 43.3001 38.5386 43.4629 39.079H41.6758C41.5521 38.4735 41.487 37.9983 41.4805 37.6532C41.1419 38.135 40.7122 38.5256 40.1914 38.8251C39.6771 39.118 39.1302 39.2645 38.5508 39.2645ZM37.252 36.4423H37.2422C37.2422 36.8719 37.3757 37.2072 37.6426 37.4481C37.9095 37.689 38.3229 37.8094 38.8828 37.8094C39.4427 37.8094 39.9766 37.6532 40.4844 37.3407C40.9987 37.0217 41.334 36.6506 41.4902 36.2274V34.6747H39.5566C38.8665 34.6747 38.3099 34.8472 37.8867 35.1923C37.4635 35.5308 37.252 35.9475 37.252 36.4423ZM46.2949 27.2723H48.043V29.5673H49.8398V30.8563H48.043V36.6278C48.043 37.4351 48.3783 37.8387 49.0488 37.8387C49.2572 37.8387 49.472 37.7997 49.6934 37.7216L49.918 38.9032C49.6055 39.1441 49.166 39.2645 48.5996 39.2645C47.8704 39.2645 47.304 39.0464 46.9004 38.6102C46.4967 38.174 46.2949 37.5132 46.2949 36.6278V30.8563H44.791V29.5673H46.2949V27.2723ZM53.8438 29.5477V39.0594H52.1152V29.5477H53.8438ZM53.8438 25.3485V27.1161H52.1152V25.3485H53.8438ZM62.3398 33.1512C62.3398 32.4351 62.1543 31.8589 61.7832 31.4227C61.4121 30.98 60.8783 30.7587 60.1816 30.7587C59.6087 30.7587 59.1139 30.9996 58.6973 31.4813C58.2871 31.9631 58.0332 32.5783 57.9355 33.327L57.9551 33.3759H62.3398V33.1512ZM60.4453 39.2645C59.1237 39.2645 58.069 38.8283 57.2812 37.9559C56.5 37.0835 56.1094 35.9344 56.1094 34.5087V34.118C56.1094 32.7834 56.5065 31.6636 57.3008 30.7587C58.1016 29.8472 59.0618 29.3915 60.1816 29.3915C61.4447 29.3915 62.4082 29.7723 63.0723 30.5341C63.7428 31.2893 64.0781 32.3277 64.0781 33.6493V34.7333H57.9062L57.877 34.7723C57.8965 35.7098 58.1309 36.4683 58.5801 37.0477C59.0358 37.6206 59.6576 37.9071 60.4453 37.9071C61.5521 37.9071 62.4505 37.5946 63.1406 36.9696L63.8242 38.0927H63.8145C63.0202 38.8739 61.8971 39.2645 60.4453 39.2645ZM66.041 29.5477H67.584L67.7109 30.9637C68.3685 29.9025 69.3092 29.3719 70.5332 29.3719C71.5749 29.3719 72.3724 29.6779 72.9258 30.2899C73.4792 30.8954 73.7559 31.8166 73.7559 33.0536V39.0594H72.0273V33.0927C72.0273 32.2658 71.8646 31.6734 71.5391 31.3153C71.2135 30.9572 70.7057 30.7782 70.0156 30.7782C69.5208 30.7782 69.0814 30.8954 68.6973 31.1298C68.3132 31.3641 68.0039 31.6962 67.7695 32.1259V39.0594H66.041V29.5477ZM76.8223 27.2723H78.5703V29.5673H80.3672V30.8563H78.5703V36.6278C78.5703 37.4351 78.9056 37.8387 79.5762 37.8387C79.7845 37.8387 79.9993 37.7997 80.2207 37.7216L80.4453 38.9032C80.1328 39.1441 79.6934 39.2645 79.127 39.2645C78.3978 39.2645 77.8314 39.0464 77.4277 38.6102C77.0241 38.174 76.8223 37.5132 76.8223 36.6278V30.8563H75.3184V29.5673H76.8223V27.2723ZM95.6895 34.8895V35.0751C95.6895 36.4618 95.3574 37.5718 94.6934 38.4052C94.0358 39.232 93.1309 39.6454 91.9785 39.6454C90.8262 39.6454 89.9375 39.2548 89.3125 38.4735V43.1219H87.584V29.9579H88.9121L89.1855 31.1884C89.8171 30.2509 90.7285 29.7821 91.9199 29.7821C93.1178 29.7821 94.0456 30.2443 94.7031 31.1688C95.3607 32.0868 95.6895 33.327 95.6895 34.8895ZM93.9512 35.0751V34.8895C93.9512 33.7697 93.7331 32.8746 93.2969 32.204C92.8672 31.5269 92.2487 31.1884 91.4414 31.1884C90.4844 31.1884 89.7747 31.6083 89.3125 32.4481V37.0477C89.7682 37.8811 90.4844 38.2977 91.4609 38.2977C92.2617 38.2977 92.877 38.0048 93.3066 37.4188C93.7363 36.8329 93.9512 36.0516 93.9512 35.0751ZM99.5469 39.0692H97.8184V29.5575H99.3613L99.5273 30.9442C100.107 29.896 100.895 29.3719 101.891 29.3719C102.125 29.3719 102.346 29.4045 102.555 29.4696L102.32 31.0907L101.432 31.0321C100.54 31.0321 99.9115 31.4455 99.5469 32.2723V39.0692ZM105.143 34.2352V34.4305C105.143 35.4852 105.357 36.3283 105.787 36.9598C106.223 37.5913 106.848 37.9071 107.662 37.9071C108.476 37.9071 109.101 37.5913 109.537 36.9598C109.973 36.3218 110.191 35.4787 110.191 34.4305V34.2352C110.191 33.2001 109.97 32.3635 109.527 31.7255C109.091 31.0809 108.466 30.7587 107.652 30.7587C106.845 30.7587 106.223 31.0809 105.787 31.7255C105.357 32.3635 105.143 33.2001 105.143 34.2352ZM103.404 34.4305V34.2352C103.404 32.8029 103.788 31.6376 104.557 30.7391C105.325 29.8407 106.36 29.3915 107.662 29.3915C108.964 29.3915 109.999 29.8407 110.768 30.7391C111.536 31.6311 111.92 32.7964 111.92 34.2352V34.4305C111.92 35.8759 111.536 37.0445 110.768 37.9364C110.006 38.8218 108.971 39.2645 107.662 39.2645C106.36 39.2645 105.325 38.8186 104.557 37.9266C103.788 37.0347 103.404 35.8693 103.404 34.4305ZM116.5 39.0594H114.762V30.8368H113.268V29.5477H114.762V28.3466C114.762 27.3309 115.022 26.5464 115.543 25.993C116.07 25.4397 116.812 25.163 117.77 25.163C118.102 25.163 118.531 25.2248 119.059 25.3485L118.844 26.6669C118.596 26.6083 118.313 26.579 117.994 26.579C116.998 26.579 116.5 27.1682 116.5 28.3466V29.5477H118.473V30.8368H116.5V39.0594ZM122.125 29.5477V39.0594H120.396V29.5477H122.125ZM122.125 25.3485V27.1161H120.396V25.3485H122.125ZM126.656 25.3485V39.0594H124.928V25.3485H126.656ZM135.152 33.1512C135.152 32.4351 134.967 31.8589 134.596 31.4227C134.225 30.98 133.691 30.7587 132.994 30.7587C132.421 30.7587 131.926 30.9996 131.51 31.4813C131.1 31.9631 130.846 32.5783 130.748 33.327L130.768 33.3759H135.152V33.1512ZM133.258 39.2645C131.936 39.2645 130.882 38.8283 130.094 37.9559C129.312 37.0835 128.922 35.9344 128.922 34.5087V34.118C128.922 32.7834 129.319 31.6636 130.113 30.7587C130.914 29.8472 131.874 29.3915 132.994 29.3915C134.257 29.3915 135.221 29.7723 135.885 30.5341C136.555 31.2893 136.891 32.3277 136.891 33.6493V34.7333H130.719L130.689 34.7723C130.709 35.7098 130.943 36.4683 131.393 37.0477C131.848 37.6206 132.47 37.9071 133.258 37.9071C134.365 37.9071 135.263 37.5946 135.953 36.9696L136.637 38.0927H136.627C135.833 38.8739 134.71 39.2645 133.258 39.2645Z" fill="#4482F0"/>
<path d="M256.51 35.3953V33.7888C256.51 32.9548 256.286 32.2804 255.84 31.7654C255.393 31.2458 254.81 30.9861 254.09 30.9861C253.37 30.9861 252.798 31.2458 252.374 31.7654C251.95 32.2849 251.738 32.9594 251.738 33.7888V35.3953C251.738 36.2338 251.948 36.9128 252.367 37.4324C252.791 37.9519 253.365 38.2117 254.09 38.2117C254.814 38.2117 255.398 37.9542 255.84 37.4392C256.286 36.9197 256.51 36.2384 256.51 35.3953ZM257.72 33.8025V35.3953C257.72 36.5027 257.38 37.4141 256.701 38.1296C256.022 38.8451 255.149 39.2029 254.083 39.2029C253.021 39.2029 252.162 38.8451 251.506 38.1296C250.854 37.4141 250.528 36.5027 250.528 35.3953V33.8025C250.528 32.6951 250.854 31.7836 251.506 31.0681C252.162 30.3481 253.021 29.988 254.083 29.988C255.149 29.988 256.022 30.3458 256.701 31.0613C257.38 31.7768 257.72 32.6905 257.72 33.8025ZM264.973 36.1404V36.2703C264.973 37.241 264.74 38.018 264.275 38.6013C263.815 39.1801 263.182 39.4695 262.375 39.4695C261.568 39.4695 260.946 39.196 260.509 38.6492V41.9031H259.299V32.6882H260.229L260.42 33.5496C260.862 32.8933 261.5 32.5652 262.334 32.5652C263.173 32.5652 263.822 32.8888 264.282 33.5359C264.743 34.1785 264.973 35.0466 264.973 36.1404ZM263.756 36.2703V36.1404C263.756 35.3565 263.603 34.7299 263.298 34.2605C262.997 33.7865 262.564 33.5496 261.999 33.5496C261.329 33.5496 260.832 33.8435 260.509 34.4314V37.6511C260.828 38.2345 261.329 38.5261 262.013 38.5261C262.573 38.5261 263.004 38.321 263.305 37.9109C263.605 37.5007 263.756 36.9539 263.756 36.2703ZM266.846 30.8083H268.069V32.4148H269.327V33.3171H268.069V37.3572C268.069 37.9223 268.304 38.2048 268.773 38.2048C268.919 38.2048 269.07 38.1775 269.225 38.1228L269.382 38.95C269.163 39.1186 268.855 39.2029 268.459 39.2029C267.949 39.2029 267.552 39.0502 267.27 38.7449C266.987 38.4395 266.846 37.977 266.846 37.3572V33.3171H265.793V32.4148H266.846V30.8083ZM272.13 32.4011V39.0593H270.92V32.4011H272.13ZM272.13 29.4617V30.699H270.92V29.4617H272.13ZM274.926 35.6824V35.8191C274.926 36.5574 275.076 37.1475 275.377 37.5896C275.682 38.0317 276.12 38.2527 276.689 38.2527C277.259 38.2527 277.697 38.0317 278.002 37.5896C278.307 37.143 278.46 36.5528 278.46 35.8191V35.6824C278.46 34.9578 278.305 34.3722 277.995 33.9255C277.69 33.4744 277.252 33.2488 276.683 33.2488C276.118 33.2488 275.682 33.4744 275.377 33.9255C275.076 34.3722 274.926 34.9578 274.926 35.6824ZM273.709 35.8191V35.6824C273.709 34.6798 273.978 33.864 274.516 33.2351C275.053 32.6062 275.778 32.2917 276.689 32.2917C277.601 32.2917 278.326 32.6062 278.863 33.2351C279.401 33.8595 279.67 34.6752 279.67 35.6824V35.8191C279.67 36.8308 279.401 37.6488 278.863 38.2732C278.33 38.893 277.605 39.2029 276.689 39.2029C275.778 39.2029 275.053 38.8907 274.516 38.2664C273.978 37.642 273.709 36.8263 273.709 35.8191ZM281.16 32.4011H282.24L282.329 33.3923C282.789 32.6495 283.448 32.2781 284.305 32.2781C285.034 32.2781 285.592 32.4923 285.979 32.9207C286.367 33.3445 286.561 33.9893 286.561 34.8552V39.0593H285.351V34.8826C285.351 34.3038 285.237 33.8891 285.009 33.6384C284.781 33.3878 284.425 33.2625 283.942 33.2625C283.596 33.2625 283.288 33.3445 283.02 33.5085C282.751 33.6726 282.534 33.905 282.37 34.2058V39.0593H281.16V32.4011ZM292.262 30.8083H293.485V32.4148H294.743V33.3171H293.485V37.3572C293.485 37.9223 293.72 38.2048 294.189 38.2048C294.335 38.2048 294.486 38.1775 294.641 38.1228L294.798 38.95C294.579 39.1186 294.271 39.2029 293.875 39.2029C293.365 39.2029 292.968 39.0502 292.686 38.7449C292.403 38.4395 292.262 37.977 292.262 37.3572V33.3171H291.209V32.4148H292.262V30.8083ZM297.17 35.6824V35.8191C297.17 36.5574 297.32 37.1475 297.621 37.5896C297.926 38.0317 298.364 38.2527 298.934 38.2527C299.503 38.2527 299.941 38.0317 300.246 37.5896C300.551 37.143 300.704 36.5528 300.704 35.8191V35.6824C300.704 34.9578 300.549 34.3722 300.239 33.9255C299.934 33.4744 299.496 33.2488 298.927 33.2488C298.362 33.2488 297.926 33.4744 297.621 33.9255C297.32 34.3722 297.17 34.9578 297.17 35.6824ZM295.953 35.8191V35.6824C295.953 34.6798 296.222 33.864 296.76 33.2351C297.298 32.6062 298.022 32.2917 298.934 32.2917C299.845 32.2917 300.57 32.6062 301.107 33.2351C301.645 33.8595 301.914 34.6752 301.914 35.6824V35.8191C301.914 36.8308 301.645 37.6488 301.107 38.2732C300.574 38.893 299.85 39.2029 298.934 39.2029C298.022 39.2029 297.298 38.8907 296.76 38.2664C296.222 37.642 295.953 36.8263 295.953 35.8191ZM307.602 32.4011L309.181 37.0974L309.283 37.5623H309.317L309.434 37.0974L310.972 32.4011H312.202L309.755 39.0593H308.839L306.357 32.4011H307.602ZM314.608 32.4011V39.0593H313.398V32.4011H314.608ZM314.608 29.4617V30.699H313.398V29.4617H314.608ZM320.556 34.9236C320.556 34.4223 320.426 34.019 320.166 33.7136C319.906 33.4037 319.533 33.2488 319.045 33.2488C318.644 33.2488 318.298 33.4174 318.006 33.7546C317.719 34.0919 317.541 34.5225 317.473 35.0466L317.486 35.0808H320.556V34.9236ZM319.229 39.2029C318.304 39.2029 317.566 38.8975 317.015 38.2869C316.468 37.6762 316.194 36.8718 316.194 35.8738V35.6003C316.194 34.6661 316.472 33.8822 317.028 33.2488C317.589 32.6108 318.261 32.2917 319.045 32.2917C319.929 32.2917 320.604 32.5583 321.068 33.0916C321.538 33.6202 321.772 34.3471 321.772 35.2722V36.031H317.452L317.432 36.0583C317.445 36.7146 317.609 37.2455 317.924 37.6511C318.243 38.0522 318.678 38.2527 319.229 38.2527C320.004 38.2527 320.633 38.0339 321.116 37.5964L321.595 38.3826H321.588C321.032 38.9294 320.246 39.2029 319.229 39.2029ZM323.748 32.4011L324.849 36.6326L324.992 37.4392H325.026L325.197 36.6326L326.53 32.4011H327.501L328.834 36.6326L329.025 37.5349H329.066L329.244 36.6326L330.29 32.4011H331.493L329.559 39.0593H328.581L327.296 35.0056L327.022 33.8708L326.981 33.8777L326.722 35.0056L325.45 39.0593H324.473L322.545 32.4011H323.748ZM338.999 33.2761C338.288 33.2761 337.769 33.6134 337.44 34.2878V37.1726C337.773 37.8699 338.299 38.2185 339.02 38.2185C339.58 38.2185 340.002 38.0225 340.284 37.6306C340.571 37.2341 340.715 36.6895 340.715 35.9968L340.701 35.8669C340.701 35.074 340.558 34.4451 340.271 33.9802C339.983 33.5108 339.56 33.2761 338.999 33.2761ZM341.925 35.8669V35.9968C341.925 36.9721 341.692 37.7514 341.228 38.3347C340.767 38.9135 340.136 39.2029 339.334 39.2029C338.464 39.2029 337.812 38.8656 337.379 38.1912L337.235 39.073H336.244V29.4753H337.454V33.2009C337.892 32.5948 338.516 32.2917 339.327 32.2917C340.138 32.2917 340.774 32.6153 341.234 33.2625C341.695 33.9096 341.925 34.7778 341.925 35.8669ZM343.887 42.0466C343.714 42.0466 343.474 42.0147 343.169 41.9509L343.292 40.9939C343.593 41.0167 343.773 41.0281 343.832 41.0281C344.069 41.0281 344.267 40.9278 344.427 40.7273C344.591 40.5268 344.739 40.2579 344.871 39.9207L345.158 39.2234L342.684 32.7019H344.037L345.452 36.8923L345.664 37.7263H345.705L347.339 32.7019H348.686L345.89 40.3787C345.466 41.4906 344.798 42.0466 343.887 42.0466ZM354.612 29.4617V39.0593H353.402V29.4617H354.612ZM357.408 35.6824V35.8191C357.408 36.5574 357.559 37.1475 357.859 37.5896C358.165 38.0317 358.602 38.2527 359.172 38.2527C359.742 38.2527 360.179 38.0317 360.484 37.5896C360.79 37.143 360.942 36.5528 360.942 35.8191V35.6824C360.942 34.9578 360.787 34.3722 360.478 33.9255C360.172 33.4744 359.735 33.2488 359.165 33.2488C358.6 33.2488 358.165 33.4744 357.859 33.9255C357.559 34.3722 357.408 34.9578 357.408 35.6824ZM356.191 35.8191V35.6824C356.191 34.6798 356.46 33.864 356.998 33.2351C357.536 32.6062 358.26 32.2917 359.172 32.2917C360.083 32.2917 360.808 32.6062 361.346 33.2351C361.883 33.8595 362.152 34.6752 362.152 35.6824V35.8191C362.152 36.8308 361.883 37.6488 361.346 38.2732C360.812 38.893 360.088 39.2029 359.172 39.2029C358.26 39.2029 357.536 38.8907 356.998 38.2664C356.46 37.642 356.191 36.8263 356.191 35.8191ZM364.579 35.8738C364.579 36.5893 364.711 37.1544 364.976 37.5691C365.263 38.0248 365.721 38.2527 366.35 38.2527C366.76 38.2527 367.115 38.1274 367.416 37.8767C367.717 37.6261 367.867 37.323 367.867 36.9675H368.954L368.968 37.0085C368.991 37.5873 368.738 38.0977 368.209 38.5398C367.68 38.9819 367.061 39.2029 366.35 39.2029C365.402 39.2029 364.666 38.8953 364.142 38.28C363.618 37.6648 363.355 36.8627 363.355 35.8738V35.614C363.355 34.6296 363.618 33.8298 364.142 33.2146C364.67 32.5994 365.406 32.2917 366.35 32.2917C367.124 32.2917 367.76 32.5196 368.257 32.9753C368.754 33.4311 368.993 33.9985 368.975 34.6775L368.961 34.7117H367.867C367.867 34.3015 367.724 33.9552 367.437 33.6726C367.149 33.3901 366.792 33.2488 366.363 33.2488C365.939 33.2488 365.591 33.3559 365.317 33.5701C365.049 33.7843 364.857 34.0623 364.743 34.4041C364.634 34.7458 364.579 35.1492 364.579 35.614V35.8738ZM372.222 39.2029C371.529 39.2029 371 39.0274 370.636 38.6765C370.271 38.3256 370.089 37.8334 370.089 37.2C370.089 36.5665 370.344 36.0697 370.854 35.7097C371.365 35.3497 372.067 35.1697 372.96 35.1697H374.272V34.5134C374.272 34.1215 374.152 33.8139 373.91 33.5906C373.673 33.3627 373.35 33.2488 372.939 33.2488C372.534 33.2488 372.208 33.3468 371.962 33.5427C371.716 33.7341 371.593 33.9734 371.593 34.2605H370.438L370.424 34.2263C370.401 33.725 370.633 33.2784 371.121 32.8865C371.613 32.49 372.238 32.2917 372.994 32.2917C373.755 32.2917 374.361 32.4877 374.812 32.8796C375.264 33.267 375.489 33.8162 375.489 34.5271V37.7332C375.489 38.2481 375.546 38.6947 375.66 39.073H374.409C374.323 38.6492 374.277 38.3165 374.272 38.075C374.035 38.4122 373.735 38.6856 373.37 38.8953C373.01 39.1003 372.627 39.2029 372.222 39.2029ZM371.312 37.2273H371.306C371.306 37.5281 371.399 37.7628 371.586 37.9314C371.773 38.1 372.062 38.1843 372.454 38.1843C372.846 38.1843 373.22 38.075 373.575 37.8562C373.935 37.6329 374.17 37.3731 374.279 37.0769V35.99H372.926C372.443 35.99 372.053 36.1108 371.757 36.3523C371.461 36.5893 371.312 36.8809 371.312 37.2273ZM377.643 30.8083H378.866V32.4148H380.124V33.3171H378.866V37.3572C378.866 37.9223 379.101 38.2048 379.57 38.2048C379.716 38.2048 379.867 38.1775 380.021 38.1228L380.179 38.95C379.96 39.1186 379.652 39.2029 379.256 39.2029C378.745 39.2029 378.349 39.0502 378.066 38.7449C377.784 38.4395 377.643 37.977 377.643 37.3572V33.3171H376.59V32.4148H377.643V30.8083ZM382.927 32.4011V39.0593H381.717V32.4011H382.927ZM382.927 29.4617V30.699H381.717V29.4617H382.927ZM385.723 35.6824V35.8191C385.723 36.5574 385.873 37.1475 386.174 37.5896C386.479 38.0317 386.917 38.2527 387.486 38.2527C388.056 38.2527 388.493 38.0317 388.799 37.5896C389.104 37.143 389.257 36.5528 389.257 35.8191V35.6824C389.257 34.9578 389.102 34.3722 388.792 33.9255C388.487 33.4744 388.049 33.2488 387.479 33.2488C386.914 33.2488 386.479 33.4744 386.174 33.9255C385.873 34.3722 385.723 34.9578 385.723 35.6824ZM384.506 35.8191V35.6824C384.506 34.6798 384.775 33.864 385.312 33.2351C385.85 32.6062 386.575 32.2917 387.486 32.2917C388.398 32.2917 389.122 32.6062 389.66 33.2351C390.198 33.8595 390.467 34.6752 390.467 35.6824V35.8191C390.467 36.8308 390.198 37.6488 389.66 38.2732C389.127 38.893 388.402 39.2029 387.486 39.2029C386.575 39.2029 385.85 38.8907 385.312 38.2664C384.775 37.642 384.506 36.8263 384.506 35.8191ZM391.957 32.4011H393.037L393.126 33.3923C393.586 32.6495 394.245 32.2781 395.102 32.2781C395.831 32.2781 396.389 32.4923 396.776 32.9207C397.164 33.3445 397.357 33.9893 397.357 34.8552V39.0593H396.147V34.8826C396.147 34.3038 396.034 33.8891 395.806 33.6384C395.578 33.3878 395.222 33.2625 394.739 33.2625C394.393 33.2625 394.085 33.3445 393.816 33.5085C393.548 33.6726 393.331 33.905 393.167 34.2058V39.0593H391.957V32.4011Z" fill="#4482F0"/>
<mask id="mask0" mask-type="alpha" maskUnits="userSpaceOnUse" x="6" y="6" width="481" height="301">
<rect x="6.94043" y="6.52173" width="480" height="300" rx="8" fill="#FEFEFE"/>
</mask>
<g mask="url(#mask0)">
<path d="M17.2256 61.0481C17.2256 56.6298 20.8073 53.0481 25.2256 53.0481H186.182C190.601 53.0481 194.182 56.6298 194.182 61.0481V78.3227H17.2256V61.0481Z" fill="#FAFAFA"/>
<path d="M38.0977 69.9951L37.377 68.0146H34.1602L33.4336 69.9951H32.373L35.3438 62.3193H36.2344L39.1523 69.9951H38.0977ZM35.7715 63.6494L34.4824 67.1475H37.0664L35.8008 63.6494H35.7715ZM44.8828 67.4932V67.6045C44.8828 68.4365 44.6836 69.1025 44.2852 69.6025C43.8906 70.0986 43.3477 70.3467 42.6562 70.3467C41.9648 70.3467 41.4316 70.1123 41.0566 69.6436V72.4326H40.0195V64.5342H40.8164L40.9805 65.2725C41.3594 64.71 41.9062 64.4287 42.6211 64.4287C43.3398 64.4287 43.8965 64.7061 44.291 65.2607C44.6855 65.8115 44.8828 66.5557 44.8828 67.4932ZM43.8398 67.6045V67.4932C43.8398 66.8213 43.709 66.2842 43.4473 65.8818C43.1895 65.4756 42.8184 65.2725 42.334 65.2725C41.7598 65.2725 41.334 65.5244 41.0566 66.0283V68.7881C41.3301 69.2881 41.7598 69.5381 42.3457 69.5381C42.8262 69.5381 43.1953 69.3623 43.4531 69.0107C43.7109 68.6592 43.8398 68.1904 43.8398 67.6045ZM51.0234 67.4932V67.6045C51.0234 68.4365 50.8242 69.1025 50.4258 69.6025C50.0312 70.0986 49.4883 70.3467 48.7969 70.3467C48.1055 70.3467 47.5723 70.1123 47.1973 69.6436V72.4326H46.1602V64.5342H46.957L47.1211 65.2725C47.5 64.71 48.0469 64.4287 48.7617 64.4287C49.4805 64.4287 50.0371 64.7061 50.4316 65.2607C50.8262 65.8115 51.0234 66.5557 51.0234 67.4932ZM49.9805 67.6045V67.4932C49.9805 66.8213 49.8496 66.2842 49.5879 65.8818C49.3301 65.4756 48.959 65.2725 48.4746 65.2725C47.9004 65.2725 47.4746 65.5244 47.1973 66.0283V68.7881C47.4707 69.2881 47.9004 69.5381 48.4863 69.5381C48.9668 69.5381 49.3359 69.3623 49.5938 69.0107C49.8516 68.6592 49.9805 68.1904 49.9805 67.6045ZM53.0977 67.1006V67.2178C53.0977 67.8506 53.2266 68.3564 53.4844 68.7354C53.7461 69.1143 54.1211 69.3037 54.6094 69.3037C55.0977 69.3037 55.4727 69.1143 55.7344 68.7354C55.9961 68.3525 56.127 67.8467 56.127 67.2178V67.1006C56.127 66.4795 55.9941 65.9775 55.7285 65.5947C55.4668 65.208 55.0918 65.0146 54.6035 65.0146C54.1191 65.0146 53.7461 65.208 53.4844 65.5947C53.2266 65.9775 53.0977 66.4795 53.0977 67.1006ZM52.0547 67.2178V67.1006C52.0547 66.2412 52.2852 65.542 52.7461 65.0029C53.207 64.4639 53.8281 64.1943 54.6094 64.1943C55.3906 64.1943 56.0117 64.4639 56.4727 65.0029C56.9336 65.5381 57.1641 66.2373 57.1641 67.1006V67.2178C57.1641 68.085 56.9336 68.7861 56.4727 69.3213C56.0156 69.8525 55.3945 70.1182 54.6094 70.1182C53.8281 70.1182 53.207 69.8506 52.7461 69.3154C52.2852 68.7803 52.0547 68.0811 52.0547 67.2178ZM59.5605 64.2881V69.9951H58.5234V64.2881H59.5605ZM59.5605 61.7686V62.8291H58.5234V61.7686H59.5605ZM61.1602 64.2881H62.0859L62.1621 65.1377C62.5566 64.501 63.1211 64.1826 63.8555 64.1826C64.4805 64.1826 64.959 64.3662 65.291 64.7334C65.623 65.0967 65.7891 65.6494 65.7891 66.3916V69.9951H64.752V66.415C64.752 65.9189 64.6543 65.5635 64.459 65.3486C64.2637 65.1338 63.959 65.0264 63.5449 65.0264C63.248 65.0264 62.9844 65.0967 62.7539 65.2373C62.5234 65.3779 62.3379 65.5771 62.1973 65.835V69.9951H61.1602V64.2881ZM67.6289 62.9229H68.6777V64.2998H69.7559V65.0732H68.6777V68.5361C68.6777 69.0205 68.8789 69.2627 69.2812 69.2627C69.4062 69.2627 69.5352 69.2393 69.668 69.1924L69.8027 69.9014C69.6152 70.0459 69.3516 70.1182 69.0117 70.1182C68.5742 70.1182 68.2344 69.9873 67.9922 69.7256C67.75 69.4639 67.6289 69.0674 67.6289 68.5361V65.0732H66.7266V64.2998H67.6289V62.9229ZM72.0762 69.9951H71.0449V64.2881H71.9707L72.0469 65.0381C72.4375 64.4678 73.0156 64.1826 73.7812 64.1826C74.5508 64.1826 75.0723 64.5342 75.3457 65.2373C75.7402 64.5342 76.3223 64.1826 77.0918 64.1826C77.6895 64.1826 78.1523 64.3857 78.4805 64.792C78.8086 65.1943 78.9727 65.792 78.9727 66.585V69.9951H77.9355V66.5732C77.9355 66.0225 77.8418 65.6279 77.6543 65.3896C77.4668 65.1475 77.1855 65.0264 76.8105 65.0264C76.4395 65.0264 76.1426 65.1475 75.9199 65.3896C75.7012 65.6279 75.5723 65.9404 75.5332 66.3271V69.9951H74.4844V66.5732C74.4844 66.042 74.3867 65.6514 74.1914 65.4014C74 65.1514 73.7129 65.0264 73.3301 65.0264C72.7285 65.0264 72.3105 65.2744 72.0762 65.7705V69.9951ZM83.9824 66.4502C83.9824 66.0205 83.8711 65.6748 83.6484 65.4131C83.4258 65.1475 83.1055 65.0146 82.6875 65.0146C82.3438 65.0146 82.0469 65.1592 81.7969 65.4482C81.5508 65.7373 81.3984 66.1064 81.3398 66.5557L81.3516 66.585H83.9824V66.4502ZM82.8457 70.1182C82.0527 70.1182 81.4199 69.8564 80.9473 69.333C80.4785 68.8096 80.2441 68.1201 80.2441 67.2646V67.0303C80.2441 66.2295 80.4824 65.5576 80.959 65.0146C81.4395 64.4678 82.0156 64.1943 82.6875 64.1943C83.4453 64.1943 84.0234 64.4229 84.4219 64.8799C84.8242 65.333 85.0254 65.9561 85.0254 66.749V67.3994H81.3223L81.3047 67.4229C81.3164 67.9854 81.457 68.4404 81.7266 68.7881C82 69.1318 82.373 69.3037 82.8457 69.3037C83.5098 69.3037 84.0488 69.1162 84.4629 68.7412L84.873 69.415H84.8672C84.3906 69.8838 83.7168 70.1182 82.8457 70.1182ZM86.2031 64.2881H87.1289L87.2051 65.1377C87.5996 64.501 88.1641 64.1826 88.8984 64.1826C89.5234 64.1826 90.002 64.3662 90.334 64.7334C90.666 65.0967 90.832 65.6494 90.832 66.3916V69.9951H89.7949V66.415C89.7949 65.9189 89.6973 65.5635 89.502 65.3486C89.3066 65.1338 89.002 65.0264 88.5879 65.0264C88.291 65.0264 88.0273 65.0967 87.7969 65.2373C87.5664 65.3779 87.3809 65.5771 87.2402 65.835V69.9951H86.2031V64.2881ZM92.6719 62.9229H93.7207V64.2998H94.7988V65.0732H93.7207V68.5361C93.7207 69.0205 93.9219 69.2627 94.3242 69.2627C94.4492 69.2627 94.5781 69.2393 94.7109 69.1924L94.8457 69.9014C94.6582 70.0459 94.3945 70.1182 94.0547 70.1182C93.6172 70.1182 93.2773 69.9873 93.0352 69.7256C92.793 69.4639 92.6719 69.0674 92.6719 68.5361V65.0732H91.7695V64.2998H92.6719V62.9229Z" fill="#717171"/>
<rect x="23.1406" y="86.7269" width="98.5957" height="17.76" rx="8.88" fill="#F2F2F2"/>
<rect width="57.9495" height="43.2726" rx="10" transform="matrix(-1 0 0 1 186.306 86.7269)" fill="#F2F2F2"/>
<path d="M152.48 110.442L155.945 114.599L160.795 108.363L167.031 116.678H147.63L152.48 110.442ZM169.803 118.064V98.6625C169.803 97.1242 168.556 95.8909 167.031 95.8909H147.63C146.895 95.8909 146.19 96.1829 145.67 96.7027C145.15 97.2224 144.858 97.9274 144.858 98.6625V118.064C144.858 118.799 145.15 119.504 145.67 120.024C146.19 120.544 146.895 120.836 147.63 120.836H167.031C167.766 120.836 168.471 120.544 168.991 120.024C169.511 119.504 169.803 118.799 169.803 118.064Z" fill="white"/>
<rect x="-0.360467" y="0.360467" width="97.8754" height="17.0357" rx="8.51783" transform="matrix(-1 0 0 1 121.016 112.243)" fill="#FEFEFE" stroke="#4482F0" stroke-width="0.720934"/>
<path d="M34.2539 117.719V120.69H36.1523C36.6602 120.69 37.0449 120.555 37.3066 120.286C37.5723 120.016 37.7051 119.659 37.7051 119.214C37.7051 118.768 37.5723 118.409 37.3066 118.135C37.041 117.858 36.6562 117.719 36.1523 117.719H34.2539ZM36.1523 121.499H34.2539V124.581H33.2168V116.905H36.1523C36.9648 116.905 37.5996 117.114 38.0566 117.532C38.5137 117.946 38.7422 118.507 38.7422 119.214C38.7422 119.917 38.5137 120.473 38.0566 120.884C37.6035 121.294 36.9688 121.499 36.1523 121.499ZM41.0684 118.874V124.581H40.0312V118.874H41.0684ZM41.0684 116.354V117.415H40.0312V116.354H41.0684ZM42.668 118.874H43.5938L43.6699 119.723C44.0645 119.087 44.6289 118.768 45.3633 118.768C45.9883 118.768 46.4668 118.952 46.7988 119.319C47.1309 119.682 47.2969 120.235 47.2969 120.977V124.581H46.2598V121.001C46.2598 120.505 46.1621 120.149 45.9668 119.934C45.7715 119.719 45.4668 119.612 45.0527 119.612C44.7559 119.612 44.4922 119.682 44.2617 119.823C44.0312 119.964 43.8457 120.163 43.7051 120.421V124.581H42.668V118.874ZM48.8086 118.874H49.7344L49.8105 119.723C50.2051 119.087 50.7695 118.768 51.5039 118.768C52.1289 118.768 52.6074 118.952 52.9395 119.319C53.2715 119.682 53.4375 120.235 53.4375 120.977V124.581H52.4004V121.001C52.4004 120.505 52.3027 120.149 52.1074 119.934C51.9121 119.719 51.6074 119.612 51.1934 119.612C50.8965 119.612 50.6328 119.682 50.4023 119.823C50.1719 119.964 49.9863 120.163 49.8457 120.421V124.581H48.8086V118.874ZM58.4473 121.036C58.4473 120.606 58.3359 120.26 58.1133 119.999C57.8906 119.733 57.5703 119.6 57.1523 119.6C56.8086 119.6 56.5117 119.745 56.2617 120.034C56.0156 120.323 55.8633 120.692 55.8047 121.141L55.8164 121.171H58.4473V121.036ZM57.3105 124.704C56.5176 124.704 55.8848 124.442 55.4121 123.919C54.9434 123.395 54.709 122.706 54.709 121.85V121.616C54.709 120.815 54.9473 120.143 55.4238 119.6C55.9043 119.053 56.4805 118.78 57.1523 118.78C57.9102 118.78 58.4883 119.009 58.8867 119.466C59.2891 119.919 59.4902 120.542 59.4902 121.335V121.985H55.7871L55.7695 122.009C55.7812 122.571 55.9219 123.026 56.1914 123.374C56.4648 123.718 56.8379 123.889 57.3105 123.889C57.9746 123.889 58.5137 123.702 58.9277 123.327L59.3379 124.001H59.332C58.8555 124.469 58.1816 124.704 57.3105 124.704ZM60.4219 121.844C60.4219 120.911 60.6191 120.167 61.0137 119.612C61.4082 119.057 61.9473 118.78 62.6309 118.78C63.3145 118.78 63.8398 119.022 64.207 119.507V116.366H65.25V124.593H64.4004L64.2773 123.889C63.8984 124.432 63.3594 124.704 62.6602 124.704C61.9609 124.704 61.4141 124.456 61.0195 123.96C60.625 123.46 60.4277 122.792 60.4277 121.956L60.4219 121.844ZM61.4707 121.844V121.956C61.4707 122.553 61.5898 123.02 61.8281 123.356C62.0703 123.692 62.4336 123.86 62.918 123.86C63.5039 123.86 63.9375 123.593 64.2188 123.057V120.397C63.9297 119.882 63.5 119.624 62.9297 119.624C62.4414 119.624 62.0762 119.823 61.834 120.221C61.5918 120.616 61.4707 121.157 61.4707 121.844Z" fill="#4482F0"/>
<path d="M179.715 63.1599C179.198 63.1599 178.703 63.3706 178.337 63.7457C177.972 64.1208 177.767 64.6295 177.767 65.1599C177.767 65.6903 177.972 66.1991 178.337 66.5741C178.703 66.9492 179.198 67.1599 179.715 67.1599C180.232 67.1599 180.727 66.9492 181.092 66.5741C181.458 66.1991 181.663 65.6903 181.663 65.1599C181.663 64.6295 181.458 64.1208 181.092 63.7457C180.727 63.3706 180.232 63.1599 179.715 63.1599ZM179.715 68.4932C178.854 68.4932 178.028 68.1421 177.419 67.5169C176.81 66.8918 176.468 66.044 176.468 65.1599C176.468 64.2759 176.81 63.428 177.419 62.8029C178.028 62.1778 178.854 61.8266 179.715 61.8266C180.576 61.8266 181.402 62.1778 182.011 62.8029C182.62 63.428 182.962 64.2759 182.962 65.1599C182.962 66.044 182.62 66.8918 182.011 67.5169C181.402 68.1421 180.576 68.4932 179.715 68.4932ZM179.715 60.1599C176.468 60.1599 173.695 62.2332 172.572 65.1599C173.695 68.0866 176.468 70.1599 179.715 70.1599C182.962 70.1599 185.734 68.0866 186.858 65.1599C185.734 62.2332 182.962 60.1599 179.715 60.1599Z" fill="#4482F0"/>
<rect x="17.7256" y="53.5481" width="175.957" height="85.3418" rx="7.5" stroke="#E0E0E0"/>
<path d="M109.408 115.121L108.413 116.116L112.373 120.077L113.368 119.082L109.408 115.121Z" fill="#4482F0"/>
<path d="M106.453 123.036L102.363 127.121H101.368V126.126L105.458 122.04L106.453 123.036Z" fill="#4482F0"/>
<path d="M102.587 119.632L103.582 118.637L104.591 119.645L109.128 116.631L111.947 119.451L108.844 123.898L109.853 124.907L108.857 125.902L102.587 119.632Z" fill="#4482F0"/>
<path d="M17.2256 155.791C17.2256 151.373 20.8073 147.791 25.2256 147.791H186.182C190.601 147.791 194.182 151.372 194.182 155.791V173.065H17.2256V155.791Z" fill="#FAFAFA"/>
<path d="M38.0977 164.683L37.377 162.702H34.1602L33.4336 164.683H32.373L35.3438 157.007H36.2344L39.1523 164.683H38.0977ZM35.7715 158.337L34.4824 161.835H37.0664L35.8008 158.337H35.7715ZM44.8828 162.181V162.292C44.8828 163.124 44.6836 163.79 44.2852 164.29C43.8906 164.786 43.3477 165.034 42.6562 165.034C41.9648 165.034 41.4316 164.8 41.0566 164.331V167.12H40.0195V159.222H40.8164L40.9805 159.96C41.3594 159.398 41.9062 159.116 42.6211 159.116C43.3398 159.116 43.8965 159.394 44.291 159.948C44.6855 160.499 44.8828 161.243 44.8828 162.181ZM43.8398 162.292V162.181C43.8398 161.509 43.709 160.972 43.4473 160.569C43.1895 160.163 42.8184 159.96 42.334 159.96C41.7598 159.96 41.334 160.212 41.0566 160.716V163.476C41.3301 163.976 41.7598 164.226 42.3457 164.226C42.8262 164.226 43.1953 164.05 43.4531 163.698C43.7109 163.347 43.8398 162.878 43.8398 162.292ZM51.0234 162.181V162.292C51.0234 163.124 50.8242 163.79 50.4258 164.29C50.0312 164.786 49.4883 165.034 48.7969 165.034C48.1055 165.034 47.5723 164.8 47.1973 164.331V167.12H46.1602V159.222H46.957L47.1211 159.96C47.5 159.398 48.0469 159.116 48.7617 159.116C49.4805 159.116 50.0371 159.394 50.4316 159.948C50.8262 160.499 51.0234 161.243 51.0234 162.181ZM49.9805 162.292V162.181C49.9805 161.509 49.8496 160.972 49.5879 160.569C49.3301 160.163 48.959 159.96 48.4746 159.96C47.9004 159.96 47.4746 160.212 47.1973 160.716V163.476C47.4707 163.976 47.9004 164.226 48.4863 164.226C48.9668 164.226 49.3359 164.05 49.5938 163.698C49.8516 163.347 49.9805 162.878 49.9805 162.292ZM53.0977 161.788V161.905C53.0977 162.538 53.2266 163.044 53.4844 163.423C53.7461 163.802 54.1211 163.991 54.6094 163.991C55.0977 163.991 55.4727 163.802 55.7344 163.423C55.9961 163.04 56.127 162.534 56.127 161.905V161.788C56.127 161.167 55.9941 160.665 55.7285 160.282C55.4668 159.896 55.0918 159.702 54.6035 159.702C54.1191 159.702 53.7461 159.896 53.4844 160.282C53.2266 160.665 53.0977 161.167 53.0977 161.788ZM52.0547 161.905V161.788C52.0547 160.929 52.2852 160.23 52.7461 159.691C53.207 159.151 53.8281 158.882 54.6094 158.882C55.3906 158.882 56.0117 159.151 56.4727 159.691C56.9336 160.226 57.1641 160.925 57.1641 161.788V161.905C57.1641 162.773 56.9336 163.474 56.4727 164.009C56.0156 164.54 55.3945 164.806 54.6094 164.806C53.8281 164.806 53.207 164.538 52.7461 164.003C52.2852 163.468 52.0547 162.769 52.0547 161.905ZM59.5605 158.976V164.683H58.5234V158.976H59.5605ZM59.5605 156.456V157.517H58.5234V156.456H59.5605ZM61.1602 158.976H62.0859L62.1621 159.825C62.5566 159.189 63.1211 158.87 63.8555 158.87C64.4805 158.87 64.959 159.054 65.291 159.421C65.623 159.784 65.7891 160.337 65.7891 161.079V164.683H64.752V161.103C64.752 160.607 64.6543 160.251 64.459 160.036C64.2637 159.821 63.959 159.714 63.5449 159.714C63.248 159.714 62.9844 159.784 62.7539 159.925C62.5234 160.066 62.3379 160.265 62.1973 160.523V164.683H61.1602V158.976ZM67.6289 157.61H68.6777V158.987H69.7559V159.761H68.6777V163.224C68.6777 163.708 68.8789 163.95 69.2812 163.95C69.4062 163.95 69.5352 163.927 69.668 163.88L69.8027 164.589C69.6152 164.734 69.3516 164.806 69.0117 164.806C68.5742 164.806 68.2344 164.675 67.9922 164.413C67.75 164.151 67.6289 163.755 67.6289 163.224V159.761H66.7266V158.987H67.6289V157.61ZM72.0762 164.683H71.0449V158.976H71.9707L72.0469 159.726C72.4375 159.155 73.0156 158.87 73.7812 158.87C74.5508 158.87 75.0723 159.222 75.3457 159.925C75.7402 159.222 76.3223 158.87 77.0918 158.87C77.6895 158.87 78.1523 159.073 78.4805 159.48C78.8086 159.882 78.9727 160.48 78.9727 161.273V164.683H77.9355V161.261C77.9355 160.71 77.8418 160.316 77.6543 160.077C77.4668 159.835 77.1855 159.714 76.8105 159.714C76.4395 159.714 76.1426 159.835 75.9199 160.077C75.7012 160.316 75.5723 160.628 75.5332 161.015V164.683H74.4844V161.261C74.4844 160.73 74.3867 160.339 74.1914 160.089C74 159.839 73.7129 159.714 73.3301 159.714C72.7285 159.714 72.3105 159.962 72.0762 160.458V164.683ZM83.9824 161.138C83.9824 160.708 83.8711 160.362 83.6484 160.101C83.4258 159.835 83.1055 159.702 82.6875 159.702C82.3438 159.702 82.0469 159.847 81.7969 160.136C81.5508 160.425 81.3984 160.794 81.3398 161.243L81.3516 161.273H83.9824V161.138ZM82.8457 164.806C82.0527 164.806 81.4199 164.544 80.9473 164.021C80.4785 163.497 80.2441 162.808 80.2441 161.952V161.718C80.2441 160.917 80.4824 160.245 80.959 159.702C81.4395 159.155 82.0156 158.882 82.6875 158.882C83.4453 158.882 84.0234 159.11 84.4219 159.568C84.8242 160.021 85.0254 160.644 85.0254 161.437V162.087H81.3223L81.3047 162.11C81.3164 162.673 81.457 163.128 81.7266 163.476C82 163.819 82.373 163.991 82.8457 163.991C83.5098 163.991 84.0488 163.804 84.4629 163.429L84.873 164.103H84.8672C84.3906 164.571 83.7168 164.806 82.8457 164.806ZM86.2031 158.976H87.1289L87.2051 159.825C87.5996 159.189 88.1641 158.87 88.8984 158.87C89.5234 158.87 90.002 159.054 90.334 159.421C90.666 159.784 90.832 160.337 90.832 161.079V164.683H89.7949V161.103C89.7949 160.607 89.6973 160.251 89.502 160.036C89.3066 159.821 89.002 159.714 88.5879 159.714C88.291 159.714 88.0273 159.784 87.7969 159.925C87.5664 160.066 87.3809 160.265 87.2402 160.523V164.683H86.2031V158.976ZM92.6719 157.61H93.7207V158.987H94.7988V159.761H93.7207V163.224C93.7207 163.708 93.9219 163.95 94.3242 163.95C94.4492 163.95 94.5781 163.927 94.7109 163.88L94.8457 164.589C94.6582 164.734 94.3945 164.806 94.0547 164.806C93.6172 164.806 93.2773 164.675 93.0352 164.413C92.793 164.151 92.6719 163.755 92.6719 163.224V159.761H91.7695V158.987H92.6719V157.61Z" fill="#717171"/>
<rect x="17.7256" y="148.291" width="175.957" height="240.881" rx="7.5" stroke="#E0E0E0"/>
<rect x="24.2136" y="183.971" width="128.032" height="17.76" rx="8.88" fill="#4482F0"/>
<rect x="187.019" y="230.424" width="80.5767" height="17.0391" rx="8.51953" transform="rotate(180 187.019 230.424)" fill="#FEFEFE" stroke="#4482F0" stroke-width="0.720934"/>
<path d="M115.354 218.923V221.894H117.253C117.76 221.894 118.145 221.759 118.407 221.489C118.673 221.22 118.805 220.862 118.805 220.417C118.805 219.972 118.673 219.612 118.407 219.339C118.141 219.062 117.757 218.923 117.253 218.923H115.354ZM117.253 222.702H115.354V225.784H114.317V218.109H117.253C118.065 218.109 118.7 218.318 119.157 218.735C119.614 219.15 119.843 219.71 119.843 220.417C119.843 221.12 119.614 221.677 119.157 222.087C118.704 222.497 118.069 222.702 117.253 222.702ZM122.169 220.077V225.784H121.132V220.077H122.169ZM122.169 217.558V218.618H121.132V217.558H122.169ZM123.768 220.077H124.694L124.77 220.927C125.165 220.29 125.729 219.972 126.464 219.972C127.089 219.972 127.567 220.155 127.899 220.523C128.231 220.886 128.397 221.439 128.397 222.181V225.784H127.36V222.204C127.36 221.708 127.262 221.353 127.067 221.138C126.872 220.923 126.567 220.816 126.153 220.816C125.856 220.816 125.593 220.886 125.362 221.026C125.132 221.167 124.946 221.366 124.805 221.624V225.784H123.768V220.077ZM129.909 220.077H130.835L130.911 220.927C131.305 220.29 131.87 219.972 132.604 219.972C133.229 219.972 133.708 220.155 134.04 220.523C134.372 220.886 134.538 221.439 134.538 222.181V225.784H133.501V222.204C133.501 221.708 133.403 221.353 133.208 221.138C133.012 220.923 132.708 220.816 132.294 220.816C131.997 220.816 131.733 220.886 131.503 221.026C131.272 221.167 131.087 221.366 130.946 221.624V225.784H129.909V220.077ZM139.548 222.239C139.548 221.81 139.436 221.464 139.214 221.202C138.991 220.937 138.671 220.804 138.253 220.804C137.909 220.804 137.612 220.948 137.362 221.237C137.116 221.526 136.964 221.896 136.905 222.345L136.917 222.374H139.548V222.239ZM138.411 225.907C137.618 225.907 136.985 225.646 136.512 225.122C136.044 224.599 135.809 223.909 135.809 223.054V222.819C135.809 222.019 136.048 221.347 136.524 220.804C137.005 220.257 137.581 219.984 138.253 219.984C139.01 219.984 139.589 220.212 139.987 220.669C140.389 221.122 140.591 221.745 140.591 222.538V223.189H136.887L136.87 223.212C136.882 223.775 137.022 224.23 137.292 224.577C137.565 224.921 137.938 225.093 138.411 225.093C139.075 225.093 139.614 224.905 140.028 224.53L140.438 225.204H140.432C139.956 225.673 139.282 225.907 138.411 225.907ZM141.522 223.048C141.522 222.114 141.719 221.37 142.114 220.816C142.509 220.261 143.048 219.984 143.731 219.984C144.415 219.984 144.94 220.226 145.307 220.71V217.569H146.35V225.796H145.501L145.378 225.093C144.999 225.636 144.46 225.907 143.76 225.907C143.061 225.907 142.514 225.659 142.12 225.163C141.725 224.663 141.528 223.995 141.528 223.159L141.522 223.048ZM142.571 223.048V223.159C142.571 223.757 142.69 224.224 142.928 224.56C143.171 224.896 143.534 225.064 144.018 225.064C144.604 225.064 145.038 224.796 145.319 224.261V221.601C145.03 221.085 144.6 220.827 144.03 220.827C143.542 220.827 143.177 221.026 142.934 221.425C142.692 221.819 142.571 222.36 142.571 223.048Z" fill="#4482F0"/>
<path d="M176.623 215.904L175.628 216.899L179.589 220.86L180.584 219.865L176.623 215.904Z" fill="#4482F0"/>
<path d="M173.669 223.819L169.578 227.904H168.583V226.909L172.674 222.823L173.669 223.819Z" fill="#4482F0"/>
<path d="M169.803 220.415L170.798 219.42L171.806 220.428L176.344 217.415L179.163 220.234L176.06 224.681L177.068 225.69L176.073 226.685L169.803 220.415Z" fill="#4482F0"/>
<rect x="101.368" y="230.784" width="77.1534" height="17.76" rx="8.88" transform="rotate(180 101.368 230.784)" fill="#F2F2F2"/>
<rect x="187.379" y="316.371" width="57.9495" height="77.2982" rx="8" transform="rotate(180 187.379 316.371)" fill="#F2F2F2"/>
<path d="M144.59 258.811H172.218C173.134 258.811 174.012 259.183 174.66 259.845C175.308 260.508 175.672 261.406 175.672 262.343V283.535C175.672 284.471 175.308 285.37 174.66 286.032C174.012 286.695 173.134 287.067 172.218 287.067H144.59C142.673 287.067 141.136 285.477 141.136 283.535V262.343C141.136 260.382 142.673 258.811 144.59 258.811ZM158.404 271.173L172.218 262.343H144.59L158.404 271.173ZM144.59 283.535H172.218V266.528L158.404 275.34L144.59 266.528V283.535Z" fill="white"/>
<rect x="24.2144" y="239.072" width="97.8588" height="106.55" rx="4.82682" fill="#F2F2F2"/>
<path d="M82.0566 292.895C81.8496 292.895 81.6411 292.87 81.4342 292.819C80.5344 292.594 79.8194 291.905 79.5673 291.016C77.7803 284.702 74.9593 279.756 73.1429 279.756C71.3268 279.756 68.5058 284.702 66.7185 291.016C66.4664 291.905 65.7514 292.594 64.8516 292.819C63.9518 293.037 63.0011 292.765 62.3661 292.101C59.1258 288.712 59.309 282.333 59.3419 281.618C59.34 279.871 59.721 277.612 60.4758 274.991C60.7589 274.004 60.5703 272.942 59.9552 272.079C59.8209 271.89 59.692 271.702 59.5688 271.513C57.7673 268.762 56.8147 265.478 56.8147 262.015V260.426C56.8147 254.537 62.9541 252.982 66.2016 252.982C69.3876 252.982 71.7423 254.508 73.1429 255.765C74.5434 254.508 76.8985 252.982 80.0841 252.982C83.3317 252.982 89.471 254.537 89.471 260.427V262.017C89.471 265.48 88.5185 268.764 86.717 271.514C86.5953 271.701 86.4668 271.89 86.3325 272.078C85.7173 272.944 85.5287 274.005 85.8118 274.99C86.5647 277.612 86.9457 279.869 86.9457 281.697C86.9748 282.334 87.16 288.711 83.9197 292.1C83.43 292.614 82.7517 292.895 82.0566 292.895ZM66.202 256.611C65.9717 256.613 60.4437 256.687 60.4437 260.428V262.017C60.4437 264.773 61.1912 267.369 62.6044 269.526C62.7043 269.678 62.8056 269.829 62.9128 269.98C64.1683 271.747 64.5509 273.94 63.9614 275.992C63.3118 278.258 62.9671 280.23 62.9671 281.698C62.9181 282.906 63.0432 285.697 63.9051 287.821C65.4579 283.148 68.5533 276.13 73.1433 276.13C77.7298 276.13 80.8247 283.142 82.3776 287.814C83.2429 285.667 83.3665 282.846 83.319 281.776C83.3171 280.229 82.9744 278.256 82.3229 275.991C81.7333 273.937 82.1159 271.745 83.3734 269.976C83.4786 269.827 83.5803 269.679 83.6783 269.528C85.0953 267.368 85.8428 264.771 85.8428 262.016V260.426C85.8428 256.702 80.3584 256.611 80.0826 256.609C76.7099 256.611 74.6525 259.43 74.6326 259.459C73.9539 260.434 72.3322 260.434 71.6536 259.459C71.5778 259.354 69.5785 256.611 66.202 256.611Z" fill="#FEFEFE"/>
<path d="M35.0451 260.239C34.0435 260.239 33.231 259.426 33.231 258.425V251.168C33.231 250.166 34.0439 249.354 35.0451 249.354H42.3019C43.3035 249.354 44.116 250.167 44.116 251.168C44.116 252.169 43.3031 252.982 42.3019 252.982H36.8592V258.425C36.8592 259.426 36.0466 260.239 35.0451 260.239Z" fill="#FEFEFE"/>
<path d="M111.242 296.524H103.985C102.983 296.524 102.171 295.711 102.171 294.71C102.171 293.708 102.984 292.895 103.985 292.895H109.428V287.453C109.428 286.451 110.241 285.639 111.242 285.639C112.243 285.639 113.056 286.451 113.056 287.453V294.71C113.056 295.711 112.243 296.524 111.242 296.524Z" fill="#FEFEFE"/>
</g>
<circle cx="179.715" cy="65.16" r="11.6176" stroke="#4482F0"/>
<mask id="mask1" mask-type="alpha" maskUnits="userSpaceOnUse" x="249" y="49" width="225" height="113">
<rect x="249.831" y="49.6389" width="223.309" height="111.679" rx="10" fill="#C4C4C4"/>
</mask>
<g mask="url(#mask1)">
<path d="M249.831 61.522C249.831 57.1037 253.413 53.522 257.831 53.522H465.14C469.558 53.522 473.14 57.1037 473.14 61.522V87.2008H249.831V61.522Z" fill="#FAFAFA"/>
<line x1="324.908" y1="54.7561" x2="324.908" y2="394.38" stroke="#E0E0E0"/>
<line x1="399.274" y1="54.7561" x2="399.274" y2="394.38" stroke="#E0E0E0"/>
<path d="M280.459 66.136H281.858V73.0735C281.858 74.1724 281.501 75.0214 280.787 75.6204C280.079 76.2193 279.136 76.5188 277.959 76.5188C276.782 76.5188 275.85 76.2193 275.162 75.6204C274.475 75.0162 274.131 74.1672 274.131 73.0735V66.136H275.522V73.0735C275.522 73.8339 275.735 74.4172 276.162 74.8235C276.595 75.2297 277.191 75.4329 277.951 75.4329C278.712 75.4329 279.319 75.2297 279.772 74.8235C280.23 74.4172 280.459 73.8339 280.459 73.0735V66.136ZM288.076 71.9172H285.498V76.3547H284.115V66.1204H287.819C288.944 66.1204 289.8 66.3678 290.389 66.8625C290.977 67.3573 291.272 68.0813 291.272 69.0344C291.272 70.0969 290.735 70.8625 289.662 71.3313C290.72 71.675 291.248 72.4797 291.248 73.7454V74.7063C291.248 75.4042 291.405 75.8964 291.717 76.1829V76.3547H290.287C290.001 76.0995 289.858 75.5474 289.858 74.6985V73.761C289.858 73.2037 289.696 72.7584 289.373 72.425C289.05 72.0865 288.618 71.9172 288.076 71.9172ZM285.498 67.2063V70.8313H287.678C288.459 70.8313 289.022 70.6855 289.365 70.3938C289.714 70.0969 289.889 69.6386 289.889 69.0188C289.889 67.8105 289.199 67.2063 287.819 67.2063H285.498ZM297.381 72.9094V68.1047L297.342 68.0969L297.209 68.4485L294.264 72.9094H297.381ZM298.764 66.1204V72.9094H300.17V73.9954H298.764V76.3547H297.381V73.9954H292.787V73.2141L297.295 66.1204H298.764Z" fill="#333333"/>
<path d="M352.888 66.1204V75.2688H357.732V76.3547H351.506V66.1204H352.888ZM360.67 66.1204V75.2688H365.513V76.3547H359.287V66.1204H360.67ZM370.592 76.3547H369.209V67.4641L367.107 67.4954V66.4954L370.592 66.1204V76.3547Z" fill="#333333"/>
<path d="M425.648 66.1204V75.2688H430.491V76.3547H424.265V66.1204H425.648ZM433.429 66.1204V75.2688H438.273V76.3547H432.046V66.1204H433.429ZM446.031 75.2688V76.3625H439.39V75.4094L442.749 71.6829C443.348 71.0162 443.754 70.4875 443.968 70.0969C444.182 69.7063 444.288 69.2766 444.288 68.8079C444.288 68.3339 444.137 67.925 443.835 67.5813C443.533 67.2375 443.14 67.0657 442.656 67.0657C441.275 67.0657 440.585 67.7584 440.585 69.1438H439.257L439.241 69.0969C439.221 68.1959 439.52 67.4511 440.14 66.8625C440.76 66.274 441.598 65.9797 442.656 65.9797C443.567 65.9797 444.296 66.2454 444.843 66.7766C445.395 67.3027 445.671 67.9875 445.671 68.8313C445.671 69.3625 445.515 69.9042 445.202 70.4563C444.895 71.0032 444.424 71.6204 443.788 72.3079L441.093 75.2375L441.109 75.2688H446.031Z" fill="#333333"/>
<rect x="258.266" y="96.1912" width="60.0485" height="17.76" rx="8.88" fill="#F2F2F2"/>
<rect x="406.692" y="96.1912" width="60.0485" height="17.76" rx="8.88" fill="#F2F2F2"/>
<rect x="258.266" y="127.056" width="60.0485" height="54.0251" rx="8" fill="#F2F2F2"/>
<rect x="407.052" y="127.595" width="59.3276" height="53.3041" rx="7.63953" fill="#FEFEFE" stroke="#4482F0" stroke-width="0.720934"/>
<path d="M457.436 132.915L456.441 133.91L460.402 137.87L461.397 136.875L457.436 132.915Z" fill="#4482F0"/>
<path d="M454.482 140.829L450.391 144.915H449.396V143.92L453.487 139.834L454.482 140.829Z" fill="#4482F0"/>
<path d="M450.616 137.425L451.611 136.43L452.619 137.438L457.157 134.425L459.976 137.244L456.873 141.692L457.881 142.7L456.886 143.695L450.616 137.425Z" fill="#4482F0"/>
<rect x="392.374" y="204.441" width="60.0485" height="108.25" rx="8" transform="rotate(180 392.374 204.441)" fill="#F2F2F2"/>
</g>
<rect x="250.331" y="53.5425" width="222.309" height="107.275" rx="7.5" stroke="#4482F0"/>
<path d="M243.798 66.3488C243.993 66.1535 243.993 65.8369 243.798 65.6417L240.616 62.4597C240.42 62.2644 240.104 62.2644 239.909 62.4597C239.713 62.655 239.713 62.9715 239.909 63.1668L242.737 65.9952L239.909 68.8237C239.713 69.0189 239.713 69.3355 239.909 69.5308C240.104 69.726 240.42 69.726 240.616 69.5308L243.798 66.3488ZM191.833 66.4952H243.444V65.4952H191.833V66.4952Z" fill="#4482F0"/>
<path d="M210.451 193.204C210.646 193.009 210.646 192.692 210.451 192.497L207.269 189.315C207.074 189.12 206.757 189.12 206.562 189.315C206.367 189.51 206.367 189.827 206.562 190.022L209.39 192.851L206.562 195.679C206.367 195.874 206.367 196.191 206.562 196.386C206.757 196.581 207.074 196.581 207.269 196.386L210.451 193.204ZM147.368 193.351H210.097V192.351H147.368V193.351Z" fill="#4482F0"/>
<defs>
<filter id="filter0_d" x="0.94043" y="0.521729" width="494" height="314" filterUnits="userSpaceOnUse" color-interpolation-filters="sRGB">
<feFlood flood-opacity="0" result="BackgroundImageFix"/>
<feColorMatrix in="SourceAlpha" type="matrix" values="0 0 0 0 0 0 0 0 0 0 0 0 0 0 0 0 0 0 127 0"/>
<feOffset dx="1" dy="1"/>
<feGaussianBlur stdDeviation="3.5"/>
<feColorMatrix type="matrix" values="0 0 0 0 0.509804 0 0 0 0 0.509804 0 0 0 0 0.509804 0 0 0 0.15 0"/>
<feBlend mode="normal" in2="BackgroundImageFix" result="effect1_dropShadow"/>
<feBlend mode="normal" in="SourceGraphic" in2="effect1_dropShadow" result="shape"/>
</filter>
</defs>
</svg>
