<svg width="494" height="315" viewBox="0 0 494 315" fill="none" xmlns="http://www.w3.org/2000/svg">
<g filter="url(#filter0_d)">
<rect x="6" y="6.77856" width="480" height="300" rx="8" fill="#FEFEFE"/>
</g>
<path d="M56.4128 174.176V175.126H52.325V179.091H51.115V170.136H57.0417V171.086H52.325V174.176H56.4128ZM59.5369 172.432V179.091H58.3269V172.432H59.5369ZM59.5369 169.493V170.73H58.3269V169.493H59.5369ZM62.7087 169.493V179.091H61.4988V169.493H62.7087ZM64.9578 170.84H66.1814V172.446H67.4392V173.349H66.1814V177.389C66.1814 177.954 66.4161 178.236 66.8855 178.236C67.0313 178.236 67.1817 178.209 67.3367 178.154L67.4939 178.981C67.2751 179.15 66.9675 179.234 66.571 179.234C66.0606 179.234 65.6641 179.082 65.3816 178.776C65.099 178.471 64.9578 178.008 64.9578 177.389V173.349H63.905V172.446H64.9578V170.84ZM73.0173 174.955C73.0173 174.454 72.8875 174.05 72.6277 173.745C72.3679 173.435 71.9942 173.28 71.5066 173.28C71.1056 173.28 70.7592 173.449 70.4675 173.786C70.1804 174.123 70.0027 174.554 69.9343 175.078L69.948 175.112H73.0173V174.955ZM71.6912 179.234C70.766 179.234 70.0278 178.929 69.4763 178.318C68.9294 177.708 68.656 176.903 68.656 175.905V175.632C68.656 174.697 68.934 173.914 69.49 173.28C70.0505 172.642 70.7227 172.323 71.5066 172.323C72.3907 172.323 73.0652 172.59 73.53 173.123C73.9994 173.652 74.2341 174.378 74.2341 175.304V176.062H69.9138L69.8933 176.09C69.907 176.746 70.071 177.277 70.3855 177.682C70.7045 178.084 71.1397 178.284 71.6912 178.284C72.4659 178.284 73.0948 178.065 73.5779 177.628L74.0564 178.414H74.0496C73.4936 178.961 72.7074 179.234 71.6912 179.234ZM76.8181 179.098H75.6082V172.439H76.6882L76.8044 173.41C77.21 172.676 77.7615 172.309 78.4587 172.309C78.6228 172.309 78.7778 172.332 78.9236 172.378L78.7595 173.513L78.1375 173.472C77.5131 173.472 77.0733 173.761 76.8181 174.34V179.098ZM86.238 173.307C85.5271 173.307 85.0076 173.645 84.6794 174.319V177.204C85.0121 177.901 85.5385 178.25 86.2585 178.25C86.8191 178.25 87.2406 178.054 87.5232 177.662C87.8103 177.266 87.9539 176.721 87.9539 176.028L87.9402 175.898C87.9402 175.105 87.7966 174.476 87.5095 174.012C87.2224 173.542 86.7986 173.307 86.238 173.307ZM89.1638 175.898V176.028C89.1638 177.003 88.9314 177.783 88.4666 178.366C88.0063 178.945 87.3751 179.234 86.573 179.234C85.7026 179.234 85.0509 178.897 84.6179 178.223L84.4744 179.104H83.4832V169.507H84.6931V173.232C85.1306 172.626 85.755 172.323 86.5662 172.323C87.3774 172.323 88.0131 172.647 88.4734 173.294C88.9337 173.941 89.1638 174.809 89.1638 175.898ZM91.1257 182.078C90.9526 182.078 90.7133 182.046 90.408 181.982L90.531 181.025C90.8318 181.048 91.0118 181.059 91.071 181.059C91.308 181.059 91.5063 180.959 91.6658 180.759C91.8298 180.558 91.9779 180.289 92.1101 179.952L92.3972 179.255L89.9226 172.733H91.2761L92.6912 176.924L92.9031 177.758H92.9441L94.5779 172.733H95.9246L93.1287 180.41C92.7048 181.522 92.0372 182.078 91.1257 182.078ZM98.0916 177.97V179.091H97.0046V177.97H98.0916ZM98.0916 172.583V173.704H97.0046V172.583H98.0916Z" fill="#333333"/>
<rect x="50.0076" y="203.497" width="14" height="14" rx="3" fill="#4482F0"/>
<path d="M61.5654 206.949L56.8741 214.71C56.7017 214.994 56.4124 215.164 56.0995 215.164C55.8227 215.164 55.5605 215.031 55.3808 214.798L52.4953 211.075C52.2649 210.777 52.2954 210.34 52.5654 210.08C52.8276 209.826 53.2682 209.821 53.5364 210.07L55.9882 212.34L60.376 206.128C60.5944 205.82 61.047 205.736 61.3565 205.95C61.678 206.172 61.77 206.611 61.5654 206.949Z" fill="white"/>
<path d="M73.2087 206.993H71.6707V214.047H73.2087C74.0336 214.047 74.6853 213.781 75.1638 213.247C75.6469 212.71 75.8884 212.006 75.8884 211.135V209.898C75.8884 209.032 75.6469 208.332 75.1638 207.799C74.6807 207.261 74.0291 206.993 73.2087 206.993ZM73.2087 214.997H70.4607V206.042H73.2087C74.3845 206.042 75.3256 206.4 76.032 207.116C76.7429 207.827 77.0984 208.759 77.0984 209.911V211.135C77.0984 212.288 76.7429 213.22 76.032 213.931C75.3256 214.642 74.3845 214.997 73.2087 214.997ZM79.8396 208.339V214.997H78.6296V208.339H79.8396ZM79.8396 205.4V206.637H78.6296V205.4H79.8396ZM84.1804 214.177C84.6088 214.177 84.946 214.093 85.1921 213.924C85.4382 213.751 85.5613 213.523 85.5613 213.241C85.5613 212.958 85.4565 212.735 85.2468 212.571C85.0372 212.402 84.6567 212.254 84.1052 212.126C83.2667 211.944 82.6492 211.703 82.2527 211.402C81.8608 211.096 81.6648 210.677 81.6648 210.144C81.6648 209.611 81.8972 209.157 82.3621 208.784C82.8269 208.405 83.433 208.216 84.1804 208.216C84.9278 208.216 85.5317 208.414 85.9919 208.811C86.4568 209.203 86.6778 209.69 86.655 210.274L86.6414 210.308H85.4861C85.4861 210.003 85.3608 209.738 85.1101 209.515C84.864 209.292 84.5382 209.18 84.1326 209.18C83.7315 209.18 83.4216 209.271 83.2029 209.453C82.9841 209.631 82.8748 209.859 82.8748 210.137C82.8748 210.415 82.9705 210.627 83.1619 210.773C83.3533 210.919 83.7292 211.051 84.2898 211.169C85.1466 211.356 85.7755 211.607 86.1765 211.921C86.5776 212.231 86.7781 212.644 86.7781 213.159C86.7781 213.751 86.5388 214.23 86.0603 214.594C85.5863 214.959 84.9483 215.141 84.1462 215.141C83.3442 215.141 82.6947 214.931 82.198 214.512C81.7058 214.093 81.4711 213.585 81.4939 212.988L81.5076 212.953H82.6628C82.6856 213.364 82.8383 213.674 83.1208 213.883C83.408 214.088 83.7657 214.191 84.1941 214.191L84.1804 214.177ZM89.2322 211.812C89.2322 212.527 89.3643 213.092 89.6287 213.507C89.9158 213.963 90.3738 214.191 91.0027 214.191C91.4128 214.191 91.7683 214.065 92.0691 213.815C92.3699 213.564 92.5203 213.261 92.5203 212.906H93.6072L93.6208 212.947C93.6436 213.525 93.3907 214.036 92.8621 214.478C92.3334 214.92 91.7136 215.141 91.0027 215.141C90.0548 215.141 89.3188 214.833 88.7947 214.218C88.2706 213.603 88.0085 212.801 88.0085 211.812V211.552C88.0085 210.568 88.2706 209.768 88.7947 209.153C89.3233 208.537 90.0593 208.23 91.0027 208.23C91.7774 208.23 92.4132 208.458 92.9099 208.913C93.4067 209.369 93.6459 209.937 93.6277 210.616L93.614 210.65H92.5203C92.5203 210.24 92.3767 209.893 92.0896 209.611C91.8025 209.328 91.4447 209.187 91.0164 209.187C90.5925 209.187 90.2439 209.294 89.9705 209.508C89.7016 209.722 89.5102 210 89.3962 210.342C89.2869 210.684 89.2322 211.087 89.2322 211.552V211.812ZM97.2644 215.141C96.517 215.141 95.9451 214.906 95.5486 214.437C95.1521 213.963 94.9539 213.243 94.9539 212.277V208.353H96.1638V212.29C96.1638 212.988 96.2641 213.473 96.4646 213.746C96.6697 214.02 97.0001 214.157 97.4558 214.157C98.2898 214.157 98.8595 213.822 99.1648 213.152V208.353H100.375V215.011H99.2878L99.2058 214.027C98.7683 214.77 98.1212 215.141 97.2644 215.141ZM104.62 214.177C105.048 214.177 105.385 214.093 105.632 213.924C105.878 213.751 106.001 213.523 106.001 213.241C106.001 212.958 105.896 212.735 105.686 212.571C105.477 212.402 105.096 212.254 104.545 212.126C103.706 211.944 103.089 211.703 102.692 211.402C102.3 211.096 102.104 210.677 102.104 210.144C102.104 209.611 102.337 209.157 102.802 208.784C103.266 208.405 103.872 208.216 104.62 208.216C105.367 208.216 105.971 208.414 106.431 208.811C106.896 209.203 107.117 209.69 107.094 210.274L107.081 210.308H105.926C105.926 210.003 105.8 209.738 105.55 209.515C105.303 209.292 104.978 209.18 104.572 209.18C104.171 209.18 103.861 209.271 103.642 209.453C103.424 209.631 103.314 209.859 103.314 210.137C103.314 210.415 103.41 210.627 103.601 210.773C103.793 210.919 104.169 211.051 104.729 211.169C105.586 211.356 106.215 211.607 106.616 211.921C107.017 212.231 107.218 212.644 107.218 213.159C107.218 213.751 106.978 214.23 106.5 214.594C106.026 214.959 105.388 215.141 104.586 215.141C103.784 215.141 103.134 214.931 102.637 214.512C102.145 214.093 101.911 213.585 101.933 212.988L101.947 212.953H103.102C103.125 213.364 103.278 213.674 103.56 213.883C103.847 214.088 104.205 214.191 104.634 214.191L104.62 214.177ZM111.21 214.177C111.638 214.177 111.975 214.093 112.221 213.924C112.468 213.751 112.591 213.523 112.591 213.241C112.591 212.958 112.486 212.735 112.276 212.571C112.066 212.402 111.686 212.254 111.135 212.126C110.296 211.944 109.678 211.703 109.282 211.402C108.89 211.096 108.694 210.677 108.694 210.144C108.694 209.611 108.927 209.157 109.391 208.784C109.856 208.405 110.462 208.216 111.21 208.216C111.957 208.216 112.561 208.414 113.021 208.811C113.486 209.203 113.707 209.69 113.684 210.274L113.671 210.308H112.515C112.515 210.003 112.39 209.738 112.139 209.515C111.893 209.292 111.567 209.18 111.162 209.18C110.761 209.18 110.451 209.271 110.232 209.453C110.013 209.631 109.904 209.859 109.904 210.137C109.904 210.415 110 210.627 110.191 210.773C110.383 210.919 110.759 211.051 111.319 211.169C112.176 211.356 112.805 211.607 113.206 211.921C113.607 212.231 113.807 212.644 113.807 213.159C113.807 213.751 113.568 214.23 113.09 214.594C112.616 214.959 111.978 215.141 111.176 215.141C110.373 215.141 109.724 214.931 109.227 214.512C108.735 214.093 108.5 213.585 108.523 212.988L108.537 212.953H109.692C109.715 213.364 109.868 213.674 110.15 213.883C110.437 214.088 110.795 214.191 111.223 214.191L111.21 214.177ZM116.631 208.339V214.997H115.421V208.339H116.631ZM116.631 205.4V206.637H115.421V205.4H116.631ZM119.427 211.62V211.757C119.427 212.495 119.577 213.086 119.878 213.528C120.183 213.97 120.621 214.191 121.19 214.191C121.76 214.191 122.197 213.97 122.503 213.528C122.808 213.081 122.961 212.491 122.961 211.757V211.62C122.961 210.896 122.806 210.31 122.496 209.864C122.191 209.412 121.753 209.187 121.183 209.187C120.618 209.187 120.183 209.412 119.878 209.864C119.577 210.31 119.427 210.896 119.427 211.62ZM118.21 211.757V211.62C118.21 210.618 118.479 209.802 119.016 209.173C119.554 208.544 120.279 208.23 121.19 208.23C122.102 208.23 122.826 208.544 123.364 209.173C123.902 209.798 124.171 210.613 124.171 211.62V211.757C124.171 212.769 123.902 213.587 123.364 214.211C122.831 214.831 122.106 215.141 121.19 215.141C120.279 215.141 119.554 214.829 119.016 214.204C118.479 213.58 118.21 212.764 118.21 211.757ZM125.661 208.339H126.741L126.83 209.33C127.29 208.588 127.949 208.216 128.805 208.216C129.535 208.216 130.093 208.43 130.48 208.859C130.868 209.283 131.061 209.927 131.061 210.793V214.997H129.851V210.821C129.851 210.242 129.737 209.827 129.51 209.577C129.282 209.326 128.926 209.201 128.443 209.201C128.097 209.201 127.789 209.283 127.52 209.447C127.251 209.611 127.035 209.843 126.871 210.144V214.997H125.661V208.339ZM135.3 214.177C135.728 214.177 136.065 214.093 136.311 213.924C136.557 213.751 136.68 213.523 136.68 213.241C136.68 212.958 136.576 212.735 136.366 212.571C136.156 212.402 135.776 212.254 135.224 212.126C134.386 211.944 133.768 211.703 133.372 211.402C132.98 211.096 132.784 210.677 132.784 210.144C132.784 209.611 133.016 209.157 133.481 208.784C133.946 208.405 134.552 208.216 135.3 208.216C136.047 208.216 136.651 208.414 137.111 208.811C137.576 209.203 137.797 209.69 137.774 210.274L137.76 210.308H136.605C136.605 210.003 136.48 209.738 136.229 209.515C135.983 209.292 135.657 209.18 135.252 209.18C134.851 209.18 134.541 209.271 134.322 209.453C134.103 209.631 133.994 209.859 133.994 210.137C133.994 210.415 134.09 210.627 134.281 210.773C134.472 210.919 134.848 211.051 135.409 211.169C136.266 211.356 136.895 211.607 137.296 211.921C137.697 212.231 137.897 212.644 137.897 213.159C137.897 213.751 137.658 214.23 137.179 214.594C136.705 214.959 136.067 215.141 135.265 215.141C134.463 215.141 133.814 214.931 133.317 214.512C132.825 214.093 132.59 213.585 132.613 212.988L132.627 212.953H133.782C133.805 213.364 133.957 213.674 134.24 213.883C134.527 214.088 134.885 214.191 135.313 214.191L135.3 214.177Z" fill="#717171"/>
<rect x="195.022" y="240.977" width="14" height="14" rx="3" fill="#4482F0"/>
<path d="M206.58 244.429L201.889 252.189C201.716 252.474 201.427 252.644 201.114 252.644C200.837 252.644 200.575 252.511 200.395 252.278L197.51 248.554C197.28 248.257 197.31 247.82 197.58 247.56C197.842 247.306 198.283 247.301 198.551 247.549L201.003 249.82L205.391 243.608C205.609 243.299 206.062 243.216 206.371 243.429C206.693 243.651 206.785 244.09 206.58 244.429Z" fill="white"/>
<path d="M218.223 244.472H216.685V251.527H218.223C219.048 251.527 219.7 251.26 220.178 250.727C220.661 250.189 220.903 249.485 220.903 248.615V247.377C220.903 246.512 220.661 245.812 220.178 245.279C219.695 244.741 219.043 244.472 218.223 244.472ZM218.223 252.477H215.475V243.522H218.223C219.399 243.522 220.34 243.88 221.046 244.595C221.757 245.306 222.113 246.238 222.113 247.391V248.615C222.113 249.768 221.757 250.7 221.046 251.411C220.34 252.122 219.399 252.477 218.223 252.477ZM227.629 248.341C227.629 247.84 227.5 247.437 227.24 247.131C226.98 246.821 226.606 246.667 226.119 246.667C225.718 246.667 225.371 246.835 225.08 247.172C224.792 247.51 224.615 247.94 224.546 248.464L224.56 248.499H227.629V248.341ZM226.303 252.621C225.378 252.621 224.64 252.315 224.088 251.705C223.542 251.094 223.268 250.29 223.268 249.292V249.018C223.268 248.084 223.546 247.3 224.102 246.667C224.663 246.028 225.335 245.709 226.119 245.709C227.003 245.709 227.677 245.976 228.142 246.509C228.611 247.038 228.846 247.765 228.846 248.69V249.449H224.526L224.505 249.476C224.519 250.132 224.683 250.663 224.998 251.069C225.317 251.47 225.752 251.67 226.303 251.67C227.078 251.67 227.707 251.452 228.19 251.014L228.668 251.8H228.662C228.106 252.347 227.319 252.621 226.303 252.621ZM231.157 249.292C231.157 250.007 231.289 250.572 231.553 250.987C231.84 251.443 232.298 251.67 232.927 251.67C233.337 251.67 233.693 251.545 233.994 251.294C234.294 251.044 234.445 250.741 234.445 250.385H235.532L235.545 250.426C235.568 251.005 235.315 251.515 234.787 251.958C234.258 252.4 233.638 252.621 232.927 252.621C231.979 252.621 231.243 252.313 230.719 251.698C230.195 251.083 229.933 250.28 229.933 249.292V249.032C229.933 248.047 230.195 247.248 230.719 246.632C231.248 246.017 231.984 245.709 232.927 245.709C233.702 245.709 234.338 245.937 234.834 246.393C235.331 246.849 235.57 247.416 235.552 248.095L235.539 248.129H234.445C234.445 247.719 234.301 247.373 234.014 247.09C233.727 246.808 233.369 246.667 232.941 246.667C232.517 246.667 232.168 246.774 231.895 246.988C231.626 247.202 231.435 247.48 231.321 247.822C231.211 248.164 231.157 248.567 231.157 249.032V249.292ZM238.211 242.879V252.477H237.001V242.879H238.211ZM241.383 245.819V252.477H240.173V245.819H241.383ZM241.383 242.879V244.117H240.173V242.879H241.383ZM243.25 245.819H244.33L244.418 246.81C244.879 246.067 245.537 245.696 246.394 245.696C247.123 245.696 247.681 245.91 248.069 246.338C248.456 246.762 248.65 247.407 248.65 248.273V252.477H247.44V248.3C247.44 247.722 247.326 247.307 247.098 247.056C246.87 246.806 246.515 246.68 246.032 246.68C245.685 246.68 245.378 246.762 245.109 246.926C244.84 247.09 244.624 247.323 244.459 247.624V252.477H243.25V245.819ZM254.495 248.341C254.495 247.84 254.365 247.437 254.105 247.131C253.845 246.821 253.472 246.667 252.984 246.667C252.583 246.667 252.236 246.835 251.945 247.172C251.658 247.51 251.48 247.94 251.412 248.464L251.425 248.499H254.495V248.341ZM253.168 252.621C252.243 252.621 251.505 252.315 250.954 251.705C250.407 251.094 250.133 250.29 250.133 249.292V249.018C250.133 248.084 250.411 247.3 250.967 246.667C251.528 246.028 252.2 245.709 252.984 245.709C253.868 245.709 254.542 245.976 255.007 246.509C255.477 247.038 255.711 247.765 255.711 248.69V249.449H251.391L251.371 249.476C251.384 250.132 251.548 250.663 251.863 251.069C252.182 251.47 252.617 251.67 253.168 251.67C253.943 251.67 254.572 251.452 255.055 251.014L255.534 251.8H255.527C254.971 252.347 254.185 252.621 253.168 252.621ZM256.798 249.285C256.798 248.195 257.028 247.327 257.489 246.68C257.949 246.033 258.578 245.709 259.375 245.709C260.173 245.709 260.786 245.992 261.214 246.557V242.893H262.431V252.491H261.44L261.296 251.67C260.854 252.304 260.225 252.621 259.41 252.621C258.594 252.621 257.956 252.331 257.496 251.752C257.035 251.169 256.805 250.39 256.805 249.415L256.798 249.285ZM258.022 249.285V249.415C258.022 250.112 258.161 250.656 258.439 251.048C258.722 251.44 259.145 251.636 259.71 251.636C260.394 251.636 260.9 251.324 261.228 250.7V247.596C260.891 246.995 260.389 246.694 259.724 246.694C259.154 246.694 258.728 246.926 258.446 247.391C258.163 247.851 258.022 248.483 258.022 249.285ZM268.187 244.226H269.411V245.833H270.668V246.735H269.411V250.775C269.411 251.34 269.645 251.623 270.115 251.623C270.261 251.623 270.411 251.595 270.566 251.541L270.723 252.368C270.504 252.536 270.197 252.621 269.8 252.621C269.29 252.621 268.893 252.468 268.611 252.163C268.328 251.857 268.187 251.395 268.187 250.775V246.735H267.134V245.833H268.187V244.226ZM273.375 252.484H272.166V245.826H273.246L273.362 246.796C273.767 246.063 274.319 245.696 275.016 245.696C275.18 245.696 275.335 245.719 275.481 245.764L275.317 246.899L274.695 246.858C274.07 246.858 273.631 247.147 273.375 247.726V252.484ZM280.567 248.341C280.567 247.84 280.437 247.437 280.177 247.131C279.917 246.821 279.544 246.667 279.056 246.667C278.655 246.667 278.309 246.835 278.017 247.172C277.73 247.51 277.552 247.94 277.484 248.464L277.498 248.499H280.567V248.341ZM279.241 252.621C278.316 252.621 277.577 252.315 277.026 251.705C276.479 251.094 276.206 250.29 276.206 249.292V249.018C276.206 248.084 276.484 247.3 277.04 246.667C277.6 246.028 278.272 245.709 279.056 245.709C279.94 245.709 280.615 245.976 281.08 246.509C281.549 247.038 281.784 247.765 281.784 248.69V249.449H277.463L277.443 249.476C277.457 250.132 277.621 250.663 277.935 251.069C278.254 251.47 278.689 251.67 279.241 251.67C280.015 251.67 280.644 251.452 281.127 251.014L281.606 251.8H281.599C281.043 252.347 280.257 252.621 279.241 252.621ZM285.051 252.621C284.359 252.621 283.83 252.445 283.465 252.094C283.101 251.743 282.918 251.251 282.918 250.618C282.918 249.984 283.174 249.487 283.684 249.127C284.194 248.767 284.896 248.587 285.79 248.587H287.102V247.931C287.102 247.539 286.981 247.232 286.74 247.008C286.503 246.78 286.179 246.667 285.769 246.667C285.363 246.667 285.038 246.764 284.792 246.96C284.545 247.152 284.422 247.391 284.422 247.678H283.267L283.253 247.644C283.231 247.143 283.463 246.696 283.951 246.304C284.443 245.908 285.067 245.709 285.824 245.709C286.585 245.709 287.191 245.905 287.642 246.297C288.093 246.685 288.319 247.234 288.319 247.945V251.151C288.319 251.666 288.376 252.112 288.49 252.491H287.239C287.152 252.067 287.107 251.734 287.102 251.493C286.865 251.83 286.564 252.103 286.2 252.313C285.84 252.518 285.457 252.621 285.051 252.621ZM284.142 250.645H284.135C284.135 250.946 284.229 251.181 284.416 251.349C284.602 251.518 284.892 251.602 285.284 251.602C285.676 251.602 286.049 251.493 286.405 251.274C286.765 251.051 287 250.791 287.109 250.495V249.408H285.755C285.272 249.408 284.883 249.528 284.586 249.77C284.29 250.007 284.142 250.299 284.142 250.645ZM290.472 244.226H291.696V245.833H292.954V246.735H291.696V250.775C291.696 251.34 291.931 251.623 292.4 251.623C292.546 251.623 292.696 251.595 292.851 251.541L293.008 252.368C292.79 252.536 292.482 252.621 292.085 252.621C291.575 252.621 291.179 252.468 290.896 252.163C290.613 251.857 290.472 251.395 290.472 250.775V246.735H289.419V245.833H290.472V244.226ZM295.661 252.477H294.458V245.819H295.538L295.626 246.694C296.082 246.028 296.757 245.696 297.65 245.696C298.548 245.696 299.156 246.106 299.475 246.926C299.935 246.106 300.614 245.696 301.512 245.696C302.209 245.696 302.75 245.933 303.132 246.407C303.515 246.876 303.707 247.573 303.707 248.499V252.477H302.497V248.485C302.497 247.842 302.387 247.382 302.168 247.104C301.95 246.821 301.622 246.68 301.184 246.68C300.751 246.68 300.405 246.821 300.145 247.104C299.89 247.382 299.739 247.747 299.694 248.198V252.477H298.47V248.485C298.47 247.865 298.356 247.409 298.128 247.118C297.905 246.826 297.57 246.68 297.124 246.68C296.422 246.68 295.934 246.97 295.661 247.548V252.477ZM309.551 248.341C309.551 247.84 309.421 247.437 309.162 247.131C308.902 246.821 308.528 246.667 308.041 246.667C307.639 246.667 307.293 246.835 307.001 247.172C306.714 247.51 306.537 247.94 306.468 248.464L306.482 248.499H309.551V248.341ZM308.225 252.621C307.3 252.621 306.562 252.315 306.01 251.705C305.463 251.094 305.19 250.29 305.19 249.292V249.018C305.19 248.084 305.468 247.3 306.024 246.667C306.584 246.028 307.257 245.709 308.041 245.709C308.925 245.709 309.599 245.976 310.064 246.509C310.533 247.038 310.768 247.765 310.768 248.69V249.449H306.448L306.427 249.476C306.441 250.132 306.605 250.663 306.919 251.069C307.238 251.47 307.674 251.67 308.225 251.67C309 251.67 309.629 251.452 310.112 251.014L310.59 251.8H310.583C310.028 252.347 309.241 252.621 308.225 252.621ZM312.142 245.819H313.222L313.311 246.81C313.771 246.067 314.43 245.696 315.287 245.696C316.016 245.696 316.574 245.91 316.961 246.338C317.349 246.762 317.542 247.407 317.542 248.273V252.477H316.333V248.3C316.333 247.722 316.219 247.307 315.991 247.056C315.763 246.806 315.407 246.68 314.924 246.68C314.578 246.68 314.27 246.762 314.001 246.926C313.733 247.09 313.516 247.323 313.352 247.624V252.477H312.142V245.819ZM319.689 244.226H320.913V245.833H322.17V246.735H320.913V250.775C320.913 251.34 321.147 251.623 321.617 251.623C321.763 251.623 321.913 251.595 322.068 251.541L322.225 252.368C322.006 252.536 321.699 252.621 321.302 252.621C320.792 252.621 320.395 252.468 320.113 252.163C319.83 251.857 319.689 251.395 319.689 250.775V246.735H318.636V245.833H319.689V244.226ZM326.142 251.657C326.57 251.657 326.908 251.572 327.154 251.404C327.4 251.231 327.523 251.003 327.523 250.72C327.523 250.438 327.418 250.214 327.208 250.05C326.999 249.882 326.618 249.734 326.067 249.606C325.228 249.424 324.611 249.182 324.214 248.881C323.822 248.576 323.626 248.157 323.626 247.624C323.626 247.09 323.859 246.637 324.324 246.263C324.789 245.885 325.395 245.696 326.142 245.696C326.889 245.696 327.493 245.894 327.954 246.291C328.418 246.682 328.639 247.17 328.617 247.753L328.603 247.788H327.448C327.448 247.482 327.322 247.218 327.072 246.995C326.826 246.771 326.5 246.66 326.094 246.66C325.693 246.66 325.383 246.751 325.165 246.933C324.946 247.111 324.836 247.339 324.836 247.617C324.836 247.895 324.932 248.107 325.124 248.252C325.315 248.398 325.691 248.53 326.251 248.649C327.108 248.836 327.737 249.086 328.138 249.401C328.539 249.711 328.74 250.123 328.74 250.638C328.74 251.231 328.5 251.709 328.022 252.074C327.548 252.438 326.91 252.621 326.108 252.621C325.306 252.621 324.656 252.411 324.16 251.992C323.667 251.572 323.433 251.064 323.456 250.467L323.469 250.433H324.625C324.647 250.843 324.8 251.153 325.083 251.363C325.37 251.568 325.727 251.67 326.156 251.67L326.142 251.657Z" fill="#717171"/>
<rect x="50.5076" y="241.31" width="13.334" height="13.334" rx="2.5" fill="white" stroke="#BDBDBD"/>
<path d="M71.8372 244.472V247.938H74.052C74.6444 247.938 75.0933 247.781 75.3987 247.466C75.7086 247.152 75.8635 246.735 75.8635 246.215C75.8635 245.696 75.7086 245.277 75.3987 244.958C75.0888 244.634 74.6399 244.472 74.052 244.472H71.8372ZM74.052 248.881H71.8372V252.477H70.6272V243.522H74.052C74.9999 243.522 75.7405 243.766 76.2737 244.254C76.8069 244.737 77.0735 245.391 77.0735 246.215C77.0735 247.036 76.8069 247.685 76.2737 248.164C75.745 248.642 75.0045 248.881 74.052 248.881ZM79.7874 245.819V252.477H78.5774V245.819H79.7874ZM79.7874 242.88V244.117H78.5774V242.88H79.7874ZM81.6536 245.819H82.7336L82.8225 246.81C83.2828 246.067 83.9413 245.696 84.7981 245.696C85.5273 245.696 86.0855 245.91 86.4729 246.339C86.8603 246.762 87.054 247.407 87.054 248.273V252.477H85.844V248.3C85.844 247.722 85.7301 247.307 85.5022 247.056C85.2743 246.806 84.9189 246.68 84.4358 246.68C84.0894 246.68 83.7818 246.762 83.5129 246.926C83.2441 247.09 83.0276 247.323 82.8635 247.624V252.477H81.6536V245.819ZM88.8176 245.819H89.8977L89.9866 246.81C90.4469 246.067 91.1054 245.696 91.9622 245.696C92.6913 245.696 93.2496 245.91 93.637 246.339C94.0243 246.762 94.218 247.407 94.218 248.273V252.477H93.0081V248.3C93.0081 247.722 92.8941 247.307 92.6663 247.056C92.4384 246.806 92.0829 246.68 91.5999 246.68C91.2535 246.68 90.9459 246.762 90.677 246.926C90.4081 247.09 90.1917 247.323 90.0276 247.624V252.477H88.8176V245.819ZM100.063 248.341C100.063 247.84 99.9329 247.437 99.6731 247.131C99.4133 246.822 99.0396 246.667 98.552 246.667C98.151 246.667 97.8046 246.835 97.5129 247.172C97.2258 247.51 97.0481 247.94 96.9797 248.464L96.9934 248.499H100.063V248.341ZM98.7366 252.621C97.8114 252.621 97.0732 252.315 96.5217 251.705C95.9749 251.094 95.7014 250.29 95.7014 249.292V249.018C95.7014 248.084 95.9794 247.3 96.5354 246.667C97.0959 246.029 97.7681 245.71 98.552 245.71C99.4361 245.71 100.111 245.976 100.575 246.509C101.045 247.038 101.28 247.765 101.28 248.69V249.449H96.9592L96.9387 249.476C96.9524 250.132 97.1165 250.663 97.4309 251.069C97.7499 251.47 98.1851 251.671 98.7366 251.671C99.5113 251.671 100.14 251.452 100.623 251.014L101.102 251.8H101.095C100.539 252.347 99.7528 252.621 98.7366 252.621ZM102.366 249.285C102.366 248.196 102.597 247.327 103.057 246.68C103.517 246.033 104.146 245.71 104.944 245.71C105.741 245.71 106.354 245.992 106.782 246.557V242.893H107.999V252.491H107.008L106.865 251.671C106.422 252.304 105.794 252.621 104.978 252.621C104.162 252.621 103.524 252.331 103.064 251.753C102.603 251.169 102.373 250.39 102.373 249.415L102.366 249.285ZM103.59 249.285V249.415C103.59 250.112 103.729 250.657 104.007 251.048C104.29 251.44 104.713 251.636 105.279 251.636C105.962 251.636 106.468 251.324 106.796 250.7V247.596C106.459 246.995 105.958 246.694 105.292 246.694C104.723 246.694 104.296 246.926 104.014 247.391C103.731 247.852 103.59 248.483 103.59 249.285ZM116.127 246.694C115.416 246.694 114.897 247.031 114.569 247.706V250.59C114.901 251.288 115.428 251.636 116.148 251.636C116.708 251.636 117.13 251.44 117.412 251.048C117.699 250.652 117.843 250.107 117.843 249.415L117.829 249.285C117.829 248.492 117.686 247.863 117.399 247.398C117.112 246.929 116.688 246.694 116.127 246.694ZM119.053 249.285V249.415C119.053 250.39 118.821 251.169 118.356 251.753C117.895 252.331 117.264 252.621 116.462 252.621C115.592 252.621 114.94 252.283 114.507 251.609L114.364 252.491H113.372V242.893H114.582V246.619C115.02 246.013 115.644 245.71 116.455 245.71C117.267 245.71 117.902 246.033 118.363 246.68C118.823 247.327 119.053 248.196 119.053 249.285ZM121.842 242.88V252.477H120.632V242.88H121.842ZM124.638 249.1V249.237C124.638 249.975 124.788 250.565 125.089 251.007C125.394 251.45 125.832 251.671 126.402 251.671C126.971 251.671 127.409 251.45 127.714 251.007C128.019 250.561 128.172 249.971 128.172 249.237V249.1C128.172 248.376 128.017 247.79 127.707 247.343C127.402 246.892 126.964 246.667 126.395 246.667C125.83 246.667 125.394 246.892 125.089 247.343C124.788 247.79 124.638 248.376 124.638 249.1ZM123.421 249.237V249.1C123.421 248.098 123.69 247.282 124.228 246.653C124.766 246.024 125.49 245.71 126.402 245.71C127.313 245.71 128.038 246.024 128.575 246.653C129.113 247.277 129.382 248.093 129.382 249.1V249.237C129.382 250.249 129.113 251.067 128.575 251.691C128.042 252.311 127.318 252.621 126.402 252.621C125.49 252.621 124.766 252.309 124.228 251.684C123.69 251.06 123.421 250.244 123.421 249.237ZM131.809 249.292C131.809 250.007 131.941 250.572 132.205 250.987C132.492 251.443 132.95 251.671 133.579 251.671C133.99 251.671 134.345 251.545 134.646 251.295C134.947 251.044 135.097 250.741 135.097 250.385H136.184L136.198 250.426C136.22 251.005 135.967 251.516 135.439 251.958C134.91 252.4 134.29 252.621 133.579 252.621C132.631 252.621 131.895 252.313 131.371 251.698C130.847 251.083 130.585 250.281 130.585 249.292V249.032C130.585 248.047 130.847 247.248 131.371 246.632C131.9 246.017 132.636 245.71 133.579 245.71C134.354 245.71 134.99 245.937 135.487 246.393C135.983 246.849 136.223 247.416 136.204 248.095L136.191 248.13H135.097C135.097 247.719 134.953 247.373 134.666 247.09C134.379 246.808 134.021 246.667 133.593 246.667C133.169 246.667 132.821 246.774 132.547 246.988C132.278 247.202 132.087 247.48 131.973 247.822C131.864 248.164 131.809 248.567 131.809 249.032V249.292ZM138.775 249.408V252.477H137.565V242.88H138.775V248.444H139.547L141.372 245.819H142.822L140.545 248.847L143.15 252.477H141.721L139.561 249.408H138.775ZM146.499 251.657C146.928 251.657 147.265 251.573 147.511 251.404C147.757 251.231 147.88 251.003 147.88 250.72C147.88 250.438 147.775 250.214 147.566 250.05C147.356 249.882 146.976 249.734 146.424 249.606C145.586 249.424 144.968 249.182 144.572 248.881C144.18 248.576 143.984 248.157 143.984 247.624C143.984 247.09 144.216 246.637 144.681 246.263C145.146 245.885 145.752 245.696 146.499 245.696C147.247 245.696 147.851 245.894 148.311 246.291C148.776 246.683 148.997 247.17 148.974 247.754L148.96 247.788H147.805C147.805 247.482 147.68 247.218 147.429 246.995C147.183 246.771 146.857 246.66 146.451 246.66C146.05 246.66 145.74 246.751 145.522 246.933C145.303 247.111 145.194 247.339 145.194 247.617C145.194 247.895 145.289 248.107 145.481 248.253C145.672 248.398 146.048 248.531 146.609 248.649C147.465 248.836 148.094 249.087 148.495 249.401C148.896 249.711 149.097 250.123 149.097 250.638C149.097 251.231 148.858 251.709 148.379 252.074C147.905 252.438 147.267 252.621 146.465 252.621C145.663 252.621 145.014 252.411 144.517 251.992C144.025 251.573 143.79 251.064 143.813 250.467L143.826 250.433H144.982C145.004 250.843 145.157 251.153 145.44 251.363C145.727 251.568 146.085 251.671 146.513 251.671L146.499 251.657Z" fill="#717171"/>
<rect x="195.022" y="203.497" width="14" height="14" rx="3" fill="#4482F0"/>
<path d="M206.58 206.949L201.889 214.71C201.716 214.994 201.427 215.164 201.114 215.164C200.837 215.164 200.575 215.031 200.395 214.798L197.51 211.075C197.28 210.777 197.31 210.34 197.58 210.08C197.842 209.826 198.283 209.821 198.551 210.07L201.003 212.34L205.391 206.128C205.609 205.82 206.062 205.736 206.371 205.95C206.693 206.172 206.785 206.611 206.58 206.949Z" fill="white"/>
<path d="M218.961 210.793H216.685V214.047H218.783C219.339 214.047 219.77 213.913 220.075 213.644C220.381 213.37 220.533 212.974 220.533 212.454C220.533 211.935 220.401 211.529 220.137 211.238C219.877 210.941 219.485 210.793 218.961 210.793ZM216.685 206.993V209.85H218.646C219.107 209.85 219.476 209.725 219.754 209.474C220.036 209.223 220.178 208.879 220.178 208.442C220.178 207.476 219.585 206.993 218.4 206.993H216.685ZM218.783 214.997H215.475V206.042H218.4C219.357 206.042 220.093 206.247 220.608 206.658C221.128 207.063 221.388 207.665 221.388 208.462C221.388 208.859 221.262 209.214 221.012 209.529C220.761 209.843 220.424 210.076 220 210.226C220.538 210.344 220.962 210.609 221.271 211.019C221.586 211.425 221.743 211.908 221.743 212.468C221.743 213.284 221.481 213.911 220.957 214.348C220.438 214.781 219.713 214.997 218.783 214.997ZM224.737 206.993V210.458H226.952C227.545 210.458 227.993 210.301 228.299 209.987C228.609 209.672 228.764 209.255 228.764 208.736C228.764 208.216 228.609 207.797 228.299 207.478C227.989 207.154 227.54 206.993 226.952 206.993H224.737ZM226.952 211.402H224.737V214.997H223.527V206.042H226.952C227.9 206.042 228.641 206.286 229.174 206.774C229.707 207.257 229.974 207.911 229.974 208.736C229.974 209.556 229.707 210.205 229.174 210.684C228.645 211.162 227.905 211.402 226.952 211.402ZM236.926 209.891V210.841H232.817V214.047H237.548V214.997H231.607V206.042H237.486V206.993H232.817V209.891H236.926ZM241.226 214.177C241.654 214.177 241.991 214.093 242.237 213.924C242.483 213.751 242.606 213.523 242.606 213.241C242.606 212.958 242.502 212.735 242.292 212.571C242.082 212.402 241.702 212.254 241.15 212.126C240.312 211.944 239.694 211.703 239.298 211.402C238.906 211.096 238.71 210.677 238.71 210.144C238.71 209.611 238.942 209.157 239.407 208.784C239.872 208.405 240.478 208.216 241.226 208.216C241.973 208.216 242.577 208.414 243.037 208.811C243.502 209.203 243.723 209.69 243.7 210.274L243.687 210.308H242.531C242.531 210.003 242.406 209.738 242.155 209.515C241.909 209.292 241.583 209.18 241.178 209.18C240.777 209.18 240.467 209.271 240.248 209.453C240.029 209.631 239.92 209.859 239.92 210.137C239.92 210.415 240.016 210.627 240.207 210.773C240.398 210.919 240.774 211.051 241.335 211.169C242.192 211.356 242.821 211.607 243.222 211.921C243.623 212.231 243.823 212.644 243.823 213.159C243.823 213.751 243.584 214.23 243.105 214.594C242.632 214.959 241.993 215.141 241.191 215.141C240.389 215.141 239.74 214.931 239.243 214.512C238.751 214.093 238.516 213.585 238.539 212.988L238.553 212.953H239.708C239.731 213.364 239.883 213.674 240.166 213.883C240.453 214.088 240.811 214.191 241.239 214.191L241.226 214.177Z" fill="#717171"/>
<rect x="301.536" y="203.828" width="13.3398" height="13.3398" rx="2.5" fill="white" stroke="#BDBDBD"/>
<path d="M326.997 212.147H328.152L328.166 212.181C328.184 213.038 327.888 213.746 327.277 214.307C326.667 214.863 325.86 215.141 324.857 215.141C323.855 215.141 323.035 214.786 322.396 214.075C321.758 213.359 321.439 212.445 321.439 211.333V209.741C321.439 208.629 321.758 207.715 322.396 206.999C323.035 206.284 323.862 205.926 324.878 205.926C325.894 205.926 326.701 206.195 327.298 206.733C327.899 207.266 328.191 207.981 328.173 208.879L328.159 208.913H326.997C326.997 208.275 326.81 207.776 326.437 207.416C326.067 207.056 325.548 206.876 324.878 206.876C324.213 206.876 323.677 207.145 323.271 207.683C322.866 208.221 322.663 208.902 322.663 209.727V211.333C322.663 212.167 322.866 212.853 323.271 213.391C323.677 213.924 324.215 214.191 324.885 214.191C325.555 214.191 326.074 214.013 326.443 213.658C326.812 213.298 326.997 212.794 326.997 212.147ZM330.518 211.62V211.757C330.518 212.495 330.668 213.086 330.969 213.528C331.274 213.97 331.712 214.191 332.281 214.191C332.851 214.191 333.288 213.97 333.594 213.528C333.899 213.081 334.052 212.491 334.052 211.757V211.62C334.052 210.896 333.897 210.31 333.587 209.864C333.282 209.412 332.844 209.187 332.274 209.187C331.709 209.187 331.274 209.412 330.969 209.864C330.668 210.31 330.518 210.896 330.518 211.62ZM329.301 211.757V211.62C329.301 210.618 329.57 209.802 330.107 209.173C330.645 208.544 331.37 208.23 332.281 208.23C333.193 208.23 333.917 208.544 334.455 209.173C334.993 209.798 335.262 210.613 335.262 211.62V211.757C335.262 212.769 334.993 213.587 334.455 214.211C333.922 214.831 333.197 215.141 332.281 215.141C331.37 215.141 330.645 214.829 330.107 214.204C329.57 213.58 329.301 212.764 329.301 211.757ZM337.962 215.004H336.752V208.346H337.832L337.948 209.317C338.354 208.583 338.905 208.216 339.603 208.216C339.767 208.216 339.922 208.239 340.067 208.285L339.903 209.419L339.281 209.378C338.657 209.378 338.217 209.668 337.962 210.246V215.004ZM342.282 215.004H341.072V208.346H342.152L342.269 209.317C342.674 208.583 343.226 208.216 343.923 208.216C344.087 208.216 344.242 208.239 344.388 208.285L344.224 209.419L343.602 209.378C342.977 209.378 342.537 209.668 342.282 210.246V215.004ZM349.474 210.862C349.474 210.36 349.344 209.957 349.084 209.652C348.824 209.342 348.451 209.187 347.963 209.187C347.562 209.187 347.215 209.356 346.924 209.693C346.637 210.03 346.459 210.461 346.391 210.985L346.404 211.019H349.474V210.862ZM348.147 215.141C347.222 215.141 346.484 214.836 345.933 214.225C345.386 213.614 345.112 212.81 345.112 211.812V211.538C345.112 210.604 345.39 209.82 345.946 209.187C346.507 208.549 347.179 208.23 347.963 208.23C348.847 208.23 349.521 208.496 349.986 209.03C350.456 209.558 350.69 210.285 350.69 211.21V211.969H346.37L346.35 211.996C346.363 212.653 346.527 213.184 346.842 213.589C347.161 213.99 347.596 214.191 348.147 214.191C348.922 214.191 349.551 213.972 350.034 213.535L350.513 214.321H350.506C349.95 214.868 349.164 215.141 348.147 215.141ZM354.539 214.177C354.967 214.177 355.305 214.093 355.551 213.924C355.797 213.751 355.92 213.523 355.92 213.241C355.92 212.958 355.815 212.735 355.605 212.571C355.396 212.402 355.015 212.254 354.464 212.126C353.625 211.944 353.008 211.703 352.611 211.402C352.219 211.096 352.023 210.677 352.023 210.144C352.023 209.611 352.256 209.157 352.721 208.784C353.186 208.405 353.792 208.216 354.539 208.216C355.286 208.216 355.89 208.414 356.351 208.811C356.815 209.203 357.036 209.69 357.014 210.274L357 210.308H355.845C355.845 210.003 355.719 209.738 355.469 209.515C355.223 209.292 354.897 209.18 354.491 209.18C354.09 209.18 353.78 209.271 353.562 209.453C353.343 209.631 353.233 209.859 353.233 210.137C353.233 210.415 353.329 210.627 353.521 210.773C353.712 210.919 354.088 211.051 354.648 211.169C355.505 211.356 356.134 211.607 356.535 211.921C356.936 212.231 357.137 212.644 357.137 213.159C357.137 213.751 356.897 214.23 356.419 214.594C355.945 214.959 355.307 215.141 354.505 215.141C353.703 215.141 353.053 214.931 352.557 214.512C352.064 214.093 351.83 213.585 351.853 212.988L351.866 212.953H353.021C353.044 213.364 353.197 213.674 353.479 213.883C353.767 214.088 354.124 214.191 354.553 214.191L354.539 214.177ZM364.328 212.078V212.208C364.328 213.179 364.096 213.956 363.631 214.539C363.171 215.118 362.537 215.408 361.73 215.408C360.924 215.408 360.302 215.134 359.864 214.587V217.841H358.654V208.626H359.584L359.775 209.488C360.217 208.831 360.855 208.503 361.689 208.503C362.528 208.503 363.177 208.827 363.638 209.474C364.098 210.117 364.328 210.985 364.328 212.078ZM363.111 212.208V212.078C363.111 211.295 362.959 210.668 362.653 210.199C362.353 209.725 361.92 209.488 361.354 209.488C360.685 209.488 360.188 209.782 359.864 210.37V213.589C360.183 214.173 360.685 214.464 361.368 214.464C361.929 214.464 362.359 214.259 362.66 213.849C362.961 213.439 363.111 212.892 363.111 212.208ZM366.748 211.62V211.757C366.748 212.495 366.898 213.086 367.199 213.528C367.505 213.97 367.942 214.191 368.512 214.191C369.081 214.191 369.519 213.97 369.824 213.528C370.13 213.081 370.282 212.491 370.282 211.757V211.62C370.282 210.896 370.127 210.31 369.817 209.864C369.512 209.412 369.075 209.187 368.505 209.187C367.94 209.187 367.505 209.412 367.199 209.864C366.898 210.31 366.748 210.896 366.748 211.62ZM365.531 211.757V211.62C365.531 210.618 365.8 209.802 366.338 209.173C366.876 208.544 367.6 208.23 368.512 208.23C369.423 208.23 370.148 208.544 370.686 209.173C371.223 209.798 371.492 210.613 371.492 211.62V211.757C371.492 212.769 371.223 213.587 370.686 214.211C370.152 214.831 369.428 215.141 368.512 215.141C367.6 215.141 366.876 214.829 366.338 214.204C365.8 213.58 365.531 212.764 365.531 211.757ZM372.982 208.339H374.062L374.151 209.33C374.612 208.588 375.27 208.216 376.127 208.216C376.856 208.216 377.414 208.43 377.802 208.859C378.189 209.283 378.383 209.927 378.383 210.793V214.997H377.173V210.821C377.173 210.242 377.059 209.827 376.831 209.577C376.603 209.326 376.248 209.201 375.765 209.201C375.418 209.201 375.111 209.283 374.842 209.447C374.573 209.611 374.356 209.843 374.192 210.144V214.997H372.982V208.339ZM379.859 211.805C379.859 210.716 380.09 209.848 380.55 209.201C381.01 208.553 381.639 208.23 382.437 208.23C383.234 208.23 383.847 208.512 384.275 209.078V205.413H385.492V215.011H384.501L384.357 214.191C383.915 214.824 383.286 215.141 382.471 215.141C381.655 215.141 381.017 214.852 380.557 214.273C380.096 213.689 379.866 212.91 379.866 211.935L379.859 211.805ZM381.083 211.805V211.935C381.083 212.632 381.222 213.177 381.5 213.569C381.783 213.961 382.206 214.157 382.771 214.157C383.455 214.157 383.961 213.844 384.289 213.22V210.117C383.952 209.515 383.451 209.214 382.785 209.214C382.215 209.214 381.789 209.447 381.507 209.911C381.224 210.372 381.083 211.003 381.083 211.805ZM391.392 210.862C391.392 210.36 391.262 209.957 391.002 209.652C390.742 209.342 390.368 209.187 389.881 209.187C389.48 209.187 389.133 209.356 388.842 209.693C388.555 210.03 388.377 210.461 388.309 210.985L388.322 211.019H391.392V210.862ZM390.065 215.141C389.14 215.141 388.402 214.836 387.851 214.225C387.304 213.614 387.03 212.81 387.03 211.812V211.538C387.03 210.604 387.308 209.82 387.864 209.187C388.425 208.549 389.097 208.23 389.881 208.23C390.765 208.23 391.439 208.496 391.904 209.03C392.374 209.558 392.608 210.285 392.608 211.21V211.969H388.288L388.268 211.996C388.281 212.653 388.445 213.184 388.76 213.589C389.079 213.99 389.514 214.191 390.065 214.191C390.84 214.191 391.469 213.972 391.952 213.535L392.431 214.321H392.424C391.868 214.868 391.082 215.141 390.065 215.141ZM393.982 208.339H395.062L395.151 209.33C395.612 208.588 396.27 208.216 397.127 208.216C397.856 208.216 398.414 208.43 398.802 208.859C399.189 209.283 399.383 209.927 399.383 210.793V214.997H398.173V210.821C398.173 210.242 398.059 209.827 397.831 209.577C397.603 209.326 397.248 209.201 396.765 209.201C396.418 209.201 396.111 209.283 395.842 209.447C395.573 209.611 395.356 209.843 395.192 210.144V214.997H393.982V208.339ZM402.083 211.812C402.083 212.527 402.215 213.092 402.479 213.507C402.767 213.963 403.225 214.191 403.854 214.191C404.264 214.191 404.619 214.065 404.92 213.815C405.221 213.564 405.371 213.261 405.371 212.906H406.458L406.472 212.947C406.494 213.525 406.242 214.036 405.713 214.478C405.184 214.92 404.564 215.141 403.854 215.141C402.906 215.141 402.17 214.833 401.646 214.218C401.121 213.603 400.859 212.801 400.859 211.812V211.552C400.859 210.568 401.121 209.768 401.646 209.153C402.174 208.537 402.91 208.23 403.854 208.23C404.628 208.23 405.264 208.458 405.761 208.913C406.257 209.369 406.497 209.937 406.479 210.616L406.465 210.65H405.371C405.371 210.24 405.228 209.893 404.94 209.611C404.653 209.328 404.296 209.187 403.867 209.187C403.443 209.187 403.095 209.294 402.821 209.508C402.552 209.722 402.361 210 402.247 210.342C402.138 210.684 402.083 211.087 402.083 211.552V211.812ZM411.913 210.862C411.913 210.36 411.783 209.957 411.523 209.652C411.264 209.342 410.89 209.187 410.402 209.187C410.001 209.187 409.655 209.356 409.363 209.693C409.076 210.03 408.898 210.461 408.83 210.985L408.844 211.019H411.913V210.862ZM410.587 215.141C409.662 215.141 408.924 214.836 408.372 214.225C407.825 213.614 407.552 212.81 407.552 211.812V211.538C407.552 210.604 407.83 209.82 408.386 209.187C408.946 208.549 409.618 208.23 410.402 208.23C411.286 208.23 411.961 208.496 412.426 209.03C412.895 209.558 413.13 210.285 413.13 211.21V211.969H408.81L408.789 211.996C408.803 212.653 408.967 213.184 409.281 213.589C409.6 213.99 410.035 214.191 410.587 214.191C411.362 214.191 411.991 213.972 412.474 213.535L412.952 214.321H412.945C412.389 214.868 411.603 215.141 410.587 215.141Z" fill="#717171"/>
<path d="M53.3181 41.1573V46.1085H56.4822C57.3285 46.1085 57.9698 45.8839 58.406 45.4347C58.8487 44.9855 59.0701 44.3898 59.0701 43.6476C59.0701 42.9054 58.8487 42.3064 58.406 41.8507C57.9633 41.3885 57.322 41.1573 56.4822 41.1573H53.3181ZM56.4822 47.4562H53.3181V52.5929H51.5896V39.7999H56.4822C57.8363 39.7999 58.8943 40.1482 59.656 40.8448C60.4177 41.535 60.7986 42.4692 60.7986 43.6476C60.7986 44.8195 60.4177 45.7472 59.656 46.4308C58.9008 47.1144 57.8429 47.4562 56.4822 47.4562ZM65.4177 52.798C64.4281 52.798 63.6729 52.5473 63.1521 52.046C62.6313 51.5447 62.3708 50.8416 62.3708 49.9366C62.3708 49.0317 62.7354 48.3221 63.4646 47.8077C64.1938 47.2934 65.1964 47.0363 66.4724 47.0363H68.3474V46.0988C68.3474 45.5389 68.1749 45.0994 67.8298 44.7804C67.4913 44.4549 67.0291 44.2921 66.4431 44.2921C65.8637 44.2921 65.3982 44.4321 65.0466 44.712C64.6951 44.9855 64.5193 45.3273 64.5193 45.7374H62.8689L62.8494 45.6886C62.8168 44.9725 63.1488 44.3344 63.8455 43.7745C64.5486 43.2081 65.4405 42.9249 66.5212 42.9249C67.6085 42.9249 68.4744 43.2049 69.1189 43.7648C69.7634 44.3182 70.0857 45.1027 70.0857 46.1183V50.6984C70.0857 51.434 70.1671 52.0721 70.3298 52.6124H68.5427C68.419 52.007 68.3539 51.5317 68.3474 51.1866C68.0089 51.6684 67.5792 52.059 67.0583 52.3585C66.544 52.6515 65.9972 52.798 65.4177 52.798ZM64.1189 49.9757H64.1091C64.1091 50.4054 64.2426 50.7407 64.5095 50.9816C64.7764 51.2225 65.1899 51.3429 65.7498 51.3429C66.3097 51.3429 66.8435 51.1866 67.3513 50.8741C67.8656 50.5551 68.2009 50.184 68.3572 49.7609V48.2081H66.4236C65.7335 48.2081 65.1768 48.3807 64.7537 48.7257C64.3305 49.0642 64.1189 49.4809 64.1189 49.9757ZM73.1619 40.8058H74.9099V43.1007H76.7068V44.3898H74.9099V50.1613C74.9099 50.9685 75.2452 51.3722 75.9158 51.3722C76.1241 51.3722 76.3389 51.3331 76.5603 51.255L76.7849 52.4366C76.4724 52.6775 76.033 52.798 75.4666 52.798C74.7374 52.798 74.171 52.5799 73.7673 52.1437C73.3637 51.7075 73.1619 51.0467 73.1619 50.1613V44.3898H71.658V43.1007H73.1619V40.8058ZM80.7107 43.0812V52.5929H78.9822V43.0812H80.7107ZM80.7107 38.882V40.6495H78.9822V38.882H80.7107ZM89.2068 46.6847C89.2068 45.9685 89.0212 45.3924 88.6501 44.9562C88.2791 44.5135 87.7452 44.2921 87.0486 44.2921C86.4757 44.2921 85.9809 44.533 85.5642 45.0148C85.1541 45.4965 84.9001 46.1118 84.8025 46.8605L84.822 46.9093H89.2068V46.6847ZM87.3123 52.798C85.9906 52.798 84.936 52.3618 84.1482 51.4894C83.3669 50.617 82.9763 49.4679 82.9763 48.0421V47.6515C82.9763 46.3169 83.3735 45.1971 84.1677 44.2921C84.9685 43.3807 85.9288 42.9249 87.0486 42.9249C88.3116 42.9249 89.2751 43.3058 89.9392 44.0675C90.6098 44.8227 90.9451 45.8611 90.9451 47.1827V48.2667H84.7732L84.7439 48.3058C84.7634 49.2433 84.9978 50.0017 85.447 50.5812C85.9028 51.1541 86.5245 51.4406 87.3123 51.4406C88.419 51.4406 89.3175 51.1281 90.0076 50.5031L90.6912 51.6261H90.6814C89.8871 52.4073 88.7641 52.798 87.3123 52.798ZM92.908 43.0812H94.4509L94.5779 44.4972C95.2354 43.436 96.1762 42.9054 97.4001 42.9054C98.4418 42.9054 99.2393 43.2114 99.7927 43.8234C100.346 44.4288 100.623 45.3501 100.623 46.587V52.5929H98.8943V46.6261C98.8943 45.7993 98.7315 45.2068 98.406 44.8488C98.0805 44.4907 97.5727 44.3116 96.8826 44.3116C96.3878 44.3116 95.9483 44.4288 95.5642 44.6632C95.1801 44.8976 94.8708 45.2296 94.6365 45.6593V52.5929H92.908V43.0812ZM103.689 40.8058H105.437V43.1007H107.234V44.3898H105.437V50.1613C105.437 50.9685 105.773 51.3722 106.443 51.3722C106.651 51.3722 106.866 51.3331 107.088 51.255L107.312 52.4366C107 52.6775 106.56 52.798 105.994 52.798C105.265 52.798 104.698 52.5799 104.295 52.1437C103.891 51.7075 103.689 51.0467 103.689 50.1613V44.3898H102.185V43.1007H103.689V40.8058ZM116.179 52.6027H114.451V43.0909H115.994L116.16 44.4777C116.739 43.4295 117.527 42.9054 118.523 42.9054C118.758 42.9054 118.979 42.9379 119.187 43.0031L118.953 44.6241L118.064 44.5656C117.172 44.5656 116.544 44.979 116.179 45.8058V52.6027ZM126.453 46.6847C126.453 45.9685 126.267 45.3924 125.896 44.9562C125.525 44.5135 124.991 44.2921 124.295 44.2921C123.722 44.2921 123.227 44.533 122.81 45.0148C122.4 45.4965 122.146 46.1118 122.049 46.8605L122.068 46.9093H126.453V46.6847ZM124.558 52.798C123.237 52.798 122.182 52.3618 121.394 51.4894C120.613 50.617 120.222 49.4679 120.222 48.0421V47.6515C120.222 46.3169 120.62 45.1971 121.414 44.2921C122.215 43.3807 123.175 42.9249 124.295 42.9249C125.558 42.9249 126.521 43.3058 127.185 44.0675C127.856 44.8227 128.191 45.8611 128.191 47.1827V48.2667H122.019L121.99 48.3058C122.01 49.2433 122.244 50.0017 122.693 50.5812C123.149 51.1541 123.771 51.4406 124.558 51.4406C125.665 51.4406 126.564 51.1281 127.254 50.5031L127.937 51.6261H127.927C127.133 52.4073 126.01 52.798 124.558 52.798ZM131.492 48.0421C131.492 49.0642 131.681 49.8715 132.058 50.464C132.469 51.115 133.123 51.4406 134.021 51.4406C134.607 51.4406 135.115 51.2615 135.545 50.9034C135.974 50.5454 136.189 50.1124 136.189 49.6046H137.742L137.761 49.6632C137.794 50.49 137.433 51.2192 136.677 51.8507C135.922 52.4822 135.037 52.798 134.021 52.798C132.667 52.798 131.616 52.3585 130.867 51.4796C130.118 50.6007 129.744 49.4549 129.744 48.0421V47.671C129.744 46.2648 130.118 45.1222 130.867 44.2433C131.622 43.3644 132.674 42.9249 134.021 42.9249C135.128 42.9249 136.036 43.2504 136.746 43.9015C137.455 44.5525 137.797 45.3631 137.771 46.3331L137.752 46.382H136.189C136.189 45.796 135.984 45.3012 135.574 44.8976C135.164 44.4939 134.653 44.2921 134.041 44.2921C133.435 44.2921 132.937 44.4451 132.547 44.7511C132.163 45.0571 131.889 45.4542 131.726 45.9425C131.57 46.4308 131.492 47.007 131.492 47.671V48.0421ZM141.033 47.7687V47.964C141.033 49.0187 141.248 49.8618 141.677 50.4933C142.114 51.1248 142.739 51.4406 143.552 51.4406C144.366 51.4406 144.991 51.1248 145.427 50.4933C145.864 49.8553 146.082 49.0122 146.082 47.964V47.7687C146.082 46.7335 145.86 45.8969 145.418 45.2589C144.982 44.6144 144.357 44.2921 143.543 44.2921C142.735 44.2921 142.114 44.6144 141.677 45.2589C141.248 45.8969 141.033 46.7335 141.033 47.7687ZM139.295 47.964V47.7687C139.295 46.3364 139.679 45.171 140.447 44.2726C141.215 43.3741 142.25 42.9249 143.552 42.9249C144.855 42.9249 145.89 43.3741 146.658 44.2726C147.426 45.1645 147.81 46.3299 147.81 47.7687V47.964C147.81 49.4093 147.426 50.5779 146.658 51.4698C145.896 52.3553 144.861 52.798 143.552 52.798C142.25 52.798 141.215 52.352 140.447 51.4601C139.679 50.5682 139.295 49.4028 139.295 47.964ZM151.668 52.6027H149.939V43.0909H151.482L151.648 44.4777C152.228 43.4295 153.015 42.9054 154.011 42.9054C154.246 42.9054 154.467 42.9379 154.676 43.0031L154.441 44.6241L153.552 44.5656C152.661 44.5656 152.032 44.979 151.668 45.8058V52.6027ZM155.701 48.0323C155.701 46.4764 156.03 45.2361 156.687 44.3116C157.345 43.3872 158.243 42.9249 159.383 42.9249C160.522 42.9249 161.398 43.3286 162.01 44.1359V38.9015H163.748V52.6124H162.332L162.127 51.4406C161.495 52.3455 160.597 52.798 159.431 52.798C158.266 52.798 157.355 52.3846 156.697 51.5577C156.039 50.7244 155.711 49.6111 155.711 48.2179L155.701 48.0323ZM157.449 48.0323V48.2179C157.449 49.214 157.648 49.992 158.045 50.5519C158.448 51.1118 159.054 51.3917 159.861 51.3917C160.838 51.3917 161.56 50.9458 162.029 50.0538V45.6202C161.547 44.7609 160.831 44.3312 159.881 44.3312C159.067 44.3312 158.458 44.6632 158.054 45.3273C157.651 45.9848 157.449 46.8865 157.449 48.0323ZM169.881 51.421C170.493 51.421 170.974 51.3006 171.326 51.0597C171.677 50.8123 171.853 50.4868 171.853 50.0831C171.853 49.6795 171.704 49.3605 171.404 49.1261C171.105 48.8852 170.561 48.6736 169.773 48.4913C168.575 48.2309 167.693 47.8859 167.127 47.4562C166.567 47.02 166.287 46.421 166.287 45.6593C166.287 44.8976 166.619 44.2498 167.283 43.7159C167.947 43.1756 168.813 42.9054 169.881 42.9054C170.948 42.9054 171.811 43.1886 172.469 43.755C173.133 44.3149 173.448 45.0115 173.416 45.8448L173.396 45.8937H171.746C171.746 45.4575 171.567 45.0799 171.209 44.7609C170.857 44.4419 170.392 44.2823 169.812 44.2823C169.239 44.2823 168.797 44.4126 168.484 44.673C168.172 44.9269 168.015 45.2524 168.015 45.6495C168.015 46.0467 168.152 46.3494 168.426 46.5577C168.699 46.7661 169.236 46.9549 170.037 47.1241C171.261 47.3911 172.159 47.7491 172.732 48.1984C173.305 48.6411 173.592 49.2303 173.592 49.9659C173.592 50.8123 173.25 51.4959 172.566 52.0167C171.889 52.5376 170.978 52.798 169.832 52.798C168.686 52.798 167.758 52.4985 167.049 51.8995C166.345 51.3006 166.01 50.5747 166.043 49.7218L166.062 49.673H167.713C167.745 50.2589 167.963 50.7016 168.367 51.0011C168.777 51.2941 169.288 51.4406 169.9 51.4406L169.881 51.421Z" fill="#4482F0"/>
<rect x="39.3333" y="76.6575" width="413.333" height="35" rx="5.5" fill="white" stroke="#D4D4D4"/>
<path d="M80.6228 96.9431C80.6228 97.5037 80.8256 97.9366 81.2312 98.2419C81.6414 98.5473 82.1632 98.7 82.7966 98.7C83.4301 98.7 83.9246 98.5723 84.28 98.3171C84.6355 98.0574 84.8132 97.711 84.8132 97.2781C84.8132 96.8451 84.6537 96.4919 84.3347 96.2185C84.0203 95.9451 83.4802 95.7172 82.7146 95.5349C80.7048 95.0518 79.7 94.1677 79.7 92.8826C79.7 92.1762 79.9871 91.5929 80.5613 91.1326C81.1355 90.6677 81.8875 90.4353 82.8171 90.4353C83.7514 90.4353 84.5147 90.6973 85.1072 91.2214C85.6996 91.7455 85.9845 92.3744 85.9617 93.1082L85.948 93.1492H84.7927C84.7927 92.6114 84.6173 92.183 84.2664 91.864C83.9154 91.545 83.4301 91.3855 82.8103 91.3855C82.1951 91.3855 81.7234 91.5199 81.3953 91.7888C81.0717 92.0531 80.9099 92.3972 80.9099 92.821C80.9099 93.2403 81.0831 93.5798 81.4294 93.8396C81.7758 94.0948 82.3432 94.3227 83.1316 94.5232C85.0593 95.0108 86.0232 95.92 86.0232 97.2507C86.0232 97.9753 85.7292 98.5564 85.1414 98.9939C84.5535 99.4314 83.781 99.6501 82.824 99.6501C82.2179 99.6501 81.6573 99.5453 81.1423 99.3357C80.6319 99.1215 80.2195 98.807 79.905 98.3923C79.5906 97.9776 79.4402 97.5059 79.4539 96.9773L79.4675 96.9431H80.6228ZM91.6492 95.3708C91.6492 94.8695 91.5193 94.4662 91.2595 94.1609C90.9998 93.851 90.6261 93.696 90.1384 93.696C89.7374 93.696 89.391 93.8647 89.0994 94.2019C88.8123 94.5391 88.6345 94.9698 88.5662 95.4939L88.5798 95.5281H91.6492V95.3708ZM90.323 99.6501C89.3979 99.6501 88.6596 99.3448 88.1082 98.7341C87.5613 98.1235 87.2878 97.3191 87.2878 96.321V96.0476C87.2878 95.1134 87.5658 94.3295 88.1218 93.696C88.6824 93.058 89.3546 92.739 90.1384 92.739C91.0225 92.739 91.697 93.0056 92.1619 93.5388C92.6313 94.0675 92.866 94.7944 92.866 95.7195V96.4783H88.5457L88.5251 96.5056C88.5388 97.1619 88.7029 97.6928 89.0173 98.0984C89.3363 98.4994 89.7716 98.7 90.323 98.7C91.0977 98.7 91.7266 98.4812 92.2097 98.0437L92.6882 98.8298H92.6814C92.1254 99.3767 91.3393 99.6501 90.323 99.6501ZM96.1335 99.6501C95.4408 99.6501 94.9122 99.4747 94.5476 99.1238C94.183 98.7729 94.0007 98.2807 94.0007 97.6472C94.0007 97.0138 94.2559 96.517 94.7664 96.157C95.2768 95.797 95.9786 95.6169 96.8718 95.6169H98.1843V94.9607C98.1843 94.5688 98.0636 94.2611 97.822 94.0378C97.585 93.81 97.2615 93.696 96.8513 93.696C96.4457 93.696 96.1199 93.794 95.8738 93.99C95.6277 94.1814 95.5046 94.4207 95.5046 94.7078H94.3494L94.3357 94.6736C94.3129 94.1723 94.5453 93.7257 95.033 93.3337C95.5251 92.9373 96.1495 92.739 96.906 92.739C97.6671 92.739 98.2732 92.935 98.7244 93.3269C99.1755 93.7143 99.4011 94.2634 99.4011 94.9744V98.1804C99.4011 98.6954 99.4581 99.142 99.572 99.5203H98.321C98.2345 99.0964 98.1889 98.7638 98.1843 98.5222C97.9473 98.8595 97.6466 99.1329 97.282 99.3425C96.922 99.5476 96.5391 99.6501 96.1335 99.6501ZM95.2244 97.6746H95.2175C95.2175 97.9753 95.311 98.21 95.4978 98.3787C95.6847 98.5473 95.974 98.6316 96.366 98.6316C96.7579 98.6316 97.1316 98.5222 97.4871 98.3035C97.8471 98.0802 98.0818 97.8204 98.1912 97.5242V96.4373H96.8376C96.3546 96.4373 95.9649 96.558 95.6687 96.7996C95.3725 97.0365 95.2244 97.3282 95.2244 97.6746ZM102.382 99.5134H101.172V92.8552H102.252L102.368 93.8259C102.774 93.0922 103.325 92.7253 104.022 92.7253C104.186 92.7253 104.341 92.7481 104.487 92.7937L104.323 93.9285L103.701 93.8875C103.077 93.8875 102.637 94.1768 102.382 94.7556V99.5134ZM106.305 96.321C106.305 97.0365 106.438 97.6016 106.702 98.0164C106.989 98.4721 107.447 98.7 108.076 98.7C108.486 98.7 108.842 98.5746 109.142 98.324C109.443 98.0733 109.594 97.7703 109.594 97.4148H110.68L110.694 97.4558C110.717 98.0346 110.464 98.545 109.935 98.9871C109.407 99.4291 108.787 99.6501 108.076 99.6501C107.128 99.6501 106.392 99.3425 105.868 98.7273C105.344 98.1121 105.082 97.31 105.082 96.321V96.0613C105.082 95.0769 105.344 94.2771 105.868 93.6619C106.397 93.0466 107.133 92.739 108.076 92.739C108.851 92.739 109.486 92.9669 109.983 93.4226C110.48 93.8783 110.719 94.4457 110.701 95.1248L110.687 95.1589H109.594C109.594 94.7488 109.45 94.4024 109.163 94.1199C108.876 93.8373 108.518 93.696 108.09 93.696C107.666 93.696 107.317 93.8031 107.044 94.0173C106.775 94.2315 106.583 94.5095 106.469 94.8513C106.36 95.1931 106.305 95.5964 106.305 96.0613V96.321ZM113.264 89.9089V93.7439C113.743 93.0649 114.395 92.7253 115.219 92.7253C115.949 92.7253 116.507 92.9418 116.894 93.3748C117.282 93.8077 117.475 94.4617 117.475 95.3367V99.5066H116.259V95.323C116.259 94.7716 116.142 94.366 115.91 94.1062C115.677 93.8419 115.324 93.7097 114.85 93.7097C114.176 93.7097 113.647 94.0037 113.264 94.5916V99.5066H112.054V89.9089H113.264ZM124.489 99.5066H123.272V93.7507H122.226V92.8484H123.272V92.0076C123.272 91.2966 123.455 90.7475 123.819 90.3601C124.188 89.9727 124.708 89.7791 125.378 89.7791C125.61 89.7791 125.911 89.8223 126.28 89.9089L126.13 90.8318C125.956 90.7908 125.758 90.7703 125.535 90.7703C124.838 90.7703 124.489 91.1827 124.489 92.0076V92.8484H125.87V93.7507H124.489V99.5066ZM128.051 96.1296V96.2664C128.051 97.0046 128.201 97.5948 128.502 98.0369C128.807 98.4789 129.245 98.7 129.814 98.7C130.384 98.7 130.821 98.4789 131.127 98.0369C131.432 97.5903 131.585 97.0001 131.585 96.2664V96.1296C131.585 95.405 131.43 94.8194 131.12 94.3728C130.815 93.9216 130.377 93.696 129.807 93.696C129.242 93.696 128.807 93.9216 128.502 94.3728C128.201 94.8194 128.051 95.405 128.051 96.1296ZM126.834 96.2664V96.1296C126.834 95.127 127.103 94.3113 127.64 93.6824C128.178 93.0535 128.903 92.739 129.814 92.739C130.726 92.739 131.45 93.0535 131.988 93.6824C132.526 94.3067 132.795 95.1225 132.795 96.1296V96.2664C132.795 97.2781 132.526 98.0961 131.988 98.7205C131.455 99.3403 130.73 99.6501 129.814 99.6501C128.903 99.6501 128.178 99.338 127.64 98.7136C127.103 98.0893 126.834 97.2735 126.834 96.2664ZM135.495 99.5134H134.285V92.8552H135.365L135.481 93.8259C135.887 93.0922 136.438 92.7253 137.135 92.7253C137.3 92.7253 137.455 92.7481 137.6 92.7937L137.436 93.9285L136.814 93.8875C136.19 93.8875 135.75 94.1768 135.495 94.7556V99.5134ZM142.543 91.2556H143.766V92.8621H145.024V93.7644H143.766V97.8044C143.766 98.3695 144.001 98.6521 144.47 98.6521C144.616 98.6521 144.767 98.6248 144.922 98.5701L145.079 99.3972C144.86 99.5658 144.552 99.6501 144.156 99.6501C143.646 99.6501 143.249 99.4975 142.967 99.1921C142.684 98.8868 142.543 98.4242 142.543 97.8044V93.7644H141.49V92.8621H142.543V91.2556ZM147.451 96.1296V96.2664C147.451 97.0046 147.601 97.5948 147.902 98.0369C148.207 98.4789 148.645 98.7 149.215 98.7C149.784 98.7 150.222 98.4789 150.527 98.0369C150.832 97.5903 150.985 97.0001 150.985 96.2664V96.1296C150.985 95.405 150.83 94.8194 150.52 94.3728C150.215 93.9216 149.777 93.696 149.208 93.696C148.643 93.696 148.207 93.9216 147.902 94.3728C147.601 94.8194 147.451 95.405 147.451 96.1296ZM146.234 96.2664V96.1296C146.234 95.127 146.503 94.3113 147.041 93.6824C147.579 93.0535 148.303 92.739 149.215 92.739C150.126 92.739 150.851 93.0535 151.388 93.6824C151.926 94.3067 152.195 95.1225 152.195 96.1296V96.2664C152.195 97.2781 151.926 98.0961 151.388 98.7205C150.855 99.3403 150.131 99.6501 149.215 99.6501C148.303 99.6501 147.579 99.338 147.041 98.7136C146.503 98.0893 146.234 97.2735 146.234 96.2664ZM154.615 96.1296V96.2664C154.615 97.0046 154.765 97.5948 155.066 98.0369C155.372 98.4789 155.809 98.7 156.379 98.7C156.948 98.7 157.386 98.4789 157.691 98.0369C157.997 97.5903 158.149 97.0001 158.149 96.2664V96.1296C158.149 95.405 157.994 94.8194 157.684 94.3728C157.379 93.9216 156.941 93.696 156.372 93.696C155.807 93.696 155.372 93.9216 155.066 94.3728C154.765 94.8194 154.615 95.405 154.615 96.1296ZM153.398 96.2664V96.1296C153.398 95.127 153.667 94.3113 154.205 93.6824C154.743 93.0535 155.467 92.739 156.379 92.739C157.29 92.739 158.015 93.0535 158.552 93.6824C159.09 94.3067 159.359 95.1225 159.359 96.1296V96.2664C159.359 97.2781 159.09 98.0961 158.552 98.7205C158.019 99.3403 157.295 99.6501 156.379 99.6501C155.467 99.6501 154.743 99.338 154.205 98.7136C153.667 98.0893 153.398 97.2735 153.398 96.2664ZM161.232 91.2556H162.456V92.8621H163.714V93.7644H162.456V97.8044C162.456 98.3695 162.691 98.6521 163.16 98.6521C163.306 98.6521 163.456 98.6248 163.611 98.5701L163.768 99.3972C163.55 99.5658 163.242 99.6501 162.845 99.6501C162.335 99.6501 161.939 99.4975 161.656 99.1921C161.373 98.8868 161.232 98.4242 161.232 97.8044V93.7644H160.179V92.8621H161.232V91.2556ZM166.421 89.9089V93.7439C166.899 93.0649 167.551 92.7253 168.376 92.7253C169.105 92.7253 169.663 92.9418 170.051 93.3748C170.438 93.8077 170.632 94.4617 170.632 95.3367V99.5066H169.415V95.323C169.415 94.7716 169.299 94.366 169.066 94.1062C168.834 93.8419 168.481 93.7097 168.007 93.7097C167.332 93.7097 166.803 94.0037 166.421 94.5916V99.5066H165.211V89.9089H166.421ZM173.434 98.324V99.3904L172.511 101.27H171.787L172.218 99.3289V98.324H173.434ZM179.354 96.321C179.354 97.0365 179.486 97.6016 179.751 98.0164C180.038 98.4721 180.496 98.7 181.125 98.7C181.535 98.7 181.89 98.5746 182.191 98.324C182.492 98.0733 182.642 97.7703 182.642 97.4148H183.729L183.743 97.4558C183.766 98.0346 183.513 98.545 182.984 98.9871C182.455 99.4291 181.836 99.6501 181.125 99.6501C180.177 99.6501 179.441 99.3425 178.917 98.7273C178.393 98.1121 178.131 97.31 178.131 96.321V96.0613C178.131 95.0769 178.393 94.2771 178.917 93.6619C179.445 93.0466 180.181 92.739 181.125 92.739C181.899 92.739 182.535 92.9669 183.032 93.4226C183.529 93.8783 183.768 94.4457 183.75 95.1248L183.736 95.1589H182.642C182.642 94.7488 182.499 94.4024 182.212 94.1199C181.925 93.8373 181.567 93.696 181.138 93.696C180.715 93.696 180.366 93.8031 180.093 94.0173C179.824 94.2315 179.632 94.5095 179.518 94.8513C179.409 95.1931 179.354 95.5964 179.354 96.0613V96.321ZM186.033 96.1296V96.2664C186.033 97.0046 186.183 97.5948 186.484 98.0369C186.789 98.4789 187.227 98.7 187.797 98.7C188.366 98.7 188.804 98.4789 189.109 98.0369C189.414 97.5903 189.567 97.0001 189.567 96.2664V96.1296C189.567 95.405 189.412 94.8194 189.102 94.3728C188.797 93.9216 188.359 93.696 187.79 93.696C187.225 93.696 186.789 93.9216 186.484 94.3728C186.183 94.8194 186.033 95.405 186.033 96.1296ZM184.816 96.2664V96.1296C184.816 95.127 185.085 94.3113 185.623 93.6824C186.161 93.0535 186.885 92.739 187.797 92.739C188.708 92.739 189.433 93.0535 189.97 93.6824C190.508 94.3067 190.777 95.1225 190.777 96.1296V96.2664C190.777 97.2781 190.508 98.0961 189.97 98.7205C189.437 99.3403 188.713 99.6501 187.797 99.6501C186.885 99.6501 186.161 99.338 185.623 98.7136C185.085 98.0893 184.816 97.2735 184.816 96.2664ZM192.267 92.8484H193.347L193.436 93.8396C193.897 93.0968 194.555 92.7253 195.412 92.7253C196.141 92.7253 196.699 92.9395 197.087 93.3679C197.474 93.7917 197.668 94.4366 197.668 95.3025V99.5066H196.458V95.3298C196.458 94.7511 196.344 94.3363 196.116 94.0857C195.888 93.835 195.533 93.7097 195.05 93.7097C194.703 93.7097 194.396 93.7917 194.127 93.9558C193.858 94.1199 193.641 94.3523 193.477 94.6531V99.5066H192.267V92.8484ZM199.144 96.3142C199.144 95.225 199.374 94.3569 199.835 93.7097C200.295 93.0626 200.924 92.739 201.721 92.739C202.519 92.739 203.132 93.0216 203.56 93.5867V89.9226H204.777V99.5203H203.786L203.642 98.7C203.2 99.3334 202.571 99.6501 201.756 99.6501C200.94 99.6501 200.302 99.3608 199.842 98.782C199.381 98.1986 199.151 97.4194 199.151 96.4441L199.144 96.3142ZM200.368 96.3142V96.4441C200.368 97.1414 200.507 97.686 200.785 98.0779C201.067 98.4698 201.491 98.6658 202.056 98.6658C202.74 98.6658 203.246 98.3536 203.574 97.7292V94.6257C203.237 94.0242 202.735 93.7234 202.07 93.7234C201.5 93.7234 201.074 93.9558 200.792 94.4207C200.509 94.8809 200.368 95.5121 200.368 96.3142ZM207.901 92.8484V99.5066H206.691V92.8484H207.901ZM207.901 89.9089V91.1462H206.691V89.9089H207.901ZM210.15 91.2556H211.374V92.8621H212.632V93.7644H211.374V97.8044C211.374 98.3695 211.608 98.6521 212.078 98.6521C212.224 98.6521 212.374 98.6248 212.529 98.5701L212.686 99.3972C212.468 99.5658 212.16 99.6501 211.763 99.6501C211.253 99.6501 210.857 99.4975 210.574 99.1921C210.291 98.8868 210.15 98.4242 210.15 97.8044V93.7644H209.097V92.8621H210.15V91.2556ZM215.434 92.8484V99.5066H214.224V92.8484H215.434ZM215.434 89.9089V91.1462H214.224V89.9089H215.434ZM218.23 96.1296V96.2664C218.23 97.0046 218.381 97.5948 218.681 98.0369C218.987 98.4789 219.424 98.7 219.994 98.7C220.564 98.7 221.001 98.4789 221.306 98.0369C221.612 97.5903 221.764 97.0001 221.764 96.2664V96.1296C221.764 95.405 221.609 94.8194 221.3 94.3728C220.994 93.9216 220.557 93.696 219.987 93.696C219.422 93.696 218.987 93.9216 218.681 94.3728C218.381 94.8194 218.23 95.405 218.23 96.1296ZM217.013 96.2664V96.1296C217.013 95.127 217.282 94.3113 217.82 93.6824C218.358 93.0535 219.082 92.739 219.994 92.739C220.905 92.739 221.63 93.0535 222.168 93.6824C222.705 94.3067 222.974 95.1225 222.974 96.1296V96.2664C222.974 97.2781 222.705 98.0961 222.168 98.7205C221.635 99.3403 220.91 99.6501 219.994 99.6501C219.082 99.6501 218.358 99.338 217.82 98.7136C217.282 98.0893 217.013 97.2735 217.013 96.2664ZM224.465 92.8484H225.545L225.634 93.8396C226.094 93.0968 226.752 92.7253 227.609 92.7253C228.338 92.7253 228.897 92.9395 229.284 93.3679C229.671 93.7917 229.865 94.4366 229.865 95.3025V99.5066H228.655V95.3298C228.655 94.7511 228.541 94.3363 228.313 94.0857C228.085 93.835 227.73 93.7097 227.247 93.7097C226.9 93.7097 226.593 93.7917 226.324 93.9558C226.055 94.1199 225.839 94.3523 225.675 94.6531V99.5066H224.465V92.8484ZM232.688 98.324V99.3904L231.765 101.27H231.041L231.471 99.3289V98.324H232.688ZM238.054 91.2556H239.278V92.8621H240.536V93.7644H239.278V97.8044C239.278 98.3695 239.513 98.6521 239.982 98.6521C240.128 98.6521 240.278 98.6248 240.433 98.5701L240.591 99.3972C240.372 99.5658 240.064 99.6501 239.668 99.6501C239.157 99.6501 238.761 99.4975 238.478 99.1921C238.196 98.8868 238.054 98.4242 238.054 97.8044V93.7644H237.002V92.8621H238.054V91.2556ZM243.243 99.5134H242.033V92.8552H243.113L243.229 93.8259C243.635 93.0922 244.186 92.7253 244.884 92.7253C245.048 92.7253 245.203 92.7481 245.348 92.7937L245.184 93.9285L244.562 93.8875C243.938 93.8875 243.498 94.1768 243.243 94.7556V99.5134ZM250.434 95.3708C250.434 94.8695 250.304 94.4662 250.045 94.1609C249.785 93.851 249.411 93.696 248.924 93.696C248.523 93.696 248.176 93.8647 247.885 94.2019C247.597 94.5391 247.42 94.9698 247.351 95.4939L247.365 95.5281H250.434V95.3708ZM249.108 99.6501C248.183 99.6501 247.445 99.3448 246.893 98.7341C246.346 98.1235 246.073 97.3191 246.073 96.321V96.0476C246.073 95.1134 246.351 94.3295 246.907 93.696C247.468 93.058 248.14 92.739 248.924 92.739C249.808 92.739 250.482 93.0056 250.947 93.5388C251.416 94.0675 251.651 94.7944 251.651 95.7195V96.4783H247.331L247.31 96.5056C247.324 97.1619 247.488 97.6928 247.802 98.0984C248.122 98.4994 248.557 98.7 249.108 98.7C249.883 98.7 250.512 98.4812 250.995 98.0437L251.473 98.8298H251.467C250.911 99.3767 250.124 99.6501 249.108 99.6501ZM254.919 99.6501C254.226 99.6501 253.697 99.4747 253.333 99.1238C252.968 98.7729 252.786 98.2807 252.786 97.6472C252.786 97.0138 253.041 96.517 253.552 96.157C254.062 95.797 254.764 95.6169 255.657 95.6169H256.969V94.9607C256.969 94.5688 256.849 94.2611 256.607 94.0378C256.37 93.81 256.047 93.696 255.636 93.696C255.231 93.696 254.905 93.794 254.659 93.99C254.413 94.1814 254.29 94.4207 254.29 94.7078H253.135L253.121 94.6736C253.098 94.1723 253.33 93.7257 253.818 93.3337C254.31 92.9373 254.935 92.739 255.691 92.739C256.452 92.739 257.058 92.935 257.51 93.3269C257.961 93.7143 258.186 94.2634 258.186 94.9744V98.1804C258.186 98.6954 258.243 99.142 258.357 99.5203H257.106C257.02 99.0964 256.974 98.7638 256.969 98.5222C256.733 98.8595 256.432 99.1329 256.067 99.3425C255.707 99.5476 255.324 99.6501 254.919 99.6501ZM254.01 97.6746H254.003C254.003 97.9753 254.096 98.21 254.283 98.3787C254.47 98.5473 254.759 98.6316 255.151 98.6316C255.543 98.6316 255.917 98.5222 256.272 98.3035C256.632 98.0802 256.867 97.8204 256.976 97.5242V96.4373H255.623C255.14 96.4373 254.75 96.558 254.454 96.7996C254.158 97.0365 254.01 97.3282 254.01 97.6746ZM260.34 91.2556H261.563V92.8621H262.821V93.7644H261.563V97.8044C261.563 98.3695 261.798 98.6521 262.267 98.6521C262.413 98.6521 262.564 98.6248 262.719 98.5701L262.876 99.3972C262.657 99.5658 262.349 99.6501 261.953 99.6501C261.442 99.6501 261.046 99.4975 260.763 99.1921C260.481 98.8868 260.34 98.4242 260.34 97.8044V93.7644H259.287V92.8621H260.34V91.2556ZM265.528 99.5066H264.325V92.8484H265.405L265.494 93.7234C265.95 93.058 266.624 92.7253 267.517 92.7253C268.415 92.7253 269.024 93.1355 269.343 93.9558C269.803 93.1355 270.482 92.7253 271.38 92.7253C272.077 92.7253 272.617 92.9623 273 93.4363C273.383 93.9057 273.574 94.6029 273.574 95.5281V99.5066H272.364V95.5144C272.364 94.8718 272.255 94.4115 272.036 94.1335C271.817 93.851 271.489 93.7097 271.052 93.7097C270.619 93.7097 270.272 93.851 270.012 94.1335C269.757 94.4115 269.607 94.7761 269.561 95.2273V99.5066H268.338V95.5144C268.338 94.8946 268.224 94.4389 267.996 94.1472C267.773 93.8556 267.438 93.7097 266.991 93.7097C266.289 93.7097 265.802 93.9991 265.528 94.5779V99.5066ZM279.419 95.3708C279.419 94.8695 279.289 94.4662 279.029 94.1609C278.769 93.851 278.396 93.696 277.908 93.696C277.507 93.696 277.161 93.8647 276.869 94.2019C276.582 94.5391 276.404 94.9698 276.336 95.4939L276.349 95.5281H279.419V95.3708ZM278.093 99.6501C277.167 99.6501 276.429 99.3448 275.878 98.7341C275.331 98.1235 275.057 97.3191 275.057 96.321V96.0476C275.057 95.1134 275.335 94.3295 275.891 93.696C276.452 93.058 277.124 92.739 277.908 92.739C278.792 92.739 279.467 93.0056 279.931 93.5388C280.401 94.0675 280.635 94.7944 280.635 95.7195V96.4783H276.315L276.295 96.5056C276.308 97.1619 276.472 97.6928 276.787 98.0984C277.106 98.4994 277.541 98.7 278.093 98.7C278.867 98.7 279.496 98.4812 279.979 98.0437L280.458 98.8298H280.451C279.895 99.3767 279.109 99.6501 278.093 99.6501ZM282.01 92.8484H283.09L283.178 93.8396C283.639 93.0968 284.297 92.7253 285.154 92.7253C285.883 92.7253 286.441 92.9395 286.829 93.3679C287.216 93.7917 287.41 94.4366 287.41 95.3025V99.5066H286.2V95.3298C286.2 94.7511 286.086 94.3363 285.858 94.0857C285.63 93.835 285.275 93.7097 284.792 93.7097C284.445 93.7097 284.138 93.7917 283.869 93.9558C283.6 94.1199 283.384 94.3523 283.219 94.6531V99.5066H282.01V92.8484ZM289.556 91.2556H290.78V92.8621H292.038V93.7644H290.78V97.8044C290.78 98.3695 291.015 98.6521 291.484 98.6521C291.63 98.6521 291.78 98.6248 291.935 98.5701L292.093 99.3972C291.874 99.5658 291.566 99.6501 291.17 99.6501C290.659 99.6501 290.263 99.4975 289.98 99.1921C289.698 98.8868 289.556 98.4242 289.556 97.8044V93.7644H288.504V92.8621H289.556V91.2556ZM294.594 98.324V99.3904L293.672 101.27H292.947L293.378 99.3289V98.324H294.594ZM299.291 96.3142C299.291 95.225 299.521 94.3569 299.981 93.7097C300.441 93.0626 301.07 92.739 301.868 92.739C302.665 92.739 303.278 93.0216 303.707 93.5867V89.9226H304.924V99.5203H303.932L303.789 98.7C303.347 99.3334 302.718 99.6501 301.902 99.6501C301.086 99.6501 300.448 99.3608 299.988 98.782C299.528 98.1986 299.298 97.4194 299.298 96.4441L299.291 96.3142ZM300.514 96.3142V96.4441C300.514 97.1414 300.653 97.686 300.931 98.0779C301.214 98.4698 301.638 98.6658 302.203 98.6658C302.886 98.6658 303.392 98.3536 303.72 97.7292V94.6257C303.383 94.0242 302.882 93.7234 302.217 93.7234C301.647 93.7234 301.221 93.9558 300.938 94.4207C300.656 94.8809 300.514 95.5121 300.514 96.3142ZM308.048 92.8484V99.5066H306.838V92.8484H308.048ZM308.048 89.9089V91.1462H306.838V89.9089H308.048ZM312.388 98.6863C312.817 98.6863 313.154 98.602 313.4 98.4333C313.646 98.2602 313.769 98.0323 313.769 97.7498C313.769 97.4672 313.664 97.2439 313.455 97.0798C313.245 96.9112 312.865 96.7631 312.313 96.6355C311.475 96.4532 310.857 96.2117 310.461 95.9109C310.069 95.6056 309.873 95.1863 309.873 94.6531C309.873 94.1199 310.105 93.6664 310.57 93.2927C311.035 92.9145 311.641 92.7253 312.388 92.7253C313.136 92.7253 313.74 92.9236 314.2 93.3201C314.665 93.712 314.886 94.1996 314.863 94.783L314.849 94.8171H313.694C313.694 94.5118 313.569 94.2475 313.318 94.0242C313.072 93.8009 312.746 93.6892 312.341 93.6892C311.94 93.6892 311.63 93.7804 311.411 93.9626C311.192 94.1404 311.083 94.3682 311.083 94.6462C311.083 94.9242 311.178 95.1361 311.37 95.282C311.561 95.4278 311.937 95.56 312.498 95.6785C313.355 95.8653 313.983 96.116 314.385 96.4304C314.786 96.7403 314.986 97.1528 314.986 97.6677C314.986 98.2602 314.747 98.7387 314.268 99.1033C313.794 99.4679 313.156 99.6501 312.354 99.6501C311.552 99.6501 310.903 99.4405 310.406 99.0212C309.914 98.602 309.679 98.0938 309.702 97.4968L309.716 97.4626H310.871C310.894 97.8728 311.046 98.1827 311.329 98.3923C311.616 98.5974 311.974 98.7 312.402 98.7L312.388 98.6863ZM317.44 96.321C317.44 97.0365 317.572 97.6016 317.837 98.0164C318.124 98.4721 318.582 98.7 319.211 98.7C319.621 98.7 319.976 98.5746 320.277 98.324C320.578 98.0733 320.728 97.7703 320.728 97.4148H321.815L321.829 97.4558C321.852 98.0346 321.599 98.545 321.07 98.9871C320.541 99.4291 319.922 99.6501 319.211 99.6501C318.263 99.6501 317.527 99.3425 317.003 98.7273C316.479 98.1121 316.217 97.31 316.217 96.321V96.0613C316.217 95.0769 316.479 94.2771 317.003 93.6619C317.531 93.0466 318.267 92.739 319.211 92.739C319.985 92.739 320.621 92.9669 321.118 93.4226C321.615 93.8783 321.854 94.4457 321.836 95.1248L321.822 95.1589H320.728C320.728 94.7488 320.585 94.4024 320.298 94.1199C320.01 93.8373 319.653 93.696 319.224 93.696C318.801 93.696 318.452 93.8031 318.178 94.0173C317.91 94.2315 317.718 94.5095 317.604 94.8513C317.495 95.1931 317.44 95.5964 317.44 96.0613V96.321ZM325.472 99.6501C324.725 99.6501 324.153 99.4154 323.757 98.946C323.36 98.4721 323.162 97.752 323.162 96.7859V92.8621H324.372V96.7996C324.372 97.4968 324.472 97.9822 324.673 98.2556C324.878 98.5291 325.208 98.6658 325.664 98.6658C326.498 98.6658 327.067 98.3308 327.373 97.6609V92.8621H328.583V99.5203H327.496L327.414 98.5359C326.976 99.2787 326.329 99.6501 325.472 99.6501ZM332.828 98.6863C333.256 98.6863 333.594 98.602 333.84 98.4333C334.086 98.2602 334.209 98.0323 334.209 97.7498C334.209 97.4672 334.104 97.2439 333.894 97.0798C333.685 96.9112 333.304 96.7631 332.753 96.6355C331.914 96.4532 331.297 96.2117 330.9 95.9109C330.508 95.6056 330.312 95.1863 330.312 94.6531C330.312 94.1199 330.545 93.6664 331.01 93.2927C331.474 92.9145 332.08 92.7253 332.828 92.7253C333.575 92.7253 334.179 92.9236 334.639 93.3201C335.104 93.712 335.325 94.1996 335.302 94.783L335.289 94.8171H334.134C334.134 94.5118 334.008 94.2475 333.758 94.0242C333.511 93.8009 333.186 93.6892 332.78 93.6892C332.379 93.6892 332.069 93.7804 331.85 93.9626C331.632 94.1404 331.522 94.3682 331.522 94.6462C331.522 94.9242 331.618 95.1361 331.809 95.282C332.001 95.4278 332.377 95.56 332.937 95.6785C333.794 95.8653 334.423 96.116 334.824 96.4304C335.225 96.7403 335.426 97.1528 335.426 97.6677C335.426 98.2602 335.186 98.7387 334.708 99.1033C334.234 99.4679 333.596 99.6501 332.794 99.6501C331.992 99.6501 331.342 99.4405 330.845 99.0212C330.353 98.602 330.119 98.0938 330.141 97.4968L330.155 97.4626H331.31C331.333 97.8728 331.486 98.1827 331.768 98.3923C332.055 98.5974 332.413 98.7 332.842 98.7L332.828 98.6863ZM339.418 98.6863C339.846 98.6863 340.183 98.602 340.429 98.4333C340.676 98.2602 340.799 98.0323 340.799 97.7498C340.799 97.4672 340.694 97.2439 340.484 97.0798C340.274 96.9112 339.894 96.7631 339.343 96.6355C338.504 96.4532 337.886 96.2117 337.49 95.9109C337.098 95.6056 336.902 95.1863 336.902 94.6531C336.902 94.1199 337.135 93.6664 337.599 93.2927C338.064 92.9145 338.67 92.7253 339.418 92.7253C340.165 92.7253 340.769 92.9236 341.229 93.3201C341.694 93.712 341.915 94.1996 341.892 94.783L341.879 94.8171H340.723C340.723 94.5118 340.598 94.2475 340.347 94.0242C340.101 93.8009 339.775 93.6892 339.37 93.6892C338.969 93.6892 338.659 93.7804 338.44 93.9626C338.221 94.1404 338.112 94.3682 338.112 94.6462C338.112 94.9242 338.208 95.1361 338.399 95.282C338.591 95.4278 338.967 95.56 339.527 95.6785C340.384 95.8653 341.013 96.116 341.414 96.4304C341.815 96.7403 342.015 97.1528 342.015 97.6677C342.015 98.2602 341.776 98.7387 341.298 99.1033C340.824 99.4679 340.186 99.6501 339.384 99.6501C338.581 99.6501 337.932 99.4405 337.435 99.0212C336.943 98.602 336.708 98.0938 336.731 97.4968L336.745 97.4626H337.9C337.923 97.8728 338.076 98.1827 338.358 98.3923C338.645 98.5974 339.003 98.7 339.431 98.7L339.418 98.6863ZM344.839 92.8484V99.5066H343.629V92.8484H344.839ZM344.839 89.9089V91.1462H343.629V89.9089H344.839ZM347.635 96.1296V96.2664C347.635 97.0046 347.785 97.5948 348.086 98.0369C348.391 98.4789 348.829 98.7 349.398 98.7C349.968 98.7 350.405 98.4789 350.711 98.0369C351.016 97.5903 351.169 97.0001 351.169 96.2664V96.1296C351.169 95.405 351.014 94.8194 350.704 94.3728C350.399 93.9216 349.961 93.696 349.391 93.696C348.826 93.696 348.391 93.9216 348.086 94.3728C347.785 94.8194 347.635 95.405 347.635 96.1296ZM346.418 96.2664V96.1296C346.418 95.127 346.687 94.3113 347.224 93.6824C347.762 93.0535 348.487 92.739 349.398 92.739C350.31 92.739 351.034 93.0535 351.572 93.6824C352.11 94.3067 352.379 95.1225 352.379 96.1296V96.2664C352.379 97.2781 352.11 98.0961 351.572 98.7205C351.039 99.3403 350.314 99.6501 349.398 99.6501C348.487 99.6501 347.762 99.338 347.224 98.7136C346.687 98.0893 346.418 97.2735 346.418 96.2664ZM353.869 92.8484H354.949L355.038 93.8396C355.498 93.0968 356.157 92.7253 357.013 92.7253C357.743 92.7253 358.301 92.9395 358.688 93.3679C359.076 93.7917 359.269 94.4366 359.269 95.3025V99.5066H358.059V95.3298C358.059 94.7511 357.945 94.3363 357.718 94.0857C357.49 93.835 357.134 93.7097 356.651 93.7097C356.305 93.7097 355.997 93.7917 355.728 93.9558C355.459 94.1199 355.243 94.3523 355.079 94.6531V99.5066H353.869V92.8484ZM364.97 91.2556H366.194V92.8621H367.452V93.7644H366.194V97.8044C366.194 98.3695 366.429 98.6521 366.898 98.6521C367.044 98.6521 367.194 98.6248 367.349 98.5701L367.507 99.3972C367.288 99.5658 366.98 99.6501 366.584 99.6501C366.073 99.6501 365.677 99.4975 365.394 99.1921C365.112 98.8868 364.97 98.4242 364.97 97.8044V93.7644H363.918V92.8621H364.97V91.2556ZM369.879 96.1296V96.2664C369.879 97.0046 370.029 97.5948 370.33 98.0369C370.635 98.4789 371.073 98.7 371.642 98.7C372.212 98.7 372.649 98.4789 372.955 98.0369C373.26 97.5903 373.413 97.0001 373.413 96.2664V96.1296C373.413 95.405 373.258 94.8194 372.948 94.3728C372.643 93.9216 372.205 93.696 371.635 93.696C371.07 93.696 370.635 93.9216 370.33 94.3728C370.029 94.8194 369.879 95.405 369.879 96.1296ZM368.662 96.2664V96.1296C368.662 95.127 368.931 94.3113 369.469 93.6824C370.006 93.0535 370.731 92.739 371.642 92.739C372.554 92.739 373.278 93.0535 373.816 93.6824C374.354 94.3067 374.623 95.1225 374.623 96.1296V96.2664C374.623 97.2781 374.354 98.0961 373.816 98.7205C373.283 99.3403 372.558 99.6501 371.642 99.6501C370.731 99.6501 370.006 99.338 369.469 98.7136C368.931 98.0893 368.662 97.2735 368.662 96.2664ZM381.787 96.5876V96.7175C381.787 97.6882 381.554 98.4653 381.09 99.0486C380.629 99.6274 379.996 99.9167 379.189 99.9167C378.383 99.9167 377.76 99.6433 377.323 99.0964V102.35H376.113V93.1355H377.043L377.234 93.9968C377.676 93.3406 378.314 93.0125 379.148 93.0125C379.987 93.0125 380.636 93.336 381.096 93.9832C381.557 94.6257 381.787 95.4939 381.787 96.5876ZM380.57 96.7175V96.5876C380.57 95.8038 380.417 95.1772 380.112 94.7078C379.811 94.2338 379.378 93.9968 378.813 93.9968C378.143 93.9968 377.647 94.2908 377.323 94.8787V98.0984C377.642 98.6817 378.143 98.9734 378.827 98.9734C379.387 98.9734 379.818 98.7683 380.119 98.3582C380.42 97.948 380.57 97.4011 380.57 96.7175ZM384.583 92.8484V99.5066H383.373V92.8484H384.583ZM384.583 89.9089V91.1462H383.373V89.9089H384.583ZM387.385 96.321C387.385 97.0365 387.518 97.6016 387.782 98.0164C388.069 98.4721 388.527 98.7 389.156 98.7C389.566 98.7 389.922 98.5746 390.222 98.324C390.523 98.0733 390.674 97.7703 390.674 97.4148H391.76L391.774 97.4558C391.797 98.0346 391.544 98.545 391.015 98.9871C390.487 99.4291 389.867 99.6501 389.156 99.6501C388.208 99.6501 387.472 99.3425 386.948 98.7273C386.424 98.1121 386.162 97.31 386.162 96.321V96.0613C386.162 95.0769 386.424 94.2771 386.948 93.6619C387.477 93.0466 388.213 92.739 389.156 92.739C389.931 92.739 390.566 92.9669 391.063 93.4226C391.56 93.8783 391.799 94.4457 391.781 95.1248L391.767 95.1589H390.674C390.674 94.7488 390.53 94.4024 390.243 94.1199C389.956 93.8373 389.598 93.696 389.17 93.696C388.746 93.696 388.397 93.8031 388.124 94.0173C387.855 94.2315 387.663 94.5095 387.55 94.8513C387.44 95.1931 387.385 95.5964 387.385 96.0613V96.321ZM394.454 98.2625V99.5066H393.244V98.2625H394.454ZM397.831 98.2625V99.5066H396.621V98.2625H397.831ZM401.208 98.2625V99.5066H399.998V98.2625H401.208Z" fill="#717171"/>
<path d="M56.3219 85.8235C57.9965 85.8235 59.6026 86.4887 60.7867 87.6729C61.9709 88.8571 62.6361 90.4631 62.6361 92.1378C62.6361 93.7018 62.063 95.1395 61.1207 96.2469L61.383 96.5092H62.1504L67.0076 101.366L65.5504 102.823L60.6933 97.9663V97.1989L60.431 96.9366C59.3236 97.8789 57.8859 98.4521 56.3219 98.4521C54.6472 98.4521 53.0411 97.7868 51.857 96.6026C50.6728 95.4185 50.0076 93.8124 50.0076 92.1378C50.0076 90.4631 50.6728 88.8571 51.857 87.6729C53.0411 86.4887 54.6472 85.8235 56.3219 85.8235ZM56.3219 87.7663C53.8933 87.7663 51.9504 89.7092 51.9504 92.1378C51.9504 94.5663 53.8933 96.5092 56.3219 96.5092C58.7504 96.5092 60.6933 94.5663 60.6933 92.1378C60.6933 89.7092 58.7504 87.7663 56.3219 87.7663Z" fill="#4482F0"/>
<defs>
<filter id="filter0_d" x="0" y="0.778564" width="494" height="314" filterUnits="userSpaceOnUse" color-interpolation-filters="sRGB">
<feFlood flood-opacity="0" result="BackgroundImageFix"/>
<feColorMatrix in="SourceAlpha" type="matrix" values="0 0 0 0 0 0 0 0 0 0 0 0 0 0 0 0 0 0 127 0"/>
<feOffset dx="1" dy="1"/>
<feGaussianBlur stdDeviation="3.5"/>
<feColorMatrix type="matrix" values="0 0 0 0 0.509804 0 0 0 0 0.509804 0 0 0 0 0.509804 0 0 0 0.15 0"/>
<feBlend mode="normal" in2="BackgroundImageFix" result="effect1_dropShadow"/>
<feBlend mode="normal" in="SourceGraphic" in2="effect1_dropShadow" result="shape"/>
</filter>
</defs>
</svg>
