<svg width="319" height="220" viewBox="0 0 319 220" fill="none" xmlns="http://www.w3.org/2000/svg">
<path d="M87.0386 59.6782H29.0023L0 109.9L29.0023 160.138H87.0386L116.041 109.9L87.0386 59.6782Z" fill="#E0E0E0"/>
<path fill-rule="evenodd" clip-rule="evenodd" d="M229.377 58.1865H289.136L319 109.9L289.136 161.63H229.377L199.514 109.9L229.377 58.1865ZM231.1 61.1703L202.959 109.9L231.1 158.646H287.414L315.555 109.9L287.414 61.1703H231.1Z" fill="#4482F0"/>
<path fill-rule="evenodd" clip-rule="evenodd" d="M258.057 108.409L286.629 58.9326L289.213 60.4248L260.641 109.901L289.213 159.392L286.629 160.884L258.057 111.392H201.236V108.409H258.057Z" fill="#4482F0"/>
<path d="M187.657 0.695312H129.62L100.618 50.9172L129.62 101.155H187.657L216.659 50.9172L187.657 0.695312Z" fill="#E0E0E0"/>
<path d="M187.657 118.661H129.62L100.618 168.883L129.62 219.121H187.657L216.659 168.883L187.657 118.661Z" fill="#E0E0E0"/>
</svg>
