<svg width="494" height="315" viewBox="0 0 494 315" fill="none" xmlns="http://www.w3.org/2000/svg">
<g filter="url(#filter0_d)">
<rect x="6" y="6.33521" width="480" height="300" rx="8" fill="#FEFEFE"/>
</g>
<path d="M6 14.3352C6 9.91692 9.58172 6.33521 14 6.33521H168.481V306.335H14C9.58173 306.335 6 302.753 6 298.335V14.3352Z" fill="#FAFAFA"/>
<path d="M249.266 217.221H248.766V217.721H249.266V217.221ZM331.552 217.221H332.052V216.721H331.552V217.221ZM331.199 238.57C331.394 238.765 331.71 238.765 331.906 238.57L335.088 235.388C335.283 235.193 335.283 234.876 335.088 234.681C334.892 234.486 334.576 234.486 334.381 234.681L331.552 237.509L328.724 234.681C328.528 234.486 328.212 234.486 328.017 234.681C327.821 234.876 327.821 235.193 328.017 235.388L331.199 238.57ZM248.766 189.114V217.221H249.766V189.114H248.766ZM249.266 217.721H331.552V216.721H249.266V217.721ZM331.052 217.221V238.216H332.052V217.221H331.052Z" fill="#4482F0"/>
<path d="M336.075 128.806V142.201H249.008" stroke="#4482F0"/>
<path d="M334.793 82.4963H335.293V81.9963H334.793V82.4963ZM334.44 92.8944C334.635 93.0897 334.952 93.0897 335.147 92.8944L338.329 89.7124C338.524 89.5172 338.524 89.2006 338.329 89.0053C338.133 88.8101 337.817 88.8101 337.622 89.0053L334.793 91.8338L331.965 89.0053C331.77 88.8101 331.453 88.8101 331.258 89.0053C331.062 89.2006 331.062 89.5172 331.258 89.7124L334.44 92.8944ZM248.836 82.9963H334.793V81.9963H248.836V82.9963ZM334.293 82.4963V92.5409H335.293V82.4963H334.293Z" fill="#4482F0"/>
<rect x="296.727" y="247.284" width="71.1974" height="24.944" rx="12.472" fill="#4482F0"/>
<path d="M358.414 273.278L360.848 282.361C361.744 285.708 361.306 295.097 361.254 296.166C361.218 296.766 360.805 297.271 360.227 297.426L343.4 301.935C342.888 302.072 342.334 301.897 341.988 301.497C341.964 301.461 339.301 298.348 338.376 297.414C337.3 296.338 335.877 295.073 334.378 293.73C332.323 291.889 329.981 289.816 327.741 287.546C326.004 285.789 325.566 283.838 326.517 282.19C327.055 281.258 327.93 280.588 328.98 280.306C328.994 280.303 328.994 280.303 329.007 280.299C330.057 280.018 331.167 280.171 332.116 280.718C332.145 280.724 332.165 280.747 332.199 280.766L335.903 283.249L331.696 267.55C331.112 265.371 332.406 263.111 334.572 262.531C336.738 261.95 338.988 263.261 339.572 265.44L340.74 269.798C341.095 269.548 341.51 269.366 341.957 269.246C343.466 268.842 345.024 269.353 346.021 270.45C346.466 270.064 347.018 269.761 347.635 269.596C349.289 269.153 350.998 269.806 351.969 271.122C352.386 270.785 352.883 270.539 353.434 270.392C355.579 269.789 357.83 271.099 358.414 273.278ZM358.183 283.075L355.749 273.992C355.556 273.27 354.823 272.847 354.128 273.034C353.432 273.22 353.009 273.952 353.203 274.674L354.24 278.546C354.437 279.281 354.008 280.043 353.273 280.24C352.538 280.437 351.789 280.005 351.589 279.257L349.967 273.206C349.774 272.484 349.042 272.061 348.346 272.247C347.65 272.434 347.227 273.166 347.421 273.888L348.578 278.207C348.775 278.942 348.343 279.691 347.607 279.887C346.872 280.084 346.123 279.652 345.926 278.917L344.305 272.866C344.112 272.144 343.379 271.721 342.684 271.908C341.975 272.097 341.565 272.826 341.759 273.548L342.916 277.867C343.113 278.602 342.684 279.364 341.949 279.561C341.214 279.758 340.461 279.312 340.264 278.577L336.934 266.147C336.74 265.425 336.021 264.998 335.312 265.188C334.603 265.378 334.194 266.107 334.387 266.829L339.547 286.085C339.694 286.636 339.487 287.227 339.015 287.564C338.555 287.898 337.926 287.912 337.446 287.59L330.738 283.085C330.442 282.925 330.092 282.879 329.75 282.97C329.409 283.061 329.129 283.277 328.956 283.577C328.582 284.226 329.179 285.036 329.755 285.614C331.935 287.815 334.231 289.873 336.262 291.678C337.795 293.04 339.241 294.341 340.374 295.472C341.118 296.201 342.715 298.067 343.585 299.057L358.602 295.034C358.675 291.736 358.781 285.307 358.183 283.075Z" fill="#4482F0"/>
<path d="M355.749 273.992L358.183 283.075C358.777 285.293 358.671 291.723 358.542 295.021L343.526 299.045C342.665 298.038 341.058 296.189 340.314 295.46C339.181 294.329 337.739 293.041 336.203 291.666C334.171 289.861 331.879 287.816 329.696 285.601C329.132 285.021 328.532 284.197 328.897 283.564C329.07 283.265 329.35 283.049 329.691 282.958C330.032 282.866 330.382 282.913 330.678 283.073L337.386 287.578C337.866 287.9 338.496 287.886 338.955 287.552C339.427 287.214 339.635 286.624 339.487 286.073L334.335 266.843C334.141 266.121 334.551 265.392 335.26 265.202C335.968 265.012 336.688 265.439 336.881 266.161L340.212 278.591C340.409 279.326 341.161 279.772 341.896 279.575C342.631 279.378 343.06 278.616 342.863 277.881L341.706 273.562C341.513 272.84 341.935 272.108 342.631 271.921C343.327 271.735 344.059 272.158 344.253 272.88L345.874 278.931C346.071 279.666 346.82 280.098 347.555 279.901C348.29 279.704 348.722 278.956 348.525 278.22L347.368 273.902C347.175 273.18 347.598 272.448 348.293 272.261C349.002 272.071 349.721 272.498 349.915 273.22L351.536 279.271C351.733 280.006 352.486 280.451 353.221 280.254C353.956 280.057 354.388 279.308 354.188 278.56L353.15 274.688C352.957 273.966 353.379 273.234 354.075 273.047C354.823 272.847 355.559 273.283 355.749 273.992Z" fill="white"/>
<path d="M332.415 257.212L331.582 254.101" stroke="#FEFEFE" stroke-width="2" stroke-miterlimit="10" stroke-linecap="round"/>
<path d="M328.291 261.089L325.495 259.474" stroke="#FEFEFE" stroke-width="2" stroke-miterlimit="10" stroke-linecap="round"/>
<path d="M337.925 258.507L339.54 255.711" stroke="#FEFEFE" stroke-width="2" stroke-miterlimit="10" stroke-linecap="round"/>
<path d="M248.279 94.4396C248.475 94.6349 248.791 94.6349 248.986 94.4396L252.168 91.2577C252.364 91.0624 252.364 90.7458 252.168 90.5505C251.973 90.3553 251.657 90.3553 251.461 90.5505L248.633 93.379L245.804 90.5505C245.609 90.3553 245.293 90.3553 245.097 90.5505C244.902 90.7458 244.902 91.0624 245.097 91.2577L248.279 94.4396ZM248.133 69.1562L248.133 94.0861L249.133 94.0861L249.133 69.1563L248.133 69.1562Z" fill="#4482F0"/>
<path d="M248.279 155.599C248.475 155.794 248.791 155.794 248.986 155.599L252.168 152.417C252.364 152.222 252.364 151.905 252.168 151.71C251.973 151.515 251.657 151.515 251.461 151.71L248.633 154.538L245.804 151.71C245.609 151.515 245.293 151.515 245.097 151.71C244.902 151.905 244.902 152.222 245.097 152.417L248.279 155.599ZM248.133 130.316L248.133 155.246L249.133 155.246L249.133 130.316L248.133 130.316Z" fill="#4482F0"/>
<rect x="213.031" y="40.4426" width="71.1974" height="24.944" rx="12.472" fill="#4482F0"/>
<rect x="297.227" y="40.9426" width="70.1974" height="23.944" rx="11.972" fill="#FEFEFE" stroke="#BDBDBD"/>
<rect x="380.922" y="40.9426" width="70.1974" height="23.944" rx="11.972" fill="#FEFEFE" stroke="#BDBDBD"/>
<rect x="213.031" y="100.353" width="71.1974" height="24.944" rx="12.472" fill="#4482F0"/>
<rect x="296.727" y="100.353" width="71.1974" height="24.944" rx="12.472" fill="#4482F0"/>
<rect x="380.922" y="100.853" width="70.1974" height="23.944" rx="11.972" fill="#FEFEFE" stroke="#BDBDBD"/>
<rect x="213.031" y="160.264" width="71.1974" height="24.944" rx="12.472" fill="#4482F0"/>
<rect x="297.227" y="160.764" width="70.1974" height="23.944" rx="11.972" fill="#FEFEFE" stroke="#BDBDBD"/>
<rect x="380.922" y="160.764" width="70.1974" height="23.944" rx="11.972" fill="#FEFEFE" stroke="#BDBDBD"/>
<path d="M43.8398 45.4377H42.3018V52.4924H43.8398C44.6647 52.4924 45.3164 52.2258 45.7949 51.6926C46.278 51.1549 46.5195 50.4508 46.5195 49.5803V48.343C46.5195 47.4771 46.278 46.7776 45.7949 46.2444C45.3118 45.7066 44.6602 45.4377 43.8398 45.4377ZM43.8398 53.4426H41.0918V44.4875H43.8398C45.0156 44.4875 45.9567 44.8453 46.6631 45.5608C47.374 46.2717 47.7295 47.2037 47.7295 48.3567V49.5803C47.7295 50.7333 47.374 51.6653 46.6631 52.3762C45.9567 53.0872 45.0156 53.4426 43.8398 53.4426ZM53.2461 49.3069C53.2461 48.8056 53.1162 48.4023 52.8564 48.0969C52.5967 47.787 52.223 47.6321 51.7354 47.6321C51.3343 47.6321 50.988 47.8007 50.6963 48.1379C50.4092 48.4752 50.2314 48.9058 50.1631 49.4299L50.1768 49.4641H53.2461V49.3069ZM51.9199 53.5862C50.9948 53.5862 50.2565 53.2808 49.7051 52.6702C49.1582 52.0595 48.8848 51.2551 48.8848 50.2571V49.9836C48.8848 49.0494 49.1628 48.2655 49.7188 47.6321C50.2793 46.9941 50.9515 46.675 51.7354 46.675C52.6195 46.675 53.2939 46.9417 53.7588 47.4749C54.2282 48.0035 54.4629 48.7304 54.4629 49.6555V50.4143H50.1426L50.1221 50.4417C50.1357 51.0979 50.2998 51.6288 50.6143 52.0344C50.9333 52.4355 51.3685 52.636 51.9199 52.636C52.6947 52.636 53.3236 52.4172 53.8066 51.9797L54.2852 52.7659H54.2783C53.7223 53.3127 52.9362 53.5862 51.9199 53.5862ZM55.8369 46.7844H56.917L57.0059 47.7756C57.4661 47.0328 58.1247 46.6614 58.9814 46.6614C59.7106 46.6614 60.2689 46.8756 60.6562 47.304C61.0436 47.7278 61.2373 48.3726 61.2373 49.2385V53.4426H60.0273V49.2659C60.0273 48.6871 59.9134 48.2724 59.6855 48.0217C59.4577 47.7711 59.1022 47.6458 58.6191 47.6458C58.2728 47.6458 57.9652 47.7278 57.6963 47.8918C57.4274 48.0559 57.2109 48.2883 57.0469 48.5891V53.4426H55.8369V46.7844ZM63.3838 45.1917H64.6074V46.7981H65.8652V47.7004H64.6074V51.7405C64.6074 52.3056 64.8421 52.5881 65.3115 52.5881C65.4574 52.5881 65.6077 52.5608 65.7627 52.5061L65.9199 53.3333C65.7012 53.5019 65.3936 53.5862 64.9971 53.5862C64.4867 53.5862 64.0902 53.4335 63.8076 53.1282C63.5251 52.8228 63.3838 52.3603 63.3838 51.7405V47.7004H62.3311V46.7981H63.3838V45.1917ZM69.2559 53.5862C68.5632 53.5862 68.0345 53.4107 67.6699 53.0598C67.3053 52.7089 67.123 52.2167 67.123 51.5833C67.123 50.9498 67.3783 50.453 67.8887 50.093C68.3991 49.733 69.1009 49.553 69.9941 49.553H71.3066V48.8967C71.3066 48.5048 71.1859 48.1972 70.9443 47.9739C70.7074 47.746 70.3838 47.6321 69.9736 47.6321C69.568 47.6321 69.2422 47.7301 68.9961 47.926C68.75 48.1174 68.627 48.3567 68.627 48.6438H67.4717L67.458 48.6096C67.4352 48.1083 67.6676 47.6617 68.1553 47.2698C68.6475 46.8733 69.2718 46.675 70.0283 46.675C70.7894 46.675 71.3955 46.871 71.8467 47.2629C72.2979 47.6503 72.5234 48.1995 72.5234 48.9104V52.1165C72.5234 52.6314 72.5804 53.078 72.6943 53.4563H71.4434C71.3568 53.0325 71.3112 52.6998 71.3066 52.4583C71.0697 52.7955 70.7689 53.0689 70.4043 53.2786C70.0443 53.4836 69.6615 53.5862 69.2559 53.5862ZM68.3467 51.6106H68.3398C68.3398 51.9114 68.4333 52.1461 68.6201 52.3147C68.807 52.4833 69.0964 52.5676 69.4883 52.5676C69.8802 52.5676 70.2539 52.4583 70.6094 52.2395C70.9694 52.0162 71.2041 51.7564 71.3135 51.4602V50.3733H69.96C69.4769 50.3733 69.0872 50.4941 68.791 50.7356C68.4948 50.9726 68.3467 51.2642 68.3467 51.6106ZM75.5996 43.845V53.4426H74.3896V43.845H75.5996ZM81.0205 46.7844H82.1006L82.1895 47.7756C82.6497 47.0328 83.3083 46.6614 84.165 46.6614C84.8942 46.6614 85.4525 46.8756 85.8398 47.304C86.2272 47.7278 86.4209 48.3726 86.4209 49.2385V53.4426H85.2109V49.2659C85.2109 48.6871 85.097 48.2724 84.8691 48.0217C84.6413 47.7711 84.2858 47.6458 83.8027 47.6458C83.4564 47.6458 83.1488 47.7278 82.8799 47.8918C82.611 48.0559 82.3945 48.2883 82.2305 48.5891V53.4426H81.0205V46.7844ZM89.1143 50.0657V50.2024C89.1143 50.9407 89.2646 51.5308 89.5654 51.9729C89.8708 52.415 90.3083 52.636 90.8779 52.636C91.4476 52.636 91.8851 52.415 92.1904 51.9729C92.4958 51.5263 92.6484 50.9361 92.6484 50.2024V50.0657C92.6484 49.3411 92.4935 48.7555 92.1836 48.3088C91.8783 47.8577 91.4408 47.6321 90.8711 47.6321C90.306 47.6321 89.8708 47.8577 89.5654 48.3088C89.2646 48.7555 89.1143 49.3411 89.1143 50.0657ZM87.8975 50.2024V50.0657C87.8975 49.0631 88.1663 48.2473 88.7041 47.6184C89.2419 46.9895 89.9665 46.675 90.8779 46.675C91.7894 46.675 92.514 46.9895 93.0518 47.6184C93.5895 48.2428 93.8584 49.0585 93.8584 50.0657V50.2024C93.8584 51.2141 93.5895 52.0321 93.0518 52.6565C92.5186 53.2763 91.7939 53.5862 90.8779 53.5862C89.9665 53.5862 89.2419 53.274 88.7041 52.6497C88.1663 52.0253 87.8975 51.2096 87.8975 50.2024ZM95.7314 45.1917H96.9551V46.7981H98.2129V47.7004H96.9551V51.7405C96.9551 52.3056 97.1898 52.5881 97.6592 52.5881C97.805 52.5881 97.9554 52.5608 98.1104 52.5061L98.2676 53.3333C98.0488 53.5019 97.7412 53.5862 97.3447 53.5862C96.8343 53.5862 96.4378 53.4335 96.1553 53.1282C95.8727 52.8228 95.7314 52.3603 95.7314 51.7405V47.7004H94.6787V46.7981H95.7314V45.1917ZM103.791 49.3069C103.791 48.8056 103.661 48.4023 103.401 48.0969C103.142 47.787 102.768 47.6321 102.28 47.6321C101.879 47.6321 101.533 47.8007 101.241 48.1379C100.954 48.4752 100.776 48.9058 100.708 49.4299L100.722 49.4641H103.791V49.3069ZM102.465 53.5862C101.54 53.5862 100.801 53.2808 100.25 52.6702C99.7031 52.0595 99.4297 51.2551 99.4297 50.2571V49.9836C99.4297 49.0494 99.7077 48.2655 100.264 47.6321C100.824 46.9941 101.496 46.675 102.28 46.675C103.164 46.675 103.839 46.9417 104.304 47.4749C104.773 48.0035 105.008 48.7304 105.008 49.6555V50.4143H100.688L100.667 50.4417C100.681 51.0979 100.845 51.6288 101.159 52.0344C101.478 52.4355 101.913 52.636 102.465 52.636C103.24 52.636 103.868 52.4172 104.352 51.9797L104.83 52.7659H104.823C104.267 53.3127 103.481 53.5862 102.465 53.5862ZM108.856 52.6223C109.285 52.6223 109.622 52.538 109.868 52.3694C110.114 52.1962 110.237 51.9683 110.237 51.6858C110.237 51.4032 110.132 51.1799 109.923 51.0159C109.713 50.8472 109.333 50.6991 108.781 50.5715C107.943 50.3892 107.325 50.1477 106.929 49.8469C106.537 49.5416 106.341 49.1223 106.341 48.5891C106.341 48.0559 106.573 47.6025 107.038 47.2288C107.503 46.8505 108.109 46.6614 108.856 46.6614C109.604 46.6614 110.208 46.8596 110.668 47.2561C111.133 47.648 111.354 48.1357 111.331 48.719L111.317 48.7532H110.162C110.162 48.4478 110.037 48.1835 109.786 47.9602C109.54 47.7369 109.214 47.6252 108.809 47.6252C108.408 47.6252 108.098 47.7164 107.879 47.8987C107.66 48.0764 107.551 48.3043 107.551 48.5823C107.551 48.8603 107.646 49.0722 107.838 49.218C108.029 49.3639 108.405 49.496 108.966 49.6145C109.823 49.8014 110.451 50.052 110.853 50.3665C111.254 50.6764 111.454 51.0888 111.454 51.6038C111.454 52.1962 111.215 52.6747 110.736 53.0393C110.262 53.4039 109.624 53.5862 108.822 53.5862C108.02 53.5862 107.371 53.3765 106.874 52.9573C106.382 52.538 106.147 52.0299 106.17 51.4329L106.184 51.3987H107.339C107.362 51.8088 107.514 52.1187 107.797 52.3284C108.084 52.5334 108.442 52.636 108.87 52.636L108.856 52.6223Z" fill="#4482F0"/>
<path d="M44.5576 92.3167H42.3018V96.1995H41.0918V87.2444H44.332C45.3164 87.2444 46.0661 87.4609 46.5811 87.8938C47.096 88.3267 47.3535 88.9602 47.3535 89.7942C47.3535 90.7239 46.8841 91.3938 45.9453 91.804C46.8704 92.1047 47.333 92.8088 47.333 93.9163V94.7571C47.333 95.3678 47.4697 95.7984 47.7432 96.0491V96.1995H46.4922C46.2415 95.9762 46.1162 95.4931 46.1162 94.7502V93.9299C46.1162 93.4423 45.9749 93.0527 45.6924 92.761C45.4098 92.4648 45.0316 92.3167 44.5576 92.3167ZM42.3018 88.1946V91.3665H44.209C44.8926 91.3665 45.3848 91.2389 45.6855 90.9836C45.9909 90.7239 46.1436 90.3228 46.1436 89.7805C46.1436 88.7232 45.5397 88.1946 44.332 88.1946H42.3018ZM53.3008 92.0637C53.3008 91.5624 53.1709 91.1591 52.9111 90.8538C52.6514 90.5439 52.2777 90.3889 51.79 90.3889C51.389 90.3889 51.0426 90.5575 50.751 90.8948C50.4639 91.232 50.2861 91.6627 50.2178 92.1868L50.2314 92.2209H53.3008V92.0637ZM51.9746 96.343C51.0495 96.343 50.3112 96.0377 49.7598 95.427C49.2129 94.8163 48.9395 94.012 48.9395 93.0139V92.7405C48.9395 91.8062 49.2174 91.0224 49.7734 90.3889C50.334 89.7509 51.0062 89.4319 51.79 89.4319C52.6742 89.4319 53.3486 89.6985 53.8135 90.2317C54.2829 90.7603 54.5176 91.4872 54.5176 92.4124V93.1711H50.1973L50.1768 93.1985C50.1904 93.8547 50.3545 94.3857 50.6689 94.7913C50.988 95.1923 51.4232 95.3928 51.9746 95.3928C52.7493 95.3928 53.3783 95.1741 53.8613 94.7366L54.3398 95.5227H54.333C53.777 96.0696 52.9909 96.343 51.9746 96.343ZM57.6074 96.1995H56.3906V90.4436H55.3447V89.5413H56.3906V88.7004C56.3906 87.9895 56.5729 87.4403 56.9375 87.053C57.3066 86.6656 57.8262 86.4719 58.4961 86.4719C58.7285 86.4719 59.0293 86.5152 59.3984 86.6018L59.248 87.5247C59.0749 87.4836 58.8766 87.4631 58.6533 87.4631C57.9561 87.4631 57.6074 87.8756 57.6074 88.7004V89.5413H58.9883V90.4436H57.6074V96.1995ZM64.1699 92.0637C64.1699 91.5624 64.04 91.1591 63.7803 90.8538C63.5205 90.5439 63.1468 90.3889 62.6592 90.3889C62.2581 90.3889 61.9118 90.5575 61.6201 90.8948C61.333 91.232 61.1553 91.6627 61.0869 92.1868L61.1006 92.2209H64.1699V92.0637ZM62.8438 96.343C61.9186 96.343 61.1803 96.0377 60.6289 95.427C60.082 94.8163 59.8086 94.012 59.8086 93.0139V92.7405C59.8086 91.8062 60.0866 91.0224 60.6426 90.3889C61.2031 89.7509 61.8753 89.4319 62.6592 89.4319C63.5433 89.4319 64.2178 89.6985 64.6826 90.2317C65.152 90.7603 65.3867 91.4872 65.3867 92.4124V93.1711H61.0664L61.0459 93.1985C61.0596 93.8547 61.2236 94.3857 61.5381 94.7913C61.8571 95.1923 62.2923 95.3928 62.8438 95.3928C63.6185 95.3928 64.2474 95.1741 64.7305 94.7366L65.209 95.5227H65.2021C64.6462 96.0696 63.86 96.343 62.8438 96.343ZM67.9707 96.2063H66.7607V89.5481H67.8408L67.957 90.5188C68.3626 89.7851 68.9141 89.4182 69.6113 89.4182C69.7754 89.4182 69.9303 89.441 70.0762 89.4866L69.9121 90.6213L69.29 90.5803C68.6657 90.5803 68.2259 90.8697 67.9707 91.4485V96.2063ZM72.291 96.2063H71.0811V89.5481H72.1611L72.2773 90.5188C72.6829 89.7851 73.2344 89.4182 73.9316 89.4182C74.0957 89.4182 74.2507 89.441 74.3965 89.4866L74.2324 90.6213L73.6104 90.5803C72.986 90.5803 72.5462 90.8697 72.291 91.4485V96.2063ZM77.2949 96.343C76.6022 96.343 76.0736 96.1676 75.709 95.8167C75.3444 95.4657 75.1621 94.9736 75.1621 94.3401C75.1621 93.7066 75.4173 93.2099 75.9277 92.8499C76.4382 92.4898 77.14 92.3098 78.0332 92.3098H79.3457V91.6536C79.3457 91.2616 79.2249 90.954 78.9834 90.7307C78.7464 90.5028 78.4229 90.3889 78.0127 90.3889C77.6071 90.3889 77.2812 90.4869 77.0352 90.6829C76.7891 90.8743 76.666 91.1135 76.666 91.4006H75.5107L75.4971 91.3665C75.4743 90.8652 75.7067 90.4185 76.1943 90.0266C76.6865 89.6301 77.3109 89.4319 78.0674 89.4319C78.8285 89.4319 79.4346 89.6278 79.8857 90.0198C80.3369 90.4071 80.5625 90.9563 80.5625 91.6672V94.8733C80.5625 95.3883 80.6195 95.8349 80.7334 96.2131H79.4824C79.3958 95.7893 79.3503 95.4566 79.3457 95.2151C79.1087 95.5523 78.8079 95.8258 78.4434 96.0354C78.0833 96.2405 77.7005 96.343 77.2949 96.343ZM76.3857 94.3674H76.3789C76.3789 94.6682 76.4723 94.9029 76.6592 95.0715C76.846 95.2402 77.1354 95.3245 77.5273 95.3245C77.9193 95.3245 78.293 95.2151 78.6484 94.9963C79.0085 94.773 79.2432 94.5133 79.3525 94.217V93.1301H77.999C77.516 93.1301 77.1263 93.2509 76.8301 93.4924C76.5339 93.7294 76.3857 94.0211 76.3857 94.3674ZM83.6387 86.6018V96.1995H82.4287V86.6018H83.6387ZM87.9795 95.3792C88.4079 95.3792 88.7451 95.2948 88.9912 95.1262C89.2373 94.953 89.3604 94.7252 89.3604 94.4426C89.3604 94.1601 89.2555 93.9368 89.0459 93.7727C88.8363 93.6041 88.4557 93.456 87.9043 93.3284C87.0658 93.1461 86.4482 92.9045 86.0518 92.6038C85.6598 92.2984 85.4639 91.8792 85.4639 91.3459C85.4639 90.8127 85.6963 90.3593 86.1611 89.9856C86.626 89.6073 87.2321 89.4182 87.9795 89.4182C88.7269 89.4182 89.3307 89.6165 89.791 90.0129C90.2559 90.4049 90.4769 90.8925 90.4541 91.4758L90.4404 91.51H89.2852C89.2852 91.2047 89.1598 90.9403 88.9092 90.717C88.6631 90.4937 88.3372 90.3821 87.9316 90.3821C87.5306 90.3821 87.2207 90.4732 87.002 90.6555C86.7832 90.8333 86.6738 91.0611 86.6738 91.3391C86.6738 91.6171 86.7695 91.829 86.9609 91.9749C87.1523 92.1207 87.5283 92.2528 88.0889 92.3713C88.9456 92.5582 89.5745 92.8088 89.9756 93.1233C90.3766 93.4332 90.5771 93.8456 90.5771 94.3606C90.5771 94.953 90.3379 95.4316 89.8594 95.7961C89.3854 96.1607 88.7474 96.343 87.9453 96.343C87.1432 96.343 86.4938 96.1334 85.9971 95.7141C85.5049 95.2948 85.2702 94.7867 85.293 94.1897L85.3066 94.1555H86.4619C86.4847 94.5657 86.6374 94.8756 86.9199 95.0852C87.207 95.2903 87.5648 95.3928 87.9932 95.3928L87.9795 95.3792Z" fill="#333333"/>
<path d="M42.3018 130.002V138.007H46.54V138.957H41.0918V130.002H42.3018ZM49.5684 139.1C48.8757 139.1 48.347 138.925 47.9824 138.574C47.6178 138.223 47.4355 137.731 47.4355 137.097C47.4355 136.464 47.6908 135.967 48.2012 135.607C48.7116 135.247 49.4134 135.067 50.3066 135.067H51.6191V134.411C51.6191 134.019 51.4984 133.711 51.2568 133.488C51.0199 133.26 50.6963 133.146 50.2861 133.146C49.8805 133.146 49.5547 133.244 49.3086 133.44C49.0625 133.632 48.9395 133.871 48.9395 134.158H47.7842L47.7705 134.124C47.7477 133.622 47.9801 133.176 48.4678 132.784C48.96 132.387 49.5843 132.189 50.3408 132.189C51.1019 132.189 51.708 132.385 52.1592 132.777C52.6104 133.164 52.8359 133.714 52.8359 134.425V137.631C52.8359 138.146 52.8929 138.592 53.0068 138.97H51.7559C51.6693 138.547 51.6237 138.214 51.6191 137.972C51.3822 138.31 51.0814 138.583 50.7168 138.793C50.3568 138.998 49.974 139.1 49.5684 139.1ZM48.6592 137.125H48.6523C48.6523 137.426 48.7458 137.66 48.9326 137.829C49.1195 137.997 49.4089 138.082 49.8008 138.082C50.1927 138.082 50.5664 137.972 50.9219 137.754C51.2819 137.53 51.5166 137.271 51.626 136.974V135.887H50.2725C49.7894 135.887 49.3997 136.008 49.1035 136.25C48.8073 136.487 48.6592 136.778 48.6592 137.125ZM57.3613 133.174C56.6504 133.174 56.1309 133.511 55.8027 134.185V137.07C56.1354 137.767 56.6618 138.116 57.3818 138.116C57.9424 138.116 58.3639 137.92 58.6465 137.528C58.9336 137.132 59.0771 136.587 59.0771 135.894L59.0635 135.764C59.0635 134.971 58.9199 134.343 58.6328 133.878C58.3457 133.408 57.9219 133.174 57.3613 133.174ZM60.2871 135.764V135.894C60.2871 136.87 60.0547 137.649 59.5898 138.232C59.1296 138.811 58.4984 139.1 57.6963 139.1C56.8258 139.1 56.1742 138.763 55.7412 138.089L55.5977 138.97H54.6064V129.373H55.8164V133.098C56.2539 132.492 56.8783 132.189 57.6895 132.189C58.5007 132.189 59.1364 132.513 59.5967 133.16C60.057 133.807 60.2871 134.675 60.2871 135.764ZM66.2617 135.771C66.2617 136.487 66.3939 137.052 66.6582 137.467C66.9453 137.922 67.4033 138.15 68.0322 138.15C68.4424 138.15 68.7979 138.025 69.0986 137.774C69.3994 137.524 69.5498 137.22 69.5498 136.865H70.6367L70.6504 136.906C70.6732 137.485 70.4202 137.995 69.8916 138.437C69.363 138.879 68.7432 139.1 68.0322 139.1C67.0843 139.1 66.3483 138.793 65.8242 138.177C65.3001 137.562 65.0381 136.76 65.0381 135.771V135.511C65.0381 134.527 65.3001 133.727 65.8242 133.112C66.3529 132.497 67.0889 132.189 68.0322 132.189C68.807 132.189 69.4427 132.417 69.9395 132.873C70.4362 133.329 70.6755 133.896 70.6572 134.575L70.6436 134.609H69.5498C69.5498 134.199 69.4062 133.853 69.1191 133.57C68.832 133.288 68.4743 133.146 68.0459 133.146C67.6221 133.146 67.2734 133.253 67 133.468C66.7311 133.682 66.5397 133.96 66.4258 134.302C66.3164 134.643 66.2617 135.047 66.2617 135.511V135.771ZM73.9043 139.1C73.2116 139.1 72.6829 138.925 72.3184 138.574C71.9538 138.223 71.7715 137.731 71.7715 137.097C71.7715 136.464 72.0267 135.967 72.5371 135.607C73.0475 135.247 73.7493 135.067 74.6426 135.067H75.9551V134.411C75.9551 134.019 75.8343 133.711 75.5928 133.488C75.3558 133.26 75.0322 133.146 74.6221 133.146C74.2165 133.146 73.8906 133.244 73.6445 133.44C73.3984 133.632 73.2754 133.871 73.2754 134.158H72.1201L72.1064 134.124C72.0837 133.622 72.3161 133.176 72.8037 132.784C73.2959 132.387 73.9202 132.189 74.6768 132.189C75.4378 132.189 76.0439 132.385 76.4951 132.777C76.9463 133.164 77.1719 133.714 77.1719 134.425V137.631C77.1719 138.146 77.2288 138.592 77.3428 138.97H76.0918C76.0052 138.547 75.9596 138.214 75.9551 137.972C75.7181 138.31 75.4173 138.583 75.0527 138.793C74.6927 138.998 74.3099 139.1 73.9043 139.1ZM72.9951 137.125H72.9883C72.9883 137.426 73.0817 137.66 73.2686 137.829C73.4554 137.997 73.7448 138.082 74.1367 138.082C74.5286 138.082 74.9023 137.972 75.2578 137.754C75.6178 137.53 75.8525 137.271 75.9619 136.974V135.887H74.6084C74.1253 135.887 73.7357 136.008 73.4395 136.25C73.1432 136.487 72.9951 136.778 72.9951 137.125ZM81.417 138.136C81.8454 138.136 82.1826 138.052 82.4287 137.884C82.6748 137.71 82.7979 137.483 82.7979 137.2C82.7979 136.917 82.693 136.694 82.4834 136.53C82.2738 136.361 81.8932 136.213 81.3418 136.086C80.5033 135.903 79.8857 135.662 79.4893 135.361C79.0973 135.056 78.9014 134.636 78.9014 134.103C78.9014 133.57 79.1338 133.117 79.5986 132.743C80.0635 132.365 80.6696 132.176 81.417 132.176C82.1644 132.176 82.7682 132.374 83.2285 132.77C83.6934 133.162 83.9144 133.65 83.8916 134.233L83.8779 134.267H82.7227C82.7227 133.962 82.5973 133.698 82.3467 133.474C82.1006 133.251 81.7747 133.139 81.3691 133.139C80.9681 133.139 80.6582 133.231 80.4395 133.413C80.2207 133.591 80.1113 133.818 80.1113 134.096C80.1113 134.374 80.207 134.586 80.3984 134.732C80.5898 134.878 80.9658 135.01 81.5264 135.129C82.3831 135.316 83.012 135.566 83.4131 135.881C83.8141 136.191 84.0146 136.603 84.0146 137.118C84.0146 137.71 83.7754 138.189 83.2969 138.553C82.8229 138.918 82.1849 139.1 81.3828 139.1C80.5807 139.1 79.9313 138.891 79.4346 138.471C78.9424 138.052 78.7077 137.544 78.7305 136.947L78.7441 136.913H79.8994C79.9222 137.323 80.0749 137.633 80.3574 137.843C80.6445 138.048 81.0023 138.15 81.4307 138.15L81.417 138.136ZM89.6133 134.821C89.6133 134.32 89.4834 133.916 89.2236 133.611C88.9639 133.301 88.5902 133.146 88.1025 133.146C87.7015 133.146 87.3551 133.315 87.0635 133.652C86.7764 133.989 86.5986 134.42 86.5303 134.944L86.5439 134.978H89.6133V134.821ZM88.2871 139.1C87.362 139.1 86.6237 138.795 86.0723 138.184C85.5254 137.574 85.252 136.769 85.252 135.771V135.498C85.252 134.564 85.5299 133.78 86.0859 133.146C86.6465 132.508 87.3187 132.189 88.1025 132.189C88.9867 132.189 89.6611 132.456 90.126 132.989C90.5954 133.518 90.8301 134.245 90.8301 135.17V135.928H86.5098L86.4893 135.956C86.5029 136.612 86.667 137.143 86.9814 137.549C87.3005 137.95 87.7357 138.15 88.2871 138.15C89.0618 138.15 89.6908 137.931 90.1738 137.494L90.6523 138.28H90.6455C90.0895 138.827 89.3034 139.1 88.2871 139.1ZM94.6787 138.136C95.1071 138.136 95.4443 138.052 95.6904 137.884C95.9365 137.71 96.0596 137.483 96.0596 137.2C96.0596 136.917 95.9548 136.694 95.7451 136.53C95.5355 136.361 95.1549 136.213 94.6035 136.086C93.765 135.903 93.1475 135.662 92.751 135.361C92.359 135.056 92.1631 134.636 92.1631 134.103C92.1631 133.57 92.3955 133.117 92.8604 132.743C93.3252 132.365 93.9313 132.176 94.6787 132.176C95.4261 132.176 96.0299 132.374 96.4902 132.77C96.9551 133.162 97.1761 133.65 97.1533 134.233L97.1396 134.267H95.9844C95.9844 133.962 95.859 133.698 95.6084 133.474C95.3623 133.251 95.0365 133.139 94.6309 133.139C94.2298 133.139 93.9199 133.231 93.7012 133.413C93.4824 133.591 93.373 133.818 93.373 134.096C93.373 134.374 93.4688 134.586 93.6602 134.732C93.8516 134.878 94.2275 135.01 94.7881 135.129C95.6449 135.316 96.2738 135.566 96.6748 135.881C97.0758 136.191 97.2764 136.603 97.2764 137.118C97.2764 137.71 97.0371 138.189 96.5586 138.553C96.0846 138.918 95.4466 139.1 94.6445 139.1C93.8424 139.1 93.193 138.891 92.6963 138.471C92.2041 138.052 91.9694 137.544 91.9922 136.947L92.0059 136.913H93.1611C93.1839 137.323 93.3366 137.633 93.6191 137.843C93.9062 138.048 94.264 138.15 94.6924 138.15L94.6787 138.136Z" fill="#333333"/>
<path d="M47.8662 172.759V181.714H46.6562V177.756H42.3018V181.714H41.0918V172.759H42.3018V176.805H46.6562V172.759H47.8662ZM51.168 175.055V181.714H49.958V175.055H51.168ZM51.168 172.116V173.353H49.958V172.116H51.168ZM55.5088 180.893C55.9372 180.893 56.2744 180.809 56.5205 180.64C56.7666 180.467 56.8896 180.239 56.8896 179.957C56.8896 179.674 56.7848 179.451 56.5752 179.287C56.3656 179.118 55.985 178.97 55.4336 178.843C54.5951 178.66 53.9775 178.419 53.5811 178.118C53.1891 177.813 52.9932 177.393 52.9932 176.86C52.9932 176.327 53.2256 175.873 53.6904 175.5C54.1553 175.122 54.7614 174.932 55.5088 174.932C56.2562 174.932 56.86 175.131 57.3203 175.527C57.7852 175.919 58.0062 176.407 57.9834 176.99L57.9697 177.024H56.8145C56.8145 176.719 56.6891 176.455 56.4385 176.231C56.1924 176.008 55.8665 175.896 55.4609 175.896C55.0599 175.896 54.75 175.987 54.5312 176.17C54.3125 176.347 54.2031 176.575 54.2031 176.853C54.2031 177.131 54.2988 177.343 54.4902 177.489C54.6816 177.635 55.0576 177.767 55.6182 177.885C56.4749 178.072 57.1038 178.323 57.5049 178.637C57.9059 178.947 58.1064 179.36 58.1064 179.875C58.1064 180.467 57.8672 180.946 57.3887 181.31C56.9147 181.675 56.2767 181.857 55.4746 181.857C54.6725 181.857 54.0231 181.648 53.5264 181.228C53.0342 180.809 52.7995 180.301 52.8223 179.704L52.8359 179.67H53.9912C54.014 180.08 54.1667 180.39 54.4492 180.599C54.7363 180.804 55.0941 180.907 55.5225 180.907L55.5088 180.893ZM60.0068 173.463H61.2305V175.069H62.4883V175.971H61.2305V180.011C61.2305 180.577 61.4652 180.859 61.9346 180.859C62.0804 180.859 62.2308 180.832 62.3857 180.777L62.543 181.604C62.3242 181.773 62.0166 181.857 61.6201 181.857C61.1097 181.857 60.7132 181.705 60.4307 181.399C60.1481 181.094 60.0068 180.631 60.0068 180.011V175.971H58.9541V175.069H60.0068V173.463ZM64.915 178.337V178.473C64.915 179.212 65.0654 179.802 65.3662 180.244C65.6715 180.686 66.109 180.907 66.6787 180.907C67.2484 180.907 67.6859 180.686 67.9912 180.244C68.2965 179.797 68.4492 179.207 68.4492 178.473V178.337C68.4492 177.612 68.2943 177.026 67.9844 176.58C67.679 176.129 67.2415 175.903 66.6719 175.903C66.1068 175.903 65.6715 176.129 65.3662 176.58C65.0654 177.026 64.915 177.612 64.915 178.337ZM63.6982 178.473V178.337C63.6982 177.334 63.9671 176.518 64.5049 175.889C65.0426 175.26 65.7673 174.946 66.6787 174.946C67.5902 174.946 68.3148 175.26 68.8525 175.889C69.3903 176.514 69.6592 177.33 69.6592 178.337V178.473C69.6592 179.485 69.3903 180.303 68.8525 180.927C68.3193 181.547 67.5947 181.857 66.6787 181.857C65.7673 181.857 65.0426 181.545 64.5049 180.921C63.9671 180.296 63.6982 179.481 63.6982 178.473ZM72.3594 181.72H71.1494V175.062H72.2295L72.3457 176.033C72.7513 175.299 73.3027 174.932 74 174.932C74.1641 174.932 74.319 174.955 74.4648 175.001L74.3008 176.135L73.6787 176.094C73.0544 176.094 72.6146 176.384 72.3594 176.963V181.72ZM75.9482 184.701C75.7751 184.701 75.5358 184.669 75.2305 184.605L75.3535 183.648C75.6543 183.671 75.8343 183.682 75.8936 183.682C76.1305 183.682 76.3288 183.582 76.4883 183.382C76.6523 183.181 76.8005 182.912 76.9326 182.575L77.2197 181.878L74.7451 175.356H76.0986L77.5137 179.547L77.7256 180.381H77.7666L79.4004 175.356H80.7471L77.9512 183.033C77.5273 184.145 76.8597 184.701 75.9482 184.701ZM87.084 181.714H85.8672V175.958H84.8213V175.055H85.8672V174.215C85.8672 173.504 86.0495 172.955 86.4141 172.567C86.7832 172.18 87.3027 171.986 87.9727 171.986C88.2051 171.986 88.5059 172.029 88.875 172.116L88.7246 173.039C88.5514 172.998 88.3532 172.977 88.1299 172.977C87.4326 172.977 87.084 173.39 87.084 174.215V175.055H88.4648V175.958H87.084V181.714ZM90.6455 178.337V178.473C90.6455 179.212 90.7959 179.802 91.0967 180.244C91.402 180.686 91.8395 180.907 92.4092 180.907C92.9788 180.907 93.4163 180.686 93.7217 180.244C94.027 179.797 94.1797 179.207 94.1797 178.473V178.337C94.1797 177.612 94.0247 177.026 93.7148 176.58C93.4095 176.129 92.972 175.903 92.4023 175.903C91.8372 175.903 91.402 176.129 91.0967 176.58C90.7959 177.026 90.6455 177.612 90.6455 178.337ZM89.4287 178.473V178.337C89.4287 177.334 89.6976 176.518 90.2354 175.889C90.7731 175.26 91.4977 174.946 92.4092 174.946C93.3206 174.946 94.0452 175.26 94.583 175.889C95.1208 176.514 95.3896 177.33 95.3896 178.337V178.473C95.3896 179.485 95.1208 180.303 94.583 180.927C94.0498 181.547 93.3252 181.857 92.4092 181.857C91.4977 181.857 90.7731 181.545 90.2354 180.921C89.6976 180.296 89.4287 179.481 89.4287 178.473ZM98.0898 181.72H96.8799V175.062H97.96L98.0762 176.033C98.4818 175.299 99.0332 174.932 99.7305 174.932C99.8945 174.932 100.049 174.955 100.195 175.001L100.031 176.135L99.4092 176.094C98.7848 176.094 98.3451 176.384 98.0898 176.963V181.72ZM102.41 181.714H101.207V175.055H102.287L102.376 175.93C102.832 175.265 103.506 174.932 104.399 174.932C105.297 174.932 105.906 175.343 106.225 176.163C106.685 175.343 107.364 174.932 108.262 174.932C108.959 174.932 109.499 175.169 109.882 175.643C110.265 176.113 110.456 176.81 110.456 177.735V181.714H109.246V177.721C109.246 177.079 109.137 176.619 108.918 176.341C108.699 176.058 108.371 175.917 107.934 175.917C107.501 175.917 107.154 176.058 106.895 176.341C106.639 176.619 106.489 176.983 106.443 177.434V181.714H105.22V177.721C105.22 177.102 105.106 176.646 104.878 176.354C104.655 176.063 104.32 175.917 103.873 175.917C103.171 175.917 102.684 176.206 102.41 176.785V181.714ZM114.694 180.893C115.123 180.893 115.46 180.809 115.706 180.64C115.952 180.467 116.075 180.239 116.075 179.957C116.075 179.674 115.97 179.451 115.761 179.287C115.551 179.118 115.171 178.97 114.619 178.843C113.781 178.66 113.163 178.419 112.767 178.118C112.375 177.813 112.179 177.393 112.179 176.86C112.179 176.327 112.411 175.873 112.876 175.5C113.341 175.122 113.947 174.932 114.694 174.932C115.442 174.932 116.046 175.131 116.506 175.527C116.971 175.919 117.192 176.407 117.169 176.99L117.155 177.024H116C116 176.719 115.875 176.455 115.624 176.231C115.378 176.008 115.052 175.896 114.646 175.896C114.245 175.896 113.936 175.987 113.717 176.17C113.498 176.347 113.389 176.575 113.389 176.853C113.389 177.131 113.484 177.343 113.676 177.489C113.867 177.635 114.243 177.767 114.804 177.885C115.66 178.072 116.289 178.323 116.69 178.637C117.091 178.947 117.292 179.36 117.292 179.875C117.292 180.467 117.053 180.946 116.574 181.31C116.1 181.675 115.462 181.857 114.66 181.857C113.858 181.857 113.209 181.648 112.712 181.228C112.22 180.809 111.985 180.301 112.008 179.704L112.021 179.67H113.177C113.2 180.08 113.352 180.39 113.635 180.599C113.922 180.804 114.28 180.907 114.708 180.907L114.694 180.893Z" fill="#333333"/>
<path d="M46.2598 221.62H47.415L47.4287 221.655C47.4469 222.511 47.1507 223.22 46.54 223.781C45.9294 224.337 45.1227 224.615 44.1201 224.615C43.1175 224.615 42.2972 224.259 41.6592 223.548C41.0212 222.833 40.7021 221.919 40.7021 220.807V219.214C40.7021 218.102 41.0212 217.188 41.6592 216.473C42.2972 215.757 43.1243 215.4 44.1406 215.4C45.1569 215.4 45.9635 215.669 46.5605 216.206C47.1621 216.74 47.4538 217.455 47.4355 218.353L47.4219 218.387H46.2598C46.2598 217.749 46.0729 217.25 45.6992 216.89C45.3301 216.53 44.8105 216.35 44.1406 216.35C43.4753 216.35 42.9398 216.619 42.5342 217.156C42.1286 217.694 41.9258 218.376 41.9258 219.2V220.807C41.9258 221.641 42.1286 222.327 42.5342 222.865C42.9398 223.398 43.4775 223.664 44.1475 223.664C44.8174 223.664 45.3369 223.487 45.7061 223.131C46.0752 222.771 46.2598 222.267 46.2598 221.62ZM49.7803 221.094V221.231C49.7803 221.969 49.9307 222.559 50.2314 223.001C50.5368 223.443 50.9743 223.664 51.5439 223.664C52.1136 223.664 52.5511 223.443 52.8564 223.001C53.1618 222.555 53.3145 221.964 53.3145 221.231V221.094C53.3145 220.369 53.1595 219.784 52.8496 219.337C52.5443 218.886 52.1068 218.66 51.5371 218.66C50.972 218.66 50.5368 218.886 50.2314 219.337C49.9307 219.784 49.7803 220.369 49.7803 221.094ZM48.5635 221.231V221.094C48.5635 220.091 48.8324 219.276 49.3701 218.647C49.9079 218.018 50.6325 217.703 51.5439 217.703C52.4554 217.703 53.18 218.018 53.7178 218.647C54.2555 219.271 54.5244 220.087 54.5244 221.094V221.231C54.5244 222.242 54.2555 223.06 53.7178 223.685C53.1846 224.305 52.46 224.615 51.5439 224.615C50.6325 224.615 49.9079 224.302 49.3701 223.678C48.8324 223.054 48.5635 222.238 48.5635 221.231ZM56.0146 217.813H57.0947L57.1836 218.804C57.6439 218.061 58.3024 217.69 59.1592 217.69C59.8883 217.69 60.4466 217.904 60.834 218.332C61.2214 218.756 61.415 219.401 61.415 220.267V224.471H60.2051V220.294C60.2051 219.715 60.0911 219.301 59.8633 219.05C59.6354 218.799 59.2799 218.674 58.7969 218.674C58.4505 218.674 58.1429 218.756 57.874 218.92C57.6051 219.084 57.3887 219.317 57.2246 219.617V224.471H56.0146V217.813ZM65.6533 223.651C66.0817 223.651 66.4189 223.566 66.665 223.398C66.9111 223.225 67.0342 222.997 67.0342 222.714C67.0342 222.432 66.9294 222.208 66.7197 222.044C66.5101 221.876 66.1296 221.727 65.5781 221.6C64.7396 221.418 64.1221 221.176 63.7256 220.875C63.3337 220.57 63.1377 220.151 63.1377 219.617C63.1377 219.084 63.3701 218.631 63.835 218.257C64.2998 217.879 64.9059 217.69 65.6533 217.69C66.4007 217.69 67.0046 217.888 67.4648 218.284C67.9297 218.676 68.1507 219.164 68.1279 219.747L68.1143 219.781H66.959C66.959 219.476 66.8337 219.212 66.583 218.989C66.3369 218.765 66.0111 218.654 65.6055 218.654C65.2044 218.654 64.8945 218.745 64.6758 218.927C64.457 219.105 64.3477 219.333 64.3477 219.611C64.3477 219.889 64.4434 220.101 64.6348 220.246C64.8262 220.392 65.2021 220.524 65.7627 220.643C66.6195 220.83 67.2484 221.08 67.6494 221.395C68.0505 221.705 68.251 222.117 68.251 222.632C68.251 223.225 68.0117 223.703 67.5332 224.068C67.0592 224.432 66.4212 224.615 65.6191 224.615C64.8171 224.615 64.1676 224.405 63.6709 223.986C63.1787 223.566 62.944 223.058 62.9668 222.461L62.9805 222.427H64.1357C64.1585 222.837 64.3112 223.147 64.5938 223.357C64.8809 223.562 65.2386 223.664 65.667 223.664L65.6533 223.651ZM73.8496 220.335C73.8496 219.834 73.7197 219.431 73.46 219.125C73.2002 218.815 72.8265 218.66 72.3389 218.66C71.9378 218.66 71.5915 218.829 71.2998 219.166C71.0127 219.503 70.835 219.934 70.7666 220.458L70.7803 220.492H73.8496V220.335ZM72.5234 224.615C71.5983 224.615 70.86 224.309 70.3086 223.698C69.7617 223.088 69.4883 222.283 69.4883 221.285V221.012C69.4883 220.078 69.7663 219.294 70.3223 218.66C70.8828 218.022 71.555 217.703 72.3389 217.703C73.223 217.703 73.8975 217.97 74.3623 218.503C74.8317 219.032 75.0664 219.759 75.0664 220.684V221.443H70.7461L70.7256 221.47C70.7393 222.126 70.9033 222.657 71.2178 223.063C71.5368 223.464 71.972 223.664 72.5234 223.664C73.2982 223.664 73.9271 223.446 74.4102 223.008L74.8887 223.794H74.8818C74.3258 224.341 73.5397 224.615 72.5234 224.615ZM76.4404 217.813H77.5205L77.6094 218.804C78.0697 218.061 78.7282 217.69 79.585 217.69C80.3141 217.69 80.8724 217.904 81.2598 218.332C81.6471 218.756 81.8408 219.401 81.8408 220.267V224.471H80.6309V220.294C80.6309 219.715 80.5169 219.301 80.2891 219.05C80.0612 218.799 79.7057 218.674 79.2227 218.674C78.8763 218.674 78.5687 218.756 78.2998 218.92C78.0309 219.084 77.8145 219.317 77.6504 219.617V224.471H76.4404V217.813ZM83.9873 216.22H85.2109V217.826H86.4688V218.729H85.2109V222.769C85.2109 223.334 85.4456 223.616 85.915 223.616C86.0609 223.616 86.2113 223.589 86.3662 223.534L86.5234 224.362C86.3047 224.53 85.9971 224.615 85.6006 224.615C85.0902 224.615 84.6937 224.462 84.4111 224.156C84.1286 223.851 83.9873 223.389 83.9873 222.769V218.729H82.9346V217.826H83.9873V216.22Z" fill="#333333"/>
<path d="M47.1553 258.273V259.223H44.2773V267.228H43.0674V259.223H40.1963V258.273H47.1553ZM49.0488 267.235H47.8389V260.576H48.9189L49.0352 261.547C49.4408 260.813 49.9922 260.447 50.6895 260.447C50.8535 260.447 51.0085 260.469 51.1543 260.515L50.9902 261.65L50.3682 261.609C49.7438 261.609 49.304 261.898 49.0488 262.477V267.235ZM56.2402 263.092C56.2402 262.591 56.1104 262.187 55.8506 261.882C55.5908 261.572 55.2171 261.417 54.7295 261.417C54.3285 261.417 53.9821 261.586 53.6904 261.923C53.4033 262.26 53.2256 262.691 53.1572 263.215L53.1709 263.249H56.2402V263.092ZM54.9141 267.371C53.9889 267.371 53.2507 267.066 52.6992 266.455C52.1523 265.845 51.8789 265.04 51.8789 264.042V263.769C51.8789 262.835 52.1569 262.051 52.7129 261.417C53.2734 260.779 53.9456 260.46 54.7295 260.46C55.6136 260.46 56.2881 260.727 56.7529 261.26C57.2223 261.789 57.457 262.516 57.457 263.441V264.199H53.1367L53.1162 264.227C53.1299 264.883 53.2939 265.414 53.6084 265.82C53.9274 266.221 54.3626 266.421 54.9141 266.421C55.6888 266.421 56.3177 266.202 56.8008 265.765L57.2793 266.551H57.2725C56.7165 267.098 55.9303 267.371 54.9141 267.371ZM60.7246 267.371C60.0319 267.371 59.5033 267.196 59.1387 266.845C58.7741 266.494 58.5918 266.002 58.5918 265.368C58.5918 264.735 58.847 264.238 59.3574 263.878C59.8678 263.518 60.5697 263.338 61.4629 263.338H62.7754V262.682C62.7754 262.29 62.6546 261.982 62.4131 261.759C62.1761 261.531 61.8525 261.417 61.4424 261.417C61.0368 261.417 60.7109 261.515 60.4648 261.711C60.2188 261.903 60.0957 262.142 60.0957 262.429H58.9404L58.9268 262.395C58.904 261.893 59.1364 261.447 59.624 261.055C60.1162 260.658 60.7406 260.46 61.4971 260.46C62.2581 260.46 62.8643 260.656 63.3154 261.048C63.7666 261.435 63.9922 261.985 63.9922 262.696V265.902C63.9922 266.417 64.0492 266.863 64.1631 267.241H62.9121C62.8255 266.818 62.7799 266.485 62.7754 266.243C62.5384 266.581 62.2376 266.854 61.873 267.064C61.513 267.269 61.1302 267.371 60.7246 267.371ZM59.8154 265.396H59.8086C59.8086 265.697 59.902 265.931 60.0889 266.1C60.2757 266.268 60.5651 266.353 60.957 266.353C61.349 266.353 61.7227 266.243 62.0781 266.025C62.4382 265.801 62.6729 265.542 62.7822 265.245V264.158H61.4287C60.9456 264.158 60.556 264.279 60.2598 264.521C59.9635 264.758 59.8154 265.049 59.8154 265.396ZM66.1455 258.977H67.3691V260.583H68.627V261.486H67.3691V265.526C67.3691 266.091 67.6038 266.373 68.0732 266.373C68.2191 266.373 68.3695 266.346 68.5244 266.291L68.6816 267.118C68.4629 267.287 68.1553 267.371 67.7588 267.371C67.2484 267.371 66.8519 267.219 66.5693 266.913C66.2868 266.608 66.1455 266.145 66.1455 265.526V261.486H65.0928V260.583H66.1455V258.977ZM71.334 267.228H70.1309V260.57H71.2109L71.2998 261.445C71.7555 260.779 72.43 260.447 73.3232 260.447C74.221 260.447 74.8294 260.857 75.1484 261.677C75.6087 260.857 76.2878 260.447 77.1855 260.447C77.8828 260.447 78.4229 260.684 78.8057 261.157C79.1885 261.627 79.3799 262.324 79.3799 263.249V267.228H78.1699V263.236C78.1699 262.593 78.0605 262.133 77.8418 261.855C77.623 261.572 77.2949 261.431 76.8574 261.431C76.4245 261.431 76.0781 261.572 75.8184 261.855C75.5632 262.133 75.4128 262.497 75.3672 262.948V267.228H74.1436V263.236C74.1436 262.616 74.0296 262.16 73.8018 261.868C73.5785 261.577 73.2435 261.431 72.7969 261.431C72.0951 261.431 71.6074 261.72 71.334 262.299V267.228ZM85.2246 263.092C85.2246 262.591 85.0947 262.187 84.835 261.882C84.5752 261.572 84.2015 261.417 83.7139 261.417C83.3128 261.417 82.9665 261.586 82.6748 261.923C82.3877 262.26 82.21 262.691 82.1416 263.215L82.1553 263.249H85.2246V263.092ZM83.8984 267.371C82.9733 267.371 82.235 267.066 81.6836 266.455C81.1367 265.845 80.8633 265.04 80.8633 264.042V263.769C80.8633 262.835 81.1413 262.051 81.6973 261.417C82.2578 260.779 82.93 260.46 83.7139 260.46C84.598 260.46 85.2725 260.727 85.7373 261.26C86.2067 261.789 86.4414 262.516 86.4414 263.441V264.199H82.1211L82.1006 264.227C82.1143 264.883 82.2783 265.414 82.5928 265.82C82.9118 266.221 83.347 266.421 83.8984 266.421C84.6732 266.421 85.3021 266.202 85.7852 265.765L86.2637 266.551H86.2568C85.7008 267.098 84.9147 267.371 83.8984 267.371ZM87.8154 260.57H88.8955L88.9844 261.561C89.4447 260.818 90.1032 260.447 90.96 260.447C91.6891 260.447 92.2474 260.661 92.6348 261.089C93.0221 261.513 93.2158 262.158 93.2158 263.024V267.228H92.0059V263.051C92.0059 262.472 91.8919 262.058 91.6641 261.807C91.4362 261.556 91.0807 261.431 90.5977 261.431C90.2513 261.431 89.9437 261.513 89.6748 261.677C89.4059 261.841 89.1895 262.073 89.0254 262.374V267.228H87.8154V260.57ZM95.3623 258.977H96.5859V260.583H97.8438V261.486H96.5859V265.526C96.5859 266.091 96.8206 266.373 97.29 266.373C97.4359 266.373 97.5863 266.346 97.7412 266.291L97.8984 267.118C97.6797 267.287 97.3721 267.371 96.9756 267.371C96.4652 267.371 96.0687 267.219 95.7861 266.913C95.5036 266.608 95.3623 266.145 95.3623 265.526V261.486H94.3096V260.583H95.3623V258.977ZM108.569 264.309V264.439C108.569 265.409 108.337 266.186 107.872 266.77C107.412 267.349 106.778 267.638 105.972 267.638C105.165 267.638 104.543 267.365 104.105 266.818V270.072H102.896V260.857H103.825L104.017 261.718C104.459 261.062 105.097 260.734 105.931 260.734C106.769 260.734 107.419 261.057 107.879 261.704C108.339 262.347 108.569 263.215 108.569 264.309ZM107.353 264.439V264.309C107.353 263.525 107.2 262.898 106.895 262.429C106.594 261.955 106.161 261.718 105.596 261.718C104.926 261.718 104.429 262.012 104.105 262.6V265.82C104.424 266.403 104.926 266.695 105.609 266.695C106.17 266.695 106.601 266.49 106.901 266.079C107.202 265.669 107.353 265.122 107.353 264.439ZM111.365 257.63V267.228H110.155V257.63H111.365ZM115.125 267.371C114.432 267.371 113.904 267.196 113.539 266.845C113.174 266.494 112.992 266.002 112.992 265.368C112.992 264.735 113.247 264.238 113.758 263.878C114.268 263.518 114.97 263.338 115.863 263.338H117.176V262.682C117.176 262.29 117.055 261.982 116.813 261.759C116.576 261.531 116.253 261.417 115.843 261.417C115.437 261.417 115.111 261.515 114.865 261.711C114.619 261.903 114.496 262.142 114.496 262.429H113.341L113.327 262.395C113.304 261.893 113.537 261.447 114.024 261.055C114.517 260.658 115.141 260.46 115.897 260.46C116.659 260.46 117.265 260.656 117.716 261.048C118.167 261.435 118.393 261.985 118.393 262.696V265.902C118.393 266.417 118.45 266.863 118.563 267.241H117.312C117.226 266.818 117.18 266.485 117.176 266.243C116.939 266.581 116.638 266.854 116.273 267.064C115.913 267.269 115.531 267.371 115.125 267.371ZM114.216 265.396H114.209C114.209 265.697 114.302 265.931 114.489 266.1C114.676 266.268 114.965 266.353 115.357 266.353C115.749 266.353 116.123 266.243 116.479 266.025C116.839 265.801 117.073 265.542 117.183 265.245V264.158H115.829C115.346 264.158 114.956 264.279 114.66 264.521C114.364 264.758 114.216 265.049 114.216 265.396ZM120.163 260.57H121.243L121.332 261.561C121.792 260.818 122.451 260.447 123.308 260.447C124.037 260.447 124.595 260.661 124.982 261.089C125.37 261.513 125.563 262.158 125.563 263.024V267.228H124.354V263.051C124.354 262.472 124.24 262.058 124.012 261.807C123.784 261.556 123.428 261.431 122.945 261.431C122.599 261.431 122.291 261.513 122.022 261.677C121.754 261.841 121.537 262.073 121.373 262.374V267.228H120.163V260.57ZM129.802 266.407C130.23 266.407 130.567 266.323 130.813 266.155C131.06 265.981 131.183 265.753 131.183 265.471C131.183 265.188 131.078 264.965 130.868 264.801C130.659 264.632 130.278 264.484 129.727 264.357C128.888 264.174 128.271 263.933 127.874 263.632C127.482 263.327 127.286 262.907 127.286 262.374C127.286 261.841 127.519 261.388 127.983 261.014C128.448 260.636 129.054 260.447 129.802 260.447C130.549 260.447 131.153 260.645 131.613 261.041C132.078 261.433 132.299 261.921 132.276 262.504L132.263 262.538H131.107C131.107 262.233 130.982 261.969 130.731 261.745C130.485 261.522 130.16 261.41 129.754 261.41C129.353 261.41 129.043 261.502 128.824 261.684C128.605 261.862 128.496 262.089 128.496 262.367C128.496 262.645 128.592 262.857 128.783 263.003C128.975 263.149 129.351 263.281 129.911 263.4C130.768 263.587 131.397 263.837 131.798 264.152C132.199 264.462 132.399 264.874 132.399 265.389C132.399 265.981 132.16 266.46 131.682 266.824C131.208 267.189 130.57 267.371 129.768 267.371C128.965 267.371 128.316 267.162 127.819 266.742C127.327 266.323 127.092 265.815 127.115 265.218L127.129 265.184H128.284C128.307 265.594 128.46 265.904 128.742 266.114C129.029 266.319 129.387 266.421 129.815 266.421L129.802 266.407Z" fill="#333333"/>
<defs>
<filter id="filter0_d" x="0" y="0.335205" width="494" height="314" filterUnits="userSpaceOnUse" color-interpolation-filters="sRGB">
<feFlood flood-opacity="0" result="BackgroundImageFix"/>
<feColorMatrix in="SourceAlpha" type="matrix" values="0 0 0 0 0 0 0 0 0 0 0 0 0 0 0 0 0 0 127 0"/>
<feOffset dx="1" dy="1"/>
<feGaussianBlur stdDeviation="3.5"/>
<feColorMatrix type="matrix" values="0 0 0 0 0.509804 0 0 0 0 0.509804 0 0 0 0 0.509804 0 0 0 0.15 0"/>
<feBlend mode="normal" in2="BackgroundImageFix" result="effect1_dropShadow"/>
<feBlend mode="normal" in="SourceGraphic" in2="effect1_dropShadow" result="shape"/>
</filter>
</defs>
</svg>
