<svg width="494" height="315" viewBox="0 0 494 315" fill="none" xmlns="http://www.w3.org/2000/svg">
<g filter="url(#filter0_d)">
<rect x="6.00021" y="6.55713" width="480" height="300" rx="8" fill="#FEFEFE"/>
</g>
<path d="M116.535 62.0993C116.535 65.2745 115.274 68.3197 113.029 70.565C110.784 72.8103 107.738 74.0716 104.563 74.0716C101.388 74.0716 98.3426 72.8103 96.0973 70.565C93.8521 68.3197 92.5907 65.2745 92.5907 62.0993C92.5907 58.924 93.8521 55.8788 96.0973 53.6335C98.3426 51.3883 101.388 50.1269 104.563 50.1269C105.7 50.1269 106.808 50.2915 107.855 50.5908L110.205 48.2412C108.469 47.5229 106.568 47.1338 104.563 47.1338C102.598 47.1338 100.652 47.5209 98.8361 48.273C97.0204 49.0251 95.3706 50.1274 93.9809 51.5171C91.1743 54.3236 89.5976 58.1302 89.5976 62.0993C89.5976 66.0683 91.1743 69.8749 93.9809 72.6814C95.3706 74.0711 97.0204 75.1735 98.8361 75.9255C100.652 76.6776 102.598 77.0647 104.563 77.0647C108.532 77.0647 112.339 75.488 115.145 72.6814C117.952 69.8749 119.529 66.0683 119.529 62.0993H116.535ZM98.4422 59.2259L96.3321 61.351L103.067 68.0854L118.032 53.12L115.922 50.9949L103.067 63.8502L98.4422 59.2259Z" fill="#4482F0"/>
<path d="M136.095 61.4579V62.8781H131.437V67.4146H129.66V56.7834H136.842V58.2036H131.437V61.4579H136.095ZM142.384 67.585C141.091 67.585 140.034 67.1819 139.211 66.3758C138.389 65.5642 137.978 64.5147 137.978 63.227V61.0034C137.978 59.7104 138.367 58.6608 139.146 57.8547C139.926 57.0485 140.935 56.6455 142.173 56.6455C143.418 56.6455 144.389 56.9484 145.087 57.5544C145.785 58.1549 146.142 58.9611 146.158 59.9728L146.142 60.0215H144.462C144.424 59.4155 144.213 58.9394 143.829 58.5932C143.45 58.2415 142.901 58.0657 142.182 58.0657C141.467 58.0657 140.883 58.3389 140.429 58.8853C139.98 59.4317 139.755 60.1324 139.755 60.9872V63.227C139.755 64.0927 139.999 64.7987 140.485 65.3451C140.978 65.8916 141.614 66.1648 142.393 66.1648C143.41 66.1648 144.11 65.9484 144.494 65.5156V63.3569H142.384V62.026H146.272L146.264 65.9944C145.939 66.4488 145.447 66.8275 144.787 67.1305C144.132 67.4335 143.331 67.585 142.384 67.585ZM151.855 58.2036H150.232V65.9944H151.855C152.726 65.9944 153.416 65.713 153.925 65.1504C154.433 64.5823 154.687 63.8357 154.687 62.9105V61.2793C154.687 60.3596 154.433 59.6184 153.925 59.0557C153.416 58.4877 152.726 58.2036 151.855 58.2036ZM151.904 67.4146H148.455V56.7834H151.904C153.256 56.7834 154.355 57.2027 155.199 58.0413C156.043 58.8799 156.465 59.9647 156.465 61.2956V62.9105C156.465 64.2414 156.043 65.3262 155.199 66.1648C154.355 66.998 153.256 67.4146 151.904 67.4146ZM160.068 58.2036V61.961H162.446C163.089 61.961 163.579 61.7906 163.915 61.4498C164.255 61.1089 164.426 60.6572 164.426 60.0945C164.426 59.5264 164.255 59.0693 163.915 58.723C163.574 58.3767 163.084 58.2036 162.446 58.2036H160.068ZM162.446 63.3812H160.068V67.4146H158.291V56.7834H162.446C163.614 56.7834 164.531 57.0837 165.197 57.6842C165.868 58.2794 166.203 59.0801 166.203 60.0864C166.203 61.0927 165.87 61.8934 165.205 62.4885C164.539 63.0837 163.62 63.3812 162.446 63.3812Z" fill="#4482F0"/>
<path d="M242.803 62.0993C242.803 65.2745 241.541 68.3197 239.296 70.565C237.051 72.8103 234.006 74.0716 230.83 74.0716C227.655 74.0716 224.61 72.8103 222.365 70.565C220.119 68.3197 218.858 65.2745 218.858 62.0993C218.858 58.924 220.119 55.8788 222.365 53.6335C224.61 51.3883 227.655 50.1269 230.83 50.1269C231.968 50.1269 233.075 50.2915 234.123 50.5908L236.472 48.2412C234.736 47.5229 232.836 47.1338 230.83 47.1338C228.865 47.1338 226.919 47.5209 225.103 48.273C223.288 49.0251 221.638 50.1274 220.248 51.5171C217.442 54.3236 215.865 58.1302 215.865 62.0993C215.865 66.0683 217.442 69.8749 220.248 72.6814C221.638 74.0711 223.288 75.1735 225.103 75.9255C226.919 76.6776 228.865 77.0647 230.83 77.0647C234.8 77.0647 238.606 75.488 241.413 72.6814C244.219 69.8749 245.796 66.0683 245.796 62.0993H242.803ZM224.71 59.2259L222.599 61.351L229.334 68.0854L244.299 53.12L242.189 50.9949L229.334 63.8502L224.71 59.2259Z" fill="#4F4F4F"/>
<path d="M259.969 67.585C258.675 67.585 257.618 67.1819 256.795 66.3758C255.973 65.5642 255.562 64.5147 255.562 63.227V61.0034C255.562 59.7104 255.951 58.6608 256.73 57.8547C257.51 57.0485 258.519 56.6455 259.758 56.6455C261.002 56.6455 261.973 56.9484 262.671 57.5544C263.369 58.1549 263.726 58.9611 263.742 59.9728L263.726 60.0215H262.046C262.008 59.4155 261.797 58.9394 261.413 58.5932C261.034 58.2415 260.485 58.0657 259.766 58.0657C259.051 58.0657 258.467 58.3389 258.013 58.8853C257.564 59.4317 257.339 60.1324 257.339 60.9872V63.227C257.339 64.0927 257.583 64.7987 258.07 65.3451C258.562 65.8916 259.198 66.1648 259.977 66.1648C260.994 66.1648 261.694 65.9484 262.079 65.5156V63.3569H259.969V62.026H263.856L263.848 65.9944C263.523 66.4488 263.031 66.8275 262.371 67.1305C261.716 67.4335 260.915 67.585 259.969 67.585ZM269.439 58.2036H267.816V65.9944H269.439C270.31 65.9944 271 65.713 271.509 65.1504C272.017 64.5823 272.271 63.8357 272.271 62.9105V61.2793C272.271 60.3596 272.017 59.6184 271.509 59.0557C271 58.4877 270.31 58.2036 269.439 58.2036ZM269.488 67.4146H266.039V56.7834H269.488C270.84 56.7834 271.939 57.2027 272.783 58.0413C273.627 58.8799 274.049 59.9647 274.049 61.2956V62.9105C274.049 64.2414 273.627 65.3262 272.783 66.1648C271.939 66.998 270.84 67.4146 269.488 67.4146ZM281.921 63.9006H283.633L283.649 63.9493C283.665 65.0422 283.314 65.9213 282.594 66.5868C281.875 67.2522 280.898 67.585 279.664 67.585C278.431 67.585 277.425 67.1711 276.646 66.3433C275.872 65.5101 275.485 64.4389 275.485 63.1296V61.1089C275.485 59.7996 275.869 58.7284 276.637 57.8952C277.406 57.0621 278.412 56.6455 279.656 56.6455C280.901 56.6455 281.883 56.9755 282.602 57.6355C283.322 58.2902 283.673 59.1775 283.657 60.2974L283.641 60.338H281.921C281.921 59.613 281.726 59.053 281.336 58.6581C280.947 58.2631 280.384 58.0657 279.648 58.0657C278.918 58.0657 278.336 58.3497 277.903 58.9178C277.476 59.4858 277.262 60.2108 277.262 61.0927V63.1296C277.262 64.0223 277.481 64.7527 277.92 65.3208C278.358 65.8835 278.945 66.1648 279.681 66.1648C280.417 66.1648 280.974 65.9727 281.352 65.5886C281.731 65.1991 281.921 64.6364 281.921 63.9006Z" fill="#4F4F4F"/>
<path d="M359.573 62.0993C359.573 65.2745 358.312 68.3197 356.066 70.565C353.821 72.8103 350.776 74.0716 347.601 74.0716C344.425 74.0716 341.38 72.8103 339.135 70.565C336.89 68.3197 335.628 65.2745 335.628 62.0993C335.628 58.924 336.89 55.8788 339.135 53.6335C341.38 51.3883 344.425 50.1269 347.601 50.1269C348.738 50.1269 349.845 50.2915 350.893 50.5908L353.243 48.2412C351.507 47.5229 349.606 47.1338 347.601 47.1338C345.635 47.1338 343.689 47.5209 341.874 48.273C340.058 49.0251 338.408 50.1274 337.018 51.5171C334.212 54.3236 332.635 58.1302 332.635 62.0993C332.635 66.0683 334.212 69.8749 337.018 72.6814C338.408 74.0711 340.058 75.1735 341.874 75.9255C343.689 76.6776 345.635 77.0647 347.601 77.0647C351.57 77.0647 355.376 75.488 358.183 72.6814C360.989 69.8749 362.566 66.0683 362.566 62.0993H359.573ZM341.48 59.2259L339.37 61.351L346.104 68.0854L361.07 53.12L358.959 50.9949L346.104 63.8502L341.48 59.2259Z" fill="#4F4F4F"/>
<path d="M380.999 56.7834V67.4146H379.238L374.515 59.6482L374.474 59.6644V67.4146H372.697V56.7834H374.474L379.189 64.5336L379.238 64.5255V56.7834H380.999ZM391.63 56.7834V67.4146H389.869V62.8781H385.105V67.4146H383.328V56.7834H385.105V61.4579H389.869V56.7834H391.63ZM397.652 66.181C398.306 66.181 398.815 66.0512 399.177 65.7915C399.545 65.5264 399.729 65.1666 399.729 64.7121C399.729 64.2577 399.562 63.8898 399.226 63.6084C398.896 63.3271 398.32 63.0755 397.498 62.8537C396.259 62.5237 395.331 62.1017 394.714 61.5877C394.097 61.0683 393.789 60.3921 393.789 59.5589C393.789 58.7203 394.143 58.0251 394.852 57.4732C395.561 56.9214 396.483 56.6455 397.619 56.6455C398.756 56.6455 399.681 56.9539 400.395 57.5706C401.114 58.1874 401.463 58.9475 401.442 59.851L401.425 59.8916H399.721C399.721 59.3344 399.535 58.8907 399.161 58.5607C398.788 58.2253 398.271 58.0575 397.611 58.0575C396.957 58.0575 396.451 58.1982 396.094 58.4795C395.742 58.7555 395.566 59.1098 395.566 59.5427C395.566 59.9701 395.753 60.3163 396.126 60.5814C396.499 60.8465 397.127 61.1008 398.009 61.3443C399.177 61.6581 400.051 62.0882 400.63 62.6346C401.214 63.1756 401.507 63.8735 401.507 64.7284C401.507 65.5832 401.155 66.273 400.452 66.7978C399.748 67.3226 398.815 67.585 397.652 67.585C397.095 67.585 396.562 67.5092 396.053 67.3577C395.55 67.2008 395.106 66.9844 394.722 66.7085C394.338 66.4326 394.035 66.0863 393.813 65.6697C393.591 65.2478 393.486 64.7879 393.497 64.2901L393.513 64.2496H395.225C395.225 64.8771 395.442 65.356 395.875 65.686C396.307 66.0106 396.897 66.1729 397.644 66.1729L397.652 66.181Z" fill="#4F4F4F"/>
<path d="M55.4799 134.033V127.559H56.6967V134.033C56.6967 134.83 56.4461 135.466 55.9448 135.94C55.4435 136.409 54.7667 136.644 53.9145 136.644C53.0669 136.644 52.3924 136.423 51.8911 135.981C51.3943 135.539 51.1551 134.908 51.1733 134.087L51.187 134.046H52.3491C52.3491 134.593 52.4881 135.006 52.7661 135.284C53.0441 135.557 53.4246 135.694 53.9077 135.694C54.3953 135.694 54.7781 135.543 55.0561 135.243C55.3387 134.942 55.4799 134.539 55.4799 134.033ZM60.894 136.644C60.1466 136.644 59.5747 136.409 59.1782 135.94C58.7817 135.466 58.5835 134.746 58.5835 133.78V129.856H59.7934V133.793C59.7934 134.491 59.8937 134.976 60.0942 135.25C60.2993 135.523 60.6297 135.66 61.0854 135.66C61.9194 135.66 62.4891 135.325 62.7944 134.655V129.856H64.0044V136.514H62.9174L62.8354 135.53C62.3979 136.273 61.7508 136.644 60.894 136.644ZM68.2495 135.68C68.6779 135.68 69.0151 135.596 69.2612 135.427C69.5073 135.254 69.6303 135.026 69.6303 134.744C69.6303 134.461 69.5255 134.238 69.3159 134.074C69.1063 133.905 68.7257 133.757 68.1743 133.629C67.3357 133.447 66.7182 133.206 66.3217 132.905C65.9298 132.599 65.7339 132.18 65.7339 131.647C65.7339 131.114 65.9663 130.66 66.4311 130.287C66.896 129.908 67.5021 129.719 68.2495 129.719C68.9969 129.719 69.6007 129.917 70.061 130.314C70.5258 130.706 70.7469 131.194 70.7241 131.777L70.7104 131.811H69.5551C69.5551 131.506 69.4298 131.241 69.1792 131.018C68.9331 130.795 68.6072 130.683 68.2016 130.683C67.8006 130.683 67.4907 130.774 67.2719 130.957C67.0532 131.134 66.9438 131.362 66.9438 131.64C66.9438 131.918 67.0395 132.13 67.2309 132.276C67.4223 132.422 67.7983 132.554 68.3589 132.672C69.2156 132.859 69.8445 133.11 70.2456 133.424C70.6466 133.734 70.8471 134.147 70.8471 134.662C70.8471 135.254 70.6079 135.733 70.1294 136.097C69.6554 136.462 69.0174 136.644 68.2153 136.644C67.4132 136.644 66.7638 136.434 66.2671 136.015C65.7749 135.596 65.5402 135.088 65.563 134.491L65.5766 134.457H66.7319C66.7547 134.867 66.9074 135.177 67.1899 135.386C67.477 135.591 67.8348 135.694 68.2632 135.694L68.2495 135.68ZM72.7475 128.25H73.9712V129.856H75.229V130.758H73.9712V134.798C73.9712 135.363 74.2059 135.646 74.6753 135.646C74.8211 135.646 74.9715 135.619 75.1264 135.564L75.2837 136.391C75.0649 136.56 74.7573 136.644 74.3608 136.644C73.8504 136.644 73.4539 136.491 73.1714 136.186C72.8888 135.881 72.7475 135.418 72.7475 134.798V130.758H71.6948V129.856H72.7475V128.25ZM78.0317 129.842V136.5H76.8217V129.842H78.0317ZM78.0317 126.903V128.14H76.8217V126.903H78.0317ZM81.6137 136.5H80.3969V130.745H79.351V129.842H80.3969V129.001C80.3969 128.291 80.5792 127.741 80.9438 127.354C81.313 126.967 81.8325 126.773 82.5024 126.773C82.7348 126.773 83.0356 126.816 83.4048 126.903L83.2544 127.826C83.0812 127.785 82.8829 127.764 82.6596 127.764C81.9624 127.764 81.6137 128.177 81.6137 129.001V129.842H82.9946V130.745H81.6137V136.5ZM85.5512 129.842V136.5H84.3413V129.842H85.5512ZM85.5512 126.903V128.14H84.3413V126.903H85.5512ZM88.354 133.315C88.354 134.03 88.4861 134.596 88.7505 135.01C89.0376 135.466 89.4956 135.694 90.1245 135.694C90.5346 135.694 90.8901 135.569 91.1909 135.318C91.4917 135.067 91.6421 134.764 91.6421 134.409H92.729L92.7426 134.45C92.7654 135.028 92.5125 135.539 91.9839 135.981C91.4552 136.423 90.8354 136.644 90.1245 136.644C89.1766 136.644 88.4406 136.336 87.9165 135.721C87.3924 135.106 87.1303 134.304 87.1303 133.315V133.055C87.1303 132.071 87.3924 131.271 87.9165 130.656C88.4451 130.041 89.1811 129.733 90.1245 129.733C90.8992 129.733 91.535 129.961 92.0317 130.417C92.5285 130.872 92.7677 131.44 92.7495 132.119L92.7358 132.153H91.6421C91.6421 131.743 91.4985 131.396 91.2114 131.114C90.9243 130.831 90.5665 130.69 90.1382 130.69C89.7143 130.69 89.3657 130.797 89.0923 131.011C88.8234 131.225 88.632 131.503 88.518 131.845C88.4087 132.187 88.354 132.59 88.354 133.055V133.315ZM95.9966 136.644C95.3038 136.644 94.7752 136.469 94.4106 136.118C94.046 135.767 93.8637 135.275 93.8637 134.641C93.8637 134.008 94.1189 133.511 94.6294 133.151C95.1398 132.791 95.8416 132.611 96.7348 132.611H98.0473V131.955C98.0473 131.563 97.9266 131.255 97.685 131.032C97.448 130.804 97.1245 130.69 96.7143 130.69C96.3087 130.69 95.9829 130.788 95.7368 130.984C95.4907 131.175 95.3676 131.415 95.3676 131.702H94.2124L94.1987 131.667C94.1759 131.166 94.4083 130.72 94.896 130.328C95.3882 129.931 96.0125 129.733 96.769 129.733C97.5301 129.733 98.1362 129.929 98.5874 130.321C99.0385 130.708 99.2641 131.257 99.2641 131.968V135.174C99.2641 135.689 99.3211 136.136 99.435 136.514H98.1841C98.0975 136.09 98.0519 135.758 98.0473 135.516C97.8104 135.853 97.5096 136.127 97.145 136.336C96.785 136.542 96.4022 136.644 95.9966 136.644ZM95.0874 134.668H95.0805C95.0805 134.969 95.174 135.204 95.3608 135.373C95.5477 135.541 95.837 135.625 96.229 135.625C96.6209 135.625 96.9946 135.516 97.3501 135.297C97.7101 135.074 97.9448 134.814 98.0542 134.518V133.431H96.7007C96.2176 133.431 95.8279 133.552 95.5317 133.793C95.2355 134.03 95.0874 134.322 95.0874 134.668ZM101.417 128.25H102.641V129.856H103.899V130.758H102.641V134.798C102.641 135.363 102.876 135.646 103.345 135.646C103.491 135.646 103.641 135.619 103.796 135.564L103.954 136.391C103.735 136.56 103.427 136.644 103.031 136.644C102.52 136.644 102.124 136.491 101.841 136.186C101.559 135.881 101.417 135.418 101.417 134.798V130.758H100.365V129.856H101.417V128.25ZM106.702 129.842V136.5H105.492V129.842H106.702ZM106.702 126.903V128.14H105.492V126.903H106.702ZM109.498 133.124V133.26C109.498 133.999 109.648 134.589 109.949 135.031C110.254 135.473 110.692 135.694 111.261 135.694C111.831 135.694 112.268 135.473 112.574 135.031C112.879 134.584 113.032 133.994 113.032 133.26V133.124C113.032 132.399 112.877 131.813 112.567 131.367C112.262 130.916 111.824 130.69 111.254 130.69C110.689 130.69 110.254 130.916 109.949 131.367C109.648 131.813 109.498 132.399 109.498 133.124ZM108.281 133.26V133.124C108.281 132.121 108.55 131.305 109.087 130.676C109.625 130.047 110.35 129.733 111.261 129.733C112.173 129.733 112.897 130.047 113.435 130.676C113.973 131.301 114.242 132.116 114.242 133.124V133.26C114.242 134.272 113.973 135.09 113.435 135.714C112.902 136.334 112.177 136.644 111.261 136.644C110.35 136.644 109.625 136.332 109.087 135.708C108.55 135.083 108.281 134.267 108.281 133.26ZM115.732 129.842H116.812L116.901 130.833C117.361 130.091 118.02 129.719 118.876 129.719C119.606 129.719 120.164 129.933 120.551 130.362C120.939 130.786 121.132 131.431 121.132 132.296V136.5H119.922V132.324C119.922 131.745 119.808 131.33 119.581 131.08C119.353 130.829 118.997 130.704 118.514 130.704C118.168 130.704 117.86 130.786 117.591 130.95C117.322 131.114 117.106 131.346 116.942 131.647V136.5H115.732V129.842ZM123.997 135.379V136.5H122.91V135.379H123.997ZM123.997 129.993V131.114H122.91V129.993H123.997Z" fill="#333333"/>
<rect x="136.295" y="120.028" width="71.1974" height="24.944" rx="12.472" fill="#4482F0"/>
<path d="M101.623 158.371V159.321H98.7446V167.326H97.5346V159.321H94.6635V158.371H101.623ZM103.195 170.313C103.022 170.313 102.782 170.281 102.477 170.217L102.6 169.26C102.901 169.283 103.081 169.294 103.14 169.294C103.377 169.294 103.575 169.194 103.735 168.994C103.899 168.793 104.047 168.524 104.179 168.187L104.466 167.49L101.992 160.968H103.345L104.76 165.159L104.972 165.993H105.013L106.647 160.968H107.994L105.198 168.645C104.774 169.757 104.106 170.313 103.195 170.313ZM114.734 164.407V164.537C114.734 165.507 114.501 166.284 114.037 166.868C113.576 167.446 112.943 167.736 112.136 167.736C111.33 167.736 110.707 167.462 110.27 166.916V170.169H109.06V160.955H109.99L110.181 161.816C110.623 161.16 111.261 160.832 112.095 160.832C112.934 160.832 113.583 161.155 114.043 161.802C114.504 162.445 114.734 163.313 114.734 164.407ZM113.517 164.537V164.407C113.517 163.623 113.364 162.996 113.059 162.527C112.758 162.053 112.325 161.816 111.76 161.816C111.09 161.816 110.594 162.11 110.27 162.698V165.917C110.589 166.501 111.09 166.792 111.774 166.792C112.334 166.792 112.765 166.587 113.066 166.177C113.367 165.767 113.517 165.22 113.517 164.537ZM120.305 163.19C120.305 162.689 120.175 162.285 119.915 161.98C119.656 161.67 119.282 161.515 118.794 161.515C118.393 161.515 118.047 161.684 117.755 162.021C117.468 162.358 117.29 162.789 117.222 163.313L117.236 163.347H120.305V163.19ZM118.979 167.469C118.054 167.469 117.316 167.164 116.764 166.553C116.217 165.943 115.944 165.138 115.944 164.14V163.867C115.944 162.932 116.222 162.149 116.778 161.515C117.338 160.877 118.011 160.558 118.794 160.558C119.679 160.558 120.353 160.825 120.818 161.358C121.287 161.887 121.522 162.613 121.522 163.539V164.297H117.202L117.181 164.325C117.195 164.981 117.359 165.512 117.673 165.917C117.992 166.319 118.428 166.519 118.979 166.519C119.754 166.519 120.383 166.3 120.866 165.863L121.344 166.649H121.337C120.781 167.196 119.995 167.469 118.979 167.469ZM123.997 166.205V167.326H122.91V166.205H123.997ZM123.997 160.818V161.939H122.91V160.818H123.997Z" fill="#333333"/>
<rect x="136.295" y="150.854" width="71.1974" height="24.944" rx="12.472" fill="#4482F0"/>
<rect x="214.165" y="243.276" width="71.1974" height="24.944" rx="12.472" fill="#4482F0"/>
<path d="M95.9419 193.694V196.968C95.7003 197.337 95.3084 197.65 94.7661 197.905C94.2238 198.16 93.563 198.288 92.7837 198.288C91.7036 198.288 90.8149 197.946 90.1176 197.262C89.4249 196.574 89.0786 195.688 89.0786 194.603V192.757C89.0786 191.664 89.4022 190.777 90.0493 190.098C90.701 189.415 91.5395 189.073 92.5649 189.073C93.5903 189.073 94.3992 189.321 94.9917 189.818C95.5887 190.315 95.8917 190.971 95.9008 191.787L95.8872 191.821H94.7319C94.6909 191.278 94.4858 190.846 94.1167 190.522C93.7521 190.194 93.2326 190.03 92.5581 190.03C91.8882 190.03 91.3436 190.285 90.9243 190.795C90.505 191.301 90.2954 191.953 90.2954 192.75V194.61C90.2954 195.407 90.5278 196.064 90.9926 196.579C91.4575 197.089 92.0545 197.344 92.7837 197.344C93.2622 197.344 93.6678 197.283 94.0005 197.16C94.3331 197.032 94.5747 196.873 94.7251 196.681V194.644H92.7632V193.694H95.9419ZM99.018 198.158H97.8081V191.5H98.8882L99.0044 192.47C99.41 191.736 99.9614 191.37 100.659 191.37C100.823 191.37 100.978 191.392 101.124 191.438L100.959 192.573L100.337 192.532C99.713 192.532 99.2732 192.821 99.018 193.4V198.158ZM104.022 198.294C103.329 198.294 102.801 198.119 102.436 197.768C102.071 197.417 101.889 196.925 101.889 196.292C101.889 195.658 102.144 195.161 102.655 194.801C103.165 194.441 103.867 194.261 104.76 194.261H106.073V193.605C106.073 193.213 105.952 192.905 105.71 192.682C105.473 192.454 105.15 192.34 104.74 192.34C104.334 192.34 104.008 192.438 103.762 192.634C103.516 192.826 103.393 193.065 103.393 193.352H102.238L102.224 193.318C102.201 192.817 102.434 192.37 102.921 191.978C103.414 191.582 104.038 191.383 104.794 191.383C105.555 191.383 106.162 191.579 106.613 191.971C107.064 192.359 107.29 192.908 107.29 193.619V196.825C107.29 197.34 107.346 197.786 107.46 198.165H106.209C106.123 197.741 106.077 197.408 106.073 197.167C105.836 197.504 105.535 197.777 105.17 197.987C104.81 198.192 104.428 198.294 104.022 198.294ZM103.113 196.319H103.106C103.106 196.62 103.199 196.854 103.386 197.023C103.573 197.192 103.862 197.276 104.254 197.276C104.646 197.276 105.02 197.167 105.375 196.948C105.735 196.724 105.97 196.465 106.08 196.168V195.082H104.726C104.243 195.082 103.853 195.202 103.557 195.444C103.261 195.681 103.113 195.972 103.113 196.319ZM108.773 194.958C108.773 193.869 109.003 193.001 109.463 192.354C109.924 191.707 110.553 191.383 111.35 191.383C112.148 191.383 112.761 191.666 113.189 192.231V188.567H114.406V198.165H113.415L113.271 197.344C112.829 197.978 112.2 198.294 111.384 198.294C110.568 198.294 109.93 198.005 109.47 197.426C109.01 196.843 108.78 196.064 108.78 195.088L108.773 194.958ZM109.997 194.958V195.088C109.997 195.786 110.136 196.33 110.414 196.722C110.696 197.114 111.12 197.31 111.685 197.31C112.369 197.31 112.874 196.998 113.203 196.374V193.27C112.865 192.668 112.364 192.368 111.699 192.368C111.129 192.368 110.703 192.6 110.42 193.065C110.138 193.525 109.997 194.156 109.997 194.958ZM120.305 194.015C120.305 193.514 120.175 193.111 119.915 192.805C119.656 192.495 119.282 192.34 118.794 192.34C118.393 192.34 118.047 192.509 117.755 192.846C117.468 193.183 117.29 193.614 117.222 194.138L117.236 194.172H120.305V194.015ZM118.979 198.294C118.054 198.294 117.316 197.989 116.764 197.378C116.217 196.768 115.944 195.963 115.944 194.965V194.692C115.944 193.758 116.222 192.974 116.778 192.34C117.338 191.702 118.011 191.383 118.794 191.383C119.679 191.383 120.353 191.65 120.818 192.183C121.287 192.712 121.522 193.439 121.522 194.364V195.123H117.202L117.181 195.15C117.195 195.806 117.359 196.337 117.673 196.743C117.992 197.144 118.428 197.344 118.979 197.344C119.754 197.344 120.383 197.125 120.866 196.688L121.344 197.474H121.337C120.781 198.021 119.995 198.294 118.979 198.294ZM123.997 197.03V198.151H122.91V197.03H123.997ZM123.997 191.643V192.764H122.91V191.643H123.997Z" fill="#333333"/>
<rect x="136.295" y="181.679" width="71.1974" height="24.944" rx="12.472" fill="#4482F0"/>
<path d="M75.6528 223.87V224.82H71.5444V228.026H76.2749V228.976H70.3344V220.021H76.2133V220.971H71.5444V223.87H75.6528ZM78.3393 222.318L79.7339 224.772L81.1489 222.318H82.5639L80.4038 225.613L82.6255 228.976H81.2378L79.7612 226.46L78.2846 228.976H76.8764L79.0981 225.613L76.938 222.318H78.3393ZM89.4956 226.057V226.187C89.4956 227.158 89.2632 227.935 88.7983 228.518C88.338 229.097 87.7046 229.386 86.8979 229.386C86.0913 229.386 85.4692 229.113 85.0317 228.566V231.82H83.8217V222.605H84.7514L84.9428 223.466C85.3849 222.81 86.0229 222.482 86.8569 222.482C87.6954 222.482 88.3449 222.806 88.8051 223.453C89.2654 224.095 89.4956 224.963 89.4956 226.057ZM88.2788 226.187V226.057C88.2788 225.273 88.1261 224.647 87.8208 224.177C87.52 223.703 87.087 223.466 86.5219 223.466C85.852 223.466 85.3553 223.76 85.0317 224.348V227.568C85.3507 228.151 85.852 228.443 86.5356 228.443C87.0962 228.443 87.5268 228.238 87.8276 227.828C88.1284 227.417 88.2788 226.871 88.2788 226.187ZM91.9155 225.599V225.736C91.9155 226.474 92.0659 227.064 92.3667 227.506C92.672 227.948 93.1095 228.169 93.6792 228.169C94.2488 228.169 94.6863 227.948 94.9917 227.506C95.297 227.06 95.4497 226.47 95.4497 225.736V225.599C95.4497 224.875 95.2947 224.289 94.9848 223.842C94.6795 223.391 94.242 223.166 93.6723 223.166C93.1072 223.166 92.672 223.391 92.3667 223.842C92.0659 224.289 91.9155 224.875 91.9155 225.599ZM90.6987 225.736V225.599C90.6987 224.597 90.9676 223.781 91.5053 223.152C92.0431 222.523 92.7677 222.208 93.6792 222.208C94.5906 222.208 95.3152 222.523 95.853 223.152C96.3908 223.776 96.6596 224.592 96.6596 225.599V225.736C96.6596 226.748 96.3908 227.566 95.853 228.19C95.3198 228.81 94.5952 229.12 93.6792 229.12C92.7677 229.12 92.0431 228.807 91.5053 228.183C90.9676 227.559 90.6987 226.743 90.6987 225.736ZM100.624 228.156C101.053 228.156 101.39 228.071 101.636 227.903C101.882 227.73 102.005 227.502 102.005 227.219C102.005 226.937 101.901 226.713 101.691 226.549C101.481 226.381 101.101 226.233 100.549 226.105C99.7107 225.923 99.0932 225.681 98.6967 225.38C98.3048 225.075 98.1089 224.656 98.1089 224.123C98.1089 223.589 98.3413 223.136 98.8061 222.762C99.271 222.384 99.8771 222.195 100.624 222.195C101.372 222.195 101.976 222.393 102.436 222.79C102.901 223.181 103.122 223.669 103.099 224.252L103.085 224.287H101.93C101.93 223.981 101.805 223.717 101.554 223.494C101.308 223.27 100.982 223.159 100.577 223.159C100.176 223.159 99.8657 223.25 99.6469 223.432C99.4282 223.61 99.3188 223.838 99.3188 224.116C99.3188 224.394 99.4145 224.606 99.6059 224.751C99.7973 224.897 100.173 225.029 100.734 225.148C101.591 225.335 102.22 225.585 102.621 225.9C103.022 226.21 103.222 226.622 103.222 227.137C103.222 227.73 102.983 228.208 102.504 228.573C102.03 228.937 101.392 229.12 100.59 229.12C99.7882 229.12 99.1388 228.91 98.6421 228.491C98.1499 228.071 97.9152 227.563 97.938 226.966L97.9516 226.932H99.1069C99.1297 227.342 99.2824 227.652 99.5649 227.862C99.852 228.067 100.21 228.169 100.638 228.169L100.624 228.156ZM107.023 229.12C106.276 229.12 105.704 228.885 105.307 228.416C104.911 227.942 104.712 227.222 104.712 226.255V222.332H105.922V226.269C105.922 226.966 106.023 227.452 106.223 227.725C106.428 227.999 106.759 228.135 107.214 228.135C108.048 228.135 108.618 227.8 108.923 227.13V222.332H110.133V228.99H109.046L108.964 228.005C108.527 228.748 107.88 229.12 107.023 229.12ZM113.114 228.983H111.904V222.325H112.984L113.1 223.295C113.506 222.562 114.057 222.195 114.754 222.195C114.918 222.195 115.073 222.218 115.219 222.263L115.055 223.398L114.433 223.357C113.809 223.357 113.369 223.646 113.114 224.225V228.983ZM120.305 224.84C120.305 224.339 120.175 223.936 119.915 223.63C119.656 223.32 119.282 223.166 118.794 223.166C118.393 223.166 118.047 223.334 117.755 223.671C117.468 224.009 117.29 224.439 117.222 224.963L117.236 224.998H120.305V224.84ZM118.979 229.12C118.054 229.12 117.316 228.814 116.764 228.204C116.217 227.593 115.944 226.789 115.944 225.791V225.517C115.944 224.583 116.222 223.799 116.778 223.166C117.338 222.528 118.011 222.208 118.794 222.208C119.679 222.208 120.353 222.475 120.818 223.008C121.287 223.537 121.522 224.264 121.522 225.189V225.948H117.202L117.181 225.975C117.195 226.631 117.359 227.162 117.673 227.568C117.992 227.969 118.428 228.169 118.979 228.169C119.754 228.169 120.383 227.951 120.866 227.513L121.344 228.299H121.337C120.781 228.846 119.995 229.12 118.979 229.12ZM123.997 227.855V228.976H122.91V227.855H123.997ZM123.997 222.468V223.589H122.91V222.468H123.997Z" fill="#333333"/>
<rect x="136.295" y="212.504" width="71.1974" height="24.944" rx="12.472" fill="#4482F0"/>
<path d="M79.4878 254.886V255.836H75.3999V259.801H74.1899V250.846H80.1167V251.796H75.3999V254.886H79.4878ZM82.6118 253.143V259.801H81.4018V253.143H82.6118ZM82.6118 250.204V251.441H81.4018V250.204H82.6118ZM84.478 253.143H85.5581L85.6469 254.134C86.1072 253.391 86.7658 253.02 87.6225 253.02C88.3517 253.02 88.91 253.234 89.2973 253.663C89.6847 254.086 89.8784 254.731 89.8784 255.597V259.801H88.6684V255.625C88.6684 255.046 88.5545 254.631 88.3266 254.38C88.0988 254.13 87.7433 254.004 87.2602 254.004C86.9139 254.004 86.6063 254.086 86.3374 254.25C86.0685 254.415 85.852 254.647 85.688 254.948V259.801H84.478V253.143ZM91.3549 256.609C91.3549 255.52 91.5851 254.652 92.0454 254.004C92.5057 253.357 93.1346 253.034 93.9321 253.034C94.7296 253.034 95.3426 253.316 95.771 253.881V250.217H96.9878V259.815H95.9966L95.853 258.995C95.4109 259.628 94.782 259.945 93.9663 259.945C93.1505 259.945 92.5125 259.655 92.0522 259.077C91.5919 258.493 91.3618 257.714 91.3618 256.739L91.3549 256.609ZM92.5786 256.609V256.739C92.5786 257.436 92.7176 257.981 92.9956 258.373C93.2781 258.764 93.702 258.96 94.2671 258.96C94.9507 258.96 95.4565 258.648 95.7846 258.024V254.92C95.4474 254.319 94.9461 254.018 94.2807 254.018C93.7111 254.018 93.285 254.25 93.0024 254.715C92.7199 255.176 92.5786 255.807 92.5786 256.609ZM100.112 253.143V259.801H98.9018V253.143H100.112ZM100.112 250.204V251.441H98.9018V250.204H100.112ZM101.978 253.143H103.058L103.147 254.134C103.607 253.391 104.266 253.02 105.123 253.02C105.852 253.02 106.41 253.234 106.797 253.663C107.185 254.086 107.378 254.731 107.378 255.597V259.801H106.168V255.625C106.168 255.046 106.054 254.631 105.827 254.38C105.599 254.13 105.243 254.004 104.76 254.004C104.414 254.004 104.106 254.086 103.837 254.25C103.568 254.415 103.352 254.647 103.188 254.948V259.801H101.978V253.143ZM108.875 257.026V256.896C108.875 255.807 109.11 254.939 109.58 254.292C110.049 253.644 110.696 253.321 111.521 253.321C112.35 253.321 112.986 253.651 113.428 254.312L113.579 253.444H114.542V260.136C114.542 260.993 114.294 261.649 113.797 262.105C113.305 262.561 112.59 262.789 111.651 262.789C111.327 262.789 110.981 262.743 110.612 262.652C110.243 262.565 109.917 262.447 109.634 262.296L109.942 261.353C110.161 261.476 110.423 261.576 110.728 261.654C111.038 261.731 111.341 261.77 111.637 261.77C112.225 261.77 112.653 261.638 112.922 261.374C113.196 261.109 113.332 260.697 113.332 260.136V259.384C112.89 259.949 112.271 260.232 111.473 260.232C110.68 260.232 110.049 259.94 109.58 259.357C109.11 258.769 108.875 257.992 108.875 257.026ZM110.085 256.896V257.026C110.085 257.714 110.229 258.256 110.516 258.653C110.808 259.049 111.236 259.248 111.801 259.248C112.494 259.248 113.007 258.929 113.339 258.291V255.228C112.993 254.613 112.485 254.305 111.815 254.305C111.25 254.305 110.819 254.54 110.523 255.009C110.231 255.474 110.085 256.103 110.085 256.896ZM118.781 258.981C119.209 258.981 119.546 258.897 119.792 258.728C120.039 258.555 120.162 258.327 120.162 258.044C120.162 257.762 120.057 257.539 119.847 257.375C119.638 257.206 119.257 257.058 118.706 256.93C117.867 256.748 117.249 256.506 116.853 256.206C116.461 255.9 116.265 255.481 116.265 254.948C116.265 254.415 116.498 253.961 116.962 253.587C117.427 253.209 118.033 253.02 118.781 253.02C119.528 253.02 120.132 253.218 120.592 253.615C121.057 254.007 121.278 254.494 121.255 255.078L121.242 255.112H120.086C120.086 254.806 119.961 254.542 119.71 254.319C119.464 254.096 119.138 253.984 118.733 253.984C118.332 253.984 118.022 254.075 117.803 254.257C117.584 254.435 117.475 254.663 117.475 254.941C117.475 255.219 117.571 255.431 117.762 255.577C117.954 255.722 118.33 255.855 118.89 255.973C119.747 256.16 120.376 256.411 120.777 256.725C121.178 257.035 121.378 257.447 121.378 257.962C121.378 258.555 121.139 259.033 120.661 259.398C120.187 259.763 119.549 259.945 118.747 259.945C117.944 259.945 117.295 259.735 116.798 259.316C116.306 258.897 116.071 258.389 116.094 257.792L116.108 257.757H117.263C117.286 258.167 117.439 258.477 117.721 258.687C118.008 258.892 118.366 258.995 118.794 258.995L118.781 258.981ZM123.997 258.68V259.801H122.91V258.68H123.997ZM123.997 253.293V254.415H122.91V253.293H123.997Z" fill="#333333"/>
<rect x="136.295" y="243.329" width="71.1974" height="24.944" rx="12.472" fill="#4482F0"/>
<rect x="320.131" y="127.913" width="121.67" height="132.476" rx="8" fill="#828282"/>
<path d="M392.047 197.524C391.79 197.524 391.531 197.493 391.273 197.43C390.155 197.15 389.266 196.293 388.952 195.187C386.73 187.338 383.223 181.189 380.965 181.189C378.707 181.189 375.199 187.338 372.977 195.187C372.664 196.293 371.775 197.15 370.656 197.43C369.537 197.7 368.355 197.362 367.566 196.536C363.537 192.323 363.765 184.392 363.806 183.503C363.803 181.331 364.277 178.523 365.216 175.263C365.567 174.036 365.333 172.716 364.568 171.643C364.401 171.408 364.241 171.174 364.088 170.939C361.848 167.519 360.664 163.436 360.664 159.13V157.155C360.664 149.832 368.297 147.899 372.335 147.899C376.296 147.899 379.223 149.796 380.965 151.36C382.706 149.797 385.634 147.899 389.595 147.899C393.633 147.899 401.266 149.832 401.266 157.156V159.132C401.266 163.438 400.081 167.521 397.842 170.941C397.69 171.173 397.531 171.408 397.364 171.642C396.599 172.718 396.364 174.038 396.716 175.262C397.652 178.522 398.126 181.328 398.126 183.602C398.162 184.393 398.392 192.322 394.364 196.535C393.755 197.175 392.912 197.524 392.047 197.524ZM372.335 152.411C372.049 152.413 365.176 152.506 365.176 157.157V159.133C365.176 162.559 366.105 165.787 367.862 168.469C367.986 168.658 368.112 168.846 368.245 169.033C369.806 171.23 370.282 173.957 369.549 176.508C368.741 179.325 368.313 181.777 368.313 183.602C368.252 185.105 368.408 188.574 369.479 191.215C371.41 185.405 375.258 176.68 380.965 176.68C386.668 176.68 390.516 185.398 392.446 191.206C393.522 188.538 393.676 185.03 393.617 183.7C393.615 181.776 393.188 179.324 392.378 176.506C391.645 173.953 392.121 171.228 393.684 169.029C393.815 168.844 393.942 168.659 394.064 168.472C395.825 165.785 396.755 162.557 396.755 159.131V157.155C396.755 152.524 389.936 152.411 389.593 152.409C385.4 152.411 382.842 155.916 382.817 155.953C381.973 157.164 379.957 157.164 379.113 155.953C379.019 155.821 376.533 152.411 372.335 152.411Z" fill="#FEFEFE"/>
<path d="M333.597 156.922C332.351 156.922 331.341 155.912 331.341 154.667V145.644C331.341 144.398 332.352 143.388 333.597 143.388H342.619C343.864 143.388 344.875 144.399 344.875 145.644C344.875 146.889 343.864 147.899 342.619 147.899H335.852V154.666C335.852 155.912 334.842 156.922 333.597 156.922Z" fill="#FEFEFE"/>
<path d="M428.334 202.036H419.312C418.067 202.036 417.056 201.025 417.056 199.78C417.056 198.535 418.067 197.525 419.312 197.525H426.079V190.757C426.079 189.512 427.09 188.502 428.334 188.502C429.579 188.502 430.59 189.513 430.59 190.757V199.78C430.59 201.025 429.58 202.036 428.334 202.036Z" fill="#FEFEFE"/>
<rect x="331.341" y="234.691" width="29.3226" height="4.4998" rx="2.2499" fill="#FEFEFE"/>
<rect x="331.341" y="245.375" width="29.3226" height="4.4998" rx="2.2499" fill="#FEFEFE"/>
<rect x="375.37" y="234.491" width="55.2204" height="15.3836" fill="#FEFEFE"/>
<defs>
<filter id="filter0_d" x="0.000213623" y="0.557129" width="494" height="314" filterUnits="userSpaceOnUse" color-interpolation-filters="sRGB">
<feFlood flood-opacity="0" result="BackgroundImageFix"/>
<feColorMatrix in="SourceAlpha" type="matrix" values="0 0 0 0 0 0 0 0 0 0 0 0 0 0 0 0 0 0 127 0"/>
<feOffset dx="1" dy="1"/>
<feGaussianBlur stdDeviation="3.5"/>
<feColorMatrix type="matrix" values="0 0 0 0 0.509804 0 0 0 0 0.509804 0 0 0 0 0.509804 0 0 0 0.26 0"/>
<feBlend mode="normal" in2="BackgroundImageFix" result="effect1_dropShadow"/>
<feBlend mode="normal" in="SourceGraphic" in2="effect1_dropShadow" result="shape"/>
</filter>
</defs>
</svg>
