<svg width="494" height="315" viewBox="0 0 494 315" fill="none" xmlns="http://www.w3.org/2000/svg">
<g filter="url(#filter0_d)">
<rect x="6.00012" y="6.55713" width="480" height="300" rx="8" fill="#FEFEFE"/>
</g>
<path d="M6.00037 14.5571C6.00037 10.1388 9.58209 6.55713 14.0004 6.55713H168.481V306.557H14.0004C9.5821 306.557 6.00037 302.975 6.00037 298.557V14.5571Z" fill="#FAFAFA"/>
<path d="M331.199 238.792C331.394 238.987 331.711 238.987 331.906 238.792L335.088 235.61C335.283 235.415 335.283 235.098 335.088 234.903C334.893 234.707 334.576 234.707 334.381 234.903L331.553 237.731L328.724 234.903C328.529 234.707 328.212 234.707 328.017 234.903C327.822 235.098 327.822 235.415 328.017 235.61L331.199 238.792ZM248.766 189.335V197.443H249.766V189.335H248.766ZM269.266 217.943H311.553V216.943H269.266V217.943ZM331.053 237.443V238.438H332.053V237.443H331.053ZM311.553 217.943C322.322 217.943 331.053 226.673 331.053 237.443H332.053C332.053 226.121 322.874 216.943 311.553 216.943V217.943ZM248.766 197.443C248.766 208.764 257.944 217.943 269.266 217.943V216.943C258.496 216.943 249.766 208.212 249.766 197.443H248.766Z" fill="#4482F0"/>
<path d="M336.075 129.028V129.028C336.075 136.426 330.078 142.423 322.68 142.423H249.008" stroke="#4482F0"/>
<path d="M334.44 94.6616C334.635 94.8568 334.952 94.8568 335.147 94.6616L338.329 91.4796C338.524 91.2843 338.524 90.9677 338.329 90.7725C338.134 90.5772 337.817 90.5772 337.622 90.7725L334.794 93.6009L331.965 90.7725C331.77 90.5772 331.453 90.5772 331.258 90.7725C331.063 90.9677 331.063 91.2843 331.258 91.4796L334.44 94.6616ZM248.836 77.5649H326.172V76.5649H248.836V77.5649ZM334.294 85.6865V94.308H335.294V85.6865H334.294ZM326.172 77.5649C330.657 77.5649 334.294 81.2011 334.294 85.6865H335.294C335.294 80.6488 331.21 76.5649 326.172 76.5649V77.5649Z" fill="#4482F0"/>
<rect x="296.727" y="247.506" width="71.1974" height="24.944" rx="12.472" fill="#4482F0"/>
<path d="M357.047 274.399L360.021 283.993C361.117 287.528 361.386 297.22 361.416 298.323C361.425 298.943 361.07 299.434 360.533 299.551L344.886 302.943C344.41 303.046 343.872 302.822 343.514 302.382C343.489 302.343 340.734 298.916 339.787 297.878C338.686 296.682 337.244 295.263 335.722 293.758C333.637 291.695 331.262 289.369 328.969 286.848C327.192 284.896 326.633 282.842 327.416 281.207C327.859 280.283 328.641 279.654 329.617 279.443C329.629 279.44 329.629 279.44 329.642 279.437C330.618 279.226 331.683 279.468 332.624 280.108C332.652 280.116 332.673 280.141 332.706 280.164L336.404 283.017L331.264 266.435C330.55 264.134 331.613 261.891 333.627 261.454C335.641 261.018 337.873 262.546 338.587 264.848L340.013 269.45C340.332 269.219 340.714 269.062 341.129 268.972C342.532 268.668 344.048 269.316 345.075 270.528C345.47 270.161 345.972 269.89 346.545 269.766C348.083 269.432 349.753 270.239 350.771 271.675C351.142 271.358 351.596 271.142 352.108 271.03C354.101 270.569 356.333 272.097 357.047 274.399ZM357.543 284.53L354.569 274.936C354.333 274.173 353.607 273.68 352.96 273.82C352.313 273.96 351.965 274.686 352.202 275.449L353.47 279.539C353.71 280.315 353.359 281.072 352.675 281.22C351.992 281.369 351.249 280.864 351.004 280.073L349.023 273.682C348.786 272.919 348.06 272.426 347.414 272.566C346.767 272.706 346.419 273.433 346.655 274.195L348.069 278.757C348.31 279.533 347.954 280.276 347.271 280.424C346.587 280.572 345.845 280.068 345.604 279.291L343.623 272.9C343.386 272.137 342.66 271.644 342.013 271.784C341.354 271.927 341.018 272.65 341.255 273.413L342.669 277.974C342.91 278.751 342.558 279.508 341.875 279.656C341.191 279.804 340.444 279.285 340.203 278.509L336.133 265.379C335.897 264.617 335.183 264.121 334.524 264.263C333.865 264.406 333.529 265.13 333.766 265.893L340.071 286.232C340.251 286.814 340.097 287.409 339.673 287.723C339.262 288.034 338.665 288.001 338.186 287.631L331.489 282.455C331.196 282.267 330.86 282.192 330.543 282.26C330.225 282.329 329.976 282.531 329.833 282.828C329.525 283.472 330.151 284.358 330.741 284.999C332.971 287.445 335.301 289.751 337.361 291.776C338.915 293.303 340.383 294.76 341.542 296.018C342.301 296.83 343.954 298.884 344.852 299.976L358.815 296.949C358.643 293.539 358.274 286.887 357.543 284.53Z" fill="#4482F0"/>
<path d="M354.553 274.944L357.521 284.526C358.247 286.866 358.614 293.51 358.732 296.912L344.791 299.935C343.901 298.827 342.244 296.793 341.485 295.982C340.328 294.726 338.867 293.284 337.311 291.745C335.254 289.723 332.932 287.434 330.701 284.977C330.124 284.334 329.495 283.436 329.795 282.809C329.937 282.512 330.187 282.31 330.504 282.242C330.821 282.173 331.156 282.248 331.448 282.436L338.135 287.606C338.614 287.975 339.209 288.009 339.62 287.698C340.044 287.384 340.197 286.79 340.017 286.208L333.732 265.923C333.496 265.161 333.831 264.439 334.489 264.296C335.147 264.153 335.86 264.649 336.096 265.41L340.159 278.523C340.399 279.298 341.145 279.816 341.827 279.669C342.51 279.521 342.861 278.765 342.621 277.989L341.209 273.434C340.973 272.672 341.321 271.947 341.966 271.807C342.612 271.667 343.337 272.16 343.573 272.921L345.551 279.304C345.791 280.08 346.533 280.584 347.215 280.436C347.898 280.288 348.253 279.546 348.013 278.771L346.601 274.215C346.365 273.454 346.713 272.728 347.359 272.588C348.017 272.446 348.73 272.941 348.966 273.703L350.944 280.086C351.184 280.861 351.93 281.379 352.612 281.231C353.294 281.083 353.65 280.341 353.405 279.552L352.14 275.468C351.904 274.706 352.251 273.981 352.897 273.84C353.592 273.69 354.321 274.197 354.553 274.944Z" fill="white"/>
<path d="M332.415 257.434L331.582 254.323" stroke="#FEFEFE" stroke-width="2" stroke-miterlimit="10" stroke-linecap="round"/>
<path d="M328.291 261.363L325.495 259.644" stroke="#FEFEFE" stroke-width="2" stroke-miterlimit="10" stroke-linecap="round"/>
<path d="M337.949 258.729L339.516 255.933" stroke="#FEFEFE" stroke-width="2" stroke-miterlimit="10" stroke-linecap="round"/>
<path d="M248.28 94.6613C248.475 94.8566 248.791 94.8566 248.987 94.6613L252.169 91.4793C252.364 91.2841 252.364 90.9675 252.169 90.7722C251.973 90.577 251.657 90.577 251.462 90.7722L248.633 93.6006L245.805 90.7722C245.609 90.577 245.293 90.577 245.098 90.7722C244.902 90.9675 244.902 91.2841 245.098 91.4793L248.28 94.6613ZM248.133 69.3779L248.133 94.3078L249.133 94.3078L249.133 69.3779L248.133 69.3779Z" fill="#4482F0"/>
<path d="M248.28 155.821C248.475 156.016 248.791 156.016 248.987 155.821L252.169 152.639C252.364 152.444 252.364 152.127 252.169 151.932C251.973 151.737 251.657 151.737 251.462 151.932L248.633 154.76L245.805 151.932C245.609 151.737 245.293 151.737 245.098 151.932C244.902 152.127 244.902 152.444 245.098 152.639L248.28 155.821ZM248.133 130.538L248.133 155.467L249.133 155.467L249.133 130.538L248.133 130.538Z" fill="#4482F0"/>
<rect x="213.032" y="40.6646" width="71.1974" height="24.944" rx="12.472" fill="#4482F0"/>
<rect x="297.227" y="41.1646" width="70.1974" height="23.944" rx="11.972" fill="#FEFEFE" stroke="#BDBDBD"/>
<rect x="380.922" y="41.1646" width="70.1974" height="23.944" rx="11.972" fill="#FEFEFE" stroke="#BDBDBD"/>
<rect x="213.032" y="100.575" width="71.1974" height="24.944" rx="12.472" fill="#4482F0"/>
<rect x="296.727" y="100.575" width="71.1974" height="24.944" rx="12.472" fill="#4482F0"/>
<rect x="380.922" y="101.075" width="70.1974" height="23.944" rx="11.972" fill="#FEFEFE" stroke="#BDBDBD"/>
<rect x="213.032" y="160.486" width="71.1974" height="24.944" rx="12.472" fill="#4482F0"/>
<rect x="297.227" y="160.986" width="70.1974" height="23.944" rx="11.972" fill="#FEFEFE" stroke="#BDBDBD"/>
<rect x="380.922" y="160.986" width="70.1974" height="23.944" rx="11.972" fill="#FEFEFE" stroke="#BDBDBD"/>
<path d="M43.8402 45.6597H42.3021V52.7144H43.8402C44.6651 52.7144 45.3168 52.4478 45.7953 51.9146C46.2784 51.3768 46.5199 50.6727 46.5199 49.8022V48.5649C46.5199 47.6991 46.2784 46.9995 45.7953 46.4663C45.3122 45.9285 44.6605 45.6597 43.8402 45.6597ZM43.8402 53.6646H41.0922V44.7095H43.8402C45.016 44.7095 45.9571 45.0672 46.6635 45.7827C47.3744 46.4937 47.7299 47.4256 47.7299 48.5786V49.8022C47.7299 50.9552 47.3744 51.8872 46.6635 52.5981C45.9571 53.3091 45.016 53.6646 43.8402 53.6646ZM53.2465 49.5288C53.2465 49.0275 53.1166 48.6242 52.8568 48.3188C52.597 48.009 52.2233 47.854 51.7357 47.854C51.3347 47.854 50.9883 48.0226 50.6967 48.3599C50.4095 48.6971 50.2318 49.1278 50.1635 49.6519L50.1771 49.686H53.2465V49.5288ZM51.9203 53.8081C50.9952 53.8081 50.2569 53.5028 49.7054 52.8921C49.1586 52.2814 48.8851 51.4771 48.8851 50.479V50.2056C48.8851 49.2713 49.1631 48.4875 49.7191 47.854C50.2797 47.216 50.9519 46.897 51.7357 46.897C52.6198 46.897 53.2943 47.1636 53.7592 47.6968C54.2286 48.2254 54.4633 48.9523 54.4633 49.8774V50.6362H50.1429L50.1224 50.6636C50.1361 51.3198 50.3002 51.8507 50.6146 52.2563C50.9336 52.6574 51.3689 52.8579 51.9203 52.8579C52.695 52.8579 53.3239 52.6392 53.807 52.2017L54.2855 52.9878H54.2787C53.7227 53.5347 52.9366 53.8081 51.9203 53.8081ZM55.8373 47.0063H56.9174L57.0062 47.9976C57.4665 47.2547 58.125 46.8833 58.9818 46.8833C59.711 46.8833 60.2692 47.0975 60.6566 47.5259C61.044 47.9497 61.2377 48.5946 61.2377 49.4604V53.6646H60.0277V49.4878C60.0277 48.909 59.9138 48.4943 59.6859 48.2437C59.458 47.993 59.1026 47.8677 58.6195 47.8677C58.2732 47.8677 57.9655 47.9497 57.6967 48.1138C57.4278 48.2778 57.2113 48.5103 57.0472 48.811V53.6646H55.8373V47.0063ZM63.3842 45.4136H64.6078V47.02H65.8656V47.9224H64.6078V51.9624C64.6078 52.5275 64.8425 52.8101 65.3119 52.8101C65.4577 52.8101 65.6081 52.7827 65.7631 52.728L65.9203 53.5552C65.7015 53.7238 65.3939 53.8081 64.9974 53.8081C64.487 53.8081 64.0905 53.6554 63.808 53.3501C63.5254 53.0448 63.3842 52.5822 63.3842 51.9624V47.9224H62.3314V47.02H63.3842V45.4136ZM69.2562 53.8081C68.5635 53.8081 68.0349 53.6326 67.6703 53.2817C67.3057 52.9308 67.1234 52.4386 67.1234 51.8052C67.1234 51.1717 67.3786 50.675 67.889 50.3149C68.3995 49.9549 69.1013 49.7749 69.9945 49.7749H71.307V49.1187C71.307 48.7267 71.1862 48.4191 70.9447 48.1958C70.7077 47.9679 70.3842 47.854 69.974 47.854C69.5684 47.854 69.2426 47.952 68.9965 48.1479C68.7504 48.3394 68.6273 48.5786 68.6273 48.8657H67.472L67.4584 48.8315C67.4356 48.3302 67.668 47.8836 68.1556 47.4917C68.6478 47.0952 69.2722 46.897 70.0287 46.897C70.7898 46.897 71.3959 47.0929 71.847 47.4849C72.2982 47.8722 72.5238 48.4214 72.5238 49.1323V52.3384C72.5238 52.8534 72.5808 53.3 72.6947 53.6782H71.4437C71.3571 53.2544 71.3116 52.9217 71.307 52.6802C71.07 53.0174 70.7692 53.2909 70.4047 53.5005C70.0446 53.7056 69.6618 53.8081 69.2562 53.8081ZM68.347 51.8325H68.3402C68.3402 52.1333 68.4336 52.368 68.6205 52.5366C68.8073 52.7052 69.0967 52.7896 69.4886 52.7896C69.8806 52.7896 70.2543 52.6802 70.6097 52.4614C70.9698 52.2381 71.2045 51.9784 71.3138 51.6821V50.5952H69.9603C69.4773 50.5952 69.0876 50.716 68.7914 50.9575C68.4952 51.1945 68.347 51.4862 68.347 51.8325ZM75.6 44.0669V53.6646H74.39V44.0669H75.6ZM81.0209 47.0063H82.101L82.1898 47.9976C82.6501 47.2547 83.3086 46.8833 84.1654 46.8833C84.8946 46.8833 85.4528 47.0975 85.8402 47.5259C86.2276 47.9497 86.4213 48.5946 86.4213 49.4604V53.6646H85.2113V49.4878C85.2113 48.909 85.0974 48.4943 84.8695 48.2437C84.6416 47.993 84.2862 47.8677 83.8031 47.8677C83.4567 47.8677 83.1491 47.9497 82.8802 48.1138C82.6114 48.2778 82.3949 48.5103 82.2308 48.811V53.6646H81.0209V47.0063ZM89.1146 50.2876V50.4243C89.1146 51.1626 89.265 51.7528 89.5658 52.1948C89.8711 52.6369 90.3086 52.8579 90.8783 52.8579C91.448 52.8579 91.8855 52.6369 92.1908 52.1948C92.4961 51.7482 92.6488 51.158 92.6488 50.4243V50.2876C92.6488 49.563 92.4939 48.9774 92.184 48.5308C91.8786 48.0796 91.4411 47.854 90.8715 47.854C90.3064 47.854 89.8711 48.0796 89.5658 48.5308C89.265 48.9774 89.1146 49.563 89.1146 50.2876ZM87.8978 50.4243V50.2876C87.8978 49.285 88.1667 48.4692 88.7045 47.8403C89.2422 47.2114 89.9668 46.897 90.8783 46.897C91.7898 46.897 92.5144 47.2114 93.0521 47.8403C93.5899 48.4647 93.8588 49.2804 93.8588 50.2876V50.4243C93.8588 51.436 93.5899 52.2541 93.0521 52.8784C92.5189 53.4982 91.7943 53.8081 90.8783 53.8081C89.9668 53.8081 89.2422 53.4959 88.7045 52.8716C88.1667 52.2472 87.8978 51.4315 87.8978 50.4243ZM95.7318 45.4136H96.9554V47.02H98.2133V47.9224H96.9554V51.9624C96.9554 52.5275 97.1901 52.8101 97.6595 52.8101C97.8054 52.8101 97.9558 52.7827 98.1107 52.728L98.2679 53.5552C98.0492 53.7238 97.7416 53.8081 97.3451 53.8081C96.8347 53.8081 96.4382 53.6554 96.1556 53.3501C95.8731 53.0448 95.7318 52.5822 95.7318 51.9624V47.9224H94.6791V47.02H95.7318V45.4136ZM103.791 49.5288C103.791 49.0275 103.661 48.6242 103.402 48.3188C103.142 48.009 102.768 47.854 102.281 47.854C101.88 47.854 101.533 48.0226 101.242 48.3599C100.954 48.6971 100.777 49.1278 100.708 49.6519L100.722 49.686H103.791V49.5288ZM102.465 53.8081C101.54 53.8081 100.802 53.5028 100.25 52.8921C99.7035 52.2814 99.4301 51.4771 99.4301 50.479V50.2056C99.4301 49.2713 99.708 48.4875 100.264 47.854C100.825 47.216 101.497 46.897 102.281 46.897C103.165 46.897 103.839 47.1636 104.304 47.6968C104.773 48.2254 105.008 48.9523 105.008 49.8774V50.6362H100.688L100.667 50.6636C100.681 51.3198 100.845 51.8507 101.16 52.2563C101.479 52.6574 101.914 52.8579 102.465 52.8579C103.24 52.8579 103.869 52.6392 104.352 52.2017L104.83 52.9878H104.824C104.268 53.5347 103.481 53.8081 102.465 53.8081ZM108.857 52.8442C109.285 52.8442 109.622 52.7599 109.869 52.5913C110.115 52.4181 110.238 52.1903 110.238 51.9077C110.238 51.6252 110.133 51.4019 109.923 51.2378C109.714 51.0692 109.333 50.9211 108.782 50.7935C107.943 50.6112 107.326 50.3696 106.929 50.0688C106.537 49.7635 106.341 49.3442 106.341 48.811C106.341 48.2778 106.574 47.8244 107.038 47.4507C107.503 47.0724 108.109 46.8833 108.857 46.8833C109.604 46.8833 110.208 47.0815 110.668 47.478C111.133 47.87 111.354 48.3576 111.331 48.9409L111.318 48.9751H110.162C110.162 48.6698 110.037 48.4054 109.786 48.1821C109.54 47.9588 109.215 47.8472 108.809 47.8472C108.408 47.8472 108.098 47.9383 107.879 48.1206C107.661 48.2983 107.551 48.5262 107.551 48.8042C107.551 49.0822 107.647 49.2941 107.838 49.4399C108.03 49.5858 108.406 49.7179 108.966 49.8364C109.823 50.0233 110.452 50.2739 110.853 50.5884C111.254 50.8983 111.454 51.3107 111.454 51.8257C111.454 52.4181 111.215 52.8966 110.737 53.2612C110.263 53.6258 109.625 53.8081 108.823 53.8081C108.021 53.8081 107.371 53.5985 106.874 53.1792C106.382 52.7599 106.148 52.2518 106.17 51.6548L106.184 51.6206H107.339C107.362 52.0308 107.515 52.3407 107.797 52.5503C108.084 52.7554 108.442 52.8579 108.87 52.8579L108.857 52.8442Z" fill="#4482F0"/>
<path d="M44.558 92.5386H42.3021V96.4214H41.0922V87.4663H44.3324C45.3168 87.4663 46.0664 87.6828 46.5814 88.1157C47.0964 88.5487 47.3539 89.1821 47.3539 90.0161C47.3539 90.9458 46.8845 91.6157 45.9457 92.0259C46.8708 92.3267 47.3334 93.0308 47.3334 94.1382V94.979C47.3334 95.5897 47.4701 96.0203 47.7435 96.271V96.4214H46.4926C46.2419 96.1981 46.1166 95.715 46.1166 94.9722V94.1519C46.1166 93.6642 45.9753 93.2746 45.6927 92.9829C45.4102 92.6867 45.0319 92.5386 44.558 92.5386ZM42.3021 88.4165V91.5884H44.2094C44.8929 91.5884 45.3851 91.4608 45.6859 91.2056C45.9913 90.9458 46.1439 90.5448 46.1439 90.0024C46.1439 88.9451 45.5401 88.4165 44.3324 88.4165H42.3021ZM53.3011 92.2856C53.3011 91.7843 53.1713 91.381 52.9115 91.0757C52.6517 90.7658 52.278 90.6108 51.7904 90.6108C51.3894 90.6108 51.043 90.7795 50.7513 91.1167C50.4642 91.4539 50.2865 91.8846 50.2181 92.4087L50.2318 92.4429H53.3011V92.2856ZM51.975 96.5649C51.0498 96.5649 50.3116 96.2596 49.7601 95.6489C49.2133 95.0382 48.9398 94.2339 48.9398 93.2358V92.9624C48.9398 92.0282 49.2178 91.2443 49.7738 90.6108C50.3344 89.9728 51.0066 89.6538 51.7904 89.6538C52.6745 89.6538 53.349 89.9204 53.8138 90.4536C54.2832 90.9823 54.5179 91.7091 54.5179 92.6343V93.3931H50.1976L50.1771 93.4204C50.1908 94.0767 50.3549 94.6076 50.6693 95.0132C50.9883 95.4142 51.4235 95.6147 51.975 95.6147C52.7497 95.6147 53.3786 95.396 53.8617 94.9585L54.3402 95.7446H54.3334C53.7774 96.2915 52.9913 96.5649 51.975 96.5649ZM57.6078 96.4214H56.391V90.6655H55.3451V89.7632H56.391V88.9224C56.391 88.2114 56.5733 87.6623 56.9379 87.2749C57.307 86.8875 57.8265 86.6938 58.4965 86.6938C58.7289 86.6938 59.0297 86.7371 59.3988 86.8237L59.2484 87.7466C59.0752 87.7056 58.877 87.6851 58.6537 87.6851C57.9564 87.6851 57.6078 88.0975 57.6078 88.9224V89.7632H58.9886V90.6655H57.6078V96.4214ZM64.1703 92.2856C64.1703 91.7843 64.0404 91.381 63.7806 91.0757C63.5209 90.7658 63.1472 90.6108 62.6595 90.6108C62.2585 90.6108 61.9122 90.7795 61.6205 91.1167C61.3334 91.4539 61.1556 91.8846 61.0873 92.4087L61.101 92.4429H64.1703V92.2856ZM62.8441 96.5649C61.919 96.5649 61.1807 96.2596 60.6293 95.6489C60.0824 95.0382 59.809 94.2339 59.809 93.2358V92.9624C59.809 92.0282 60.087 91.2443 60.6429 90.6108C61.2035 89.9728 61.8757 89.6538 62.6595 89.6538C63.5437 89.6538 64.2181 89.9204 64.683 90.4536C65.1524 90.9823 65.3871 91.7091 65.3871 92.6343V93.3931H61.0668L61.0463 93.4204C61.0599 94.0767 61.224 94.6076 61.5385 95.0132C61.8575 95.4142 62.2927 95.6147 62.8441 95.6147C63.6189 95.6147 64.2478 95.396 64.7308 94.9585L65.2094 95.7446H65.2025C64.6465 96.2915 63.8604 96.5649 62.8441 96.5649ZM67.9711 96.4282H66.7611V89.77H67.8412L67.9574 90.7407C68.363 90.007 68.9144 89.6401 69.6117 89.6401C69.7758 89.6401 69.9307 89.6629 70.0765 89.7085L69.9125 90.8433L69.2904 90.8022C68.6661 90.8022 68.2263 91.0916 67.9711 91.6704V96.4282ZM72.2914 96.4282H71.0814V89.77H72.1615L72.2777 90.7407C72.6833 90.007 73.2347 89.6401 73.932 89.6401C74.0961 89.6401 74.251 89.6629 74.3969 89.7085L74.2328 90.8433L73.6107 90.8022C72.9864 90.8022 72.5466 91.0916 72.2914 91.6704V96.4282ZM77.2953 96.5649C76.6026 96.5649 76.0739 96.3895 75.7094 96.0386C75.3448 95.6877 75.1625 95.1955 75.1625 94.562C75.1625 93.9285 75.4177 93.4318 75.9281 93.0718C76.4385 92.7118 77.1403 92.5317 78.0336 92.5317H79.3461V91.8755C79.3461 91.4836 79.2253 91.1759 78.9838 90.9526C78.7468 90.7248 78.4232 90.6108 78.0131 90.6108C77.6075 90.6108 77.2816 90.7088 77.0355 90.9048C76.7894 91.0962 76.6664 91.3354 76.6664 91.6226H75.5111L75.4974 91.5884C75.4747 91.0871 75.7071 90.6405 76.1947 90.2485C76.6869 89.8521 77.3112 89.6538 78.0677 89.6538C78.8288 89.6538 79.4349 89.8498 79.8861 90.2417C80.3373 90.6291 80.5629 91.1782 80.5629 91.8892V95.0952C80.5629 95.6102 80.6198 96.0568 80.7338 96.4351H79.4828C79.3962 96.0112 79.3506 95.6785 79.3461 95.437C79.1091 95.7743 78.8083 96.0477 78.4437 96.2573C78.0837 96.4624 77.7009 96.5649 77.2953 96.5649ZM76.3861 94.5894H76.3793C76.3793 94.8901 76.4727 95.1248 76.6595 95.2935C76.8464 95.4621 77.1358 95.5464 77.5277 95.5464C77.9196 95.5464 78.2933 95.437 78.6488 95.2183C79.0088 94.995 79.2435 94.7352 79.3529 94.439V93.3521H77.9994C77.5163 93.3521 77.1267 93.4728 76.8304 93.7144C76.5342 93.9513 76.3861 94.243 76.3861 94.5894ZM83.639 86.8237V96.4214H82.4291V86.8237H83.639ZM87.9799 95.6011C88.4082 95.6011 88.7455 95.5168 88.9916 95.3481C89.2377 95.175 89.3607 94.9471 89.3607 94.6646C89.3607 94.382 89.2559 94.1587 89.0463 93.9946C88.8366 93.826 88.4561 93.6779 87.9047 93.5503C87.0661 93.368 86.4486 93.1265 86.0521 92.8257C85.6602 92.5203 85.4642 92.1011 85.4642 91.5679C85.4642 91.0347 85.6967 90.5812 86.1615 90.2075C86.6263 89.8293 87.2325 89.6401 87.9799 89.6401C88.7273 89.6401 89.3311 89.8384 89.7914 90.2349C90.2562 90.6268 90.4773 91.1144 90.4545 91.6978L90.4408 91.7319H89.2855C89.2855 91.4266 89.1602 91.1623 88.9095 90.939C88.6635 90.7157 88.3376 90.604 87.932 90.604C87.531 90.604 87.2211 90.6951 87.0023 90.8774C86.7836 91.0552 86.6742 91.283 86.6742 91.561C86.6742 91.839 86.7699 92.0509 86.9613 92.1968C87.1527 92.3426 87.5287 92.4748 88.0892 92.5933C88.946 92.7801 89.5749 93.0308 89.976 93.3452C90.377 93.6551 90.5775 94.0675 90.5775 94.5825C90.5775 95.175 90.3383 95.6535 89.8597 96.0181C89.3858 96.3826 88.7478 96.5649 87.9457 96.5649C87.1436 96.5649 86.4942 96.3553 85.9974 95.936C85.5052 95.5168 85.2705 95.0086 85.2933 94.4116L85.307 94.3774H86.4623C86.4851 94.7876 86.6377 95.0975 86.9203 95.3071C87.2074 95.5122 87.5651 95.6147 87.9935 95.6147L87.9799 95.6011Z" fill="#333333"/>
<path d="M42.3021 130.224V138.229H46.5404V139.179H41.0922V130.224H42.3021ZM49.5687 139.322C48.876 139.322 48.3474 139.147 47.9828 138.796C47.6182 138.445 47.4359 137.953 47.4359 137.319C47.4359 136.686 47.6911 136.189 48.2015 135.829C48.712 135.469 49.4138 135.289 50.307 135.289H51.6195V134.633C51.6195 134.241 51.4987 133.933 51.2572 133.71C51.0202 133.482 50.6967 133.368 50.2865 133.368C49.8809 133.368 49.5551 133.466 49.309 133.662C49.0629 133.854 48.9398 134.093 48.9398 134.38H47.7845L47.7709 134.346C47.7481 133.844 47.9805 133.398 48.4681 133.006C48.9603 132.609 49.5847 132.411 50.3412 132.411C51.1023 132.411 51.7084 132.607 52.1595 132.999C52.6107 133.386 52.8363 133.936 52.8363 134.646V137.853C52.8363 138.368 52.8933 138.814 53.0072 139.192H51.7562C51.6696 138.769 51.6241 138.436 51.6195 138.194C51.3825 138.532 51.0817 138.805 50.7172 139.015C50.3571 139.22 49.9743 139.322 49.5687 139.322ZM48.6595 137.347H48.6527C48.6527 137.647 48.7461 137.882 48.933 138.051C49.1198 138.219 49.4092 138.304 49.8011 138.304C50.1931 138.304 50.5668 138.194 50.9222 137.976C51.2823 137.752 51.517 137.493 51.6263 137.196V136.109H50.2728C49.7898 136.109 49.4001 136.23 49.1039 136.472C48.8077 136.709 48.6595 137 48.6595 137.347ZM57.3617 133.396C56.6508 133.396 56.1312 133.733 55.8031 134.407V137.292C56.1358 137.989 56.6622 138.338 57.3822 138.338C57.9427 138.338 58.3643 138.142 58.6469 137.75C58.934 137.354 59.0775 136.809 59.0775 136.116L59.0638 135.986C59.0638 135.193 58.9203 134.564 58.6332 134.1C58.3461 133.63 57.9222 133.396 57.3617 133.396ZM60.2875 135.986V136.116C60.2875 137.091 60.0551 137.871 59.5902 138.454C59.1299 139.033 58.4987 139.322 57.6967 139.322C56.8262 139.322 56.1745 138.985 55.7416 138.311L55.598 139.192H54.6068V129.595H55.8168V133.32C56.2543 132.714 56.8786 132.411 57.6898 132.411C58.501 132.411 59.1368 132.735 59.597 133.382C60.0573 134.029 60.2875 134.897 60.2875 135.986ZM66.2621 135.993C66.2621 136.709 66.3942 137.274 66.6586 137.688C66.9457 138.144 67.4037 138.372 68.0326 138.372C68.4427 138.372 68.7982 138.247 69.099 137.996C69.3998 137.745 69.5502 137.442 69.5502 137.087H70.6371L70.6508 137.128C70.6735 137.707 70.4206 138.217 69.892 138.659C69.3633 139.101 68.7435 139.322 68.0326 139.322C67.0847 139.322 66.3487 139.015 65.8246 138.399C65.3005 137.784 65.0385 136.982 65.0385 135.993V135.733C65.0385 134.749 65.3005 133.949 65.8246 133.334C66.3532 132.719 67.0892 132.411 68.0326 132.411C68.8073 132.411 69.4431 132.639 69.9398 133.095C70.4366 133.55 70.6758 134.118 70.6576 134.797L70.6439 134.831H69.5502C69.5502 134.421 69.4066 134.075 69.1195 133.792C68.8324 133.509 68.4747 133.368 68.0463 133.368C67.6224 133.368 67.2738 133.475 67.0004 133.689C66.7315 133.904 66.5401 134.182 66.4261 134.523C66.3168 134.865 66.2621 135.269 66.2621 135.733V135.993ZM73.9047 139.322C73.212 139.322 72.6833 139.147 72.3187 138.796C71.9541 138.445 71.7719 137.953 71.7719 137.319C71.7719 136.686 72.0271 136.189 72.5375 135.829C73.0479 135.469 73.7497 135.289 74.6429 135.289H75.9554V134.633C75.9554 134.241 75.8347 133.933 75.5931 133.71C75.3562 133.482 75.0326 133.368 74.6224 133.368C74.2168 133.368 73.891 133.466 73.6449 133.662C73.3988 133.854 73.2758 134.093 73.2758 134.38H72.1205L72.1068 134.346C72.084 133.844 72.3164 133.398 72.8041 133.006C73.2963 132.609 73.9206 132.411 74.6771 132.411C75.4382 132.411 76.0443 132.607 76.4955 132.999C76.9467 133.386 77.1722 133.936 77.1722 134.646V137.853C77.1722 138.368 77.2292 138.814 77.3431 139.192H76.0922C76.0056 138.769 75.96 138.436 75.9554 138.194C75.7185 138.532 75.4177 138.805 75.0531 139.015C74.6931 139.22 74.3103 139.322 73.9047 139.322ZM72.9955 137.347H72.9886C72.9886 137.647 73.0821 137.882 73.2689 138.051C73.4558 138.219 73.7452 138.304 74.1371 138.304C74.529 138.304 74.9027 138.194 75.2582 137.976C75.6182 137.752 75.8529 137.493 75.9623 137.196V136.109H74.6088C74.1257 136.109 73.736 136.23 73.4398 136.472C73.1436 136.709 72.9955 137 72.9955 137.347ZM81.4174 138.358C81.8457 138.358 82.183 138.274 82.4291 138.105C82.6752 137.932 82.7982 137.704 82.7982 137.422C82.7982 137.139 82.6934 136.916 82.4838 136.752C82.2741 136.583 81.8936 136.435 81.3422 136.308C80.5036 136.125 79.8861 135.884 79.4896 135.583C79.0977 135.278 78.9017 134.858 78.9017 134.325C78.9017 133.792 79.1342 133.339 79.599 132.965C80.0638 132.587 80.67 132.397 81.4174 132.397C82.1648 132.397 82.7686 132.596 83.2289 132.992C83.6937 133.384 83.9148 133.872 83.892 134.455L83.8783 134.489H82.723C82.723 134.184 82.5977 133.92 82.347 133.696C82.101 133.473 81.7751 133.361 81.3695 133.361C80.9685 133.361 80.6586 133.452 80.4398 133.635C80.2211 133.812 80.1117 134.04 80.1117 134.318C80.1117 134.596 80.2074 134.808 80.3988 134.954C80.5902 135.1 80.9662 135.232 81.5267 135.351C82.3835 135.537 83.0124 135.788 83.4135 136.103C83.8145 136.412 84.015 136.825 84.015 137.34C84.015 137.932 83.7758 138.411 83.2972 138.775C82.8233 139.14 82.1853 139.322 81.3832 139.322C80.5811 139.322 79.9317 139.113 79.4349 138.693C78.9427 138.274 78.708 137.766 78.7308 137.169L78.7445 137.135H79.8998C79.9226 137.545 80.0752 137.855 80.3578 138.064C80.6449 138.27 81.0026 138.372 81.431 138.372L81.4174 138.358ZM89.6136 135.043C89.6136 134.542 89.4838 134.138 89.224 133.833C88.9642 133.523 88.5905 133.368 88.1029 133.368C87.7019 133.368 87.3555 133.537 87.0638 133.874C86.7767 134.211 86.599 134.642 86.5306 135.166L86.5443 135.2H89.6136V135.043ZM88.2875 139.322C87.3623 139.322 86.6241 139.017 86.0726 138.406C85.5258 137.796 85.2523 136.991 85.2523 135.993V135.72C85.2523 134.785 85.5303 134.002 86.0863 133.368C86.6469 132.73 87.3191 132.411 88.1029 132.411C88.987 132.411 89.6615 132.678 90.1263 133.211C90.5957 133.74 90.8304 134.466 90.8304 135.392V136.15H86.5101L86.4896 136.178C86.5033 136.834 86.6674 137.365 86.9818 137.771C87.3008 138.172 87.736 138.372 88.2875 138.372C89.0622 138.372 89.6911 138.153 90.1742 137.716L90.6527 138.502H90.6459C90.0899 139.049 89.3038 139.322 88.2875 139.322ZM94.6791 138.358C95.1075 138.358 95.4447 138.274 95.6908 138.105C95.9369 137.932 96.0599 137.704 96.0599 137.422C96.0599 137.139 95.9551 136.916 95.7455 136.752C95.5358 136.583 95.1553 136.435 94.6039 136.308C93.7653 136.125 93.1478 135.884 92.7513 135.583C92.3594 135.278 92.1635 134.858 92.1635 134.325C92.1635 133.792 92.3959 133.339 92.8607 132.965C93.3256 132.587 93.9317 132.397 94.6791 132.397C95.4265 132.397 96.0303 132.596 96.4906 132.992C96.9554 133.384 97.1765 133.872 97.1537 134.455L97.14 134.489H95.9847C95.9847 134.184 95.8594 133.92 95.6088 133.696C95.3627 133.473 95.0368 133.361 94.6312 133.361C94.2302 133.361 93.9203 133.452 93.7015 133.635C93.4828 133.812 93.3734 134.04 93.3734 134.318C93.3734 134.596 93.4691 134.808 93.6605 134.954C93.8519 135.1 94.2279 135.232 94.7885 135.351C95.6452 135.537 96.2741 135.788 96.6752 136.103C97.0762 136.412 97.2767 136.825 97.2767 137.34C97.2767 137.932 97.0375 138.411 96.559 138.775C96.085 139.14 95.447 139.322 94.6449 139.322C93.8428 139.322 93.1934 139.113 92.6967 138.693C92.2045 138.274 91.9698 137.766 91.9926 137.169L92.0062 137.135H93.1615C93.1843 137.545 93.337 137.855 93.6195 138.064C93.9066 138.27 94.2644 138.372 94.6927 138.372L94.6791 138.358Z" fill="#333333"/>
<path d="M47.8666 172.98V181.936H46.6566V177.978H42.3021V181.936H41.0922V172.98H42.3021V177.027H46.6566V172.98H47.8666ZM51.1683 175.277V181.936H49.9584V175.277H51.1683ZM51.1683 172.338V173.575H49.9584V172.338H51.1683ZM55.5092 181.115C55.9375 181.115 56.2748 181.031 56.5209 180.862C56.767 180.689 56.89 180.461 56.89 180.179C56.89 179.896 56.7852 179.673 56.5756 179.509C56.3659 179.34 55.9854 179.192 55.434 179.064C54.5954 178.882 53.9779 178.641 53.5814 178.34C53.1895 178.035 52.9935 177.615 52.9935 177.082C52.9935 176.549 53.226 176.095 53.6908 175.722C54.1556 175.343 54.7618 175.154 55.5092 175.154C56.2566 175.154 56.8604 175.353 57.3207 175.749C57.7855 176.141 58.0066 176.629 57.9838 177.212L57.9701 177.246H56.8148C56.8148 176.941 56.6895 176.676 56.4388 176.453C56.1927 176.23 55.8669 176.118 55.4613 176.118C55.0603 176.118 54.7504 176.209 54.5316 176.392C54.3129 176.569 54.2035 176.797 54.2035 177.075C54.2035 177.353 54.2992 177.565 54.4906 177.711C54.682 177.857 55.058 177.989 55.6185 178.107C56.4753 178.294 57.1042 178.545 57.5052 178.859C57.9063 179.169 58.1068 179.582 58.1068 180.097C58.1068 180.689 57.8676 181.168 57.389 181.532C56.9151 181.897 56.2771 182.079 55.475 182.079C54.6729 182.079 54.0235 181.869 53.5267 181.45C53.0345 181.031 52.7998 180.523 52.8226 179.926L52.8363 179.892H53.9916C54.0144 180.302 54.167 180.612 54.4496 180.821C54.7367 181.026 55.0944 181.129 55.5228 181.129L55.5092 181.115ZM60.0072 173.685H61.2308V175.291H62.4886V176.193H61.2308V180.233C61.2308 180.799 61.4655 181.081 61.9349 181.081C62.0808 181.081 62.2312 181.054 62.3861 180.999L62.5433 181.826C62.3246 181.995 62.017 182.079 61.6205 182.079C61.1101 182.079 60.7136 181.926 60.431 181.621C60.1485 181.316 60.0072 180.853 60.0072 180.233V176.193H58.9545V175.291H60.0072V173.685ZM64.9154 178.559V178.695C64.9154 179.434 65.0658 180.024 65.3666 180.466C65.6719 180.908 66.1094 181.129 66.6791 181.129C67.2487 181.129 67.6862 180.908 67.9916 180.466C68.2969 180.019 68.4496 179.429 68.4496 178.695V178.559C68.4496 177.834 68.2946 177.248 67.9847 176.802C67.6794 176.351 67.2419 176.125 66.6722 176.125C66.1071 176.125 65.6719 176.351 65.3666 176.802C65.0658 177.248 64.9154 177.834 64.9154 178.559ZM63.6986 178.695V178.559C63.6986 177.556 63.9675 176.74 64.5052 176.111C65.043 175.482 65.7676 175.168 66.6791 175.168C67.5905 175.168 68.3151 175.482 68.8529 176.111C69.3907 176.736 69.6595 177.551 69.6595 178.559V178.695C69.6595 179.707 69.3907 180.525 68.8529 181.149C68.3197 181.769 67.5951 182.079 66.6791 182.079C65.7676 182.079 65.043 181.767 64.5052 181.143C63.9675 180.518 63.6986 179.702 63.6986 178.695ZM72.3597 181.942H71.1498V175.284H72.2299L72.3461 176.255C72.7517 175.521 73.3031 175.154 74.0004 175.154C74.1644 175.154 74.3194 175.177 74.4652 175.223L74.3011 176.357L73.6791 176.316C73.0547 176.316 72.6149 176.606 72.3597 177.185V181.942ZM75.9486 184.923C75.7754 184.923 75.5362 184.891 75.2308 184.827L75.3539 183.87C75.6547 183.893 75.8347 183.904 75.8939 183.904C76.1309 183.904 76.3291 183.804 76.4886 183.604C76.6527 183.403 76.8008 183.134 76.933 182.797L77.2201 182.1L74.7455 175.578H76.099L77.514 179.769L77.726 180.603H77.767L79.4008 175.578H80.7474L77.9515 183.255C77.5277 184.367 76.8601 184.923 75.9486 184.923ZM87.0844 181.936H85.8676V176.18H84.8217V175.277H85.8676V174.437C85.8676 173.726 86.0498 173.176 86.4144 172.789C86.7836 172.402 87.3031 172.208 87.973 172.208C88.2054 172.208 88.5062 172.251 88.8754 172.338L88.725 173.261C88.5518 173.22 88.3536 173.199 88.1302 173.199C87.433 173.199 87.0844 173.612 87.0844 174.437V175.277H88.4652V176.18H87.0844V181.936ZM90.6459 178.559V178.695C90.6459 179.434 90.7963 180.024 91.097 180.466C91.4024 180.908 91.8399 181.129 92.4095 181.129C92.9792 181.129 93.4167 180.908 93.722 180.466C94.0274 180.019 94.1801 179.429 94.1801 178.695V178.559C94.1801 177.834 94.0251 177.248 93.7152 176.802C93.4099 176.351 92.9724 176.125 92.4027 176.125C91.8376 176.125 91.4024 176.351 91.097 176.802C90.7963 177.248 90.6459 177.834 90.6459 178.559ZM89.4291 178.695V178.559C89.4291 177.556 89.698 176.74 90.2357 176.111C90.7735 175.482 91.4981 175.168 92.4095 175.168C93.321 175.168 94.0456 175.482 94.5834 176.111C95.1211 176.736 95.39 177.551 95.39 178.559V178.695C95.39 179.707 95.1211 180.525 94.5834 181.149C94.0502 181.769 93.3256 182.079 92.4095 182.079C91.4981 182.079 90.7735 181.767 90.2357 181.143C89.698 180.518 89.4291 179.702 89.4291 178.695ZM98.0902 181.942H96.8802V175.284H97.9603L98.0765 176.255C98.4821 175.521 99.0336 175.154 99.7308 175.154C99.8949 175.154 100.05 175.177 100.196 175.223L100.032 176.357L99.4095 176.316C98.7852 176.316 98.3454 176.606 98.0902 177.185V181.942ZM102.411 181.936H101.207V175.277H102.287L102.376 176.152C102.832 175.487 103.507 175.154 104.4 175.154C105.298 175.154 105.906 175.564 106.225 176.385C106.685 175.564 107.364 175.154 108.262 175.154C108.959 175.154 109.499 175.391 109.882 175.865C110.265 176.335 110.456 177.032 110.456 177.957V181.936H109.246V177.943C109.246 177.301 109.137 176.84 108.918 176.562C108.7 176.28 108.371 176.139 107.934 176.139C107.501 176.139 107.155 176.28 106.895 176.562C106.64 176.84 106.489 177.205 106.444 177.656V181.936H105.22V177.943C105.22 177.324 105.106 176.868 104.878 176.576C104.655 176.285 104.32 176.139 103.873 176.139C103.172 176.139 102.684 176.428 102.411 177.007V181.936ZM114.695 181.115C115.123 181.115 115.46 181.031 115.706 180.862C115.953 180.689 116.076 180.461 116.076 180.179C116.076 179.896 115.971 179.673 115.761 179.509C115.551 179.34 115.171 179.192 114.62 179.064C113.781 178.882 113.163 178.641 112.767 178.34C112.375 178.035 112.179 177.615 112.179 177.082C112.179 176.549 112.411 176.095 112.876 175.722C113.341 175.343 113.947 175.154 114.695 175.154C115.442 175.154 116.046 175.353 116.506 175.749C116.971 176.141 117.192 176.629 117.169 177.212L117.156 177.246H116C116 176.941 115.875 176.676 115.624 176.453C115.378 176.23 115.052 176.118 114.647 176.118C114.246 176.118 113.936 176.209 113.717 176.392C113.498 176.569 113.389 176.797 113.389 177.075C113.389 177.353 113.485 177.565 113.676 177.711C113.868 177.857 114.244 177.989 114.804 178.107C115.661 178.294 116.29 178.545 116.691 178.859C117.092 179.169 117.292 179.582 117.292 180.097C117.292 180.689 117.053 181.168 116.575 181.532C116.101 181.897 115.463 182.079 114.661 182.079C113.858 182.079 113.209 181.869 112.712 181.45C112.22 181.031 111.985 180.523 112.008 179.926L112.022 179.892H113.177C113.2 180.302 113.353 180.612 113.635 180.821C113.922 181.026 114.28 181.129 114.708 181.129L114.695 181.115Z" fill="#333333"/>
<path d="M46.2601 221.842H47.4154L47.4291 221.876C47.4473 222.733 47.1511 223.442 46.5404 224.002C45.9297 224.558 45.1231 224.836 44.1205 224.836C43.1179 224.836 42.2976 224.481 41.6595 223.77C41.0215 223.055 40.7025 222.141 40.7025 221.029V219.436C40.7025 218.324 41.0215 217.41 41.6595 216.695C42.2976 215.979 43.1247 215.622 44.141 215.622C45.1573 215.622 45.9639 215.89 46.5609 216.428C47.1625 216.961 47.4541 217.677 47.4359 218.575L47.4222 218.609H46.2601C46.2601 217.971 46.0733 217.472 45.6996 217.112C45.3304 216.752 44.8109 216.572 44.141 216.572C43.4756 216.572 42.9401 216.841 42.5345 217.378C42.1289 217.916 41.9261 218.597 41.9261 219.422V221.029C41.9261 221.863 42.1289 222.549 42.5345 223.086C42.9401 223.62 43.4779 223.886 44.1478 223.886C44.8177 223.886 45.3373 223.708 45.7064 223.353C46.0756 222.993 46.2601 222.489 46.2601 221.842ZM49.7806 221.316V221.453C49.7806 222.191 49.931 222.781 50.2318 223.223C50.5372 223.665 50.9747 223.886 51.5443 223.886C52.114 223.886 52.5515 223.665 52.8568 223.223C53.1622 222.777 53.3148 222.186 53.3148 221.453V221.316C53.3148 220.591 53.1599 220.006 52.85 219.559C52.5446 219.108 52.1071 218.882 51.5375 218.882C50.9724 218.882 50.5372 219.108 50.2318 219.559C49.931 220.006 49.7806 220.591 49.7806 221.316ZM48.5638 221.453V221.316C48.5638 220.313 48.8327 219.498 49.3705 218.869C49.9082 218.24 50.6329 217.925 51.5443 217.925C52.4558 217.925 53.1804 218.24 53.7181 218.869C54.2559 219.493 54.5248 220.309 54.5248 221.316V221.453C54.5248 222.464 54.2559 223.282 53.7181 223.907C53.1849 224.527 52.4603 224.836 51.5443 224.836C50.6329 224.836 49.9082 224.524 49.3705 223.9C48.8327 223.276 48.5638 222.46 48.5638 221.453ZM56.015 218.035H57.0951L57.184 219.026C57.6442 218.283 58.3028 217.912 59.1595 217.912C59.8887 217.912 60.447 218.126 60.8344 218.554C61.2217 218.978 61.4154 219.623 61.4154 220.489V224.693H60.2054V220.516C60.2054 219.937 60.0915 219.523 59.8636 219.272C59.6358 219.021 59.2803 218.896 58.7972 218.896C58.4509 218.896 58.1433 218.978 57.8744 219.142C57.6055 219.306 57.389 219.539 57.225 219.839V224.693H56.015V218.035ZM65.6537 223.873C66.0821 223.873 66.4193 223.788 66.6654 223.62C66.9115 223.446 67.0345 223.219 67.0345 222.936C67.0345 222.653 66.9297 222.43 66.7201 222.266C66.5105 222.097 66.1299 221.949 65.5785 221.822C64.7399 221.639 64.1224 221.398 63.726 221.097C63.334 220.792 63.1381 220.373 63.1381 219.839C63.1381 219.306 63.3705 218.853 63.8353 218.479C64.3002 218.101 64.9063 217.912 65.6537 217.912C66.4011 217.912 67.0049 218.11 67.4652 218.506C67.9301 218.898 68.1511 219.386 68.1283 219.969L68.1146 220.003H66.9594C66.9594 219.698 66.834 219.434 66.5834 219.21C66.3373 218.987 66.0114 218.875 65.6058 218.875C65.2048 218.875 64.8949 218.967 64.6761 219.149C64.4574 219.327 64.348 219.555 64.348 219.833C64.348 220.111 64.4437 220.322 64.6351 220.468C64.8265 220.614 65.2025 220.746 65.7631 220.865C66.6198 221.052 67.2487 221.302 67.6498 221.617C68.0508 221.927 68.2513 222.339 68.2513 222.854C68.2513 223.446 68.0121 223.925 67.5336 224.29C67.0596 224.654 66.4216 224.836 65.6195 224.836C64.8174 224.836 64.168 224.627 63.6713 224.208C63.1791 223.788 62.9444 223.28 62.9672 222.683L62.9808 222.649H64.1361C64.1589 223.059 64.3116 223.369 64.5941 223.579C64.8812 223.784 65.239 223.886 65.6674 223.886L65.6537 223.873ZM73.85 220.557C73.85 220.056 73.7201 219.653 73.4603 219.347C73.2006 219.037 72.8269 218.882 72.3392 218.882C71.9382 218.882 71.5918 219.051 71.3002 219.388C71.0131 219.725 70.8353 220.156 70.767 220.68L70.7806 220.714H73.85V220.557ZM72.5238 224.836C71.5987 224.836 70.8604 224.531 70.309 223.92C69.7621 223.31 69.4886 222.505 69.4886 221.507V221.234C69.4886 220.3 69.7666 219.516 70.3226 218.882C70.8832 218.244 71.5554 217.925 72.3392 217.925C73.2233 217.925 73.8978 218.192 74.3627 218.725C74.8321 219.254 75.0668 219.981 75.0668 220.906V221.665H70.7465L70.726 221.692C70.7396 222.348 70.9037 222.879 71.2181 223.285C71.5372 223.686 71.9724 223.886 72.5238 223.886C73.2985 223.886 73.9274 223.667 74.4105 223.23L74.889 224.016H74.8822C74.3262 224.563 73.5401 224.836 72.5238 224.836ZM76.4408 218.035H77.5209L77.6097 219.026C78.07 218.283 78.7286 217.912 79.5853 217.912C80.3145 217.912 80.8728 218.126 81.2601 218.554C81.6475 218.978 81.8412 219.623 81.8412 220.489V224.693H80.6312V220.516C80.6312 219.937 80.5173 219.523 80.2894 219.272C80.0616 219.021 79.7061 218.896 79.223 218.896C78.8767 218.896 78.5691 218.978 78.3002 219.142C78.0313 219.306 77.8148 219.539 77.6508 219.839V224.693H76.4408V218.035ZM83.9877 216.442H85.2113V218.048H86.4691V218.951H85.2113V222.991C85.2113 223.556 85.446 223.838 85.9154 223.838C86.0612 223.838 86.2116 223.811 86.3666 223.756L86.5238 224.583C86.3051 224.752 85.9974 224.836 85.601 224.836C85.0905 224.836 84.6941 224.684 84.4115 224.378C84.1289 224.073 83.9877 223.611 83.9877 222.991V218.951H82.9349V218.048H83.9877V216.442Z" fill="#333333"/>
<path d="M47.1556 258.495V259.445H44.2777V267.45H43.0677V259.445H40.1967V258.495H47.1556ZM49.0492 267.457H47.8392V260.798H48.9193L49.0355 261.769C49.4411 261.035 49.9926 260.668 50.6898 260.668C50.8539 260.668 51.0088 260.691 51.1547 260.737L50.9906 261.872L50.3685 261.831C49.7442 261.831 49.3044 262.12 49.0492 262.699V267.457ZM56.2406 263.314C56.2406 262.813 56.1107 262.409 55.851 262.104C55.5912 261.794 55.2175 261.639 54.7299 261.639C54.3288 261.639 53.9825 261.808 53.6908 262.145C53.4037 262.482 53.226 262.913 53.1576 263.437L53.1713 263.471H56.2406V263.314ZM54.9144 267.593C53.9893 267.593 53.251 267.288 52.6996 266.677C52.1527 266.067 51.8793 265.262 51.8793 264.264V263.991C51.8793 263.056 52.1573 262.273 52.7133 261.639C53.2738 261.001 53.946 260.682 54.7299 260.682C55.614 260.682 56.2885 260.949 56.7533 261.482C57.2227 262.011 57.4574 262.737 57.4574 263.663V264.421H53.1371L53.1166 264.449C53.1302 265.105 53.2943 265.636 53.6088 266.042C53.9278 266.443 54.363 266.643 54.9144 266.643C55.6892 266.643 56.3181 266.424 56.8011 265.987L57.2797 266.773H57.2728C56.7168 267.32 55.9307 267.593 54.9144 267.593ZM60.725 267.593C60.0323 267.593 59.5036 267.418 59.139 267.067C58.7745 266.716 58.5922 266.224 58.5922 265.59C58.5922 264.957 58.8474 264.46 59.3578 264.1C59.8682 263.74 60.57 263.56 61.4633 263.56H62.7758V262.904C62.7758 262.512 62.655 262.204 62.4135 261.981C62.1765 261.753 61.8529 261.639 61.4427 261.639C61.0372 261.639 60.7113 261.737 60.4652 261.933C60.2191 262.125 60.0961 262.364 60.0961 262.651H58.9408L58.9271 262.617C58.9043 262.115 59.1368 261.669 59.6244 261.277C60.1166 260.88 60.7409 260.682 61.4974 260.682C62.2585 260.682 62.8646 260.878 63.3158 261.27C63.767 261.657 63.9926 262.207 63.9926 262.917V266.124C63.9926 266.639 64.0495 267.085 64.1635 267.463H62.9125C62.8259 267.04 62.7803 266.707 62.7758 266.465C62.5388 266.803 62.238 267.076 61.8734 267.286C61.5134 267.491 61.1306 267.593 60.725 267.593ZM59.8158 265.618H59.809C59.809 265.918 59.9024 266.153 60.0892 266.322C60.2761 266.49 60.5655 266.575 60.9574 266.575C61.3493 266.575 61.723 266.465 62.0785 266.247C62.4385 266.023 62.6732 265.764 62.7826 265.467V264.38H61.4291C60.946 264.38 60.5564 264.501 60.2601 264.743C59.9639 264.98 59.8158 265.271 59.8158 265.618ZM66.1459 259.199H67.3695V260.805H68.6273V261.708H67.3695V265.748C67.3695 266.313 67.6042 266.595 68.0736 266.595C68.2194 266.595 68.3698 266.568 68.5248 266.513L68.682 267.34C68.4633 267.509 68.1556 267.593 67.7592 267.593C67.2487 267.593 66.8523 267.441 66.5697 267.135C66.2872 266.83 66.1459 266.367 66.1459 265.748V261.708H65.0931V260.805H66.1459V259.199ZM71.3344 267.45H70.1312V260.792H71.2113L71.3002 261.667C71.7559 261.001 72.4304 260.668 73.3236 260.668C74.2214 260.668 74.8298 261.079 75.1488 261.899C75.6091 261.079 76.2881 260.668 77.1859 260.668C77.8832 260.668 78.4232 260.905 78.806 261.379C79.1888 261.849 79.3802 262.546 79.3802 263.471V267.45H78.1703V263.458C78.1703 262.815 78.0609 262.355 77.8422 262.077C77.6234 261.794 77.2953 261.653 76.8578 261.653C76.4248 261.653 76.0785 261.794 75.8187 262.077C75.5635 262.355 75.4131 262.719 75.3676 263.17V267.45H74.1439V263.458C74.1439 262.838 74.03 262.382 73.8021 262.09C73.5788 261.799 73.2439 261.653 72.7972 261.653C72.0954 261.653 71.6078 261.942 71.3344 262.521V267.45ZM85.225 263.314C85.225 262.813 85.0951 262.409 84.8353 262.104C84.5756 261.794 84.2019 261.639 83.7142 261.639C83.3132 261.639 82.9668 261.808 82.6752 262.145C82.3881 262.482 82.2103 262.913 82.142 263.437L82.1556 263.471H85.225V263.314ZM83.8988 267.593C82.9737 267.593 82.2354 267.288 81.684 266.677C81.1371 266.067 80.8636 265.262 80.8636 264.264V263.991C80.8636 263.056 81.1416 262.273 81.6976 261.639C82.2582 261.001 82.9304 260.682 83.7142 260.682C84.5983 260.682 85.2728 260.949 85.7377 261.482C86.2071 262.011 86.4418 262.737 86.4418 263.663V264.421H82.1215L82.101 264.449C82.1146 265.105 82.2787 265.636 82.5931 266.042C82.9122 266.443 83.3474 266.643 83.8988 266.643C84.6735 266.643 85.3024 266.424 85.7855 265.987L86.264 266.773H86.2572C85.7012 267.32 84.9151 267.593 83.8988 267.593ZM87.8158 260.792H88.8959L88.9847 261.783C89.445 261.04 90.1036 260.668 90.9603 260.668C91.6895 260.668 92.2478 260.883 92.6351 261.311C93.0225 261.735 93.2162 262.38 93.2162 263.246V267.45H92.0062V263.273C92.0062 262.694 91.8923 262.279 91.6644 262.029C91.4366 261.778 91.0811 261.653 90.598 261.653C90.2517 261.653 89.9441 261.735 89.6752 261.899C89.4063 262.063 89.1898 262.295 89.0258 262.596V267.45H87.8158V260.792ZM95.3627 259.199H96.5863V260.805H97.8441V261.708H96.5863V265.748C96.5863 266.313 96.821 266.595 97.2904 266.595C97.4362 266.595 97.5866 266.568 97.7416 266.513L97.8988 267.34C97.6801 267.509 97.3724 267.593 96.976 267.593C96.4655 267.593 96.0691 267.441 95.7865 267.135C95.5039 266.83 95.3627 266.367 95.3627 265.748V261.708H94.3099V260.805H95.3627V259.199ZM108.57 264.531V264.661C108.57 265.631 108.337 266.408 107.872 266.992C107.412 267.57 106.779 267.86 105.972 267.86C105.165 267.86 104.543 267.586 104.106 267.04V270.293H102.896V261.079H103.826L104.017 261.94C104.459 261.284 105.097 260.956 105.931 260.956C106.77 260.956 107.419 261.279 107.879 261.926C108.34 262.569 108.57 263.437 108.57 264.531ZM107.353 264.661V264.531C107.353 263.747 107.2 263.12 106.895 262.651C106.594 262.177 106.161 261.94 105.596 261.94C104.926 261.94 104.429 262.234 104.106 262.822V266.042C104.425 266.625 104.926 266.917 105.61 266.917C106.17 266.917 106.601 266.711 106.902 266.301C107.203 265.891 107.353 265.344 107.353 264.661ZM111.366 257.852V267.45H110.156V257.852H111.366ZM115.125 267.593C114.433 267.593 113.904 267.418 113.539 267.067C113.175 266.716 112.993 266.224 112.993 265.59C112.993 264.957 113.248 264.46 113.758 264.1C114.269 263.74 114.97 263.56 115.864 263.56H117.176V262.904C117.176 262.512 117.055 262.204 116.814 261.981C116.577 261.753 116.253 261.639 115.843 261.639C115.438 261.639 115.112 261.737 114.866 261.933C114.62 262.125 114.496 262.364 114.496 262.651H113.341L113.328 262.617C113.305 262.115 113.537 261.669 114.025 261.277C114.517 260.88 115.141 260.682 115.898 260.682C116.659 260.682 117.265 260.878 117.716 261.27C118.167 261.657 118.393 262.207 118.393 262.917V266.124C118.393 266.639 118.45 267.085 118.564 267.463H117.313C117.226 267.04 117.181 266.707 117.176 266.465C116.939 266.803 116.638 267.076 116.274 267.286C115.914 267.491 115.531 267.593 115.125 267.593ZM114.216 265.618H114.209C114.209 265.918 114.303 266.153 114.49 266.322C114.676 266.49 114.966 266.575 115.358 266.575C115.75 266.575 116.123 266.465 116.479 266.247C116.839 266.023 117.074 265.764 117.183 265.467V264.38H115.829C115.346 264.38 114.957 264.501 114.661 264.743C114.364 264.98 114.216 265.271 114.216 265.618ZM120.163 260.792H121.244L121.332 261.783C121.793 261.04 122.451 260.668 123.308 260.668C124.037 260.668 124.595 260.883 124.983 261.311C125.37 261.735 125.564 262.38 125.564 263.246V267.45H124.354V263.273C124.354 262.694 124.24 262.279 124.012 262.029C123.784 261.778 123.429 261.653 122.946 261.653C122.599 261.653 122.292 261.735 122.023 261.899C121.754 262.063 121.537 262.295 121.373 262.596V267.45H120.163V260.792ZM129.802 266.629C130.231 266.629 130.568 266.545 130.814 266.376C131.06 266.203 131.183 265.975 131.183 265.693C131.183 265.41 131.078 265.187 130.869 265.023C130.659 264.854 130.278 264.706 129.727 264.579C128.888 264.396 128.271 264.155 127.874 263.854C127.482 263.549 127.286 263.129 127.286 262.596C127.286 262.063 127.519 261.61 127.984 261.236C128.449 260.858 129.055 260.668 129.802 260.668C130.55 260.668 131.153 260.867 131.614 261.263C132.078 261.655 132.3 262.143 132.277 262.726L132.263 262.76H131.108C131.108 262.455 130.982 262.191 130.732 261.967C130.486 261.744 130.16 261.632 129.754 261.632C129.353 261.632 129.043 261.723 128.825 261.906C128.606 262.083 128.496 262.311 128.496 262.589C128.496 262.867 128.592 263.079 128.784 263.225C128.975 263.371 129.351 263.503 129.911 263.622C130.768 263.808 131.397 264.059 131.798 264.374C132.199 264.683 132.4 265.096 132.4 265.611C132.4 266.203 132.161 266.682 131.682 267.046C131.208 267.411 130.57 267.593 129.768 267.593C128.966 267.593 128.316 267.384 127.82 266.964C127.328 266.545 127.093 266.037 127.116 265.44L127.129 265.406H128.285C128.307 265.816 128.46 266.126 128.743 266.335C129.03 266.541 129.387 266.643 129.816 266.643L129.802 266.629Z" fill="#333333"/>
<defs>
<filter id="filter0_d" x="0.00012207" y="0.557129" width="494" height="314" filterUnits="userSpaceOnUse" color-interpolation-filters="sRGB">
<feFlood flood-opacity="0" result="BackgroundImageFix"/>
<feColorMatrix in="SourceAlpha" type="matrix" values="0 0 0 0 0 0 0 0 0 0 0 0 0 0 0 0 0 0 127 0"/>
<feOffset dx="1" dy="1"/>
<feGaussianBlur stdDeviation="3.5"/>
<feColorMatrix type="matrix" values="0 0 0 0 0.509804 0 0 0 0 0.509804 0 0 0 0 0.509804 0 0 0 0.26 0"/>
<feBlend mode="normal" in2="BackgroundImageFix" result="effect1_dropShadow"/>
<feBlend mode="normal" in="SourceGraphic" in2="effect1_dropShadow" result="shape"/>
</filter>
</defs>
</svg>
