<svg width="494" height="315" viewBox="0 0 494 315" fill="none" xmlns="http://www.w3.org/2000/svg">
<g filter="url(#filter0_d)">
<rect x="6" y="6.33521" width="480" height="300" rx="8" fill="#FEFEFE"/>
</g>
<path d="M136.952 88.6941V89.78H132.28V94.3113H130.898V84.0769H137.671V85.1628H132.28V88.6941H136.952ZM142.429 85.1628H140.671V93.2253H142.429C143.372 93.2253 144.116 92.9207 144.663 92.3113C145.215 91.6967 145.491 90.892 145.491 89.8972V88.4832C145.491 87.4936 145.215 86.6941 144.663 86.0847C144.111 85.4701 143.366 85.1628 142.429 85.1628ZM142.429 94.3113H139.288V84.0769H142.429C143.773 84.0769 144.848 84.4858 145.655 85.3035C146.468 86.116 146.874 87.1811 146.874 88.4988V89.8972C146.874 91.2149 146.468 92.28 145.655 93.0925C144.848 93.905 143.773 94.3113 142.429 94.3113ZM156.195 89.2175V92.9597C155.918 93.3816 155.471 93.7384 154.851 94.03C154.231 94.3217 153.476 94.4675 152.585 94.4675C151.351 94.4675 150.335 94.0769 149.538 93.2957C148.747 92.5092 148.351 91.4962 148.351 90.2566V88.1472C148.351 86.8972 148.721 85.8842 149.46 85.1082C150.205 84.3269 151.163 83.9363 152.335 83.9363C153.507 83.9363 154.432 84.2201 155.109 84.7878C155.791 85.3556 156.137 86.1056 156.148 87.0378L156.132 87.0769H154.812C154.765 86.4571 154.53 85.9623 154.109 85.5925C153.692 85.2175 153.098 85.03 152.327 85.03C151.562 85.03 150.939 85.3217 150.46 85.905C149.981 86.4832 149.741 87.2279 149.741 88.1394V90.2644C149.741 91.1759 150.007 91.9259 150.538 92.5144C151.07 93.0977 151.752 93.3894 152.585 93.3894C153.132 93.3894 153.596 93.3191 153.976 93.1785C154.356 93.0326 154.632 92.8503 154.804 92.6316V90.3035H152.562V89.2175H156.195ZM162.57 89.5066H159.968V93.2253H162.366C163.002 93.2253 163.494 93.0717 163.843 92.7644C164.192 92.4519 164.366 91.9988 164.366 91.405C164.366 90.8113 164.215 90.3477 163.913 90.0144C163.616 89.6759 163.168 89.5066 162.57 89.5066ZM159.968 85.1628V88.4285H162.21C162.736 88.4285 163.158 88.2852 163.476 87.9988C163.799 87.7123 163.96 87.3191 163.96 86.8191C163.96 85.7149 163.283 85.1628 161.929 85.1628H159.968ZM162.366 94.3113H158.585V84.0769H161.929C163.023 84.0769 163.864 84.3113 164.452 84.78C165.046 85.2436 165.343 85.9311 165.343 86.8425C165.343 87.2957 165.2 87.7019 164.913 88.0613C164.627 88.4207 164.241 88.6863 163.757 88.8582C164.372 88.9936 164.856 89.2957 165.21 89.7644C165.57 90.2279 165.749 90.78 165.749 91.4207C165.749 92.3529 165.45 93.0691 164.851 93.5691C164.257 94.0639 163.429 94.3113 162.366 94.3113ZM174.421 93.3738C174.911 93.3738 175.296 93.2774 175.577 93.0847C175.859 92.8868 175.999 92.6264 175.999 92.3035C175.999 91.9806 175.879 91.7253 175.64 91.5378C175.4 91.3451 174.965 91.1759 174.335 91.03C173.377 90.8217 172.671 90.5457 172.218 90.2019C171.77 89.8529 171.546 89.3738 171.546 88.7644C171.546 88.155 171.812 87.6368 172.343 87.2097C172.874 86.7774 173.567 86.5613 174.421 86.5613C175.275 86.5613 175.965 86.7878 176.491 87.241C177.023 87.6889 177.275 88.2462 177.249 88.9128L177.234 88.9519H175.913C175.913 88.6029 175.77 88.3009 175.484 88.0457C175.202 87.7904 174.83 87.6628 174.366 87.6628C173.908 87.6628 173.554 87.767 173.304 87.9753C173.054 88.1785 172.929 88.4389 172.929 88.7566C172.929 89.0743 173.038 89.3165 173.257 89.4832C173.476 89.6498 173.905 89.8009 174.546 89.9363C175.525 90.1498 176.244 90.4363 176.702 90.7957C177.161 91.1498 177.39 91.6212 177.39 92.2097C177.39 92.8868 177.116 93.4337 176.57 93.8503C176.028 94.267 175.299 94.4753 174.382 94.4753C173.465 94.4753 172.723 94.2358 172.155 93.7566C171.593 93.2774 171.325 92.6967 171.351 92.0144L171.366 91.9753H172.687C172.713 92.4441 172.887 92.7983 173.21 93.0378C173.538 93.2722 173.947 93.3894 174.437 93.3894L174.421 93.3738ZM179.562 84.8816H180.96V86.7175H182.398V87.7488H180.96V92.366C180.96 93.0118 181.228 93.3347 181.765 93.3347C181.932 93.3347 182.103 93.3035 182.28 93.241L182.46 94.1863C182.21 94.379 181.859 94.4753 181.405 94.4753C180.822 94.4753 180.369 94.3009 180.046 93.9519C179.723 93.6029 179.562 93.0743 179.562 92.366V87.7488H178.359V86.7175H179.562V84.8816ZM186.273 94.4753C185.481 94.4753 184.877 94.2748 184.46 93.8738C184.043 93.4727 183.835 92.9102 183.835 92.1863C183.835 91.4623 184.127 90.8946 184.71 90.4832C185.293 90.0717 186.096 89.866 187.116 89.866H188.616V89.116C188.616 88.6681 188.478 88.3165 188.202 88.0613C187.932 87.8009 187.562 87.6707 187.093 87.6707C186.629 87.6707 186.257 87.7826 185.976 88.0066C185.695 88.2253 185.554 88.4988 185.554 88.8269H184.234L184.218 88.7878C184.192 88.2149 184.458 87.7045 185.015 87.2566C185.577 86.8035 186.291 86.5769 187.155 86.5769C188.025 86.5769 188.718 86.8009 189.234 87.2488C189.749 87.6915 190.007 88.3191 190.007 89.1316V92.7957C190.007 93.3842 190.072 93.8946 190.202 94.3269H188.773C188.674 93.8425 188.622 93.4623 188.616 93.1863C188.346 93.5717 188.002 93.8842 187.585 94.1238C187.174 94.3582 186.736 94.4753 186.273 94.4753ZM185.234 92.2175H185.226C185.226 92.5613 185.333 92.8295 185.546 93.0222C185.76 93.2149 186.09 93.3113 186.538 93.3113C186.986 93.3113 187.413 93.1863 187.82 92.9363C188.231 92.6811 188.499 92.3842 188.624 92.0457V90.8035H187.077C186.525 90.8035 186.08 90.9415 185.741 91.2175C185.403 91.4884 185.234 91.8217 185.234 92.2175ZM192.03 86.7019H193.265L193.366 87.8347C193.892 86.9858 194.645 86.5613 195.624 86.5613C196.458 86.5613 197.096 86.8061 197.538 87.2957C197.981 87.78 198.202 88.517 198.202 89.5066V94.3113H196.82V89.5378C196.82 88.8764 196.689 88.4024 196.429 88.116C196.168 87.8295 195.762 87.6863 195.21 87.6863C194.814 87.6863 194.463 87.78 194.155 87.9675C193.848 88.155 193.601 88.4207 193.413 88.7644V94.3113H192.03V86.7019ZM199.89 90.6628C199.89 89.4181 200.153 88.4259 200.679 87.6863C201.205 86.9467 201.924 86.5769 202.835 86.5769C203.747 86.5769 204.447 86.8998 204.937 87.5457V83.3582H206.327V94.3269H205.195L205.03 93.3894C204.525 94.1134 203.807 94.4753 202.874 94.4753C201.942 94.4753 201.213 94.1446 200.687 93.4832C200.161 92.8165 199.898 91.9259 199.898 90.8113L199.89 90.6628ZM201.288 90.6628V90.8113C201.288 91.6082 201.447 92.2306 201.765 92.6785C202.088 93.1264 202.572 93.3503 203.218 93.3503C203.999 93.3503 204.577 92.9936 204.952 92.28V88.7332C204.567 88.0457 203.994 87.7019 203.234 87.7019C202.583 87.7019 202.096 87.9675 201.773 88.4988C201.45 89.0248 201.288 89.7462 201.288 90.6628ZM210.57 94.4753C209.778 94.4753 209.174 94.2748 208.757 93.8738C208.34 93.4727 208.132 92.9102 208.132 92.1863C208.132 91.4623 208.424 90.8946 209.007 90.4832C209.59 90.0717 210.392 89.866 211.413 89.866H212.913V89.116C212.913 88.6681 212.775 88.3165 212.499 88.0613C212.228 87.8009 211.859 87.6707 211.39 87.6707C210.926 87.6707 210.554 87.7826 210.273 88.0066C209.991 88.2253 209.851 88.4988 209.851 88.8269H208.53L208.515 88.7878C208.489 88.2149 208.754 87.7045 209.312 87.2566C209.874 86.8035 210.588 86.5769 211.452 86.5769C212.322 86.5769 213.015 86.8009 213.53 87.2488C214.046 87.6915 214.304 88.3191 214.304 89.1316V92.7957C214.304 93.3842 214.369 93.8946 214.499 94.3269H213.07C212.971 93.8425 212.918 93.4623 212.913 93.1863C212.642 93.5717 212.299 93.8842 211.882 94.1238C211.471 94.3582 211.033 94.4753 210.57 94.4753ZM209.53 92.2175H209.523C209.523 92.5613 209.629 92.8295 209.843 93.0222C210.057 93.2149 210.387 93.3113 210.835 93.3113C211.283 93.3113 211.71 93.1863 212.116 92.9363C212.528 92.6811 212.796 92.3842 212.921 92.0457V90.8035H211.374C210.822 90.8035 210.377 90.9415 210.038 91.2175C209.7 91.4884 209.53 91.8217 209.53 92.2175ZM217.71 94.3191H216.327V86.7097H217.562L217.695 87.8191C218.158 86.9806 218.788 86.5613 219.585 86.5613C219.773 86.5613 219.95 86.5873 220.116 86.6394L219.929 87.9363L219.218 87.8894C218.504 87.8894 218.002 88.2201 217.71 88.8816V94.3191ZM220.937 90.6628C220.937 89.4181 221.2 88.4259 221.726 87.6863C222.252 86.9467 222.971 86.5769 223.882 86.5769C224.793 86.5769 225.494 86.8998 225.984 87.5457V83.3582H227.374V94.3269H226.241L226.077 93.3894C225.572 94.1134 224.853 94.4753 223.921 94.4753C222.989 94.4753 222.26 94.1446 221.734 93.4832C221.208 92.8165 220.945 91.9259 220.945 90.8113L220.937 90.6628ZM222.335 90.6628V90.8113C222.335 91.6082 222.494 92.2306 222.812 92.6785C223.135 93.1264 223.619 93.3503 224.265 93.3503C225.046 93.3503 225.624 92.9936 225.999 92.28V88.7332C225.614 88.0457 225.041 87.7019 224.28 87.7019C223.629 87.7019 223.142 87.9675 222.82 88.4988C222.497 89.0248 222.335 89.7462 222.335 90.6628ZM234.898 94.3191H233.515V86.7097H234.749L234.882 87.8191C235.346 86.9806 235.976 86.5613 236.773 86.5613C236.96 86.5613 237.137 86.5873 237.304 86.6394L237.116 87.9363L236.405 87.8894C235.692 87.8894 235.189 88.2201 234.898 88.8816V94.3191ZM243.116 89.5847C243.116 89.0118 242.968 88.5509 242.671 88.2019C242.374 87.8477 241.947 87.6707 241.39 87.6707C240.932 87.6707 240.536 87.8634 240.202 88.2488C239.874 88.6342 239.671 89.1264 239.593 89.7253L239.609 89.7644H243.116V89.5847ZM241.601 94.4753C240.543 94.4753 239.7 94.1264 239.07 93.4285C238.445 92.7306 238.132 91.8113 238.132 90.6707V90.3582C238.132 89.2904 238.45 88.3946 239.085 87.6707C239.726 86.9415 240.494 86.5769 241.39 86.5769C242.4 86.5769 243.171 86.8816 243.702 87.491C244.239 88.0951 244.507 88.9259 244.507 89.9832V90.8503H239.57L239.546 90.8816C239.562 91.6316 239.749 92.2384 240.109 92.7019C240.473 93.1602 240.971 93.3894 241.601 93.3894C242.486 93.3894 243.205 93.1394 243.757 92.6394L244.304 93.5378H244.296C243.661 94.1628 242.762 94.4753 241.601 94.4753ZM247.148 90.9753V91.1238C247.148 91.9207 247.309 92.5509 247.632 93.0144C247.955 93.4727 248.437 93.7019 249.077 93.7019C249.786 93.7019 250.338 93.3816 250.734 92.741V88.8972C250.333 88.2826 249.799 87.9753 249.132 87.9753C248.465 87.9753 247.968 88.2462 247.64 88.7878C247.312 89.3295 247.148 90.0587 247.148 90.9753ZM245.757 91.1238V90.9753C245.757 89.7306 246.02 88.7384 246.546 87.9988C247.072 87.2592 247.796 86.8894 248.718 86.8894C249.645 86.8894 250.359 87.2332 250.859 87.9207L251.062 87.03H252.116V97.5613H250.734V93.9207C250.244 94.4936 249.557 94.78 248.671 94.78C247.786 94.78 247.077 94.4493 246.546 93.7878C246.02 93.1212 245.757 92.2332 245.757 91.1238ZM256.874 94.4753C256.02 94.4753 255.366 94.2071 254.913 93.6707C254.46 93.129 254.234 92.3061 254.234 91.2019V86.7175H255.616V91.2175C255.616 92.0144 255.731 92.5691 255.96 92.8816C256.195 93.1941 256.572 93.3503 257.093 93.3503C258.046 93.3503 258.697 92.9675 259.046 92.2019V86.7175H260.429V94.3269H259.187L259.093 93.2019C258.593 94.0509 257.853 94.4753 256.874 94.4753ZM263.945 86.7019V94.3113H262.562V86.7019H263.945ZM263.945 83.3425V84.7566H262.562V83.3425H263.945ZM267.46 94.3191H266.077V86.7097H267.312L267.445 87.8191C267.908 86.9806 268.538 86.5613 269.335 86.5613C269.523 86.5613 269.7 86.5873 269.866 86.6394L269.679 87.9363L268.968 87.8894C268.254 87.8894 267.752 88.2201 267.46 88.8816V94.3191ZM275.679 89.5847C275.679 89.0118 275.53 88.5509 275.234 88.2019C274.937 87.8477 274.51 87.6707 273.952 87.6707C273.494 87.6707 273.098 87.8634 272.765 88.2488C272.437 88.6342 272.234 89.1264 272.155 89.7253L272.171 89.7644H275.679V89.5847ZM274.163 94.4753C273.106 94.4753 272.262 94.1264 271.632 93.4285C271.007 92.7306 270.695 91.8113 270.695 90.6707V90.3582C270.695 89.2904 271.012 88.3946 271.648 87.6707C272.288 86.9415 273.057 86.5769 273.952 86.5769C274.963 86.5769 275.734 86.8816 276.265 87.491C276.801 88.0951 277.07 88.9259 277.07 89.9832V90.8503H272.132L272.109 90.8816C272.124 91.6316 272.312 92.2384 272.671 92.7019C273.036 93.1602 273.533 93.3894 274.163 93.3894C275.049 93.3894 275.767 93.1394 276.32 92.6394L276.866 93.5378H276.859C276.223 94.1628 275.325 94.4753 274.163 94.4753ZM281.468 93.3738C281.958 93.3738 282.343 93.2774 282.624 93.0847C282.905 92.8868 283.046 92.6264 283.046 92.3035C283.046 91.9806 282.926 91.7253 282.687 91.5378C282.447 91.3451 282.012 91.1759 281.382 91.03C280.424 90.8217 279.718 90.5457 279.265 90.2019C278.817 89.8529 278.593 89.3738 278.593 88.7644C278.593 88.155 278.859 87.6368 279.39 87.2097C279.921 86.7774 280.614 86.5613 281.468 86.5613C282.322 86.5613 283.012 86.7878 283.538 87.241C284.07 87.6889 284.322 88.2462 284.296 88.9128L284.28 88.9519H282.96C282.96 88.6029 282.817 88.3009 282.53 88.0457C282.249 87.7904 281.877 87.6628 281.413 87.6628C280.955 87.6628 280.601 87.767 280.351 87.9753C280.101 88.1785 279.976 88.4389 279.976 88.7566C279.976 89.0743 280.085 89.3165 280.304 89.4832C280.523 89.6498 280.952 89.8009 281.593 89.9363C282.572 90.1498 283.291 90.4363 283.749 90.7957C284.208 91.1498 284.437 91.6212 284.437 92.2097C284.437 92.8868 284.163 93.4337 283.616 93.8503C283.075 94.267 282.346 94.4753 281.429 94.4753C280.512 94.4753 279.77 94.2358 279.202 93.7566C278.64 93.2774 278.372 92.6967 278.398 92.0144L278.413 91.9753H279.734C279.76 92.4441 279.934 92.7983 280.257 93.0378C280.585 93.2722 280.994 93.3894 281.484 93.3894L281.468 93.3738ZM290.78 97.7253C290.583 97.7253 290.309 97.6889 289.96 97.616L290.101 96.5222C290.445 96.5483 290.65 96.5613 290.718 96.5613C290.989 96.5613 291.215 96.4467 291.398 96.2175C291.585 95.9884 291.754 95.6811 291.905 95.2957L292.234 94.4988L289.405 87.0457H290.952L292.57 91.8347L292.812 92.7878H292.859L294.726 87.0457H296.265L293.07 95.8191C292.585 97.0899 291.822 97.7253 290.78 97.7253ZM298.546 90.4519V90.6082C298.546 91.4519 298.718 92.1264 299.062 92.6316C299.411 93.1368 299.911 93.3894 300.562 93.3894C301.213 93.3894 301.713 93.1368 302.062 92.6316C302.411 92.1212 302.585 91.4467 302.585 90.6082V90.4519C302.585 89.6238 302.408 88.9545 302.054 88.4441C301.705 87.9285 301.205 87.6707 300.554 87.6707C299.908 87.6707 299.411 87.9285 299.062 88.4441C298.718 88.9545 298.546 89.6238 298.546 90.4519ZM297.155 90.6082V90.4519C297.155 89.3061 297.463 88.3738 298.077 87.655C298.692 86.9363 299.52 86.5769 300.562 86.5769C301.603 86.5769 302.432 86.9363 303.046 87.655C303.661 88.3686 303.968 89.3009 303.968 90.4519V90.6082C303.968 91.7644 303.661 92.6993 303.046 93.4128C302.437 94.1212 301.609 94.4753 300.562 94.4753C299.52 94.4753 298.692 94.1186 298.077 93.405C297.463 92.6915 297.155 91.7592 297.155 90.6082ZM308.28 94.4753C307.426 94.4753 306.773 94.2071 306.32 93.6707C305.866 93.129 305.64 92.3061 305.64 91.2019V86.7175H307.023V91.2175C307.023 92.0144 307.137 92.5691 307.366 92.8816C307.601 93.1941 307.978 93.3503 308.499 93.3503C309.452 93.3503 310.103 92.9675 310.452 92.2019V86.7175H311.835V94.3269H310.593L310.499 93.2019C309.999 94.0509 309.26 94.4753 308.28 94.4753ZM318.359 84.8816H319.757V86.7175H321.195V87.7488H319.757V92.366C319.757 93.0118 320.025 93.3347 320.562 93.3347C320.728 93.3347 320.9 93.3035 321.077 93.241L321.257 94.1863C321.007 94.379 320.655 94.4753 320.202 94.4753C319.619 94.4753 319.166 94.3009 318.843 93.9519C318.52 93.6029 318.359 93.0743 318.359 92.366V87.7488H317.155V86.7175H318.359V84.8816ZM323.968 90.4519V90.6082C323.968 91.4519 324.14 92.1264 324.484 92.6316C324.833 93.1368 325.333 93.3894 325.984 93.3894C326.635 93.3894 327.135 93.1368 327.484 92.6316C327.833 92.1212 328.007 91.4467 328.007 90.6082V90.4519C328.007 89.6238 327.83 88.9545 327.476 88.4441C327.127 87.9285 326.627 87.6707 325.976 87.6707C325.33 87.6707 324.833 87.9285 324.484 88.4441C324.14 88.9545 323.968 89.6238 323.968 90.4519ZM322.577 90.6082V90.4519C322.577 89.3061 322.885 88.3738 323.499 87.655C324.114 86.9363 324.942 86.5769 325.984 86.5769C327.025 86.5769 327.853 86.9363 328.468 87.655C329.083 88.3686 329.39 89.3009 329.39 90.4519V90.6082C329.39 91.7644 329.083 92.6993 328.468 93.4128C327.859 94.1212 327.03 94.4753 325.984 94.4753C324.942 94.4753 324.114 94.1186 323.499 93.405C322.885 92.6915 322.577 91.7592 322.577 90.6082ZM336.648 86.7019V94.3113H335.265V86.7019H336.648ZM336.648 83.3425V84.7566H335.265V83.3425H336.648ZM338.78 86.7019H340.015L340.116 87.8347C340.642 86.9858 341.395 86.5613 342.374 86.5613C343.208 86.5613 343.846 86.8061 344.288 87.2957C344.731 87.78 344.952 88.517 344.952 89.5066V94.3113H343.57V89.5378C343.57 88.8764 343.439 88.4024 343.179 88.116C342.918 87.8295 342.512 87.6863 341.96 87.6863C341.564 87.6863 341.213 87.78 340.905 87.9675C340.598 88.155 340.351 88.4207 340.163 88.7644V94.3113H338.78V86.7019ZM353.452 90.9753V91.1238C353.452 92.2332 353.187 93.1212 352.655 93.7878C352.129 94.4493 351.405 94.78 350.484 94.78C349.562 94.78 348.851 94.4675 348.351 93.8425V97.5613H346.968V87.03H348.03L348.249 88.0144C348.754 87.2644 349.484 86.8894 350.437 86.8894C351.395 86.8894 352.137 87.2592 352.663 87.9988C353.189 88.7332 353.452 89.7253 353.452 90.9753ZM352.062 91.1238V90.9753C352.062 90.0795 351.887 89.3634 351.538 88.8269C351.195 88.2852 350.7 88.0144 350.054 88.0144C349.288 88.0144 348.721 88.3503 348.351 89.0222V92.7019C348.715 93.3686 349.288 93.7019 350.07 93.7019C350.71 93.7019 351.202 93.4675 351.546 92.9988C351.89 92.53 352.062 91.905 352.062 91.1238ZM357.765 94.4753C356.911 94.4753 356.257 94.2071 355.804 93.6707C355.351 93.129 355.124 92.3061 355.124 91.2019V86.7175H356.507V91.2175C356.507 92.0144 356.622 92.5691 356.851 92.8816C357.085 93.1941 357.463 93.3503 357.984 93.3503C358.937 93.3503 359.588 92.9675 359.937 92.2019V86.7175H361.32V94.3269H360.077L359.984 93.2019C359.484 94.0509 358.744 94.4753 357.765 94.4753ZM363.78 84.8816H365.179V86.7175H366.616V87.7488H365.179V92.366C365.179 93.0118 365.447 93.3347 365.984 93.3347C366.15 93.3347 366.322 93.3035 366.499 93.241L366.679 94.1863C366.429 94.379 366.077 94.4753 365.624 94.4753C365.041 94.4753 364.588 94.3009 364.265 93.9519C363.942 93.6029 363.78 93.0743 363.78 92.366V87.7488H362.577V86.7175H363.78V84.8816ZM369.585 93.03V94.3113H368.343V93.03H369.585ZM369.585 86.8738V88.155H368.343V86.8738H369.585Z" fill="#333333"/>
<path d="M138.47 39.4901C138.47 42.1648 137.408 44.7299 135.516 46.6212C133.625 48.5125 131.06 49.575 128.385 49.575C125.71 49.575 123.145 48.5125 121.254 46.6212C119.363 44.7299 118.3 42.1648 118.3 39.4901C118.3 36.8155 119.363 34.2503 121.254 32.359C123.145 30.4678 125.71 29.4053 128.385 29.4053C129.343 29.4053 130.276 29.5439 131.158 29.796L133.138 27.8169C131.675 27.2118 130.074 26.884 128.385 26.884C126.73 26.884 125.09 27.2101 123.561 27.8436C122.032 28.4771 120.642 29.4057 119.471 30.5763C117.107 32.9404 115.779 36.1468 115.779 39.4901C115.779 42.8335 117.107 46.0399 119.471 48.404C120.642 49.5746 122.032 50.5031 123.561 51.1367C125.09 51.7702 126.73 52.0962 128.385 52.0962C131.728 52.0962 134.935 50.7681 137.299 48.404C139.663 46.0399 140.991 42.8335 140.991 39.4901H138.47ZM123.229 37.0698L121.452 38.8598L127.125 44.5326L139.731 31.9265L137.953 30.1364L127.125 40.965L123.229 37.0698Z" fill="#4482F0"/>
<path d="M154.946 38.4724V39.6687H151.022V43.49H149.525V34.5349H155.575V35.7312H151.022V38.4724H154.946ZM160.244 43.6335C159.155 43.6335 158.264 43.294 157.571 42.615C156.878 41.9314 156.532 41.0473 156.532 39.9626V38.0896C156.532 37.0004 156.86 36.1163 157.516 35.4373C158.173 34.7582 159.023 34.4187 160.066 34.4187C161.114 34.4187 161.932 34.6739 162.52 35.1843C163.108 35.6902 163.409 36.3692 163.423 37.2214L163.409 37.2625H161.994C161.962 36.752 161.784 36.351 161.461 36.0593C161.142 35.7631 160.679 35.615 160.073 35.615C159.471 35.615 158.979 35.8451 158.596 36.3054C158.218 36.7657 158.029 37.3559 158.029 38.0759V39.9626C158.029 40.6918 158.234 41.2865 158.644 41.7468C159.059 42.2071 159.594 42.4373 160.251 42.4373C161.108 42.4373 161.698 42.255 162.021 41.8904V40.072H160.244V38.9509H163.518L163.511 42.2937C163.238 42.6765 162.823 42.9955 162.267 43.2507C161.716 43.5059 161.041 43.6335 160.244 43.6335ZM168.221 35.7312H166.854V42.2937H168.221C168.955 42.2937 169.536 42.0567 169.965 41.5828C170.393 41.1042 170.607 40.4753 170.607 39.696V38.322C170.607 37.5473 170.393 36.9229 169.965 36.449C169.536 35.9705 168.955 35.7312 168.221 35.7312ZM168.262 43.49H165.357V34.5349H168.262C169.402 34.5349 170.327 34.8881 171.038 35.5945C171.749 36.3009 172.104 37.2146 172.104 38.3357V39.696C172.104 40.8171 171.749 41.7309 171.038 42.4373C170.327 43.1391 169.402 43.49 168.262 43.49ZM175.139 35.7312V38.8962H177.142C177.685 38.8962 178.097 38.7527 178.38 38.4656C178.667 38.1785 178.81 37.7979 178.81 37.324C178.81 36.8455 178.667 36.4604 178.38 36.1687C178.093 35.877 177.68 35.7312 177.142 35.7312H175.139ZM177.142 40.0925H175.139V43.49H173.642V34.5349H177.142C178.127 34.5349 178.899 34.7878 179.46 35.2937C180.025 35.795 180.307 36.4695 180.307 37.3171C180.307 38.1648 180.027 38.8393 179.467 39.3406C178.906 39.8419 178.131 40.0925 177.142 40.0925Z" fill="#4482F0"/>
<path d="M244.831 39.4901C244.831 42.1648 243.768 44.7299 241.877 46.6212C239.986 48.5125 237.421 49.575 234.746 49.575C232.071 49.575 229.506 48.5125 227.615 46.6212C225.724 44.7299 224.661 42.1648 224.661 39.4901C224.661 36.8155 225.724 34.2503 227.615 32.359C229.506 30.4678 232.071 29.4053 234.746 29.4053C235.704 29.4053 236.637 29.5439 237.519 29.796L239.498 27.8169C238.036 27.2118 236.435 26.884 234.746 26.884C233.091 26.884 231.451 27.2101 229.922 27.8436C228.392 28.4771 227.003 29.4057 225.832 30.5763C223.468 32.9404 222.14 36.1468 222.14 39.4901C222.14 42.8335 223.468 46.0399 225.832 48.404C227.003 49.5746 228.392 50.5031 229.922 51.1367C231.451 51.7702 233.091 52.0962 234.746 52.0962C238.089 52.0962 241.296 50.7681 243.66 48.404C246.024 46.0399 247.352 42.8335 247.352 39.4901H244.831ZM229.59 37.0698L227.813 38.8598L233.485 44.5326L246.091 31.9265L244.314 30.1364L233.485 40.965L229.59 37.0698Z" fill="#4F4F4F"/>
<path d="M259.29 43.6335C258.201 43.6335 257.31 43.294 256.617 42.615C255.925 41.9314 255.578 41.0473 255.578 39.9626V38.0896C255.578 37.0004 255.906 36.1163 256.563 35.4373C257.219 34.7582 258.069 34.4187 259.113 34.4187C260.161 34.4187 260.979 34.6739 261.567 35.1843C262.155 35.6902 262.455 36.3692 262.469 37.2214L262.455 37.2625H261.04C261.008 36.752 260.831 36.351 260.507 36.0593C260.188 35.7631 259.726 35.615 259.119 35.615C258.518 35.615 258.026 35.8451 257.643 36.3054C257.265 36.7657 257.075 37.3559 257.075 38.0759V39.9626C257.075 40.6918 257.281 41.2865 257.691 41.7468C258.105 42.2071 258.641 42.4373 259.297 42.4373C260.154 42.4373 260.744 42.255 261.068 41.8904V40.072H259.29V38.9509H262.565L262.558 42.2937C262.284 42.6765 261.87 42.9955 261.314 43.2507C260.762 43.5059 260.088 43.6335 259.29 43.6335ZM267.268 35.7312H265.901V42.2937H267.268C268.002 42.2937 268.583 42.0567 269.011 41.5828C269.439 41.1042 269.654 40.4753 269.654 39.696V38.322C269.654 37.5473 269.439 36.9229 269.011 36.449C268.583 35.9705 268.002 35.7312 267.268 35.7312ZM267.309 43.49H264.404V34.5349H267.309C268.448 34.5349 269.373 34.8881 270.084 35.5945C270.795 36.3009 271.151 37.2146 271.151 38.3357V39.696C271.151 40.8171 270.795 41.7309 270.084 42.4373C269.373 43.1391 268.448 43.49 267.309 43.49ZM277.781 40.53H279.224L279.238 40.571C279.251 41.4916 278.955 42.2322 278.349 42.7927C277.743 43.3533 276.92 43.6335 275.881 43.6335C274.842 43.6335 273.994 43.2849 273.338 42.5876C272.686 41.8858 272.361 40.9835 272.361 39.8806V38.1785C272.361 37.0756 272.684 36.1733 273.331 35.4714C273.978 34.7696 274.826 34.4187 275.874 34.4187C276.922 34.4187 277.75 34.6967 278.356 35.2527C278.962 35.8041 279.258 36.5515 279.244 37.4949L279.231 37.5291H277.781C277.781 36.9184 277.617 36.4467 277.289 36.114C276.961 35.7813 276.487 35.615 275.867 35.615C275.252 35.615 274.762 35.8542 274.398 36.3328C274.038 36.8113 273.858 37.422 273.858 38.1648V39.8806C273.858 40.6326 274.042 41.2478 274.411 41.7263C274.781 42.2003 275.275 42.4373 275.895 42.4373C276.515 42.4373 276.984 42.2755 277.303 41.9519C277.622 41.6238 277.781 41.1498 277.781 40.53Z" fill="#4F4F4F"/>
<path d="M343.192 39.4901C343.192 42.1648 342.129 44.7299 340.238 46.6212C338.347 48.5125 335.782 49.575 333.107 49.575C330.432 49.575 327.867 48.5125 325.976 46.6212C324.084 44.7299 323.022 42.1648 323.022 39.4901C323.022 36.8155 324.084 34.2503 325.976 32.359C327.867 30.4678 330.432 29.4053 333.107 29.4053C334.065 29.4053 334.998 29.5439 335.88 29.796L337.859 27.8169C336.397 27.2118 334.796 26.884 333.107 26.884C331.451 26.884 329.812 27.2101 328.283 27.8436C326.753 28.4771 325.364 29.4057 324.193 30.5763C321.829 32.9404 320.501 36.1468 320.501 39.4901C320.501 42.8335 321.829 46.0399 324.193 48.404C325.364 49.5746 326.753 50.5031 328.283 51.1367C329.812 51.7702 331.451 52.0962 333.107 52.0962C336.45 52.0962 339.657 50.7681 342.021 48.404C344.385 46.0399 345.713 42.8335 345.713 39.4901H343.192ZM327.951 37.0698L326.173 38.8598L331.846 44.5326L344.452 31.9265L342.675 30.1364L331.846 40.965L327.951 37.0698Z" fill="#4F4F4F"/>
<path d="M361.24 34.5349V43.49H359.757L355.778 36.948L355.744 36.9617V43.49H354.247V34.5349H355.744L359.716 41.0632L359.757 41.0564V34.5349H361.24ZM370.195 34.5349V43.49H368.712V39.6687H364.699V43.49H363.202V34.5349H364.699V38.4724H368.712V34.5349H370.195ZM375.267 42.4509C375.819 42.4509 376.247 42.3416 376.552 42.1228C376.862 41.8995 377.017 41.5964 377.017 41.2136C377.017 40.8308 376.876 40.5209 376.594 40.2839C376.316 40.047 375.83 39.835 375.137 39.6482C374.094 39.3702 373.312 39.0147 372.793 38.5818C372.273 38.1443 372.013 37.5746 372.013 36.8728C372.013 36.1664 372.312 35.5808 372.909 35.116C373.506 34.6511 374.283 34.4187 375.24 34.4187C376.197 34.4187 376.976 34.6785 377.578 35.198C378.184 35.7175 378.478 36.3578 378.46 37.1189L378.446 37.1531H377.01C377.01 36.6837 376.853 36.31 376.539 36.032C376.224 35.7494 375.789 35.6082 375.233 35.6082C374.682 35.6082 374.256 35.7266 373.955 35.9636C373.659 36.196 373.51 36.4945 373.51 36.8591C373.51 37.2192 373.668 37.5108 373.982 37.7341C374.297 37.9574 374.825 38.1716 375.568 38.3767C376.552 38.641 377.288 39.0033 377.776 39.4636C378.268 39.9194 378.514 40.5072 378.514 41.2273C378.514 41.9473 378.218 42.5284 377.626 42.9705C377.033 43.4125 376.247 43.6335 375.267 43.6335C374.798 43.6335 374.349 43.5697 373.921 43.4421C373.497 43.31 373.123 43.1277 372.8 42.8953C372.476 42.6628 372.221 42.3712 372.034 42.0203C371.847 41.6648 371.758 41.2774 371.767 40.8582L371.781 40.824H373.223C373.223 41.3526 373.406 41.7559 373.77 42.0339C374.135 42.3074 374.632 42.4441 375.26 42.4441L375.267 42.4509Z" fill="#4F4F4F"/>
<path d="M66.9797 135.757V129.283H68.1965V135.757C68.1965 136.554 67.9459 137.19 67.4446 137.664C66.9433 138.133 66.2665 138.368 65.4143 138.368C64.5667 138.368 63.8922 138.147 63.3909 137.705C62.8941 137.263 62.6549 136.632 62.6731 135.811L62.6868 135.77H63.8489C63.8489 136.317 63.9879 136.73 64.2659 137.008C64.5439 137.281 64.9244 137.418 65.4075 137.418C65.8951 137.418 66.2779 137.267 66.5559 136.967C66.8385 136.666 66.9797 136.262 66.9797 135.757ZM72.3938 138.368C71.6464 138.368 71.0745 138.133 70.678 137.664C70.2815 137.19 70.0833 136.47 70.0833 135.504V131.58H71.2932V135.517C71.2932 136.215 71.3935 136.7 71.594 136.973C71.7991 137.247 72.1295 137.384 72.5852 137.384C73.4192 137.384 73.9889 137.049 74.2942 136.379V131.58H75.5042V138.238H74.4172L74.3352 137.254C73.8977 137.997 73.2506 138.368 72.3938 138.368ZM79.7493 137.404C80.1777 137.404 80.5149 137.32 80.761 137.151C81.0071 136.978 81.1301 136.75 81.1301 136.468C81.1301 136.185 81.0253 135.962 80.8157 135.798C80.606 135.629 80.2255 135.481 79.6741 135.353C78.8355 135.171 78.218 134.929 77.8215 134.629C77.4296 134.323 77.2336 133.904 77.2336 133.371C77.2336 132.838 77.4661 132.384 77.9309 132.01C78.3958 131.632 79.0019 131.443 79.7493 131.443C80.4967 131.443 81.1005 131.641 81.5608 132.038C82.0256 132.43 82.2467 132.917 82.2239 133.501L82.2102 133.535H81.0549C81.0549 133.23 80.9296 132.965 80.679 132.742C80.4329 132.519 80.107 132.407 79.7014 132.407C79.3004 132.407 78.9905 132.498 78.7717 132.68C78.553 132.858 78.4436 133.086 78.4436 133.364C78.4436 133.642 78.5393 133.854 78.7307 134C78.9221 134.146 79.2981 134.278 79.8586 134.396C80.7154 134.583 81.3443 134.834 81.7454 135.148C82.1464 135.458 82.3469 135.871 82.3469 136.385C82.3469 136.978 82.1077 137.456 81.6292 137.821C81.1552 138.186 80.5172 138.368 79.7151 138.368C78.913 138.368 78.2636 138.158 77.7668 137.739C77.2747 137.32 77.04 136.812 77.0627 136.215L77.0764 136.18H78.2317C78.2545 136.591 78.4071 136.9 78.6897 137.11C78.9768 137.315 79.3346 137.418 79.7629 137.418L79.7493 137.404ZM84.2473 129.973H85.4709V131.58H86.7288V132.482H85.4709V136.522C85.4709 137.087 85.7056 137.37 86.175 137.37C86.3209 137.37 86.4713 137.343 86.6262 137.288L86.7834 138.115C86.5647 138.284 86.2571 138.368 85.8606 138.368C85.3502 138.368 84.9537 138.215 84.6711 137.91C84.3886 137.605 84.2473 137.142 84.2473 136.522V132.482H83.1946V131.58H84.2473V129.973ZM89.5315 131.566V138.224H88.3215V131.566H89.5315ZM89.5315 128.627V129.864H88.3215V128.627H89.5315ZM93.1135 138.224H91.8967V132.469H90.8508V131.566H91.8967V130.725C91.8967 130.014 92.079 129.465 92.4436 129.078C92.8127 128.691 93.3323 128.497 94.0022 128.497C94.2346 128.497 94.5354 128.54 94.9045 128.627L94.7542 129.55C94.581 129.509 94.3827 129.488 94.1594 129.488C93.4622 129.488 93.1135 129.9 93.1135 130.725V131.566H94.4944V132.469H93.1135V138.224ZM97.051 131.566V138.224H95.8411V131.566H97.051ZM97.051 128.627V129.864H95.8411V128.627H97.051ZM99.8538 135.039C99.8538 135.754 99.9859 136.319 100.25 136.734C100.537 137.19 100.995 137.418 101.624 137.418C102.034 137.418 102.39 137.292 102.691 137.042C102.991 136.791 103.142 136.488 103.142 136.133H104.229L104.242 136.174C104.265 136.752 104.012 137.263 103.484 137.705C102.955 138.147 102.335 138.368 101.624 138.368C100.676 138.368 99.9403 138.06 99.4163 137.445C98.8922 136.83 98.6301 136.028 98.6301 135.039V134.779C98.6301 133.795 98.8922 132.995 99.4163 132.38C99.9449 131.764 100.681 131.457 101.624 131.457C102.399 131.457 103.035 131.685 103.531 132.14C104.028 132.596 104.267 133.163 104.249 133.843L104.236 133.877H103.142C103.142 133.467 102.998 133.12 102.711 132.838C102.424 132.555 102.066 132.414 101.638 132.414C101.214 132.414 100.865 132.521 100.592 132.735C100.323 132.949 100.132 133.227 100.018 133.569C99.9084 133.911 99.8538 134.314 99.8538 134.779V135.039ZM107.496 138.368C106.804 138.368 106.275 138.192 105.91 137.842C105.546 137.491 105.364 136.998 105.364 136.365C105.364 135.732 105.619 135.235 106.129 134.875C106.64 134.515 107.341 134.335 108.235 134.335H109.547V133.678C109.547 133.287 109.426 132.979 109.185 132.756C108.948 132.528 108.624 132.414 108.214 132.414C107.809 132.414 107.483 132.512 107.237 132.708C106.99 132.899 106.867 133.138 106.867 133.426H105.712L105.698 133.391C105.676 132.89 105.908 132.443 106.396 132.052C106.888 131.655 107.512 131.457 108.269 131.457C109.03 131.457 109.636 131.653 110.087 132.045C110.538 132.432 110.764 132.981 110.764 133.692V136.898C110.764 137.413 110.821 137.86 110.935 138.238H109.684C109.597 137.814 109.552 137.482 109.547 137.24C109.31 137.577 109.009 137.851 108.645 138.06C108.285 138.265 107.902 138.368 107.496 138.368ZM106.587 136.392H106.58C106.58 136.693 106.674 136.928 106.861 137.096C107.047 137.265 107.337 137.349 107.729 137.349C108.121 137.349 108.494 137.24 108.85 137.021C109.21 136.798 109.445 136.538 109.554 136.242V135.155H108.2C107.717 135.155 107.328 135.276 107.031 135.517C106.735 135.754 106.587 136.046 106.587 136.392ZM112.917 129.973H114.141V131.58H115.399V132.482H114.141V136.522C114.141 137.087 114.376 137.37 114.845 137.37C114.991 137.37 115.141 137.343 115.296 137.288L115.453 138.115C115.235 138.284 114.927 138.368 114.531 138.368C114.02 138.368 113.624 138.215 113.341 137.91C113.059 137.605 112.917 137.142 112.917 136.522V132.482H111.865V131.58H112.917V129.973ZM118.201 131.566V138.224H116.991V131.566H118.201ZM118.201 128.627V129.864H116.991V128.627H118.201ZM120.997 134.847V134.984C120.997 135.722 121.148 136.313 121.448 136.755C121.754 137.197 122.191 137.418 122.761 137.418C123.331 137.418 123.768 137.197 124.073 136.755C124.379 136.308 124.531 135.718 124.531 134.984V134.847C124.531 134.123 124.377 133.537 124.067 133.091C123.761 132.639 123.324 132.414 122.754 132.414C122.189 132.414 121.754 132.639 121.448 133.091C121.148 133.537 120.997 134.123 120.997 134.847ZM119.781 134.984V134.847C119.781 133.845 120.049 133.029 120.587 132.4C121.125 131.771 121.85 131.457 122.761 131.457C123.672 131.457 124.397 131.771 124.935 132.4C125.473 133.024 125.741 133.84 125.741 134.847V134.984C125.741 135.996 125.473 136.814 124.935 137.438C124.402 138.058 123.677 138.368 122.761 138.368C121.85 138.368 121.125 138.056 120.587 137.431C120.049 136.807 119.781 135.991 119.781 134.984ZM127.232 131.566H128.312L128.401 132.557C128.861 131.815 129.519 131.443 130.376 131.443C131.105 131.443 131.664 131.657 132.051 132.086C132.438 132.51 132.632 133.154 132.632 134.02V138.224H131.422V134.048C131.422 133.469 131.308 133.054 131.08 132.803C130.852 132.553 130.497 132.427 130.014 132.427C129.668 132.427 129.36 132.51 129.091 132.674C128.822 132.838 128.606 133.07 128.442 133.371V138.224H127.232V131.566ZM135.496 137.103V138.224H134.409V137.103H135.496ZM135.496 131.717V132.838H134.409V131.717H135.496Z" fill="#333333"/>
<rect x="147.794" y="121.752" width="71.1974" height="24.944" rx="12.472" fill="#4482F0"/>
<path d="M113.122 160.094V161.045H110.244V169.05H109.034V161.045H106.163V160.094H113.122ZM114.695 172.037C114.521 172.037 114.282 172.005 113.977 171.941L114.1 170.984C114.401 171.007 114.581 171.018 114.64 171.018C114.877 171.018 115.075 170.918 115.235 170.718C115.399 170.517 115.547 170.248 115.679 169.911L115.966 169.214L113.491 162.692H114.845L116.26 166.883L116.472 167.717H116.513L118.147 162.692H119.493L116.698 170.369C116.274 171.481 115.606 172.037 114.695 172.037ZM126.234 166.131V166.26C126.234 167.231 126.001 168.008 125.536 168.592C125.076 169.17 124.443 169.46 123.636 169.46C122.829 169.46 122.207 169.186 121.77 168.639V171.893H120.56V162.678H121.49L121.681 163.54C122.123 162.884 122.761 162.555 123.595 162.555C124.434 162.555 125.083 162.879 125.543 163.526C126.003 164.169 126.234 165.037 126.234 166.131ZM125.017 166.26V166.131C125.017 165.347 124.864 164.72 124.559 164.251C124.258 163.777 123.825 163.54 123.26 163.54C122.59 163.54 122.093 163.834 121.77 164.422V167.641C122.089 168.225 122.59 168.516 123.274 168.516C123.834 168.516 124.265 168.311 124.566 167.901C124.866 167.491 125.017 166.944 125.017 166.26ZM131.805 164.914C131.805 164.413 131.675 164.009 131.415 163.704C131.156 163.394 130.782 163.239 130.294 163.239C129.893 163.239 129.547 163.408 129.255 163.745C128.968 164.082 128.79 164.513 128.722 165.037L128.736 165.071H131.805V164.914ZM130.479 169.193C129.554 169.193 128.815 168.888 128.264 168.277C127.717 167.666 127.444 166.862 127.444 165.864V165.591C127.444 164.656 127.722 163.872 128.278 163.239C128.838 162.601 129.51 162.282 130.294 162.282C131.178 162.282 131.853 162.549 132.318 163.082C132.787 163.61 133.022 164.337 133.022 165.262V166.021H128.701L128.681 166.049C128.695 166.705 128.859 167.236 129.173 167.641C129.492 168.042 129.927 168.243 130.479 168.243C131.253 168.243 131.882 168.024 132.365 167.587L132.844 168.373H132.837C132.281 168.92 131.495 169.193 130.479 169.193ZM135.496 167.928V169.05H134.409V167.928H135.496ZM135.496 162.542V163.663H134.409V162.542H135.496Z" fill="#333333"/>
<rect x="147.794" y="152.577" width="71.1974" height="24.944" rx="12.472" fill="#4482F0"/>
<rect x="225.665" y="245" width="71.1974" height="24.944" rx="12.472" fill="#4482F0"/>
<path d="M107.442 195.418V198.692C107.2 199.061 106.808 199.373 106.266 199.629C105.724 199.884 105.063 200.011 104.283 200.011C103.203 200.011 102.315 199.67 101.617 198.986C100.925 198.298 100.578 197.412 100.578 196.327V194.481C100.578 193.387 100.902 192.501 101.549 191.822C102.201 191.138 103.039 190.797 104.065 190.797C105.09 190.797 105.899 191.045 106.491 191.542C107.088 192.038 107.392 192.695 107.401 193.51L107.387 193.545H106.232C106.191 193.002 105.986 192.569 105.616 192.246C105.252 191.918 104.732 191.754 104.058 191.754C103.388 191.754 102.843 192.009 102.424 192.519C102.005 193.025 101.795 193.677 101.795 194.474V196.334C101.795 197.131 102.028 197.788 102.492 198.302C102.957 198.813 103.554 199.068 104.283 199.068C104.762 199.068 105.168 199.007 105.5 198.884C105.833 198.756 106.074 198.596 106.225 198.405V196.368H104.263V195.418H107.442ZM110.518 199.882H109.308V193.223H110.388L110.504 194.194C110.91 193.46 111.461 193.094 112.158 193.094C112.323 193.094 112.477 193.116 112.623 193.162L112.459 194.297L111.837 194.256C111.213 194.256 110.773 194.545 110.518 195.124V199.882ZM115.522 200.018C114.829 200.018 114.3 199.843 113.936 199.492C113.571 199.141 113.389 198.649 113.389 198.015C113.389 197.382 113.644 196.885 114.155 196.525C114.665 196.165 115.367 195.985 116.26 195.985H117.573V195.329C117.573 194.937 117.452 194.629 117.21 194.406C116.973 194.178 116.65 194.064 116.24 194.064C115.834 194.064 115.508 194.162 115.262 194.358C115.016 194.55 114.893 194.789 114.893 195.076H113.738L113.724 195.042C113.701 194.54 113.934 194.094 114.421 193.702C114.913 193.305 115.538 193.107 116.294 193.107C117.055 193.107 117.661 193.303 118.113 193.695C118.564 194.082 118.789 194.632 118.789 195.343V198.549C118.789 199.064 118.846 199.51 118.96 199.888H117.709C117.623 199.465 117.577 199.132 117.573 198.89C117.336 199.228 117.035 199.501 116.67 199.711C116.31 199.916 115.927 200.018 115.522 200.018ZM114.613 198.043H114.606C114.606 198.344 114.699 198.578 114.886 198.747C115.073 198.915 115.362 199 115.754 199C116.146 199 116.52 198.89 116.875 198.672C117.235 198.448 117.47 198.189 117.579 197.892V196.805H116.226C115.743 196.805 115.353 196.926 115.057 197.168C114.761 197.405 114.613 197.696 114.613 198.043ZM120.273 196.682C120.273 195.593 120.503 194.725 120.963 194.078C121.423 193.431 122.052 193.107 122.85 193.107C123.647 193.107 124.26 193.39 124.689 193.955V190.291H125.906V199.888H124.914L124.771 199.068C124.329 199.702 123.7 200.018 122.884 200.018C122.068 200.018 121.43 199.729 120.97 199.15C120.51 198.567 120.28 197.788 120.28 196.812L120.273 196.682ZM121.496 196.682V196.812C121.496 197.51 121.635 198.054 121.913 198.446C122.196 198.838 122.62 199.034 123.185 199.034C123.868 199.034 124.374 198.722 124.702 198.097V194.994C124.365 194.392 123.864 194.092 123.198 194.092C122.629 194.092 122.203 194.324 121.92 194.789C121.638 195.249 121.496 195.88 121.496 196.682ZM131.805 195.739C131.805 195.238 131.675 194.834 131.415 194.529C131.156 194.219 130.782 194.064 130.294 194.064C129.893 194.064 129.547 194.233 129.255 194.57C128.968 194.907 128.79 195.338 128.722 195.862L128.736 195.896H131.805V195.739ZM130.479 200.018C129.554 200.018 128.815 199.713 128.264 199.102C127.717 198.492 127.444 197.687 127.444 196.689V196.416C127.444 195.482 127.722 194.698 128.278 194.064C128.838 193.426 129.51 193.107 130.294 193.107C131.178 193.107 131.853 193.374 132.318 193.907C132.787 194.436 133.022 195.163 133.022 196.088V196.846H128.701L128.681 196.874C128.695 197.53 128.859 198.061 129.173 198.467C129.492 198.868 129.927 199.068 130.479 199.068C131.253 199.068 131.882 198.849 132.365 198.412L132.844 199.198H132.837C132.281 199.745 131.495 200.018 130.479 200.018ZM135.496 198.754V199.875H134.409V198.754H135.496ZM135.496 193.367V194.488H134.409V193.367H135.496Z" fill="#333333"/>
<rect x="147.794" y="183.403" width="71.1974" height="24.944" rx="12.472" fill="#4482F0"/>
<path d="M87.1526 225.594V226.544H83.0442V229.75H87.7747V230.7H81.8342V221.745H87.7131V222.695H83.0442V225.594H87.1526ZM89.8391 224.042L91.2336 226.496L92.6487 224.042H94.0637L91.9036 227.337L94.1252 230.7H92.7375L91.261 228.184L89.7844 230.7H88.3762L90.5979 227.337L88.4377 224.042H89.8391ZM100.995 227.781V227.911C100.995 228.882 100.763 229.659 100.298 230.242C99.8378 230.821 99.2043 231.11 98.3977 231.11C97.5911 231.11 96.969 230.837 96.5315 230.29V233.544H95.3215V224.329H96.2512L96.4426 225.19C96.8847 224.534 97.5227 224.206 98.3567 224.206C99.1952 224.206 99.8446 224.529 100.305 225.177C100.765 225.819 100.995 226.687 100.995 227.781ZM99.7786 227.911V227.781C99.7786 226.997 99.6259 226.371 99.3206 225.901C99.0198 225.427 98.5868 225.19 98.0217 225.19C97.3518 225.19 96.8551 225.484 96.5315 226.072V229.292C96.8505 229.875 97.3518 230.167 98.0354 230.167C98.5959 230.167 99.0266 229.962 99.3274 229.552C99.6282 229.141 99.7786 228.594 99.7786 227.911ZM103.415 227.323V227.46C103.415 228.198 103.566 228.788 103.866 229.23C104.172 229.672 104.609 229.893 105.179 229.893C105.749 229.893 106.186 229.672 106.491 229.23C106.797 228.784 106.949 228.193 106.949 227.46V227.323C106.949 226.598 106.795 226.013 106.485 225.566C106.179 225.115 105.742 224.889 105.172 224.889C104.607 224.889 104.172 225.115 103.866 225.566C103.566 226.013 103.415 226.598 103.415 227.323ZM102.198 227.46V227.323C102.198 226.32 102.467 225.505 103.005 224.876C103.543 224.247 104.267 223.932 105.179 223.932C106.09 223.932 106.815 224.247 107.353 224.876C107.891 225.5 108.159 226.316 108.159 227.323V227.46C108.159 228.471 107.891 229.289 107.353 229.914C106.82 230.534 106.095 230.844 105.179 230.844C104.267 230.844 103.543 230.531 103.005 229.907C102.467 229.283 102.198 228.467 102.198 227.46ZM112.124 229.88C112.553 229.88 112.89 229.795 113.136 229.627C113.382 229.454 113.505 229.226 113.505 228.943C113.505 228.661 113.4 228.437 113.191 228.273C112.981 228.105 112.601 227.956 112.049 227.829C111.211 227.647 110.593 227.405 110.197 227.104C109.805 226.799 109.609 226.38 109.609 225.846C109.609 225.313 109.841 224.86 110.306 224.486C110.771 224.108 111.377 223.919 112.124 223.919C112.872 223.919 113.476 224.117 113.936 224.513C114.401 224.905 114.622 225.393 114.599 225.976L114.585 226.01H113.43C113.43 225.705 113.305 225.441 113.054 225.218C112.808 224.994 112.482 224.883 112.076 224.883C111.675 224.883 111.365 224.974 111.147 225.156C110.928 225.334 110.819 225.562 110.819 225.84C110.819 226.118 110.914 226.33 111.106 226.475C111.297 226.621 111.673 226.753 112.234 226.872C113.09 227.059 113.719 227.309 114.12 227.624C114.521 227.934 114.722 228.346 114.722 228.861C114.722 229.454 114.483 229.932 114.004 230.297C113.53 230.661 112.892 230.844 112.09 230.844C111.288 230.844 110.639 230.634 110.142 230.215C109.65 229.795 109.415 229.287 109.438 228.69L109.451 228.656H110.607C110.629 229.066 110.782 229.376 111.065 229.586C111.352 229.791 111.71 229.893 112.138 229.893L112.124 229.88ZM118.523 230.844C117.775 230.844 117.203 230.609 116.807 230.139C116.41 229.665 116.212 228.945 116.212 227.979V224.055H117.422V227.993C117.422 228.69 117.522 229.176 117.723 229.449C117.928 229.722 118.258 229.859 118.714 229.859C119.548 229.859 120.118 229.524 120.423 228.854V224.055H121.633V230.714H120.546L120.464 229.729C120.027 230.472 119.379 230.844 118.523 230.844ZM124.614 230.707H123.404V224.049H124.484L124.6 225.019C125.005 224.286 125.557 223.919 126.254 223.919C126.418 223.919 126.573 223.941 126.719 223.987L126.555 225.122L125.933 225.081C125.309 225.081 124.869 225.37 124.614 225.949V230.707ZM131.805 226.564C131.805 226.063 131.675 225.66 131.415 225.354C131.156 225.044 130.782 224.889 130.294 224.889C129.893 224.889 129.547 225.058 129.255 225.395C128.968 225.733 128.79 226.163 128.722 226.687L128.736 226.721H131.805V226.564ZM130.479 230.844C129.554 230.844 128.815 230.538 128.264 229.927C127.717 229.317 127.444 228.512 127.444 227.514V227.241C127.444 226.307 127.722 225.523 128.278 224.889C128.838 224.251 129.51 223.932 130.294 223.932C131.178 223.932 131.853 224.199 132.318 224.732C132.787 225.261 133.022 225.988 133.022 226.913V227.672H128.701L128.681 227.699C128.695 228.355 128.859 228.886 129.173 229.292C129.492 229.693 129.927 229.893 130.479 229.893C131.253 229.893 131.882 229.675 132.365 229.237L132.844 230.023H132.837C132.281 230.57 131.495 230.844 130.479 230.844ZM135.496 229.579V230.7H134.409V229.579H135.496ZM135.496 224.192V225.313H134.409V224.192H135.496Z" fill="#333333"/>
<rect x="147.794" y="214.228" width="71.1974" height="24.944" rx="12.472" fill="#4482F0"/>
<path d="M90.9875 256.61V257.56H86.8997V261.525H85.6897V252.57H91.6165V253.52H86.8997V256.61H90.9875ZM94.1116 254.867V261.525H92.9016V254.867H94.1116ZM94.1116 251.927V253.165H92.9016V251.927H94.1116ZM95.9778 254.867H97.0579L97.1467 255.858C97.607 255.115 98.2655 254.744 99.1223 254.744C99.8515 254.744 100.41 254.958 100.797 255.386C101.184 255.81 101.378 256.455 101.378 257.321V261.525H100.168V257.348C100.168 256.77 100.054 256.355 99.8264 256.104C99.5986 255.854 99.2431 255.728 98.76 255.728C98.4137 255.728 98.106 255.81 97.8372 255.974C97.5683 256.138 97.3518 256.371 97.1877 256.672V261.525H95.9778V254.867ZM102.855 258.333C102.855 257.244 103.085 256.375 103.545 255.728C104.005 255.081 104.634 254.758 105.432 254.758C106.229 254.758 106.842 255.04 107.271 255.605V251.941H108.488V261.539H107.496L107.353 260.719C106.911 261.352 106.282 261.669 105.466 261.669C104.65 261.669 104.012 261.379 103.552 260.801C103.092 260.217 102.862 259.438 102.862 258.463L102.855 258.333ZM104.078 258.333V258.463C104.078 259.16 104.217 259.705 104.495 260.096C104.778 260.488 105.202 260.684 105.767 260.684C106.45 260.684 106.956 260.372 107.284 259.748V256.644C106.947 256.043 106.446 255.742 105.781 255.742C105.211 255.742 104.785 255.974 104.502 256.439C104.22 256.899 104.078 257.531 104.078 258.333ZM111.612 254.867V261.525H110.402V254.867H111.612ZM111.612 251.927V253.165H110.402V251.927H111.612ZM113.478 254.867H114.558L114.647 255.858C115.107 255.115 115.766 254.744 116.622 254.744C117.351 254.744 117.91 254.958 118.297 255.386C118.684 255.81 118.878 256.455 118.878 257.321V261.525H117.668V257.348C117.668 256.77 117.554 256.355 117.326 256.104C117.099 255.854 116.743 255.728 116.26 255.728C115.914 255.728 115.606 255.81 115.337 255.974C115.068 256.138 114.852 256.371 114.688 256.672V261.525H113.478V254.867ZM120.375 258.75V258.62C120.375 257.531 120.61 256.663 121.079 256.015C121.549 255.368 122.196 255.045 123.021 255.045C123.85 255.045 124.486 255.375 124.928 256.036L125.078 255.168H126.042V261.86C126.042 262.717 125.794 263.373 125.297 263.829C124.805 264.285 124.089 264.512 123.151 264.512C122.827 264.512 122.481 264.467 122.112 264.376C121.742 264.289 121.417 264.171 121.134 264.02L121.442 263.077C121.66 263.2 121.922 263.3 122.228 263.378C122.538 263.455 122.841 263.494 123.137 263.494C123.725 263.494 124.153 263.362 124.422 263.097C124.696 262.833 124.832 262.421 124.832 261.86V261.108C124.39 261.673 123.77 261.956 122.973 261.956C122.18 261.956 121.549 261.664 121.079 261.081C120.61 260.493 120.375 259.716 120.375 258.75ZM121.585 258.62V258.75C121.585 259.438 121.729 259.98 122.016 260.377C122.308 260.773 122.736 260.971 123.301 260.971C123.994 260.971 124.506 260.652 124.839 260.014V256.952C124.493 256.337 123.985 256.029 123.315 256.029C122.75 256.029 122.319 256.264 122.023 256.733C121.731 257.198 121.585 257.827 121.585 258.62ZM130.281 260.705C130.709 260.705 131.046 260.621 131.292 260.452C131.538 260.279 131.661 260.051 131.661 259.768C131.661 259.486 131.557 259.262 131.347 259.098C131.137 258.93 130.757 258.782 130.205 258.654C129.367 258.472 128.749 258.23 128.353 257.929C127.961 257.624 127.765 257.205 127.765 256.672C127.765 256.138 127.997 255.685 128.462 255.311C128.927 254.933 129.533 254.744 130.281 254.744C131.028 254.744 131.632 254.942 132.092 255.339C132.557 255.731 132.778 256.218 132.755 256.802L132.741 256.836H131.586C131.586 256.53 131.461 256.266 131.21 256.043C130.964 255.819 130.638 255.708 130.233 255.708C129.832 255.708 129.522 255.799 129.303 255.981C129.084 256.159 128.975 256.387 128.975 256.665C128.975 256.943 129.071 257.155 129.262 257.301C129.453 257.446 129.829 257.579 130.39 257.697C131.247 257.884 131.876 258.135 132.277 258.449C132.678 258.759 132.878 259.171 132.878 259.686C132.878 260.279 132.639 260.757 132.16 261.122C131.686 261.486 131.048 261.669 130.246 261.669C129.444 261.669 128.795 261.459 128.298 261.04C127.806 260.621 127.571 260.112 127.594 259.515L127.608 259.481H128.763C128.786 259.891 128.938 260.201 129.221 260.411C129.508 260.616 129.866 260.719 130.294 260.719L130.281 260.705ZM135.496 260.404V261.525H134.409V260.404H135.496ZM135.496 255.017V256.138H134.409V255.017H135.496Z" fill="#333333"/>
<rect x="147.794" y="245.053" width="71.1974" height="24.944" rx="12.472" fill="#4482F0"/>
<rect x="331.631" y="129.637" width="121.67" height="132.476" rx="8" fill="#828282"/>
<path d="M403.547 199.248C403.29 199.248 403.03 199.216 402.773 199.153C401.654 198.874 400.765 198.016 400.452 196.911C398.23 189.061 394.723 182.912 392.464 182.912C390.207 182.912 386.699 189.061 384.477 196.911C384.163 198.016 383.274 198.874 382.156 199.153C381.037 199.424 379.855 199.086 379.065 198.26C375.037 194.046 375.265 186.115 375.305 185.227C375.303 183.054 375.777 180.246 376.715 176.987C377.067 175.759 376.833 174.44 376.068 173.366C375.901 173.132 375.741 172.897 375.588 172.662C373.348 169.243 372.163 165.16 372.163 160.854V158.878C372.163 151.556 379.797 149.623 383.834 149.623C387.795 149.623 390.723 151.52 392.464 153.083C394.206 151.52 397.134 149.623 401.095 149.623C405.132 149.623 412.766 151.556 412.766 158.88V160.856C412.766 165.162 411.581 169.245 409.341 172.664C409.19 172.896 409.03 173.131 408.863 173.366C408.099 174.442 407.864 175.761 408.216 176.986C409.152 180.246 409.626 183.052 409.626 185.325C409.662 186.117 409.892 194.046 405.863 198.259C405.255 198.898 404.411 199.248 403.547 199.248ZM383.835 154.135C383.548 154.137 376.675 154.229 376.675 158.881V160.856C376.675 164.283 377.605 167.511 379.362 170.192C379.486 170.382 379.612 170.569 379.745 170.757C381.306 172.954 381.782 175.68 381.049 178.232C380.241 181.049 379.813 183.501 379.813 185.326C379.752 186.828 379.907 190.298 380.979 192.939C382.91 187.128 386.758 178.404 392.465 178.404C398.167 178.404 402.015 187.122 403.946 192.93C405.022 190.261 405.176 186.754 405.117 185.423C405.114 183.499 404.688 181.047 403.878 178.23C403.145 175.677 403.621 172.952 405.184 170.752C405.315 170.567 405.442 170.382 405.563 170.195C407.325 167.509 408.255 164.281 408.255 160.855V158.879C408.255 154.248 401.436 154.135 401.093 154.133C396.899 154.135 394.341 157.64 394.317 157.676C393.473 158.888 391.457 158.888 390.613 157.676C390.519 157.545 388.033 154.135 383.835 154.135Z" fill="#FEFEFE"/>
<path d="M345.096 158.646C343.851 158.646 342.841 157.635 342.841 156.391V147.368C342.841 146.122 343.852 145.112 345.096 145.112H354.119C355.364 145.112 356.374 146.123 356.374 147.368C356.374 148.613 355.364 149.623 354.119 149.623H347.352V156.39C347.352 157.635 346.342 158.646 345.096 158.646Z" fill="#FEFEFE"/>
<path d="M439.834 203.759H430.812C429.566 203.759 428.556 202.748 428.556 201.504C428.556 200.258 429.567 199.248 430.812 199.248H437.579V192.481C437.579 191.236 438.589 190.226 439.834 190.226C441.079 190.226 442.09 191.236 442.09 192.481V201.504C442.09 202.748 441.079 203.759 439.834 203.759Z" fill="#FEFEFE"/>
<rect x="342.841" y="236.415" width="29.3226" height="4.4998" rx="2.2499" fill="#FEFEFE"/>
<rect x="342.841" y="247.098" width="29.3226" height="4.4998" rx="2.2499" fill="#FEFEFE"/>
<rect x="386.869" y="236.214" width="55.2204" height="15.3836" fill="#FEFEFE"/>
<defs>
<filter id="filter0_d" x="0" y="0.335205" width="494" height="314" filterUnits="userSpaceOnUse" color-interpolation-filters="sRGB">
<feFlood flood-opacity="0" result="BackgroundImageFix"/>
<feColorMatrix in="SourceAlpha" type="matrix" values="0 0 0 0 0 0 0 0 0 0 0 0 0 0 0 0 0 0 127 0"/>
<feOffset dx="1" dy="1"/>
<feGaussianBlur stdDeviation="3.5"/>
<feColorMatrix type="matrix" values="0 0 0 0 0.509804 0 0 0 0 0.509804 0 0 0 0 0.509804 0 0 0 0.15 0"/>
<feBlend mode="normal" in2="BackgroundImageFix" result="effect1_dropShadow"/>
<feBlend mode="normal" in="SourceGraphic" in2="effect1_dropShadow" result="shape"/>
</filter>
</defs>
</svg>
