<svg width="278" height="181" viewBox="0 0 278 181" fill="none" xmlns="http://www.w3.org/2000/svg">
<circle cx="139" cy="90.0391" r="90" fill="#F2F2F2"/>
<rect x="1.15942" y="29.3528" width="275.68" height="117.847" rx="7.5" fill="white" stroke="#BDBDBD"/>
<rect x="18.9883" y="104.505" width="113.891" height="27.3263" rx="13.6632" fill="#4482F0"/>
<path d="M45.5016 118.583H43.9386V121.505H42.7623V114.469H45.3619C46.1533 114.469 46.762 114.646 47.1881 115C47.6142 115.351 47.8273 115.856 47.8273 116.515C47.8273 117.242 47.4584 117.767 46.7208 118.089C47.4656 118.325 47.838 118.88 47.838 119.754V120.339C47.838 120.851 47.9508 121.202 48.1764 121.392V121.505H46.9679C46.7638 121.333 46.6617 120.941 46.6617 120.329V119.765C46.6617 119.399 46.5579 119.111 46.3502 118.9C46.1461 118.689 45.8632 118.583 45.5016 118.583ZM43.9386 115.409V117.643H45.3028C45.7719 117.643 46.1139 117.554 46.3287 117.375C46.5471 117.195 46.6564 116.922 46.6564 116.553C46.6564 116.184 46.5471 115.901 46.3287 115.704C46.1139 115.507 45.7916 115.409 45.3619 115.409H43.9386ZM54.229 117.396V118.336H51.1513V120.565H54.7231V121.505H49.975V114.469H54.6909V115.409H51.1513V117.396H54.229ZM58.8152 120.688C59.2485 120.688 59.5851 120.603 59.825 120.431C60.0685 120.255 60.1902 120.017 60.1902 119.716C60.1902 119.416 60.0792 119.172 59.8572 118.986C59.6388 118.8 59.2574 118.633 58.7132 118.486C57.8932 118.268 57.2791 117.989 56.8709 117.648C56.4627 117.305 56.2586 116.857 56.2586 116.306C56.2586 115.751 56.4931 115.291 56.9622 114.925C57.4313 114.56 58.0418 114.377 58.7937 114.377C59.5457 114.377 60.158 114.582 60.6306 114.99C61.1069 115.398 61.3378 115.901 61.3235 116.499L61.3128 116.526H60.1848C60.1848 116.157 60.0613 115.863 59.8142 115.645C59.5672 115.423 59.2252 115.312 58.7884 115.312C58.3551 115.312 58.0203 115.405 57.784 115.591C57.5512 115.774 57.4348 116.008 57.4348 116.295C57.4348 116.578 57.5584 116.807 57.8055 116.982C58.0525 117.158 58.4679 117.326 59.0515 117.487C59.825 117.695 60.4033 117.98 60.7864 118.341C61.1731 118.699 61.3665 119.161 61.3665 119.727C61.3665 120.293 61.1337 120.749 60.6682 121.097C60.2028 121.444 59.5851 121.618 58.8152 121.618C58.4464 121.618 58.0937 121.568 57.7571 121.467C57.4241 121.363 57.1305 121.22 56.8763 121.038C56.622 120.855 56.4215 120.626 56.2747 120.35C56.1279 120.071 56.0581 119.766 56.0652 119.437L56.076 119.41H57.2093C57.2093 119.826 57.3525 120.142 57.639 120.361C57.9254 120.576 58.3157 120.683 58.8098 120.683L58.8152 120.688ZM67.2633 119.179H68.3966L68.4073 119.211C68.4181 119.935 68.1853 120.517 67.7091 120.957C67.2329 121.397 66.5865 121.618 65.7701 121.618C64.9537 121.618 64.2877 121.344 63.7721 120.796C63.2601 120.244 63.004 119.535 63.004 118.669V117.332C63.004 116.465 63.2583 115.756 63.7667 115.205C64.2752 114.653 64.9412 114.377 65.7648 114.377C66.5883 114.377 67.2382 114.596 67.7145 115.033C68.1907 115.466 68.4235 116.053 68.4127 116.794L68.402 116.821H67.2633C67.2633 116.341 67.1344 115.971 66.8766 115.709C66.6188 115.448 66.2464 115.317 65.7594 115.317C65.276 115.317 64.8911 115.505 64.6046 115.881C64.3217 116.257 64.1803 116.737 64.1803 117.321V118.669C64.1803 119.26 64.3253 119.743 64.6154 120.119C64.9054 120.492 65.2939 120.678 65.7809 120.678C66.2679 120.678 66.6367 120.551 66.8873 120.296C67.138 120.039 67.2633 119.666 67.2633 119.179ZM75.7114 114.469V121.505H74.5459V118.502H71.393V121.505H70.2168V114.469H71.393V117.562H74.5459V114.469H75.7114ZM82.1668 117.396V118.336H79.0892V120.565H82.6609V121.505H77.9129V114.469H82.6287V115.409H79.0892V117.396H82.1668ZM86.5597 115.409H85.4855V120.565H86.5597C87.1362 120.565 87.5927 120.379 87.9293 120.006C88.2659 119.63 88.4342 119.136 88.4342 118.524V117.444C88.4342 116.836 88.2659 116.345 87.9293 115.973C87.5927 115.597 87.1362 115.409 86.5597 115.409ZM86.5919 121.505H84.3092V114.469H86.5919C87.4871 114.469 88.214 114.746 88.7726 115.301C89.3312 115.856 89.6105 116.574 89.6105 117.455V118.524C89.6105 119.405 89.3312 120.123 88.7726 120.678C88.214 121.229 87.4871 121.505 86.5919 121.505ZM95.6523 114.479H96.834V119.195C96.834 119.965 96.5833 120.561 96.082 120.984C95.5843 121.406 94.9183 121.618 94.084 121.618C93.2497 121.618 92.5872 121.406 92.0967 120.984C91.6061 120.558 91.3608 119.962 91.3608 119.195V114.479H92.5317V119.195C92.5317 119.682 92.666 120.051 92.9346 120.302C93.2067 120.552 93.588 120.678 94.0786 120.678C94.5692 120.678 94.9541 120.552 95.2334 120.302C95.5127 120.051 95.6523 119.682 95.6523 119.195V114.479ZM100.061 114.469V120.565H103.295V121.505H98.8851V114.469H100.061ZM109.159 117.396V118.336H106.082V120.565H109.653V121.505H104.905V114.469H109.621V115.409H106.082V117.396H109.159Z" fill="white"/>
<rect x="145.619" y="105.005" width="112.891" height="26.3263" rx="13.1632" fill="white" stroke="#828282"/>
<path d="M171.26 119.179H172.393L172.404 119.211C172.414 119.935 172.182 120.517 171.706 120.957C171.229 121.397 170.583 121.618 169.767 121.618C168.95 121.618 168.284 121.344 167.768 120.796C167.256 120.244 167 119.535 167 118.669V117.332C167 116.465 167.255 115.756 167.763 115.205C168.272 114.653 168.938 114.377 169.761 114.377C170.585 114.377 171.235 114.596 171.711 115.033C172.187 115.466 172.42 116.053 172.409 116.794L172.398 116.821H171.26C171.26 116.341 171.131 115.971 170.873 115.709C170.615 115.448 170.243 115.317 169.756 115.317C169.272 115.317 168.887 115.505 168.601 115.881C168.318 116.257 168.177 116.737 168.177 117.321V118.669C168.177 119.26 168.322 119.743 168.612 120.119C168.902 120.492 169.29 120.678 169.777 120.678C170.264 120.678 170.633 120.551 170.884 120.296C171.134 120.039 171.26 119.666 171.26 119.179ZM178.532 118.631V117.353C178.532 116.755 178.372 116.272 178.053 115.903C177.738 115.53 177.319 115.344 176.797 115.344C176.277 115.344 175.867 115.53 175.567 115.903C175.266 116.272 175.116 116.755 175.116 117.353V118.631C175.116 119.233 175.266 119.722 175.567 120.098C175.867 120.47 176.279 120.656 176.802 120.656C177.328 120.656 177.747 120.47 178.059 120.098C178.374 119.725 178.532 119.236 178.532 118.631ZM179.702 117.364V118.631C179.702 119.501 179.432 120.218 178.891 120.78C178.351 121.338 177.654 121.618 176.802 121.618C175.953 121.618 175.264 121.338 174.734 120.78C174.208 120.218 173.945 119.501 173.945 118.631V117.364C173.945 116.497 174.208 115.783 174.734 115.221C175.264 114.659 175.948 114.377 176.786 114.377C177.352 114.377 177.857 114.506 178.301 114.764C178.748 115.022 179.094 115.378 179.337 115.833C179.581 116.284 179.702 116.794 179.702 117.364ZM187.125 114.469V121.505H185.959L182.833 116.365L182.806 116.375V121.505H181.63V114.469H182.806L185.927 119.598L185.959 119.593V114.469H187.125ZM194.139 114.469V115.409H192.012V121.505H190.835V115.409H188.708V114.469H194.139ZM199.568 121.505L199.01 119.861H196.254L195.696 121.505H194.503L197.092 114.469H198.204L200.761 121.505H199.568ZM197.629 115.871L196.593 118.878H198.677L197.656 115.871H197.629ZM206.238 119.179H207.372L207.382 119.211C207.393 119.935 207.16 120.517 206.684 120.957C206.208 121.397 205.562 121.618 204.745 121.618C203.929 121.618 203.263 121.344 202.747 120.796C202.235 120.244 201.979 119.535 201.979 118.669V117.332C201.979 116.465 202.233 115.756 202.742 115.205C203.25 114.653 203.916 114.377 204.74 114.377C205.563 114.377 206.213 114.596 206.69 115.033C207.166 115.466 207.399 116.053 207.388 116.794L207.377 116.821H206.238C206.238 116.341 206.11 115.971 205.852 115.709C205.594 115.448 205.221 115.317 204.735 115.317C204.251 115.317 203.866 115.505 203.58 115.881C203.297 116.257 203.155 116.737 203.155 117.321V118.669C203.155 119.26 203.3 119.743 203.59 120.119C203.881 120.492 204.269 120.678 204.756 120.678C205.243 120.678 205.612 120.551 205.862 120.296C206.113 120.039 206.238 119.666 206.238 119.179ZM213.865 114.469V115.409H211.738V121.505H210.562V115.409H208.435V114.469H213.865ZM220.078 114.469V120.565H223.311V121.505H218.902V114.469H220.078ZM229.391 121.505L228.832 119.861H226.077L225.518 121.505H224.326L226.915 114.469H228.026L230.583 121.505H229.391ZM227.452 115.871L226.415 118.878H228.499L227.479 115.871H227.452ZM234.847 118.304H233.236V120.565H234.713C235.125 120.565 235.438 120.474 235.653 120.291C235.871 120.105 235.98 119.836 235.98 119.485C235.98 118.698 235.603 118.304 234.847 118.304ZM233.236 115.409V117.428H234.53C234.903 117.428 235.193 117.342 235.4 117.17C235.608 116.999 235.712 116.755 235.712 116.44C235.712 115.752 235.275 115.409 234.401 115.409H233.236ZM234.713 121.505H232.059V114.469H234.401C235.196 114.469 235.808 114.63 236.238 114.952C236.668 115.274 236.883 115.752 236.883 116.386C236.883 116.705 236.791 116.99 236.609 117.24C236.426 117.491 236.172 117.679 235.846 117.804C236.261 117.897 236.582 118.096 236.807 118.4C237.037 118.701 237.151 119.063 237.151 119.485C237.151 120.141 236.938 120.642 236.512 120.989C236.086 121.333 235.486 121.505 234.713 121.505Z" fill="#828282"/>
<path d="M23.0439 54.8682V64.0166H27.8877V65.1025H21.6611V54.8682H23.0439ZM31.3486 65.2666C30.557 65.2666 29.9528 65.0661 29.5361 64.665C29.1195 64.264 28.9111 63.7015 28.9111 62.9775C28.9111 62.2536 29.2028 61.6859 29.7861 61.2744C30.3695 60.863 31.1715 60.6572 32.1924 60.6572H33.6924V59.9072C33.6924 59.4593 33.5544 59.1077 33.2783 58.8525C33.0075 58.5921 32.6377 58.4619 32.1689 58.4619C31.7054 58.4619 31.333 58.5739 31.0518 58.7979C30.7705 59.0166 30.6299 59.29 30.6299 59.6182H29.3096L29.2939 59.5791C29.2679 59.0062 29.5335 58.4958 30.0908 58.0479C30.6533 57.5947 31.3669 57.3682 32.2314 57.3682C33.1012 57.3682 33.7939 57.5921 34.3096 58.04C34.8252 58.4827 35.083 59.1104 35.083 59.9229V63.5869C35.083 64.1755 35.1481 64.6859 35.2783 65.1182H33.8486C33.7497 64.6338 33.6976 64.2536 33.6924 63.9775C33.4215 64.363 33.0778 64.6755 32.6611 64.915C32.2497 65.1494 31.8122 65.2666 31.3486 65.2666ZM30.3096 63.0088H30.3018C30.3018 63.3525 30.4085 63.6208 30.6221 63.8135C30.8356 64.0062 31.1663 64.1025 31.6143 64.1025C32.0622 64.1025 32.4893 63.9775 32.8955 63.7275C33.307 63.4723 33.5752 63.1755 33.7002 62.8369V61.5947H32.1533C31.6012 61.5947 31.1559 61.7327 30.8174 62.0088C30.4788 62.2796 30.3096 62.613 30.3096 63.0088ZM40.2549 58.4932C39.4424 58.4932 38.8486 58.8786 38.4736 59.6494V62.9463C38.8538 63.7432 39.4554 64.1416 40.2783 64.1416C40.9189 64.1416 41.4007 63.9176 41.7236 63.4697C42.0518 63.0166 42.2158 62.3942 42.2158 61.6025L42.2002 61.4541C42.2002 60.5479 42.0361 59.8291 41.708 59.2979C41.3799 58.7614 40.8955 58.4932 40.2549 58.4932ZM43.5986 61.4541V61.6025C43.5986 62.7171 43.333 63.6077 42.8018 64.2744C42.2757 64.9359 41.5544 65.2666 40.6377 65.2666C39.6429 65.2666 38.8981 64.8812 38.4033 64.1104L38.2393 65.1182H37.1064V54.1494H38.4893V58.4072C38.9893 57.7145 39.7028 57.3682 40.6299 57.3682C41.557 57.3682 42.2835 57.738 42.8096 58.4775C43.3356 59.2171 43.5986 60.2093 43.5986 61.4541ZM50.4268 61.4619C50.4268 62.2796 50.5778 62.9255 50.8799 63.3994C51.208 63.9202 51.7314 64.1807 52.4502 64.1807C52.9189 64.1807 53.3252 64.0374 53.6689 63.751C54.0127 63.4645 54.1846 63.1182 54.1846 62.7119H55.4268L55.4424 62.7588C55.4684 63.4202 55.1794 64.0036 54.5752 64.5088C53.971 65.014 53.2627 65.2666 52.4502 65.2666C51.3669 65.2666 50.5257 64.915 49.9268 64.2119C49.3278 63.5088 49.0283 62.5921 49.0283 61.4619V61.165C49.0283 60.04 49.3278 59.126 49.9268 58.4229C50.5309 57.7197 51.3721 57.3682 52.4502 57.3682C53.3356 57.3682 54.0622 57.6286 54.6299 58.1494C55.1976 58.6702 55.471 59.3187 55.4502 60.0947L55.4346 60.1338H54.1846C54.1846 59.665 54.0205 59.2692 53.6924 58.9463C53.3643 58.6234 52.9554 58.4619 52.4658 58.4619C51.9814 58.4619 51.583 58.5843 51.2705 58.8291C50.9632 59.0739 50.7445 59.3916 50.6143 59.7822C50.4893 60.1729 50.4268 60.6338 50.4268 61.165V61.4619ZM59.1611 65.2666C58.3695 65.2666 57.7653 65.0661 57.3486 64.665C56.932 64.264 56.7236 63.7015 56.7236 62.9775C56.7236 62.2536 57.0153 61.6859 57.5986 61.2744C58.182 60.863 58.984 60.6572 60.0049 60.6572H61.5049V59.9072C61.5049 59.4593 61.3669 59.1077 61.0908 58.8525C60.82 58.5921 60.4502 58.4619 59.9814 58.4619C59.5179 58.4619 59.1455 58.5739 58.8643 58.7979C58.583 59.0166 58.4424 59.29 58.4424 59.6182H57.1221L57.1064 59.5791C57.0804 59.0062 57.346 58.4958 57.9033 58.0479C58.4658 57.5947 59.1794 57.3682 60.0439 57.3682C60.9137 57.3682 61.6064 57.5921 62.1221 58.04C62.6377 58.4827 62.8955 59.1104 62.8955 59.9229V63.5869C62.8955 64.1755 62.9606 64.6859 63.0908 65.1182H61.6611C61.5622 64.6338 61.5101 64.2536 61.5049 63.9775C61.234 64.363 60.8903 64.6755 60.4736 64.915C60.0622 65.1494 59.6247 65.2666 59.1611 65.2666ZM58.1221 63.0088H58.1143C58.1143 63.3525 58.221 63.6208 58.4346 63.8135C58.6481 64.0062 58.9788 64.1025 59.4268 64.1025C59.8747 64.1025 60.3018 63.9775 60.708 63.7275C61.1195 63.4723 61.3877 63.1755 61.5127 62.8369V61.5947H59.9658C59.4137 61.5947 58.9684 61.7327 58.6299 62.0088C58.2913 62.2796 58.1221 62.613 58.1221 63.0088ZM67.7471 64.165C68.2367 64.165 68.6221 64.0687 68.9033 63.876C69.1846 63.6781 69.3252 63.4176 69.3252 63.0947C69.3252 62.7718 69.2054 62.5166 68.9658 62.3291C68.7262 62.1364 68.2913 61.9671 67.6611 61.8213C66.7028 61.613 65.9971 61.3369 65.5439 60.9932C65.096 60.6442 64.8721 60.165 64.8721 59.5557C64.8721 58.9463 65.1377 58.4281 65.6689 58.001C66.2002 57.5687 66.8929 57.3525 67.7471 57.3525C68.6012 57.3525 69.2913 57.5791 69.8174 58.0322C70.3486 58.4801 70.6012 59.0374 70.5752 59.7041L70.5596 59.7432H69.2393C69.2393 59.3942 69.096 59.0921 68.8096 58.8369C68.5283 58.5817 68.1559 58.4541 67.6924 58.4541C67.234 58.4541 66.8799 58.5583 66.6299 58.7666C66.3799 58.9697 66.2549 59.2301 66.2549 59.5479C66.2549 59.8656 66.3643 60.1077 66.583 60.2744C66.8018 60.4411 67.2314 60.5921 67.8721 60.7275C68.8512 60.9411 69.57 61.2275 70.0283 61.5869C70.4867 61.9411 70.7158 62.4124 70.7158 63.001C70.7158 63.6781 70.4424 64.2249 69.8955 64.6416C69.3538 65.0583 68.6247 65.2666 67.708 65.2666C66.7913 65.2666 66.0492 65.027 65.4814 64.5479C64.9189 64.0687 64.6507 63.488 64.6768 62.8057L64.6924 62.7666H66.0127C66.0387 63.2354 66.2132 63.5895 66.5361 63.8291C66.8643 64.0635 67.2731 64.1807 67.7627 64.1807L67.7471 64.165ZM77.1143 60.376C77.1143 59.8031 76.9658 59.3421 76.6689 58.9932C76.3721 58.639 75.945 58.4619 75.3877 58.4619C74.9294 58.4619 74.5335 58.6546 74.2002 59.04C73.8721 59.4255 73.6689 59.9176 73.5908 60.5166L73.6064 60.5557H77.1143V60.376ZM75.5986 65.2666C74.5413 65.2666 73.6976 64.9176 73.0674 64.2197C72.4424 63.5218 72.1299 62.6025 72.1299 61.4619V61.1494C72.1299 60.0817 72.4476 59.1859 73.083 58.4619C73.7236 57.7327 74.4919 57.3682 75.3877 57.3682C76.3981 57.3682 77.1689 57.6729 77.7002 58.2822C78.2367 58.8864 78.5049 59.7171 78.5049 60.7744V61.6416H73.5674L73.5439 61.6729C73.5596 62.4229 73.7471 63.0296 74.1064 63.4932C74.471 63.9515 74.9684 64.1807 75.5986 64.1807C76.484 64.1807 77.2028 63.9307 77.7549 63.4307L78.3018 64.3291H78.2939C77.6585 64.9541 76.7601 65.2666 75.5986 65.2666ZM84.8252 57.4932L86.083 62.3291L86.2471 63.251H86.2861L86.4814 62.3291L88.0049 57.4932H89.1143L90.6377 62.3291L90.8564 63.3604H90.9033L91.1064 62.3291L92.3018 57.4932H93.6768L91.4658 65.1025H90.3486L88.8799 60.4697L88.5674 59.1729L88.5205 59.1807L88.2236 60.4697L86.7705 65.1025H85.6533L83.4502 57.4932H84.8252ZM97.208 65.2666C96.4163 65.2666 95.8122 65.0661 95.3955 64.665C94.9788 64.264 94.7705 63.7015 94.7705 62.9775C94.7705 62.2536 95.0622 61.6859 95.6455 61.2744C96.2288 60.863 97.0309 60.6572 98.0518 60.6572H99.5518V59.9072C99.5518 59.4593 99.4137 59.1077 99.1377 58.8525C98.8669 58.5921 98.4971 58.4619 98.0283 58.4619C97.5648 58.4619 97.1924 58.5739 96.9111 58.7979C96.6299 59.0166 96.4893 59.29 96.4893 59.6182H95.1689L95.1533 59.5791C95.1273 59.0062 95.3929 58.4958 95.9502 58.0479C96.5127 57.5947 97.2262 57.3682 98.0908 57.3682C98.9606 57.3682 99.6533 57.5921 100.169 58.04C100.685 58.4827 100.942 59.1104 100.942 59.9229V63.5869C100.942 64.1755 101.007 64.6859 101.138 65.1182H99.708C99.609 64.6338 99.557 64.2536 99.5518 63.9775C99.2809 64.363 98.9372 64.6755 98.5205 64.915C98.109 65.1494 97.6715 65.2666 97.208 65.2666ZM96.1689 63.0088H96.1611C96.1611 63.3525 96.2679 63.6208 96.4814 63.8135C96.695 64.0062 97.0257 64.1025 97.4736 64.1025C97.9215 64.1025 98.3486 63.9775 98.7549 63.7275C99.1663 63.4723 99.4346 63.1755 99.5596 62.8369V61.5947H98.0127C97.4606 61.5947 97.0153 61.7327 96.6768 62.0088C96.3382 62.2796 96.1689 62.613 96.1689 63.0088ZM105.794 64.165C106.284 64.165 106.669 64.0687 106.95 63.876C107.231 63.6781 107.372 63.4176 107.372 63.0947C107.372 62.7718 107.252 62.5166 107.013 62.3291C106.773 62.1364 106.338 61.9671 105.708 61.8213C104.75 61.613 104.044 61.3369 103.591 60.9932C103.143 60.6442 102.919 60.165 102.919 59.5557C102.919 58.9463 103.185 58.4281 103.716 58.001C104.247 57.5687 104.94 57.3525 105.794 57.3525C106.648 57.3525 107.338 57.5791 107.864 58.0322C108.396 58.4801 108.648 59.0374 108.622 59.7041L108.606 59.7432H107.286C107.286 59.3942 107.143 59.0921 106.856 58.8369C106.575 58.5817 106.203 58.4541 105.739 58.4541C105.281 58.4541 104.927 58.5583 104.677 58.7666C104.427 58.9697 104.302 59.2301 104.302 59.5479C104.302 59.8656 104.411 60.1077 104.63 60.2744C104.849 60.4411 105.278 60.5921 105.919 60.7275C106.898 60.9411 107.617 61.2275 108.075 61.5869C108.534 61.9411 108.763 62.4124 108.763 63.001C108.763 63.6781 108.489 64.2249 107.942 64.6416C107.401 65.0583 106.672 65.2666 105.755 65.2666C104.838 65.2666 104.096 65.027 103.528 64.5479C102.966 64.0687 102.698 63.488 102.724 62.8057L102.739 62.7666H104.06C104.086 63.2354 104.26 63.5895 104.583 63.8291C104.911 64.0635 105.32 64.1807 105.81 64.1807L105.794 64.165ZM114.56 57.4932H115.794L115.896 58.626C116.422 57.777 117.174 57.3525 118.153 57.3525C118.987 57.3525 119.625 57.5973 120.067 58.0869C120.51 58.5713 120.731 59.3083 120.731 60.2979V65.1025H119.349V60.3291C119.349 59.6676 119.218 59.1937 118.958 58.9072C118.698 58.6208 118.291 58.4775 117.739 58.4775C117.343 58.4775 116.992 58.5713 116.685 58.7588C116.377 58.9463 116.13 59.2119 115.942 59.5557V65.1025H114.56V57.4932ZM123.81 61.2432V61.3994C123.81 62.2432 123.981 62.9176 124.325 63.4229C124.674 63.9281 125.174 64.1807 125.825 64.1807C126.476 64.1807 126.976 63.9281 127.325 63.4229C127.674 62.9124 127.849 62.238 127.849 61.3994V61.2432C127.849 60.415 127.672 59.7458 127.317 59.2354C126.968 58.7197 126.468 58.4619 125.817 58.4619C125.172 58.4619 124.674 58.7197 124.325 59.2354C123.981 59.7458 123.81 60.415 123.81 61.2432ZM122.419 61.3994V61.2432C122.419 60.0973 122.726 59.165 123.341 58.4463C123.955 57.7275 124.784 57.3682 125.825 57.3682C126.867 57.3682 127.695 57.7275 128.31 58.4463C128.924 59.1598 129.231 60.0921 129.231 61.2432V61.3994C129.231 62.5557 128.924 63.4906 128.31 64.2041C127.7 64.9124 126.872 65.2666 125.825 65.2666C124.784 65.2666 123.955 64.9098 123.341 64.1963C122.726 63.4827 122.419 62.5505 122.419 61.3994ZM131.372 55.6729H132.771V57.5088H134.208V58.54H132.771V63.1572C132.771 63.8031 133.039 64.126 133.575 64.126C133.742 64.126 133.914 64.0947 134.091 64.0322L134.271 64.9775C134.021 65.1702 133.669 65.2666 133.216 65.2666C132.632 65.2666 132.179 65.0921 131.856 64.7432C131.534 64.3942 131.372 63.8656 131.372 63.1572V58.54H130.169V57.5088H131.372V55.6729ZM139.653 61.4541C139.653 60.2093 139.916 59.2171 140.442 58.4775C140.968 57.738 141.687 57.3682 142.599 57.3682C143.51 57.3682 144.211 57.6911 144.7 58.3369V54.1494H146.091V65.1182H144.958L144.794 64.1807C144.289 64.9046 143.57 65.2666 142.638 65.2666C141.705 65.2666 140.976 64.9359 140.45 64.2744C139.924 63.6077 139.661 62.7171 139.661 61.6025L139.653 61.4541ZM141.052 61.4541V61.6025C141.052 62.3994 141.211 63.0218 141.528 63.4697C141.851 63.9176 142.336 64.1416 142.981 64.1416C143.763 64.1416 144.341 63.7848 144.716 63.0713V59.5244C144.33 58.8369 143.757 58.4932 142.997 58.4932C142.346 58.4932 141.859 58.7588 141.536 59.29C141.213 59.8161 141.052 60.5374 141.052 61.4541ZM152.833 60.376C152.833 59.8031 152.685 59.3421 152.388 58.9932C152.091 58.639 151.664 58.4619 151.106 58.4619C150.648 58.4619 150.252 58.6546 149.919 59.04C149.591 59.4255 149.388 59.9176 149.31 60.5166L149.325 60.5557H152.833V60.376ZM151.317 65.2666C150.26 65.2666 149.416 64.9176 148.786 64.2197C148.161 63.5218 147.849 62.6025 147.849 61.4619V61.1494C147.849 60.0817 148.166 59.1859 148.802 58.4619C149.442 57.7327 150.211 57.3682 151.106 57.3682C152.117 57.3682 152.888 57.6729 153.419 58.2822C153.955 58.8864 154.224 59.7171 154.224 60.7744V61.6416H149.286L149.263 61.6729C149.278 62.4229 149.466 63.0296 149.825 63.4932C150.19 63.9515 150.687 64.1807 151.317 64.1807C152.203 64.1807 152.922 63.9307 153.474 63.4307L154.021 64.3291H154.013C153.377 64.9541 152.479 65.2666 151.317 65.2666ZM157.286 54.1338V65.1025H155.903V54.1338H157.286ZM160.911 57.4932V65.1025H159.528V57.4932H160.911ZM160.911 54.1338V55.5479H159.528V54.1338H160.911ZM163.778 57.4932L165.583 62.8604L165.7 63.3916H165.739L165.872 62.8604L167.63 57.4932H169.036L166.239 65.1025H165.192L162.356 57.4932H163.778ZM174.958 60.376C174.958 59.8031 174.81 59.3421 174.513 58.9932C174.216 58.639 173.789 58.4619 173.231 58.4619C172.773 58.4619 172.377 58.6546 172.044 59.04C171.716 59.4255 171.513 59.9176 171.435 60.5166L171.45 60.5557H174.958V60.376ZM173.442 65.2666C172.385 65.2666 171.541 64.9176 170.911 64.2197C170.286 63.5218 169.974 62.6025 169.974 61.4619V61.1494C169.974 60.0817 170.291 59.1859 170.927 58.4619C171.567 57.7327 172.336 57.3682 173.231 57.3682C174.242 57.3682 175.013 57.6729 175.544 58.2822C176.08 58.8864 176.349 59.7171 176.349 60.7744V61.6416H171.411L171.388 61.6729C171.403 62.4229 171.591 63.0296 171.95 63.4932C172.315 63.9515 172.812 64.1807 173.442 64.1807C174.328 64.1807 175.047 63.9307 175.599 63.4307L176.146 64.3291H176.138C175.502 64.9541 174.604 65.2666 173.442 65.2666ZM179.302 65.1104H177.919V57.501H179.153L179.286 58.6104C179.75 57.7718 180.38 57.3525 181.177 57.3525C181.364 57.3525 181.541 57.3786 181.708 57.4307L181.521 58.7275L180.81 58.6807C180.096 58.6807 179.593 59.0114 179.302 59.6729V65.1104ZM187.521 60.376C187.521 59.8031 187.372 59.3421 187.075 58.9932C186.778 58.639 186.351 58.4619 185.794 58.4619C185.336 58.4619 184.94 58.6546 184.606 59.04C184.278 59.4255 184.075 59.9176 183.997 60.5166L184.013 60.5557H187.521V60.376ZM186.005 65.2666C184.948 65.2666 184.104 64.9176 183.474 64.2197C182.849 63.5218 182.536 62.6025 182.536 61.4619V61.1494C182.536 60.0817 182.854 59.1859 183.489 58.4619C184.13 57.7327 184.898 57.3682 185.794 57.3682C186.804 57.3682 187.575 57.6729 188.106 58.2822C188.643 58.8864 188.911 59.7171 188.911 60.7744V61.6416H183.974L183.95 61.6729C183.966 62.4229 184.153 63.0296 184.513 63.4932C184.877 63.9515 185.375 64.1807 186.005 64.1807C186.89 64.1807 187.609 63.9307 188.161 63.4307L188.708 64.3291H188.7C188.065 64.9541 187.166 65.2666 186.005 65.2666ZM190.153 61.4541C190.153 60.2093 190.416 59.2171 190.942 58.4775C191.468 57.738 192.187 57.3682 193.099 57.3682C194.01 57.3682 194.711 57.6911 195.2 58.3369V54.1494H196.591V65.1182H195.458L195.294 64.1807C194.789 64.9046 194.07 65.2666 193.138 65.2666C192.205 65.2666 191.476 64.9359 190.95 64.2744C190.424 63.6077 190.161 62.7171 190.161 61.6025L190.153 61.4541ZM191.552 61.4541V61.6025C191.552 62.3994 191.711 63.0218 192.028 63.4697C192.351 63.9176 192.836 64.1416 193.481 64.1416C194.263 64.1416 194.841 63.7848 195.216 63.0713V59.5244C194.83 58.8369 194.257 58.4932 193.497 58.4932C192.846 58.4932 192.359 58.7588 192.036 59.29C191.713 59.8161 191.552 60.5374 191.552 61.4541ZM204.224 57.4932V65.1025H202.841V57.4932H204.224ZM204.224 54.1338V55.5479H202.841V54.1338H204.224ZM206.356 57.4932H207.591L207.692 58.626C208.218 57.777 208.971 57.3525 209.95 57.3525C210.784 57.3525 211.422 57.5973 211.864 58.0869C212.307 58.5713 212.528 59.3083 212.528 60.2979V65.1025H211.146V60.3291C211.146 59.6676 211.015 59.1937 210.755 58.9072C210.494 58.6208 210.088 58.4775 209.536 58.4775C209.14 58.4775 208.789 58.5713 208.481 58.7588C208.174 58.9463 207.927 59.2119 207.739 59.5557V65.1025H206.356V57.4932ZM219.044 55.6729H220.442V57.5088H221.88V58.54H220.442V63.1572C220.442 63.8031 220.711 64.126 221.247 64.126C221.414 64.126 221.586 64.0947 221.763 64.0322L221.942 64.9775C221.692 65.1702 221.341 65.2666 220.888 65.2666C220.304 65.2666 219.851 65.0921 219.528 64.7432C219.205 64.3942 219.044 63.8656 219.044 63.1572V58.54H217.841V57.5088H219.044V55.6729ZM225.083 57.4932V65.1025H223.7V57.4932H225.083ZM225.083 54.1338V55.5479H223.7V54.1338H225.083ZM228.599 65.1025H227.224V57.4932H228.458L228.56 58.4932C229.08 57.7327 229.851 57.3525 230.872 57.3525C231.898 57.3525 232.593 57.8213 232.958 58.7588C233.484 57.8213 234.26 57.3525 235.286 57.3525C236.083 57.3525 236.7 57.6234 237.138 58.165C237.575 58.7015 237.794 59.4984 237.794 60.5557V65.1025H236.411V60.54C236.411 59.8057 236.286 59.2796 236.036 58.9619C235.786 58.639 235.411 58.4775 234.911 58.4775C234.416 58.4775 234.021 58.639 233.724 58.9619C233.432 59.2796 233.26 59.6963 233.208 60.2119V65.1025H231.81V60.54C231.81 59.8317 231.679 59.3109 231.419 58.9775C231.164 58.6442 230.781 58.4775 230.271 58.4775C229.468 58.4775 228.911 58.8083 228.599 59.4697V65.1025ZM244.474 60.376C244.474 59.8031 244.325 59.3421 244.028 58.9932C243.731 58.639 243.304 58.4619 242.747 58.4619C242.289 58.4619 241.893 58.6546 241.56 59.04C241.231 59.4255 241.028 59.9176 240.95 60.5166L240.966 60.5557H244.474V60.376ZM242.958 65.2666C241.901 65.2666 241.057 64.9176 240.427 64.2197C239.802 63.5218 239.489 62.6025 239.489 61.4619V61.1494C239.489 60.0817 239.807 59.1859 240.442 58.4619C241.083 57.7327 241.851 57.3682 242.747 57.3682C243.757 57.3682 244.528 57.6729 245.06 58.2822C245.596 58.8864 245.864 59.7171 245.864 60.7744V61.6416H240.927L240.903 61.6729C240.919 62.4229 241.106 63.0296 241.466 63.4932C241.83 63.9515 242.328 64.1807 242.958 64.1807C243.843 64.1807 244.562 63.9307 245.114 63.4307L245.661 64.3291H245.653C245.018 64.9541 244.119 65.2666 242.958 65.2666ZM23.3643 84.1025H21.9736V77.5244H20.7783V76.4932H21.9736V75.5322C21.9736 74.7197 22.182 74.0921 22.5986 73.6494C23.0205 73.2067 23.6143 72.9854 24.3799 72.9854C24.6455 72.9854 24.9893 73.0348 25.4111 73.1338L25.2393 74.1885C25.0413 74.1416 24.8148 74.1182 24.5596 74.1182C23.7627 74.1182 23.3643 74.5895 23.3643 75.5322V76.4932H24.9424V77.5244H23.3643V84.1025ZM27.4346 80.2432V80.3994C27.4346 81.2432 27.6064 81.9176 27.9502 82.4229C28.2992 82.9281 28.7992 83.1807 29.4502 83.1807C30.1012 83.1807 30.6012 82.9281 30.9502 82.4229C31.2992 81.9124 31.4736 81.238 31.4736 80.3994V80.2432C31.4736 79.415 31.2965 78.7458 30.9424 78.2354C30.5934 77.7197 30.0934 77.4619 29.4424 77.4619C28.7965 77.4619 28.2992 77.7197 27.9502 78.2354C27.6064 78.7458 27.4346 79.415 27.4346 80.2432ZM26.0439 80.3994V80.2432C26.0439 79.0973 26.3512 78.165 26.9658 77.4463C27.5804 76.7275 28.4085 76.3682 29.4502 76.3682C30.4919 76.3682 31.32 76.7275 31.9346 77.4463C32.5492 78.1598 32.8564 79.0921 32.8564 80.2432V80.3994C32.8564 81.5557 32.5492 82.4906 31.9346 83.2041C31.3252 83.9124 30.4971 84.2666 29.4502 84.2666C28.4085 84.2666 27.5804 83.9098 26.9658 83.1963C26.3512 82.4827 26.0439 81.5505 26.0439 80.3994ZM35.9424 84.1104H34.5596V76.501H35.7939L35.9268 77.6104C36.3903 76.7718 37.0205 76.3525 37.8174 76.3525C38.0049 76.3525 38.182 76.3786 38.3486 76.4307L38.1611 77.7275L37.4502 77.6807C36.7367 77.6807 36.234 78.0114 35.9424 78.6729V84.1104ZM44.1064 87.5166C43.9085 87.5166 43.6351 87.4801 43.2861 87.4072L43.4268 86.3135C43.7705 86.3395 43.9762 86.3525 44.0439 86.3525C44.3148 86.3525 44.5413 86.238 44.7236 86.0088C44.9111 85.7796 45.0804 85.4723 45.2314 85.0869L45.5596 84.29L42.7314 76.8369H44.2783L45.8955 81.626L46.1377 82.5791H46.1846L48.0518 76.8369H49.5908L46.3955 85.6104C45.9111 86.8812 45.1481 87.5166 44.1064 87.5166ZM51.8721 80.2432V80.3994C51.8721 81.2432 52.0439 81.9176 52.3877 82.4229C52.7367 82.9281 53.2367 83.1807 53.8877 83.1807C54.5387 83.1807 55.0387 82.9281 55.3877 82.4229C55.7367 81.9124 55.9111 81.238 55.9111 80.3994V80.2432C55.9111 79.415 55.734 78.7458 55.3799 78.2354C55.0309 77.7197 54.5309 77.4619 53.8799 77.4619C53.234 77.4619 52.7367 77.7197 52.3877 78.2354C52.0439 78.7458 51.8721 79.415 51.8721 80.2432ZM50.4814 80.3994V80.2432C50.4814 79.0973 50.7887 78.165 51.4033 77.4463C52.0179 76.7275 52.846 76.3682 53.8877 76.3682C54.9294 76.3682 55.7575 76.7275 56.3721 77.4463C56.9867 78.1598 57.2939 79.0921 57.2939 80.2432V80.3994C57.2939 81.5557 56.9867 82.4906 56.3721 83.2041C55.7627 83.9124 54.9346 84.2666 53.8877 84.2666C52.846 84.2666 52.0179 83.9098 51.4033 83.1963C50.7887 82.4827 50.4814 81.5505 50.4814 80.3994ZM61.6064 84.2666C60.7523 84.2666 60.0986 83.9984 59.6455 83.4619C59.1924 82.9202 58.9658 82.0973 58.9658 80.9932V76.5088H60.3486V81.0088C60.3486 81.8057 60.4632 82.3604 60.6924 82.6729C60.9268 82.9854 61.3044 83.1416 61.8252 83.1416C62.7783 83.1416 63.4294 82.7588 63.7783 81.9932V76.5088H65.1611V84.1182H63.9189L63.8252 82.9932C63.3252 83.8421 62.5856 84.2666 61.6064 84.2666ZM68.5674 84.1104H67.1846V76.501H68.4189L68.5518 77.6104C69.0153 76.7718 69.6455 76.3525 70.4424 76.3525C70.6299 76.3525 70.807 76.3786 70.9736 76.4307L70.7861 77.7275L70.0752 77.6807C69.3617 77.6807 68.859 78.0114 68.5674 78.6729V84.1104ZM82.6689 80.7666V80.915C82.6689 82.0244 82.4033 82.9124 81.8721 83.5791C81.346 84.2406 80.6221 84.5713 79.7002 84.5713C78.7783 84.5713 78.0674 84.2588 77.5674 83.6338V87.3525H76.1846V76.8213H77.2471L77.4658 77.8057C77.971 77.0557 78.7002 76.6807 79.6533 76.6807C80.6117 76.6807 81.3538 77.0505 81.8799 77.79C82.4059 78.5244 82.6689 79.5166 82.6689 80.7666ZM81.2783 80.915V80.7666C81.2783 79.8708 81.1038 79.1546 80.7549 78.6182C80.4111 78.0765 79.9163 77.8057 79.2705 77.8057C78.5049 77.8057 77.9372 78.1416 77.5674 78.8135V82.4932C77.932 83.1598 78.5049 83.4932 79.2861 83.4932C79.9268 83.4932 80.4189 83.2588 80.7627 82.79C81.1064 82.3213 81.2783 81.6963 81.2783 80.915ZM86.5361 84.2666C85.7445 84.2666 85.1403 84.0661 84.7236 83.665C84.307 83.264 84.0986 82.7015 84.0986 81.9775C84.0986 81.2536 84.3903 80.6859 84.9736 80.2744C85.557 79.863 86.359 79.6572 87.3799 79.6572H88.8799V78.9072C88.8799 78.4593 88.7419 78.1077 88.4658 77.8525C88.195 77.5921 87.8252 77.4619 87.3564 77.4619C86.8929 77.4619 86.5205 77.5739 86.2393 77.7979C85.958 78.0166 85.8174 78.29 85.8174 78.6182H84.4971L84.4814 78.5791C84.4554 78.0062 84.721 77.4958 85.2783 77.0479C85.8408 76.5947 86.5544 76.3682 87.4189 76.3682C88.2887 76.3682 88.9814 76.5921 89.4971 77.04C90.0127 77.4827 90.2705 78.1104 90.2705 78.9229V82.5869C90.2705 83.1755 90.3356 83.6859 90.4658 84.1182H89.0361C88.9372 83.6338 88.8851 83.2536 88.8799 82.9775C88.609 83.363 88.2653 83.6755 87.8486 83.915C87.4372 84.1494 86.9997 84.2666 86.5361 84.2666ZM85.4971 82.0088H85.4893C85.4893 82.3525 85.596 82.6208 85.8096 82.8135C86.0231 83.0062 86.3538 83.1025 86.8018 83.1025C87.2497 83.1025 87.6768 82.9775 88.083 82.7275C88.4945 82.4723 88.7627 82.1755 88.8877 81.8369V80.5947H87.3408C86.7887 80.5947 86.3434 80.7327 86.0049 81.0088C85.6663 81.2796 85.4971 81.613 85.4971 82.0088ZM92.7314 74.6729H94.1299V76.5088H95.5674V77.54H94.1299V82.1572C94.1299 82.8031 94.3981 83.126 94.9346 83.126C95.1012 83.126 95.2731 83.0947 95.4502 83.0322L95.6299 83.9775C95.3799 84.1702 95.0283 84.2666 94.5752 84.2666C93.9919 84.2666 93.5387 84.0921 93.2158 83.7432C92.8929 83.3942 92.7314 82.8656 92.7314 82.1572V77.54H91.5283V76.5088H92.7314V74.6729ZM98.7705 76.4932V84.1025H97.3877V76.4932H98.7705ZM98.7705 73.1338V74.5479H97.3877V73.1338H98.7705ZM105.567 79.376C105.567 78.8031 105.419 78.3421 105.122 77.9932C104.825 77.639 104.398 77.4619 103.841 77.4619C103.382 77.4619 102.987 77.6546 102.653 78.04C102.325 78.4255 102.122 78.9176 102.044 79.5166L102.06 79.5557H105.567V79.376ZM104.052 84.2666C102.994 84.2666 102.151 83.9176 101.521 83.2197C100.896 82.5218 100.583 81.6025 100.583 80.4619V80.1494C100.583 79.0817 100.901 78.1859 101.536 77.4619C102.177 76.7327 102.945 76.3682 103.841 76.3682C104.851 76.3682 105.622 76.6729 106.153 77.2822C106.69 77.8864 106.958 78.7171 106.958 79.7744V80.6416H102.021L101.997 80.6729C102.013 81.4229 102.2 82.0296 102.56 82.4932C102.924 82.9515 103.422 83.1807 104.052 83.1807C104.937 83.1807 105.656 82.9307 106.208 82.4307L106.755 83.3291H106.747C106.112 83.9541 105.213 84.2666 104.052 84.2666ZM108.528 76.4932H109.763L109.864 77.626C110.39 76.777 111.143 76.3525 112.122 76.3525C112.955 76.3525 113.593 76.5973 114.036 77.0869C114.479 77.5713 114.7 78.3083 114.7 79.2979V84.1025H113.317V79.3291C113.317 78.6676 113.187 78.1937 112.927 77.9072C112.666 77.6208 112.26 77.4775 111.708 77.4775C111.312 77.4775 110.961 77.5713 110.653 77.7588C110.346 77.9463 110.099 78.2119 109.911 78.5557V84.1025H108.528V76.4932ZM117.153 74.6729H118.552V76.5088H119.989V77.54H118.552V82.1572C118.552 82.8031 118.82 83.126 119.356 83.126C119.523 83.126 119.695 83.0947 119.872 83.0322L120.052 83.9775C119.802 84.1702 119.45 84.2666 118.997 84.2666C118.414 84.2666 117.961 84.0921 117.638 83.7432C117.315 83.3942 117.153 82.8656 117.153 82.1572V77.54H115.95V76.5088H117.153V74.6729ZM123.88 73.1338V74.4932L122.755 76.9229H122.075L122.497 74.5088V73.1338H123.88ZM129.106 83.165C129.596 83.165 129.981 83.0687 130.263 82.876C130.544 82.6781 130.685 82.4176 130.685 82.0947C130.685 81.7718 130.565 81.5166 130.325 81.3291C130.086 81.1364 129.651 80.9671 129.021 80.8213C128.062 80.613 127.356 80.3369 126.903 79.9932C126.455 79.6442 126.231 79.165 126.231 78.5557C126.231 77.9463 126.497 77.4281 127.028 77.001C127.56 76.5687 128.252 76.3525 129.106 76.3525C129.961 76.3525 130.651 76.5791 131.177 77.0322C131.708 77.4801 131.961 78.0374 131.935 78.7041L131.919 78.7432H130.599C130.599 78.3942 130.455 78.0921 130.169 77.8369C129.888 77.5817 129.515 77.4541 129.052 77.4541C128.593 77.4541 128.239 77.5583 127.989 77.7666C127.739 77.9697 127.614 78.2301 127.614 78.5479C127.614 78.8656 127.724 79.1077 127.942 79.2744C128.161 79.4411 128.591 79.5921 129.231 79.7275C130.211 79.9411 130.929 80.2275 131.388 80.5869C131.846 80.9411 132.075 81.4124 132.075 82.001C132.075 82.6781 131.802 83.2249 131.255 83.6416C130.713 84.0583 129.984 84.2666 129.067 84.2666C128.151 84.2666 127.409 84.027 126.841 83.5479C126.278 83.0687 126.01 82.488 126.036 81.8057L126.052 81.7666H127.372C127.398 82.2354 127.573 82.5895 127.896 82.8291C128.224 83.0635 128.632 83.1807 129.122 83.1807L129.106 83.165ZM137.872 76.4932H139.106L139.208 77.626C139.734 76.777 140.487 76.3525 141.466 76.3525C142.299 76.3525 142.937 76.5973 143.38 77.0869C143.823 77.5713 144.044 78.3083 144.044 79.2979V84.1025H142.661V79.3291C142.661 78.6676 142.531 78.1937 142.271 77.9072C142.01 77.6208 141.604 77.4775 141.052 77.4775C140.656 77.4775 140.304 77.5713 139.997 77.7588C139.69 77.9463 139.442 78.2119 139.255 78.5557V84.1025H137.872V76.4932ZM150.724 79.376C150.724 78.8031 150.575 78.3421 150.278 77.9932C149.981 77.639 149.554 77.4619 148.997 77.4619C148.539 77.4619 148.143 77.6546 147.81 78.04C147.481 78.4255 147.278 78.9176 147.2 79.5166L147.216 79.5557H150.724V79.376ZM149.208 84.2666C148.151 84.2666 147.307 83.9176 146.677 83.2197C146.052 82.5218 145.739 81.6025 145.739 80.4619V80.1494C145.739 79.0817 146.057 78.1859 146.692 77.4619C147.333 76.7327 148.101 76.3682 148.997 76.3682C150.007 76.3682 150.778 76.6729 151.31 77.2822C151.846 77.8864 152.114 78.7171 152.114 79.7744V80.6416H147.177L147.153 80.6729C147.169 81.4229 147.356 82.0296 147.716 82.4932C148.08 82.9515 148.578 83.1807 149.208 83.1807C150.093 83.1807 150.812 82.9307 151.364 82.4307L151.911 83.3291H151.903C151.268 83.9541 150.369 84.2666 149.208 84.2666ZM154.669 76.4932L156.263 79.2979L157.88 76.4932H159.497L157.028 80.2588L159.567 84.1025H157.981L156.294 81.2275L154.606 84.1025H152.997L155.536 80.2588L153.067 76.4932H154.669ZM161.372 74.6729H162.771V76.5088H164.208V77.54H162.771V82.1572C162.771 82.8031 163.039 83.126 163.575 83.126C163.742 83.126 163.914 83.0947 164.091 83.0322L164.271 83.9775C164.021 84.1702 163.669 84.2666 163.216 84.2666C162.632 84.2666 162.179 84.0921 161.856 83.7432C161.534 83.3942 161.372 82.8656 161.372 82.1572V77.54H160.169V76.5088H161.372V74.6729ZM172.146 84.2666C171.354 84.2666 170.75 84.0661 170.333 83.665C169.916 83.264 169.708 82.7015 169.708 81.9775C169.708 81.2536 170 80.6859 170.583 80.2744C171.166 79.863 171.968 79.6572 172.989 79.6572H174.489V78.9072C174.489 78.4593 174.351 78.1077 174.075 77.8525C173.804 77.5921 173.435 77.4619 172.966 77.4619C172.502 77.4619 172.13 77.5739 171.849 77.7979C171.567 78.0166 171.427 78.29 171.427 78.6182H170.106L170.091 78.5791C170.065 78.0062 170.33 77.4958 170.888 77.0479C171.45 76.5947 172.164 76.3682 173.028 76.3682C173.898 76.3682 174.591 76.5921 175.106 77.04C175.622 77.4827 175.88 78.1104 175.88 78.9229V82.5869C175.88 83.1755 175.945 83.6859 176.075 84.1182H174.646C174.547 83.6338 174.494 83.2536 174.489 82.9775C174.218 83.363 173.875 83.6755 173.458 83.915C173.047 84.1494 172.609 84.2666 172.146 84.2666ZM171.106 82.0088H171.099C171.099 82.3525 171.205 82.6208 171.419 82.8135C171.632 83.0062 171.963 83.1025 172.411 83.1025C172.859 83.1025 173.286 82.9775 173.692 82.7275C174.104 82.4723 174.372 82.1755 174.497 81.8369V80.5947H172.95C172.398 80.5947 171.953 80.7327 171.614 81.0088C171.276 81.2796 171.106 81.613 171.106 82.0088ZM184.388 80.7666V80.915C184.388 82.0244 184.122 82.9124 183.591 83.5791C183.065 84.2406 182.341 84.5713 181.419 84.5713C180.497 84.5713 179.786 84.2588 179.286 83.6338V87.3525H177.903V76.8213H178.966L179.185 77.8057C179.69 77.0557 180.419 76.6807 181.372 76.6807C182.33 76.6807 183.073 77.0505 183.599 77.79C184.125 78.5244 184.388 79.5166 184.388 80.7666ZM182.997 80.915V80.7666C182.997 79.8708 182.823 79.1546 182.474 78.6182C182.13 78.0765 181.635 77.8057 180.989 77.8057C180.224 77.8057 179.656 78.1416 179.286 78.8135V82.4932C179.651 83.1598 180.224 83.4932 181.005 83.4932C181.646 83.4932 182.138 83.2588 182.481 82.79C182.825 82.3213 182.997 81.6963 182.997 80.915ZM192.575 80.7666V80.915C192.575 82.0244 192.31 82.9124 191.778 83.5791C191.252 84.2406 190.528 84.5713 189.606 84.5713C188.685 84.5713 187.974 84.2588 187.474 83.6338V87.3525H186.091V76.8213H187.153L187.372 77.8057C187.877 77.0557 188.606 76.6807 189.56 76.6807C190.518 76.6807 191.26 77.0505 191.786 77.79C192.312 78.5244 192.575 79.5166 192.575 80.7666ZM191.185 80.915V80.7666C191.185 79.8708 191.01 79.1546 190.661 78.6182C190.317 78.0765 189.823 77.8057 189.177 77.8057C188.411 77.8057 187.843 78.1416 187.474 78.8135V82.4932C187.838 83.1598 188.411 83.4932 189.192 83.4932C189.833 83.4932 190.325 83.2588 190.669 82.79C191.013 82.3213 191.185 81.6963 191.185 80.915ZM195.341 80.2432V80.3994C195.341 81.2432 195.513 81.9176 195.856 82.4229C196.205 82.9281 196.705 83.1807 197.356 83.1807C198.007 83.1807 198.507 82.9281 198.856 82.4229C199.205 81.9124 199.38 81.238 199.38 80.3994V80.2432C199.38 79.415 199.203 78.7458 198.849 78.2354C198.5 77.7197 198 77.4619 197.349 77.4619C196.703 77.4619 196.205 77.7197 195.856 78.2354C195.513 78.7458 195.341 79.415 195.341 80.2432ZM193.95 80.3994V80.2432C193.95 79.0973 194.257 78.165 194.872 77.4463C195.487 76.7275 196.315 76.3682 197.356 76.3682C198.398 76.3682 199.226 76.7275 199.841 77.4463C200.455 78.1598 200.763 79.0921 200.763 80.2432V80.3994C200.763 81.5557 200.455 82.4906 199.841 83.2041C199.231 83.9124 198.403 84.2666 197.356 84.2666C196.315 84.2666 195.487 83.9098 194.872 83.1963C194.257 82.4827 193.95 81.5505 193.95 80.3994ZM203.958 76.4932V84.1025H202.575V76.4932H203.958ZM203.958 73.1338V74.5479H202.575V73.1338H203.958ZM206.091 76.4932H207.325L207.427 77.626C207.953 76.777 208.705 76.3525 209.685 76.3525C210.518 76.3525 211.156 76.5973 211.599 77.0869C212.041 77.5713 212.263 78.3083 212.263 79.2979V84.1025H210.88V79.3291C210.88 78.6676 210.75 78.1937 210.489 77.9072C210.229 77.6208 209.823 77.4775 209.271 77.4775C208.875 77.4775 208.523 77.5713 208.216 77.7588C207.909 77.9463 207.661 78.2119 207.474 78.5557V84.1025H206.091V76.4932ZM214.716 74.6729H216.114V76.5088H217.552V77.54H216.114V82.1572C216.114 82.8031 216.382 83.126 216.919 83.126C217.086 83.126 217.257 83.0947 217.435 83.0322L217.614 83.9775C217.364 84.1702 217.013 84.2666 216.56 84.2666C215.976 84.2666 215.523 84.0921 215.2 83.7432C214.877 83.3942 214.716 82.8656 214.716 82.1572V77.54H213.513V76.5088H214.716V74.6729ZM220.646 84.1025H219.271V76.4932H220.505L220.606 77.4932C221.127 76.7327 221.898 76.3525 222.919 76.3525C223.945 76.3525 224.64 76.8213 225.005 77.7588C225.531 76.8213 226.307 76.3525 227.333 76.3525C228.13 76.3525 228.747 76.6234 229.185 77.165C229.622 77.7015 229.841 78.4984 229.841 79.5557V84.1025H228.458V79.54C228.458 78.8057 228.333 78.2796 228.083 77.9619C227.833 77.639 227.458 77.4775 226.958 77.4775C226.463 77.4775 226.067 77.639 225.771 77.9619C225.479 78.2796 225.307 78.6963 225.255 79.2119V84.1025H223.856V79.54C223.856 78.8317 223.726 78.3109 223.466 77.9775C223.211 77.6442 222.828 77.4775 222.317 77.4775C221.515 77.4775 220.958 77.8083 220.646 78.4697V84.1025ZM236.521 79.376C236.521 78.8031 236.372 78.3421 236.075 77.9932C235.778 77.639 235.351 77.4619 234.794 77.4619C234.336 77.4619 233.94 77.6546 233.606 78.04C233.278 78.4255 233.075 78.9176 232.997 79.5166L233.013 79.5557H236.521V79.376ZM235.005 84.2666C233.948 84.2666 233.104 83.9176 232.474 83.2197C231.849 82.5218 231.536 81.6025 231.536 80.4619V80.1494C231.536 79.0817 231.854 78.1859 232.489 77.4619C233.13 76.7327 233.898 76.3682 234.794 76.3682C235.804 76.3682 236.575 76.6729 237.106 77.2822C237.643 77.8864 237.911 78.7171 237.911 79.7744V80.6416H232.974L232.95 80.6729C232.966 81.4229 233.153 82.0296 233.513 82.4932C233.877 82.9515 234.375 83.1807 235.005 83.1807C235.89 83.1807 236.609 82.9307 237.161 82.4307L237.708 83.3291H237.7C237.065 83.9541 236.166 84.2666 235.005 84.2666ZM239.481 76.4932H240.716L240.817 77.626C241.343 76.777 242.096 76.3525 243.075 76.3525C243.909 76.3525 244.547 76.5973 244.989 77.0869C245.432 77.5713 245.653 78.3083 245.653 79.2979V84.1025H244.271V79.3291C244.271 78.6676 244.14 78.1937 243.88 77.9072C243.619 77.6208 243.213 77.4775 242.661 77.4775C242.265 77.4775 241.914 77.5713 241.606 77.7588C241.299 77.9463 241.052 78.2119 240.864 78.5557V84.1025H239.481V76.4932ZM248.106 74.6729H249.505V76.5088H250.942V77.54H249.505V82.1572C249.505 82.8031 249.773 83.126 250.31 83.126C250.476 83.126 250.648 83.0947 250.825 83.0322L251.005 83.9775C250.755 84.1702 250.403 84.2666 249.95 84.2666C249.367 84.2666 248.914 84.0921 248.591 83.7432C248.268 83.3942 248.106 82.8656 248.106 82.1572V77.54H246.903V76.5088H248.106V74.6729ZM254.161 82.6807V84.1025H252.778V82.6807H254.161Z" fill="#333333"/>
</svg>
