<svg width="181" height="181" viewBox="0 0 181 181" fill="none" xmlns="http://www.w3.org/2000/svg">
<mask id="mask0" mask-type="alpha" maskUnits="userSpaceOnUse" x="0" y="0" width="181" height="181">
<circle cx="90.9863" cy="90.0391" r="90" fill="#BAD1FB"/>
</mask>
<g mask="url(#mask0)">
<path d="M-74.8955 296.533L131.522 356.221L131.629 -111.047L-74.7888 -170.735L-74.8955 296.533Z" fill="#E0E0E0"/>
<path d="M-169.09 296.533L37.3276 356.221L37.4344 -111.047L-168.984 -170.735L-169.09 296.533Z" fill="#F2F2F2"/>
<path d="M96.752 115.516L181.364 75.395V133.802L96.752 115.516Z" fill="#BCBEE2"/>
<path d="M181.365 75.3953L96.7529 115.516V57.1152L181.365 75.3953Z" fill="#E0E0E0"/>
<path d="M115.509 88.2744L176.422 99.9734V123.208L115.509 110.253V88.2744Z" fill="#E0E0E0"/>
<path d="M227.287 77.3669L176.422 99.9736V123.208L226.659 99.9736L227.287 77.3669Z" fill="#A8A8A8"/>
<path d="M115.509 88.2754L166.983 63.9104L227.287 77.3677L176.422 99.9743L115.509 88.2754Z" fill="#F2F2F2"/>
<path d="M181.365 139.824L96.7529 179.945V121.544L181.365 139.824Z" fill="#E0E0E0"/>
<path d="M227.287 143.698L176.422 166.305V189.54L226.659 166.305L227.287 143.698Z" fill="#A8A8A8"/>
<path d="M348.832 169.856L95.2749 115.082L94.0431 120.784L347.6 175.559L348.832 169.856Z" fill="#D8D9EF"/>
<path d="M227.287 13.1455L176.422 35.7522V58.9931L226.659 35.7522L227.287 13.1455Z" fill="#A8A8A8"/>
<path d="M115.509 24.053L166.983 -0.312012L227.287 13.1452L176.422 35.7519L115.509 24.053Z" fill="#F2F2F2"/>
<path d="M96.752 51.2183L181.364 11.0977V69.5046L96.752 51.2183Z" fill="#D7D7D7"/>
<path d="M181.365 11.0981L96.7529 51.2187V-7.18823L181.365 11.0981Z" fill="#E0E0E0"/>
<path d="M348.834 234.23L94.7437 179.34L93.5118 185.042L347.602 239.932L348.834 234.23Z" fill="#D8D9EF"/>
<path d="M348.824 105.49L95.4331 50.7512L94.2013 56.4535L347.592 111.192L348.824 105.49Z" fill="#F2F2F2"/>
<path d="M89.7627 -16.3823V-14.7559V192.271H98.4663V-16.3823" fill="#BDBDBD"/>
<path d="M87.8794 -16.3823V-14.7559V192.271H96.583V-16.3823" fill="#F2F2F2"/>
<path d="M348.82 45.4918L114.384 -5.15234L113.152 0.549904L347.589 51.1941L348.82 45.4918Z" fill="#E8E8E8"/>
<path d="M41.5909 -31.282H30.9155V252.558H41.5909V-31.282Z" fill="#BDBDBD"/>
<path d="M125.771 122.908L134.525 118.933L133.897 141.539L122.826 146.525V124.208L125.771 122.908Z" fill="#809FD7"/>
<path d="M122.825 124.207L134.524 118.932L74.2268 105.475L62.5278 110.248L122.825 124.207Z" fill="#6888C2"/>
<path d="M125.771 99.2839L134.525 95.3088L133.897 117.916L122.826 123.033V100.577L125.771 99.2839Z" fill="#809FD7"/>
<path d="M122.825 100.576L134.524 95.3078L74.2268 81.8442L62.5278 86.6168L122.825 100.576Z" fill="#C6DAFF"/>
<g opacity="0.4">
<mask id="mask1" mask-type="alpha" maskUnits="userSpaceOnUse" x="32" y="10" width="93" height="209">
<path d="M124.2 217.34L124.244 31.1548L32.7119 10.9155L33.4152 197.264L124.2 217.34Z" fill="#253094" stroke="#00E4D1" stroke-width="1.14769" stroke-miterlimit="10"/>
</mask>
<g mask="url(#mask1)">
<g style="mix-blend-mode:overlay">
<g style="mix-blend-mode:multiply">
<path d="M78.2386 212.385C-22.515 190.175 -105.033 86.5563 -106.097 -19.1091C-107.084 -124.774 -26.2383 -192.464 74.5153 -170.255C175.269 -148.045 257.787 -44.4263 258.85 61.2391C259.914 166.904 178.992 234.594 78.2386 212.385Z" stroke="#4482F0" stroke-width="6.31231"/>
</g>
<g style="mix-blend-mode:multiply">
<path d="M77.9754 185.434C-8.5206 166.354 -79.3613 77.3311 -80.2745 -13.4496C-81.1225 -104.23 -11.717 -162.385 74.779 -143.304C161.275 -124.223 232.116 -35.2005 233.029 55.5802C233.942 146.361 164.471 204.515 77.9754 185.434Z" stroke="#4482F0" stroke-width="6.31231"/>
</g>
<g style="mix-blend-mode:multiply">
<path d="M77.7265 159.888C4.69591 143.772 -55.1165 68.586 -55.8876 -8.08536C-56.6035 -84.7567 1.99707 -133.873 75.0276 -117.757C148.058 -101.642 207.871 -26.4557 208.642 50.2157C209.413 126.887 150.757 176.003 77.7265 159.888Z" stroke="#4482F0" stroke-width="6.31231"/>
</g>
<g style="mix-blend-mode:multiply">
<path d="M77.7265 176.091C4.69591 159.976 -55.1165 84.7896 -55.8876 8.11826C-56.6035 -68.5531 1.99707 -117.669 75.0276 -101.554C148.058 -85.4384 207.871 -10.2521 208.642 66.4193C209.413 143.091 150.757 192.207 77.7265 176.091Z" stroke="#4482F0" stroke-width="6.31231"/>
</g>
<g style="mix-blend-mode:multiply">
<path d="M77.5215 138.833C15.5802 125.162 -35.1501 61.3789 -35.8041 -3.66386C-36.4113 -68.7066 13.2911 -110.373 75.2324 -96.702C137.174 -83.0309 187.904 -19.248 188.558 45.7947C189.212 110.837 139.463 152.504 77.5215 138.833Z" stroke="#4482F0" stroke-width="6.31231"/>
</g>
<g style="mix-blend-mode:multiply">
<path d="M77.3142 117.497C26.6206 106.303 -14.8978 54.0754 -15.433 0.816299C-15.93 -52.4428 24.7472 -86.5607 75.4409 -75.3663C126.135 -64.172 167.653 -11.9445 168.188 41.3146C168.723 94.5737 128.008 128.692 77.3142 117.497Z" stroke="#4482F0" stroke-width="6.31231"/>
</g>
<g style="mix-blend-mode:multiply">
<path d="M77.1093 96.4423C37.5049 87.6921 5.06864 46.868 4.65049 5.23756C4.26221 -36.3929 36.0413 -63.0615 75.6457 -54.3113C115.25 -45.5612 147.686 -4.73704 148.104 36.8934C148.523 78.5239 116.714 105.192 77.1093 96.4423Z" stroke="#4482F0" stroke-width="6.31231"/>
</g>
<g style="mix-blend-mode:multiply">
<path d="M76.9043 75.3871C48.3891 69.0811 25.035 39.6604 24.734 9.65857C24.4544 -20.3433 47.3353 -39.5625 75.8505 -33.2565C104.366 -26.9506 127.72 2.47018 128.021 32.472C128.322 62.4738 105.419 81.6931 76.9043 75.3871Z" stroke="#4482F0" stroke-width="6.31231"/>
</g>
<g style="mix-blend-mode:multiply">
<path d="M76.6966 54.0512C59.4291 50.2219 45.2869 32.3566 45.1046 14.1385C44.9353 -4.07969 58.7909 -15.7503 76.0585 -11.9211C93.326 -8.09188 107.468 9.77343 107.65 27.9916C107.833 46.2098 93.9641 57.8804 76.6966 54.0512Z" stroke="#4482F0" stroke-width="6.31231"/>
</g>
<g style="mix-blend-mode:multiply">
<path d="M76.6004 36.9615C68.2736 35.1215 61.4539 26.5373 61.366 17.7834C61.2843 9.02963 67.9659 3.42191 76.2927 5.26184C84.6195 7.10178 91.4392 15.686 91.5271 24.4399C91.615 33.1937 84.9272 38.8014 76.6004 36.9615Z" stroke="#4482F0" stroke-width="6.31231"/>
</g>
</g>
</g>
</g>
<path d="M36.0855 -31.2351H30.9209V252.532H36.0855V-31.2351Z" fill="#BDBDBD"/>
<path d="M29.5913 9.82913L157.438 38.345L155.096 -237.852L29.6604 -274.124L29.5913 9.82913Z" fill="#F2F2F2"/>
<path d="M58.1704 5.98096L61.3542 18.333L82.2905 22.9297L80.6766 9.96853L58.1704 5.98096Z" fill="#F2F2F2"/>
<path d="M65.2289 17.2654L65.1284 16.1853L76.5448 18.4774L76.7143 19.6705" fill="#E0E0E0"/>
<path d="M64.6336 3.85181L58.1719 5.98059L80.6781 9.96817L85.4129 7.61959L64.6336 3.85181Z" fill="white"/>
<path d="M82.2901 22.9294L86.0642 21.2025L85.4111 7.61963L80.6763 9.96821L82.2901 22.9294Z" fill="#BDBDBD"/>
<path d="M72.1443 15.7151C73.0506 14.9286 72.9377 13.3143 71.8921 12.1093C70.8465 10.9044 69.2642 10.5651 68.3578 11.3516C67.4515 12.1381 67.5644 13.7524 68.61 14.9574C69.6556 16.1623 71.2379 16.5015 72.1443 15.7151Z" fill="#4482F0"/>
<path d="M24.9004 125.23L85.8129 140.302V163.536L24.9004 147.209V125.23Z" fill="#E4E4E4"/>
<path d="M122.879 124.177L83.6587 141.533V164.767L122.879 146.514V124.177Z" fill="#D7D7D7"/>
<path d="M116.486 130.981C116.847 130.787 117.253 130.693 117.661 130.709C118.07 130.725 118.467 130.851 118.811 131.072C119.136 131.348 119.387 131.699 119.544 132.095C119.702 132.49 119.76 132.918 119.713 133.341L119.467 143.451L107.313 148.728L107.659 134.821L116.486 130.981ZM118.678 142.958L118.903 133.975C118.945 132.242 117.755 131.368 116.254 132.016L108.441 135.412L108.145 147.537L118.678 142.958Z" fill="#355A9C"/>
<path d="M110.455 136.294L110.265 144.255L116.676 141.437L116.824 135.491C116.824 134.709 116.289 134.293 115.606 134.589L112.414 135.998V137.407L115.704 135.998L115.606 140.415L111.484 142.254L111.653 135.463L115.88 133.631C116.916 133.18 117.705 133.758 117.677 134.941L117.501 141.987L109.476 145.509L109.687 136.886L110.455 136.294ZM114.781 139.929L114.845 137.287L112.358 138.337L112.294 141.007L114.781 139.929Z" fill="#355A9C"/>
<path d="M22.7466 126.462L62.5823 110.67L122.879 124.134L83.6591 141.534L22.7466 126.462Z" fill="#F2F2F2"/>
<path d="M23.0166 102.869L83.9291 117.941V141.175L23.0166 124.848V102.869Z" fill="#E4E4E4"/>
<path d="M122.879 100.606L83.6587 117.916V141.151L122.879 122.986V100.606Z" fill="#D7D7D7"/>
<path d="M22.7466 102.843L62.769 86.5469L122.879 100.606L83.6591 117.914L22.7466 102.843Z" fill="white"/>
<path d="M56.5879 164.679L74.2337 162.883C74.2337 162.883 91.8167 160.999 94.3285 158.487C96.8404 155.976 93.7006 157.231 99.3522 152.208C105.004 147.184 106.888 146.556 108.772 145.3C110.656 144.044 112.539 145.928 111.284 147.184C110.028 148.44 106.831 150.745 106.228 152.107C105.626 153.47 114.423 151.536 116.307 150.299C118.191 149.062 120.075 149.043 121.331 148.415C122.587 147.787 120.703 152.811 119.447 153.439C118.191 154.067 114.587 155.906 113.249 157.206C111.912 158.506 109.4 162.858 106.888 164.742C104.376 166.626 82.3972 179.097 78.0015 183.223C73.6057 187.349 64.2239 186.407 64.2239 186.407" fill="#FAFAFA"/>
<path d="M94.2964 158.15C91.9128 159.998 87.3669 160.598 83.5786 161.349C85.4475 164 89.0034 170.713 88.2761 176.356C93.4281 173.054 104.895 166.652 107.545 164.684C110.194 162.716 112.838 158.176 114.255 156.812C115.673 155.447 119.468 153.532 120.793 152.876C122.118 152.22 124.105 146.971 122.78 147.627C121.456 148.283 119.468 148.31 117.481 149.595C115.494 150.881 106.28 152.902 106.882 151.478C107.895 150.254 110.857 147.654 112.182 146.341C113.507 145.029 111.519 143.061 109.532 144.373C107.545 145.685 105.558 146.341 99.5957 151.59C93.6339 156.838 96.946 155.526 94.2964 158.15Z" fill="#4F4F4F"/>
<path d="M71.1113 95.6042C72.5249 95.0537 74.0236 94.754 75.5402 94.7184C77.2242 94.6182 78.9141 94.7441 80.5647 95.0926L95.1112 98.4524L80.5036 104.912L60.5278 100.331L71.1113 95.6042ZM92.8204 98.5746L79.9232 95.6042C77.4339 95.0238 73.9366 95.2071 72.1345 96.0089L62.7423 100.163L80.1523 104.179L92.8204 98.5746Z" fill="#4482F0"/>
<path d="M67.813 99.6665L79.267 102.301L86.9793 98.8877L78.4194 96.9252C77.2276 96.666 75.988 96.732 74.8305 97.1161L71.0125 98.8113L73.0742 99.2847L77.0831 97.5514L83.4515 99.0098L78.511 101.194L68.7598 98.9029L73.8149 96.6656C75.5069 96.0911 77.3245 95.9933 79.0684 96.3831L89.2243 98.7273L79.5571 103.034L67.1792 100.178L67.813 99.6665ZM81.176 99.1396L77.358 98.2615L74.3036 99.5749L78.1216 100.461L81.176 99.1396Z" fill="#4482F0"/>
<path d="M10.57 201.152L8.30306 171.676C8.30306 171.676 -0.488434 167.908 0.139529 164.768C0.767493 161.628 8.93102 122.695 8.93102 122.695C8.93102 122.695 10.1869 117.671 17.7225 115.787C25.2581 113.903 39.0733 109.507 54.7724 117.671C70.4715 125.834 71.7274 128.974 72.3553 132.114C72.9833 135.254 73.0901 201.152 73.0901 201.152" fill="white"/>
<path d="M28.743 91.9175C28.743 91.9175 24.9752 78.8872 44.0967 78.8872C60.3798 78.8872 60.1914 89.0477 59.7958 92.0744C59.6953 92.7966 59.6074 93.5188 59.5509 94.2409C59.2934 97.5503 58.3829 106.273 55.7015 110.844C55.5846 111.039 55.4305 111.209 55.2478 111.344C55.0652 111.479 54.8576 111.577 54.6371 111.632C54.4166 111.687 54.1874 111.698 53.9628 111.664C53.7381 111.63 53.5223 111.552 53.3278 111.435C52.7365 111.072 52.1041 110.781 51.4439 110.568C51.1365 110.478 50.8241 110.407 50.5082 110.354C49.1769 110.135 49.673 110.047 49.2523 110.982C48.2413 113.212 49.943 114.832 50.7217 115.604C52.2916 117.174 26.1872 121.62 30.1371 113.092C31.3063 110.779 31.9496 108.236 32.021 105.645C31.9164 103.049 31.4946 100.477 30.765 97.9836C30.5013 96.9663 30.1371 96.0181 29.8168 94.9945C29.2093 93.3729 28.788 91.6875 28.5609 89.9708" fill="#FFCBC0"/>
<path d="M59.5949 87.6972C55.0227 90.5473 49.8486 92.2913 44.484 92.7906C39.1194 93.2899 33.7124 92.5307 28.6928 90.5733C28.6928 90.5733 25.1448 83.402 27.3615 71.1064C29.5782 58.8109 60.8571 68.9588 60.8571 68.9588C60.5556 76.1301 59.6765 80.5071 59.6451 87.6847" fill="white"/>
<path d="M8.30268 171.675L9.30114 129.35C9.30114 129.35 -1.25493 164.108 0.107755 165.822C1.47044 167.536 4.35907 170.632 8.30268 171.675Z" fill="url(#paint0_linear)"/>
<path d="M49.9495 142.733L57.9686 186.364L73.0523 185.767L31.3179 201.146L49.9495 142.733Z" fill="url(#paint1_linear)"/>
<path d="M28.3923 89.8386C28.3923 89.8386 28.7 91.3269 35.8211 92.564C40.275 93.2872 44.8284 93.1164 49.2156 92.0616C49.2156 92.0616 53.9756 90.7429 54.6349 90.3598C55.2943 89.9767 57.2472 89.0474 57.2472 89.0474C56.1923 89.6251 56.4749 91.779 56.4749 91.779C54.8045 95.0005 55.715 96.8592 55.715 96.8592L54.0572 97.0602V95.955C54.0572 95.955 54.2707 92.0993 51.6333 91.7539C48.9958 91.4085 48.3804 94.0397 48.2423 95.955C48.1041 97.8703 51.3821 100.137 49.0021 101.418C46.6221 102.699 42.9736 108.244 42.9736 108.244C33.416 108.451 31.9592 106.423 31.9592 106.423C31.9592 106.423 32.3359 103.221 30.1569 96.2564C28.1411 89.8386 28.3923 89.8386 28.3923 89.8386Z" fill="#4F4F4F"/>
<g style="mix-blend-mode:multiply" opacity="0.61">
<path d="M49.6796 92.2061C49.6796 92.2061 48.2981 95.3019 50.4081 99.189C50.4081 99.189 50.81 101.004 51.7833 100.583C50.2951 104.458 50.226 109.236 54.5652 111.667C54.3532 111.724 54.1314 111.735 53.9147 111.7C53.698 111.664 53.4915 111.582 53.3093 111.459C52.4874 110.947 51.5786 110.589 50.6279 110.404C50.2756 110.298 49.9094 110.245 49.5415 110.247C49.0831 110.247 48.3609 105.349 49.2526 103.17C50.1443 100.991 49.9748 99.7165 49.5855 99.0948C49.2652 98.5736 48.0972 97.1293 48.2667 95.6159C48.4363 94.1025 48.7377 92.9785 49.6796 92.2061Z" fill="#EAC2B2"/>
</g>
<path d="M124.791 264.588L353.571 313.236L353.69 -28.0117L124.91 -70.8577L124.791 264.588Z" fill="#F2F2F2"/>
<path opacity="0.5" d="M236.21 180.793L156.986 163.643C156.133 163.457 155.37 162.986 154.821 162.306C154.273 161.627 153.974 160.78 153.972 159.907L154.035 56.6698C154.035 56.0997 154.163 55.5369 154.409 55.0227C154.655 54.5085 155.013 54.0558 155.457 53.6981C155.901 53.3404 156.419 53.0866 156.974 52.9553C157.529 52.8241 158.106 52.8188 158.663 52.9397L237.887 70.0894C238.745 70.2757 239.513 70.7521 240.061 71.4385C240.609 72.1248 240.903 72.979 240.895 73.8572L240.832 177.094C240.828 177.662 240.698 178.221 240.45 178.731C240.203 179.241 239.845 179.69 239.402 180.045C238.959 180.399 238.443 180.65 237.891 180.78C237.339 180.909 236.764 180.914 236.21 180.793Z" fill="#BDBDBD"/>
<path d="M233.66 182.048L154.436 164.899C153.583 164.714 152.82 164.242 152.272 163.562C151.725 162.882 151.427 162.035 151.428 161.162L151.485 57.9252C151.486 57.3554 151.615 56.7932 151.861 56.2796C152.108 55.7659 152.466 55.3138 152.909 54.9563C153.353 54.5988 153.871 54.3449 154.425 54.2132C154.979 54.0815 155.556 54.0753 156.113 54.195L235.33 71.3447C236.189 71.5309 236.958 72.0071 237.507 72.6933C238.056 73.3795 238.352 74.2338 238.345 75.1125L238.282 178.35C238.277 178.917 238.146 179.475 237.898 179.985C237.65 180.495 237.292 180.943 236.85 181.297C236.407 181.651 235.891 181.902 235.34 182.032C234.788 182.162 234.214 182.168 233.66 182.048Z" fill="white"/>
<path d="M168.768 70.4604L169.207 70.0397C169.494 70.3897 169.882 70.642 170.319 70.7618C170.796 70.8686 171.06 70.7116 171.06 70.3788C171.06 70.046 170.783 69.8638 170.4 69.6127L169.816 69.2359C169.572 69.1093 169.365 68.9221 169.214 68.6923C169.064 68.4624 168.975 68.1976 168.956 67.9234C168.956 67.2515 169.584 66.8622 170.388 67.0443C170.911 67.1585 171.38 67.4462 171.719 67.8606L171.336 68.25C171.095 67.9699 170.772 67.7722 170.413 67.6848C170.005 67.5969 169.741 67.7288 169.741 68.0365C169.741 68.3442 170.067 68.564 170.419 68.7837L170.997 69.148C171.247 69.2715 171.459 69.4604 171.611 69.6949C171.762 69.9293 171.847 70.2003 171.857 70.4792C171.857 71.1637 171.286 71.6096 170.325 71.4024C169.718 71.264 169.172 70.9337 168.768 70.4604Z" fill="white"/>
<path d="M172.535 70.743V69.2296L172.077 69.1291V68.5702L172.573 68.6456L172.661 67.7979L173.289 67.9297V68.7963L174.105 68.9784V69.5687L173.289 69.3929V70.9C173.289 71.2768 173.433 71.4903 173.741 71.528C173.851 71.5468 173.963 71.5468 174.074 71.528L174.199 72.1057C173.991 72.1392 173.779 72.1392 173.571 72.1057C173.258 72.0517 172.977 71.8811 172.785 71.6282C172.593 71.3754 172.503 71.0591 172.535 70.743Z" fill="white"/>
<path d="M174.419 70.6416C174.392 70.4426 174.415 70.24 174.486 70.052C174.556 69.8639 174.672 69.6962 174.823 69.5638C174.974 69.4315 175.156 69.3385 175.352 69.2931C175.547 69.2478 175.751 69.2516 175.945 69.3041C176.387 69.4184 176.777 69.6783 177.053 70.0418C177.328 70.4053 177.474 70.8511 177.465 71.3073C177.493 71.5059 177.471 71.7085 177.402 71.8966C177.332 72.0847 177.216 72.2525 177.066 72.3847C176.915 72.5169 176.733 72.6094 176.537 72.6537C176.342 72.698 176.138 72.6928 175.945 72.6386C175.502 72.5277 175.11 72.2698 174.833 71.907C174.555 71.5443 174.41 71.0981 174.419 70.6416ZM176.692 71.1377C176.735 70.8739 176.684 70.6034 176.547 70.3738C176.411 70.1441 176.197 69.9699 175.945 69.8818C175.474 69.7813 175.191 70.1456 175.191 70.7798C175.156 71.0388 175.211 71.3021 175.349 71.5245C175.487 71.7469 175.697 71.9143 175.945 71.998C176.416 72.1362 176.698 71.7783 176.698 71.1377H176.692Z" fill="white"/>
<path d="M177.998 71.4206C177.979 71.217 178.011 71.012 178.09 70.8235C178.169 70.6349 178.292 70.4684 178.45 70.3384C178.608 70.2085 178.795 70.119 178.995 70.0778C179.196 70.0366 179.403 70.0448 179.599 70.1019C179.962 70.1893 180.289 70.3867 180.535 70.6671L180.17 71.0689C180.033 70.9007 179.846 70.7799 179.637 70.7236C179.122 70.6105 178.77 70.9559 178.77 71.5902C178.744 71.8653 178.814 72.1409 178.969 72.37C179.124 72.599 179.353 72.7673 179.618 72.8461C179.731 72.8688 179.848 72.8688 179.961 72.8462C180.074 72.8236 180.182 72.7787 180.277 72.7142L180.579 73.2731C180.425 73.3699 180.254 73.4343 180.074 73.4624C179.895 73.4905 179.712 73.4816 179.536 73.4364C179.084 73.335 178.681 73.0773 178.4 72.7086C178.119 72.3399 177.976 71.8839 177.998 71.4206Z" fill="white"/>
<path d="M172.527 85.0061C175.925 81.8207 175.47 75.8142 171.51 71.59C167.55 67.3659 161.586 66.5239 158.188 69.7092C154.79 72.8946 155.245 78.9011 159.205 83.1252C163.165 87.3493 169.129 88.1914 172.527 85.0061Z" fill="#4482F0"/>
<path d="M165.367 72.3977V82.5589" stroke="#FEFEFE" stroke-width="2" stroke-linecap="round" stroke-linejoin="round"/>
<path d="M170.485 78.5856L160.234 76.3677" stroke="#FEFEFE" stroke-width="2" stroke-linecap="round" stroke-linejoin="round"/>
<path d="M172.53 117.911C175.928 114.726 175.472 108.719 171.513 104.495C167.553 100.271 161.588 99.4291 158.19 102.614C154.792 105.8 155.248 111.806 159.207 116.031C163.167 120.255 169.132 121.097 172.53 117.911Z" fill="#4482F0"/>
<path d="M180.76 105.444L180.095 105.306V105.18L181.57 105.5V105.62L180.905 105.475V107.422L180.76 107.39V105.444Z" fill="#222C3D"/>
<path d="M165.367 105.306V115.454" stroke="#FEFEFE" stroke-width="2" stroke-linecap="round" stroke-linejoin="round"/>
<path d="M170.486 111.494L160.234 109.263" stroke="#FEFEFE" stroke-width="2" stroke-linecap="round" stroke-linejoin="round"/>
</g>
<defs>
<linearGradient id="paint0_linear" x1="1.46416" y1="150.512" x2="12.6294" y2="150.512" gradientUnits="userSpaceOnUse">
<stop offset="0.41" stop-color="#699FFF"/>
<stop offset="0.7" stop-color="#5492ED"/>
</linearGradient>
<linearGradient id="paint1_linear" x1="35.8141" y1="172.059" x2="75.1372" y2="171.079" gradientUnits="userSpaceOnUse">
<stop offset="0.31" stop-color="#FAFAFA"/>
<stop offset="0.61" stop-color="#DFDFDF"/>
</linearGradient>
</defs>
</svg>
