<svg width="232" height="181" viewBox="0 0 232 181" fill="none" xmlns="http://www.w3.org/2000/svg">
<circle cx="119.336" cy="90.0391" r="90" fill="#F2F2F2"/>
<rect x="1.37402" y="30.8232" width="70.1974" height="23.944" rx="11.972" fill="white" stroke="#BDBDBD"/>
<rect x="79.874" y="30.0505" width="71.1974" height="24.944" rx="12.472" fill="#4482F0"/>
<path d="M111.789 35.9494L111.072 33.571" stroke="#FEFEFE" stroke-width="1.54271" stroke-miterlimit="10" stroke-linecap="round"/>
<path d="M108.703 39.0378L106.509 37.8606" stroke="#FEFEFE" stroke-width="1.54271" stroke-miterlimit="10" stroke-linecap="round"/>
<path d="M116.069 36.8148L117.246 34.6202" stroke="#FEFEFE" stroke-width="1.54271" stroke-miterlimit="10" stroke-linecap="round"/>
<path d="M110.461 44.2455L108.332 44.7706L109.767 50.5874L108.43 50.9172L106.995 45.1004L104.895 45.6186L104.627 44.5329L110.193 43.1599L110.461 44.2455ZM117.635 47.1175L115.563 47.6286L115.511 49.1704L114.108 49.5166L114.666 42.0563L115.875 41.758L119.797 48.1131L118.393 48.4593L117.635 47.1175ZM115.611 46.4149L117.042 46.0617L115.709 43.695L115.611 46.4149ZM123.162 44.5973L123.786 47.1288L122.454 47.4574L120.751 40.555L123.112 39.9726C123.488 39.8798 123.842 39.8513 124.172 39.8871C124.502 39.9197 124.797 40.0078 125.057 40.1515C125.32 40.2913 125.542 40.483 125.722 40.7268C125.906 40.9697 126.039 41.2571 126.121 41.589C126.198 41.8987 126.21 42.1991 126.157 42.4903C126.108 42.7807 126 43.0488 125.833 43.2946C125.668 43.5365 125.447 43.7485 125.17 43.9308C124.893 44.1132 124.567 44.2507 124.191 44.3435L123.162 44.5973ZM122.895 43.5164L123.924 43.2626C124.114 43.2158 124.271 43.1468 124.396 43.0556C124.521 42.9644 124.617 42.8586 124.685 42.738C124.755 42.6166 124.797 42.4873 124.81 42.3499C124.826 42.2087 124.816 42.0685 124.782 41.9294C124.742 41.7682 124.681 41.624 124.6 41.4966C124.521 41.3685 124.422 41.2639 124.301 41.183C124.184 41.1014 124.048 41.0476 123.894 41.0219C123.74 40.9962 123.569 41.0067 123.379 41.0535L122.35 41.3073L122.895 43.5164Z" fill="#FEFEFE"/>
<rect x="160.371" y="30.8232" width="70.1974" height="23.944" rx="11.972" fill="white" stroke="#BDBDBD"/>
<rect x="0.874023" y="73.0505" width="71.1974" height="24.944" rx="12.472" fill="#4482F0"/>
<rect x="80.873" y="73.5505" width="70.1974" height="23.944" rx="11.972" fill="white" stroke="#BDBDBD"/>
<rect x="159.871" y="73.0505" width="71.1974" height="24.944" rx="12.472" fill="#4482F0"/>
<path d="M191.787 78.9494L191.069 76.571" stroke="#FEFEFE" stroke-width="1.54271" stroke-miterlimit="10" stroke-linecap="round"/>
<path d="M188.7 82.0378L186.506 80.8606" stroke="#FEFEFE" stroke-width="1.54271" stroke-miterlimit="10" stroke-linecap="round"/>
<path d="M196.066 79.8148L197.244 77.6202" stroke="#FEFEFE" stroke-width="1.54271" stroke-miterlimit="10" stroke-linecap="round"/>
<path d="M190.458 87.2455L188.33 87.7706L189.765 93.5874L188.428 93.9172L186.993 88.1004L184.893 88.6186L184.625 87.5329L190.19 86.1599L190.458 87.2455ZM197.632 90.1175L195.561 90.6286L195.508 92.1704L194.105 92.5166L194.664 85.0563L195.872 84.758L199.794 91.1131L198.391 91.4593L197.632 90.1175ZM195.608 89.4149L197.04 89.0617L195.707 86.695L195.608 89.4149ZM203.159 87.5973L203.784 90.1288L202.452 90.4574L200.749 83.555L203.11 82.9726C203.486 82.8798 203.839 82.8513 204.17 82.8871C204.5 82.9197 204.795 83.0078 205.055 83.1515C205.317 83.2913 205.539 83.483 205.72 83.7268C205.904 83.9697 206.037 84.2571 206.118 84.589C206.195 84.8987 206.207 85.1991 206.155 85.4903C206.106 85.7807 205.998 86.0488 205.83 86.2946C205.665 86.5365 205.444 86.7485 205.167 86.9308C204.89 87.1132 204.564 87.2507 204.188 87.3435L203.159 87.5973ZM202.893 86.5164L203.921 86.2626C204.111 86.2158 204.268 86.1468 204.393 86.0556C204.518 85.9644 204.614 85.8586 204.682 85.738C204.753 85.6166 204.794 85.4873 204.808 85.3499C204.823 85.2087 204.814 85.0685 204.779 84.9294C204.739 84.7682 204.679 84.624 204.597 84.4966C204.518 84.3685 204.419 84.2639 204.298 84.183C204.181 84.1014 204.045 84.0476 203.891 84.0219C203.738 83.9962 203.566 84.0067 203.376 84.0535L202.347 84.3073L202.893 86.5164Z" fill="#FEFEFE"/>
<rect x="1.37402" y="116.122" width="70.1974" height="23.944" rx="11.972" fill="white" stroke="#BDBDBD"/>
<rect x="80.373" y="115.622" width="71.1974" height="24.944" rx="12.472" fill="#4482F0"/>
<rect x="160.371" y="116.122" width="70.1974" height="23.944" rx="11.972" fill="white" stroke="#BDBDBD"/>
<path d="M140.607 141.552L143.04 150.635C143.937 153.982 143.499 163.371 143.447 164.44C143.411 165.04 142.998 165.545 142.42 165.7L125.593 170.209C125.081 170.346 124.527 170.171 124.181 169.771C124.157 169.735 121.494 166.622 120.569 165.688C119.493 164.612 118.07 163.347 116.571 162.004C114.516 160.163 112.174 158.09 109.934 155.82C108.197 154.063 107.758 152.112 108.71 150.464C109.248 149.532 110.123 148.862 111.173 148.58C111.186 148.577 111.186 148.577 111.2 148.573C112.25 148.292 113.36 148.445 114.308 148.992C114.338 148.998 114.358 149.021 114.392 149.04L118.096 151.523L113.889 135.824C113.305 133.645 114.599 131.385 116.765 130.805C118.931 130.224 121.181 131.535 121.765 133.714L122.932 138.072C123.288 137.822 123.703 137.64 124.149 137.52C125.659 137.116 127.217 137.627 128.214 138.724C128.659 138.338 129.211 138.035 129.828 137.87C131.482 137.427 133.191 138.08 134.162 139.396C134.578 139.059 135.075 138.813 135.627 138.666C137.772 138.063 140.023 139.373 140.607 141.552ZM140.376 151.349L137.942 142.266C137.748 141.544 137.016 141.121 136.321 141.307C135.625 141.494 135.202 142.226 135.395 142.948L136.433 146.82C136.63 147.555 136.201 148.317 135.466 148.514C134.731 148.711 133.982 148.279 133.782 147.531L132.16 141.48C131.967 140.758 131.234 140.335 130.539 140.521C129.843 140.708 129.42 141.44 129.614 142.162L130.771 146.48C130.968 147.215 130.535 147.964 129.8 148.161C129.065 148.358 128.316 147.926 128.119 147.191L126.498 141.14C126.305 140.418 125.572 139.995 124.877 140.181C124.168 140.371 123.758 141.1 123.951 141.822L125.109 146.141C125.306 146.876 124.877 147.638 124.142 147.835C123.407 148.032 122.654 147.586 122.457 146.851L119.126 134.421C118.933 133.699 118.214 133.272 117.505 133.462C116.796 133.652 116.387 134.381 116.58 135.103L121.74 154.359C121.887 154.91 121.68 155.5 121.207 155.838C120.748 156.172 120.119 156.186 119.639 155.864L112.931 151.359C112.635 151.199 112.285 151.152 111.943 151.244C111.602 151.335 111.322 151.551 111.149 151.851C110.774 152.5 111.372 153.31 111.948 153.887C114.128 156.089 116.424 158.147 118.455 159.952C119.988 161.314 121.433 162.615 122.567 163.746C123.311 164.475 124.908 166.34 125.778 167.331L140.795 163.308C140.868 160.01 140.974 153.58 140.376 151.349Z" fill="#4482F0"/>
<path d="M137.942 142.266L140.376 151.349C140.97 153.567 140.864 159.997 140.735 163.295L125.719 167.319C124.858 166.312 123.251 164.463 122.507 163.734C121.374 162.602 119.932 161.315 118.396 159.94C116.364 158.135 114.072 156.09 111.889 153.875C111.325 153.295 110.725 152.471 111.09 151.838C111.263 151.539 111.543 151.323 111.884 151.232C112.225 151.14 112.575 151.187 112.871 151.347L119.579 155.852C120.06 156.174 120.689 156.16 121.148 155.826C121.62 155.488 121.828 154.898 121.68 154.347L116.528 135.117C116.334 134.395 116.744 133.666 117.453 133.476C118.162 133.286 118.881 133.713 119.074 134.435L122.405 146.865C122.602 147.6 123.354 148.046 124.089 147.849C124.824 147.652 125.253 146.89 125.056 146.155L123.899 141.836C123.706 141.114 124.129 140.382 124.824 140.195C125.52 140.009 126.252 140.432 126.446 141.154L128.067 147.205C128.264 147.94 129.013 148.372 129.748 148.175C130.483 147.978 130.915 147.229 130.719 146.494L129.561 142.176C129.368 141.454 129.791 140.722 130.486 140.535C131.195 140.345 131.914 140.772 132.108 141.494L133.729 147.545C133.926 148.28 134.679 148.725 135.414 148.528C136.149 148.331 136.581 147.582 136.381 146.834L135.343 142.962C135.15 142.24 135.573 141.508 136.268 141.321C137.016 141.121 137.752 141.557 137.942 142.266Z" fill="white"/>
<path d="M114.596 126.577L113.909 124.015" stroke="#FEFEFE" stroke-width="1.54" stroke-miterlimit="10" stroke-linecap="round"/>
<path d="M111.199 129.769L108.896 128.44" stroke="#FEFEFE" stroke-width="1.54" stroke-miterlimit="10" stroke-linecap="round"/>
<path d="M119.134 127.643L120.463 125.341" stroke="#FEFEFE" stroke-width="1.54" stroke-miterlimit="10" stroke-linecap="round"/>
<path d="M32.7895 78.9494L32.0718 76.571" stroke="#FEFEFE" stroke-width="1.54271" stroke-miterlimit="10" stroke-linecap="round"/>
<path d="M29.7032 82.0378L27.5085 80.8606" stroke="#FEFEFE" stroke-width="1.54271" stroke-miterlimit="10" stroke-linecap="round"/>
<path d="M37.069 79.8148L38.2462 77.6202" stroke="#FEFEFE" stroke-width="1.54271" stroke-miterlimit="10" stroke-linecap="round"/>
<path d="M31.4608 87.2455L29.3322 87.7706L30.7673 93.5874L29.4304 93.9172L27.9954 88.1004L25.8952 88.6186L25.6274 87.5329L31.193 86.1599L31.4608 87.2455ZM38.6349 90.1175L36.5632 90.6286L36.5111 92.1704L35.1078 92.5166L35.6663 85.0563L36.8751 84.758L40.7967 91.1131L39.3934 91.4593L38.6349 90.1175ZM36.6108 89.4149L38.0425 89.0617L36.7093 86.695L36.6108 89.4149ZM44.1619 87.5973L44.7864 90.1288L43.4543 90.4574L41.7514 83.555L44.1122 82.9726C44.4883 82.8798 44.8417 82.8513 45.1724 82.8871C45.5023 82.9197 45.7973 83.0078 46.0574 83.1515C46.3199 83.2913 46.5416 83.483 46.7224 83.7268C46.9064 83.9697 47.0393 84.2571 47.1212 84.589C47.1976 84.8987 47.2097 85.1991 47.1575 85.4903C47.1084 85.7807 47.0002 86.0488 46.8328 86.2946C46.6679 86.5365 46.447 86.7485 46.1701 86.9308C45.8932 87.1132 45.5667 87.2507 45.1906 87.3435L44.1619 87.5973ZM43.8952 86.5164L44.9239 86.2626C45.1135 86.2158 45.2709 86.1468 45.3959 86.0556C45.5209 85.9644 45.6172 85.8586 45.6847 85.738C45.7553 85.6166 45.7972 85.4873 45.8102 85.3499C45.8256 85.2087 45.8162 85.0685 45.7819 84.9294C45.7421 84.7682 45.6814 84.624 45.5997 84.4966C45.5211 84.3685 45.4216 84.2639 45.301 84.183C45.1837 84.1014 45.048 84.0476 44.8942 84.0219C44.7403 83.9962 44.5685 84.0067 44.3789 84.0535L43.3502 84.3073L43.8952 86.5164Z" fill="#FEFEFE"/>
</svg>
