<svg width="251" height="251" viewBox="0 0 251 251" fill="none" xmlns="http://www.w3.org/2000/svg">
<mask id="mask0" mask-type="alpha" maskUnits="userSpaceOnUse" x="0" y="0" width="251" height="251">
<circle cx="125.656" cy="125.303" r="125" fill="#C4C4C4"/>
</mask>
<g mask="url(#mask0)">
<mask id="mask1" mask-type="alpha" maskUnits="userSpaceOnUse" x="-201" y="0" width="615" height="251">
<path d="M413.447 0.303223H-199.986V250.303H413.447V0.303223Z" fill="#C4C4C4" stroke="#606060" stroke-width="0.321908" stroke-miterlimit="10"/>
</mask>
<g mask="url(#mask1)">
<path d="M-77.8086 385.883L190.631 463.505L190.77 -144.161L-77.6698 -221.783L-77.8086 385.883Z" fill="#E0E0E0"/>
<path d="M-204.463 387.573L63.977 465.195L64.1158 -142.472L-204.324 -220.094L-204.463 387.573Z" fill="#F2F2F2"/>
<path d="M141.256 152.165L251.291 99.9893V175.946L141.256 152.165Z" fill="#BCBEE2"/>
<path d="M251.292 99.9894L141.257 152.165V76.2168L251.292 99.9894Z" fill="#E0E0E0"/>
<path d="M165.649 116.739L244.864 131.953V162.169L165.649 145.322V116.739Z" fill="#A1ACBF"/>
<path d="M311.013 102.554L244.864 131.953V162.169L310.196 131.953L311.013 102.554Z" fill="#A8A8A8"/>
<path d="M165.649 116.74L232.59 85.0542L311.013 102.555L244.864 131.954L165.649 116.74Z" fill="#F2F2F2"/>
<path d="M141.256 235.952L251.291 183.777V259.733L141.256 235.952Z" fill="#BCBEE2"/>
<path d="M251.291 183.778L141.256 235.953V160.005L251.291 183.778Z" fill="#ADD4ED"/>
<path d="M311.013 188.816L244.864 218.215V248.431L310.196 218.215L311.013 188.816Z" fill="#A8A8A8"/>
<path d="M469.077 222.834L139.334 151.601L137.733 159.017L467.475 230.249L469.077 222.834Z" fill="#D8D9EF"/>
<path d="M311.012 19.0361L244.864 48.4354V78.6595L310.196 48.4354L311.012 19.0361Z" fill="#A8A8A8"/>
<path d="M165.649 33.2198L232.59 1.53394L311.013 19.0347L244.864 48.4339L165.649 33.2198Z" fill="#F2F2F2"/>
<path d="M141.256 68.5481L251.291 16.3726V92.3289L141.256 68.5481Z" fill="#D7D7D7"/>
<path d="M251.292 16.3733L141.257 68.5489V-7.40747L251.292 16.3733Z" fill="#E0E0E0"/>
<path d="M469.082 306.55L138.645 235.167L137.043 242.583L467.48 313.965L469.082 306.55Z" fill="#D8D9EF"/>
<path d="M469.068 139.127L139.542 67.9407L137.94 75.3563L467.466 146.542L469.068 139.127Z" fill="#D8D9EF"/>
<path d="M132.167 -19.3638V-17.2487V251.983H143.486V-19.3638" fill="#BDBDBD"/>
<path d="M129.717 -19.3638V-17.2487V251.983H141.036V-19.3638" fill="#F2F2F2"/>
<path d="M469.063 61.1014L164.186 -4.75977L162.584 2.65582L467.461 68.5169L469.063 61.1014Z" fill="#E8E8E8"/>
<path d="M69.5222 -38.7419H55.6392V330.382H69.5222V-38.7419Z" fill="#BDBDBD"/>
<path d="M131.612 280.09L130.942 215.085C130.942 215.085 119.509 210.185 120.326 206.102C121.142 202.019 131.759 151.387 131.759 151.387C131.759 151.387 133.392 144.853 143.192 142.404C152.991 139.954 170.958 134.237 191.374 144.853C211.79 155.47 213.423 159.553 214.24 163.636C215.057 167.72 216.69 203.652 216.69 203.652C217.506 227.588 216.2 234.799 212.084 236.857C207.968 238.915 166.262 258.735 166.262 258.735C159.018 262.148 151.39 264.679 143.543 266.272C130.158 269.057 123.747 271.85 122.351 272.405C120.954 272.961 119.011 270.731 119.011 270.731C119.011 270.731 136.854 262.369 137.132 260.972C137.41 259.576 142.424 257.632 142.424 256.236C142.424 254.839 134.617 257.632 133.506 253.729C132.396 249.825 135.14 252.332 139.917 251.222C144.694 250.111 150.533 246.755 154.412 248.706C158.291 250.658 179.565 239.086 184.416 234.276C189.267 229.466 208.662 222.076 208.662 222.076L207.968 280.057L131.612 280.09Z" fill="url(#paint0_linear)"/>
<path d="M133.506 234.276L130.942 215.085C130.942 215.085 119.509 210.185 120.326 206.102C121.142 202.019 131.759 151.387 131.759 151.387C131.759 151.387 133.392 144.853 143.192 142.404C152.991 139.954 170.958 134.237 191.374 144.853C211.79 155.47 213.423 159.553 214.24 163.636C215.057 167.72 216.69 203.652 216.69 203.652C217.506 227.588 216.2 234.799 212.084 236.857C207.968 238.915 166.262 258.735 166.262 258.735C159.018 262.148 151.39 264.679 143.543 266.272C130.158 269.057 123.747 271.85 122.351 272.405C120.954 272.961 119.011 270.731 119.011 270.731C119.011 270.731 136.854 262.369 137.132 260.972C137.41 259.576 142.424 257.632 142.424 256.236C142.424 254.839 134.617 257.632 133.506 253.729C132.396 249.825 135.14 252.332 139.917 251.222C144.694 250.111 150.533 246.755 154.412 248.706C158.291 250.658 179.565 239.086 184.416 234.276C189.267 229.466 199.385 225.293 199.385 225.293L196.511 242.018L133.506 234.276Z" fill="white"/>
<path d="M195.4 227.122L192.95 179.503C192.95 179.503 192.55 173.452 185.192 174.603C177.834 175.754 145.626 210.094 150.754 218.906C155.883 227.718 183.461 235.1 183.461 235.1C186.743 231.522 190.838 228.785 195.4 227.122Z" fill="#699FFF"/>
<path d="M127.406 215.64C130.683 212.048 134.779 209.299 139.346 207.629L136.896 160.002C136.896 160.002 139.533 153.893 132.167 155.102" fill="white"/>
<path opacity="0.21" d="M160.962 138.655C171.684 135.388 187.601 143.056 187.601 143.056C187.601 143.056 182.986 152.203 179.614 156.123C176.241 160.043 164.155 164.689 156.258 160.443C148.361 156.196 157.131 143.073 157.131 143.073L160.962 138.655Z" fill="white"/>
<path d="M41.3232 221.406L120.538 241.006V270.217L41.3232 248.984V221.406Z" fill="#C4C4C4"/>
<path d="M186.686 211.605L120.538 241.005V270.216L185.87 240L186.686 211.605Z" fill="#D7D7D7"/>
<path d="M41.3232 221.406L108.272 194.097L186.686 211.606L120.538 241.005L41.3232 221.406Z" fill="#D7D7D7"/>
<path d="M76.186 200.058L120.538 210.634V239.845L76.186 227.637V200.058Z" fill="#C4C4C4"/>
<path d="M186.686 181.235L120.538 210.634V239.846L185.87 209.63L186.686 181.235Z" fill="#D7D7D7"/>
<path d="M76.186 200.14L143.127 172.839L186.686 181.234L120.538 210.634L76.186 200.14Z" fill="#E4E4E4"/>
<path d="M177.671 129.622C176.152 121.055 179.827 116.596 178.708 104.036C178.613 102.547 178.156 101.103 177.377 99.8306C175.327 101.022 173.131 101.941 170.844 102.566C170.844 102.566 161.706 103.53 161.706 103.546C159.705 106.405 166.671 108.25 164.736 111.166C163.714 114.188 162.378 117.095 160.75 119.838C159.419 122.288 157.876 124.673 156.332 127.025C156.144 127.523 155.965 128.029 155.801 128.519C155.446 129.627 155.203 130.768 155.075 131.925C155.334 132.193 155.528 132.518 155.643 132.873C155.757 133.228 155.789 133.605 155.736 133.975C155.736 134.252 155.663 134.522 155.614 134.791V134.897C155.426 135.959 155.148 137.037 154.919 138.115L155.328 138.05L158.431 146.134C158.431 146.134 151.081 158.482 164.393 158.384C177.704 158.286 184.392 143.913 184.474 142.868C184.556 141.823 179.182 138.197 177.671 129.622Z" fill="#FFCBC0"/>
<path d="M179.182 101.391C179.223 92.0567 180.366 86.3647 180.766 77.0386C180.766 77.0386 140.089 63.8252 137.198 79.8233C134.307 95.8214 138.937 105.139 138.937 105.139C154.837 107.712 167.463 107.81 179.182 101.383" fill="white"/>
<path d="M180.766 77.0386C180.766 77.0386 140.089 63.8252 137.206 79.8233C135.777 87.7693 160.154 85.0989 160.154 85.0989C167.347 83.3156 174.278 80.6062 180.774 77.0386" fill="white"/>
<g style="mix-blend-mode:multiply" opacity="0.61">
<path d="M177.524 121.187C177.573 120.901 177.654 120.623 177.728 120.37C177.801 120.117 177.785 119.782 177.818 119.48C177.979 117.29 178.252 115.109 178.634 112.947C178.547 112.792 178.42 112.662 178.267 112.571C176.062 111.379 173.212 115.152 173.212 115.152L169.267 107.745C167.904 108.022 166.528 108.229 165.143 108.366C165.143 108.423 165.209 108.464 165.241 108.529C165.775 109.848 165.988 111.276 165.862 112.694C165.825 116.408 165.325 120.103 164.376 123.694C162.832 129.301 159.549 134.273 155 137.895C155.145 138.121 155.263 138.362 155.352 138.614L155.613 139.202C155.751 139.517 155.842 139.849 155.882 140.19C155.882 140.19 157.687 144.388 157.704 144.42C169.471 143.604 174.037 126.74 174.224 125.638C174.412 124.535 175.237 126.748 176.16 125.825C176.691 124.956 177.095 124.016 177.36 123.032C177.369 122.414 177.424 121.797 177.524 121.187Z" fill="#F2AD9D"/>
</g>
<path d="M138.725 105.057C138.703 106.117 138.749 107.179 138.864 108.233C139.109 111.018 139.305 136.702 153.009 138.523C166.712 140.344 173.613 122.778 173.792 121.577C173.972 120.377 174.805 122.68 175.728 121.765C176.65 120.851 180.513 112.104 178.3 110.904C176.087 109.703 173.245 113.484 173.245 113.484L169.301 106.077C169.301 106.077 150.33 107.711 138.725 105.057Z" fill="#FFCBC0"/>
<path opacity="0.5" d="M171.072 117.413C170.45 116.125 169.623 114.948 168.622 113.926C167.096 112.606 165.456 111.422 163.722 110.39C164.18 109.042 163.183 107.695 163.633 106.347C163.633 106.347 170.051 106.062 178.332 101.733C178.92 104.938 179.061 108.208 178.749 111.451C178.749 111.451 175.155 106.862 172.616 116.115L171.072 117.413Z" fill="#4F4F4F"/>
<mask id="mask2" mask-type="alpha" maskUnits="userSpaceOnUse" x="59" y="17" width="122" height="271">
<g style="mix-blend-mode:multiply" opacity="0.5">
<path d="M179.44 286.288L179.497 44.1606L60.4629 17.8401L61.3775 260.18L179.44 286.288Z" fill="#C4C4C4"/>
<path d="M179.44 286.288L179.497 44.1606L60.4629 17.8401L61.3775 260.18L179.44 286.288Z" stroke="#00E4D1" stroke-width="1.28763" stroke-miterlimit="10"/>
</g>
</mask>
<g mask="url(#mask2)">
<g style="mix-blend-mode:multiply">
<path d="M82.6947 23.0021C82.5932 18.1541 83.5084 13.3386 85.3815 8.86591C87.0758 4.86331 89.6888 1.3159 93.009 -1.48917C96.3103 -4.2546 100.234 -6.17707 104.442 -7.09137C109.054 -8.08198 113.829 -8.04015 118.423 -6.96887C123.451 -5.83025 128.224 -3.77022 132.502 -0.893023C136.893 2.03233 140.793 5.63483 144.058 9.78055C147.37 13.9363 150.018 18.5811 151.906 23.5492C153.798 28.4646 154.804 33.6764 154.878 38.943C154.984 43.7913 154.068 48.6076 152.191 53.0791C150.5 57.0858 147.884 60.6345 144.556 63.4342C141.267 66.1949 137.358 68.1172 133.163 69.0364C128.538 70.0318 123.749 69.99 119.142 68.9139C114.115 67.7721 109.342 65.7123 105.063 62.8381C100.671 59.9127 96.7712 56.3102 93.5071 52.1645C90.1881 48.0116 87.5375 43.3661 85.651 38.3958C83.7559 33.4809 82.7467 28.2691 82.6702 23.0021H82.6947ZM73.0093 20.8706C73.2706 47.4361 93.9644 73.4871 119.24 79.0648C144.515 84.6425 164.792 67.6318 164.531 41.0744C164.27 14.5171 143.6 -11.5421 118.325 -17.1198C93.0498 -22.6975 72.7806 -5.68674 73.0338 20.8706H73.0093Z" fill="#FF3F48"/>
</g>
<g style="mix-blend-mode:multiply">
<path d="M56.546 17.2276C56.3733 8.8646 57.9534 0.558071 61.1845 -7.15746C64.1019 -14.0573 68.6034 -20.1731 74.3244 -25.0094C80.0037 -29.7629 86.7471 -33.0744 93.981 -34.6621C101.958 -36.3782 110.216 -36.3057 118.162 -34.4498C126.83 -32.4824 135.059 -28.9272 142.433 -23.964C150.002 -18.9221 156.727 -12.7152 162.359 -5.57317C168.078 1.59304 172.649 9.60471 175.907 18.1749C179.175 26.6487 180.914 35.6348 181.044 44.7159C181.226 53.0797 179.645 61.3881 176.405 69.101C173.487 75.9979 168.985 82.1108 163.265 86.9447C157.587 91.6999 150.843 95.0116 143.609 96.5975C135.634 98.3137 127.379 98.2411 119.436 96.3851C110.765 94.4194 102.533 90.8642 95.157 85.8994C87.5854 80.8599 80.86 74.6526 75.2308 67.5085C69.5116 60.3423 64.9409 52.3307 61.6827 43.7605C58.4189 35.2855 56.6798 26.3001 56.546 17.2194V17.2276ZM46.885 15.0798C47.2933 56.8186 79.8204 97.7653 119.567 106.544C159.313 115.323 191.105 88.578 190.705 46.8474C190.305 5.11674 157.777 -35.8381 118.023 -44.617C78.2688 -53.396 46.4522 -26.6508 46.8524 15.0798H46.885Z" fill="#FF3F48"/>
</g>
<g style="mix-blend-mode:multiply">
<path d="M30.3965 11.4542C30.1477 -0.421555 32.3929 -12.2175 36.9868 -23.1716C39.1102 -28.1188 41.7927 -32.8069 44.9818 -37.1444C48.0745 -41.3449 51.6546 -45.1635 55.6472 -48.5203C59.6114 -51.8512 63.9629 -54.6919 68.6074 -56.9807C73.3592 -59.3131 78.3701 -61.0757 83.5357 -62.2318C94.8513 -64.6597 106.564 -64.5565 117.835 -61.9296C130.148 -59.136 141.837 -54.0886 152.314 -47.0421C157.652 -43.4891 162.699 -39.5158 167.405 -35.1599C172.161 -30.759 176.573 -26.0004 180.602 -20.9258C184.669 -15.8293 188.343 -10.4321 191.594 -4.78069C194.819 0.850815 197.596 6.72697 199.9 12.7935C204.536 24.8301 207.005 37.5926 207.192 50.49C207.446 62.3662 205.201 74.1631 200.602 85.1158C198.479 90.063 195.796 94.7511 192.607 99.0886C189.517 103.291 185.936 107.11 181.942 110.464C177.971 113.795 173.614 116.636 168.965 118.925C164.214 121.258 159.203 123.021 154.037 124.176C142.708 126.609 130.981 126.505 119.697 123.874C107.387 121.083 95.7003 116.038 85.2262 108.995C79.8835 105.444 74.8341 101.47 70.1264 97.1123C65.3699 92.7061 60.958 87.942 56.9294 82.8618C52.8827 77.7634 49.2274 72.3663 45.9945 66.7167C42.77 61.0852 39.993 55.209 37.6892 49.1425C33.0557 37.105 30.5868 24.3431 30.3965 11.4461V11.4542ZM20.7356 9.36363C21.2909 66.2839 65.6511 122.118 119.803 134.074C173.955 146.029 217.409 109.574 216.853 52.6622C216.298 -4.24986 171.938 -60.0922 117.794 -72.0397C63.6504 -83.9872 20.1884 -47.5893 20.7356 9.36363Z" fill="#FF3F48"/>
</g>
<g style="mix-blend-mode:multiply">
<path d="M4.2475 5.6876C4.15137 -2.28372 4.85172 -10.2447 6.33812 -18.0768C7.72408 -25.3249 9.88706 -32.4025 12.7896 -39.1871C15.5417 -45.6005 19.0187 -51.6778 23.1529 -57.3004C27.1599 -62.7306 31.7983 -67.6651 36.9705 -72C42.1146 -76.3179 47.7602 -80.0003 53.7853 -82.9676C59.9434 -85.9897 66.4373 -88.2731 73.1316 -89.7702C80.1631 -91.3332 87.3494 -92.0921 94.5523 -92.0323C102.306 -91.9856 110.034 -91.1206 117.606 -89.4517C125.537 -87.6833 133.279 -85.1564 140.725 -81.9059C148.24 -78.6209 155.454 -74.6861 162.285 -70.1462C169.207 -65.551 175.748 -60.4059 181.844 -54.7606C188.007 -49.0542 193.724 -42.884 198.944 -36.3044C204.204 -29.6949 208.955 -22.6951 213.154 -15.3656C217.318 -8.06431 220.906 -0.449066 223.885 7.41072C226.853 15.2226 229.159 23.2705 230.777 31.4691C232.389 39.635 233.247 47.9315 233.341 56.2543C233.442 64.2258 232.741 72.1872 231.251 80.0188C229.865 87.2668 227.702 94.3445 224.799 101.129C222.047 107.541 218.573 113.618 214.444 119.242C210.432 124.671 205.791 129.605 200.618 133.942C195.475 138.266 189.829 141.953 183.804 144.926C177.647 147.951 171.152 150.234 164.457 151.729C157.426 153.292 150.239 154.05 143.037 153.991C135.275 153.923 127.542 153.036 119.966 151.345C112.036 149.575 104.294 147.048 96.8471 143.799C89.3355 140.515 82.1245 136.583 75.2958 132.047C68.3601 127.45 61.8058 122.302 55.6962 116.654C49.5353 110.945 43.8185 104.775 38.5957 98.1973C33.3509 91.5969 28.6143 84.6081 24.4268 77.2912C20.2542 69.9907 16.6582 62.3754 13.6716 54.5149C10.7069 46.7018 8.40132 38.6542 6.7791 30.4565C5.18353 22.2944 4.33616 14.0037 4.2475 5.6876ZM-5.41343 3.55615C-4.71111 75.6497 51.4578 146.363 120.056 161.512C188.654 176.661 243.696 130.479 242.994 58.394C242.292 -13.6914 186.123 -84.4212 117.525 -99.57C48.9262 -114.719 -6.10758 -68.5456 -5.41343 3.55615Z" fill="#FF3F48"/>
</g>
<g style="mix-blend-mode:multiply">
<path d="M-21.9011 -0.0852814C-22.0218 -9.8731 -21.16 -19.6483 -19.3286 -29.2641C-17.6339 -38.1687 -14.9835 -46.8646 -11.4235 -55.2008C-8.04083 -63.0775 -3.77221 -70.5435 1.29987 -77.4544C6.22448 -84.1362 11.9236 -90.2108 18.278 -95.5513C24.5977 -100.849 31.5318 -105.368 38.931 -109.01C46.4921 -112.724 54.4663 -115.531 62.6872 -117.372C71.3333 -119.289 80.1683 -120.223 89.0241 -120.157C98.5557 -120.066 108.051 -118.971 117.354 -116.89C127.095 -114.722 136.604 -111.618 145.748 -107.621C154.978 -103.585 163.839 -98.7544 172.232 -93.183C180.734 -87.5348 188.769 -81.2126 196.258 -74.2776C203.819 -67.2729 210.833 -59.6995 217.238 -51.6238C223.679 -43.5145 229.496 -34.9287 234.64 -25.9403C239.776 -16.9821 244.202 -7.63557 247.878 2.01352C251.522 11.6103 254.352 21.4967 256.339 31.568C258.318 41.5956 259.373 51.7838 259.491 62.0044C259.612 71.7922 258.75 81.5674 256.918 91.1832C255.223 100.09 252.567 108.786 248.997 117.12C245.617 124.998 241.349 132.465 236.274 139.373C231.352 146.055 225.656 152.13 219.304 157.47C212.983 162.767 206.049 167.285 198.651 170.929C191.086 174.642 183.109 177.449 174.886 179.291C166.248 181.206 157.422 182.14 148.574 182.076C139.04 181.985 129.541 180.89 120.236 178.809C110.495 176.641 100.986 173.537 91.8415 169.54C82.6072 165.516 73.7404 160.696 65.3413 155.135C56.8409 149.484 48.8066 143.162 41.3156 136.229C33.7456 129.223 26.7237 121.647 20.3114 113.567C13.8701 105.46 8.05507 96.874 2.91683 87.8839C-2.21711 78.9189 -6.63791 69.5639 -10.3047 59.9056C-13.9503 50.3115 -16.7831 40.4279 -18.7733 30.3593C-20.7525 20.3288 -21.8076 10.1379 -21.9256 -0.0852814H-21.9011ZM-31.5538 -2.21672C-30.7372 85.0501 37.2977 170.659 120.342 188.993C203.387 207.327 270.001 151.46 269.152 64.1603C268.303 -23.1392 200.292 -108.716 117.256 -127.017C34.2189 -145.318 -32.4113 -89.4509 -31.5538 -2.21672Z" fill="#FF3F48"/>
</g>
<g style="mix-blend-mode:multiply">
<path d="M-47.5362 -5.74431C-47.678 -17.3153 -46.6603 -28.8714 -44.4983 -40.2395C-42.4796 -50.7691 -39.3309 -61.0503 -35.1068 -70.9045C-31.1088 -80.2159 -26.062 -89.041 -20.0642 -97.2087C-14.2399 -105.107 -7.50207 -112.289 0.00898361 -118.605C7.484 -124.866 15.6816 -130.209 24.4267 -134.521C33.3699 -138.906 42.7993 -142.22 52.5194 -144.395C62.731 -146.657 73.1665 -147.753 83.6254 -147.661C94.8906 -147.562 106.114 -146.273 117.108 -143.815C128.624 -141.248 139.866 -137.581 150.68 -132.864C161.591 -128.092 172.064 -122.378 181.982 -115.787C192.036 -109.114 201.535 -101.639 210.385 -93.4358C219.331 -85.1641 227.628 -76.2173 235.203 -66.6743C242.817 -57.0874 249.694 -46.9373 255.775 -36.3114C261.837 -25.7112 267.06 -14.6526 271.397 -3.2372C275.701 8.10846 279.048 19.7947 281.401 31.6989C283.739 43.5565 284.986 55.6034 285.125 67.6886C285.267 79.2595 284.249 90.8156 282.087 102.184C280.076 112.712 276.936 122.994 272.72 132.849C268.722 142.16 263.675 150.985 257.677 159.153C251.871 167.051 245.149 174.233 237.653 180.549C230.178 186.81 221.981 192.153 213.235 196.466C204.293 200.852 194.863 204.166 185.143 206.339C174.93 208.598 164.495 209.693 154.037 209.605C142.771 209.5 131.549 208.208 120.554 205.751C109.041 203.185 97.8009 199.518 86.99 194.8C76.0578 190.043 65.5621 184.34 55.6226 177.756C45.57 171.081 36.0716 163.606 27.2197 155.405C18.2705 147.114 9.96825 138.151 2.38543 128.594C-5.22587 119.005 -12.1025 108.855 -18.1859 98.2311C-24.2451 87.6292 -29.4684 76.5709 -33.8084 65.157C-38.1123 53.8196 -41.4586 42.1415 -43.8123 30.2453C-46.1505 18.3877 -47.397 6.34081 -47.5362 -5.74431ZM-58.9692 -8.26775C-57.9729 94.9074 22.4504 196.114 120.611 217.78C218.772 239.446 297.546 173.387 296.542 70.212C295.537 -32.9631 215.146 -134.17 116.977 -155.836C18.8082 -177.501 -59.9574 -111.443 -58.9529 -8.26775H-58.9692Z" fill="#FF3F48"/>
</g>
<g style="mix-blend-mode:multiply">
<path d="M-77.8407 -12.4336C-78.0074 -26.1139 -76.8036 -39.7765 -74.2475 -53.2169C-71.8736 -65.6591 -68.1607 -77.808 -63.1738 -89.4515C-58.4508 -100.467 -52.4831 -110.907 -45.3872 -120.566C-38.5204 -129.91 -30.5708 -138.408 -21.7044 -145.882C-12.8684 -153.276 -3.17612 -159.582 7.16402 -164.665C17.7345 -169.857 28.8833 -173.777 40.377 -176.343C52.4409 -179.021 64.7688 -180.328 77.1261 -180.238C90.4711 -180.125 103.767 -178.601 116.791 -175.689C130.406 -172.658 143.697 -168.32 156.48 -162.737C169.376 -157.092 181.754 -150.332 193.474 -142.534C205.351 -134.649 216.575 -125.822 227.038 -116.14C237.633 -106.35 247.462 -95.7626 256.437 -84.47C265.437 -73.1222 273.567 -61.1105 280.757 -48.5376C287.928 -36.0082 294.101 -22.9342 299.221 -9.43651C304.318 3.97565 308.276 17.7931 311.055 31.8695C313.819 45.8848 315.293 60.1241 315.456 74.4086C315.627 88.0891 314.423 101.752 311.863 115.192C309.49 127.64 305.777 139.794 300.789 151.443C296.057 162.437 290.084 172.854 282.986 182.492C276.107 191.838 268.143 200.336 259.263 207.808C250.427 215.202 240.735 221.508 230.394 226.591C219.826 231.781 208.68 235.701 197.19 238.269C185.125 240.946 172.798 242.253 160.44 242.164C147.117 242.044 133.844 240.517 120.841 237.607C107.228 234.577 93.9397 230.239 81.1604 224.655C68.2467 219.045 55.8489 212.314 44.1091 204.541C32.2257 196.649 20.9961 187.815 10.5286 178.123C-0.0502472 168.33 -9.86499 157.742 -18.8298 146.453C-27.8299 135.105 -35.9596 123.094 -43.1496 110.521C-50.3104 97.9903 -56.4813 84.9196 -61.6058 71.4278C-66.6995 58.0091 -70.6578 44.1865 -73.439 30.1055C-76.2038 16.0902 -77.6772 1.85086 -77.8407 -12.4336ZM-91.3399 -15.4144C-90.1476 106.544 4.91008 226.199 120.947 251.817C236.985 277.435 330.115 199.331 328.931 77.3567C327.747 -44.6176 232.697 -164.256 116.644 -189.899C0.590012 -215.542 -92.524 -137.389 -91.3399 -15.4144Z" fill="#FF3F48"/>
</g>
<g style="mix-blend-mode:multiply">
<path d="M108.844 28.7737C108.787 23.0082 113.205 19.3006 118.693 20.5092C124.181 21.7179 128.689 27.4017 128.746 33.1673C128.803 38.9328 124.385 42.6404 118.897 41.4317C113.409 40.2231 108.901 34.5392 108.844 28.7737ZM99.1831 26.6422C99.2974 38.0263 108.166 49.1899 118.995 51.5826C129.824 53.9754 138.521 46.6828 138.407 35.2987C138.292 23.9146 129.424 12.7511 118.595 10.3583C107.766 7.96553 99.0769 15.2582 99.1831 26.6422Z" fill="#FF3F48"/>
</g>
</g>
<path d="M84.1237 203.945L162.889 222.181L162.416 249.759L120.734 270.265L41.3232 248.983V221.495L84.1237 203.945Z" fill="#F79CA1"/>
<path d="M117.002 183.456L162.636 192.063L163.069 220.303L120.693 239.91L76.3408 227.701V200.123L117.002 183.456Z" fill="#F79CA1"/>
<path d="M162.889 222.181L120.538 241.004V270.142L162.922 250.616L162.889 222.181Z" fill="#DD7B81"/>
<path d="M158.036 229.724C158.454 229.5 158.924 229.391 159.398 229.41C159.872 229.428 160.332 229.574 160.731 229.83C161.107 230.15 161.398 230.557 161.581 231.015C161.763 231.474 161.83 231.97 161.776 232.46L161.49 244.179L147.403 250.296L147.803 234.175L158.036 229.724ZM160.576 243.607L160.837 233.195C160.886 231.186 159.506 230.173 157.767 230.925L148.71 234.861L148.367 248.915L160.576 243.607Z" fill="#355A9C"/>
<path d="M151.045 235.882L150.825 245.111L158.256 241.844L158.428 234.951C158.428 234.045 157.807 233.563 157.015 233.906L153.316 235.539V237.173L157.129 235.539L157.015 240.66L152.238 242.791L152.434 234.919L157.333 232.796C158.534 232.273 159.449 232.943 159.416 234.315L159.212 242.481L149.91 246.564L150.155 236.568L151.045 235.882ZM156.06 240.096L156.133 237.034L153.25 238.251L153.177 241.346L156.06 240.096Z" fill="#355A9C"/>
<path d="M120.538 241.005L41.3232 221.495V248.983L120.538 270.143V241.005Z" fill="#FFD0D3"/>
<path d="M162.481 191.998L120.538 210.634V239.845L162.922 220.238L162.481 191.998Z" fill="#DD7B81"/>
<path d="M120.538 210.634L76.186 200.058V227.637L120.538 239.845V210.634Z" fill="#FFD0D3"/>
<path d="M124.956 185.825C126.469 185.24 128.071 184.92 129.693 184.878C131.494 184.77 133.301 184.905 135.066 185.278L150.583 188.863L134.968 195.772L113.605 190.872L124.956 185.825ZM148.182 189.01L134.389 185.825C131.726 185.212 127.994 185.408 126.059 186.258L115.973 190.7L134.601 194.996L148.182 189.01Z" fill="#4482F0"/>
<path d="M121.42 190.169L133.67 192.986L141.918 189.336L132.788 187.229C131.514 186.952 130.188 187.022 128.95 187.433L124.867 189.246L127.08 189.761L131.359 187.899L138.17 189.458L132.886 191.794L122.458 189.385L127.872 186.992C129.679 186.378 131.62 186.273 133.482 186.69L144.344 189.197L133.94 193.762L120.71 190.708L121.42 190.169ZM135.712 189.605L131.629 188.674L128.362 190.071L132.445 191.018L135.712 189.605Z" fill="#4482F0"/>
<path d="M191.374 144.853C211.79 155.47 213.423 159.553 214.24 163.636C215.057 167.719 216.69 203.652 216.69 203.652C217.506 227.588 216.2 234.799 212.084 236.857C207.968 238.915 166.262 258.735 166.262 258.735C159.018 262.148 151.39 264.679 143.543 266.272C130.158 269.057 123.747 271.85 122.351 272.405C120.954 272.961 119.011 270.731 119.011 270.731C119.011 270.731 136.854 262.369 137.132 260.972C137.41 259.576 142.424 257.632 142.424 256.236C142.424 254.839 134.617 257.632 133.506 253.729C132.396 249.825 135.14 252.332 139.917 251.221C144.694 250.111 150.533 246.754 154.412 248.706C158.291 250.658 179.565 239.086 184.416 234.276C189.267 229.466 199.385 225.293 199.385 225.293L196.511 242.018" fill="#4F4F4F"/>
<path d="M178.413 344.633L475.934 407.899L476.097 -35.8835L178.568 -91.6033L178.413 344.633Z" fill="#F2F2F2"/>
<path d="M53.9155 14.7234L220.177 51.8073L217.13 -307.378L54.0053 -354.548L53.9155 14.7234Z" fill="#F2F2F2"/>
<path d="M91.0825 9.34448L95.2229 25.4079L122.45 31.3858L120.351 14.5302L91.0825 9.34448Z" fill="#F2F2F2"/>
<path d="M100.262 24.0199L100.131 22.6152L114.977 25.596L115.198 27.1476" fill="#E0E0E0"/>
<path d="M99.4858 6.57617L91.0825 9.34459L120.351 14.5303L126.509 11.4761L99.4858 6.57617Z" fill="white"/>
<path d="M122.45 31.3859L127.358 29.1401L126.509 11.4761L120.352 14.5303L122.45 31.3859Z" fill="#BDBDBD"/>
<path d="M109.255 22.0038C110.434 20.981 110.287 18.8816 108.927 17.3146C107.567 15.7477 105.51 15.3065 104.331 16.3293C103.152 17.352 103.299 19.4514 104.659 21.0184C106.019 22.5854 108.076 23.0266 109.255 22.0038Z" fill="#FF3F48"/>
<path opacity="0.5" d="M313.186 235.366L210.158 213.063C209.048 212.821 208.055 212.208 207.342 211.324C206.629 210.44 206.24 209.34 206.238 208.204L206.319 73.9476C206.32 73.2062 206.486 72.4743 206.806 71.8055C207.126 71.1368 207.592 70.5482 208.169 70.083C208.746 69.6177 209.42 69.2877 210.142 69.117C210.863 68.9463 211.614 68.9394 212.338 69.0967L315.366 91.3993C316.482 91.6416 317.481 92.2612 318.193 93.1537C318.906 94.0463 319.289 95.1572 319.278 96.2992L319.196 230.556C319.191 231.293 319.022 232.021 318.7 232.684C318.378 233.348 317.913 233.932 317.337 234.392C316.761 234.853 316.089 235.18 315.371 235.348C314.653 235.517 313.907 235.523 313.186 235.366Z" fill="#D7D7D7"/>
<path d="M309.87 236.999L206.841 214.696C205.732 214.456 204.739 213.842 204.027 212.958C203.315 212.074 202.928 210.972 202.93 209.837L203.003 75.5806C203.005 74.8397 203.172 74.1086 203.493 73.4406C203.813 72.7726 204.279 72.1847 204.856 71.7198C205.432 71.2549 206.106 70.9247 206.827 70.7534C207.548 70.5821 208.298 70.574 209.022 70.7297L312.042 93.0324C313.159 93.2744 314.158 93.8937 314.872 94.7861C315.586 95.6785 315.971 96.7895 315.962 97.9323L315.88 232.189C315.874 232.926 315.703 233.652 315.381 234.315C315.059 234.978 314.593 235.561 314.017 236.022C313.442 236.482 312.771 236.809 312.054 236.978C311.336 237.147 310.59 237.154 309.87 236.999Z" fill="white"/>
<path d="M234.919 116.571C240.064 111.748 239.374 102.655 233.379 96.2593C227.384 89.864 218.354 88.5891 213.209 93.4117C208.065 98.2343 208.754 107.328 214.749 113.723C220.744 120.119 229.775 121.394 234.919 116.571Z" fill="#FF3F48"/>
<path d="M234.919 157.195C240.064 152.372 239.374 143.278 233.379 136.883C227.384 130.488 218.354 129.213 213.209 134.035C208.065 138.858 208.754 147.952 214.749 154.347C220.744 160.742 229.775 162.017 234.919 157.195Z" fill="#FF3F48"/>
<path d="M231.828 106.851L216.307 103.493" stroke="#FEFEFE" stroke-width="3.12615" stroke-linecap="round" stroke-linejoin="round"/>
<path d="M231.828 147.474L216.307 144.116" stroke="#FEFEFE" stroke-width="3.12615" stroke-linecap="round" stroke-linejoin="round"/>
</g>
</g>
<defs>
<linearGradient id="paint0_linear" x1="121.943" y1="199.83" x2="344.503" y2="268.241" gradientUnits="userSpaceOnUse">
<stop offset="0.11" stop-color="white"/>
<stop offset="1"/>
</linearGradient>
</defs>
</svg>
