<svg width="251" height="251" viewBox="0 0 251 251" fill="none" xmlns="http://www.w3.org/2000/svg">
<mask id="mask0" mask-type="alpha" maskUnits="userSpaceOnUse" x="0" y="0" width="251" height="251">
<circle cx="125.556" cy="125.303" r="125" fill="#BAD1FB"/>
</mask>
<g mask="url(#mask0)">
<mask id="mask1" mask-type="alpha" maskUnits="userSpaceOnUse" x="-228" y="0" width="656" height="268">
<path d="M427.487 0.303223H-227.655V267.301H427.487V0.303223Z" fill="#C4C4C4"/>
</mask>
<g mask="url(#mask1)">
<path d="M-104.835 412.1L181.856 495L182.005 -153.983L-104.687 -236.883L-104.835 412.1Z" fill="#E0E0E0"/>
<path d="M-235.661 412.1L51.0302 495L51.1785 -153.983L-235.513 -236.883L-235.661 412.1Z" fill="#F2F2F2"/>
<path d="M133.564 160.687L251.08 104.964V186.085L133.564 160.687Z" fill="#BCBEE2"/>
<path d="M251.081 104.965L133.565 160.688V79.5757L251.081 104.965Z" fill="#E0E0E0"/>
<path d="M159.616 122.852L244.216 139.101V171.371L159.616 153.378V122.852Z" fill="#E0E0E0"/>
<path d="M314.862 107.703L244.217 139.101V171.371L313.99 139.101L314.862 107.703Z" fill="#A8A8A8"/>
<path d="M159.616 122.854L231.108 89.0134L314.862 107.704L244.216 139.102L159.616 122.854Z" fill="#F2F2F2"/>
<path d="M251.082 194.449L133.565 250.172V169.06L251.082 194.449Z" fill="#E0E0E0"/>
<path d="M314.862 199.83L244.217 231.228V263.499L313.99 231.228L314.862 199.83Z" fill="#A8A8A8"/>
<path d="M483.674 236.161L131.512 160.085L129.801 168.004L481.963 244.08L483.674 236.161Z" fill="#D8D9EF"/>
<path d="M314.862 18.5066L244.217 49.9048V82.1838L313.99 49.9048L314.862 18.5066Z" fill="#A8A8A8"/>
<path d="M159.616 33.6557L231.108 -0.18457L314.862 18.5061L244.216 49.9043L159.616 33.6557Z" fill="#F2F2F2"/>
<path d="M133.564 71.3854L251.08 15.6624V96.7831L133.564 71.3854Z" fill="#D7D7D7"/>
<path d="M251.081 15.663L133.565 71.3861V-9.73462L251.081 15.663Z" fill="#E0E0E0"/>
<path d="M483.679 325.569L130.775 249.333L129.064 257.252L481.968 333.488L483.679 325.569Z" fill="#D8D9EF"/>
<path d="M483.664 146.763L131.732 70.7366L130.022 78.6564L481.953 154.682L483.664 146.763Z" fill="#F2F2F2"/>
<path d="M123.857 -22.5044V-20.2455V267.292H135.945V-22.5044" fill="#BDBDBD"/>
<path d="M121.241 -22.5044V-20.2455V267.292H133.33V-22.5044" fill="#F2F2F2"/>
<path d="M483.659 63.4319L158.053 -6.90723L156.342 1.01256L481.948 71.3517L483.659 63.4319Z" fill="#E8E8E8"/>
<path d="M56.9512 -43.1985H42.1243V351.023H56.9512V-43.1985Z" fill="#BDBDBD"/>
<path d="M173.869 170.954L186.027 165.433L185.155 196.831L169.778 203.756V172.759L173.869 170.954Z" fill="#809FD7"/>
<path d="M169.776 172.759L186.025 165.433L102.279 146.742L86.0305 153.371L169.776 172.759Z" fill="#6888C2"/>
<path d="M173.869 138.143L186.027 132.622L185.155 164.021L169.778 171.129V139.94L173.869 138.143Z" fill="#809FD7"/>
<path d="M169.776 139.938L186.025 132.621L102.279 113.921L86.0305 120.55L169.776 139.938Z" fill="#C6DAFF"/>
<g opacity="0.4">
<mask id="mask2" mask-type="alpha" maskUnits="userSpaceOnUse" x="43" y="14" width="130" height="290">
<path d="M171.686 302.11L171.747 43.5195L44.6194 15.4094L45.5962 274.226L171.686 302.11Z" fill="#253094" stroke="#00E4D1" stroke-width="1.79393" stroke-miterlimit="10"/>
</mask>
<g mask="url(#mask2)">
<g style="mix-blend-mode:overlay">
<g style="mix-blend-mode:multiply">
<path d="M107.851 295.228C-32.0845 264.381 -146.692 120.466 -148.17 -26.291C-149.542 -173.048 -37.2558 -267.062 102.68 -236.215C242.615 -205.369 357.223 -61.4539 358.701 85.3036C360.178 232.061 247.787 326.074 107.851 295.228Z" stroke="#4482F0" stroke-width="9.86662"/>
</g>
<g style="mix-blend-mode:multiply">
<path d="M107.486 257.797C-12.6475 231.296 -111.037 107.653 -112.306 -18.4309C-113.484 -144.515 -17.087 -225.285 103.046 -198.784C223.18 -172.283 321.57 -48.6405 322.838 77.4438C324.106 203.528 227.619 284.298 107.486 257.797Z" stroke="#4482F0" stroke-width="9.86662"/>
</g>
<g style="mix-blend-mode:multiply">
<path d="M107.14 222.316C5.70862 199.934 -77.3642 95.5081 -78.4351 -10.9799C-79.4295 -117.468 1.96024 -185.684 103.392 -163.302C204.823 -140.92 287.896 -36.4942 288.967 69.9938C290.037 176.482 208.571 244.698 107.14 222.316Z" stroke="#4482F0" stroke-width="9.86662"/>
</g>
<g style="mix-blend-mode:multiply">
<path d="M107.14 244.821C5.70862 222.438 -77.3642 118.013 -78.4351 11.5248C-79.4295 -94.9632 1.96024 -163.18 103.392 -140.797C204.823 -118.415 287.896 -13.9896 288.967 92.4984C290.037 198.986 208.571 267.203 107.14 244.821Z" stroke="#4482F0" stroke-width="9.86662"/>
</g>
<g style="mix-blend-mode:multiply">
<path d="M106.856 193.072C20.826 174.085 -49.6326 85.4975 -50.5409 -4.83968C-51.3844 -95.1768 17.6468 -153.047 103.676 -134.059C189.706 -115.072 260.165 -26.4843 261.073 63.8528C261.981 154.19 192.885 212.06 106.856 193.072Z" stroke="#4482F0" stroke-width="9.86662"/>
</g>
<g style="mix-blend-mode:multiply">
<path d="M106.567 163.44C36.1591 147.892 -21.5053 75.354 -22.2486 1.38306C-22.9389 -72.5879 33.5572 -119.974 103.965 -104.426C174.373 -88.8785 232.037 -16.3403 232.781 57.6307C233.524 131.602 176.975 178.988 106.567 163.44Z" stroke="#4482F0" stroke-width="9.86662"/>
</g>
<g style="mix-blend-mode:multiply">
<path d="M106.283 134.197C51.2766 122.044 6.22627 65.3436 5.64551 7.52351C5.10624 -50.2966 49.2438 -87.3363 104.25 -75.1833C159.256 -63.0303 204.306 -6.3301 204.887 51.49C205.468 109.31 161.289 146.35 106.283 134.197Z" stroke="#4482F0" stroke-width="9.86662"/>
</g>
<g style="mix-blend-mode:multiply">
<path d="M105.998 104.953C66.3935 96.195 33.9573 55.3329 33.5392 13.6637C33.1509 -28.0055 64.93 -54.6989 104.534 -45.9406C144.139 -37.1823 176.575 3.67981 176.993 45.349C177.411 87.0182 145.602 113.712 105.998 104.953Z" stroke="#4482F0" stroke-width="9.86662"/>
</g>
<g style="mix-blend-mode:multiply">
<path d="M105.71 75.3205C81.7269 70.0021 62.0849 45.1892 61.8317 19.8862C61.5966 -5.41684 80.8406 -21.626 104.823 -16.3077C128.806 -10.9893 148.448 13.8236 148.701 39.1266C148.954 64.4296 129.692 80.6388 105.71 75.3205Z" stroke="#4482F0" stroke-width="9.86662"/>
</g>
<g style="mix-blend-mode:multiply">
<path d="M105.576 51.5847C94.0112 49.0292 84.5394 37.1066 84.4173 24.9485C84.3039 12.7905 93.5838 5.00196 105.149 7.55742C116.714 10.1129 126.186 22.0355 126.308 34.1936C126.43 46.3516 117.141 54.1401 105.576 51.5847Z" stroke="#4482F0" stroke-width="9.86662"/>
</g>
</g>
</g>
</g>
<path d="M49.3054 -43.1333H42.1323V350.988H49.3054V-43.1333Z" fill="#BDBDBD"/>
<path d="M40.2852 13.9003L217.851 53.5056L214.597 -330.102L40.3811 -380.478L40.2852 13.9003Z" fill="#F2F2F2"/>
<path d="M79.9785 8.55566L84.4004 25.7113L113.479 32.0956L111.237 14.094L79.9785 8.55566Z" fill="#F2F2F2"/>
<path d="M89.7816 24.2287L89.6421 22.7285L105.498 25.912L105.734 27.5691" fill="#E0E0E0"/>
<path d="M88.9549 5.59863L79.9802 8.55528L111.239 14.0936L117.815 10.8317L88.9549 5.59863Z" fill="white"/>
<path d="M113.478 32.0953L118.72 29.6969L117.813 10.8318L111.236 14.0937L113.478 32.0953Z" fill="#BDBDBD"/>
<path d="M99.3868 22.0752C100.646 20.9829 100.489 18.7408 99.0365 17.0672C97.5843 15.3937 95.3866 14.9226 94.1279 16.0149C92.8691 17.1072 93.0259 19.3493 94.4781 21.0229C95.9303 22.6964 98.128 23.1676 99.3868 22.0752Z" fill="#4482F0"/>
<path d="M33.7703 174.18L118.371 195.112V227.382L33.7703 204.706V174.18Z" fill="#E4E4E4"/>
<path d="M169.852 172.717L115.379 196.822V229.092L169.852 203.74V172.717Z" fill="#D7D7D7"/>
<path d="M161.515 184.158C161.933 183.934 162.403 183.825 162.877 183.844C163.351 183.862 163.812 184.008 164.21 184.265C164.586 184.584 164.878 184.991 165.06 185.449C165.242 185.908 165.309 186.404 165.256 186.894L164.97 198.613L150.883 204.73L151.283 188.609L161.515 184.158ZM164.055 198.041L164.316 187.629C164.365 185.62 162.985 184.608 161.246 185.359L152.189 189.295L151.846 203.35L164.055 198.041Z" fill="#355A9C"/>
<path d="M154.525 190.317L154.304 199.545L161.736 196.279L161.907 189.386C161.907 188.48 161.286 187.998 160.494 188.341L156.795 189.974V191.607L160.609 189.974L160.494 195.094L155.717 197.226L155.913 189.353L160.813 187.23C162.013 186.707 162.928 187.377 162.895 188.749L162.691 196.916L153.389 200.999L153.634 191.003L154.525 190.317ZM159.539 194.531L159.612 191.469L156.729 192.685L156.656 195.78L159.539 194.531Z" fill="#355A9C"/>
<path d="M30.7783 175.891L86.1058 153.958L169.852 172.657L115.379 196.823L30.7783 175.891Z" fill="#F2F2F2"/>
<path d="M31.1538 143.123L115.754 164.055V196.326L31.1538 173.649V143.123Z" fill="#E4E4E4"/>
<path d="M169.852 139.98L115.379 164.021V196.292L169.852 171.063V139.98Z" fill="#D7D7D7"/>
<path d="M30.7783 143.087L86.365 120.453L169.852 139.98L115.379 164.019L30.7783 143.087Z" fill="white"/>
<path d="M77.7803 228.97L102.288 226.476C102.288 226.476 126.709 223.859 130.198 220.37C133.686 216.882 129.326 218.626 137.175 211.649C145.025 204.671 147.641 203.799 150.258 202.055C152.874 200.31 155.491 202.927 153.746 204.671C152.002 206.416 147.563 209.616 146.725 211.509C145.888 213.402 158.107 210.715 160.724 208.997C163.34 207.279 165.957 207.253 167.701 206.381C169.446 205.509 166.829 212.486 165.085 213.358C163.34 214.23 158.334 216.786 156.476 218.591C154.619 220.397 151.13 226.441 147.641 229.057C144.153 231.674 113.627 248.995 107.521 254.725C101.416 260.455 88.3859 259.147 88.3859 259.147" fill="#FAFAFA"/>
<path d="M130.153 219.902C126.843 222.468 120.529 223.302 115.268 224.344C117.863 228.026 122.802 237.35 121.792 245.187C128.947 240.602 144.874 231.71 148.554 228.977C152.234 226.243 155.905 219.938 157.874 218.043C159.843 216.148 165.114 213.487 166.955 212.576C168.795 211.665 171.555 204.375 169.715 205.287C167.875 206.198 165.114 206.234 162.354 208.02C159.594 209.806 146.797 212.612 147.634 210.635C149.04 208.934 153.154 205.323 154.994 203.501C156.834 201.678 154.074 198.945 151.314 200.767C148.554 202.59 145.794 203.501 137.514 210.79C129.233 218.079 133.833 216.257 130.153 219.902Z" fill="#4F4F4F"/>
<path d="M97.9512 133.032C99.9146 132.268 101.996 131.851 104.102 131.802C106.441 131.663 108.788 131.838 111.081 132.322L131.284 136.988L110.996 145.96L83.252 139.597L97.9512 133.032ZM128.103 137.158L110.19 133.032C106.733 132.226 101.875 132.481 99.3724 133.594L86.3276 139.364L110.508 144.942L128.103 137.158Z" fill="#4482F0"/>
<path d="M93.3705 138.674L109.279 142.333L119.99 137.593L108.102 134.867C106.446 134.507 104.725 134.599 103.117 135.132L97.8142 137.487L100.678 138.144L106.246 135.737L115.091 137.762L108.229 140.796L94.6856 137.614L101.706 134.507C104.057 133.709 106.581 133.573 109.003 134.114L123.108 137.37L109.682 143.352L92.4902 139.385L93.3705 138.674ZM111.93 137.943L106.627 136.723L102.385 138.547L107.688 139.777L111.93 137.943Z" fill="#4482F0"/>
<path d="M13.8663 279.627L10.7178 238.687C10.7178 238.687 -1.49262 233.454 -0.620445 229.093C0.251726 224.733 11.59 170.658 11.59 170.658C11.59 170.658 13.3343 163.681 23.8004 161.064C34.2664 158.448 53.4542 152.342 75.2585 163.681C97.0628 175.019 98.8071 179.38 99.6793 183.741C100.551 188.101 100.7 279.627 100.7 279.627" fill="white"/>
<path d="M39.1067 127.912C39.1067 127.912 33.8736 109.814 60.4313 109.814C83.0467 109.814 82.785 123.926 82.2355 128.13C82.096 129.133 81.9739 130.136 81.8954 131.139C81.5378 135.735 80.2732 147.85 76.549 154.199C76.3867 154.47 76.1726 154.706 75.9189 154.894C75.6653 155.081 75.377 155.217 75.0708 155.293C74.7645 155.37 74.4462 155.385 74.1341 155.338C73.822 155.29 73.5223 155.182 73.2522 155.019C72.431 154.515 71.5526 154.111 70.6357 153.816C70.2088 153.691 69.7748 153.592 69.3361 153.519C67.4871 153.214 68.1761 153.092 67.5918 154.391C66.1876 157.487 68.5512 159.738 69.6327 160.81C71.8131 162.991 35.5569 169.166 41.0429 157.322C42.6668 154.109 43.5603 150.576 43.6594 146.978C43.5142 143.373 42.9284 139.8 41.915 136.337C41.5487 134.924 41.0429 133.607 40.5981 132.186C39.7543 129.933 39.1691 127.593 38.8537 125.208" fill="#FFCBC0"/>
<path d="M81.9564 122.05C75.6061 126.009 68.4199 128.431 60.9691 129.125C53.5183 129.818 46.0085 128.764 39.0368 126.045C39.0368 126.045 34.1091 116.085 37.1878 99.0077C40.2666 81.9306 83.7095 96.0249 83.7095 96.0249C83.2908 105.985 82.0698 112.064 82.0262 122.033" fill="white"/>
<path d="M10.7175 238.686L12.1042 179.901C12.1042 179.901 -2.55697 228.176 -0.664359 230.557C1.22825 232.938 5.24025 237.238 10.7175 238.686Z" fill="url(#paint0_linear)"/>
<path d="M68.5604 198.488L79.6981 259.087L100.648 258.258L42.6831 279.618L68.5604 198.488Z" fill="url(#paint1_linear)"/>
<path d="M38.6194 125.025C38.6194 125.025 39.0467 127.092 48.9371 128.81C55.1231 129.814 61.4472 129.577 67.5406 128.112C67.5406 128.112 74.1516 126.281 75.0674 125.749C75.9832 125.217 78.6956 123.926 78.6956 123.926C77.2304 124.728 77.6229 127.72 77.6229 127.72C75.3029 132.194 76.5675 134.776 76.5675 134.776L74.265 135.055V133.52C74.265 133.52 74.5615 128.165 70.8984 127.685C67.2353 127.205 66.3806 130.86 66.1887 133.52C65.9968 136.18 70.5496 139.328 67.244 141.108C63.9385 142.887 58.8712 150.588 58.8712 150.588C45.5967 150.876 43.5733 148.059 43.5733 148.059C43.5733 148.059 44.0966 143.611 41.0702 133.938C38.2705 125.025 38.6194 125.025 38.6194 125.025Z" fill="#4F4F4F"/>
<g style="mix-blend-mode:multiply" opacity="0.61">
<path d="M68.1851 128.312C68.1851 128.312 66.2663 132.612 69.1968 138.011C69.1968 138.011 69.755 140.532 71.1069 139.947C69.0398 145.329 68.9439 151.966 74.9706 155.341C74.6762 155.421 74.3681 155.437 74.0671 155.387C73.7661 155.337 73.4794 155.223 73.2262 155.053C72.0847 154.342 70.8225 153.845 69.5021 153.588C69.0129 153.44 68.5042 153.367 67.9932 153.37C67.3565 153.37 66.3535 146.567 67.592 143.541C68.8305 140.514 68.595 138.744 68.0543 137.88C67.6094 137.156 65.9872 135.15 66.2227 133.048C66.4582 130.946 66.8768 129.385 68.1851 128.312Z" fill="#EAC2B2"/>
</g>
<path d="M172.508 367.732L490.257 435.299L490.423 -38.6562L172.673 -98.1646L172.508 367.732Z" fill="#F2F2F2"/>
<path opacity="0.5" d="M327.257 251.35L217.224 227.531C216.039 227.273 214.978 226.618 214.217 225.674C213.455 224.73 213.039 223.555 213.037 222.342L213.124 78.957C213.125 78.1652 213.302 77.3835 213.644 76.6693C213.986 75.9551 214.483 75.3264 215.099 74.8296C215.716 74.3327 216.436 73.9802 217.206 73.7979C217.977 73.6157 218.778 73.6083 219.552 73.7762L329.585 97.5953C330.777 97.854 331.844 98.5157 332.605 99.469C333.366 100.422 333.775 101.609 333.763 102.828L333.676 246.213C333.671 247.001 333.489 247.778 333.146 248.486C332.802 249.195 332.305 249.819 331.69 250.311C331.075 250.803 330.358 251.152 329.591 251.332C328.824 251.511 328.026 251.518 327.257 251.35Z" fill="#BDBDBD"/>
<path d="M323.715 253.094L213.682 229.275C212.497 229.018 211.436 228.362 210.676 227.418C209.916 226.474 209.502 225.298 209.504 224.086L209.582 80.7005C209.584 79.9092 209.763 79.1284 210.105 78.415C210.447 77.7016 210.945 77.0737 211.561 76.5771C212.177 76.0806 212.896 75.728 213.666 75.545C214.436 75.3621 215.237 75.3535 216.01 75.5198L326.035 99.3388C327.228 99.5973 328.295 100.259 329.057 101.212C329.82 102.165 330.231 103.351 330.221 104.572L330.134 247.957C330.127 248.744 329.945 249.52 329.601 250.228C329.257 250.936 328.759 251.558 328.145 252.05C327.53 252.542 326.814 252.891 326.047 253.072C325.281 253.252 324.484 253.26 323.715 253.094Z" fill="white"/>
<path d="M233.586 98.1105L234.196 97.5262C234.595 98.0122 235.134 98.3627 235.74 98.5292C236.403 98.6774 236.769 98.4594 236.769 97.9971C236.769 97.5349 236.386 97.2819 235.854 96.9331L235.042 96.4098C234.704 96.234 234.416 95.974 234.206 95.6548C233.997 95.3355 233.874 94.9678 233.848 94.5869C233.848 93.6537 234.72 93.113 235.836 93.3659C236.563 93.5245 237.214 93.9241 237.685 94.4997L237.153 95.0405C236.818 94.6514 236.37 94.3769 235.871 94.2555C235.304 94.1334 234.938 94.3166 234.938 94.7439C234.938 95.1713 235.391 95.4766 235.88 95.7818L236.682 96.2877C237.03 96.4592 237.324 96.7217 237.535 97.0472C237.745 97.3728 237.863 97.7493 237.877 98.1367C237.877 99.0873 237.083 99.7066 235.749 99.4188C234.906 99.2266 234.148 98.7678 233.586 98.1105Z" fill="white"/>
<path d="M238.819 98.5028V96.4009L238.182 96.2614V95.4851L238.871 95.5898L238.993 94.4124L239.865 94.5955V95.7991L240.999 96.052V96.8719L239.865 96.6277V98.7209C239.865 99.2442 240.066 99.5407 240.493 99.593C240.646 99.6192 240.802 99.6192 240.955 99.593L241.13 100.395C240.841 100.442 240.547 100.442 240.258 100.395C239.823 100.32 239.433 100.083 239.166 99.7323C238.899 99.3811 238.775 98.9418 238.819 98.5028Z" fill="white"/>
<path d="M241.435 98.3621C241.398 98.0856 241.43 97.8043 241.528 97.5431C241.626 97.2819 241.787 97.049 241.997 96.8652C242.206 96.6813 242.458 96.5521 242.73 96.4892C243.002 96.4262 243.285 96.4315 243.554 96.5044C244.168 96.6632 244.71 97.0242 245.093 97.529C245.476 98.0338 245.677 98.6531 245.665 99.2866C245.704 99.5625 245.674 99.8438 245.577 100.105C245.481 100.366 245.32 100.599 245.111 100.783C244.901 100.967 244.649 101.095 244.377 101.157C244.105 101.218 243.823 101.211 243.554 101.136C242.939 100.982 242.394 100.623 242.009 100.12C241.624 99.6157 241.422 98.9961 241.435 98.3621ZM244.592 99.0511C244.652 98.6848 244.581 98.3091 244.391 97.99C244.201 97.671 243.905 97.4291 243.554 97.3068C242.9 97.1672 242.508 97.6731 242.508 98.554C242.458 98.9137 242.536 99.2795 242.727 99.5883C242.918 99.8971 243.21 100.13 243.554 100.246C244.208 100.438 244.601 99.9408 244.601 99.0511H244.592Z" fill="white"/>
<path d="M246.405 99.4441C246.38 99.1613 246.424 98.8766 246.533 98.6147C246.643 98.3528 246.815 98.1215 247.034 97.941C247.253 97.7606 247.513 97.6363 247.791 97.5791C248.069 97.5218 248.357 97.5333 248.63 97.6125C249.133 97.7338 249.587 98.008 249.929 98.3974L249.423 98.9556C249.232 98.722 248.973 98.5542 248.682 98.4759C247.967 98.319 247.478 98.7986 247.478 99.6795C247.442 100.062 247.54 100.444 247.755 100.763C247.969 101.081 248.288 101.314 248.656 101.424C248.813 101.455 248.975 101.455 249.132 101.424C249.289 101.393 249.438 101.33 249.571 101.241L249.99 102.017C249.777 102.151 249.539 102.241 249.29 102.28C249.041 102.319 248.786 102.307 248.542 102.244C247.914 102.103 247.355 101.745 246.964 101.233C246.573 100.721 246.376 100.087 246.405 99.4441Z" fill="white"/>
<path d="M238.808 118.313C243.528 113.889 242.895 105.546 237.396 99.6794C231.896 93.8125 223.612 92.643 218.892 97.0671C214.173 101.491 214.805 109.834 220.305 115.7C225.805 121.567 234.089 122.737 238.808 118.313Z" fill="#4482F0"/>
<path d="M228.863 100.801V114.914" stroke="#FEFEFE" stroke-width="3.12615" stroke-linecap="round" stroke-linejoin="round"/>
<path d="M235.972 109.396L221.734 106.315" stroke="#FEFEFE" stroke-width="3.12615" stroke-linecap="round" stroke-linejoin="round"/>
<path d="M238.812 164.015C243.531 159.591 242.899 151.248 237.399 145.382C231.899 139.515 223.615 138.345 218.896 142.769C214.176 147.193 214.809 155.536 220.308 161.403C225.808 167.269 234.092 168.439 238.812 164.015Z" fill="#4482F0"/>
<path d="M250.243 146.699L249.319 146.507V146.332L251.368 146.777V146.943L250.444 146.742V149.446L250.243 149.402V146.699Z" fill="#222C3D"/>
<path d="M228.863 146.507V160.602" stroke="#FEFEFE" stroke-width="3.12615" stroke-linecap="round" stroke-linejoin="round"/>
<path d="M235.973 155.102L221.735 152.004" stroke="#FEFEFE" stroke-width="3.12615" stroke-linecap="round" stroke-linejoin="round"/>
</g>
</g>
<defs>
<linearGradient id="paint0_linear" x1="1.21953" y1="209.294" x2="16.7267" y2="209.294" gradientUnits="userSpaceOnUse">
<stop offset="0.41" stop-color="#699FFF"/>
<stop offset="0.7" stop-color="#5492ED"/>
</linearGradient>
<linearGradient id="paint1_linear" x1="48.9279" y1="239.219" x2="103.543" y2="237.858" gradientUnits="userSpaceOnUse">
<stop offset="0.31" stop-color="#FAFAFA"/>
<stop offset="0.61" stop-color="#DFDFDF"/>
</linearGradient>
</defs>
</svg>
