<?xml version="1.0" encoding="UTF-8"?>
<svg fill="none" viewBox="0 0 345 251" xmlns="http://www.w3.org/2000/svg">
<mask id="g" x="0" y="0" width="345" height="251" mask-type="alpha" maskUnits="userSpaceOnUse">
<rect x=".65576" y=".30347" width="343.8" height="250" rx="20" fill="#C4C4C4"/>
</mask>
<g mask="url(#g)">
<mask id="f" x="-114" y="0" width="615" height="251" mask-type="alpha" maskUnits="userSpaceOnUse">
<path d="m500.55 0.30347h-613.43v250h613.43v-250z" fill="#C4C4C4" stroke="#606060" stroke-miterlimit="10" stroke-width=".32191"/>
</mask>
<g mask="url(#f)">
<path d="m135.63 250.49h138.66v-213.43l-138.66-27.052v240.48z" fill="#E0E0E0"/>
<path d="m229.08 152.16 110.04-52.176v75.956l-110.04-23.78z" fill="#D7D7D7"/>
<path d="m339.11 99.99-110.04 52.175v-75.948l110.04 23.773z" fill="#E0E0E0"/>
<path d="m253.47 116.74 79.215 15.214v30.216l-79.215-16.847v-28.583z" fill="#F2F2F2"/>
<path d="m398.83 102.56-66.148 29.399v30.216l65.331-30.216 0.817-29.399z" fill="#A8A8A8"/>
<path d="m253.47 116.74 66.94-31.686 78.423 17.5-66.148 29.4-79.215-15.214z" fill="#D7D7D7"/>
<path d="m229.08 235.95 110.04-52.176v75.956l-110.04-23.78z" fill="#D7D7D7"/>
<path d="m339.11 183.78-110.04 52.176v-75.948l110.04 23.772z" fill="#E0E0E0"/>
<path d="m492.82 208.99-265.66-57.39-1.602 7.415 265.66 57.39 1.602-7.415z" fill="#F2F2F2"/>
<path d="m229.08 68.548 110.04-52.176v75.956l-110.04-23.781z" fill="#D7D7D7"/>
<path d="m339.11 16.374-110.04 52.176v-75.956l110.04 23.781z" fill="#E0E0E0"/>
<path d="m269.56 244.48-43.095-9.309-1.602 7.415 43.095 9.31 1.602-7.416z" fill="#F2F2F2"/>
<path d="m493.79 125.5-266.43-57.554-1.602 7.4155 266.43 57.555 1.602-7.416z" fill="#F2F2F2"/>
<path d="m219.96 0.30371v250.37h11.194v-250.37" fill="#BDBDBD"/>
<path d="m217.72 0.30371v250.37h11.194v-250.37" fill="#F2F2F2"/>
<path d="m157.27 13.363h-13.806v236.94h13.806v-236.94z" fill="#BDBDBD"/>
<path d="m-113.06 250.49h256.53v-235.45l122.95 27.612v207.84h234.33v-250.37h-613.81v250.37z" fill="#F2F2F2"/>
<path d="m178.9 9.719 4.141 16.063 27.227 5.9779-2.099-16.856-29.269-5.1857z" fill="#F2F2F2"/>
<path d="m188.08 24.394-0.13-1.4046 14.846 2.9807 0.221 1.5517" fill="#E0E0E0"/>
<path d="m187.31 6.9502-8.404 2.7684 29.269 5.1857 6.157-3.0542-27.022-4.8999z" fill="#fff"/>
<path d="m210.27 31.76 4.908-2.2458-0.849-17.664-6.158 3.0542 2.099 16.856z" fill="#BDBDBD"/>
<path d="m197.07 22.379c1.179-1.0228 1.032-3.1222-0.328-4.6892s-3.418-2.0082-4.596-0.9854c-1.179 1.0228-1.032 3.1222 0.328 4.6892 1.359 1.567 3.417 2.0081 4.596 0.9854z" fill="#4482F0"/>
<path d="m401.11 235.37-103.03-22.302c-1.11-0.242-2.103-0.856-2.816-1.74-0.713-0.883-1.103-1.984-1.104-3.119l0.081-134.26c0-0.7413 0.167-1.4733 0.487-2.142 0.32-0.6688 0.785-1.2573 1.363-1.7226 0.577-0.4652 1.251-0.7953 1.972-0.9659 0.722-0.1707 1.472-0.1776 2.197-0.0203l103.03 22.303c1.116 0.2422 2.115 0.8618 2.827 1.7544 0.713 0.8925 1.096 2.0034 1.085 3.1455l-0.082 134.26c-5e-3 0.738-0.174 1.465-0.496 2.129-0.322 0.663-0.788 1.247-1.363 1.708-0.576 0.461-1.248 0.787-1.966 0.956-0.718 0.168-1.465 0.174-2.185 0.017z" fill="#D7D7D7" opacity=".5"/>
<path d="m397.79 294.68-103.03-30.034c-1.11-0.324-2.103-1.151-2.815-2.341-0.711-1.191-1.099-2.674-1.097-4.202l0.073-180.8c2e-3 -0.9977 0.169-1.9823 0.49-2.8819 0.32-0.8995 0.786-1.6912 1.363-2.3173s1.25-1.0708 1.971-1.3014c0.721-0.2307 1.471-0.2416 2.195-0.0319l103.02 30.034c1.117 0.326 2.116 1.16 2.83 2.362s1.099 2.698 1.09 4.237l-0.082 180.8c-6e-3 0.992-0.177 1.97-0.499 2.863s-0.788 1.678-1.363 2.298c-0.576 0.62-1.247 1.06-1.964 1.288-0.718 0.227-1.464 0.237-2.184 0.028z" fill="#fff"/>
<path d="m299.46 111.37c-0.171 0.064-0.359 0.064-0.53 0-0.133-0.027-0.259-0.081-0.37-0.16-0.111-0.078-0.204-0.178-0.274-0.294l-2.463-3.523c-0.303-0.417-0.265-0.909 0-1.099 0.198-0.097 0.425-0.116 0.635-0.053 0.211 0.063 0.39 0.204 0.502 0.394l1.212 1.743c0.181-1.844 0.73-3.632 1.615-5.259s2.088-3.059 3.537-4.2122c1.786-1.3252 3.847-2.2313 6.031-2.651 2.184-0.4198 4.434-0.3423 6.584 0.2265 4.269 1.0225 8.151 3.2593 11.176 6.4397 3.096 3.137 5.26 7.071 6.251 11.366 0.029 0.095 0.036 0.196 0.02 0.295-0.017 0.099-0.056 0.192-0.115 0.273s-0.136 0.147-0.224 0.193c-0.089 0.046-0.187 0.071-0.287 0.072-0.227-0.019-0.441-0.111-0.611-0.261-0.171-0.15-0.289-0.35-0.336-0.572-0.86-3.967-2.831-7.607-5.683-10.494-2.76-2.899-6.299-4.9382-10.191-5.8722-1.939-0.4897-3.963-0.5467-5.927-0.1669-1.964 0.3797-3.821 1.1868-5.438 2.3641-1.321 1.066-2.415 2.386-3.215 3.883-0.801 1.497-1.292 3.14-1.444 4.83l1.591-0.985c0.194-0.078 0.41-0.087 0.61-0.025s0.373 0.192 0.488 0.366c0.08 0.068 0.144 0.152 0.188 0.247s0.067 0.198 0.067 0.303c0 0.104-0.023 0.207-0.067 0.302s-0.108 0.179-0.188 0.247l-3.144 2.083zm10.873 0.19-0.872-2.841 4.167 0.909c0.094 0.031 0.194 0.038 0.291 0.022s0.189-0.056 0.267-0.116c0.078-0.059 0.141-0.137 0.182-0.226 0.042-0.09 0.061-0.188 0.056-0.286-9e-3 -0.228-0.091-0.447-0.235-0.624-0.143-0.178-0.34-0.304-0.561-0.361l-4.697-1.061-0.796-2.614c-0.046-0.179-0.141-0.341-0.275-0.469-0.134-0.127-0.301-0.214-0.482-0.251l-2.955-0.682c-0.094-0.031-0.194-0.038-0.291-0.022s-0.188 0.056-0.267 0.116c-0.078 0.059-0.141 0.137-0.182 0.227-0.042 0.089-0.061 0.187-0.056 0.285 3e-3 0.23 0.083 0.452 0.227 0.631s0.345 0.303 0.569 0.354l2.386 0.531c1.44 4.735 2.842 9.433 4.281 14.13-0.536-0.021-1.061 0.154-1.477 0.493-0.283 0.217-0.51 0.499-0.661 0.822-0.152 0.323-0.224 0.678-0.211 1.034 0.041 0.82 0.347 1.604 0.872 2.235 0.517 0.656 1.236 1.122 2.045 1.326 0.348 0.098 0.713 0.115 1.068 0.05 0.354-0.066 0.689-0.213 0.978-0.429 0.284-0.225 0.51-0.514 0.662-0.843 0.151-0.329 0.223-0.689 0.21-1.051-6e-3 -0.47-0.11-0.935-0.304-1.364l5.531 1.213c-0.192 0.391-0.308 0.815-0.341 1.25 0.028 0.831 0.329 1.631 0.856 2.274 0.527 0.644 1.252 1.096 2.062 1.287 0.347 0.098 0.712 0.115 1.067 0.049 0.354-0.065 0.689-0.212 0.978-0.428 0.279-0.221 0.502-0.504 0.653-0.826s0.226-0.675 0.219-1.03c-0.022-0.829-0.315-1.627-0.834-2.273-0.549-0.637-1.274-1.098-2.083-1.326l-9.661-2.159-0.454-1.516 10.115 2.273c0.15 0.048 0.314 0.036 0.456-0.035 0.141-0.071 0.249-0.194 0.301-0.344l2.841-7.993c0.022-0.1 0.022-0.203 0-0.303-0.014-0.226-0.099-0.442-0.241-0.619-0.143-0.176-0.336-0.304-0.554-0.366l-5.228-1.175c-0.096-0.023-0.197-0.024-0.293-2e-3 -0.097 0.022-0.187 0.065-0.264 0.128-0.077 0.062-0.139 0.141-0.18 0.231s-0.061 0.188-0.059 0.287c0.01 0.228 0.092 0.447 0.235 0.625 0.143 0.177 0.34 0.304 0.561 0.36l4.129 0.91-0.871 2.462-12.88-2.879zm12.425 4.394-11.895-2.689 0.909 3.03 10.039 2.273 0.947-2.614zm-5.947-7.197c-0.094-0.031-0.193-0.039-0.291-0.023-0.097 0.017-0.189 0.056-0.267 0.116s-0.141 0.138-0.182 0.227c-0.042 0.089-0.061 0.187-0.056 0.286 9e-3 0.228 0.092 0.446 0.235 0.624 0.143 0.177 0.34 0.304 0.561 0.361 0.096 0.023 0.196 0.024 0.293 2e-3 0.096-0.022 0.187-0.065 0.264-0.128 0.077-0.062 0.138-0.141 0.18-0.231 0.041-0.09 0.061-0.188 0.058-0.287-0.017-0.222-0.103-0.432-0.245-0.602-0.143-0.17-0.335-0.291-0.55-0.345zm5.644 14.547c0.344 0.091 0.649 0.291 0.872 0.568 0.23 0.293 0.362 0.651 0.379 1.023 6e-3 0.164-0.025 0.328-0.091 0.479-0.065 0.15-0.164 0.285-0.288 0.392-0.305 0.121-0.643 0.121-0.947 0-0.355-0.091-0.672-0.29-0.91-0.568-0.245-0.284-0.38-0.647-0.378-1.023-7e-3 -0.164 0.024-0.328 0.09-0.479 0.065-0.15 0.164-0.285 0.288-0.392 0.246-0.162 0.542-0.23 0.834-0.19l0.151 0.19zm-9.849-1.819c0.234 0.291 0.368 0.65 0.378 1.023 1e-3 0.158-0.033 0.315-0.098 0.458-0.066 0.144-0.161 0.272-0.28 0.376-0.135 0.099-0.289 0.167-0.453 0.2s-0.332 0.029-0.495-0.011c-0.363-0.091-0.685-0.305-0.909-0.606-0.255-0.278-0.391-0.645-0.379-1.023-9e-3 -0.159 0.021-0.318 0.087-0.463s0.166-0.272 0.292-0.37c0.128-0.099 0.275-0.167 0.433-0.2s0.32-0.029 0.476 0.01c0.369 0.104 0.699 0.315 0.948 0.606zm17.956-0.606 1.591-0.985c-0.153 1.685-0.644 3.322-1.445 4.813s-1.894 2.804-3.214 3.863c-1.614 1.183-3.469 1.997-5.434 2.384-1.964 0.386-3.989 0.335-5.931-0.149-3.892-0.934-7.431-2.973-10.191-5.872-2.846-2.892-4.816-6.53-5.682-10.494-0.054-0.219-0.173-0.417-0.342-0.566-0.17-0.149-0.381-0.243-0.606-0.267-0.1 1e-3 -0.198 0.026-0.287 0.072-0.088 0.046-0.165 0.112-0.224 0.193s-0.098 0.174-0.114 0.273c-0.017 0.098-0.01 0.199 0.019 0.295 0.991 4.294 3.155 8.229 6.251 11.365 3.025 3.181 6.907 5.418 11.176 6.44 2.15 0.569 4.4 0.647 6.584 0.227s4.245-1.326 6.031-2.651c1.449-1.153 2.652-2.586 3.537-4.213s1.434-3.415 1.615-5.258l1.212 1.743c0.111 0.18 0.283 0.314 0.486 0.377 0.202 0.063 0.42 0.05 0.613-0.036 0.075-0.071 0.134-0.156 0.174-0.251 0.041-0.094 0.062-0.196 0.062-0.299s-0.021-0.204-0.062-0.299c-0.04-0.094-0.099-0.179-0.174-0.25l-2.462-3.523c-0.15-0.236-0.378-0.41-0.644-0.493-0.09-0.038-0.187-0.058-0.284-0.058-0.098 0-0.195 0.02-0.285 0.058l-2.955 1.819c-0.074 0.07-0.133 0.156-0.174 0.25-0.04 0.094-0.061 0.196-0.061 0.299s0.021 0.204 0.061 0.299c0.041 0.094 0.1 0.179 0.174 0.25 0.054 0.211 0.185 0.394 0.368 0.514 0.182 0.119 0.402 0.166 0.617 0.13z" clip-rule="evenodd" fill="#4482F0" fill-rule="evenodd"/>
<path d="m155.22 252-0.67-65.005s-11.433-4.9-10.616-8.983 11.433-54.715 11.433-54.715 1.633-6.533 11.433-8.983 27.766-8.167 48.182 2.45c20.416 10.616 22.05 14.699 22.866 18.782 0.817 4.084 2.45 40.016 2.45 40.016 0.817 23.928-0.498 31.139-4.614 33.197s-45.822 21.886-45.822 21.886c-7.245 3.409-14.872 5.94-22.719 7.538-13.385 2.784-18.178 3.111-19.599 3.674-1.421 0.564-4.721-0.506-4.721-0.506s17.607-7.072 17.885-8.468c0.278-1.397 5.308-3.349 5.308-4.737s-7.807 1.388-8.918-2.515c-1.11-3.904 1.634-1.389 6.411-2.507 4.777-1.119 10.616-4.459 14.495-2.508 3.88 1.952 25.153-9.628 30.004-14.43s24.246-12.249 24.246-12.249l-0.694 57.982-76.34 0.081z" fill="url(#e)"/>
<path d="m157.1 206.19 0.73-10.176-3.253-9.015s-11.254-4.823-10.634-8.886c5e-3 -0.033 0.011-0.065 0.017-0.097 0.817-4.083 11.433-54.715 11.433-54.715s1.633-6.533 11.433-8.983 27.766-8.167 48.182 2.45c20.417 10.616 22.05 14.699 22.866 18.782 0.817 4.084 2.45 40.016 2.45 40.016 0.817 23.928-0.498 31.139-4.614 33.197s-45.822 21.886-45.822 21.886c-7.245 3.409-14.872 5.94-22.719 7.538-13.385 2.784-17.337 3.266-18.725 3.838-1.389 0.571-3.316-0.564-3.316-0.564s15.353-7.178 15.631-8.575c0.277-1.396 5.251-3.348 5.251-4.736s-7.808 1.388-8.918-2.515c-1.111-3.904 1.633-1.389 6.41-2.507 4.778-1.119 10.617-4.459 14.496-2.508 3.879 1.952 25.153-9.628 30.004-14.43 4.85-4.802 14.969-8.983 14.969-8.983l-14.969 8.983h-50.902z" fill="#fff"/>
<path d="m154.58 187s-11.254-4.823-10.634-8.886l-1.038 5.587c-8.023 5.162-26.679 22.799-33.396 29.664-8.395 8.583-12.313 10.049-9.7014 14.786 2.6124 4.736 2.9854 2.499 4.2914 2.499 0.062 0.333 0.373 0.962 1.119 0.812 0.249-0.062 0.858-0.037 1.306 0.56s1.431 0.249 1.866 0c0.746 0.249 0.97 0.485 1.119-0.56 0.187-1.305-0.186-1.958 0.56-3.311s3.358-3.218 3.918-4.524c0.448-1.045 0.684-2.426 0.746-2.985 12.334-5.038 39.973-17.5 41.418-22.575s-1.318-9.119-1.574-11.067z" fill="#fff"/>
<path d="m122.99 197.74c-10.143 7.631-10.626 9.529-13.694 12.626-10.867 10.969-15.938 12.844-12.557 18.898 3.3811 6.054 3.8641 3.194 5.5541 3.194 0.081 0.426 0.483 1.229 1.449 1.039 0.322-0.08 1.111-0.048 1.69 0.715 0.58 0.763 1.852 0.318 2.415 0 0.966 0.318 2.946 0.62 3.139-0.715 0.242-1.67-1.931-2.504-0.966-4.233 0.966-1.729 4.347-4.113 5.072-5.783 0.579-1.335 1.17-2.144 1.25-2.859 6.691-2.611 13.644-4.838 20.405-7.473-0.184-5.802-3.382-18.27-13.757-15.409z" fill="#F2F2F2"/>
<path d="m218.99 199.04-2.45-47.626s-0.4-6.044-7.758-4.9c-7.358 1.143-47.267 49.497-42.139 58.308 5.129 8.812 36.333 14.144 36.333 14.144 2.981-3.288 11.797-18.546 16.014-19.926z" fill="url(#d)"/>
<path d="m155.41 192.47 3.918-48.321-8.023-0.933-6.903 63.246c4.302-1.951 6.625-3.362 10.448-6.343l0.56-7.649z" fill="url(#c)"/>
<path d="m201.26 101.57c-1.519-8.5751 2.164-13.067 1.037-25.594-0.093-1.4897-0.55-2.934-1.331-4.2057-2.05 1.1917-4.246 2.1113-6.533 2.7358l-9.179 0.9309c-2.001 2.8583 4.965 4.7121 3.029 7.6193-1.019 3.0361-2.355 5.9567-3.985 8.7137-1.331 2.4499-2.866 4.8263-4.418 7.1783-0.18 0.5063-0.368 1.0045-0.531 1.5027-0.356 1.108-0.599 2.249-0.727 3.405 0.259 0.269 0.454 0.593 0.568 0.949 0.115 0.355 0.147 0.732 0.094 1.101 0 0.27-0.074 0.547-0.123 0.817v0.098c-0.188 1.061-0.465 2.148-0.694 3.217l0.408-0.057 3.112 8.077s-7.35 12.356 5.953 12.25c13.303-0.107 20-14.471 20.082-15.517 0.081-1.045-5.268-4.687-6.762-13.221z" fill="#FFCBC0"/>
<path d="m202.76 73.296c0-9.3343 1.184-15.026 1.584-24.352 0 0-40.677-13.213-43.568 2.7929s1.739 25.316 1.739 25.316c15.9 2.5643 28.526 2.6705 40.245-3.7647" fill="#fff"/>
<path d="m204.39 48.943s-40.71-13.213-43.601 2.8092c-1.429 7.9378 22.948 5.2674 22.948 5.2674 7.205-1.7858 14.148-4.5007 20.653-8.0766z" fill="#fff"/>
<path d="m215.01 116.76c20.416 10.617 22.049 14.7 22.866 18.783 0.816 4.083 2.45 40.016 2.45 40.016 0.816 23.927-1.14 33.689-5.256 35.747s-45.18 19.336-45.18 19.336c-7.246 3.409-14.873 5.939-22.72 7.537-13.384 2.785-17.337 3.267-18.725 3.838-1.389 0.572-5.57-0.669-5.57-0.669s17.607-7.072 17.885-8.469c0.277-1.396 5.251-3.348 5.251-4.736 0-1.389-7.807 1.388-8.918-2.516-1.111-3.903 1.633-1.388 6.411-2.507 4.777-1.119 10.616-4.459 14.495-2.507s24.049-10.475 28.899-15.277c4.851-4.802 13.806-9.142 13.806-9.142l-0.599 17.731" fill="#fff"/>
<path d="m211.38 221.95c-4.083 2.058-23.881 10.955-23.881 10.955s-5.373 0.931-17.966 6.24c-13.515 5.716-22.245 5.161-23.568 4.083-0.711-0.605-2.924 0-4.345-1.103-0.13-0.099-0.229-0.234-0.284-0.388-0.056-0.154-0.067-0.321-0.03-0.481 0.036-0.16 0.117-0.306 0.233-0.421 0.117-0.115 0.264-0.194 0.424-0.229 5.341-1.208 17.019-6.149 18.089-7.701 0.816-1.2 5.969-3.332 5.969-4.72s-7.807 1.388-8.917-2.515c-1.111-3.904 1.633-1.388 6.41-2.507 4.778-1.119 10.617-4.459 14.496-2.507 3.879 1.951 18.817-7.897 23.668-12.699" fill="#4F4F4F"/>
<path d="m211.38 221.95c-4.083 2.058-23.881 10.955-23.881 10.955s-5.373 0.931-17.966 6.24c-13.515 5.716-22.245 5.161-23.568 4.083-0.711-0.605-2.924 0-4.345-1.103-0.13-0.099-0.229-0.234-0.284-0.388-0.056-0.154-0.067-0.321-0.03-0.481 0.036-0.16 0.117-0.306 0.233-0.421 0.117-0.115 0.264-0.194 0.424-0.229 5.341-1.208 17.019-6.149 18.089-7.701 0.816-1.2 5.969-3.332 5.969-4.72s-7.807 1.388-8.917-2.515c-1.111-3.904 1.633-1.388 6.41-2.507 4.778-1.119 10.617-4.459 14.496-2.507 3.879 1.951 18.817-7.897 23.668-12.699 7.65 0 9.702 8.034 9.702 13.993z" fill="#4F4F4F"/>
<g opacity=".61" style="mix-blend-mode:multiply">
<path d="m201.13 93.099c0.049-0.2858 0.131-0.5635 0.205-0.8166 0.073-0.2532 0.057-0.5962 0.089-0.8902 0.163-2.19 0.435-4.3705 0.817-6.5331-0.087-0.1531-0.214-0.28-0.367-0.3675-2.205-1.2005-5.055 2.5724-5.055 2.5724l-3.945-7.3988s-1.486 0.3267-4.083 0.6206l0.098 0.1552c0.532 1.3229 0.744 2.7526 0.621 4.1731-0.047 3.7156-0.557 7.4109-1.519 11-1.542 5.6051-4.821 10.578-9.367 14.201 0.137 0.231 0.251 0.475 0.343 0.727l0.261 0.588c0.14 0.311 0.231 0.641 0.269 0.98l1.822 4.23c11.767-0.775 16.332-17.672 16.52-18.782 0.188-1.1106 1.013 1.1025 1.936 0.1797 0.531-0.866 0.935-1.8039 1.2-2.7848 0.01-0.6207 0.062-1.2401 0.155-1.8538z" fill="#F2AD9D"/>
</g>
<path d="m162.33 76.971c-0.031 1.0579 0.013 2.1167 0.13 3.1686 0.253 2.7847 0.441 28.468 14.145 30.297 13.703 1.83 20.604-15.753 20.783-16.945 0.18-1.1923 1.013 1.1024 1.936 0.1796s4.785-9.6609 2.572-10.853-5.055 2.5724-5.055 2.5724l-3.944-7.3988s-18.971 1.6333-30.567-1.0208z" fill="#FFCBC0"/>
<path d="m194.67 89.319c-0.618-1.29-1.446-2.4684-2.45-3.487-1.524-1.3238-3.164-2.5073-4.9-3.5361 0.449-1.3475-0.547-2.695-0.098-4.0833 0 0 6.419-0.2858 14.7-4.614 0.588 3.2017 0.728 6.4696 0.416 9.7099 0 0-3.593-4.5814-6.133 4.6712l-1.535 1.3393z" fill="#4F4F4F"/>
<path d="m26.136 192.8 79.214 19.6v30.216l-79.214-21.233v-28.583z" fill="#E4E4E4"/>
<path d="m171.51 183-66.148 29.399v30.216l65.332-30.216 0.816-29.399z" fill="#D7D7D7"/>
<path d="m26.144 192.8 66.941-27.309 78.423 17.509-66.149 29.399-79.214-19.599z" fill="#F2F2F2"/>
<path d="m3.1072 187.33s7.5376-8.125 17.337-10.575c9.7997-2.45 26.949-6.003 47.366 4.614 20.416 10.616 27.627 16.267 28.444 20.351 0.8166 4.083-5.4552 73.555-5.4552 73.555" fill="#FF5B63"/>
<path d="m70.154 242.5 22.948-2.336s22.866-2.45 26.133-5.716c3.266-3.267-0.817-1.634 6.533-8.167s9.799-7.35 12.249-8.983 4.9 0.817 3.267 2.45-5.79 4.63-6.533 6.403c-0.743 1.772 10.616-0.744 13.066-2.352 2.45-1.609 4.9-1.634 6.533-2.45 1.634-0.817-0.816 5.716-2.45 6.533-1.633 0.817-6.312 3.209-8.06 4.9-1.748 1.69-5.006 7.35-8.273 9.8-3.266 2.449-31.849 18.668-37.565 24.033-5.7165 5.366-17.942 4.173-17.942 4.173" fill="#FFCBC0"/>
<path d="m26.144 162.08 79.214 19.6v30.216l-79.214-21.233v-28.583z" fill="#E4E4E4"/>
<path d="m171.51 152.28-66.148 29.4v30.216l65.332-30.216 0.816-29.4z" fill="#D7D7D7"/>
<path d="m26.144 162.08 66.941-27.309 78.423 17.509-66.149 29.4-79.214-19.6z" fill="#fff"/>
<path d="m94.068 151.16c1.5121-0.58 3.1115-0.9 4.7304-0.946 1.7994-0.109 3.6044 0.028 5.3664 0.408l15.496 3.572-15.594 6.9-21.344-4.894 11.345-5.04zm23.195 3.181-13.775-3.181c-2.659-0.612-6.3858-0.416-8.3188 0.432l-10.032 4.461 18.588 4.299 13.538-6.011z" fill="#4482F0"/>
<path d="m90.553 155.53 12.234 2.814 8.237-3.638-9.118-2.104c-1.272-0.279-2.596-0.212-3.8332 0.196l-4.0779 1.81 2.2102 0.514 4.2739-1.86 6.802 1.558-5.277 2.333-10.415-2.398 5.4073-2.398c1.8046-0.613 3.7428-0.718 5.6028-0.302l10.848 2.504-10.309 4.559-13.278-3.058 0.6932-0.53zm14.273-0.563-4.078-0.93-3.2624 1.403 4.0784 0.938 3.262-1.411z" fill="#4482F0"/>
<path d="m161.81 193.44c0.417-0.224 0.888-0.333 1.362-0.314 0.473 0.018 0.934 0.164 1.332 0.42 0.376 0.32 0.668 0.727 0.85 1.185 0.182 0.459 0.249 0.955 0.196 1.445l-0.286 11.719-14.087 6.117 0.4-16.121 10.233-4.451zm2.539 13.883 0.262-10.412c0.049-2.009-1.331-3.022-3.071-2.27l-9.057 3.936-0.343 14.054 12.209-5.308z" fill="#355A9C"/>
<path d="m154.82 199.6-0.221 9.228 7.432-3.267 0.171-6.892c0-0.907-0.62-1.388-1.413-1.045l-3.699 1.633v1.633l3.814-1.633-0.115 5.12-4.777 2.132 0.196-7.873 4.9-2.123c1.2-0.523 2.115 0.147 2.082 1.519l-0.204 8.166-9.301 4.084 0.245-9.996 0.89-0.686zm5.014 4.214 0.074-3.063-2.883 1.217-0.074 3.095 2.883-1.249z" fill="#355A9C"/>
<path d="m10.31 289.92-3.5524-42.58s-21.176-11.139-20.359-15.223c0.8166-4.083 16.709-44.793 16.709-44.793s7.5376-8.125 17.337-10.575c9.7997-2.45 26.949-6.003 47.366 4.614 20.416 10.616 27.627 16.267 28.444 20.351 0.8166 4.083 3.2666 37.647 3.2666 37.647" fill="#BDBDBD"/>
<path d="m74.155 253.57s17.027-4.998 25.316-14.21c0 0-2.45-33.564-3.2666-37.647" fill="#BDBDBD"/>
<path d="m33.944 147.87s-4.9489-16.946 19.983-16.946c21.176 0 20.931 13.214 20.416 17.15-0.1307 0.939-0.245 1.878-0.3185 2.817-0.3348 4.304-1.519 15.647-5.006 21.593-0.1512 0.253-0.351 0.474-0.5877 0.649-0.2368 0.176-0.506 0.303-0.7921 0.375-0.2861 0.071-0.5835 0.085-0.8751 0.041s-0.5716-0.145-0.8239-0.298c-0.77-0.469-1.5922-0.848-2.4499-1.127-0.3998-0.116-0.8061-0.209-1.2168-0.277-1.7232-0.286-1.0862-0.409-1.6333 0.816-1.3148 2.899 0.9064 5.006 1.9109 6.011 2.0416 2.041-31.898 7.823-26.77-3.267 1.5206-3.008 2.3572-6.316 2.45-9.685-0.1286-3.379-0.6773-6.728-1.6333-9.971-0.3348-1.315-0.8167-2.548-1.225-3.88-0.8071-2.106-1.3715-4.298-1.6823-6.533" fill="#FFCBC0"/>
<path d="m59.12 129.61s19.281-8.714 25.536-1.2c1.3557 1.633 0.5308 2.629-0.4491 3.609l-9.9713 5.717c-11.768 7.488-27.031 15.573-39.918 10.379 0 0-5.4715-4.989 0.1634-20.244 2.7521-7.432 11.139-10.805 19.428-10.78 2.6966-2e-3 5.3665 0.534 7.8541 1.575s4.7431 2.566 6.635 4.488c1.892 1.922 3.3824 4.201 4.3846 6.704s1.496 5.181 1.4526 7.878" fill="#BDBDBD"/>
<path d="m35.462 144.76s0.2776-4.859 5.8227-4.288c1.538 0.113 3.0104 0.669 4.2393 1.601s2.1617 2.2 2.6858 3.65c0 0-7.162 1.495-12.748-0.963z" fill="#4F4F4F"/>
<path d="m6.8068 247.02 1.2985-45.136s-13.728 35.296-11.956 37.501 5.5124 6.32 10.657 7.635z" fill="url(#b)"/>
<path d="m60.614 208.85 6.4842 45.83 7.064-1.103 7.8153 23.602-50.918 12.061 29.554-80.39z" fill="url(#a)"/>
<path d="m32.596 145.07s1.1841 2.842 10.551 3.65c6.0424 0.415 12.087-0.78 17.517-3.462 0 0 6.672-3.398 7.5295-3.896s4.4589-2.637 4.4589-2.637c-1.3719 0.751-2.6541 8.983-2.6541 8.983-2.1641 4.189-0.98 6.606-0.98 6.606l-2.1641 0.262v-1.438s0.2695-5.022-3.1277-5.43c-3.3973-0.409-4.2384 2.972-4.4181 5.463s4.0832 5.439 0.9882 7.105c-3.0951 1.666-7.8399 8.877-7.8399 8.877-12.429 0.269-14.324-2.368-14.324-2.368s0.4981-4.165-2.3438-13.222c-2.6133-8.346-3.1686-8.452-3.1686-8.452" fill="#4F4F4F"/>
<g opacity=".61" style="mix-blend-mode:multiply">
<path d="m61.178 148.25s-1.7884 4.027 0.9473 9.082c0 0 0.5309 2.36 1.7885 1.813-1.9354 5.038-2.0171 11.253 3.6259 14.413-0.2756 0.075-0.5641 0.09-0.8459 0.043-0.2818-0.046-0.5504-0.153-0.7874-0.312-1.0718-0.666-2.2563-1.131-3.4952-1.372-0.4554-0.138-0.9289-0.207-1.4047-0.204-0.6043 0-1.5353-6.37-0.3756-9.204 1.1596-2.834 0.931-4.491 0.4328-5.3-0.4247-0.678-1.9354-2.556-1.715-4.524 0.2205-1.968 0.588-3.471 1.8293-4.435z" fill="#F7A393"/>
</g>
<path d="m23.689 219.75 24.627 5.377c-0.3118-6.409-0.3274-9.957 0-16.188l-0.0439-0.01 0.0439-0.026-24.627-5.418c-0.9215 6.446-0.8298 10.004 0 16.265zm0.7654-15.305 0.2123 0.047 6.0179 8.066-6.2302 6.409c-0.5211-5.843-0.5214-9.048 0-14.522zm23.096 19.546-8.1897-9.772 7.9219-4.706 0.2678 0.06c-0.5059 5.627-0.4606 8.787 0 14.418zm-16.332-10.882 0.6087 0.627 2.6114 2.737 0.4209 0.445 3.8462-2.304 7.8878 9.332-21.336-4.705 5.9606-6.132zm8.8551-0.212 6.1426-3.621-20.201-4.484 5.2161 7.239 0.0118-0.012 1.3083 1.371 2.4519 2.526 2.8501-1.68 1.082-0.648 1.1383-0.691z" clip-rule="evenodd" fill="#F2F2F2" fill-rule="evenodd"/>
</g>
</g>
<defs>
<linearGradient id="e" x1="157.47" x2="220.63" y1="148.35" y2="223.16" gradientUnits="userSpaceOnUse">
<stop stop-color="#fff" offset=".56"/>
<stop stop-color="#F5F5F5" offset="1"/>
</linearGradient>
<linearGradient id="d" x1="177.3" x2="217.44" y1="169.6" y2="190.84" gradientUnits="userSpaceOnUse">
<stop stop-color="#fff" offset=".48"/>
<stop stop-color="#F7F7F7" offset="1"/>
</linearGradient>
<linearGradient id="c" x1="146.95" x2="161.63" y1="161.72" y2="164.62" gradientUnits="userSpaceOnUse">
<stop stop-color="#fff" offset=".48"/>
<stop stop-color="#E9E9E9" offset="1"/>
</linearGradient>
<linearGradient id="b" x1="-2.0864" x2="12.434" y1="224.46" y2="224.46" gradientUnits="userSpaceOnUse">
<stop stop-color="#BDBDBD" offset=".31"/>
<stop stop-color="#B1B1B1" offset=".61"/>
</linearGradient>
<linearGradient id="a" x1="39.258" x2="86.373" y1="248.99" y2="250.95" gradientUnits="userSpaceOnUse">
<stop stop-color="#BDBDBD" offset=".31"/>
<stop stop-color="#ACACAC" offset=".49"/>
</linearGradient>
</defs>
</svg>
